<svg xmlns="http://www.w3.org/2000/svg" viewBox="0 0 512 512"><path d="M256 162.5c-51.6 0-93.5 42-93.5 93.5 0 51.6 42 93.5 93.5 93.5s93.5-41.9 93.5-93.5-41.9-93.5-93.5-93.5zM433.5 120.4c0 23.1-18.8 41.9-41.9 41.9-23.1 0-41.9-18.7-41.9-41.9 0-23.1 18.8-41.9 41.9-41.9 23.1 0 41.9 18.8 41.9 41.9z"/><path d="M256 464c-114.7 0-208-93.3-208-208S141.3 48 256 48c24.8 0 49.1 4.3 72.3 12.9 8.3 3.1 12.5 12.3 9.5 20.6-3.1 8.3-12.3 12.5-20.6 9.5-19.6-7.2-40.2-10.9-61.2-10.9C159 80.1 80.1 159 80.1 256S159 431.9 256 431.9 431.9 353 431.9 256c0-21-3.7-41.6-10.9-61.1-3.1-8.3 1.2-17.5 9.5-20.6 8.3-3.1 17.5 1.2 20.6 9.5 8.6 23.1 12.9 47.5 12.9 72.3C464 370.7 370.7 464 256 464z"/></svg>