<?xml version="1.0" encoding="UTF-8" standalone="no"?>
<svg width="416px" height="221px" viewBox="0 0 416 221" version="1.1" xmlns="http://www.w3.org/2000/svg" xmlns:xlink="http://www.w3.org/1999/xlink">
    <!-- Generator: Sketch 42 (36781) - http://www.bohemiancoding.com/sketch -->
    <title>AmericanFlag</title>
    <desc>Created with Sketch.</desc>
    <defs></defs>
    <g id="Page-1" stroke="none" stroke-width="1" fill="none" fill-rule="evenodd">
        <path d="M83,0 L416,0 L416,17 L166,17 L166,34 L416,34 L416,51 L166,51 L166,68 L416,68 L416,85 L166,85 L166,102 L416,102 L416,119 L0,119 L0,110.5 L0,0 L83,0 Z M0,136 L416,136 L416,153 L0,153 L0,136 Z M0,170 L416,170 L416,187 L0,187 L0,170 Z M0,204 L416,204 L416,221 L0,221 L0,204 Z M13.7063391,15 L17.2330506,16.854102 L16.5595086,12.927051 L19.4126782,10.145898 L15.4696949,9.57294902 L13.7063391,6 L11.9429833,9.57294902 L8,10.145898 L10.8531695,12.927051 L10.1796276,16.854102 L13.7063391,15 Z M27.7063391,26 L31.2330506,27.854102 L30.5595086,23.927051 L33.4126782,21.145898 L29.4696949,20.572949 L27.7063391,17 L25.9429833,20.572949 L22,21.145898 L24.8531695,23.927051 L24.1796276,27.854102 L27.7063391,26 Z M55.7063391,26 L59.2330506,27.854102 L58.5595086,23.927051 L61.4126782,21.145898 L57.4696949,20.572949 L55.7063391,17 L53.9429833,20.572949 L50,21.145898 L52.8531695,23.927051 L52.1796276,27.854102 L55.7063391,26 Z M83.7063391,26 L87.2330506,27.854102 L86.5595086,23.927051 L89.4126782,21.145898 L85.4696949,20.572949 L83.7063391,17 L81.9429833,20.572949 L78,21.145898 L80.8531695,23.927051 L80.1796276,27.854102 L83.7063391,26 Z M111.706339,26 L115.233051,27.854102 L114.559509,23.927051 L117.412678,21.145898 L113.469695,20.572949 L111.706339,17 L109.942983,20.572949 L106,21.145898 L108.85317,23.927051 L108.179628,27.854102 L111.706339,26 Z M139.706339,26 L143.233051,27.854102 L142.559509,23.927051 L145.412678,21.145898 L141.469695,20.572949 L139.706339,17 L137.942983,20.572949 L134,21.145898 L136.85317,23.927051 L136.179628,27.854102 L139.706339,26 Z M27.7063391,50 L31.2330506,51.854102 L30.5595086,47.927051 L33.4126782,45.145898 L29.4696949,44.572949 L27.7063391,41 L25.9429833,44.572949 L22,45.145898 L24.8531695,47.927051 L24.1796276,51.854102 L27.7063391,50 Z M55.7063391,50 L59.2330506,51.854102 L58.5595086,47.927051 L61.4126782,45.145898 L57.4696949,44.572949 L55.7063391,41 L53.9429833,44.572949 L50,45.145898 L52.8531695,47.927051 L52.1796276,51.854102 L55.7063391,50 Z M83.7063391,50 L87.2330506,51.854102 L86.5595086,47.927051 L89.4126782,45.145898 L85.4696949,44.572949 L83.7063391,41 L81.9429833,44.572949 L78,45.145898 L80.8531695,47.927051 L80.1796276,51.854102 L83.7063391,50 Z M111.706339,50 L115.233051,51.854102 L114.559509,47.927051 L117.412678,45.145898 L113.469695,44.572949 L111.706339,41 L109.942983,44.572949 L106,45.145898 L108.85317,47.927051 L108.179628,51.854102 L111.706339,50 Z M139.706339,50 L143.233051,51.854102 L142.559509,47.927051 L145.412678,45.145898 L141.469695,44.572949 L139.706339,41 L137.942983,44.572949 L134,45.145898 L136.85317,47.927051 L136.179628,51.854102 L139.706339,50 Z M27.7063391,74 L31.2330506,75.854102 L30.5595086,71.927051 L33.4126782,69.145898 L29.4696949,68.572949 L27.7063391,65 L25.9429833,68.572949 L22,69.145898 L24.8531695,71.927051 L24.1796276,75.854102 L27.7063391,74 Z M55.7063391,74 L59.2330506,75.854102 L58.5595086,71.927051 L61.4126782,69.145898 L57.4696949,68.572949 L55.7063391,65 L53.9429833,68.572949 L50,69.145898 L52.8531695,71.927051 L52.1796276,75.854102 L55.7063391,74 Z M83.7063391,74 L87.2330506,75.854102 L86.5595086,71.927051 L89.4126782,69.145898 L85.4696949,68.572949 L83.7063391,65 L81.9429833,68.572949 L78,69.145898 L80.8531695,71.927051 L80.1796276,75.854102 L83.7063391,74 Z M111.706339,74 L115.233051,75.854102 L114.559509,71.927051 L117.412678,69.145898 L113.469695,68.572949 L111.706339,65 L109.942983,68.572949 L106,69.145898 L108.85317,71.927051 L108.179628,75.854102 L111.706339,74 Z M139.706339,74 L143.233051,75.854102 L142.559509,71.927051 L145.412678,69.145898 L141.469695,68.572949 L139.706339,65 L137.942983,68.572949 L134,69.145898 L136.85317,71.927051 L136.179628,75.854102 L139.706339,74 Z M27.7063391,98 L31.2330506,99.854102 L30.5595086,95.927051 L33.4126782,93.145898 L29.4696949,92.572949 L27.7063391,89 L25.9429833,92.572949 L22,93.145898 L24.8531695,95.927051 L24.1796276,99.854102 L27.7063391,98 Z M55.7063391,98 L59.2330506,99.854102 L58.5595086,95.927051 L61.4126782,93.145898 L57.4696949,92.572949 L55.7063391,89 L53.9429833,92.572949 L50,93.145898 L52.8531695,95.927051 L52.1796276,99.854102 L55.7063391,98 Z M83.7063391,98 L87.2330506,99.854102 L86.5595086,95.927051 L89.4126782,93.145898 L85.4696949,92.572949 L83.7063391,89 L81.9429833,92.572949 L78,93.145898 L80.8531695,95.927051 L80.1796276,99.854102 L83.7063391,98 Z M111.706339,98 L115.233051,99.854102 L114.559509,95.927051 L117.412678,93.145898 L113.469695,92.572949 L111.706339,89 L109.942983,92.572949 L106,93.145898 L108.85317,95.927051 L108.179628,99.854102 L111.706339,98 Z M139.706339,98 L143.233051,99.854102 L142.559509,95.927051 L145.412678,93.145898 L141.469695,92.572949 L139.706339,89 L137.942983,92.572949 L134,93.145898 L136.85317,95.927051 L136.179628,99.854102 L139.706339,98 Z M13.7063391,38 L17.2330506,39.854102 L16.5595086,35.927051 L19.4126782,33.145898 L15.4696949,32.572949 L13.7063391,29 L11.9429833,32.572949 L8,33.145898 L10.8531695,35.927051 L10.1796276,39.854102 L13.7063391,38 Z M41.7063391,38 L45.2330506,39.854102 L44.5595086,35.927051 L47.4126782,33.145898 L43.4696949,32.572949 L41.7063391,29 L39.9429833,32.572949 L36,33.145898 L38.8531695,35.927051 L38.1796276,39.854102 L41.7063391,38 Z M69.7063391,38 L73.2330506,39.854102 L72.5595086,35.927051 L75.4126782,33.145898 L71.4696949,32.572949 L69.7063391,29 L67.9429833,32.572949 L64,33.145898 L66.8531695,35.927051 L66.1796276,39.854102 L69.7063391,38 Z M97.7063391,38 L101.233051,39.854102 L100.559509,35.927051 L103.412678,33.145898 L99.4696949,32.572949 L97.7063391,29 L95.9429833,32.572949 L92,33.145898 L94.8531695,35.927051 L94.1796276,39.854102 L97.7063391,38 Z M125.706339,38 L129.233051,39.854102 L128.559509,35.927051 L131.412678,33.145898 L127.469695,32.572949 L125.706339,29 L123.942983,32.572949 L120,33.145898 L122.85317,35.927051 L122.179628,39.854102 L125.706339,38 Z M13.7063391,63 L17.2330506,64.854102 L16.5595086,60.927051 L19.4126782,58.145898 L15.4696949,57.572949 L13.7063391,54 L11.9429833,57.572949 L8,58.145898 L10.8531695,60.927051 L10.1796276,64.854102 L13.7063391,63 Z M41.7063391,63 L45.2330506,64.854102 L44.5595086,60.927051 L47.4126782,58.145898 L43.4696949,57.572949 L41.7063391,54 L39.9429833,57.572949 L36,58.145898 L38.8531695,60.927051 L38.1796276,64.854102 L41.7063391,63 Z M69.7063391,63 L73.2330506,64.854102 L72.5595086,60.927051 L75.4126782,58.145898 L71.4696949,57.572949 L69.7063391,54 L67.9429833,57.572949 L64,58.145898 L66.8531695,60.927051 L66.1796276,64.854102 L69.7063391,63 Z M97.7063391,63 L101.233051,64.854102 L100.559509,60.927051 L103.412678,58.145898 L99.4696949,57.572949 L97.7063391,54 L95.9429833,57.572949 L92,58.145898 L94.8531695,60.927051 L94.1796276,64.854102 L97.7063391,63 Z M125.706339,63 L129.233051,64.854102 L128.559509,60.927051 L131.412678,58.145898 L127.469695,57.572949 L125.706339,54 L123.942983,57.572949 L120,58.145898 L122.85317,60.927051 L122.179628,64.854102 L125.706339,63 Z M13.7063391,86 L17.2330506,87.854102 L16.5595086,83.927051 L19.4126782,81.145898 L15.4696949,80.572949 L13.7063391,77 L11.9429833,80.572949 L8,81.145898 L10.8531695,83.927051 L10.1796276,87.854102 L13.7063391,86 Z M41.7063391,86 L45.2330506,87.854102 L44.5595086,83.927051 L47.4126782,81.145898 L43.4696949,80.572949 L41.7063391,77 L39.9429833,80.572949 L36,81.145898 L38.8531695,83.927051 L38.1796276,87.854102 L41.7063391,86 Z M69.7063391,86 L73.2330506,87.854102 L72.5595086,83.927051 L75.4126782,81.145898 L71.4696949,80.572949 L69.7063391,77 L67.9429833,80.572949 L64,81.145898 L66.8531695,83.927051 L66.1796276,87.854102 L69.7063391,86 Z M97.7063391,86 L101.233051,87.854102 L100.559509,83.927051 L103.412678,81.145898 L99.4696949,80.572949 L97.7063391,77 L95.9429833,80.572949 L92,81.145898 L94.8531695,83.927051 L94.1796276,87.854102 L97.7063391,86 Z M125.706339,86 L129.233051,87.854102 L128.559509,83.927051 L131.412678,81.145898 L127.469695,80.572949 L125.706339,77 L123.942983,80.572949 L120,81.145898 L122.85317,83.927051 L122.179628,87.854102 L125.706339,86 Z M13.7063391,109 L17.2330506,110.854102 L16.5595086,106.927051 L19.4126782,104.145898 L15.4696949,103.572949 L13.7063391,100 L11.9429833,103.572949 L8,104.145898 L10.8531695,106.927051 L10.1796276,110.854102 L13.7063391,109 Z M41.7063391,109 L45.2330506,110.854102 L44.5595086,106.927051 L47.4126782,104.145898 L43.4696949,103.572949 L41.7063391,100 L39.9429833,103.572949 L36,104.145898 L38.8531695,106.927051 L38.1796276,110.854102 L41.7063391,109 Z M69.7063391,109 L73.2330506,110.854102 L72.5595086,106.927051 L75.4126782,104.145898 L71.4696949,103.572949 L69.7063391,100 L67.9429833,103.572949 L64,104.145898 L66.8531695,106.927051 L66.1796276,110.854102 L69.7063391,109 Z M97.7063391,109 L101.233051,110.854102 L100.559509,106.927051 L103.412678,104.145898 L99.4696949,103.572949 L97.7063391,100 L95.9429833,103.572949 L92,104.145898 L94.8531695,106.927051 L94.1796276,110.854102 L97.7063391,109 Z M125.706339,109 L129.233051,110.854102 L128.559509,106.927051 L131.412678,104.145898 L127.469695,103.572949 L125.706339,100 L123.942983,103.572949 L120,104.145898 L122.85317,106.927051 L122.179628,110.854102 L125.706339,109 Z M153.706339,109 L157.233051,110.854102 L156.559509,106.927051 L159.412678,104.145898 L155.469695,103.572949 L153.706339,100 L151.942983,103.572949 L148,104.145898 L150.85317,106.927051 L150.179628,110.854102 L153.706339,109 Z M153.706339,86 L157.233051,87.854102 L156.559509,83.927051 L159.412678,81.145898 L155.469695,80.572949 L153.706339,77 L151.942983,80.572949 L148,81.145898 L150.85317,83.927051 L150.179628,87.854102 L153.706339,86 Z M153.706339,63 L157.233051,64.854102 L156.559509,60.927051 L159.412678,58.145898 L155.469695,57.572949 L153.706339,54 L151.942983,57.572949 L148,58.145898 L150.85317,60.927051 L150.179628,64.854102 L153.706339,63 Z M153.706339,38 L157.233051,39.854102 L156.559509,35.927051 L159.412678,33.145898 L155.469695,32.572949 L153.706339,29 L151.942983,32.572949 L148,33.145898 L150.85317,35.927051 L150.179628,39.854102 L153.706339,38 Z M153.706339,15 L157.233051,16.854102 L156.559509,12.927051 L159.412678,10.145898 L155.469695,9.57294902 L153.706339,6 L151.942983,9.57294902 L148,10.145898 L150.85317,12.927051 L150.179628,16.854102 L153.706339,15 Z M125.706339,15 L129.233051,16.854102 L128.559509,12.927051 L131.412678,10.145898 L127.469695,9.57294902 L125.706339,6 L123.942983,9.57294902 L120,10.145898 L122.85317,12.927051 L122.179628,16.854102 L125.706339,15 Z M97.7063391,15 L101.233051,16.854102 L100.559509,12.927051 L103.412678,10.145898 L99.4696949,9.57294902 L97.7063391,6 L95.9429833,9.57294902 L92,10.145898 L94.8531695,12.927051 L94.1796276,16.854102 L97.7063391,15 Z M69.7063391,15 L73.2330506,16.854102 L72.5595086,12.927051 L75.4126782,10.145898 L71.4696949,9.57294902 L69.7063391,6 L67.9429833,9.57294902 L64,10.145898 L66.8531695,12.927051 L66.1796276,16.854102 L69.7063391,15 Z M41.7063391,15 L45.2330506,16.854102 L44.5595086,12.927051 L47.4126782,10.145898 L43.4696949,9.57294902 L41.7063391,6 L39.9429833,9.57294902 L36,10.145898 L38.8531695,12.927051 L38.1796276,16.854102 L41.7063391,15 Z" id="Combined-Shape" fill="#000000"></path>
    </g>
</svg>