<svg viewBox="0 0 512 512" xmlns="http://www.w3.org/2000/svg" fill-rule="evenodd" clip-rule="evenodd" stroke-linejoin="round" stroke-miterlimit="1.414"><g fill-rule="nonzero"><path d="M370.26 197.154l15.692 16.918L256 354.077 126.048 214.072l15.692-16.918L256 320.24l114.26-123.086z"/><path d="M256 1C115.137 1 1 115.137 1 256s114.137 255 255 255 255-114.137 255-255S396.863 1 256 1zm0 21.21c128.85 0 233.79 104.82 233.79 233.79 0 128.85-104.82 233.79-233.79 233.79-128.85 0-233.79-104.82-233.79-233.79C22.21 127.15 127.15 22.21 256 22.21z"/></g></svg>