<svg viewBox="0 0 512 512" xmlns="http://www.w3.org/2000/svg" fill-rule="evenodd" clip-rule="evenodd" stroke-linejoin="round" stroke-miterlimit="1.414"><path d="M482.957 214.188L288.754 14.043C280.348 5.348 268.9 1 256.29 1h-.58c-12.61 0-24.058 4.348-32.464 13.043L29.043 214.188c-18.115 17.392-18.115 45.363 0 62.61 18.116 17.245 47.392 17.245 65.508 0l115.073-120.29V466.65C209.623 491.145 230.348 511 256 511c26.087 0 46.377-19.855 46.377-44.348V156.507l115.072 120.29c18.115 17.246 47.39 17.246 65.507 0 18.115-17.246 18.115-45.217 0-62.61z" fill-rule="nonzero"/></svg>