<svg viewBox="0 0 512 512" xmlns="http://www.w3.org/2000/svg" fill-rule="evenodd" clip-rule="evenodd" stroke-linejoin="round" stroke-miterlimit="1.414"><g fill-rule="nonzero"><path d="M314.846 141.74l-16.918-15.692L157.923 256l140.005 129.952 16.918-15.692L191.76 256l123.086-114.26z"/><path d="M256 1C115.137 1 1 115.137 1 256s114.137 255 255 255 255-114.137 255-255S396.863 1 256 1zm0 488.79C127.15 489.79 22.21 384.97 22.21 256 22.21 127.15 127.03 22.21 256 22.21c128.85 0 233.79 104.82 233.79 233.79 0 128.85-104.94 233.79-233.79 233.79z"/></g></svg>