<svg viewBox="0 0 512 512" xmlns="http://www.w3.org/2000/svg" fill-rule="evenodd" clip-rule="evenodd" stroke-linejoin="round" stroke-miterlimit="1.414"><path d="M29.043 297.812l194.203 200.145C231.652 506.652 243.1 511 255.71 511h.58c12.61 0 24.058-4.348 32.464-13.043l194.203-200.145c18.115-17.392 18.115-45.363 0-62.61-18.116-17.245-47.392-17.245-65.508 0l-115.073 120.29V45.35C302.377 20.855 281.652 1 256 1c-26.087 0-46.377 19.855-46.377 44.348v310.145L94.55 235.203c-18.115-17.246-47.39-17.246-65.507 0-18.115 17.246-18.115 45.217 0 62.61z" fill-rule="nonzero"/></svg>