<svg viewBox="0 0 512 512" xmlns="http://www.w3.org/2000/svg" fill-rule="evenodd" clip-rule="evenodd" stroke-linejoin="round" stroke-miterlimit="1.414"><g fill-rule="nonzero"><path d="M141.74 314.846l-15.692-16.918L256 157.923l129.952 140.005-15.692 16.918L256 191.76 141.74 314.846z"/><path d="M256 511c140.863 0 255-114.137 255-255S396.863 1 256 1 1 115.137 1 256s114.137 255 255 255zm0-21.21C127.15 489.79 22.21 384.97 22.21 256 22.21 127.15 127.03 22.21 256 22.21c128.85 0 233.79 104.82 233.79 233.79 0 128.85-104.94 233.79-233.79 233.79z"/></g></svg>