<svg viewBox="0 0 512 512" xmlns="http://www.w3.org/2000/svg" fill-rule="evenodd" clip-rule="evenodd" stroke-linejoin="round" stroke-miterlimit="1.414"><path d="M466.796 209.623H156.652L276.942 94.55c17.246-18.115 17.246-47.39 0-65.506-17.247-18.116-45.218-18.116-62.61 0L14.043 223.246C5.35 231.652 1 243.1 1 255.71v.58c0 12.61 4.348 24.058 13.043 32.464l200.145 194.202c17.39 18.116 45.362 18.116 62.61 0 17.245-18.116 17.245-47.39 0-65.507l-120.29-115.073H466.65c24.494 0 44.35-20.725 44.35-46.377.144-26.087-19.71-46.377-44.204-46.377z" fill-rule="nonzero"/></svg>