<svg viewBox="0 0 512 512" xmlns="http://www.w3.org/2000/svg" fill-rule="evenodd" clip-rule="evenodd" stroke-linejoin="round" stroke-miterlimit="1.414"><g fill-rule="nonzero"><path d="M197.154 141.74l16.918-15.692L354.077 256 214.072 385.952l-16.918-15.692L320.24 256 197.154 141.74z"/><path d="M1 256c0 140.863 114.137 255 255 255s255-114.137 255-255S396.863 1 256 1 1 115.137 1 256zm21.21 0C22.21 127.15 127.03 22.21 256 22.21c128.85 0 233.79 104.82 233.79 233.79 0 128.85-104.82 233.79-233.79 233.79-128.85 0-233.79-104.94-233.79-233.79z"/></g></svg>