<svg viewBox="0 0 512 512" xmlns="http://www.w3.org/2000/svg" fill-rule="evenodd" clip-rule="evenodd" stroke-linejoin="round" stroke-miterlimit="1.414"><path d="M297.872 482.892L497.96 288.744c8.693-8.403 13.04-19.85 13.04-32.454v-.58c0-12.605-4.347-24.05-13.04-32.454L297.872 29.108c-17.386-18.11-45.35-18.11-62.59 0-17.242 18.11-17.242 47.378 0 65.49l120.255 115.038H45.48C20.85 209.636 1 230.356 1 256c0 26.08 19.85 46.364 44.335 46.364h310.057l-120.256 115.04c-17.24 18.11-17.24 47.377 0 65.488 17.387 18.11 45.35 18.11 62.736 0z" fill-rule="nonzero"/></svg>