<svg viewBox="0 0 512 512" xmlns="http://www.w3.org/2000/svg" fill-rule="evenodd" clip-rule="evenodd" stroke-linejoin="round" stroke-miterlimit="1.414"><path d="M393.406 511H118.578c-47.863 0-86.67-38.806-86.67-86.685V87.685C31.91 39.805 70.716 1 118.58 1h274.828c47.88 0 86.685 38.806 86.685 86.685v336.63c0 47.878-38.804 86.684-86.684 86.685zm9.995-113.273L295.328 96.72h-79.08L108.59 397.726h69.684l22.116-71.353h111.195l22.13 71.353h69.686zm-107.238-124.67c-20.447-64.648-31.96-101.23-34.54-109.682-2.582-8.485-4.42-15.177-5.518-20.107-4.606 17.51-17.742 60.768-39.44 129.788h79.498z"/></svg>