<svg viewBox="0 0 512 512" xmlns="http://www.w3.org/2000/svg" fill-rule="evenodd" clip-rule="evenodd" stroke-linejoin="round" stroke-miterlimit="1.414"><path d="M508.057 76.537l-67.32-53.097c-2.086-1.716-4.66-2.943-7.604-2.943-2.943 0-5.64 1.227-7.726 3.066L180.524 338.22s-96.26-92.582-98.96-95.28c-2.697-2.697-6.253-7.235-11.648-7.235-5.396 0-7.848 3.802-10.67 6.622-2.083 2.208-36.42 38.26-53.34 56.163a52.614 52.614 0 0 1-2.453 2.575C1.98 303.15 1 305.48 1 308.055c0 2.697.98 4.905 2.453 6.99l3.433 3.188s170.818 164.073 173.638 166.893c2.82 2.82 6.254 6.377 11.28 6.377 4.907 0 8.953-5.273 11.283-7.603l305.46-392.402c1.472-2.085 2.453-4.415 2.453-7.113 0-3.065-1.226-5.64-2.943-7.848z" fill-rule="nonzero"/></svg>