<svg viewBox="0 0 512 512" xmlns="http://www.w3.org/2000/svg" fill-rule="evenodd" clip-rule="evenodd" stroke-linejoin="round" stroke-miterlimit="1.414"><path d="M449.658 281.495c1.3-7.644 1.3-16.572 1.3-25.5 0-8.927-1.3-16.572-1.3-25.5l54.76-42.07c5.222-3.824 6.52-10.198 2.61-16.574l-52.162-87.977c-2.61-5.105-10.43-7.644-15.652-5.105l-65.203 25.5c-13.04-10.197-28.68-19.125-44.33-25.5l-9.13-67.57C319.25 6.104 314.03 1 307.51 1H203.182c-6.52 0-11.74 5.105-13.04 10.197l-10.43 67.57c-15.652 6.376-29.992 15.303-44.344 25.502L70.165 78.767c-6.52-2.54-13.042 0-15.652 5.105L2.35 171.853c-2.596 5.09-1.3 12.748 2.61 16.572l56.077 42.07c0 8.928-1.3 16.573-1.3 25.5 0 8.928 1.3 16.573 1.3 25.5l-54.76 42.072c-5.223 3.822-6.52 10.196-2.61 16.572l52.16 87.978c2.613 5.105 10.432 7.644 15.653 5.105l65.204-25.5c13.04 10.196 28.68 19.125 44.33 25.5l10.43 67.57c1.31 6.375 6.52 10.197 13.04 10.197h104.327c6.52 0 11.743-5.104 13.042-10.197l10.443-67.57c15.64-6.375 29.99-15.303 44.33-25.5l65.204 25.5c6.52 2.54 13.04 0 15.65-5.105l52.163-87.98c2.61-5.09 1.3-12.75-2.61-16.572l-57.375-42.07zm-194.31 63.75c-50.864 0-91.285-39.52-91.285-89.25s40.42-89.25 91.284-89.25c50.863 0 91.285 39.52 91.285 89.25s-40.422 89.25-91.285 89.25z" fill-rule="nonzero"/></svg>