<svg viewBox="0 0 512 512" xmlns="http://www.w3.org/2000/svg" fill-rule="evenodd" clip-rule="evenodd" stroke-linejoin="round" stroke-miterlimit="1.414"><path d="M339.527 256L507.023 88.504c5.303-5.303 5.303-13.7 0-18.56L442.5 4.976c-5.304-5.303-13.7-5.303-19.004 0L256 172.473 88.504 4.977c-5.303-5.303-13.7-5.303-19.003 0L4.978 69.5c-5.303 5.304-5.303 13.7 0 19.004L172.473 256 4.977 423.496c-5.303 5.303-5.303 13.7 0 18.56L69.5 506.582c5.304 5.304 13.7 5.304 18.562 0L256 339.528l167.496 167.496c5.303 5.303 13.7 5.303 18.56 0l64.525-64.524c5.304-5.304 5.304-13.7 0-18.562L339.528 256z" fill-rule="nonzero"/></svg>