<svg viewBox="0 0 512 512" xmlns="http://www.w3.org/2000/svg" fill-rule="evenodd" clip-rule="evenodd" stroke-linejoin="round" stroke-miterlimit="1.414"><path d="M444.727 140.188c-1.196-2.922-2.657-5.71-4.65-8.102L328.782 10.296c-2.522-2.788-5.577-4.78-8.897-6.507C316.03 1.796 311.78 1 307.266 1H94.898C78.43 1 64.75 15.078 64.75 32.742V477.93c0 17.797 13.68 33.07 30.148 33.07h322.868c16.468 0 29.484-15.273 29.484-33.07V153.734c0-4.78-.664-9.43-2.523-13.546zM128.5 152.672c0-1.992 2.39-2.79 4.516-2.79h94.03c2.126 0 3.72.798 3.72 2.79v14.344c0 1.86-1.46 4.117-3.72 4.117h-94.03c-2.125 0-4.516-2.258-4.516-4.117v-14.344zm0 170c0-1.992 2.39-2.79 4.516-2.79h162.297c2.125 0 3.187.798 3.187 2.79v14.344c0 1.86-.93 4.117-3.187 4.117H133.016c-2.125 0-4.516-2.258-4.516-4.117v-14.344zM341 422.016c0 1.86-.93 4.117-3.187 4.117H133.016c-2.125 0-4.516-2.258-4.516-4.117v-14.344c0-1.992 2.39-2.79 4.516-2.79h204.797c2.125 0 3.187.798 3.187 2.79v14.344zm42.5-170c0 1.86-.93 4.117-3.187 4.117H133.016c-2.125 0-4.516-2.258-4.516-4.117v-14.344c0-1.992 2.39-2.79 4.516-2.79h247.297c2.125 0 3.187.798 3.187 2.79v14.344zM321.21 151.21c-7.437 0-14.74-6.905-14.74-15.007V48.547l94.56 102.664h-79.82z" fill-rule="nonzero"/></svg>