<svg viewBox="0 0 512 512" xmlns="http://www.w3.org/2000/svg" fill-rule="evenodd" clip-rule="evenodd" stroke-linejoin="round" stroke-miterlimit="1.414"><g fill-rule="nonzero"><path d="M24.293 124.457c13.485 7.11 200.808 109.23 207.796 112.91 6.987 3.677 14.097 5.393 25.13 5.393 11.034 0 18.145-1.716 25.132-5.394 6.988-3.678 194.31-105.8 207.797-112.91 5.025-2.573 13.484-7.232 15.323-12.504 3.187-9.317-.245-12.872-13.853-12.872H22.822c-13.608 0-17.04 3.678-13.853 12.872 1.837 5.395 10.296 9.93 15.323 12.505z"/><path d="M500.814 129.974c-10.052 5.15-100.28 69.388-159.984 108.005l100.772 113.398c2.45 2.452 3.555 5.394 2.206 6.865-1.47 1.35-4.658.613-7.233-1.716L315.698 254.53c-18.267 11.768-31.14 19.86-33.346 21.085-9.44 4.78-16.06 5.394-25.13 5.394-9.073 0-15.693-.614-25.133-5.395-2.33-1.226-15.08-9.317-33.346-21.086L77.866 356.526c-2.452 2.452-5.762 3.187-7.233 1.716-1.47-1.348-.368-4.413 2.084-6.865l100.65-113.4C113.664 199.363 22.454 135.124 12.4 129.975c-10.787-5.517-11.4.98-11.4 6.007V387.3c0 11.4 16.795 25.622 28.81 25.622h454.822c12.014 0 26.358-14.344 26.358-25.622V135.98c0-5.148.735-11.523-10.176-6.006z"/></g></svg>