<svg viewBox="0 0 512 512" xmlns="http://www.w3.org/2000/svg" fill-rule="evenodd" clip-rule="evenodd" stroke-linejoin="round" stroke-miterlimit="1.414"><path d="M307.208 345.875c30.83-18.778 51.53-52.61 51.53-91.274 0-34.856-16.844-65.775-42.737-85.304C354.43 184.36 389.973 213.803 419.734 256c-32.02 45.4-70.728 76.043-112.525 89.875M92.27 256c25.072-35.546 54.237-62.092 85.777-78.585-20.37 19.478-33.135 46.844-33.135 77.186 0 33.73 15.74 63.81 40.216 83.418-34.252-16.106-65.925-43.83-92.857-82.017m159.555 77.628c-43.577 0-79.03-35.45-79.03-79.027 0-43.576 35.453-79.028 79.03-79.028s79.028 35.452 79.028 79.03c0 43.575-35.45 79.026-79.028 79.026m192.324-86.216C394.052 171.574 327.232 129.806 256 129.806c-71.227 0-138.053 41.77-188.15 117.606l-5.674 8.59 5.675 8.587c50.098 75.84 116.917 117.605 188.15 117.604 71.23 0 138.05-41.767 188.146-117.605l5.673-8.59-5.674-8.588z" fill-rule="nonzero"/><path d="M276.827 257.39c-15.79 0-28.59-12.8-28.59-28.59 0-7.416 2.848-14.15 7.478-19.23-1.286-.11-2.576-.197-3.89-.197-24.978 0-45.228 20.25-45.228 45.227 0 24.98 20.25 45.228 45.228 45.228s45.227-20.25 45.227-45.228c0-1.792-.132-3.55-.334-5.287-5.148 4.99-12.154 8.076-19.89 8.076" fill-rule="nonzero"/><path d="M256 1C115.393 1 1 115.394 1 256s114.393 255 255 255 255-114.393 255-255S396.607 1 256 1zm0 34.13c121.73 0 220.87 99.026 220.87 220.87 0 121.73-99.026 220.87-220.87 220.87-121.73 0-220.872-99.14-220.872-220.87S134.156 35.13 256 35.13z" fill="#030404" fill-rule="nonzero"/></svg>