<svg viewBox="0 0 512 512" xmlns="http://www.w3.org/2000/svg" fill-rule="evenodd" clip-rule="evenodd" stroke-linejoin="round" stroke-miterlimit="1.414"><g fill-rule="nonzero"><path d="M429.202 159.815h43.818v154.55h-43.818zM429.202 356.45h43.818V511h-43.818z"/><path d="M355.772 466.345H92.084V435.44h263.688v30.905zM90.152 358.163h263.707v30.906H90.15v-30.907zm-.977-77.275h263.688v30.906H89.175v-30.906zm89.81-183.424c13.43-13.13 32.28-19.687 56.49-19.687 9.187 0 17.875.877 26.025 2.59 8.15 1.734 15.244 3.926 21.3 6.596l-12.473 30.966c-10.52-5.202-22.058-7.812-34.652-7.812-11.518 0-20.405 3.766-26.682 11.258-6.297 7.473-9.445 18.173-9.445 32.082 0 13.65 2.83 24.05 8.55 31.205 5.678 7.154 13.887 10.74 24.568 10.74 5.858 0 11.26-.577 16.2-1.693v-22.876h-26.084v-30.448h63.008v78.67c-17.097 5.86-35.888 8.788-56.412 8.788-22.477 0-39.873-6.536-52.148-19.568-12.274-13.032-18.412-31.643-18.412-55.814 0-23.554 6.715-41.886 20.166-54.998M38.98 1v510h367.067V119.483h66.973V1H38.98z"/></g></svg>