<svg viewBox="0 0 512 512" xmlns="http://www.w3.org/2000/svg" fill-rule="evenodd" clip-rule="evenodd" stroke-linejoin="round" stroke-miterlimit="1.414"><path d="M1 256c0 140.863 114.137 255 255 255s255-114.137 255-255S396.863 1 256 1 1 115.137 1 256zm21.21 0C22.21 127.15 127.03 22.21 256 22.21c128.85 0 233.79 104.82 233.79 233.79 0 128.85-104.82 233.79-233.79 233.79-128.85 0-233.79-104.94-233.79-233.79z" fill-rule="nonzero"/><path d="M281.745 409.245h-51.49v-51.49h51.49v51.49zm-.245-77.235h-51c0-82.14 76.5-76.255 76.5-127.255 0-28.075-22.925-51.123-51-51.123s-51 23.906-51 50.878h-51c0-56.395 45.606-101.755 102-101.755s102 45.483 102 101.877c0 63.75-76.5 70.983-76.5 127.378z" fill-rule="nonzero"/></svg>