<svg viewBox="0 0 512 512" xmlns="http://www.w3.org/2000/svg" fill-rule="evenodd" clip-rule="evenodd" stroke-linejoin="round" stroke-miterlimit="1.414"><path d="M281.745 409.245h-51.49v-51.49h51.49v51.49zm-.245-77.235h-51c0-82.14 76.5-76.255 76.5-127.255 0-28.075-22.925-51.123-51-51.123s-51 23.906-51 50.878h-51c0-56.395 45.606-101.755 102-101.755s102 45.483 102 101.877c0 63.75-76.5 70.983-76.5 127.378z" fill-rule="nonzero"/><path d="M256 1C115.393 1 1 115.394 1 256s114.393 255 255 255 255-114.393 255-255S396.607 1 256 1zm0 34.13c121.73 0 220.87 99.026 220.87 220.87 0 121.73-99.026 220.87-220.87 220.87-121.73 0-220.872-99.14-220.872-220.87S134.156 35.13 256 35.13z" fill="#030404" fill-rule="nonzero"/></svg>