<svg viewBox="0 0 512 512" xmlns="http://www.w3.org/2000/svg" fill-rule="evenodd" clip-rule="evenodd" stroke-linejoin="round" stroke-miterlimit="1.414"><path d="M313.64 413.318H198.36v-42.845h13.827c7.962 0 14.417-6.454 14.417-14.417v-128.53c0-7.962-6.455-14.417-14.417-14.417H198.36v-42.847h87.612v185.793c0 7.963 6.455 14.417 14.417 14.417h13.25v42.845zM234 79.125c6.34-6.385 13.993-9.58 22.96-9.58 9.094 0 16.778 3.195 23.056 9.58 6.274 6.386 9.415 14.047 9.415 22.987 0 8.94-3.17 16.572-9.51 22.893-6.34 6.323-13.996 9.48-22.96 9.48-8.837 0-16.46-3.19-22.863-9.576-6.406-6.385-9.606-13.984-9.606-22.798 0-8.94 3.17-16.6 9.51-22.987" fill-rule="nonzero"/><path d="M256 1C115.393 1 1 115.394 1 256s114.393 255 255 255 255-114.393 255-255S396.607 1 256 1zm0 34.13c121.73 0 220.87 99.026 220.87 220.87 0 121.73-99.026 220.87-220.87 220.87-121.73 0-220.872-99.14-220.872-220.87S134.156 35.13 256 35.13z" fill="#030404" fill-rule="nonzero"/></svg>