<svg viewBox="0 0 512 512" xmlns="http://www.w3.org/2000/svg" fill-rule="evenodd" clip-rule="evenodd" stroke-linejoin="round" stroke-miterlimit="1.414"><path d="M511 256c0 140.847-114.155 255-255 255C115.172 511 1 396.847 1 256 1 115.136 115.172 1 256 1c140.845 0 255 114.136 255 255zm-313.83-66.598v15.744h30.04v231.23h-30.04v15.66h124.102v-15.66H289.84V189.403h-92.67zm94.258-85.26c0 21.916-17.714 39.735-39.644 39.735-21.947 0-39.66-17.82-39.66-39.734 0-21.882 17.713-39.7 39.66-39.7 21.93 0 39.644 17.818 39.644 39.7z"/></svg>