<svg viewBox="0 0 512 512" xmlns="http://www.w3.org/2000/svg" fill-rule="evenodd" clip-rule="evenodd" stroke-linejoin="round" stroke-miterlimit="1.414"><path d="M1 256c0 140.863 114.137 255 255 255s255-114.137 255-255S396.863 1 256 1 1 115.137 1 256zm21.21 0C22.21 127.15 127.03 22.21 256 22.21c128.85 0 233.79 104.82 233.79 233.79 0 128.85-104.82 233.79-233.79 233.79-128.85 0-233.79-104.94-233.79-233.79z" fill-rule="nonzero"/><path d="M313.64 413.318H198.36v-42.845h13.827c7.962 0 14.417-6.454 14.417-14.417v-128.53c0-7.962-6.455-14.417-14.417-14.417H198.36v-42.847h87.612v185.793c0 7.963 6.455 14.417 14.417 14.417h13.25v42.845zM234 79.125c6.34-6.385 13.993-9.58 22.96-9.58 9.094 0 16.778 3.195 23.056 9.58 6.274 6.386 9.415 14.047 9.415 22.987 0 8.94-3.17 16.572-9.51 22.893-6.34 6.323-13.996 9.48-22.96 9.48-8.837 0-16.46-3.19-22.863-9.576-6.406-6.385-9.606-13.984-9.606-22.798 0-8.94 3.17-16.6 9.51-22.987" fill-rule="nonzero"/></svg>