<svg viewBox="0 0 512 512" xmlns="http://www.w3.org/2000/svg" fill-rule="evenodd" clip-rule="evenodd" stroke-linejoin="round" stroke-miterlimit="1.414"><path d="M401.714 171H377.43v-48.57C377.43 55.642 322.785 1 256 1S134.57 55.643 134.57 122.43V171h-24.284c-26.717 0-48.572 21.855-48.572 48.57v242.86c0 26.715 21.855 48.57 48.572 48.57h291.428c26.717 0 48.572-21.855 48.572-48.57V219.57c0-26.715-21.855-48.57-48.572-48.57zM256 392c-26.717 0-48.57-21.855-48.57-48.57 0-26.718 21.853-48.573 48.57-48.573s48.57 21.855 48.57 48.572c0 26.715-21.853 48.57-48.57 48.57zm75.288-221H180.712v-48.57c0-41.292 34.003-75.29 75.288-75.29 41.29 0 75.288 33.998 75.288 75.29V171z" fill-rule="nonzero"/></svg>