<svg viewBox="0 0 512 512" xmlns="http://www.w3.org/2000/svg" fill-rule="evenodd" clip-rule="evenodd" stroke-linejoin="round" stroke-miterlimit="1.414"><path d="M433.534 221.683c-7.41-38.99-27.8-74.577-57.955-100.85-32.36-28.192-73.84-43.72-116.805-43.72-42.963 0-84.446 15.528-116.803 43.72C109.944 148.74 88.92 187.15 82.776 228.99l44.99 6.608c9.463-64.424 65.784-113.006 131.01-113.006 62.734 0 117.21 44.954 129.7 105.71l-31.934 4.69 62.686 46.62 46.633-62.675-32.326 4.748zM258.775 387.47c-47.263 0-89.916-24.527-113.754-64.647l30.007-9.887-69.755-35.17-35.187 69.748 31.028-10.223c30.817 59.08 90.785 95.656 157.662 95.656 64.702 0 124.378-35.202 155.74-91.87L374.72 319.06c-23.35 42.196-67.78 68.41-115.947 68.41" fill-rule="nonzero"/><path d="M256 1C115.393 1 1 115.394 1 256s114.393 255 255 255 255-114.393 255-255S396.607 1 256 1zm0 34.13c121.73 0 220.87 99.026 220.87 220.87 0 121.73-99.026 220.87-220.87 220.87-121.73 0-220.872-99.14-220.872-220.87S134.156 35.13 256 35.13z" fill="#030404" fill-rule="nonzero"/></svg>