<svg viewBox="0 0 512 512" xmlns="http://www.w3.org/2000/svg" fill-rule="evenodd" clip-rule="evenodd" stroke-linejoin="round" stroke-miterlimit="1.414"><path d="M1 256c0 140.863 114.137 255 255 255s255-114.137 255-255S396.863 1 256 1 1 115.137 1 256zm21.21 0C22.21 127.15 127.03 22.21 256 22.21c128.85 0 233.79 104.82 233.79 233.79 0 128.85-104.82 233.79-233.79 233.79-128.85 0-233.79-104.94-233.79-233.79z" fill-rule="nonzero"/><path d="M433.534 221.683c-7.41-38.99-27.8-74.577-57.955-100.85-32.36-28.192-73.84-43.72-116.805-43.72-42.963 0-84.446 15.528-116.803 43.72C109.944 148.74 88.92 187.15 82.776 228.99l44.99 6.608c9.463-64.424 65.784-113.006 131.01-113.006 62.734 0 117.21 44.954 129.7 105.71l-31.934 4.69 62.686 46.62 46.633-62.675-32.326 4.748zM258.775 387.47c-47.263 0-89.916-24.527-113.754-64.647l30.007-9.887-69.755-35.17-35.187 69.748 31.028-10.223c30.817 59.08 90.785 95.656 157.662 95.656 64.702 0 124.378-35.202 155.74-91.87L374.72 319.06c-23.35 42.196-67.78 68.41-115.947 68.41" fill-rule="nonzero"/></svg>