<svg viewBox="0 0 512 512" xmlns="http://www.w3.org/2000/svg" fill-rule="evenodd" clip-rule="evenodd" stroke-linejoin="round" stroke-miterlimit="1.414"><g fill-rule="nonzero"><path d="M211.5 273.4l-58-.3c8.2 48.9 51 86.3 102.5 86.3 15.9 0 31-3.6 44.5-10 5.8-2.8 11.3-6 16.5-9.8l43.5 47.1c-1.3 1.1-2.7 2.1-4 3.1-28 20.9-62.8 33.2-100.5 33.2h-3.7c-71.5-1.5-132-47.6-154.6-111.4-4.3-12.3-7.3-25.2-8.7-38.5l-57-.1 67-76.2 23-26.2 38.7 44.4 50.8 58.4zM259.7 89c72.1 1.6 133 48.3 155.2 112.9 4 11.7 6.8 24 8.1 36.8l57 .1-66.9 76.1-23.1 26.2-38.6-44.3-50.9-58.4 57.9.2c-8.3-48.8-51.1-86-102.4-86-16 0-31.1 3.6-44.7 10.1-5.8 2.7-11.2 6-16.3 9.7l-43.6-47c1.6-1.3 3.3-2.6 5-3.8C184.3 101.1 218.7 89 256 89h3.7z"/></g></svg>