<svg viewBox="0 0 512 512" xmlns="http://www.w3.org/2000/svg" fill-rule="evenodd" clip-rule="evenodd" stroke-linejoin="round" stroke-miterlimit="1.414"><g fill-rule="nonzero"><path d="M256 1c-80.484 0-145.714 65.23-145.714 145.714 0 80.485 65.23 145.715 145.714 145.715s145.714-65.23 145.714-145.716C401.714 66.23 336.484 1 256 1zm0 236.786c-50.317 0-91.07-40.755-91.07-91.072s40.753-91.07 91.07-91.07c50.317 0 91.07 40.753 91.07 91.07 0 50.317-40.753 91.072-91.07 91.072zM185.078 314.513c-21.743-9.22-41.21-22.312-57.83-39.046-1.594-1.594-3.188-3.188-4.668-4.896L37.43 419.93h109.284L201.357 511 256 390.558l29.03-63.978c-9.563 1.48-19.24 2.277-29.03 2.277-24.59 0-48.382-4.78-70.922-14.344zM389.533 270.685c-1.48 1.594-3.073 3.302-4.667 4.895-16.62 16.62-36.087 29.826-57.716 38.933l-27.89 61.246-24.932 55.097L310.643 511l54.643-91.07H474.57l-85.037-149.245z"/></g></svg>