<svg viewBox="0 0 512 512" xmlns="http://www.w3.org/2000/svg" fill-rule="evenodd" clip-rule="evenodd" stroke-linejoin="round" stroke-miterlimit="1.414"><path d="M364.254 321.572H341.01l-8.726-7.286c27.613-33.51 45.052-75.775 45.052-123.857C377.336 85.51 293.05 1 188.446 1 85.27 1 1 85.51 1 190.43c0 104.917 84.272 189.427 188.893 189.427 46.5 0 90.088-17.487 123.503-45.167l8.714 7.288v23.31L467.41 511 511 467.286 364.254 321.572zm-174.36 0c-72.653 0-130.773-58.287-130.773-131.143 0-72.86 58.12-131.143 130.773-131.143 72.648 0 130.77 58.284 130.77 131.142 0 72.855-58.122 131.142-130.77 131.142z" fill-rule="nonzero"/></svg>