<svg viewBox="0 0 512 512" xmlns="http://www.w3.org/2000/svg" fill-rule="evenodd" clip-rule="evenodd" stroke-linejoin="round" stroke-miterlimit="1.414"><g fill-rule="nonzero"><path d="M467.743 86.385v160.508L225.5 478.776c9.108 9.107 23.68 14 32.786 14 9.106 0 25.954-4.21 35.744-14L511 274.214v-145.71l-43.257-42.12z"/><path d="M401.718 19.223H219.582L15.02 232.778c-9.107 9.106-13.66 20.262-14.002 32.33C.676 277.97 5.23 291.63 15.02 301.42l140.928 140.7c9.107 9.108 23.677 14.23 32.784 14.23s25.84-4.44 35.63-14.23l213.783-204.334V55.65l-36.427-36.427zM366.77 136.13c-24.702 6.945-47.013-11.382-47.013-34.946 0-20.15 16.278-36.427 36.427-36.427 23.564 0 41.89 22.31 34.947 47.014-3.3 11.726-12.634 21.06-24.36 24.36z"/></g></svg>