<svg viewBox="0 0 512 512" xmlns="http://www.w3.org/2000/svg" fill-rule="evenodd" clip-rule="evenodd" stroke-linejoin="round" stroke-miterlimit="1.414"><path d="M256 1C115.75 1 1 115.75 1 256s114.75 255 255 255 255-114.75 255-255S396.25 1 256 1zm0 76.5c42.05 0 76.5 34.45 76.5 76.5s-34.45 76.5-76.5 76.5-76.5-34.45-76.5-76.5 34.45-76.5 76.5-76.5zm0 362.15c-63.75 0-119.9-33.102-153-81.65 1.226-51 102-79.075 153-79.075S407.774 307 409 358c-33.1 48.425-89.25 81.65-153 81.65z" fill-rule="nonzero"/></svg>