<svg viewBox="0 0 512 512" xmlns="http://www.w3.org/2000/svg" fill-rule="evenodd" clip-rule="evenodd" stroke-linejoin="round" stroke-miterlimit="1.414"><g fill-rule="nonzero"><path d="M454.555 256c0 30.17-6.486 58.918-18.067 84.807l42.34 42.34C499.424 345.424 511 302.025 511 256c0-123.856-85-228.775-197.89-255v59.736C395.452 85.51 454.554 164.203 454.554 256zM256 22.858l-67.762 69.7L256 160.318V22.858zM474.93 443.113L37.014 5.193 5.138 37.068l120.194 120.08L114.336 171H1v170h113.334L256 489.143V287.875L382.06 413.63c-20.082 16.943-43.716 29.92-68.95 37.634V511c41.17-9.525 78.353-29.435 109.324-56.856l52.607 52.718 31.876-31.933-31.878-31.927-.107.11z"/><path d="M383.75 256c0-51-28.14-96.166-70.64-118.02v79.447l67.47 67.47A133.593 133.593 0 0 0 383.75 256z"/></g></svg>