<?xml version="1.0" encoding="utf-8"?>
<!-- Generator: Adobe Illustrator 19.2.0, SVG Export Plug-In . SVG Version: 6.00 Build 0)  -->
<svg version="1.1" id="Layer_1" xmlns="http://www.w3.org/2000/svg" xmlns:xlink="http://www.w3.org/1999/xlink" x="0px" y="0px"
	 viewBox="0 0 512 512" style="enable-background:new 0 0 512 512;" xml:space="preserve">
<style type="text/css">
	.st0{fill:none;}
</style>
<g>
	<path class="st0" d="M256,195.6c33.6,0,61.1,27.2,61.1,60.4c0,1.2,0,2.4-0.1,3.6l33.7,33.4c4.6-11.5,7.1-23.9,7.1-37
		c0-55.4-45.8-100.7-101.8-100.7c-13.1,0-25.6,2.5-37.1,7l33.7,33.4C253.7,195.7,254.8,195.6,256,195.6z"/>
	<path d="M317.1,256c0-33.2-27.5-60.4-61.1-60.4c-1.2,0-2.3,0-3.4,0.1l64.4,63.9C317.1,258.4,317.1,257.2,317.1,256z"/>
	<path d="M256,155.3c56,0,101.8,45.3,101.8,100.7c0,13-2.5,25.5-7.1,37l59.3,58.8c30.7-25.4,55-58.2,70-95.8
		c-35.6-88.6-122.2-151-224-151c-28.4,0-55.7,4.9-81,13.8l43.8,43.5C230.4,157.8,242.9,155.3,256,155.3z"/>
	<path d="M439.3,432.2L439.3,432.2L78.1,74L52.3,99.7l56,55.5C74.6,181.2,48.1,215.9,32,256c35.6,88.6,122.2,151,224,151
		c31.5,0,61.6-6,89.1-16.9l68.4,67.9l25.9-25.7L439.3,432.2z M256,356.7c-56,0-101.8-45.3-101.8-100.7c0-16,3.8-31.2,10.7-44.7
		l31.6,31.3c-1,4.3-1.5,8.8-1.5,13.4c0,33.2,27.5,60.4,61.1,60.4c4.6,0,9-0.5,13.3-1.5l31.6,31.4C287.4,353,272.1,356.7,256,356.7z"
		/>
</g>
</svg>
