<svg xmlns="http://www.w3.org/2000/svg" xmlns:xlink="http://www.w3.org/1999/xlink"><symbol viewBox="0 0 512 512" id="alert-circled" xmlns="http://www.w3.org/2000/svg"><path d="M476.7 422.2L270.1 72.7c-2.9-5-8.3-8.7-14.1-8.7-5.9 0-11.3 3.7-14.1 8.7L35.3 422.2c-2.8 5-4.8 13-1.9 17.9 2.9 4.9 8.2 7.9 14 7.9h417.1c5.8 0 11.1-3 14-7.9 3-4.9 1-13-1.8-17.9zM288 400h-64v-48h64v48zm0-80h-64V176h64v144z"/></symbol><symbol viewBox="0 0 512 512" id="android-arrow-dropdown" xmlns="http://www.w3.org/2000/svg"><path d="M128 192l128 128 128-128z"/></symbol><symbol viewBox="0 0 512 512" id="android-checkbox-outline" xmlns="http://www.w3.org/2000/svg"><path d="M168.531 215.469l-29.864 29.864 96 96L448 128l-29.864-29.864-183.469 182.395-66.136-65.062zm236.802 189.864H106.667V106.667H320V64H106.667C83.198 64 64 83.198 64 106.667v298.666C64 428.802 83.198 448 106.667 448h298.666C428.802 448 448 428.802 448 405.333V234.667h-42.667v170.666z"/></symbol><symbol viewBox="0 0 512 512" id="android-checkbox-outline-blank" xmlns="http://www.w3.org/2000/svg"><path d="M405.333 106.667v298.666H106.667V106.667h298.666m0-42.667H106.667C83.198 64 64 83.198 64 106.667v298.666C64 428.802 83.198 448 106.667 448h298.666C428.802 448 448 428.802 448 405.333V106.667C448 83.198 428.802 64 405.333 64z"/></symbol><symbol viewBox="0 0 512 512" id="android-close" xmlns="http://www.w3.org/2000/svg"><path d="M405 136.798L375.202 107 256 226.202 136.798 107 107 136.798 226.202 256 107 375.202 136.798 405 256 285.798 375.202 405 405 375.202 285.798 256z"/></symbol><symbol viewBox="0 0 512 512" id="android-favorite" xmlns="http://www.w3.org/2000/svg"><path d="M256 448l-30.164-27.211C118.718 322.442 48 258.61 48 179.095 48 114.221 97.918 64 162.4 64c36.399 0 70.717 16.742 93.6 43.947C278.882 80.742 313.199 64 349.6 64 414.082 64 464 114.221 464 179.095c0 79.516-70.719 143.348-177.836 241.694L256 448z"/></symbol><symbol viewBox="0 0 512 512" id="android-favorite-outline" xmlns="http://www.w3.org/2000/svg"><path d="M349.6 64c-36.4 0-70.718 16.742-93.6 43.947C233.117 80.742 198.8 64 162.4 64 97.918 64 48 114.221 48 179.095c0 79.516 70.718 143.348 177.836 241.694L256 448l30.164-27.211C393.281 322.442 464 258.61 464 179.095 464 114.221 414.082 64 349.6 64zm-80.764 329.257l-4.219 3.873-8.617 7.773-8.616-7.772-4.214-3.869c-50.418-46.282-93.961-86.254-122.746-121.994C92.467 236.555 80 208.128 80 179.095c0-22.865 8.422-43.931 23.715-59.316C118.957 104.445 139.798 96 162.4 96c26.134 0 51.97 12.167 69.11 32.545L256 157.661l24.489-29.116C297.63 108.167 323.465 96 349.6 96c22.603 0 43.443 8.445 58.686 23.778C423.578 135.164 432 156.229 432 179.095c0 29.033-12.467 57.459-40.422 92.171-28.784 35.74-72.325 75.709-122.742 121.991z"/></symbol><symbol viewBox="0 0 512 512" id="android-folder" xmlns="http://www.w3.org/2000/svg"><path d="M213.338 96H74.666C51.197 96 32 115.198 32 138.667v234.666C32 396.802 51.197 416 74.666 416h362.668C460.803 416 480 396.802 480 373.333V186.667C480 163.198 460.803 144 437.334 144H256.006l-42.668-48z"/></symbol><symbol viewBox="0 0 512 512" id="android-radio-button-off" xmlns="http://www.w3.org/2000/svg"><path d="M256 48C141.601 48 48 141.601 48 256s93.601 208 208 208 208-93.601 208-208S370.399 48 256 48zm0 374.399c-91.518 0-166.399-74.882-166.399-166.399S164.482 89.6 256 89.6 422.4 164.482 422.4 256 347.518 422.399 256 422.399z"/></symbol><symbol viewBox="0 0 512 512" id="android-radio-button-on" xmlns="http://www.w3.org/2000/svg"><path d="M256 152c-57.2 0-104 46.8-104 104s46.8 104 104 104 104-46.8 104-104-46.8-104-104-104zm0-104C141.601 48 48 141.601 48 256s93.601 208 208 208 208-93.601 208-208S370.399 48 256 48zm0 374.4c-91.518 0-166.4-74.883-166.4-166.4S164.482 89.6 256 89.6 422.4 164.482 422.4 256 347.518 422.4 256 422.4z"/></symbol><symbol viewBox="0 0 512 512" id="android-restaurant" xmlns="http://www.w3.org/2000/svg"><path d="M164.852 279.939l61.834-60.251L73.72 71.706c-33.626 32.764-33.626 86.677 0 119.44l91.132 88.793z"/><path d="M312.389 241.88c33.636 14.802 80.283 4.232 113.91-29.593 41.222-40.165 49.909-98.303 17.363-128.96-31.465-31.71-91.131-23.245-132.354 16.921-34.718 33.825-45.566 79.276-30.374 110.986-47.739 47.568-211.552 207.173-211.552 207.173L99.759 448l149.71-145.866L399.177 448l30.374-29.593-149.709-145.869 32.547-30.658z"/></symbol><symbol viewBox="0 0 512 512" id="android-settings" xmlns="http://www.w3.org/2000/svg"><path d="M413.967 276.8c1.06-6.235 1.06-13.518 1.06-20.8s-1.06-13.518-1.06-20.8l44.667-34.318c4.26-3.118 5.319-8.317 2.13-13.518L418.215 115.6c-2.129-4.164-8.507-6.235-12.767-4.164l-53.186 20.801c-10.638-8.318-23.394-15.601-36.16-20.801l-7.448-55.117c-1.06-4.154-5.319-8.318-10.638-8.318h-85.098c-5.318 0-9.577 4.164-10.637 8.318l-8.508 55.117c-12.767 5.2-24.464 12.482-36.171 20.801l-53.186-20.801c-5.319-2.071-10.638 0-12.767 4.164L49.1 187.365c-2.119 4.153-1.061 10.399 2.129 13.518L96.97 235.2c0 7.282-1.06 13.518-1.06 20.8s1.06 13.518 1.06 20.8l-44.668 34.318c-4.26 3.118-5.318 8.317-2.13 13.518L92.721 396.4c2.13 4.164 8.508 6.235 12.767 4.164l53.187-20.801c10.637 8.318 23.394 15.601 36.16 20.801l8.508 55.117c1.069 5.2 5.318 8.318 10.637 8.318h85.098c5.319 0 9.578-4.164 10.638-8.318l8.518-55.117c12.757-5.2 24.464-12.482 36.16-20.801l53.187 20.801c5.318 2.071 10.637 0 12.767-4.164l42.549-71.765c2.129-4.153 1.06-10.399-2.13-13.518l-46.8-34.317zm-158.499 52c-41.489 0-74.46-32.235-74.46-72.8s32.971-72.8 74.46-72.8 74.461 32.235 74.461 72.8-32.972 72.8-74.461 72.8z"/></symbol><symbol viewBox="0 0 512 512" id="archive" xmlns="http://www.w3.org/2000/svg"><path d="M256 307.7L384 192h-80V96h-96.4v96H128z"/><path d="M465.4 297.2l-71.4-55h-42l62 61.8h-50.6c-2.3 0-4.3 1.2-5.4 2.9l-18.4 45.5H172.1l-18.4-45.5c-1-1.8-3.1-2.9-5.4-2.9H97.8l62.2-61.8h-42.2l-71.4 55c-10.6 6.2-15.8 19-14.1 31.6l8.7 66.9c2.3 13.1 9.7 20.3 28.1 20.3h373.8c19.1 0 25.8-7.6 28.1-20.3l8.7-66.9c1.7-12.9-3.7-25.4-14.3-31.6z"/></symbol><symbol viewBox="0 0 512 512" id="arrow-graph-up-right" xmlns="http://www.w3.org/2000/svg"><path d="M320 128l61.8 61.8-93.5 98.2-107-106.7L32 384l149.3-128 107 112 130.9-140.8L480 288V128z"/></symbol><symbol viewBox="0 0 512 512" id="arrow-return-left" xmlns="http://www.w3.org/2000/svg"><path d="M192 96v64h248c4.4 0 8 3.6 8 8v240c0 4.4-3.6 8-8 8H136c-4.4 0-8-3.6-8-8v-48c0-4.4 3.6-8 8-8h248V224H192v64L64 192l128-96z"/></symbol><symbol viewBox="0 0 512 512" id="arrow-up-c" xmlns="http://www.w3.org/2000/svg"><path d="M128.4 189.3L233.4 89c5.8-6 13.7-9 22.4-9s16.5 3 22.4 9l105.4 100.3c12.5 11.9 12.5 31.3 0 43.2-12.5 11.9-32.7 11.9-45.2 0L288 184.4v217c0 16.9-14.3 30.6-32 30.6s-32-13.7-32-30.6v-217l-50.4 48.2c-12.5 11.9-32.7 11.9-45.2 0-12.5-12-12.5-31.3 0-43.3z"/></symbol><symbol viewBox="0 0 512 512" id="briefcase" xmlns="http://www.w3.org/2000/svg"><path d="M272 272h-32v-8H32v176c0 4.4 3.3 8 7.8 8h432.5c4.4 0 7.7-3.6 7.7-8V264H272v8zM472.2 144H352v-30.7C351 85.1 330.3 64 300.8 64h-89.6c-29.4 0-50.2 21.1-51.2 49.3V144H39.8c-4.4 0-7.8 3.6-7.8 8v96h208v-8h32v8h208v-96c0-4.4-3.3-8-7.8-8zM320 116.2V144H192v-26.8-1-1c0-9.7 8.6-19.2 18.8-19.2h90.4c10.1 0 18.8 9.4 18.8 19.2v1z"/></symbol><symbol id="build-add-to-projects" viewBox="0 0 60 60" xmlns="http://www.w3.org/2000/svg"><style>.st0{fill:#231f20}</style><path class="st0" d="M56.4 18H3.5c.4-3.5.6-6.8 1.2-10 .1-.8 1.4-2 2.2-2 5-.2 10-.3 15 0 1.2.1 2.6 1.3 3.5 2.3 1.6 1.8 3.4 2.5 5.8 2.5 6.9-.1 13.8 0 20.7 0 3.8 0 4.1.3 4.3 4 .1 1 0 2 .2 3.2zm3 5.3c-.5 9-1.1 17.9-1.6 26.9-.2 3.3-1 3.9-4.3 3.9H6.8c-3.5 0-4.1-.4-4.3-3.9-.7-9-1.3-18.1-1.9-27.1-.4-2.8.3-3.4 3.3-3.4h51.9c3.4 0 3.7.3 3.6 3.6zm-19.5 12h-8.3V27h-3.3v8.3H20v3.3h8.3v8.3h3.3v-8.3h8.3v-3.3z"/></symbol><symbol viewBox="0 0 432.3 432.3" id="build-asterisk-projects" xmlns="http://www.w3.org/2000/svg"><title>build-asterisk-projects</title><path d="M216.15 0C96.77 0 0 96.77 0 216.1s96.77 216.2 216.15 216.2S432.3 335.53 432.3 216.1 335.53 0 216.15 0zm107.63 235.56h-69.7l48.52 45.88-21.17 20.29-45.87-47.63v69.7H200.3v-69.7l-47.64 48.52-22.06-21.17 47.64-45.88h-66.19v-35.3h66.17l-47.64-47.64 22.06-22.06 47.66 47.64v-66.16h35.29v66.17l45.88-47.64 20.29 22.06-47.64 47.64h69.7z"/></symbol><symbol viewBox="0 0 612 792" id="build-bluetarp" xmlns="http://www.w3.org/2000/svg"><path d="M.5 395.9c100.4-102.3 199.7-203.3 303-308.6 12.6 21.2 26.9 38.7 33.9 58.8 11.6 33.2 30.8 55.3 64.7 66.7 39.1 13.1 67.3 39.7 81.5 78.7 11.6 31.8 34.2 50.9 63.9 64.3 17.5 7.9 34.1 17.6 50.2 27.9 14.5 9.2 15.1 16.5 1.8 26.4-12.3 9.2-25.6 18.4-39.9 23.4-40 14.2-68 40-82.5 79.7-10.9 29.8-31.2 49.5-60.5 60-42.7 15.3-73.3 41.2-86.3 86.8-4.4 15.3-16.7 28.4-26.7 44.6C201.4 600.6 101.4 498.7.5 395.9z"/></symbol><symbol viewBox="0 0 612 591.3" id="build-box" xmlns="http://www.w3.org/2000/svg"><path d="M297.9 546h-2c-1.6-1-3.1-2.2-4.8-3-75.5-36.4-151.1-72.8-226.7-109.1-3.5-1.7-4.6-3.5-4.6-7.3.1-87.5.1-175 0-262.5 0-3.5.6-5.5 4.1-7.1 63.8-29 127.5-58.1 191.2-87.3 17.6-8 35-16.3 52.6-24.4h2c1.4.7 2.8 1.6 4.3 2.2 77.7 35.7 155.4 71.5 233.1 107 3.8 1.8 5.1 3.7 5.1 7.9-.1 87.2-.1 174.4 0 261.6 0 4.2-1.5 5.9-5 7.5-81.8 37.3-163.6 74.6-245.4 112-1.4.7-2.6 1.7-3.9 2.5zm2.3-23.3c.1-1.9.3-3 .3-4.1-.1-81.8-.2-163.6-.1-245.4 0-3.8-1.6-5.3-4.7-6.8-64.1-29.1-128.1-58.4-192.1-87.6-7-3.2-14.1-6.4-21.8-9.9v5c0 80.2 0 160.3-.1 240.5 0 3.5 1.2 5.1 4.3 6.5 51 24.1 101.9 48.3 152.9 72.5 20.1 9.8 40.4 19.4 61.3 29.3zm230.2-356.3c-2.3 1-4 1.7-5.5 2.4-18.7 9.1-37.3 18.4-56.1 27.4-3.3 1.6-4.3 3.5-4.2 7.1.1 35.8 0 71.7.1 107.6 0 3.5-1 5.5-4.1 7.3-18.9 10.2-37.7 20.6-56.5 30.9-1.4.7-2.8 1.4-5 2.4v-120c-2.3 1-3.7 1.6-5.1 2.3-22.3 11-44.6 22-67 32.8-3.2 1.6-4.4 3.4-4.4 7 .1 78.5 0 157.1-.1 235.6 0 1.5.2 3 .3 5 2-.9 3.5-1.5 4.9-2.2 66.3-31.4 132.6-62.7 198.9-94 2.9-1.4 3.9-3 3.9-6.2-.1-63.9-.1-127.8 0-191.6-.1-17.7-.1-35.3-.1-53.8zM379.8 217c-1-.7-1.5-1.1-2-1.4-63.7-30-127.4-59.9-191.2-89.7-1.6-.7-4.1-.4-5.8.3-16.6 7.2-33 14.5-49.5 21.8-8.3 3.7-16.5 7.4-25.4 11.3 2.2 1 3.8 1.8 5.4 2.5l59.1 26.7c45 20.4 90 40.8 135.1 61 1.5.7 3.9.9 5.4.2 22.8-10.7 45.5-21.6 68.9-32.7zm124.7-59.7c-1.2-.7-1.7-1.1-2.3-1.4-63.6-29-127.2-58.1-190.8-87-1.6-.7-4.2-.6-5.8.2-16.6 7.4-33.2 15-49.7 22.6-1.2.5-2.2 1.2-3.8 2.1 20.8 9.1 41.2 18.1 61.6 27 45.2 19.9 90.4 39.8 135.7 59.7 1.6.7 4 1.2 5.4.6 16.4-7.8 32.8-15.7 49.7-23.8z"/></symbol><symbol viewBox="0 0 512 512" id="build-cart" xmlns="http://www.w3.org/2000/svg"><path d="M442.4 313.8c-2 5.9-8.8 10.8-15 10.8H145.2c-6.2 0-12.6-4.9-14.3-11L79.5 123.5c-1.6-6-8.1-11-14.3-11H26.4c-6.2 0-11.4-5.1-11.4-11.4v-8.3c0-6.2 5.1-11.4 11.4-11.4h62.4c6.2 0 12.6 4.9 14.3 11l51.4 187.9c1.6 6 8.1 11 14.3 11h237.7c6.2 0 13-4.8 15-10.8l41.8-143.3c2.1-5.9 7.6-6.8 12.8-6.3l12.2-.1c11 0 9.1 8.5 7.1 14.4l-53 168.6zM197 385.2c0 17.1-13.9 31-31 31s-31-13.9-31-31 13.9-31 31-31 31 13.9 31 31zM433.2 385.2c0 17.1-13.9 31-31 31s-31-13.9-31-31 13.9-31 31-31 31 13.9 31 31z"/></symbol><symbol viewBox="0 0 622.7 512" id="build-cart-large" xmlns="http://www.w3.org/2000/svg"><path d="M546.9 286.4c-2 5.9-8.8 10.7-15 10.7H151.3c-6.2 0-12.7-4.9-14.3-11l-51.3-190c-1.6-6-8.1-11-14.3-11H32.6c-6.2 0-11.3-5.1-11.3-11.3v-8.3c0-6.2 5.1-11.3 11.3-11.3h62.3c6.2 0 12.7 4.9 14.3 11L160.5 255c1.6 6 8.1 11 14.3 11H511c6.2 0 13-4.8 15-10.7L567.8 110c2-5.9 7.6-6.8 12.8-6.3l12.2-.1c11 0 9.1 8.5 7.1 14.4l-53 168.4zM203.1 358.1c0 17.1-13.9 31-31 31s-31-13.9-31-31 13.9-31 31-31 31 13.9 31 31zM537.8 358.1c0 17.1-13.9 31-31 31s-31-13.9-31-31 13.9-31 31-31 31 13.9 31 31z"/></symbol><symbol viewBox="0 0 512 512" id="build-cart-small" xmlns="http://www.w3.org/2000/svg"><path d="M389.2 312.6c-2 6-8.9 10.9-15.2 10.9H178.3c-6.3 0-12.8-5-14.5-11.1l-52-192.4c-1.6-6.1-8.2-11.1-14.5-11.1H58.1c-6.3 0-11.5-3.2-11.5-9.5V93c0-6.3 5.2-11.5 11.5-11.5h63.1c6.3 0 12.8 5 14.5 11.1l52 190.1c1.6 6.1 8.2 11.1 14.5 11.1h150.7c6.3 0 13.2-4.9 15.2-10.9l42.3-149c2.1-6 7.7-6.9 13-6.4l12.3-.1c11.1 0 9.2 8.6 7.2 14.6l-53.7 170.6zM230.7 384.9c0 17.3-14.1 31.4-31.4 31.4s-31.4-14.1-31.4-31.4 14.1-31.4 31.4-31.4c17.4 0 31.4 14 31.4 31.4zM380 384.9c0 17.3-14.1 31.4-31.4 31.4s-31.4-14.1-31.4-31.4 14.1-31.4 31.4-31.4 31.4 14 31.4 31.4z"/></symbol><symbol viewBox="0 0 512 512" id="build-delivery-truck" xmlns="http://www.w3.org/2000/svg"><path d="M71 326c2.6-1.1 5.1-3.1 7.7-3.1 22.3-.2 44.6-.1 66.8-.1.9 0 1.8.3 2.1.3-3.7 8-7.2 16.1-11.2 23.9-.6 1.3-3 2.3-4.6 2.3-17.9.2-35.8.2-53.8 0-2.4 0-4.7-1.9-7.1-2.9.1-6.8.1-13.6.1-20.4zM179.5 306.5H95.1c-10.1 0-10.9-.8-10.9-10.6v-150c0-14.8 5.8-20.6 20.8-20.6h150.7c14.3 0 20.5 6.1 20.5 20.3.1 50.2 0 100.5 0 150.7 0 8.9-1.2 10.2-10 10.2h-86.7z"/><path d="M446.6 341.6c-.1-2.4 0-4.9 0-7.3 0-11-.3-11.6-11.5-11.5-5.5.1-7.1-1.7-7-7.1.3-21.1.7-42.3-.2-63.4-.4-8.4-2.3-17.7-6.4-24.8-9.5-16.3-21-31.5-31.4-47.3-9.7-14.6-23.2-21.6-40.5-21.5-13.6.1-27.2 0-40.8 0-14.8 0-17.5 2.7-17.5 17.3v146.7h-79.8c4 7.8 8 14.5 10.6 21.6 1.5 4 3.1 5.2 7.1 5.2 25.3-.1 50.5-.1 75.8 0 4 0 5.7-1 7-5.2 6.1-19.6 22.8-32.1 42.1-32.3 19.8-.2 36.3 12.3 42.5 32.4 1.1 3.6 2.6 5.2 6.5 5.1 11.9-.2 23.8-.2 35.7-.1 5.2.1 8-2.2 7.8-7.8zm-61.8-106.1c-10.2.2-20.4 0-30.6 0-10.2 0-20.4-.1-30.6 0-5.5.1-8-2.3-8-7.8.1-10.7.1-21.3 0-32-.1-5.4 2.2-8.1 7.7-8.1 11.9.1 23.8-.4 35.6.3 3.3.2 7.3 2.8 9.4 5.5 7.8 10.2 15 20.9 22.2 31.5 4.5 6.5 2.3 10.5-5.7 10.6zM180.5 322.9c-18.4-.4-33.8 14.4-34 32.6-.2 18.3 14.7 33.5 33 33.7 18.2.2 33.6-14.8 33.8-33 .2-17.8-14.8-32.9-32.8-33.3zm-.9 49.6c-9-.1-16.4-7.9-16.2-17.1.2-8.8 7.7-16.2 16.5-16.1 8.7.1 16.2 7.6 16.2 16.4.1 9.2-7.5 16.9-16.5 16.8z"/><path d="M354.1 322.9c-18.2 0-32.8 14.5-33 32.7-.2 18.6 14.5 33.6 32.9 33.6 18.7 0 33.3-14.5 33.4-33.1.2-18.5-14.6-33.2-33.3-33.2zm-.4 49.6c-9.1-.2-16.3-8.1-16-17.3.3-8.8 8-16.1 16.6-15.9 8.9.2 16.7 8.2 16.5 16.9-.2 9.1-8.1 16.6-17.1 16.3z"/></symbol><symbol viewBox="0 0 512 512" id="build-logo" xmlns="http://www.w3.org/2000/svg"><path d="M189.654 207.997c-5.468 0-9.392 3.921-9.392 9.386 0 5.347 3.804 9.385 9.392 9.385 5.468 0 9.51-3.682 9.51-9.385.001-5.465-3.804-9.386-9.51-9.386zM303.58 290.578c0-3.244 2.129-5.576 5.068-5.576 2.94 0 4.968 2.332 4.968 5.576 0 2.939-2.027 5.371-5.068 5.371-3.143 0-4.968-2.633-4.968-5.371z"/><path d="M311.968 207.469l-141.79-83.453-141.827 83.453 5.292 13.236 13.556-7.424v81.684h16.043v-7.953h.238c1.822 3.455 4.516 5.926 8.081 7.41 3.566 1.486 7.606 2.23 12.122 2.23 3.09 0 6.139-.645 9.151-1.928 3.01-1.285 5.723-3.273 8.141-5.967 2.416-2.689 4.377-6.104 5.883-10.241 1.504-4.136 2.258-9.056 2.258-14.761 0-5.703-.754-10.623-2.258-14.761-1.506-4.137-3.467-7.531-5.883-10.183-2.417-2.651-5.13-4.618-8.141-5.904-3.012-1.284-6.061-1.928-9.151-1.928-3.803 0-7.468.743-10.993 2.229-3.526 1.487-6.319 3.837-8.378 7.049h-.238v-36.222l106.113-58.125 105.423 57.77v36.577h-.237c-1.901-3.052-4.498-5.362-7.784-6.928a23.895 23.895 0 0 0-10.398-2.35c-4.517 0-8.479.903-11.885 2.711-3.407 1.808-6.239 4.198-8.497 7.17-2.258 2.972-3.963 6.407-5.11 10.302-1.15 3.897-1.724 7.934-1.724 12.11 0 4.338.574 8.516 1.724 12.532 1.147 4.019 2.853 7.573 5.11 10.663 2.258 3.094 5.11 5.564 8.556 7.412 3.447 1.846 7.506 2.771 12.181 2.771 3.962 0 7.565-.766 10.815-2.291 3.248-1.523 5.861-3.975 7.844-7.35h.237v7.953h16.044V212.93l14.19 7.776 5.292-13.237zM64.312 256.285c.553-2.411 1.426-4.537 2.614-6.387 1.188-1.847 2.674-3.314 4.457-4.397 1.782-1.085 3.94-1.627 6.477-1.627 2.455 0 4.594.542 6.417 1.627 1.822 1.083 3.328 2.551 4.516 4.397 1.188 1.85 2.059 3.976 2.615 6.387.553 2.41.832 4.94.832 7.592 0 2.571-.278 5.061-.832 7.471-.556 2.409-1.427 4.539-2.615 6.386-1.188 1.849-2.694 3.313-4.516 4.397-1.824 1.086-3.963 1.627-6.417 1.627-2.537 0-4.694-.541-6.477-1.627-1.783-1.084-3.269-2.549-4.457-4.397-1.188-1.847-2.061-3.977-2.614-6.386a33.12 33.12 0 0 1-.832-7.471c-.001-2.651.276-5.182.832-7.592zm211.179 14.821c-.476 2.409-1.27 4.56-2.378 6.446a12.737 12.737 0 0 1-4.456 4.52c-1.862 1.125-4.18 1.686-6.952 1.686-2.614 0-4.854-.58-6.715-1.746-1.863-1.164-3.408-2.691-4.635-4.58-1.229-1.886-2.121-4.037-2.674-6.446a32.114 32.114 0 0 1-.832-7.229c0-2.57.257-5.04.772-7.411.515-2.369 1.347-4.477 2.496-6.326 1.146-1.847 2.674-3.333 4.575-4.458 1.901-1.124 4.238-1.687 7.012-1.687 2.692 0 4.971.563 6.833 1.687a13.643 13.643 0 0 1 4.516 4.397c1.148 1.808 1.962 3.916 2.438 6.327.475 2.41.713 4.861.713 7.35 0 2.571-.238 5.059-.713 7.47z"/><path d="M155.819 265.322c0 6.348-1.03 10.905-3.09 13.676-2.061 2.771-5.389 4.158-9.983 4.158-3.962 0-6.755-1.266-8.378-3.795-1.625-2.531-2.437-6.367-2.437-11.509v-35.185h-16.875v38.318c0 3.856.336 7.371 1.01 10.544.672 3.174 1.842 5.865 3.506 8.074 1.664 2.209 3.94 3.936 6.833 5.18 2.891 1.244 6.596 1.869 11.111 1.869 3.566 0 7.051-.844 10.458-2.531 3.406-1.688 6.18-4.297 8.319-7.832h.356v8.676h16.044v-62.297h-16.876v32.654zM181.25 232.667h16.875v62.297H181.25zM207.157 208.93h16.875v86.035h-16.875z"/><g><path d="M348.342 259.088c-1.856-1.774-4.453-2.662-7.793-2.662-2.386 0-4.48.511-6.282 1.533s-3.3 2.365-4.492 4.03c-1.192 1.667-2.095 3.562-2.704 5.685a23.39 23.39 0 0 0-.914 6.49c0 2.204.304 4.368.914 6.49.609 2.125 1.512 4.02 2.704 5.686s2.69 3.01 4.492 4.029c1.802 1.023 3.896 1.533 6.282 1.533 1.537 0 2.994-.295 4.374-.887a11.767 11.767 0 0 0 3.657-2.459c1.061-1.049 1.935-2.299 2.624-3.75.688-1.451 1.114-3.035 1.272-4.756h5.01c-.689 5.053-2.518 8.99-5.486 11.811-2.97 2.822-6.787 4.232-11.451 4.232-3.129 0-5.898-.578-8.31-1.732-2.413-1.156-4.44-2.727-6.083-4.717-1.644-1.988-2.891-4.314-3.737-6.975-.849-2.66-1.273-5.495-1.273-8.506 0-3.01.425-5.846 1.273-8.506.847-2.66 2.094-4.985 3.737-6.975 1.643-1.988 3.67-3.573 6.083-4.756 2.411-1.182 5.181-1.774 8.31-1.774 4.399 0 8.123 1.183 11.173 3.547 3.048 2.366 4.863 5.94 5.446 10.723h-5.01c-.688-3.114-1.962-5.561-3.816-7.334zM388.539 253.927c2.411 1.183 4.439 2.768 6.082 4.756 1.644 1.989 2.89 4.314 3.737 6.975.849 2.66 1.272 5.496 1.272 8.506 0 3.011-.424 5.846-1.272 8.506-.848 2.66-2.094 4.986-3.737 6.975-1.643 1.99-3.671 3.561-6.082 4.717-2.413 1.154-5.183 1.732-8.311 1.732-3.129 0-5.897-.578-8.31-1.732-2.413-1.156-4.44-2.727-6.083-4.717-1.645-1.988-2.89-4.314-3.737-6.975-.85-2.66-1.272-5.495-1.272-8.506 0-3.01.423-5.846 1.272-8.506.848-2.66 2.093-4.985 3.737-6.975 1.643-1.988 3.67-3.573 6.083-4.756 2.412-1.182 5.181-1.774 8.31-1.774 3.128 0 5.898.592 8.311 1.774zm-14.592 4.032a13.853 13.853 0 0 0-4.494 4.03c-1.192 1.667-2.094 3.562-2.703 5.685a23.39 23.39 0 0 0-.914 6.49c0 2.204.304 4.368.914 6.49.609 2.125 1.511 4.02 2.703 5.686a13.817 13.817 0 0 0 4.494 4.029c1.801 1.023 3.896 1.533 6.281 1.533s4.479-.51 6.282-1.533a13.831 13.831 0 0 0 4.492-4.029c1.193-1.666 2.094-3.561 2.704-5.686.609-2.122.914-4.286.914-6.49 0-2.203-.305-4.367-.914-6.49-.61-2.123-1.511-4.018-2.704-5.685a13.857 13.857 0 0 0-4.492-4.03c-1.804-1.021-3.896-1.533-6.282-1.533s-4.48.512-6.281 1.533zM409.333 253.363v7.014h.238c1.324-2.58 3.061-4.595 5.208-6.047 2.147-1.451 4.891-2.177 8.23-2.177 2.704 0 5.155.673 7.355 2.016 2.199 1.345 3.671 3.387 4.413 6.128 1.22-2.741 3.021-4.783 5.407-6.128 2.385-1.343 4.931-2.016 7.634-2.016 9.065 0 13.598 4.864 13.598 14.593v28.219h-5.009v-27.977c0-3.439-.717-6.06-2.147-7.861-1.432-1.8-3.95-2.701-7.555-2.701-2.174 0-3.976.417-5.407 1.25s-2.571 1.948-3.42 3.345c-.848 1.398-1.444 2.998-1.789 4.798a29.734 29.734 0 0 0-.517 5.603v23.543h-5.01v-28.219a17.73 17.73 0 0 0-.437-3.99c-.292-1.263-.77-2.365-1.432-3.307-.664-.939-1.551-1.679-2.664-2.217-1.113-.537-2.466-.806-4.056-.806-2.121 0-3.963.39-5.526 1.169-1.564.779-2.837 1.854-3.817 3.225-.981 1.371-1.709 2.982-2.187 4.838-.477 1.854-.716 3.883-.716 6.088v23.219h-5.01v-41.602h4.616z"/></g><g><path d="M471.051 287.865h-2.665v-.896h6.394v.896h-2.664v7.1h-1.064v-7.1zM475.688 286.969h1.455l2.519 6.719 2.531-6.719h1.456v7.996h-1.008v-6.652h-.022l-2.497 6.652h-.907l-2.497-6.652h-.022v6.652h-1.007v-7.996z"/></g></symbol><symbol id="build-logo-door" viewBox="0 0 87.38 352" xmlns="http://www.w3.org/2000/svg"><defs><style>.cls-1{fill:#1c1b1a}</style></defs><title>arrow-up-c</title><g id="_Group_" data-name="&lt;Group>"><path id="_Path_" data-name="&lt;Path>" class="cls-1" d="M0 304.06L87.38 352V0L0 47.96v256.1z"/></g></symbol><symbol viewBox="0 0 512 512" id="build-logo-simplified" xmlns="http://www.w3.org/2000/svg"><path d="M276.563 210.738c-8.415 0-14.452 6.033-14.452 14.443 0 8.228 5.854 14.442 14.452 14.442 8.414 0 14.634-5.665 14.634-14.442 0-8.41-5.854-14.443-14.634-14.443z"/><path d="M464.778 209.925L246.593 81.509 28.351 209.925l8.143 20.368 20.859-11.424v125.694h24.688v-12.238h.366c2.804 5.316 6.95 9.118 12.435 11.402 5.487 2.287 11.704 3.433 18.654 3.433 4.754 0 9.447-.992 14.081-2.967 4.632-1.978 8.807-5.037 12.527-9.182 3.718-4.139 6.735-9.392 9.052-15.759 2.314-6.364 3.475-13.935 3.475-22.714 0-8.776-1.16-16.347-3.475-22.714-2.317-6.365-5.334-11.589-9.052-15.669-3.72-4.079-7.895-7.106-12.527-9.085-4.634-1.976-9.327-2.966-14.081-2.966-5.852 0-11.492 1.144-16.917 3.43-5.426 2.289-9.723 5.904-12.892 10.847h-.366v-55.738l163.286-89.442 162.224 88.896v56.285h-.365c-2.926-4.696-6.921-8.251-11.978-10.661a36.768 36.768 0 0 0-16.001-3.616c-6.95 0-13.049 1.39-18.288 4.172-5.243 2.781-9.602 6.459-13.075 11.033-3.475 4.573-6.1 9.858-7.864 15.853-1.77 5.997-2.652 12.209-2.652 18.635 0 6.675.883 13.104 2.652 19.284 1.765 6.184 4.39 11.653 7.864 16.408 3.474 4.761 7.862 8.562 13.166 11.406 5.304 2.84 11.551 4.265 18.744 4.265 6.097 0 11.642-1.179 16.643-3.525 4.998-2.345 9.02-6.116 12.07-11.31h.364v12.238h24.688V218.328l21.836 11.965 8.143-20.368zM83.687 285.043c.852-3.709 2.194-6.981 4.023-9.828 1.829-2.841 4.115-5.1 6.858-6.767 2.743-1.669 6.063-2.503 9.966-2.503 3.777 0 7.069.834 9.875 2.503 2.804 1.667 5.121 3.926 6.949 6.767 1.828 2.847 3.169 6.119 4.024 9.828.851 3.709 1.279 7.603 1.279 11.683 0 3.956-.428 7.787-1.279 11.495-.855 3.708-2.196 6.985-4.024 9.827-1.829 2.845-4.146 5.099-6.949 6.767-2.806 1.671-6.098 2.503-9.875 2.503-3.903 0-7.224-.832-9.966-2.503-2.743-1.668-5.029-3.922-6.858-6.767-1.829-2.842-3.171-6.119-4.023-9.827-.855-3.708-1.28-7.539-1.28-11.495-.001-4.08.425-7.974 1.28-11.683zm324.961 22.807c-.731 3.708-1.953 7.017-3.659 9.92-1.707 2.906-3.994 5.224-6.856 6.954-2.866 1.731-6.432 2.594-10.698 2.594-4.022 0-7.47-.893-10.333-2.687-2.867-1.791-5.244-4.142-7.132-7.048-1.891-2.901-3.264-6.212-4.114-9.919a49.434 49.434 0 0 1-1.28-11.125c0-3.955.396-7.756 1.188-11.403.792-3.646 2.072-6.89 3.841-9.734 1.765-2.842 4.114-5.129 7.041-6.86 2.926-1.729 6.521-2.596 10.789-2.596 4.144 0 7.649.866 10.515 2.596 2.864 1.731 5.18 3.986 6.948 6.767 1.768 2.781 3.02 6.026 3.751 9.735a58.437 58.437 0 0 1 1.098 11.31 59.391 59.391 0 0 1-1.099 11.496z"/><path d="M224.498 298.949c0 9.768-1.585 16.781-4.754 21.044-3.172 4.265-8.292 6.399-15.362 6.399-6.097 0-10.395-1.948-12.892-5.84-2.5-3.896-3.749-9.798-3.749-17.71V248.7h-25.968v58.964c0 5.934.517 11.342 1.554 16.225 1.035 4.884 2.834 9.025 5.395 12.425 2.56 3.398 6.063 6.056 10.515 7.97 4.449 1.915 10.149 2.877 17.098 2.877 5.487 0 10.85-1.299 16.094-3.896 5.241-2.597 9.509-6.612 12.801-12.052h.548v13.351h24.688V248.7h-25.969v50.249zM263.631 248.7h25.967v95.863h-25.967zM303.496 212.173h25.967v132.391h-25.967z"/><g><path d="M459.17 327.203h-6.134v-2.064h14.716v2.064h-6.131v16.341h-2.451v-16.341zM469.843 325.139h3.35l5.798 15.466 5.826-15.466h3.351v18.405h-2.32v-15.311h-.051l-5.748 15.311h-2.087l-5.748-15.311h-.053v15.311h-2.317v-18.405z"/></g></symbol><symbol viewBox="0 0 612 792" id="build-nay" xmlns="http://www.w3.org/2000/svg"><path d="M478.4 500.2L177.1 198.9c35.6-25.7 78.8-41.4 126.2-41.4 11.8 0 23.3 1.1 34.5 3.1 12.5 2 24.5 5.2 36.2 9.3 2.3.8 4.7 1.5 7.2 2.4 7.8 3.1 15.5 6.4 22.8 10.3 68.8 36.2 115.9 108.4 115.9 191.5-.2 47.2-15.8 90.5-41.5 126.1zm-175.1 90.2c-11.8 0-23.4-1.1-34.5-3.1-12.5-2-24.5-5.2-36.2-9.3-2.4-.8-4.9-1.5-7.2-2.4-8.3-3.2-16.4-6.7-24.1-10.9-68-36.5-114.4-108.1-114.4-190.8 0-47.3 15.8-90.7 41.6-126.2L429.8 549c-35.8 25.6-79.2 41.4-126.5 41.4zm137.8-465.2c-.6-.2-.9-.6-1.3-.8-13.9-7.6-28.6-13.6-43.7-18.8-2.3-.8-4.5-1.5-6.8-2.3-27.2-8.6-56-13.9-86-13.9C146.2 89.5 18.9 216.9 18.9 374c0 107 59.2 200.2 146.6 248.7.6.2.9.7 1.4.9 13.9 7.6 28.6 13.6 43.7 18.8 2.3.8 4.5 1.5 6.8 2.3 27.2 8.6 55.9 13.9 86 13.9 157.1 0 284.5-127.4 284.5-284.5-.1-107.3-59.3-200.4-146.8-248.9z"/></symbol><symbol viewBox="0 0 51.53 51.53" id="build-order-add" xmlns="http://www.w3.org/2000/svg"><title>build-order-add</title><circle cx="9.15" cy="11.72" r="2.55"/><circle cx="9.15" cy="19.38" r="2.55"/><circle cx="9.15" cy="27.04" r="2.55"/><path d="M14.26 10.44h17.87v2.55H14.26zM14.26 18.1h17.87v2.55H14.26zM42.7 35.27h-5.04v-5.16h-2.35v5.16h-5.04v2.36h5.04v5.25h2.35v-5.25h5.04v-2.36z"/><path d="M37.66 22.6V1.09H1.09v36.57h21.52A13.94 13.94 0 1 0 37.66 22.6zM3.44 3.44h31.87V22.6a13.88 13.88 0 0 0-7.71 3.15H14.26v2.55h11a13.85 13.85 0 0 0-2.62 7H3.44zm33.05 44.64a11.6 11.6 0 1 1 11.6-11.59 11.61 11.61 0 0 1-11.6 11.59z"/></symbol><symbol viewBox="0 0 180 180" id="build-order-status" xmlns="http://www.w3.org/2000/svg"><title>180 - iPhone 6 Plus</title><g transform="translate(0 16)"><path d="M6.57 146.532h169.034V34.204H6.57v112.328zm9.271-91.173a1.583 1.583 0 0 1-1.609-1.59v-10.23c0-.895.724-1.644 1.609-1.657h32.124c.892-.014 1.616.762 1.616 1.657v10.23c0 .889-.724 1.577-1.616 1.59H15.841zm97.653 64.767c0 .901-.738 1.597-1.623 1.61h-50.23a1.591 1.591 0 0 1-1.609-1.61v-5.466c0-.889.717-1.637 1.609-1.657h50.23c.885-.021 1.623.762 1.623 1.657v5.466zm8.453-16.397c0 .896-.725 1.59-1.609 1.604H61.641c-.892.02-1.609-.708-1.609-1.604v-5.466c0-.896.717-1.644 1.609-1.663h58.697c.885-.014 1.609.768 1.609 1.663v5.466zm3.614-16.551c0 .902-.73 1.584-1.615 1.597H61.641c-.892.021-1.609-.694-1.609-1.597v-5.473c0-.889.717-1.644 1.609-1.656h62.305c.885-.021 1.615.762 1.615 1.656v5.473zM20.433 2.613L6.57 25.177h169.034L161.747 2.613H20.433"/></g></symbol><symbol viewBox="0 0 180 180" id="build-rewards" xmlns="http://www.w3.org/2000/svg"><path d="M167.761 44.595L90.867.045l-76.7 44.164.193 88.779 76.894 44.55 76.7-44.165-.193-88.778zM91.254 168.602l-69.102-40.049-.193-79.843L90.867 8.98l69.102 40.05.193 79.842-68.908 39.73z"/><path d="M94.988 128.424l32.265-18.578-.065-37.608-32.264 18.578zM123.131 65.616L90.932 46.974 58.989 65.359l32.2 18.707zM54.803 71.917l.129 37.735 32.329 18.707-.129-37.671z"/></symbol><symbol viewBox="0 0 180 180" id="build-rewards-color" xmlns="http://www.w3.org/2000/svg"><title>180 - iPhone 6 Plus - rewards_color</title><path d="M53.998 111.763l36.072 20.771v.108l.094-.054.094.054v-.108l36.072-20.771-.072-42.219-.148.085L89.945 48.69l-35.94 20.688.065.166-.072 42.219zm68.328-2.311l-28.268 16.277-.057-32.996 28.268-16.277.057 32.996zM61.995 69.394L89.939 53.31l28.208 16.332-27.944 16.14-28.208-16.388zm-3.936 7.062l28.268 16.277-.057 32.996-28.268-16.277.057-32.996zM160.198 49.914l-.017.009.137.079.176 80.307.004-.002 8.227 4.707-.197-89.718-.04-.023-8.2 4.692zM168.706 135.024l.013.007.006-.003v-.014z"/><path d="M160.288 49.965l8.2-4.692.018-.01L90.462.279l-.023 9.437 69.759 40.198zM160.498 130.307l-.004.002-70.057 40.168-.003 2.53.007 6.893 78.265-44.876.019-.01zM90.427 179.909l.007-.004-.007-.005zM20.384 130.309l.176-80.307.137-.079-.017-.009-.09.051-8.2-4.693-.04.024-.196 89.718 8.226-4.707z"/><path d="M12.154 135.028l.005.003.012-.008-.017-.009zM20.68 49.914L90.439 9.716 90.416.279 12.373 45.263l.017.009 8.2 4.693z"/><path d="M90.431 170.477l-70.047-40.168-.004-.002-8.226 4.707.017.009L90.427 179.9l.007.005.007.004v-.009l-.007-6.893z"/></symbol><symbol viewBox="0 0 512 512" id="build-social-facebooklike" xmlns="http://www.w3.org/2000/svg"><path fill="#231F20" d="M478.981 275.871c24.021-23.882 16.577-72.15-24.934-72.15l-109.206.076c4.12-23.158 10.109-61.489 9.893-65.104-2.311-34.281-24.172-76.007-25.104-77.746-4.011-7.4-24.099-17.485-44.365-13.15-26.229 5.602-28.867 22.328-28.758 26.913 0 0 1.117 45.666 1.23 57.878-12.468 27.493-55.678 99.749-68.793 105.315-3.066-1.879-6.684-2.893-10.362-2.893H40.573c-11.703 0-21.167 9.499-21.167 21.132l.036 190.75c.795 10.302 9.575 18.355 19.834 18.355h123.918c11.019 0 19.978-8.959 19.978-19.946v-6.354s4.586-.293 6.682 1.01c7.948 5.062 17.842 11.449 30.671 11.449H405.53c69.081 0 61.707-61.342 55.385-69.756 11.668-12.76 18.895-35.151 9.03-52.891 7.624-8.025 20.993-30.066 9.036-52.888zm-32.228-1.629l-1.118 4.703c31.859 9.062 14.916 45.766-7.95 48.186l-1.085 4.741c30.496 7.729 15.973 45.549-7.945 48.12l-1.083 4.726c24.926 4.121 18.897 46.68-18.934 46.68l-188.113.073c-13.298 0-25.328-15.172-35.154-15.172h-8.526V269.834c10.622-6.611 23.701-15.137 30.927-21.352 13.766-11.703 69.947-102.452 69.947-113.797 0-11.385-1.308-60.511-1.308-60.511s5.77-7.303 18.151-7.559a.831.831 0 0 1-.018-.064c.359 0 .682.035 1.029.043.479.005.977.035 1.472.062a44.23 44.23 0 0 1 1.772.139c.479.052.959.11 1.455.18 6.576.918 11.133 3.08 11.758 3.366 0 0 20.668 38.799 22.766 69.729 0 0-9.253 63.693-14.311 83.672H450.94c3.988 0 7.379.714 10.212 1.976 7.074 3.153 10.605 9.714 11.029 17.036.767 13.18-8.54 28.823-25.428 31.488z"/></symbol><symbol viewBox="0 0 512 512" id="build-social-googleplusone" xmlns="http://www.w3.org/2000/svg"><path d="M242.1 275.6l-18.2-13.7-.1-.101c-5.8-4.6-10-8.3-10-14.7 0-7 5-11.8 10.9-17.4l.5-.4c20-15.2 44.7-34.3 44.7-74.6 0-26.9-11.9-44.7-23.3-57.7h13L320 64H186.5c-25.3 0-62.7 3.2-94.6 28.6l-.1.3C70 110.9 57 137.4 57 163.5c0 21.2 8.7 42.2 23.9 57.4 21.4 21.6 48.3 26.1 67.1 26.1 1.5 0 3 0 4.5-.1-.8 3-1.2 6.3-1.2 10.3 0 10.899 3.6 19.3 8.1 26.2-24 1.899-58.1 6.5-84.9 22.3-39.4 22.7-42.5 56-42.5 65.6 0 38.2 35.7 76.8 115.5 76.8 91.6 0 139.5-49.8 139.5-99 0-37.1-22.8-55.6-44.9-73.5zM116.7 139.9c0-13.4 3-23.5 9.3-30.9 6.5-7.9 18.2-13.1 29-13.1 19.9 0 32.9 15 40.4 27.6 9.2 15.5 14.9 36.1 14.9 53.6 0 4.9 0 20-10.2 29.8-7 6.7-18.7 11.4-28.6 11.4-20.5 0-33.5-14.7-40.7-27-10.4-17.8-14.1-38.2-14.1-51.4zM237.8 368c0 27.4-25.2 44.5-65.8 44.5-48.1 0-80.3-20.6-80.3-51.3 0-26.101 21.5-36.8 37.8-42.5 18.9-6.101 44.3-7.3 50.1-7.3 3.9 0 6.1 0 8.7.199C224.9 336.8 237.8 347.7 237.8 368z"/><path d="M328.248 229.017v-34.343h-34.616v-23.707h34.616v-34.343h23.077v34.343h34.706v23.707h-34.706v34.343zM397.385 146.856v-19.955c9.258-.412 15.738-1.028 19.442-1.851 5.897-1.303 10.698-3.909 14.401-7.818 2.537-2.674 4.457-6.24 5.76-10.697.755-2.675 1.132-4.663 1.132-5.966h24.38v149.148h-30.037V146.856h-35.078z"/></symbol><symbol viewBox="0 0 505 385" id="build-social-stumbleupon" xmlns="http://www.w3.org/2000/svg"><title>Fill 4</title><path d="M418.604 202.402v72.205c0 14.734-11.965 26.678-26.724 26.678-14.76 0-26.724-11.944-26.724-26.678v-70.828l-51.43 15.33-34.502-16.052v70.247C279.763 335.073 330.1 385 392.11 385 454.456 385 505 334.543 505 272.303v-69.9h-86.396zm-104.877-42.17l51.429-15.33v-35.627C363.335 48.632 313.69 0 252.5 0c-60.969 0-110.488 48.279-112.656 108.605v162.778c0 14.734-11.965 26.679-26.724 26.679-14.76 0-26.724-11.945-26.724-26.679v-68.98H0v69.9C0 334.543 50.537 385 112.884 385c61.802 0 111.896-49.596 112.766-111.078l.126-160.769c0-14.734 11.965-26.678 26.724-26.678 14.76 0 26.724 11.944 26.724 26.678v31.028l34.503 16.051z" fill="#000" fill-rule="evenodd"/></symbol><symbol viewBox="-158 110.3 522.7 392.3" id="build-social-youtube-outline" xmlns="http://www.w3.org/2000/svg"/><symbol viewBox="0 0 448 448" id="build-user" xmlns="http://www.w3.org/2000/svg"><title>close-circled</title><path d="M224 0C100.49 0 0 100.49 0 224s100.49 224 224 224 224-100.48 224-224S347.52 0 224 0zm139.93 375.11c-33.87-24.41-85.16-28.35-95.73-56.78-.23-2.57-.4-6.7-.54-11 38.93-4 66.24-13.32 66.24-24.2a1 1 0 0 1-.1-.63C304.7 256.29 359 69.91 257.89 73.7c-6.35-5.38-17.47-10.15-33.42-10.15-137 10.37-76.43 186.37-107.65 219.59h-.06v.05c.13 10.65 26.51 19.82 64.31 23.91-.11 2.6-.33 5.81-.82 11.2-10.58 28.45-62.14 32.39-96.13 56.85A205.53 205.53 0 0 1 17.92 224c0-113.63 92.45-206.08 206.08-206.08S430.08 110.37 430.08 224a205.53 205.53 0 0 1-66.15 151.11z"/></symbol><symbol id="build-view-gallery" viewBox="0 0 512 512" xmlns="http://www.w3.org/2000/svg"><defs><style>.cls-1{fill:#231f20}</style></defs><title>build-view-gallery</title><path class="cls-1" d="M32 39.9h448v432.2H32z"/></symbol><symbol id="build-view-grid" viewBox="106 51 512 512" xmlns="http://www.w3.org/2000/svg"><style>.st0{fill:#231f20}</style><path class="st0" d="M138 90.9h187.2v179.4H138zM138 343.8h187.2v179.4H138zM398.8 90.9H586v179.4H398.8zM398.8 343.8H586v179.4H398.8z"/></symbol><symbol id="build-view-list" viewBox="106 51 512 512" xmlns="http://www.w3.org/2000/svg"><style>.st0{fill:#231f20}</style><path class="st0" d="M138 90.9h105.4v94.7H138zM138 259.1h105.4v95.2H138zM138 427.3h105.4v95.8H138zM300.5 90.9H586v94.7H300.5zM300.5 259.1H586v95.2H300.5zM300.5 427.3H586v95.8H300.5z"/></symbol><symbol fill-rule="evenodd" clip-rule="evenodd" stroke-linejoin="round" stroke-miterlimit="1.414" viewBox="0 0 512 512" id="build-zoom-in" xmlns="http://www.w3.org/2000/svg"><path d="M457.605 414.723L339.796 296.81c21.628-27.035 34.625-61.452 34.625-98.884 0-87.447-70.81-158.257-158.048-158.257-87.343 0-158.049 70.914-158.049 158.257 0 87.342 70.81 158.256 158.049 158.256 37.64 0 72.162-13.205 99.3-35.145L433.378 438.95l24.227-24.227zm-341.26-116.561c-26.723-26.723-41.384-62.284-41.384-100.132 0-37.849 14.765-73.41 41.384-100.132 26.619-26.723 62.283-41.592 100.028-41.592 37.744 0 73.305 14.765 100.028 41.488 26.722 26.723 41.384 62.283 41.384 100.132 0 37.848-14.765 73.409-41.384 100.132-26.723 26.723-62.284 41.488-100.028 41.488-37.745.104-73.305-14.662-100.028-41.384zm90.998-24.158v-65.222h-62.019v-21.733h62.019v-64.753h20.881v64.753h62.019v21.733h-62.019v65.222h-20.881z"/></symbol><symbol fill-rule="evenodd" clip-rule="evenodd" stroke-linejoin="round" stroke-miterlimit="1.414" viewBox="0 0 512 512" id="build-zoom-out" xmlns="http://www.w3.org/2000/svg"><path d="M462.14 415.036L344.233 297.025c21.646-27.057 34.654-61.503 34.654-98.967 0-87.52-70.869-158.389-158.18-158.389-87.416 0-158.18 70.973-158.18 158.389 0 87.415 70.869 158.388 158.18 158.388 37.672 0 72.222-13.216 99.383-35.174l117.803 118.011 24.247-24.247zM120.595 298.378c-26.745-26.745-41.418-62.336-41.418-100.216 0-37.88 14.777-73.471 41.418-100.216 26.641-26.745 62.336-41.626 100.112-41.626 37.776 0 73.367 14.777 100.112 41.522 26.744 26.745 41.418 62.336 41.418 100.216 0 37.88-14.778 73.471-41.418 100.216-26.745 26.745-62.336 41.522-100.112 41.522-37.776.104-73.367-14.673-100.112-41.418zm174.044-89.455h-145.04v-23.276h145.04v23.276z"/></symbol><symbol viewBox="0 0 512 512" id="calculator" xmlns="http://www.w3.org/2000/svg"><path d="M400 32H112c-8.8 0-16 7.2-16 16v416c0 8.8 7.2 16 16 16h288c8.8 0 16-7.2 16-16V48c0-8.8-7.2-16-16-16zM144 208h32v32h-32v-32zm0 64h32v32h-32v-32zm0 64h32v32h-32v-32zm96 96h-96v-32h96v32zm0-64h-32v-32h32v32zm0-64h-32v-32h32v32zm0-64h-32v-32h32v32zm64 192h-32v-32h32v32zm0-64h-32v-32h32v32zm0-64h-32v-32h32v32zm0-64h-32v-32h32v32zm64 192h-32v-96h32v96zm0-128h-32v-32h32v32zm0-64h-32v-32h32v32zm0-80H144V80h224v80z"/></symbol><symbol viewBox="0 0 512 512" id="calendar" xmlns="http://www.w3.org/2000/svg"><path d="M144 128c17.7 0 32-14.3 32-32V64c0-17.7-14.3-32-32-32s-32 14.3-32 32v32c0 17.7 14.3 32 32 32zM368 128c17.7 0 32-14.3 32-32V64c0-17.7-14.3-32-32-32s-32 14.3-32 32v32c0 17.7 14.3 32 32 32z"/><path d="M472 64h-56v40.7c0 22.5-23.2 39.3-47.2 39.3S320 127.2 320 104.7V64H192v40.7c0 22.5-24 39.3-48 39.3s-48-16.8-48-39.3V64H40c-4.4 0-8 3.6-8 8v400c0 4.4 3.6 8 8 8h432c4.4 0 8-3.6 8-8V72c0-4.4-3.6-8-8-8zm-40 368H80V176h352v256z"/></symbol><symbol viewBox="0 0 512 512" id="camera" xmlns="http://www.w3.org/2000/svg"><path d="M430.4 147h-67.5l-40.4-40.8s-.2-.2-.3-.2l-.2-.2c-6-6-14.1-9.8-23.3-9.8h-84c-9.8 0-18.5 4.2-24.6 10.9v.1l-39.5 40h-69C63 147 48 161.6 48 180.2v202.1c0 18.6 15 33.7 33.6 33.7h348.8c18.5 0 33.6-15.1 33.6-33.7V180.2c0-18.6-15.1-33.2-33.6-33.2zM256 365.5c-50.9 0-92.4-41.6-92.4-92.6 0-51.1 41.5-92.6 92.4-92.6 51 0 92.4 41.5 92.4 92.6 0 51-41.4 92.6-92.4 92.6zm168.1-165c-7.7 0-14-6.3-14-14.1s6.3-14.1 14-14.1 14 6.3 14 14.1-6.3 14.1-14 14.1z"/><path d="M256 202.9c-38.6 0-69.8 31.3-69.8 70 0 38.6 31.2 70 69.8 70 38.5 0 69.8-31.3 69.8-70s-31.3-70-69.8-70z"/></symbol><symbol viewBox="0 0 512 512" id="card" xmlns="http://www.w3.org/2000/svg"><path d="M452 96H60c-15.5 0-27.9 12.5-28 28v264c.2 15.5 12.5 28 28 28h392c15.6 0 28-12.7 28-28.3V124.3c0-15.6-12.4-28.3-28-28.3zM77.1 128h357.7c6.9 0 12.1 5.1 13.1 12v20H64v-20.3c1-6.8 6.3-11.7 13.1-11.7zm357.8 256H77.1c-6.9 0-12.1-4.9-13.1-11.7V256h384v116c-1 6.9-6.3 12-13.1 12z"/><path d="M96 304h192v16H96zM96 336h96v16H96zM352 304h64v48h-64z"/></symbol><symbol viewBox="0 0 512 512" id="cash" xmlns="http://www.w3.org/2000/svg"><path d="M0 96v256h512V96H0zm192.508 224H80.129c0-26.582-21.549-48.129-48.129-48.129V192c35.346 0 64-28.653 64-64h96.509C172.576 151.455 160 185.767 160 224s12.576 72.545 32.508 96zm105.581-58.752c-2.582 4.182-5.978 7.602-10.189 10.257-4.214 2.655-9.004 4.607-14.375 5.835a74.172 74.172 0 0 1-8.524 1.432V288h-18v-9.43a65.356 65.356 0 0 1-8.072-1.541c-5.688-1.475-10.641-3.659-14.851-6.709-4.214-3.047-7.584-6.803-10.11-11.573-2.42-4.561-3.728-10.747-3.928-15.747h19.735c.096 3 .828 6.532 2.201 9.184 1.473 2.853 3.526 4.883 6.16 6.7 2.572 1.78 5.532 3.082 8.863 3.919v-34.358a1410.71 1410.71 0 0 1-7.758-1.938c-4.846-1.18-8.873-2.729-12.085-4.646-3.214-1.918-5.766-4.057-7.661-6.417-1.896-2.359-3.238-4.867-4.028-7.522a28.266 28.266 0 0 1-1.186-8.113c0-5.31 1.186-9.905 3.556-13.791 2.368-3.883 5.502-7.104 9.398-9.662 3.895-2.556 8.319-4.448 13.27-5.679a63.196 63.196 0 0 1 6.494-1.248V160h18v9.499c2.46.353 4.856.838 7.18 1.473 5.215 1.427 9.796 3.563 13.744 6.414 3.95 2.854 7.083 6.364 9.4 10.542 2.109 3.811 3.258 8.072 3.445 13.072h-19.866c-.753-6-3.175-10.326-7.274-12.923-1.966-1.246-4.186-2.196-6.629-2.887v30.368c2.589.639 5.15 1.268 7.654 1.878 3.421.836 5.87 1.453 7.346 1.844 3.686 1.083 6.897 2.558 9.637 4.425 2.737 1.869 5.028 4.008 6.873 6.417 1.841 2.411 3.21 4.992 4.107 7.744.893 2.753 1.343 5.51 1.343 8.262.001 5.899-1.291 10.942-3.87 15.12zM480 271.871c-26 0-48 21.547-48 48.129H319.491C339.424 296.545 352 262.233 352 224s-12.576-72.545-32.51-96H416c0 35.347 28.653 64 64 64v79.871z"/><circle cx="96" cy="224" r="32"/><circle cx="416" cy="224" r="32"/><path d="M272.893 235.21a121.96 121.96 0 0 0-7.893-2.389v30.856c1.592-.23 3.069-.547 4.416-.959 3.053-.934 5.529-2.139 7.425-3.613s3.264-3.171 4.107-5.089c.842-1.917 1.263-3.858 1.263-5.827 0-4.031-.975-7.006-2.921-8.924-1.95-1.916-4.084-3.266-6.397-4.055zM236.004 190.959c-1.318 1.771-1.975 3.982-1.975 6.638 0 3.738 1.236 6.663 3.712 8.776 2.377 2.034 5.468 3.583 9.259 4.661v-26.356c-2.18.45-4.192 1.135-6.02 2.078a14.248 14.248 0 0 0-4.976 4.203zM0 384h512v32H0z"/></symbol><symbol viewBox="0 0 512 512" id="chatbox" xmlns="http://www.w3.org/2000/svg"><path d="M124.3 400H277c14.4 0 14.4.1 21.3 5.2S384 464 384 464v-64h3.7c42.2 0 76.3-31.8 76.3-71.4V119.7c0-39.6-34.2-71.7-76.3-71.7H124.3C82.2 48 48 80.1 48 119.7v208.9c0 39.6 34.2 71.4 76.3 71.4z"/></symbol><symbol viewBox="0 0 512 512" id="chatbox-working" xmlns="http://www.w3.org/2000/svg"><path d="M124.3 400H277c14.4 0 14.4.1 21.3 5.2S384 464 384 464v-64h3.7c42.2 0 76.3-31.8 76.3-71.4V119.7c0-39.6-34.2-71.7-76.3-71.7H124.3C82.2 48 48 80.1 48 119.7v208.9c0 39.6 34.2 71.4 76.3 71.4zm227.8-208c17.7 0 32 14.3 32 32s-14.3 32-32 32-32-14.3-32-32 14.3-32 32-32zm-96 0c17.7 0 32 14.3 32 32s-14.3 32-32 32-32-14.3-32-32 14.3-32 32-32zm-96 0c17.7 0 32 14.3 32 32s-14.3 32-32 32-32-14.3-32-32 14.3-32 32-32z"/></symbol><symbol viewBox="0 0 512 512" id="chatboxes" xmlns="http://www.w3.org/2000/svg"><path d="M294.1 365.5c-2.6-1.8-7.2-4.5-17.5-4.5H160.5c-34.7 0-64.5-26.1-64.5-59.2V201h-1.8C67.9 201 48 221.5 48 246.5v128.9c0 25 21.4 40.6 47.7 40.6H112v48l53.1-45c1.9-1.4 5.3-3 13.2-3h89.8c23 0 47.4-11.4 51.9-32l-25.9-18.5z"/><path d="M401 48H183.7C149 48 128 74.8 128 107.8V276c0 33.1 28 60 62.7 60h101.1c10.4 0 15 2.3 17.5 4.2L384 400v-64h17c34.8 0 63-26.9 63-59.9V107.8c0-33-28.2-59.8-63-59.8z"/></symbol><symbol viewBox="0 0 512 512" id="chatbubble" xmlns="http://www.w3.org/2000/svg"><path d="M256 449.4c28.9 0 56.4-5.7 81.3-15.9.6-.3 1.1-.5 1.7-.7.1 0 .2 0 .2-.1 3.5-1.3 7.3-2 11.2-2 4.3 0 8.4.8 12.1 2.4l84 30.9-22.1-88.4c0-5.3 1.5-10.3 3.9-14.6.8-1.3 1.6-2.6 2.5-3.7 20.9-31.3 33-68.5 33-108.4C464 137.9 370.9 48 256 48S48 137.9 48 248.7c0 110.9 93.1 200.7 208 200.7z"/></symbol><symbol viewBox="0 0 512 512" id="chatbubble-working" xmlns="http://www.w3.org/2000/svg"><path d="M256 449.4c28.9 0 56.4-5.7 81.3-15.9.6-.3 1.1-.5 1.7-.7.1 0 .2 0 .2-.1 3.5-1.3 7.3-2 11.2-2 4.3 0 8.4.8 12.1 2.4l84 30.9-22.1-88.4c0-5.3 1.5-10.3 3.9-14.6.8-1.3 1.6-2.6 2.5-3.7 20.9-31.3 33-68.5 33-108.4C464 137.9 370.9 48 256 48S48 137.9 48 248.7c0 110.9 93.1 200.7 208 200.7zM352 224c17.7 0 32 14.3 32 32s-14.3 32-32 32-32-14.3-32-32 14.3-32 32-32zm-96 0c17.7 0 32 14.3 32 32s-14.3 32-32 32-32-14.3-32-32 14.3-32 32-32zm-96 0c17.7 0 32 14.3 32 32s-14.3 32-32 32-32-14.3-32-32 14.3-32 32-32z"/></symbol><symbol viewBox="0 0 512 512" id="chatbubbles" xmlns="http://www.w3.org/2000/svg"><path d="M73.3 391c1.8 3 2.8 6.4 2.8 10.2L64 464l56.2-22.1c2.7-1.1 5.6-1.7 8.7-1.7 2.8 0 5.5.5 8 1.4h.2c.4.2.8.3 1.2.5 17.8 7.3 37.4 11.4 57.9 11.4 46.3 0 87.6-20.5 114.8-52.6-14.1 3.6-28.9 5.7-44.1 5.7-95.9 0-173.7-75-173.7-167.5 0-11.8 1.3-23.2 3.7-34.3-30 26.1-48.9 63.8-48.9 105.8 0 28.4 8.6 55.2 23.5 77.5.6.8 1.2 1.9 1.8 2.9z"/><path d="M290.3 48c-83.7 0-153.6 57.2-170 133.2-2.4 11.1-3.7 22.5-3.7 34.3 0 92.5 77.7 167.5 173.7 167.5 15.3 0 30-2.1 44.1-5.7 8.1-2.1 16.1-4.5 23.8-7.6.5-.2.9-.4 1.4-.6.1 0 .2 0 .2-.1 2.9-1.1 6.1-1.7 9.3-1.7 3.6 0 7 .7 10.1 2l68.6 25.8-17-73.8c0-4.4 1.2-8.6 3.3-12.2.6-1.1 1.4-2.1 2.1-3.1 17.4-26.1 27.5-57.2 27.5-90.5C464 123 386.3 48 290.3 48z"/></symbol><symbol viewBox="0 0 512 512" id="checkmark" xmlns="http://www.w3.org/2000/svg"><path d="M461.6 109.6l-54.9-43.3c-1.7-1.4-3.8-2.4-6.2-2.4-2.4 0-4.6 1-6.3 2.5L194.5 323s-78.5-75.5-80.7-77.7c-2.2-2.2-5.1-5.9-9.5-5.9s-6.4 3.1-8.7 5.4c-1.7 1.8-29.7 31.2-43.5 45.8-.8.9-1.3 1.4-2 2.1-1.2 1.7-2 3.6-2 5.7 0 2.2.8 4 2 5.7l2.8 2.6s139.3 133.8 141.6 136.1c2.3 2.3 5.1 5.2 9.2 5.2 4 0 7.3-4.3 9.2-6.2l249.1-320c1.2-1.7 2-3.6 2-5.8 0-2.5-1-4.6-2.4-6.4z"/></symbol><symbol viewBox="0 0 512 512" id="checkmark-circled" xmlns="http://www.w3.org/2000/svg"><path d="M256 32C132.3 32 32 132.3 32 256s100.3 224 224 224 224-100.3 224-224S379.7 32 256 32zm114.9 149.1L231.8 359.6c-1.1 1.1-2.9 3.5-5.1 3.5-2.3 0-3.8-1.6-5.1-2.9-1.3-1.3-78.9-75.9-78.9-75.9l-1.5-1.5c-.6-.9-1.1-2-1.1-3.2 0-1.2.5-2.3 1.1-3.2.4-.4.7-.7 1.1-1.2 7.7-8.1 23.3-24.5 24.3-25.5 1.3-1.3 2.4-3 4.8-3 2.5 0 4.1 2.1 5.3 3.3 1.2 1.2 45 43.3 45 43.3l111.3-143c1-.8 2.2-1.4 3.5-1.4 1.3 0 2.5.5 3.5 1.3l30.6 24.1c.8 1 1.3 2.2 1.3 3.5.1 1.3-.4 2.4-1 3.3z"/></symbol><symbol viewBox="0 0 512 512" id="chevron-down" xmlns="http://www.w3.org/2000/svg"><path d="M256 298.3l174.2-167.2c4.3-4.2 11.4-4.1 15.8.2l30.6 29.9c4.4 4.3 4.5 11.3.2 15.5L264.1 380.9c-2.2 2.2-5.2 3.2-8.1 3-3 .1-5.9-.9-8.1-3L35.2 176.7c-4.3-4.2-4.2-11.2.2-15.5L66 131.3c4.4-4.3 11.5-4.4 15.8-.2L256 298.3z"/></symbol><symbol viewBox="0 0 512 512" id="chevron-left" xmlns="http://www.w3.org/2000/svg"><path d="M213.7 256L380.9 81.9c4.2-4.3 4.1-11.4-.2-15.8l-29.9-30.6c-4.3-4.4-11.3-4.5-15.5-.2L131.1 247.9c-2.2 2.2-3.2 5.2-3 8.1-.1 3 .9 5.9 3 8.1l204.2 212.7c4.2 4.3 11.2 4.2 15.5-.2l29.9-30.6c4.3-4.4 4.4-11.5.2-15.8L213.7 256z"/></symbol><symbol viewBox="0 0 512 512" id="chevron-right" xmlns="http://www.w3.org/2000/svg"><path d="M298.3 256L131.1 81.9c-4.2-4.3-4.1-11.4.2-15.8l29.9-30.6c4.3-4.4 11.3-4.5 15.5-.2L380.9 248c2.2 2.2 3.2 5.2 3 8.1.1 3-.9 5.9-3 8.1L176.7 476.8c-4.2 4.3-11.2 4.2-15.5-.2L131.3 446c-4.3-4.4-4.4-11.5-.2-15.8L298.3 256z"/></symbol><symbol viewBox="0 0 512 512" id="chevron-up" xmlns="http://www.w3.org/2000/svg"><path d="M256 213.7l174.2 167.2c4.3 4.2 11.4 4.1 15.8-.2l30.6-29.9c4.4-4.3 4.5-11.3.2-15.5L264.1 131.1c-2.2-2.2-5.2-3.2-8.1-3-3-.1-5.9.9-8.1 3L35.2 335.3c-4.3 4.2-4.2 11.2.2 15.5L66 380.7c4.4 4.3 11.5 4.4 15.8.2L256 213.7z"/></symbol><symbol viewBox="0 0 512 512" id="clipboard" xmlns="http://www.w3.org/2000/svg"><path d="M161 160.5h192c-1.688-20-9.729-35.45-27.921-40.356-.446-.119-1.12-.424-1.567-.541-12.004-3.424-21.012-7.653-21.012-20.781V78.227C302.5 52.691 281.976 32 256.49 32c-25.466 0-45.99 20.691-45.99 46.227v20.595c0 13.128-8.592 17.169-20.597 20.593-.447.117-.8.61-1.266.729C170.446 125.05 162.927 140.5 161 160.5zm95.99-96.105c7.615 0 13.791 6.195 13.791 13.832 0 7.654-6.176 13.85-13.791 13.85-7.614 0-13.772-6.195-13.772-13.85 0-7.637 6.158-13.832 13.772-13.832z"/><path d="M405.611 63.5H331.5v13.988c0 10.583 9.193 19.012 19.507 19.012h37.212c6.667 0 12.099 5.435 12.44 12.195l.085 327.1c-.322 6.432-5.303 11.546-11.514 12.017l-264.418.031c-6.211-.471-11.149-5.695-11.472-12.126l-.085-327.014c.322-6.761 5.858-12.203 12.506-12.203h37.231c10.313 0 18.507-8.429 18.507-19.012V63.5h-73.131C93.25 63.5 80.5 76.058 80.5 91.575v360.38c0 15.502 12.75 28.545 27.869 28.545h297.242c15.138 0 26.889-13.043 26.889-28.545V91.575c0-15.517-11.751-28.075-26.889-28.075z"/><path d="M144.5 192.5h112v32h-112zM144.5 384.5h160v32h-160zM144.5 320.5h129v32h-129zM144.5 256.5h208v32h-208z"/></symbol><symbol viewBox="0 0 512 512" id="close" xmlns="http://www.w3.org/2000/svg"><path d="M443.6 387.1L312.4 255.4l131.5-130c5.4-5.4 5.4-14.2 0-19.6l-37.4-37.6c-2.6-2.6-6.1-4-9.8-4-3.7 0-7.2 1.5-9.8 4L256 197.8 124.9 68.3c-2.6-2.6-6.1-4-9.8-4-3.7 0-7.2 1.5-9.8 4L68 105.9c-5.4 5.4-5.4 14.2 0 19.6l131.5 130L68.4 387.1c-2.6 2.6-4.1 6.1-4.1 9.8 0 3.7 1.4 7.2 4.1 9.8l37.4 37.6c2.7 2.7 6.2 4.1 9.8 4.1 3.5 0 7.1-1.3 9.8-4.1L256 313.1l130.7 131.1c2.7 2.7 6.2 4.1 9.8 4.1 3.5 0 7.1-1.3 9.8-4.1l37.4-37.6c2.6-2.6 4.1-6.1 4.1-9.8-.1-3.6-1.6-7.1-4.2-9.7z"/></symbol><symbol viewBox="0 0 512 512" id="close-circled" xmlns="http://www.w3.org/2000/svg"><path d="M256 33C132.3 33 32 133.3 32 257s100.3 224 224 224 224-100.3 224-224S379.7 33 256 33zm108.3 299.5c1.5 1.5 2.3 3.5 2.3 5.6 0 2.1-.8 4.2-2.3 5.6l-21.6 21.7c-1.6 1.6-3.6 2.3-5.6 2.3-2 0-4.1-.8-5.6-2.3L256 289.8l-75.4 75.7c-1.5 1.6-3.6 2.3-5.6 2.3-2 0-4.1-.8-5.6-2.3l-21.6-21.7c-1.5-1.5-2.3-3.5-2.3-5.6 0-2.1.8-4.2 2.3-5.6l75.7-76-75.9-75c-3.1-3.1-3.1-8.2 0-11.3l21.6-21.7c1.5-1.5 3.5-2.3 5.6-2.3 2.1 0 4.1.8 5.6 2.3l75.7 74.7 75.7-74.7c1.5-1.5 3.5-2.3 5.6-2.3 2.1 0 4.1.8 5.6 2.3l21.6 21.7c3.1 3.1 3.1 8.2 0 11.3l-75.9 75 75.6 75.9z"/></symbol><symbol viewBox="0 0 512 512" id="compose" xmlns="http://www.w3.org/2000/svg"><path d="M442.8 99.6l-30.4-30.4c-7-6.9-18.2-6.9-25.1 0L355.5 101l55.5 55.5 31.8-31.7c6.9-7.1 6.9-18.3 0-25.2zM346.1 110.5L174.1 288 160 352l64-14.1 176.6-173z"/><path d="M384 256v150c0 5.1-3.9 10.1-9.2 10.1s-269-.1-269-.1c-5.6 0-9.8-5.4-9.8-10V138c0-5 4.7-10 10.6-10H256l32-32H87.4c-13 0-23.4 10.3-23.4 23.3v305.3c0 12.9 10.5 23.4 23.4 23.4h305.3c12.9 0 23.3-10.5 23.3-23.4V224l-32 32z"/></symbol><symbol viewBox="0 0 512 512" id="connection-bars" xmlns="http://www.w3.org/2000/svg"><path d="M80 352h64v64H80zM176 288h64v128h-64zM272 192h64v224h-64zM368 96h64v320h-64z"/></symbol><symbol fill-rule="evenodd" clip-rule="evenodd" stroke-linejoin="round" stroke-miterlimit="1.414" viewBox="0 0 512 512" id="crop-landscape" xmlns="http://www.w3.org/2000/svg"><path d="M425.173 118.997v13.375h-57.099v-13.375h57.099zM329.803 118.997v13.375h-57.099v-13.375h57.099zM234.433 118.997v13.375h-57.1v-13.375h57.1zM139.063 118.997v13.375h-57.1v-13.375h57.1zM425.173 353.461v13.375h-57.099v-13.375h57.099zM329.803 353.461v13.375h-57.099v-13.375h57.099zM234.433 353.461v13.375h-57.1v-13.375h57.1zM139.063 353.461v13.375h-57.1v-13.375h57.1z"/><g><path d="M449.118 118.997h14.23v57.099h-14.23z"/></g><g><path d="M45.125 118.997h14.23v57.099h-14.23z"/></g><g><path d="M449.118 214.367h14.23v57.099h-14.23z"/></g><g><path d="M45.125 214.367h14.23v57.099h-14.23z"/></g><g><path d="M449.118 309.737h14.23v57.099h-14.23z"/></g><g><path d="M45.125 309.737h14.23v57.099h-14.23z"/></g></symbol><symbol fill-rule="evenodd" clip-rule="evenodd" stroke-linejoin="round" stroke-miterlimit="1.414" viewBox="0 0 512 512" id="crop-portrait" xmlns="http://www.w3.org/2000/svg"><path d="M129.317 71.98h13.375v57.099h-13.375zM129.317 167.35h13.375v57.099h-13.375zM129.317 262.72h13.375v57.099h-13.375zM129.317 358.091h13.375v57.099h-13.375zM363.781 71.98h13.375v57.099h-13.375zM363.781 167.35h13.375v57.099h-13.375zM363.781 262.72h13.375v57.099h-13.375zM363.781 358.091h13.375v57.099h-13.375z"/><g><path d="M129.317 48.035v-14.23h57.099v14.23h-57.099z"/></g><g><path d="M129.317 452.028v-14.23h57.099v14.23h-57.099z"/></g><g><path d="M224.687 48.035v-14.23h57.099v14.23h-57.099z"/></g><g><path d="M224.687 452.028v-14.23h57.099v14.23h-57.099z"/></g><g><path d="M320.057 48.035v-14.23h57.099v14.23h-57.099z"/></g><g><path d="M320.057 452.028v-14.23h57.099v14.23h-57.099z"/></g></symbol><symbol viewBox="0 0 512 512" id="cube" xmlns="http://www.w3.org/2000/svg"><path d="M467.301 168.084c-1.805 0-3.516.329-5.07.962l-2.281 1.15-171.475 88.938-3.888 1.996s-.052.023-.052.047c-7.56 4.668-12.535 12.506-12.535 21.425v185.854c0 6.382 5.649 11.544 12.69 11.544a13.77 13.77 0 0 0 6.065-1.404c.155-.095.363-.188.519-.282l174.731-92.694.259-.141c8.241-4.504 13.735-12.742 13.735-22.105V179.582c.001-6.359-5.7-11.498-12.698-11.498zM454.273 118.521l-181.7-81.731S261.914 32 255.996 32s-16.526 4.79-16.526 4.79L57.614 118.521s-7.989 3.292-7.989 9.479c0 6.562 8.3 11.5 8.3 11.5l182.582 96.371 2.902 1.479c3.784 1.687 8.077 2.649 12.587 2.649 4.561 0 8.915-.963 12.742-2.696l2.539-1.315 182.893-96.536s7.508-4.036 7.508-11.453c0-6.499-7.405-9.478-7.405-9.478zM227.466 261.178l-3.992-2.043-171.432-88.938-2.28-1.15c-1.495-.634-3.258-.962-5.071-.962-6.997 0-12.69 5.138-12.69 11.497v183.792c0 9.388 5.485 17.602 13.727 22.105l.208.141 174.739 92.694c1.918 1.08 4.199 1.687 6.636 1.687 6.989 0 12.69-5.162 12.69-11.544V282.603c-.001-8.919-4.977-16.757-12.535-21.425z"/></symbol><symbol viewBox="0 0 512 512" id="edit" xmlns="http://www.w3.org/2000/svg"><path d="M163 439.573l-90.569-90.569L322.78 98.656l90.57 90.569zM471.723 88.393l-48.115-48.114c-11.723-11.724-31.558-10.896-44.304 1.85l-45.202 45.203 90.569 90.568 45.202-45.202c12.743-12.746 13.572-32.582 1.85-44.305zM64.021 363.252L32 480l116.737-32.021z"/></symbol><symbol viewBox="0 0 512 512" id="email" xmlns="http://www.w3.org/2000/svg"><path d="M67 148.7c11 5.8 163.8 89.1 169.5 92.1 5.7 3 11.5 4.4 20.5 4.4s14.8-1.4 20.5-4.4c5.7-3 158.5-86.3 169.5-92.1 4.1-2.1 11-5.9 12.5-10.2 2.6-7.6-.2-10.5-11.3-10.5H65.8c-11.1 0-13.9 3-11.3 10.5 1.5 4.4 8.4 8.1 12.5 10.2z"/><path d="M455.7 153.2c-8.2 4.2-81.8 56.6-130.5 88.1l82.2 92.5c2 2 2.9 4.4 1.8 5.6-1.2 1.1-3.8.5-5.9-1.4l-98.6-83.2c-14.9 9.6-25.4 16.2-27.2 17.2-7.7 3.9-13.1 4.4-20.5 4.4s-12.8-.5-20.5-4.4c-1.9-1-12.3-7.6-27.2-17.2L110.7 338c-2 2-4.7 2.6-5.9 1.4-1.2-1.1-.3-3.6 1.7-5.6l82.1-92.5c-48.7-31.5-123.1-83.9-131.3-88.1-8.8-4.5-9.3.8-9.3 4.9v205c0 9.3 13.7 20.9 23.5 20.9h371c9.8 0 21.5-11.7 21.5-20.9v-205c0-4.2.6-9.4-8.3-4.9z"/></symbol><symbol viewBox="0 0 512 512" id="erlenmeyer-flask" xmlns="http://www.w3.org/2000/svg"><path d="M438.815 395.7L338.509 246.2c-12.8-20.3-19.009-44.4-19.009-70.2V83c0-19.5 12.592-33.25 15.009-42.083 2.296-8.392.512-8.417-15.188-8.417H192.526c-15.999 0-18.548.009-16.311 8.416C178.633 50 191.5 64.3 191.5 83.5V176c0 25.8-7.285 49.8-20.085 70.2l-49.279 76.5-49.101 72.9c-5.8 9-9.051 20.7-9.051 32.2 0 28 16.347 52.7 63.246 52.7h257.589c46.998 0 63.197-24.7 63.197-52.7-.1-11.5-3.401-23.1-9.201-32.1zM409.218 441c-4.4 4.2-11.602 7.5-24.499 7.5h-257.59c-12.8 0-20.8-3.5-25.199-7.7-2.7-2.6-6-7.05-6-13.35 0-5 1.4-10.125 3.9-14.125l99.039-150.392c15.699-25.199 24.632-55.231 24.632-86.932V64.5h64v111.4c0 31.199 7.761 61.3 23.859 87l100.523 150c2.499 4 3.968 9.25 3.968 14.25-.001 6.4-3.933 11.25-6.633 13.85z"/><path d="M389.217 411.301c.051.075.1.397 0 .249L307.345 288.5H203.698l-81.069 123.151c-1.5 2.1-2.3 5.175-2.3 7.974 0 7.5 6.288 13.875 13.687 13.875h244c7.5 0 13.599-6.725 13.599-14.125-.001-2.5-1.099-6.074-2.398-8.074zM302.021 341.7c-1.5-1.5-2.3-3.601-2.3-5.7s.899-4.2 2.3-5.7c1.5-1.5 3.6-2.3 5.6-2.3 2.102 0 4.2.8 5.602 2.3 1.5 1.5 2.299 3.601 2.299 5.7s-.899 4.2-2.299 5.7c-1.5 1.5-3.5 2.3-5.602 2.3-2 0-4.1-.9-5.6-2.3zm46.899 59c-1.4.898-2.9 1.3-4.302 1.3-2.499 0-5.099-1.3-6.598-3.6l-23.499-35.9c-2.4-3.7-1.4-8.7 2.299-11.1 1.4-.9 2.9-1.301 4.4-1.301 2.6 0 5.1 1.301 6.5 3.601l23.5 35.9c2.398 3.699 1.398 8.699-2.3 11.1z"/></symbol><symbol viewBox="0 0 512 512" id="eye" xmlns="http://www.w3.org/2000/svg"><path d="M256 128c-81.9 0-145.7 48.8-224 128 67.4 67.7 124 128 224 128 99.9 0 173.4-76.4 224-126.6C428.2 198.6 354.8 128 256 128zm0 219.3c-49.4 0-89.6-41-89.6-91.3 0-50.4 40.2-91.3 89.6-91.3s89.6 41 89.6 91.3c0 50.4-40.2 91.3-89.6 91.3z"/><path d="M256 224c0-7.9 2.9-15.1 7.6-20.7-2.5-.4-5-.6-7.6-.6-28.8 0-52.3 23.9-52.3 53.3s23.5 53.3 52.3 53.3 52.3-23.9 52.3-53.3c0-2.3-.2-4.6-.4-6.9-5.5 4.3-12.3 6.9-19.8 6.9-17.8 0-32.1-14.3-32.1-32z"/></symbol><symbol viewBox="0 0 512 512" id="heart" xmlns="http://www.w3.org/2000/svg"><path d="M429.9 95.6c-40.4-42.1-106-42.1-146.4 0L256 124.1l-27.5-28.6c-40.5-42.1-106-42.1-146.4 0-45.5 47.3-45.5 124.1 0 171.4L256 448l173.9-181c45.5-47.3 45.5-124.1 0-171.4z"/></symbol><symbol viewBox="0 0 512 512" id="help-circled" xmlns="http://www.w3.org/2000/svg"><path d="M256 32C132.3 32 32 132.3 32 256s100.3 224 224 224 224-100.3 224-224S379.7 32 256 32zm20.2 326.7c-.5 17.8-13.7 28.8-30.8 28.3-16.4-.5-29.3-12.2-28.8-30.1.5-17.8 14.1-29.1 30.5-28.6 17.2.5 29.7 12.6 29.1 30.4zm48.7-127.3c-4.2 5.9-13.6 13.5-25.4 22.7l-13.1 9c-6.4 4.9-10.4 10.7-12.5 17.3-1.1 3.5-1.9 12.6-2.1 18.7-.1 1.2-.8 3.9-4.5 3.9h-39.1c-4.1 0-4.6-2.4-4.5-3.6.6-16.6 3-30.3 9.9-41.3 9.3-14.8 35.5-30.4 35.5-30.4 4-3 7.1-6.2 9.5-9.7 4.4-6 8-12.7 8-19.9 0-8.3-2-16.2-7.3-22.8-6.2-7.7-12.9-11.4-25.8-11.4-12.7 0-20.1 6.4-25.4 14.8-5.3 8.4-4.4 18.3-4.4 27.3H175c0-34 8.9-55.7 27.7-68.5 12.7-8.7 28.9-12.5 47.8-12.5 24.8 0 44.5 4.6 61.9 17.8 16.1 12.2 24.6 29.4 24.6 52.6 0 14.3-5 26.3-12.1 36z"/></symbol><symbol viewBox="0 0 512 512" id="home" xmlns="http://www.w3.org/2000/svg"><path d="M448 288L256 64 64 288h48v160h96V320h96v128h96V288z"/></symbol><symbol viewBox="0 0 512 512" id="ios-book" xmlns="http://www.w3.org/2000/svg"><path d="M164.466 64C109.266 64 64 89.98 64 143v283h22.141c12.86-26.334 44.238-42 78.325-42 40.224 0 73.877 27.528 81.616 64H248V95.346C230.76 73.951 198.981 64 164.466 64zM347.621 64c-34.332 0-66.713 9.851-83.621 31.011V448h1.797c7.739-36.472 41.495-64 81.722-64 34.085 0 61.149 11.666 78.429 42H448V143c0-53.02-45.177-79-100.379-79z"/></symbol><symbol viewBox="0 0 512 512" id="ios-camera" xmlns="http://www.w3.org/2000/svg"><path d="M417.5 160h-61.7c-32.1-36-42.2-48-54.5-48h-88.5c-12.3 0-22.2 12-54.5 48H145v-16h-34v16H97.5C79.9 160 64 173.2 64 190.7v176c0 17.5 15.9 33.3 33.5 33.3h320c17.6 0 30.5-15.8 30.5-33.3v-176c0-17.5-12.9-30.7-30.5-30.7zM256 360.5c-47.1 0-85.5-38.4-85.5-85.5s38.4-85.5 85.5-85.5 85.5 38.4 85.5 85.5-38.4 85.5-85.5 85.5zM369 209h-17v-17h17v17z"/><path d="M256 205.5c-38.4 0-69.5 31.1-69.5 69.5s31.1 69.5 69.5 69.5 69.5-31.1 69.5-69.5-31.1-69.5-69.5-69.5zm0 101.5c-17.7 0-32-14.3-32-32s14.3-32 32-32 32 14.3 32 32-14.3 32-32 32z"/></symbol><symbol viewBox="0 0 512 512" id="ios-email-outline" xmlns="http://www.w3.org/2000/svg"><path d="M64 128v256h384V128H64zm192 139.9L93.2 144h325.6L256 267.9zM80 368V154.1l115.1 87.6L127 319l2 2 78.9-69.6L256 288l48.1-36.6L383 321l2-2-68.1-77.4L432 154.1V368H80z"/></symbol><symbol viewBox="0 0 512 512" id="ios-game-controller-a" xmlns="http://www.w3.org/2000/svg"><path d="M369.269 146h-226.53C81.541 146 32 191.458 32 255.418 32 319.419 81.541 366 142.739 366h226.529C430.49 366 480 319.419 480 255.418 480 191.458 430.49 146 369.269 146zM200 266.697c0 2.698-2.421 5.303-5.238 5.303H160v35.139c0 2.83-3.104 4.861-5.803 4.861H132.77c-2.628 0-4.771-1.918-4.771-4.533V272H92.861c-2.83 0-4.861-3.104-4.861-5.803V244.77c0-2.628 1.918-4.771 4.533-4.771H128v-34.822c0-2.806 1.854-5.178 4.553-5.178h22.145c2.698 0 5.303 2.421 5.303 5.238V240h34.822c2.806 0 5.178 1.854 5.178 4.553v22.144zm119.766 8.789c-10.736 0-19.451-8.587-19.451-19.153 0-10.565 8.715-19.168 19.451-19.168 10.783 0 19.498 8.603 19.498 19.168 0 10.566-8.715 19.153-19.498 19.153zm42.548 41.815c-10.736 0-19.451-8.529-19.451-19.084 0-10.639 8.715-19.153 19.451-19.153 10.783 0 19.498 8.515 19.498 19.153 0 10.554-8.714 19.084-19.498 19.084zm0-83.686c-10.736 0-19.451-8.579-19.451-19.146s8.715-19.169 19.451-19.169c10.783 0 19.498 8.602 19.498 19.169s-8.714 19.146-19.498 19.146zm42.548 41.871c-10.729 0-19.442-8.587-19.442-19.153 0-10.565 8.714-19.168 19.442-19.168 10.737 0 19.452 8.603 19.452 19.168 0 10.566-8.714 19.153-19.452 19.153z"/></symbol><symbol viewBox="0 0 512 512" id="ios-list-outline" xmlns="http://www.w3.org/2000/svg"><path d="M432 80v352H80V80h352m16-16H64v384h384V64z"/><path d="M192 152h192v16H192zM192 248h192v16H192zM192 344h192v16H192z"/><circle cx="144" cy="160" r="16"/><circle cx="144" cy="256" r="16"/><circle cx="144" cy="352" r="16"/></symbol><symbol viewBox="0 0 512 512" id="ios-plus-empty" xmlns="http://www.w3.org/2000/svg"><path d="M384 265H264v119h-17V265H128v-17h119V128h17v120h120v17z"/></symbol><symbol viewBox="0 0 512 512" id="ios-pricetag" xmlns="http://www.w3.org/2000/svg"><circle cx="368" cy="128" r="16"/><path d="M304 32L48 320l160 160 256-288V32H304zm64 128c-17.645 0-32-14.355-32-32s14.355-32 32-32 32 14.355 32 32-14.355 32-32 32z"/></symbol><symbol viewBox="0 0 512 512" id="ios-pricetags" xmlns="http://www.w3.org/2000/svg"><path d="M464 64v137.377L227.153 467.48 240 480l240-272V64z"/><path d="M288 32L32 320l160 160 23.471-23.904 11.348-11.375L448 192V32H288zm64 128c-17.645 0-32-14.355-32-32s14.355-32 32-32 32 14.355 32 32-14.355 32-32 32z"/><circle cx="352" cy="128" r="16"/></symbol><symbol viewBox="0 0 512 512" id="ios-star" xmlns="http://www.w3.org/2000/svg"><path d="M480 207H308.6L256 47.9 203.4 207H32l140.2 97.9L117.6 464 256 365.4 394.4 464l-54.7-159.1L480 207z"/></symbol><symbol viewBox="0 0 512 512" id="ios-star-half" xmlns="http://www.w3.org/2000/svg"><path d="M172.248 304.931l-54.677 159.073L256 365.37l138.445 98.634-54.685-159.067L480 207H308.613L256 48.005 203.402 207H32l140.248 97.931zM256 100.75L297 224h131l-108 74.711 42.623 122.481L256 345.257V100.75z"/></symbol><symbol viewBox="0 0 512 512" id="ios-star-outline" xmlns="http://www.w3.org/2000/svg"><path d="M480 207H308.6L256 47.9 203.4 207H32l140.2 97.9L117.6 464 256 365.4 394.4 464l-54.7-159.1L480 207zM362.6 421.2l-106.6-76-106.6 76L192 298.7 84 224h131l41-123.3L297 224h131l-108 74.6 42.6 122.6z"/></symbol><symbol id="ios-sunny" viewBox="0 0 512 512" xmlns="http://www.w3.org/2000/svg"><style>.st0{fill:#010101}</style><path class="st0" d="M247 96h18v56h-18zM247 356h18v60h-18zM360 247h56v18h-56zM96 247h60v18H96z"/><path transform="rotate(134.999 347.405 341.317)" class="st0" d="M339 317.4h16.8v47.8H339z"/><path transform="rotate(134.999 170.67 164.582)" class="st0" d="M162.2 140.7H179v47.9h-16.8z"/><path transform="rotate(45.001 347.406 164.562)" class="st0" d="M339 140.7h16.8v47.8H339z"/><path transform="rotate(45.009 170.67 341.27)" class="st0" d="M162.2 317.4H179v47.9h-16.8z"/><path class="st0" d="M256 331.8c-41.8 0-75.8-34-75.8-75.8s34-75.8 75.8-75.8 75.8 34 75.8 75.8-34 75.8-75.8 75.8z"/></symbol><symbol id="ios-sunny-outline" viewBox="0 0 512 512" xmlns="http://www.w3.org/2000/svg"><style>.st0{fill:#010101}</style><path class="st0" d="M247 96h18v56h-18zM247 356h18v60h-18zM360 247h56v18h-56zM96 247h60v18H96z"/><path transform="rotate(134.999 347.405 341.317)" class="st0" d="M339 317.4h16.8v47.8H339z"/><path transform="rotate(134.999 170.67 164.582)" class="st0" d="M162.2 140.7H179v47.9h-16.8z"/><path transform="rotate(45.001 347.406 164.562)" class="st0" d="M339 140.7h16.8v47.8H339z"/><path transform="rotate(45.009 170.67 341.27)" class="st0" d="M162.2 317.4H179v47.9h-16.8z"/><path class="st0" d="M256 331.8c-41.8 0-75.8-34-75.8-75.8s34-75.8 75.8-75.8 75.8 34 75.8 75.8-34 75.8-75.8 75.8zm0-134.7c-32.5 0-58.9 26.4-58.9 58.9s26.4 58.9 58.9 58.9 58.9-26.4 58.9-58.9-26.4-58.9-58.9-58.9z"/></symbol><symbol viewBox="0 0 512 512" id="ios-telephone" xmlns="http://www.w3.org/2000/svg"><path d="M415.9 335.5c-14.6-15-56.1-43.1-83.3-43.1-6.3 0-11.8 1.4-16.3 4.3-13.3 8.5-23.9 15.1-29 15.1-2.8 0-5.8-2.5-12.4-8.2l-1.1-1c-18.3-15.9-22.2-20-29.3-27.4l-1.8-1.9c-1.3-1.3-2.4-2.5-3.5-3.6-6.2-6.4-10.7-11-26.6-29l-.7-.8c-7.6-8.6-12.6-14.2-12.9-18.3-.3-4 3.2-10.5 12.1-22.6 10.8-14.6 11.2-32.6 1.3-53.5-7.9-16.5-20.8-32.3-32.2-46.2l-1-1.2c-9.8-12-21.2-18-33.9-18-14.1 0-25.8 7.6-32 11.6-.5.3-1 .7-1.5 1-13.9 8.8-24 20.9-27.8 33.2-5.7 18.5-9.5 42.5 17.8 92.4 23.6 43.2 45 72.2 79 107.1 32 32.8 46.2 43.4 78 66.4 35.4 25.6 69.4 40.3 93.2 40.3 22.1 0 39.5 0 64.3-29.9 26-31.4 15.2-50.6-.4-66.7z"/></symbol><symbol viewBox="0 0 512 512" id="iphone" xmlns="http://www.w3.org/2000/svg"><path d="M328.2 64H183.8C170.7 64 160 74.7 160 87.9v336.3c0 13.1 10.7 23.8 23.8 23.8h144.3c13.1 0 23.8-10.7 23.8-23.8V87.9C352 74.7 341.3 64 328.2 64zM240 99.9c0-2.1 1.7-3.9 3.9-3.9h24.3c2.1 0 3.9 1.7 3.9 3.9v.3c0 2.1-1.7 3.9-3.9 3.9h-24.3c-2.1 0-3.9-1.7-3.9-3.9v-.3zM228 96c2.2 0 4 1.8 4 4s-1.8 4-4 4-4-1.8-4-4 1.8-4 4-4zm28 336.1c-8.9 0-16.1-7.2-16.1-16.1 0-8.9 7.2-16.1 16.1-16.1 8.9 0 16.1 7.2 16.1 16.1 0 8.9-7.3 16.1-16.1 16.1zm80-48.1H176V128h160v256z"/></symbol><symbol viewBox="0 0 512 512" id="location" xmlns="http://www.w3.org/2000/svg"><path d="M256 64c-65.9 0-119.3 53.7-119.3 120 0 114.6 119.3 264 119.3 264s119.3-149.4 119.3-264c0-66.3-53.4-120-119.3-120zm0 178.2c-31.2 0-56.4-25.4-56.4-56.7 0-31.3 25.3-56.8 56.4-56.8 31.2 0 56.4 25.4 56.4 56.8 0 31.3-25.2 56.7-56.4 56.7z"/></symbol><symbol viewBox="0 0 512 512" id="locked" xmlns="http://www.w3.org/2000/svg"><path d="M86.4 480h339.2c12.3 0 22.4-9.9 22.4-22.1V246c0-12.2-10-22-22.4-22H404v-30.9c0-41.5-16.2-87.6-42.6-115.4-26.3-27.8-64-45.7-105.3-45.7h-.1-.1c-41.3 0-79 17.9-105.3 45.6C124.2 105.4 108 151.5 108 193v31H86.4C74 224 64 233.9 64 246v211.9c0 12.2 10 22.1 22.4 22.1zM161 193.1c0-27.3 9.9-61.1 28.1-80.3v-.3C206.7 93.9 231 83 255.9 83h.2c24.9 0 49.2 10.9 66.8 29.5v.2l-.1.1c18.3 19.2 28.1 53 28.1 80.3V224H161v-30.9z"/></symbol><symbol viewBox="0 0 512 512" id="loop" xmlns="http://www.w3.org/2000/svg"><path d="M273.4 300.5l-.3 58c48.9-8.2 86.3-51 86.3-102.5 0-15.9-3.6-31-10-44.5-2.8-5.8-6-11.3-9.8-16.5l47.1-43.5c1.1 1.3 2.1 2.7 3.1 4 20.9 28 33.2 62.8 33.2 100.5v3.7c-1.5 71.5-47.6 132-111.4 154.6-12.3 4.3-25.2 7.3-38.5 8.7l-.1 57-76.2-67-26.2-23 44.4-38.7 58.4-50.8zM89 252.3c1.6-72.1 48.3-133 112.9-155.2 11.7-4 24-6.8 36.8-8.1l.1-57 76.1 66.9 26.2 23.1-44.3 38.6-58.4 50.9.2-57.9c-48.8 8.3-86 51.1-86 102.4 0 16 3.6 31.1 10.1 44.7 2.7 5.8 6 11.2 9.7 16.3l-47 43.6c-1.3-1.6-2.6-3.3-3.8-5C101.1 327.7 89 293.3 89 256v-3.7z"/></symbol><symbol viewBox="0 0 512 512" id="medkit" xmlns="http://www.w3.org/2000/svg"><path d="M472.2 144H352v-30.7C351 85.1 330.3 64 300.8 64h-89.6c-29.4 0-50.2 21.1-51.2 49.3V144H39.8c-4.4 0-7.8 3.6-7.8 8v288c0 4.4 3.3 8 7.8 8h432.5c4.4 0 7.8-3.6 7.8-8V152c-.1-4.4-3.4-8-7.9-8zM192 117.2v-1-1c0-9.7 8.6-19.3 18.8-19.3h90.4c10.1 0 18.8 9.5 18.8 19.3V144H192v-26.8zM352 320h-64v64h-64v-64h-64v-64h64v-64h64v64h64v64z"/></symbol><symbol viewBox="0 0 512 512" id="minus" xmlns="http://www.w3.org/2000/svg"><path d="M64 224h384v64H64z"/></symbol><symbol viewBox="0 0 512 512" id="monitor" xmlns="http://www.w3.org/2000/svg"><path d="M468.7 64H43.3c-6 0-11.3 5-11.3 11.1v265.7c0 6.2 5.2 11.1 11.3 11.1h425.4c6 0 11.3-5 11.3-11.1V75.1c0-6.1-5.2-11.1-11.3-11.1zM448 320H64V96h384v224zM302.5 448c28-.5 41.5-3.9 29-12.5-12.5-8.7-28.5-15.3-29-22.5-.3-3.7-1.7-45-1.7-45h-89.6s-1.5 41.3-1.7 45c-.5 7.1-16.5 13.8-29 22.5s1 12 29 12.5h93z"/></symbol><symbol viewBox="0 0 512 512" id="more" xmlns="http://www.w3.org/2000/svg"><path d="M113.7 304C86.2 304 64 282.6 64 256c0-26.5 22.2-48 49.7-48 27.6 0 49.8 21.5 49.8 48 0 26.6-22.2 48-49.8 48zM256 304c-27.5 0-49.8-21.4-49.8-48 0-26.5 22.3-48 49.8-48 27.5 0 49.7 21.5 49.7 48 0 26.6-22.2 48-49.7 48zM398.2 304c-27.5 0-49.8-21.4-49.8-48 0-26.5 22.2-48 49.8-48 27.5 0 49.8 21.5 49.8 48 0 26.6-22.2 48-49.8 48z"/></symbol><symbol viewBox="0 0 512 512" id="navicon" xmlns="http://www.w3.org/2000/svg"><path d="M96 241h320v32H96zM96 145h320v32H96zM96 337h320v32H96z"/></symbol><symbol viewBox="0 0 512 512" id="navicon-round" xmlns="http://www.w3.org/2000/svg"><path d="M417.4 224H94.6C77.7 224 64 238.3 64 256s13.7 32 30.6 32h322.8c16.9 0 30.6-14.3 30.6-32s-13.7-32-30.6-32zM417.4 96H94.6C77.7 96 64 110.3 64 128s13.7 32 30.6 32h322.8c16.9 0 30.6-14.3 30.6-32s-13.7-32-30.6-32zM417.4 352H94.6C77.7 352 64 366.3 64 384s13.7 32 30.6 32h322.8c16.9 0 30.6-14.3 30.6-32s-13.7-32-30.6-32z"/></symbol><symbol viewBox="0 0 512 512" id="niche-cart" xmlns="http://www.w3.org/2000/svg"><path d="M137.681 354.158c19.375 0 35.075 15.676 35.075 35.027 0 19.377-15.7 35.076-35.075 35.076-19.377 0-35.075-15.699-35.075-35.076 0-19.351 15.698-35.027 35.075-35.027zM314.997 354.158c19.375 0 35.05 15.676 35.05 35.027 0 19.377-15.675 35.076-35.05 35.076-19.351 0-35.075-15.699-35.075-35.076 0-19.351 15.724-35.027 35.075-35.027zM159.318 126.988h24.27v25.437h-24.27zM108.444 126.988h24.268v25.437h-24.268zM210.192 126.988h24.27v25.437h-24.27zM261.068 126.988h24.268v25.437h-24.268zM311.942 126.988h24.27v25.437h-24.27zM261.068 178.931h24.268v25.437h-24.268zM311.942 178.931h24.27v25.437h-24.27zM210.192 178.931h24.27v25.437h-24.27zM159.318 178.931h24.27v25.437h-24.27zM108.444 178.931h24.268v25.437h-24.268zM159.318 229.805h24.27v25.438h-24.27zM210.192 229.805h24.27v25.438h-24.27zM261.068 229.805h24.268v25.438h-24.268z"/><path d="M102.606 316.699c-20.769 0-25.661-16.295-26.606-19.152L27.909 150.041c-.623-1.938.421-4.149 2.309-4.844l28.543-10.185c.223-.024.446-.049.647-.049 2.284 0 3.551 1.019 3.998 2.434l40.416 124.008c2.906 8.99 12.322 16.047 21.414 16.047h195.326c9.29 0 18.482-7.354 20.94-16.744L391.11 68.413c.72-2.795 4.025-5.428 6.78-5.428h77.331c1.988 0 3.652 1.752 3.652 3.812v31.598c0 2.087-1.664 3.826-3.652 3.826h-37.436c-9.314 0-18.507 7.353-20.915 16.768l-47.472 183.948c-.696 2.732-4.57 13.762-23.649 13.762H102.606z"/></symbol><symbol viewBox="0 0 512 512" id="paintbrush" xmlns="http://www.w3.org/2000/svg"><path d="M149.515 283.349c-51.921 0-83.939 45.661-83.939 95.085 0 22.691-10.071 39.153-33.575 48.104 17.907 34.678 87.777 41.157 117.515 35.797 35.642-6.426 80.077-24.873 90.654-76.969 12.31-60.627-38.736-102.017-90.655-102.017z"/><path d="M467.638 60.356c-12.955-12.948-29.964-17.292-44.92-5.35L247.598 209.1c-8.648-2.371-16.525-1.869-22.909 2.346L165.896 260.4c-1.611 1.611-1.545 4.304.066 5.914.499.501 1.064.79 1.697.98.642.034 1.264.059 1.899.103.019-.002.036-.01.054-.014 47.938 3.432 91.034 36.754 89.3 89.506-.016.505-.029 1.007-.054 1.516.123.848.5 1.664 1.149 2.315a4.124 4.124 0 0 0 5.781.044c.018-.018.037-.027.055-.044.063-.063.106-.137.164-.2l50.457-57.342c4.216-6.374 4.72-14.24 2.355-22.875l154.169-175.047c11.951-14.948 7.604-31.948-5.35-44.9z"/><path d="M165.887 260.409l.009-.009-.008.007z"/></symbol><symbol id="paper-airplane" viewBox="0 0 512 512" xmlns="http://www.w3.org/2000/svg"><style>.st0{fill:#010101}</style><path class="st0" d="M32 272l128 48 16 160 80-112 112 112L480 32 32 272zm318.7 145.4L256 320l128-176-192 153.8-82.6-31 322-172.5-80.7 323.1z"/></symbol><symbol viewBox="0 0 512 512" id="person" xmlns="http://www.w3.org/2000/svg"><path d="M448 448s0-26.4-2.2-40.2c-1.8-10.9-16.9-25.3-81.1-48.9-63.2-23.2-59.3-11.9-59.3-54.6 0-27.7 14.1-11.6 23.1-64.2 3.5-20.7 6.3-6.9 13.9-40.1 4-17.4-2.7-18.7-1.9-27 .8-8.3 1.6-15.7 3.1-32.7 1.8-21-17.7-76.3-87.6-76.3-69.9 0-89.4 55.3-87.5 76.4 1.5 16.9 2.3 24.4 3.1 32.7.8 8.3-5.9 9.6-1.9 27 7.6 33.1 10.4 19.3 13.9 40.1 9 52.6 23.1 36.5 23.1 64.2 0 42.8 3.9 31.5-59.3 54.6-64.2 23.5-79.4 38-81.1 48.9C64 421.6 64 448 64 448h384z"/></symbol><symbol viewBox="0 0 512 512" id="person-add" xmlns="http://www.w3.org/2000/svg"><path d="M429 328v-51h51v-42h-51v-51h-42v51h-51v42h51v51z"/><path d="M416 448s0-26.4-2.2-40.2c-1.8-10.9-16.9-25.3-81.1-48.9-63.2-23.2-59.3-11.9-59.3-54.6 0-27.7 14.1-11.6 23.1-64.2 3.5-20.7 6.3-6.9 13.9-40.1 4-17.4-2.7-18.7-1.9-27 .8-8.3 1.6-15.7 3.1-32.7 1.8-21-17.7-76.3-87.6-76.3-69.9 0-89.4 55.3-87.5 76.4 1.5 16.9 2.3 24.4 3.1 32.7.8 8.3-5.9 9.6-1.9 27 7.6 33.1 10.4 19.3 13.9 40.1 9 52.6 23.1 36.5 23.1 64.2 0 42.8 3.9 31.5-59.3 54.6-64.2 23.5-79.4 38-81.1 48.9C32 421.6 32 448 32 448h384z"/></symbol><symbol viewBox="0 0 512 512" id="person-stalker" xmlns="http://www.w3.org/2000/svg"><path d="M425.3 324.8c-41.4-15.7-38.9-9.4-38.9-38.5 0-18.8 9.3-11.9 15.2-47.7 2.3-14.1 4.2-4.7 9.1-27.3 2.6-11.8-1.8-12.7-1.2-18.3.5-5.6 1-10.7 2-22.2 1.2-14.4-11.6-52-57.4-52s-58.6 37.6-57.4 52c.9 11.6 1.5 16.6 2 22.2.5 5.6-3.8 6.5-1.2 18.3 4.9 22.6 6.8 13.1 9.1 27.3 5.9 35.8 15.1 29 15.1 47.7 0 13.4 3.1 19-14.9 27.5 5.4 1.9 11.7 4.2 19.3 7.1 54.4 20.7 53.1 40.8 54.5 50.3 1 6.5 1.5 58.3 1.7 76.8H480s0-80.5-1.5-89.9c-1.1-7.4-11-17.2-53.2-33.3z"/><path d="M357 448s0-14.1-.2-30.4c-.2-18.6-.7-40-1.7-46.4-1.5-9.5-14.3-22.2-68.6-42.9-7.5-2.8-13.8-5.1-19.3-7.1-33.3-11.8-30.9-15.7-30.9-48 0-24.3 12-8.5 19.6-54.6 3-18.2 5.4-6.1 11.7-35.2 3.4-15.2-2.3-16.4-1.6-23.7.7-7.3 1.4-13.8 2.6-28.7 1.6-18.5-14.9-67.1-74.1-67.1-59.2 0-75.6 48.5-74.1 67.1 1.2 14.9 1.9 21.4 2.7 28.7.7 7.3-5 8.4-1.6 23.7 6.4 29.1 8.8 17 11.8 35.2 7.6 46.1 19.5 30.3 19.5 54.6 0 37.6 3.3 34.8-50.2 55.1C48.3 349 35.5 361.7 34 371.2c-2 12.1-2 76.8-2 76.8h325z"/></symbol><symbol viewBox="0 0 512 512" id="play" xmlns="http://www.w3.org/2000/svg"><path d="M405.2 232.9L126.8 67.2c-3.4-2-6.9-3.2-10.9-3.2-10.9 0-19.8 9-19.8 20H96v344h.1c0 11 8.9 20 19.8 20 4.1 0 7.5-1.4 11.2-3.4l278.1-165.5c6.6-5.5 10.8-13.8 10.8-23.1s-4.2-17.5-10.8-23.1z"/></symbol><symbol viewBox="0 0 512 512" id="plus" xmlns="http://www.w3.org/2000/svg"><path d="M448 224H288V64h-64v160H64v64h160v160h64V288h160z"/></symbol><symbol viewBox="0 0 512 512" id="pricetag" xmlns="http://www.w3.org/2000/svg"><path d="M471 261.4L260.9 49.8l-1.5-1.5h-.4c-8.3-7.9-17.9-12-29.9-12.3l-99.7-3.7-4.4-.2c-11.2.2-22.2 4.5-30.7 13.1L45.1 94.3c-9 9-13.1 20.9-13.1 32.7v.1l.3 4.2 6.7 97.3v2.1c1 8.7 4.5 17.3 10.4 24.4l5.5 5.4 206.3 208.8 3.1 3.1c11.9 10.5 30 10 41.3-1.4L471 304.4c11.8-11.8 12-31.1 0-43zM144 192c-26.5 0-48-21.5-48-48s21.5-48 48-48 48 21.5 48 48-21.5 48-48 48z"/></symbol><symbol viewBox="0 0 512 512" id="pricetags" xmlns="http://www.w3.org/2000/svg"><path d="M472 239.2s-.1 0 0 0L282.1 48.1l-1.4-1.4h-.5c-7.5-7.2-16.1-10.9-27.1-11.1l-89.9-3.3-3.9-.1c-10.1.1-20 4.1-27.7 11.8l-27.1 27.2c7.4-6.6 16.6-10 26-10.1l3.8.1 89.8 3.3c11 .2 19.7 3.9 27.2 11.1h.5l1.4 1.4L443 268.1c10 10.8 10.7 28.2 0 38.9l29-28.9c10.6-10.7 10-28.1 0-38.9z"/><path d="M428 282.5h.3L238.6 91.4l-1.3-1.4h-.3c-7.5-7.2-15.9-10.9-26.9-11.1L120 75.6l-4-.1c-9.2.1-18.2 3.4-25.6 9.8-.3.3-.7.6-1 .9l-1.2 1.2-44.3 44.5C35.8 140 32 150.8 32 161.4v.1l.1 3.8 5.9 87.9v1.9c1 7.9 4.2 15.6 9.6 22l5.1 4.9L239 470.4l2.8 2.8c10.7 9.4 27.1 9 37.3-1.3l13.1-13.2c.5-.4.9-.8 1.4-1.3l26.9-27c-.2.1-.3.2-.5.4l108.3-109.3c10.6-10.7 10.7-28.2-.3-39zm-317.4-143c6.6-4 14.3-6.3 22.6-6.3 23.9 0 43.4 19.4 43.4 43.4 0 8.3-2.3 16-6.3 22.6-7.6 12.5-21.3 20.8-37 20.8-23.9 0-43.4-19.4-43.4-43.4-.1-15.8 8.2-29.5 20.7-37.1z"/></symbol><symbol viewBox="0 0 512 512" id="printer" xmlns="http://www.w3.org/2000/svg"><path d="M423.8 128H384V64H128v64H88.2C60.3 128 32 144.9 32 182.6v123.8c0 38 28.3 61.6 56.2 61.6H128v112h256V368h39.8c27.9 0 56.2-22.6 56.2-53.6V182.6c0-35.7-28.2-54.6-56.2-54.6zM368 464H144V288h224v176zm0-336H144V80h224v48zm48 64h-17v-16h17v16z"/><path d="M160 320h192v16H160zM160 368h192v16H160zM160 416h192v16H160z"/></symbol><symbol viewBox="0 0 512 512" id="pull-request" xmlns="http://www.w3.org/2000/svg"><path d="M128 64c-35.29 0-64 28.71-64 64 0 23.637 12.89 44.307 32 55.391V360.61C76.89 371.693 64 392.363 64 416c0 35.29 28.71 64 64 64s64-28.71 64-64c0-23.637-12.89-44.307-32-55.391V183.391c19.11-11.084 32-31.754 32-55.391 0-35.29-28.71-64-64-64zm0 384c-17.673 0-32-14.327-32-32s14.327-32 32-32 32 14.327 32 32-14.327 32-32 32zm0-288c-17.673 0-32-14.327-32-32s14.327-32 32-32 32 14.327 32 32-14.327 32-32 32zM415 360.034V204.989c0-33.987-10.49-61.002-31.18-80.294-22.111-20.618-54.314-30.388-95.82-29.106V32l-96 96 96 96v-64c26.5 0 42.67 2.642 52.175 11.504 7.183 6.698 10.825 17.964 10.825 33.485v156.196c-18.562 11.217-31 31.589-31 54.814 0 35.29 28.71 64 64 64s64-28.71 64-64c0-24.048-13.338-45.03-33-55.965zM384 448c-17.673 0-32-14.327-32-32s14.327-32 32-32 32 14.327 32 32-14.327 32-32 32z"/></symbol><symbol viewBox="0 0 512 512" id="quote" xmlns="http://www.w3.org/2000/svg"><path d="M192 64c-40.646 0-72.483 11.229-94.627 33.373C75.229 119.517 64 151.354 64 192v256h160V192h-96c0-23.056 4.922-39.666 14.627-49.373C152.334 132.922 168.944 128 192 128M416 64c-40.646 0-72.483 11.229-94.627 33.373C299.229 119.517 288 151.354 288 192v256h160V192h-96c0-23.056 4.922-39.666 14.627-49.373C376.334 132.922 392.944 128 416 128"/></symbol><symbol fill-rule="evenodd" clip-rule="evenodd" stroke-linejoin="round" stroke-miterlimit="1.414" viewBox="0 0 512 512" id="rotate-clockwise" xmlns="http://www.w3.org/2000/svg"><path d="M54.849 158.249h264.957v261.108H54.849V158.249zM268.46 84.295v-44.1c117.142 0 172.267 66.494 172.267 158.485h43.756l-66.495 87.857-67.184-87.857h46.857c0-76.142-46.857-114.385-129.201-114.385z"/></symbol><symbol viewBox="0 0 512 512" id="search" xmlns="http://www.w3.org/2000/svg"><path d="M445 386.7l-84.8-85.9c13.8-24.1 21-50.9 21-77.9C381.2 135.3 310 64 222.6 64 135.2 64 64 135.3 64 222.9c0 87.6 71.2 158.9 158.6 158.9 27.9 0 55.5-7.7 80.1-22.4l84.4 85.6c1.9 1.9 4.6 3.1 7.3 3.1s5.4-1.1 7.3-3.1l43.3-43.8c4-4.1 4-10.5 0-14.5zM222.6 125.9c53.4 0 96.8 43.5 96.8 97s-43.4 97-96.8 97-96.8-43.5-96.8-97 43.4-97 96.8-97z"/></symbol><symbol viewBox="0 0 416 516" id="shippingbox" xmlns="http://www.w3.org/2000/svg"><title>shippingBox</title><path d="M74.81 256.483L3.17 220.234c-5.622-2.843-3.243-11.353 3.038-10.87l64.865 4.99-27.92-58.333a5.754 5.754 0 0 1 3.045-7.823l128.88-51.782a5.754 5.754 0 0 1 7.328 2.839l28.166 58.38 45.482-44.46a5.754 5.754 0 0 1 5.87-1.334l128.88 43.727c3.869 1.313 5.176 6.125 2.503 9.214l-50.38 58.216v30.652H331.42v-23.28l-116.798 61.28v112.933l116.798-62.327v-21.29h11.507v24.741a5.754 5.754 0 0 1-3.044 5.076l-128.275 68.452a5.697 5.697 0 0 1-5.448.016L77.855 350.783a5.75 5.75 0 0 1-3.045-5.076v-89.224zm19.273-35.033l114.786 60.224 114.785-60.224-114.785-47.87-114.786 47.87zm106.964-57.076l-26.668-55.275-118.197 47.49 27.211 56.851 117.654-49.066zm134.5 49.568l43.463-50.224-117.438-39.845-42.464 41.51 116.439 48.559zm-301.302 9.12l117.31 59.356h33.963L78.94 226.5l-44.695-3.438zm319.614 6.422c0-2.583 3.142-3.857 4.942-2.003l56.387 58.112a2.877 2.877 0 0 1 0 4.006l-56.385 58.112c-1.8 1.854-4.942.58-4.942-2.004l-.002-30.494H318.76a2.877 2.877 0 0 1-2.876-2.877l.002-24.74V262.28a2.877 2.877 0 0 1 2.876-2.877h35.096l.001-29.919z" fill="#000" fill-rule="nonzero"/></symbol><symbol viewBox="0 0 512 512" id="social-android" xmlns="http://www.w3.org/2000/svg"><path d="M144 268.4V358c0 6.9 4.5 14 11.4 14H184v52c0 13.3 10.7 24 24 24s24-10.7 24-24v-52h49v52c0 7.5 3.4 14.2 8.8 18.6 3.9 3.4 9.1 5.4 14.7 5.4h.5c13.3 0 24-10.7 24-24v-52h27.6c7 0 11.4-7.1 11.4-13.9V192H144v76.4zM408 176c-13.3 0-24 10.7-24 24v96c0 13.3 10.7 24 24 24s24-10.7 24-24v-96c0-13.3-10.7-24-24-24zM104 176c-13.3 0-24 10.7-24 24v96c0 13.3 10.7 24 24 24s24-10.7 24-24v-96c0-13.3-10.7-24-24-24z"/><g><path d="M311.2 89.1l18.5-21.9c.4-.5-.2-1.6-1.3-2.5-1.1-.8-2.4-1-2.7-.4l-19.2 22.8c-13.6-5.4-30.2-8.8-50.6-8.8-20.5-.1-37.2 3.2-50.8 8.5l-19-22.4c-.4-.5-1.6-.4-2.7.4s-1.7 1.8-1.3 2.5l18.3 21.6c-48.2 20.9-55.4 72.2-56.4 87.2h223.6c-.9-15.1-8-65.7-56.4-87zm-104.4 49.8c-7.4 0-13.5-6-13.5-13.3 0-7.3 6-13.3 13.5-13.3 7.4 0 13.5 6 13.5 13.3 0 7.3-6 13.3-13.5 13.3zm98.4 0c-7.4 0-13.5-6-13.5-13.3 0-7.3 6-13.3 13.5-13.3 7.4 0 13.5 6 13.5 13.3 0 7.3-6.1 13.3-13.5 13.3z"/></g></symbol><symbol viewBox="0 0 512 512" id="social-apple" xmlns="http://www.w3.org/2000/svg"><path d="M333.6 153.9c-33.6 0-47.8 16.5-71.2 16.5-24 0-42.3-16.4-71.4-16.4-28.5 0-58.9 17.9-78.2 48.4-27.1 43-22.5 124 21.4 193 15.7 24.7 36.7 52.4 64.2 52.7h.5c23.9 0 31-16.1 63.9-16.3h.5c32.4 0 38.9 16.2 62.7 16.2h.5c27.5-.3 49.6-31 65.3-55.6 11.3-17.7 15.5-26.6 24.2-46.6-63.5-24.8-73.7-117.4-10.9-152.9-19.2-24.7-46.1-39-71.5-39z"/><path d="M326.2 64c-20 1.4-43.3 14.5-57 31.6-12.4 15.5-22.6 38.5-18.6 60.8h1.6c21.3 0 43.1-13.2 55.8-30.1 12.3-16.1 21.6-38.9 18.2-62.3z"/></symbol><symbol viewBox="0 0 512 512" id="social-facebook" xmlns="http://www.w3.org/2000/svg"><path d="M288 192v-38.1c0-17.2 3.8-25.9 30.5-25.9H352V64h-55.9c-68.5 0-91.1 31.4-91.1 85.3V192h-45v64h45v192h83V256h56.4l7.6-64h-64z"/></symbol><symbol viewBox="0 0 512 512" id="social-googleplus" xmlns="http://www.w3.org/2000/svg"><path d="M242.1 275.6l-18.2-13.7-.1-.1c-5.8-4.6-10-8.3-10-14.7 0-7 5-11.8 10.9-17.4l.5-.4c20-15.2 44.7-34.3 44.7-74.6 0-26.9-11.9-44.7-23.3-57.7h13L320 64H186.5c-25.3 0-62.7 3.2-94.6 28.6l-.1.3C70 110.9 57 137.4 57 163.5c0 21.2 8.7 42.2 23.9 57.4 21.4 21.6 48.3 26.1 67.1 26.1 1.5 0 3 0 4.5-.1-.8 3-1.2 6.3-1.2 10.3 0 10.9 3.6 19.3 8.1 26.2-24 1.9-58.1 6.5-84.9 22.3-39.4 22.7-42.5 56-42.5 65.6 0 38.2 35.7 76.8 115.5 76.8 91.6 0 139.5-49.8 139.5-99 0-37.1-22.8-55.6-44.9-73.5zM116.7 139.9c0-13.4 3-23.5 9.3-30.9 6.5-7.9 18.2-13.1 29-13.1 19.9 0 32.9 15 40.4 27.6 9.2 15.5 14.9 36.1 14.9 53.6 0 4.9 0 20-10.2 29.8-7 6.7-18.7 11.4-28.6 11.4-20.5 0-33.5-14.7-40.7-27-10.4-17.8-14.1-38.2-14.1-51.4zM237.8 368c0 27.4-25.2 44.5-65.8 44.5-48.1 0-80.3-20.6-80.3-51.3 0-26.1 21.5-36.8 37.8-42.5 18.9-6.1 44.3-7.3 50.1-7.3 3.9 0 6.1 0 8.7.2 36.6 25.2 49.5 36.1 49.5 56.4z"/><path d="M402 142V64h-34v78h-80v34h80v81h34v-81h78v-34z"/></symbol><symbol viewBox="0 0 512 512" id="social-instagram-outline" xmlns="http://www.w3.org/2000/svg"><path d="M448.5 112c0-26.2-21.3-47.5-47.5-47.5H112c-26.2 0-47.5 21.3-47.5 47.5v289c0 26.2 21.3 47.5 47.5 47.5h289c26.2 0 47.5-21.3 47.5-47.5V112zM257 175.8c44.2 0 80 35.8 80 80s-35.8 80-80 80-80-35.8-80-80 35.8-80 80-80zm159.5-15.3c0 8.8-7.2 16-16 16h-48c-8.8 0-16-7.2-16-16v-48c0-8.8 7.2-16 16-16h48c8.8 0 16 7.2 16 16v48zm-15 256h-288c-8.8 0-17-8.2-17-17v-175h53.1c-3 10-4.6 20.6-4.6 31.6 0 29.9 11.7 57.9 32.8 79.1s49.3 32.7 79.2 32.7 58-11.7 79.2-32.8 32.8-49 32.8-79c0-10.9-1.6-21.6-4.6-31.6h52.1v175c0 8.8-6.2 17-15 17z"/></symbol><symbol id="social-linkedin-outline" viewBox="0 0 512 512" xmlns="http://www.w3.org/2000/svg"><style>.st0{fill-rule:evenodd;clip-rule:evenodd}</style><path class="st0" d="M182.8 384V212.9h-54.9V384h54.9zm-25.4-197c18.3 0 29.7-13.1 29.7-29.5-.3-16.7-11.4-29.5-29.4-29.5S128 140.8 128 157.5c0 16.4 11.4 29.5 29 29.5h.4zM320.6 209c-29.1 0-41.6 16.4-49.6 27.8V213h-55v171h55v-97.4c0-5 .4-10 1.9-13.5 4-10 13-20.3 28.2-20.3 19.9 0 27.9 15.3 27.9 37.7V384h55v-99.9c0-51.3-27.2-75.1-63.4-75.1z"/><path d="M417.2 64H96.8C79.3 64 64 76.6 64 93.9V415c0 17.4 15.3 32.9 32.8 32.9h320.3c17.6 0 30.8-15.6 30.8-32.9V93.9C448 76.6 434.7 64 417.2 64zM414 416H99.1c-1.8 0-3.1-1.4-3.1-3.1V98c0-1.1 1-2 2-2h316c1 0 2 1 2 2v316c0 .9-.9 2-2 2z"/></symbol><symbol viewBox="0 0 512 512" id="social-pinterest" xmlns="http://www.w3.org/2000/svg"><path d="M256 32C132.3 32 32 132.3 32 256c0 91.7 55.2 170.5 134.1 205.2-.6-15.6-.1-34.4 3.9-51.4 4.3-18.2 28.8-122.1 28.8-122.1s-7.2-14.3-7.2-35.4c0-33.2 19.2-58 43.2-58 20.4 0 30.2 15.3 30.2 33.6 0 20.5-13.1 51.1-19.8 79.5-5.6 23.8 11.9 43.1 35.4 43.1 42.4 0 71-54.5 71-119.1 0-49.1-33.1-85.8-93.2-85.8-67.9 0-110.3 50.7-110.3 107.3 0 19.5 5.8 33.3 14.8 43.9 4.1 4.9 4.7 6.9 3.2 12.5-1.1 4.1-3.5 14-4.6 18-1.5 5.7-6.1 7.7-11.2 5.6-31.3-12.8-45.9-47-45.9-85.6 0-63.6 53.7-139.9 160.1-139.9 85.5 0 141.8 61.9 141.8 128.3 0 87.9-48.9 153.5-120.9 153.5-24.2 0-46.9-13.1-54.7-27.9 0 0-13 51.6-15.8 61.6-4.7 17.3-14 34.5-22.5 48 20.1 5.9 41.4 9.2 63.5 9.2 123.7 0 224-100.3 224-224C480 132.3 379.7 32 256 32z"/></symbol><symbol viewBox="0 0 512 512" id="social-tumblr" xmlns="http://www.w3.org/2000/svg"><path d="M321.2 396.3c-11.8 0-22.4-2.8-31.5-8.3-6.9-4.1-11.5-9.6-14-16.4-2.6-6.9-3.6-22.3-3.6-46.4V224h96v-64h-96V48h-61.9c-2.7 21.5-7.5 44.7-14.5 58.6-7 13.9-14 25.8-25.6 35.7-11.6 9.9-25.6 17.9-41.9 23.3V224h48v140.4c0 19 2 33.5 5.9 43.5 4 10 11.1 19.5 21.4 28.4 10.3 8.9 22.8 15.7 37.3 20.5 14.6 4.8 31.4 7.2 50.4 7.2 16.7 0 30.3-1.7 44.7-5.1 14.4-3.4 30.5-9.3 48.2-17.6v-65.6c-20.9 13.7-41.8 20.6-62.9 20.6z"/></symbol><symbol viewBox="0 0 512 512" id="social-twitter" xmlns="http://www.w3.org/2000/svg"><path d="M492 109.5c-17.4 7.7-36 12.9-55.6 15.3 20-12 35.4-31 42.6-53.6-18.7 11.1-39.4 19.2-61.5 23.5C399.8 75.8 374.6 64 346.8 64c-53.5 0-96.8 43.4-96.8 96.9 0 7.6.8 15 2.5 22.1-80.5-4-151.9-42.6-199.6-101.3-8.3 14.3-13.1 31-13.1 48.7 0 33.6 17.2 63.3 43.2 80.7-16-.4-31-4.8-44-12.1v1.2c0 47 33.4 86.1 77.7 95-8.1 2.2-16.7 3.4-25.5 3.4-6.2 0-12.3-.6-18.2-1.8 12.3 38.5 48.1 66.5 90.5 67.3-33.1 26-74.9 41.5-120.3 41.5-7.8 0-15.5-.5-23.1-1.4C62.8 432 113.7 448 168.3 448 346.6 448 444 300.3 444 172.2c0-4.2-.1-8.4-.3-12.5C462.6 146 479 129 492 109.5z"/></symbol><symbol viewBox="0 0 512 512" id="social-usd" xmlns="http://www.w3.org/2000/svg"><path d="M411.387 303.256c-3.119-9.577-7.891-18.561-14.301-26.952-6.422-8.382-14.396-15.826-23.93-22.331-9.539-6.498-20.721-11.63-33.553-15.4-5.143-1.363-14.189-3.506-26.104-6.418-8.516-2.074-16.5-4.2-25.5-6.367V120.065c9 2.396 15.252 6.202 21.926 10.43C324.204 139.535 333.157 155 335.78 176h69.174c-.654-18-4.65-32.76-11.996-46.02-8.07-14.543-18.977-27.024-32.73-36.956-13.75-9.922-30.225-17.49-48.377-22.455C303.967 68.416 297 66.605 288 65.386V32h-64v33.167c-7 1.044-15.148 2.445-22.426 4.25-17.242 4.283-32.388 10.868-45.951 19.764-13.571 8.905-24.352 20.112-32.604 33.627-8.251 13.523-12.312 29.52-12.312 48 0 9.585 1.407 18.993 4.157 28.235 2.752 9.241 7.442 17.967 14.042 26.181 6.603 8.214 15.495 15.658 26.687 22.332 11.183 6.672 24.705 12.064 41.576 16.171 9.287 2.345 18.83 4.534 26.83 6.576v119.586c-11-2.919-21.889-7.399-30.678-13.479-9.17-6.327-16.066-13.953-21.198-23.884-4.779-9.229-7.073-20.526-7.407-32.526H96c.695 21 5.25 39.494 13.672 55.371 8.799 16.604 20.533 29.96 35.204 40.562 14.662 10.613 31.393 18.356 51.198 23.491 8.885 2.304 18.926 3.96 27.926 5.23V480h64v-34.54c10-1.069 18.957-2.69 28.527-4.879 18.701-4.273 35.645-11.036 50.316-20.276 14.662-9.24 26.621-21.128 35.611-35.681 8.98-14.541 13.545-32.085 13.545-52.619.001-9.578-1.501-19.164-4.612-28.749zM224 209.699c-12-3.743-23.912-9.088-32.051-16.048-8.621-7.355-12.673-17.534-12.673-30.545 0-9.241 2.414-16.94 7.004-23.102 4.58-6.161 9.912-11.038 16.88-14.631 6.18-3.189 13.84-5.565 20.84-7.138v91.464zm118.902 149.772c-2.939 6.673-7.699 12.576-14.303 17.711-6.602 5.133-15.744 9.328-26.377 12.577-4.5 1.378-8.223 2.444-14.223 3.236v-107.11c10 2.624 18.18 5.332 26.326 8.131 8.062 2.744 15.748 7.443 22.537 14.116 6.785 6.676 10.309 17.03 10.309 31.06.001 6.85-1.337 13.605-4.269 20.279z"/></symbol><symbol viewBox="0 0 512 512" id="social-youtube" xmlns="http://www.w3.org/2000/svg"><path d="M508.6 148.8c0-45-33.1-81.2-74-81.2C379.2 65 322.7 64 265 64h-18c-57.6 0-114.2 1-169.6 3.6C36.6 67.6 3.5 104 3.5 149 1 184.6-.1 220.2 0 255.8c-.1 35.6 1 71.2 3.4 106.9 0 45 33.1 81.5 73.9 81.5 58.2 2.7 117.9 3.9 178.6 3.8 60.8.2 120.3-1 178.6-3.8 40.9 0 74-36.5 74-81.5 2.4-35.7 3.5-71.3 3.4-107 .2-35.6-.9-71.2-3.3-106.9zM207 353.9V157.4l145 98.2-145 98.3z"/></symbol><symbol viewBox="0 0 512 512" id="social-youtube-outline" xmlns="http://www.w3.org/2000/svg"><path d="M265 96c65.3 0 118.7 1.1 168.1 3.3h1.4c23.1 0 42 22 42 49.1v1.1l.1 1.1c2.3 34 3.4 69.3 3.4 104.9.1 35.6-1.1 70.9-3.4 104.9l-.1 1.1v1.1c0 13.8-4.7 26.6-13.4 36.1-7.8 8.6-18 13.4-28.6 13.4h-1.6c-52.9 2.5-108.8 3.8-166.4 3.8h-10.6.1-10.9c-57.8 0-113.7-1.3-166.2-3.7h-1.6c-10.6 0-20.7-4.8-28.5-13.4-8.6-9.5-13.4-22.3-13.4-36.1v-1.1l-.1-1.1c-2.4-34.1-3.5-69.4-3.3-104.7v-.2c-.1-35.3 1-70.5 3.3-104.6l.1-1.1v-1.1c0-27.2 18.8-49.3 41.9-49.3h1.4c49.5-2.3 102.9-3.3 168.2-3.3H265m0-32.2h-18c-57.6 0-114.2.8-169.6 3.3-40.8 0-73.9 36.3-73.9 81.3C1 184.4-.1 220 0 255.7c-.1 35.7.9 71.3 3.4 107 0 45 33.1 81.6 73.9 81.6 54.8 2.6 110.7 3.8 167.8 3.8h21.6c57.1 0 113-1.2 167.9-3.8 40.9 0 74-36.6 74-81.6 2.4-35.7 3.5-71.4 3.4-107.1.1-35.7-1-71.3-3.4-107.1 0-45-33.1-81.1-74-81.1C379.2 64.8 322.7 64 265 64z"/><path d="M207 353.8V157.4l145 98.2-145 98.2z"/></symbol><symbol viewBox="0 0 512 512" id="star" xmlns="http://www.w3.org/2000/svg"><path d="M480 200H308.519l-52.49-168-52.51 168H32l138.946 104.209L116 480l140-112 140 112-54.927-175.805z"/></symbol><symbol viewBox="0 0 512 512" id="thumbsdown" xmlns="http://www.w3.org/2000/svg"><path d="M87.8 252.7C74 257.2 64 270.2 64 285.5c0 19 15.4 34.5 34.5 34.5h102.6c-2 25-10 53.6-1.1 87.3 7.5 28.4 39.4 49.7 52.4 36.8 5-4.9 3.5-15.2 3.5-33.8 0-42.8 17.8-86.1 39.8-108.7 9.4-9.7 25.2-13 40.2-13.6v16h112V64H336v32c-20.6.5-52.6-5.2-75.8-6.6-52-3.1-102 2.4-126.3 8.1-24.3 5.7-35 13-35 30.6 0 6.4 1.9 12.3 5.1 17.3-11.8 4.7-20.1 16.2-20.1 29.7 0 7.2 2.4 13.8 6.4 19.2-11.9 4.6-20.4 16.2-20.4 29.8.1 12.5 7.4 23.4 17.9 28.6zM400 96.3c8.8 0 16 7.1 16 16 0 8.8-7.2 16-16 16s-16-7.1-16-16c0-8.8 7.2-16 16-16z"/></symbol><symbol viewBox="0 0 512 512" id="thumbsup" xmlns="http://www.w3.org/2000/svg"><path d="M424.2 259.3c13.8-4.5 23.8-17.5 23.8-32.8 0-19-15.4-34.5-34.5-34.5H310.9c2-25 10-53.6 1.1-87.3-7.5-28.4-39.4-49.7-52.4-36.8-5 4.9-3.5 15.2-3.5 33.8 0 42.8-17.8 86.1-39.8 108.7-9.4 9.7-25.2 13-40.2 13.6v-16H64v240h112v-32c20.6-.5 52.6 5.2 75.8 6.6 52 3.1 102-2.4 126.3-8.1 24.3-5.7 35-13 35-30.6 0-6.4-1.9-12.3-5.1-17.3 11.8-4.7 20.1-16.2 20.1-29.7 0-7.2-2.4-13.8-6.4-19.2 11.9-4.6 20.4-16.2 20.4-29.8-.1-12.5-7.4-23.4-17.9-28.6zM112 415.7c-8.8 0-16-7.1-16-16 0-8.8 7.2-16 16-16s16 7.1 16 16c0 8.8-7.2 16-16 16z"/></symbol><symbol viewBox="0 0 512 512" id="trash-a" xmlns="http://www.w3.org/2000/svg"><path d="M341 128V99c0-19.1-14.5-35-34.5-35H205.4C185.5 64 171 79.9 171 99v29H80v32h9.2s5.4.6 8.2 3.4c2.8 2.8 3.9 9 3.9 9l19 241.7c1.5 29.4 1.5 33.9 36 33.9h199.4c34.5 0 34.5-4.4 36-33.8l19-241.6s1.1-6.3 3.9-9.1 8.2-3.4 8.2-3.4h9.2v-32h-91v-.1zM192 99c0-9.6 7.8-15 17.7-15h91.7c9.9 0 18.6 5.5 18.6 15v29H192V99zm-8.5 285l-10.3-192h20.3L204 384h-20.5zm83.6 0h-22V192h22v192zm61.6 0h-20.4l10.5-192h20.3l-10.4 192z"/></symbol><symbol viewBox="0 0 512 512" id="trash-b" xmlns="http://www.w3.org/2000/svg"><path d="M413.7 133.4c-2.4-9-4-14-4-14-2.6-9.3-9.2-9.3-19-10.9l-53.1-6.7c-6.6-1.1-6.6-1.1-9.2-6.8-8.7-19.6-11.4-31-20.9-31h-103c-9.5 0-12.1 11.4-20.8 31.1-2.6 5.6-2.6 5.6-9.2 6.8l-53.2 6.7c-9.7 1.6-16.7 2.5-19.3 11.8 0 0-1.2 4.1-3.7 13-3.2 11.9-4.5 10.6 6.5 10.6h302.4c11 .1 9.8 1.3 6.5-10.6zM379.4 176H132.6c-16.6 0-17.4 2.2-16.4 14.7l18.7 242.6c1.6 12.3 2.8 14.8 17.5 14.8h207.2c14.7 0 15.9-2.5 17.5-14.8l18.7-242.6c1-12.6.2-14.7-16.4-14.7z"/></symbol><symbol viewBox="0 0 512 512" id="university" xmlns="http://www.w3.org/2000/svg"><path d="M256 64L32 176.295l32 21.072V400l32 16V217.849L255.852 320l132.144-85.451L480 174.727z"/><path d="M390.13 256L256 343.768 120.531 256 112 337.529C128 349.984 224 416 256.002 448 288 416 384 350.031 400 337.561L390.13 256z"/></symbol><symbol viewBox="0 0 512 512" id="unlocked" xmlns="http://www.w3.org/2000/svg"><path d="M86.4 480h339.2c12.3 0 22.4-9.9 22.4-22.1V246c0-12.2-10-22-22.4-22H161v-30.9c0-27.3 9.9-61.1 28.1-80.3v-.3C206.7 93.9 231 83 255.9 83h.2c24.9 0 49.2 10.9 66.8 29.5V112.8c11.3 11.9 19.4 29.3 24 47.3h53.4c-5.9-31.3-19.7-61.8-39.2-82.4-26.2-27.8-63.7-45.7-105-45.7h-.1-.1c-41.3 0-79 17.9-105.3 45.6C124.2 105.4 108 151.5 108 193v31H86.4C74 224 64 233.9 64 246v211.9c0 12.2 10 22.1 22.4 22.1z"/></symbol><symbol viewBox="0 0 416 516" id="us-flag" xmlns="http://www.w3.org/2000/svg"><title>Combined Shape</title><path d="M83 147h333v17H166v17h250v17H166v17h250v17H166v17h250v17H0V147h83zM0 283h416v17H0v-17zm0 34h416v17H0v-17zm0 34h416v17H0v-17zm13.706-189l3.527 1.854-.673-3.927 2.853-2.781-3.943-.573L13.706 153l-1.763 3.573-3.943.573 2.853 2.781-.673 3.927L13.706 162zm14 11l3.527 1.854-.673-3.927 2.853-2.781-3.943-.573L27.706 164l-1.763 3.573-3.943.573 2.853 2.781-.673 3.927L27.706 173zm28 0l3.527 1.854-.673-3.927 2.853-2.781-3.943-.573L55.706 164l-1.763 3.573-3.943.573 2.853 2.781-.673 3.927L55.706 173zm28 0l3.527 1.854-.673-3.927 2.853-2.781-3.943-.573L83.706 164l-1.763 3.573-3.943.573 2.853 2.781-.673 3.927L83.706 173zm28 0l3.527 1.854-.673-3.927 2.853-2.781-3.943-.573-1.764-3.573-1.763 3.573-3.943.573 2.853 2.781-.673 3.927 3.526-1.854zm28 0l3.527 1.854-.673-3.927 2.853-2.781-3.943-.573-1.764-3.573-1.763 3.573-3.943.573 2.853 2.781-.673 3.927 3.526-1.854zm-112 24l3.527 1.854-.673-3.927 2.853-2.781-3.943-.573L27.706 188l-1.763 3.573-3.943.573 2.853 2.781-.673 3.927L27.706 197zm28 0l3.527 1.854-.673-3.927 2.853-2.781-3.943-.573L55.706 188l-1.763 3.573-3.943.573 2.853 2.781-.673 3.927L55.706 197zm28 0l3.527 1.854-.673-3.927 2.853-2.781-3.943-.573L83.706 188l-1.763 3.573-3.943.573 2.853 2.781-.673 3.927L83.706 197zm28 0l3.527 1.854-.673-3.927 2.853-2.781-3.943-.573-1.764-3.573-1.763 3.573-3.943.573 2.853 2.781-.673 3.927 3.526-1.854zm28 0l3.527 1.854-.673-3.927 2.853-2.781-3.943-.573-1.764-3.573-1.763 3.573-3.943.573 2.853 2.781-.673 3.927 3.526-1.854zm-112 24l3.527 1.854-.673-3.927 2.853-2.781-3.943-.573L27.706 212l-1.763 3.573-3.943.573 2.853 2.781-.673 3.927L27.706 221zm28 0l3.527 1.854-.673-3.927 2.853-2.781-3.943-.573L55.706 212l-1.763 3.573-3.943.573 2.853 2.781-.673 3.927L55.706 221zm28 0l3.527 1.854-.673-3.927 2.853-2.781-3.943-.573L83.706 212l-1.763 3.573-3.943.573 2.853 2.781-.673 3.927L83.706 221zm28 0l3.527 1.854-.673-3.927 2.853-2.781-3.943-.573-1.764-3.573-1.763 3.573-3.943.573 2.853 2.781-.673 3.927 3.526-1.854zm28 0l3.527 1.854-.673-3.927 2.853-2.781-3.943-.573-1.764-3.573-1.763 3.573-3.943.573 2.853 2.781-.673 3.927 3.526-1.854zm-112 24l3.527 1.854-.673-3.927 2.853-2.781-3.943-.573L27.706 236l-1.763 3.573-3.943.573 2.853 2.781-.673 3.927L27.706 245zm28 0l3.527 1.854-.673-3.927 2.853-2.781-3.943-.573L55.706 236l-1.763 3.573-3.943.573 2.853 2.781-.673 3.927L55.706 245zm28 0l3.527 1.854-.673-3.927 2.853-2.781-3.943-.573L83.706 236l-1.763 3.573-3.943.573 2.853 2.781-.673 3.927L83.706 245zm28 0l3.527 1.854-.673-3.927 2.853-2.781-3.943-.573-1.764-3.573-1.763 3.573-3.943.573 2.853 2.781-.673 3.927 3.526-1.854zm28 0l3.527 1.854-.673-3.927 2.853-2.781-3.943-.573-1.764-3.573-1.763 3.573-3.943.573 2.853 2.781-.673 3.927 3.526-1.854zm-126-60l3.527 1.854-.673-3.927 2.853-2.781-3.943-.573L13.706 176l-1.763 3.573-3.943.573 2.853 2.781-.673 3.927L13.706 185zm28 0l3.527 1.854-.673-3.927 2.853-2.781-3.943-.573L41.706 176l-1.763 3.573-3.943.573 2.853 2.781-.673 3.927L41.706 185zm28 0l3.527 1.854-.673-3.927 2.853-2.781-3.943-.573L69.706 176l-1.763 3.573-3.943.573 2.853 2.781-.673 3.927L69.706 185zm28 0l3.527 1.854-.673-3.927 2.853-2.781-3.943-.573L97.706 176l-1.763 3.573-3.943.573 2.853 2.781-.673 3.927L97.706 185zm28 0l3.527 1.854-.673-3.927 2.853-2.781-3.943-.573-1.764-3.573-1.763 3.573-3.943.573 2.853 2.781-.673 3.927 3.526-1.854zm-112 25l3.527 1.854-.673-3.927 2.853-2.781-3.943-.573L13.706 201l-1.763 3.573-3.943.573 2.853 2.781-.673 3.927L13.706 210zm28 0l3.527 1.854-.673-3.927 2.853-2.781-3.943-.573L41.706 201l-1.763 3.573-3.943.573 2.853 2.781-.673 3.927L41.706 210zm28 0l3.527 1.854-.673-3.927 2.853-2.781-3.943-.573L69.706 201l-1.763 3.573-3.943.573 2.853 2.781-.673 3.927L69.706 210zm28 0l3.527 1.854-.673-3.927 2.853-2.781-3.943-.573L97.706 201l-1.763 3.573-3.943.573 2.853 2.781-.673 3.927L97.706 210zm28 0l3.527 1.854-.673-3.927 2.853-2.781-3.943-.573-1.764-3.573-1.763 3.573-3.943.573 2.853 2.781-.673 3.927 3.526-1.854zm-112 23l3.527 1.854-.673-3.927 2.853-2.781-3.943-.573L13.706 224l-1.763 3.573-3.943.573 2.853 2.781-.673 3.927L13.706 233zm28 0l3.527 1.854-.673-3.927 2.853-2.781-3.943-.573L41.706 224l-1.763 3.573-3.943.573 2.853 2.781-.673 3.927L41.706 233zm28 0l3.527 1.854-.673-3.927 2.853-2.781-3.943-.573L69.706 224l-1.763 3.573-3.943.573 2.853 2.781-.673 3.927L69.706 233zm28 0l3.527 1.854-.673-3.927 2.853-2.781-3.943-.573L97.706 224l-1.763 3.573-3.943.573 2.853 2.781-.673 3.927L97.706 233zm28 0l3.527 1.854-.673-3.927 2.853-2.781-3.943-.573-1.764-3.573-1.763 3.573-3.943.573 2.853 2.781-.673 3.927 3.526-1.854zm-112 23l3.527 1.854-.673-3.927 2.853-2.781-3.943-.573L13.706 247l-1.763 3.573-3.943.573 2.853 2.781-.673 3.927L13.706 256zm28 0l3.527 1.854-.673-3.927 2.853-2.781-3.943-.573L41.706 247l-1.763 3.573-3.943.573 2.853 2.781-.673 3.927L41.706 256zm28 0l3.527 1.854-.673-3.927 2.853-2.781-3.943-.573L69.706 247l-1.763 3.573-3.943.573 2.853 2.781-.673 3.927L69.706 256zm28 0l3.527 1.854-.673-3.927 2.853-2.781-3.943-.573L97.706 247l-1.763 3.573-3.943.573 2.853 2.781-.673 3.927L97.706 256zm28 0l3.527 1.854-.673-3.927 2.853-2.781-3.943-.573-1.764-3.573-1.763 3.573-3.943.573 2.853 2.781-.673 3.927 3.526-1.854zm28 0l3.527 1.854-.673-3.927 2.853-2.781-3.943-.573-1.764-3.573-1.763 3.573-3.943.573 2.853 2.781-.673 3.927 3.526-1.854zm0-23l3.527 1.854-.673-3.927 2.853-2.781-3.943-.573-1.764-3.573-1.763 3.573-3.943.573 2.853 2.781-.673 3.927 3.526-1.854zm0-23l3.527 1.854-.673-3.927 2.853-2.781-3.943-.573-1.764-3.573-1.763 3.573-3.943.573 2.853 2.781-.673 3.927 3.526-1.854zm0-25l3.527 1.854-.673-3.927 2.853-2.781-3.943-.573-1.764-3.573-1.763 3.573-3.943.573 2.853 2.781-.673 3.927 3.526-1.854zm0-23l3.527 1.854-.673-3.927 2.853-2.781-3.943-.573-1.764-3.573-1.763 3.573-3.943.573 2.853 2.781-.673 3.927 3.526-1.854zm-28 0l3.527 1.854-.673-3.927 2.853-2.781-3.943-.573-1.764-3.573-1.763 3.573-3.943.573 2.853 2.781-.673 3.927 3.526-1.854zm-28 0l3.527 1.854-.673-3.927 2.853-2.781-3.943-.573L97.706 153l-1.763 3.573-3.943.573 2.853 2.781-.673 3.927L97.706 162zm-28 0l3.527 1.854-.673-3.927 2.853-2.781-3.943-.573L69.706 153l-1.763 3.573-3.943.573 2.853 2.781-.673 3.927L69.706 162zm-28 0l3.527 1.854-.673-3.927 2.853-2.781-3.943-.573L41.706 153l-1.763 3.573-3.943.573 2.853 2.781-.673 3.927L41.706 162z" fill="#000" fill-rule="evenodd"/></symbol><symbol viewBox="0 0 512 512" id="wand" xmlns="http://www.w3.org/2000/svg"><path d="M272 191.997l48 48-48 47.999-48-48zM208.007 256l48.001 48L80.01 480l-48-48.001zM256 32h32v64h-32zM385.131 149.497l-22.627-22.627 45.254-45.254 22.627 22.628zM113.606 104.234l22.627-22.627 45.255 45.254-22.628 22.627zM362.505 353.126l22.627-22.627 45.255 45.254-22.628 22.627zM416 224h64v32h-64z"/></symbol></svg>