<?xml version="1.0" encoding="utf-8"?>
<!-- Generator: Adobe Illustrator 16.2.1, SVG Export Plug-In . SVG Version: 6.00 Build 0)  -->
<!DOCTYPE svg PUBLIC "-//W3C//DTD SVG 1.1//EN" "http://www.w3.org/Graphics/SVG/1.1/DTD/svg11.dtd">
<svg version="1.1" id="Layer_1" xmlns="http://www.w3.org/2000/svg" xmlns:xlink="http://www.w3.org/1999/xlink" x="0px" y="0px"
	 width="512px" height="512px" viewBox="0 0 512 512" style="enable-background:new 0 0 512 512;" xml:space="preserve">
<style type="text/css">
<![CDATA[
	.st0{fill:#010101;}
]]>
</style>
<g>
	<path class="st0" d="M256,32C132.3,32,32,132.3,32,256s100.3,224,224,224s224-100.3,224-224S379.7,32,256,32z M64,256
		c0-46.2,16.2-89.8,45.9-124.6c0.8,9.2,2.7,19,2.2,26c-1.8,25.6-4.3,41.7,10.7,63.3c5.8,8.4,7.3,20.5,10.1,30.2
		c2.8,9.5,13.9,14.5,21.6,20.4c15.5,11.9,30.3,25.6,46.7,36.1c10.8,6.9,17.6,10.3,14.4,23.5c-2.5,10.6-3.3,17.2-8.8,26.6
		c-1.7,2.9,6.3,21.5,9,24.1c8.1,8.1,16.1,15.5,24.9,22.8c13.6,11.3-1.3,25.9-7.8,42.1c-42.5-5.1-81.8-24.1-112.6-54.8
		C84,355.5,64,307.3,64,256z M391.8,391.8c-27.6,27.6-62.1,45.8-99.7,52.9c5.3-13.2,14.8-24.8,23.6-31.6
		c7.6-5.9,17.2-17.2,21.2-26.2c4-9,9.3-16.8,14.6-25c7.6-11.7-18.8-29.4-27.3-33.1c-19.2-8.3-33.7-19.6-50.8-31.6
		c-12.2-8.6-36.9,4.5-50.6-1.5c-18.8-8.2-34.3-22.5-50.7-34.8c-16.9-12.7-16.1-27.5-16.1-46.3c13.2,0.5,32-3.7,40.8,7
		c2.8,3.4,12.3,18.4,18.7,13c5.2-4.4-3.9-21.8-5.6-25.9c-5.4-12.6,12.3-17.5,21.3-26.1c11.8-11.2,37.1-28.7,35.1-36.7
		s-25.3-30.7-39-27.1c-2.1,0.5-20.1,19.5-23.6,22.5c0.1-6.2,0.2-12.4,0.3-18.6c0.1-3.9-7.3-7.9-6.9-10.4c0.9-6.4,18.6-17.9,23-23
		c-3.1-1.9-13.6-11-16.8-9.7c-7.7,3.2-16.5,5.4-24.2,8.7c0-2.7-0.3-5.2-0.7-7.7c15.5-6.9,31.9-11.6,48.8-14.2l15.2,6.1L253,85
		l10.7,11l9.3,3l14.8-14L284,75v-9c40.7,5.9,78.2,24.6,107.8,54.2C428,156.5,448,204.7,448,256S428,355.5,391.8,391.8z"/>
	<path class="st0" d="M423.2,185.7c-10-14.4-18.4-34.9-30.9-46.7c-13.8-13-27.6-26.1-41.4-39.1c-2.2-1.3-5.1-1.9-7.5-2.8
		c7,15.1,14.4,30,21.8,45c8,15.9,25.6,33,28.7,49.9c3.7,19.8,1.1,37.8,3.1,61.2c1.9,22.5,13,38.9,25.3,48
		c6.7-21.3,4.7-43.6,4.7-65.4C427,223.3,430.2,195.8,423.2,185.7z"/>
</g>
</svg>
