<?xml version="1.0" encoding="utf-8"?>
<!-- Generator: Adobe Illustrator 16.2.1, SVG Export Plug-In . SVG Version: 6.00 Build 0)  -->
<!DOCTYPE svg PUBLIC "-//W3C//DTD SVG 1.1//EN" "http://www.w3.org/Graphics/SVG/1.1/DTD/svg11.dtd">
<svg version="1.1" id="Layer_1" xmlns="http://www.w3.org/2000/svg" xmlns:xlink="http://www.w3.org/1999/xlink" x="0px" y="0px"
	 width="512px" height="512px" viewBox="0 0 512 512" style="enable-background:new 0 0 512 512;" xml:space="preserve">
<style type="text/css">
<![CDATA[
	.st0{fill:#010101;}
]]>
</style>
<g>
	<path class="st0" d="M448,256c0-14.5-1.6-28.6-4.7-42.2l58.4-44.2l-48-83.1l-67.5,28.5c-20.7-19.1-45.6-33.7-73.1-42.3L304,0h-96
		l-9.1,72.6c-27.6,8.6-52.4,23.2-73.1,42.3L58.3,86.4l-48,83.1l58.4,44.2C65.6,227.4,64,241.5,64,256c0,14.5,1.6,28.6,4.7,42.2
		l-58.4,44.2l48,83.1l67.5-28.5c20.7,19.1,45.6,33.7,73.1,42.3L208,512h96l9.1-72.6c27.6-8.6,52.4-23.2,73.1-42.3l67.5,28.5l48-83.1
		l-58.4-44.2C446.4,284.6,448,270.5,448,256z M256,320c-35.4,0-64-28.7-64-64c0-35.3,28.7-64,64-64c35.4,0,64,28.7,64,64
		C320,291.3,291.4,320,256,320z"/>
</g>
</svg>
