<?xml version="1.0" encoding="utf-8"?>
<!-- Generator: Adobe Illustrator 16.2.1, SVG Export Plug-In . SVG Version: 6.00 Build 0)  -->
<!DOCTYPE svg PUBLIC "-//W3C//DTD SVG 1.1//EN" "http://www.w3.org/Graphics/SVG/1.1/DTD/svg11.dtd">
<svg version="1.1" id="Layer_1" xmlns="http://www.w3.org/2000/svg" xmlns:xlink="http://www.w3.org/1999/xlink" x="0px" y="0px"
	 width="512px" height="512px" viewBox="0 0 512 512" style="enable-background:new 0 0 512 512;" xml:space="preserve">
<style type="text/css">
<![CDATA[
	.st0{fill:#010101;}
]]>
</style>
<path class="st0" d="M510.2,442.2l-113-113c-4.3-4.3-15.3-0.8-27.9,8l-40-40c24.3-31.2,38.8-70.4,38.8-113.1C368,82.4,285.6,0,184,0
	S0,82.4,0,184.1s82.4,184.1,184,184.1c42.6,0,81.9-14.5,113.1-38.8l40.1,39.9c-8.7,12.6-12.2,23.6-7.9,27.9l113,113
	c6.2,6.2,26.5-3.9,45.3-22.6C506.3,468.8,516.4,448.5,510.2,442.2z M184,328.1c-38.5,0-74.6-15-101.8-42.2S40,222.6,40,184.1
	s15-74.7,42.2-101.9S145.5,40,184,40s74.6,15,101.8,42.2c27.2,27.2,42.2,63.4,42.2,101.9s-15,74.7-42.2,101.9
	C258.6,313.2,222.5,328.1,184,328.1z"/>
</svg>
