<?xml version="1.0" encoding="utf-8"?>
<!-- Generator: Adobe Illustrator 16.2.1, SVG Export Plug-In . SVG Version: 6.00 Build 0)  -->
<!DOCTYPE svg PUBLIC "-//W3C//DTD SVG 1.1//EN" "http://www.w3.org/Graphics/SVG/1.1/DTD/svg11.dtd">
<svg version="1.1" id="Layer_1" xmlns="http://www.w3.org/2000/svg" xmlns:xlink="http://www.w3.org/1999/xlink" x="0px" y="0px"
	 width="512px" height="512px" viewBox="0 0 512 512" enable-background="new 0 0 512 512" xml:space="preserve">
<g>
	<g id="Icon_7_">
		<g>
			<path fill="#010101" d="M234.667,297.605h42.666V169.122h-42.666V297.605z"/>
		</g>
	</g>
	<g>
		<path fill="#010101" d="M407.67,169.227l30.786-30.902l-33.942-34.07l-30.785,30.902C341.217,109.789,300.369,94.675,256,94.675
			c-106.039,0-192,86.285-192,192.725s85.961,192.726,192,192.726s192-86.286,192-192.726
			C448,242.864,432.943,201.861,407.67,169.227z M362.066,393.867c-28.332,28.438-66,44.1-106.066,44.1s-77.735-15.661-106.066-44.1
			C121.602,365.429,106,327.617,106,287.399c0-40.217,15.602-78.028,43.934-106.467c28.331-28.438,66-44.099,106.066-44.099
			s77.734,15.661,106.066,44.099C390.398,209.372,406,247.182,406,287.399C406,327.617,390.398,365.429,362.066,393.867z"/>
		<rect x="192.5" y="32.5" fill="#010101" width="128" height="48"/>
	</g>
</g>
</svg>
