<?xml version="1.0" encoding="utf-8"?>
<!-- Generator: Adobe Illustrator 16.2.1, SVG Export Plug-In . SVG Version: 6.00 Build 0)  -->
<!DOCTYPE svg PUBLIC "-//W3C//DTD SVG 1.1//EN" "http://www.w3.org/Graphics/SVG/1.1/DTD/svg11.dtd">
<svg version="1.1" id="Layer_1" xmlns="http://www.w3.org/2000/svg" xmlns:xlink="http://www.w3.org/1999/xlink" x="0px" y="0px"
	 width="512px" height="512px" viewBox="0 0 512 512" style="enable-background:new 0 0 512 512;" xml:space="preserve">
<style type="text/css">
<![CDATA[
	.st0{fill:#010101;}
]]>
</style>
<path class="st0" d="M256,0C158.8,0,80,78.8,80,176c0,61.8,23.8,116.1,72,147.5l0,156.5h32v32h144v-32h32l0-156.5
	c48.2-31.4,72-85.8,72-147.5C432,78.8,353.2,0,256,0z M328,448H184v-16h144V448z M328,400H184v-16h144V400z M342.5,296.7l-14.5,9.5
	v17.3V352H184v-28.5v-17.3l-14.5-9.5c-37.1-24.2-57.5-67-57.5-120.7c0-38.5,15-74.6,42.2-101.8C181.4,47,217.5,32,256,32
	s74.6,15,101.8,42.2S400,137.5,400,176C400,229.7,379.6,272.6,342.5,296.7z"/>
</svg>
