<?xml version="1.0" encoding="utf-8"?>
<!-- Generator: Adobe Illustrator 16.2.1, SVG Export Plug-In . SVG Version: 6.00 Build 0)  -->
<!DOCTYPE svg PUBLIC "-//W3C//DTD SVG 1.1//EN" "http://www.w3.org/Graphics/SVG/1.1/DTD/svg11.dtd">
<svg version="1.1" id="Layer_1" xmlns="http://www.w3.org/2000/svg" xmlns:xlink="http://www.w3.org/1999/xlink" x="0px" y="0px"
	 width="512px" height="512px" viewBox="0 0 512 512" style="enable-background:new 0 0 512 512;" xml:space="preserve">
<style type="text/css">
<![CDATA[
	.st0{fill:#010101;}
]]>
</style>
<g>
	<path class="st0" d="M140.1,441h-1c-27-2-41-6.8-42.9-40.7c-0.8-13.5,0-26.4,0.8-40.5c0.9-14.7,2.7-28.9,3.7-42.8
		c2.1-31.6-3-49.4-23.6-61c0,0,0,0,0,0c0,0,0,0,0,0c20.6-11.6,25.7-29.3,23.6-61c-0.9-13.9-2.8-28.1-3.7-42.8
		c-0.8-14.1-1.6-27.1-0.8-40.5C98.1,77.8,112.1,73,139.1,71h1c10.3,0,18.7-7.7,19.6-17.8c0.1-0.5,0.1-0.9,0.1-1.5c0-0.3,0-0.7-0.1-1
		c-0.5-10.4-9.1-18.6-19.6-18.6c-0.1,0-0.1,0-0.2,0c-0.1,0-0.2,0-0.3,0h-7.2c-45.8,0-79.9,20.3-79.9,77c0,15.2,1.4,30.8,2.9,46.1
		c1.5,15,2.9,31.1,2.9,45s-1.6,34.1-36.7,34.1C9.8,234.2,0,244,0,256c0,0,0,0,0,0s0,0,0,0c0,12,9.8,21.7,21.7,21.7
		c35.1,0,36.7,20.3,36.7,34.1s-1.4,29.9-2.9,45c-1.5,15.3-2.9,30.9-2.9,46.1c0,56.8,34.1,77,79.9,77h7.2c0.1,0,0.2,0,0.3,0
		c0.1,0,0.1,0,0.2,0c10.5,0,19.1-8.3,19.6-18.6c0-0.3,0.1-0.7,0.1-1c0-0.6,0-1-0.1-1.5C158.9,448.7,150.4,441,140.1,441z"/>
	<path class="st0" d="M371.7,441h1c27-2,41-6.8,42.9-40.7c0.8-13.5,0-26.4-0.8-40.5c-0.9-14.7-2.7-28.9-3.7-42.8
		c-2.1-31.6,3-49.4,23.6-61c0,0,0,0,0,0c0,0,0,0,0,0c-20.6-11.6-25.7-29.3-23.6-61c0.9-13.9,2.8-28.1,3.7-42.8
		c0.8-14.1,1.6-27.1,0.8-40.5C413.7,77.8,399.7,73,372.7,71h-1c-10.3,0-18.7-7.7-19.6-17.8c-0.1-0.5-0.1-0.9-0.1-1.5
		c0-0.3,0-0.7,0.1-1c0.5-10.4,9.1-18.6,19.6-18.6c0.1,0,0.1,0,0.2,0c0.1,0,0.2,0,0.3,0h7.2c45.8,0,79.9,20.3,79.9,77
		c0,15.2-1.4,30.8-2.9,46.1c-1.5,15-2.9,31.1-2.9,45s1.7,34.1,36.8,34.1c11.9,0,21.8,9.7,21.8,21.7c0,0,0,0,0,0s0,0,0,0
		c0,12-9.9,21.7-21.8,21.7c-35.1,0-36.7,20.3-36.7,34.1s1.4,29.9,2.8,45c1.5,15.3,2.9,30.9,2.9,46.1c0,56.8-34.1,77-79.9,77h-7.2
		c-0.1,0-0.2,0-0.3,0c-0.1,0-0.1,0-0.2,0c-10.5,0-19.1-8.3-19.6-18.6c0-0.3-0.1-0.7-0.1-1c0-0.6,0-1,0.1-1.5
		C352.9,448.7,361.4,441,371.7,441z"/>
</g>
</svg>
