<?xml version="1.0" encoding="utf-8"?>
<!-- Generator: Adobe Illustrator 16.2.1, SVG Export Plug-In . SVG Version: 6.00 Build 0)  -->
<!DOCTYPE svg PUBLIC "-//W3C//DTD SVG 1.1//EN" "http://www.w3.org/Graphics/SVG/1.1/DTD/svg11.dtd">
<svg version="1.1" id="Layer_1" xmlns="http://www.w3.org/2000/svg" xmlns:xlink="http://www.w3.org/1999/xlink" x="0px" y="0px"
	 width="512px" height="512px" viewBox="0 0 512 512" style="enable-background:new 0 0 512 512;" xml:space="preserve">
<style type="text/css">
<![CDATA[
	.st0{fill:#010101;}
]]>
</style>
<g>
	<g>
		<path class="st0" d="M97,199c3.2,53.9,14.2,232.7,15.7,266.2c1.1,25.3,65.5,45.8,146.3,45.8c80.8,0,145.5-20.5,146.3-45.8
			c1.4-41.6,9.3-212.2,11.7-266.2c-39.2,8.8-68,21-160,21S136.4,208.6,97,199z"/>
	</g>
	<path class="st0" d="M336,73.8V8.5c0-5.5-3-8.5-8.5-8.5h-140C182,0,176,3,176,8.5v65.4C97,84,80.5,86.2,80.5,127.8
		s68.7,57.8,176.2,57.8s175.6-15.2,175.6-58.5S417,84,336,73.8z M208,32h96v39.2c-14-0.8-30.8-1.2-48-1.2s-33,0.4-48,1.2V32z"/>
</g>
</svg>
