<?xml version="1.0" encoding="utf-8"?>
<!-- Generator: Adobe Illustrator 16.2.1, SVG Export Plug-In . SVG Version: 6.00 Build 0)  -->
<!DOCTYPE svg PUBLIC "-//W3C//DTD SVG 1.1//EN" "http://www.w3.org/Graphics/SVG/1.1/DTD/svg11.dtd">
<svg version="1.1" id="Layer_1" xmlns="http://www.w3.org/2000/svg" xmlns:xlink="http://www.w3.org/1999/xlink" x="0px" y="0px"
	 width="512px" height="512px" viewBox="0 0 512 512" style="enable-background:new 0 0 512 512;" xml:space="preserve">
<style type="text/css">
<![CDATA[
	.st0{fill:#010101;}
]]>
</style>
<g>
	<circle class="st0" cx="336" cy="168" r="80"/>
	<g>
		<circle class="st0" cx="133.8" cy="235.2" r="60.8"/>
		<path class="st0" d="M136,336.3c-55.7,0-100.7,19.2-130.7,49.6c-1.1,1.1-2.7,3-3.8,5.5c-0.9,1.8-1.5,4-1.5,6.4
			c0,4.9,0,50.2,0,50.2h128v-72.3c0.8-9.7,19.3-27.3,32.3-37.8c0,0,0,0,0,0c0,0,0,0-0.1,0C151.5,336.9,145.4,336.3,136,336.3z"/>
	</g>
	<path class="st0" d="M504.8,368c-38.7-39.3-97-64-168.8-64s-130.2,24.7-168.8,64c-2.5,2.5-7.2,8.1-7.2,15.3c0,6.3,0,64.8,0,64.8
		h352c0,0,0-58.5,0-64.8C512,376.1,507.3,370.5,504.8,368z"/>
</g>
</svg>
