<?xml version="1.0" encoding="utf-8"?>
<!-- Generator: Adobe Illustrator 16.2.1, SVG Export Plug-In . SVG Version: 6.00 Build 0)  -->
<!DOCTYPE svg PUBLIC "-//W3C//DTD SVG 1.1//EN" "http://www.w3.org/Graphics/SVG/1.1/DTD/svg11.dtd">
<svg version="1.1" id="Layer_1" xmlns="http://www.w3.org/2000/svg" xmlns:xlink="http://www.w3.org/1999/xlink" x="0px" y="0px"
	 width="512px" height="512px" viewBox="0 0 512 512" style="enable-background:new 0 0 512 512;" xml:space="preserve">
<style type="text/css">
<![CDATA[
	.st0{fill:#010101;}
]]>
</style>
<g>
	<g>
		<rect y="81" class="st0" width="304" height="32"/>
		<rect x="432" y="81" class="st0" width="80" height="32"/>
		<rect y="240" class="st0" width="80" height="32"/>
		<rect x="208" y="240" class="st0" width="304" height="32"/>
		<rect y="402" class="st0" width="304" height="32"/>
		<rect x="432" y="402" class="st0" width="80" height="32"/>
	</g>
	<path class="st0" d="M192,312.2c0,22-21.4,39.8-47.8,39.8h-0.4c-26.4,0-47.8-17.8-47.8-39.8V199.8c0-22,21.4-39.8,47.8-39.8h0.4
		c26.4,0,47.8,17.8,47.8,39.8V312.2z"/>
	<path class="st0" d="M416,152.2c0,22-21.4,39.8-47.8,39.8h-0.4c-26.4,0-47.8-17.8-47.8-39.8V39.8c0-22,21.4-39.8,47.8-39.8h0.4
		C394.6,0,416,17.8,416,39.8V152.2z"/>
	<path class="st0" d="M416,472.2c0,22-21.4,39.8-47.8,39.8h-0.4c-26.4,0-47.8-17.8-47.8-39.8V359.8c0-22,21.4-39.8,47.8-39.8h0.4
		c26.4,0,47.8,17.8,47.8,39.8V472.2z"/>
</g>
</svg>
