<?xml version="1.0" encoding="utf-8"?>
<!-- Generator: Adobe Illustrator 16.2.1, SVG Export Plug-In . SVG Version: 6.00 Build 0)  -->
<!DOCTYPE svg PUBLIC "-//W3C//DTD SVG 1.1//EN" "http://www.w3.org/Graphics/SVG/1.1/DTD/svg11.dtd">
<svg version="1.1" id="Layer_1" xmlns="http://www.w3.org/2000/svg" xmlns:xlink="http://www.w3.org/1999/xlink" x="0px" y="0px"
	 width="512px" height="512px" viewBox="0 0 512 512" style="enable-background:new 0 0 512 512;" xml:space="preserve">
<style type="text/css">
<![CDATA[
	.st0{fill:#010101;}
]]>
</style>
<path class="st0" d="M305.9,245.9C392.6,204.3,416,58.5,416,32H96c0,27.4,23.4,172.6,110.1,213.9C119.4,292.2,96,452.6,96,480h320
	C416,451.8,392.6,292,305.9,245.9z M157,143.5C144.2,115.7,136.4,85,132.2,64h247.5c0,0-1.2,6.9-2,10.1c-3.8,17.2-10.9,43.1-22.8,69
	c-11.7,25.4-25.6,45.2-41.1,59c-17.2,15.2-36.1,22-57.8,22c-21.7,0-40.7-6.8-57.9-21.9C182.6,188.4,168.8,168.8,157,143.5z
	 M380.2,448H131.8c4.2-25,12.1-57.7,25.8-90.6c12-28.9,26.1-51.7,41.9-67.3c17-16.8,35.5-25.1,56.5-25.1c21,0,39.5,8.1,56.6,24.9
	c15.8,15.6,29.9,38.3,41.9,67.2C368.1,390,376.1,423,380.2,448z"/>
</svg>
