<?xml version="1.0" encoding="utf-8"?>
<!-- Generator: Adobe Illustrator 16.2.1, SVG Export Plug-In . SVG Version: 6.00 Build 0)  -->
<!DOCTYPE svg PUBLIC "-//W3C//DTD SVG 1.1//EN" "http://www.w3.org/Graphics/SVG/1.1/DTD/svg11.dtd">
<svg version="1.1" id="Layer_1" xmlns="http://www.w3.org/2000/svg" xmlns:xlink="http://www.w3.org/1999/xlink" x="0px" y="0px"
	 width="512px" height="512px" viewBox="0 0 512 512" style="enable-background:new 0 0 512 512;" xml:space="preserve">
<style type="text/css">
<![CDATA[
	.st0{fill:#010101;}
]]>
</style>
<g>
	<path class="st0" d="M258.3,274.2c-22.2,12.6-47.8,19.8-75.1,19.8c-27.3,0-53-7.2-75.1-19.8C49.3,292.2,13.3,331.8,0,384h366.5
		C353.2,331.8,317.2,292.1,258.3,274.2z"/>
	<path class="st0" d="M183.2,264c72.9,0,132-59.1,132-132c0-72.9-59.1-132-132-132c-72.9,0-132,59.1-132,132
		C51.2,204.9,110.3,264,183.2,264z M275.5,168c-14.4,37-50.3,63-92.3,63s-77.9-26-92.3-63H275.5z"/>
	<polygon class="st0" points="512,400 432,400 432,320 400,320 400,400 320,400 320,432 400,432 400,512 432,512 432,432 512,432 	
		"/>
</g>
</svg>
