<?xml version="1.0" encoding="utf-8"?>
<!-- Generator: Adobe Illustrator 16.2.1, SVG Export Plug-In . SVG Version: 6.00 Build 0)  -->
<!DOCTYPE svg PUBLIC "-//W3C//DTD SVG 1.1//EN" "http://www.w3.org/Graphics/SVG/1.1/DTD/svg11.dtd">
<svg version="1.1" id="Layer_1" xmlns="http://www.w3.org/2000/svg" xmlns:xlink="http://www.w3.org/1999/xlink" x="0px" y="0px"
	 width="512px" height="512px" viewBox="0 0 512 512" style="enable-background:new 0 0 512 512;" xml:space="preserve">
<style type="text/css">
<![CDATA[
	.st0{fill:#010101;}
]]>
</style>
<g>
	<polygon class="st0" points="0,0 176,112 176,496 0,352 	"/>
	<polygon class="st0" points="512,0 336,112 336,496 512,352 	"/>
	<rect x="208" y="128" class="st0" width="96" height="384"/>
	<path class="st0" d="M426,6c-17,0-54.3-1.3-106,26s-64,44.3-64,44.3s-12.3-17-64-44.3S102.7,6,85.7,6s-38,2-38,2l160.2,96H256h47.8
		L464,8C464,8,443,6,426,6z"/>
</g>
</svg>
