<?xml version="1.0" encoding="utf-8"?>
<!-- Generator: Adobe Illustrator 16.2.1, SVG Export Plug-In . SVG Version: 6.00 Build 0)  -->
<!DOCTYPE svg PUBLIC "-//W3C//DTD SVG 1.1//EN" "http://www.w3.org/Graphics/SVG/1.1/DTD/svg11.dtd">
<svg version="1.1" id="Layer_1" xmlns="http://www.w3.org/2000/svg" xmlns:xlink="http://www.w3.org/1999/xlink" x="0px" y="0px"
	 width="512px" height="512px" viewBox="0 0 512 512" style="enable-background:new 0 0 512 512;" xml:space="preserve">
<style type="text/css">
<![CDATA[
	.st0{fill:#010101;}
]]>
</style>
<g>
	<path class="st0" d="M160,86c0,5.5-4.5,10-10,10H74c-5.5,0-10-4.5-10-10V10c0-5.5,4.5-10,10-10h76c5.5,0,10,4.5,10,10V86z"/>
	<path class="st0" d="M307,86c0,5.5-4.5,10-10,10h-76c-5.5,0-10-4.5-10-10V10c0-5.5,4.5-10,10-10h76c5.5,0,10,4.5,10,10V86z"/>
	<path class="st0" d="M448,86c0,5.5-4.5,10-10,10h-76c-5.5,0-10-4.5-10-10V10c0-5.5,4.5-10,10-10h76c5.5,0,10,4.5,10,10V86z"/>
	<path class="st0" d="M160,214c0,5.5-4.5,10-10,10H74c-5.5,0-10-4.5-10-10v-76c0-5.5,4.5-10,10-10h76c5.5,0,10,4.5,10,10V214z"/>
	<path class="st0" d="M307,214c0,5.5-4.5,10-10,10h-76c-5.5,0-10-4.5-10-10v-76c0-5.5,4.5-10,10-10h76c5.5,0,10,4.5,10,10V214z"/>
	<path class="st0" d="M448,214c0,5.5-4.5,10-10,10h-76c-5.5,0-10-4.5-10-10v-76c0-5.5,4.5-10,10-10h76c5.5,0,10,4.5,10,10V214z"/>
	<path class="st0" d="M160,342c0,5.5-4.5,10-10,10H74c-5.5,0-10-4.5-10-10v-76c0-5.5,4.5-10,10-10h76c5.5,0,10,4.5,10,10V342z"/>
	<path class="st0" d="M307,342c0,5.5-4.5,10-10,10h-76c-5.5,0-10-4.5-10-10v-76c0-5.5,4.5-10,10-10h76c5.5,0,10,4.5,10,10V342z"/>
	<path class="st0" d="M307,470c0,5.5-4.5,10-10,10h-76c-5.5,0-10-4.5-10-10v-76c0-5.5,4.5-10,10-10h76c5.5,0,10,4.5,10,10V470z"/>
	<path class="st0" d="M448,342c0,5.5-4.5,10-10,10h-76c-5.5,0-10-4.5-10-10v-76c0-5.5,4.5-10,10-10h76c5.5,0,10,4.5,10,10V342z"/>
</g>
</svg>
