<?xml version="1.0" encoding="utf-8"?>
<!-- Generator: Adobe Illustrator 16.2.1, SVG Export Plug-In . SVG Version: 6.00 Build 0)  -->
<!DOCTYPE svg PUBLIC "-//W3C//DTD SVG 1.1//EN" "http://www.w3.org/Graphics/SVG/1.1/DTD/svg11.dtd">
<svg version="1.1" id="Layer_1" xmlns="http://www.w3.org/2000/svg" xmlns:xlink="http://www.w3.org/1999/xlink" x="0px" y="0px"
	 width="512px" height="512px" viewBox="0 0 512 512" style="enable-background:new 0 0 512 512;" xml:space="preserve">
<style type="text/css">
<![CDATA[
	.st0{fill:#010101;}
]]>
</style>
<path class="st0" d="M478.6,276c-16.7-16.7-41.2-18.2-57.9-1.5L373,322.1c-12.4,12.4-27.4,12.4-36.1,2.1c-5.8-6.8-3.5-27.9-1.9-41.2
	L359,86.6c2.1-17.5-10.4-34.5-27.9-36.6c-17.6-2.1-33.5,11.4-35.7,28.9L269,233.2c-1.4,3.8-4.3,4.5-4.7-0.7l-9-200.5
	c0-17.7-14.3-32-32-32s-32,14.3-32,32l-0.6,202c0.2,2.3-1.8,3-2.2,0.3L160,76.7c-3.1-17.4-19.8-29.9-37.2-26.8
	C105.4,53,93.8,70.6,96.9,88l25.4,184.5c0,3.3-1.1,5.2-2.6,1L81.8,172.3c-5.9-16.7-24.2-26.4-40.9-20.4
	c-16.7,5.9-25.4,25.2-19.5,41.9l66.4,216.7c0.3,1.2,0.7,2.4,1.1,3.6l0.1,0.4c0,0,0,0.1,0,0.1c18.4,56.5,71.5,97.4,134.3,97.4
	c40.2,0,81.9-14.1,113.6-38.5c0,0,0,0,0,0c34.3-20.6,144.1-138.7,144.1-138.7C497.8,318.2,495.3,292.7,478.6,276z"/>
</svg>
