<?xml version="1.0" encoding="utf-8"?>
<!-- Generator: Adobe Illustrator 16.2.1, SVG Export Plug-In . SVG Version: 6.00 Build 0)  -->
<!DOCTYPE svg PUBLIC "-//W3C//DTD SVG 1.1//EN" "http://www.w3.org/Graphics/SVG/1.1/DTD/svg11.dtd">
<svg version="1.1" id="Layer_1" xmlns="http://www.w3.org/2000/svg" xmlns:xlink="http://www.w3.org/1999/xlink" x="0px" y="0px"
	 width="512px" height="512px" viewBox="0 0 512 512" style="enable-background:new 0 0 512 512;" xml:space="preserve">
<style type="text/css">
<![CDATA[
	.st0{fill:#010101;}
]]>
</style>
<g>
	<path class="st0" d="M272,64.6V48h32V0h-96v48h32v16.6C123.8,72.8,32,169.7,32,288c0,123.7,100.3,224,224,224s224-100.3,224-224
		C480,169.7,388.2,72.8,272,64.6z M391.8,423.8C355.5,460,307.3,480,256,480s-99.5-20-135.8-56.2C84,387.5,64,339.3,64,288
		s20-99.5,56.2-135.8C156.5,116,204.7,96,256,96s99.5,20,135.8,56.2C428,188.5,448,236.7,448,288S428,387.5,391.8,423.8z"/>
	<path class="st0" d="M369.2,174.8c-3.1-3.1-8.2-3.1-11.3,0l-74.1,74.1c-7.8-5.6-17.4-8.9-27.8-8.9c-26.5,0-48,21.5-48,48
		s21.5,48,48,48s48-21.5,48-48c0-10.4-3.3-19.9-8.9-27.8l74.1-74.1C372.4,182.9,372.4,177.9,369.2,174.8z M256,320
		c-17.7,0-32-14.3-32-32s14.3-32,32-32s32,14.3,32,32S273.7,320,256,320z"/>
</g>
</svg>
