<?xml version="1.0" encoding="utf-8"?>
<!-- Generator: Adobe Illustrator 16.2.1, SVG Export Plug-In . SVG Version: 6.00 Build 0)  -->
<!DOCTYPE svg PUBLIC "-//W3C//DTD SVG 1.1//EN" "http://www.w3.org/Graphics/SVG/1.1/DTD/svg11.dtd">
<svg version="1.1" id="Layer_1" xmlns="http://www.w3.org/2000/svg" xmlns:xlink="http://www.w3.org/1999/xlink" x="0px" y="0px"
	 width="512px" height="512px" viewBox="0 0 512 512" style="enable-background:new 0 0 512 512;" xml:space="preserve">
<style type="text/css">
<![CDATA[
	.st0{fill:#010101;}
]]>
</style>
<g>
	<rect x="96" y="32" class="st0" width="320" height="96"/>
	<path class="st0" d="M512,219c-0.3-32.6-26.8-59-59.5-59h-393C26.8,160,0.3,186.4,0,219h0v165h96v96h320v-96h96L512,219L512,219z
		 M352,416H160V288h192V416z M416,248c-13.3,0-24-10.7-24-24s10.7-24,24-24s24,10.7,24,24S429.3,248,416,248z"/>
</g>
</svg>
