<?xml version="1.0" encoding="utf-8"?>
<!-- Generator: Adobe Illustrator 16.2.1, SVG Export Plug-In . SVG Version: 6.00 Build 0)  -->
<!DOCTYPE svg PUBLIC "-//W3C//DTD SVG 1.1//EN" "http://www.w3.org/Graphics/SVG/1.1/DTD/svg11.dtd">
<svg version="1.1" id="Layer_1" xmlns="http://www.w3.org/2000/svg" xmlns:xlink="http://www.w3.org/1999/xlink" x="0px" y="0px"
	 width="512px" height="512px" viewBox="0 0 512 512" style="enable-background:new 0 0 512 512;" xml:space="preserve">
<style type="text/css">
<![CDATA[
	.st0{fill:#010101;}
]]>
</style>
<path class="st0" d="M416,352c-22.1,0-42.1,9-56.6,23.4L174.3,272.6c1.1-5.4,1.7-10.9,1.7-16.6c0-5.7-0.6-11.2-1.7-16.6l185.2-102.8
	C373.9,151,393.9,160,416,160c44.2,0,80-35.8,80-80S460.2,0,416,0s-80,35.8-80,80c0,4.8,0.4,9.4,1.2,14L150.7,197.6
	C136.3,184.2,117.1,176,96,176c-44.2,0-80,35.8-80,80s35.8,80,80,80c21.1,0,40.3-8.2,54.7-21.6L337.2,418c-0.8,4.5-1.2,9.2-1.2,14
	c0,44.2,35.8,80,80,80s80-35.8,80-80S460.2,352,416,352z"/>
</svg>
