<?xml version="1.0" encoding="utf-8"?>
<!-- Generator: Adobe Illustrator 16.2.1, SVG Export Plug-In . SVG Version: 6.00 Build 0)  -->
<!DOCTYPE svg PUBLIC "-//W3C//DTD SVG 1.1//EN" "http://www.w3.org/Graphics/SVG/1.1/DTD/svg11.dtd">
<svg version="1.1" id="Layer_1" xmlns="http://www.w3.org/2000/svg" xmlns:xlink="http://www.w3.org/1999/xlink" x="0px" y="0px"
	 width="512px" height="512px" viewBox="0 0 512 512" style="enable-background:new 0 0 512 512;" xml:space="preserve">
<style type="text/css">
<![CDATA[
	.st0{fill:#010101;}
]]>
</style>
<g>
	<path class="st0" d="M321,256c0,35.3-28.7,64-64,64l0,0c-35.3,0-64-28.7-64-64V96c0-35.3,28.7-64,64-64l0,0c35.3,0,64,28.7,64,64
		V256z"/>
	<path class="st0" d="M368,240v8.5c0,29.9-11.4,58-32.6,79.2c-21.2,21.2-49.2,32.8-79.1,32.8c-29.9,0-58.2-11.7-79.4-32.8
		c-21.2-21.2-33-49.3-33-79.2V240H96v8.5c0,80.6,59.5,147.2,137,158.3V480h48v-73.4c76.5-12,135-78.2,135-158.1V240H368z"/>
</g>
</svg>
