<?xml version="1.0" encoding="utf-8"?>
<!-- Generator: Adobe Illustrator 16.2.1, SVG Export Plug-In . SVG Version: 6.00 Build 0)  -->
<!DOCTYPE svg PUBLIC "-//W3C//DTD SVG 1.1//EN" "http://www.w3.org/Graphics/SVG/1.1/DTD/svg11.dtd">
<svg version="1.1" id="Layer_1" xmlns="http://www.w3.org/2000/svg" xmlns:xlink="http://www.w3.org/1999/xlink" x="0px" y="0px"
	 width="512px" height="512px" viewBox="0 0 512 512" style="enable-background:new 0 0 512 512;" xml:space="preserve">
<style type="text/css">
<![CDATA[
	.st0{fill:#010101;}
]]>
</style>
<g>
	<path class="st0" d="M450.5,350.3c-37.4-27.6-63.4-46.3-75.7-40c-15.4,7.7-23.6,25.1-39.3,55.7c-5.6,11.1-18.3,32.1-28,28.3
		c-12.3-4.9-48-24.4-95.6-68.6c0,0,0,0,0,0c-4.3-4-8.8-8.2-13.3-12.7c-53.1-54.1-75.8-95.3-81.1-108.7c-3.8-9.6,17.3-22.3,28.3-27.9
		c30.6-15.7,48-23.9,55.7-39.3c6.2-12.3-12.4-38.3-40-75.7c-27.6-37.4-44.7-56.5-61.2-60.2c-19-4.2-26.9,7.2-64.4,40
		C-0.9,73.4,0,102.4,0,125.1c0,22.6,18,68.4,54.2,127.9c13.6,22.3,33.5,48.9,54.1,74.1c8.4,10.3,19.9,22.7,32.1,35.2
		c17.3,17.8,36.4,35.9,51.1,48c25.2,20.7,51.8,40.5,74.1,54.1c59.5,36.2,98.6,47.5,121.2,47.5c22.7,0,51.7,1,83.9-36
		c32.8-37.5,44.2-45.4,40-64.4C507,395,488,377.9,450.5,350.3z"/>
	<path class="st0" d="M417,94.9c30.7,30.7,48.7,71.1,52,113.1h42.7C504.7,96,416,7.2,304,0.1v42.7C346.2,46.2,386.3,64.2,417,94.9z"
		/>
	<path class="st0" d="M304,90.4v44.4c34,11.8,61.2,39.2,73,73.2h44.4C407.2,151,361,104.7,304,90.4z"/>
</g>
</svg>
