<?xml version="1.0" encoding="utf-8"?>
<!-- Generator: Adobe Illustrator 16.2.1, SVG Export Plug-In . SVG Version: 6.00 Build 0)  -->
<!DOCTYPE svg PUBLIC "-//W3C//DTD SVG 1.1//EN" "http://www.w3.org/Graphics/SVG/1.1/DTD/svg11.dtd">
<svg version="1.1" id="Layer_1" xmlns="http://www.w3.org/2000/svg" xmlns:xlink="http://www.w3.org/1999/xlink" x="0px" y="0px"
	 width="512px" height="512px" viewBox="0 0 512 512" enable-background="new 0 0 512 512" xml:space="preserve">
<g>
	<g>
		<path d="M175.997,216.47c28.297,0,52.478-17.47,62.188-42.47H113.812C123.52,199,147.701,216.47,175.997,216.47z"/>
		<path d="M32,32v288h20.502c8.944-35.068,33.231-61.875,72.866-73.969c14.94,8.49,32.218,13.385,50.629,13.385
			c18.415,0,35.695-4.883,50.637-13.376c39.639,12.087,63.926,38.892,72.864,73.96H320V32H32z M175.997,239.222
			c-49.145,0-88.983-39.84-88.983-88.986c0-49.144,39.839-88.983,88.983-88.983c49.146,0,88.984,39.839,88.984,88.983
			C264.981,199.382,225.143,239.222,175.997,239.222z"/>
	</g>
	<rect x="352" y="32" width="128" height="128"/>
	<rect x="352" y="192" width="128" height="128"/>
	<rect x="352" y="352" width="128" height="128"/>
	<rect x="192" y="352" width="128" height="128"/>
	<rect x="32" y="352" width="128" height="128"/>
</g>
</svg>
