<?xml version="1.0" encoding="utf-8"?>
<!-- Generator: Adobe Illustrator 16.2.1, SVG Export Plug-In . SVG Version: 6.00 Build 0)  -->
<!DOCTYPE svg PUBLIC "-//W3C//DTD SVG 1.1//EN" "http://www.w3.org/Graphics/SVG/1.1/DTD/svg11.dtd">
<svg version="1.1" id="Layer_1" xmlns="http://www.w3.org/2000/svg" xmlns:xlink="http://www.w3.org/1999/xlink" x="0px" y="0px"
	 width="512px" height="512px" viewBox="0 0 512 512" style="enable-background:new 0 0 512 512;" xml:space="preserve">
<style type="text/css">
<![CDATA[
	.st0{fill:#010101;}
]]>
</style>
<g>
	<path class="st0" d="M332.6,266.6c-24.3-10.3-50-15.5-76.6-15.5s-52.4,5.2-76.6,15.5c-19.9,8.4-38.1,19.9-54.2,34.3l54,60.7
		c21.4-16.1,48-25.6,76.8-25.6c28.8,0,55.4,9.5,76.8,25.6l54-60.7C370.7,286.6,352.5,275,332.6,266.6z"/>
	<path class="st0" d="M256,352c-24.1,0-47.1,7.6-66.2,21.6l66.2,74.5l66.2-74.5C303.1,359.6,280.1,352,256,352z"/>
	<path class="st0" d="M372.2,178.6c-36.8-15.6-75.9-23.4-116.2-23.4c-40.3,0-79.4,7.9-116.2,23.4c-29,12.3-55.6,28.9-79.3,49.5
		l54.1,60.9c37.6-33.4,87.1-53.8,141.4-53.8c54.3,0,103.8,20.3,141.4,53.8l54.1-60.8C427.8,207.5,401.2,190.9,372.2,178.6z"/>
	<path class="st0" d="M256,63.9c-98,0-187.6,36.3-256,96.1l49.9,56.1c55.2-47.9,127.3-77,206.1-77c78.9,0,150.9,29,206.1,77
		l49.9-56.1C443.5,100.1,354,63.9,256,63.9z"/>
</g>
</svg>
