<?xml version="1.0" encoding="utf-8"?>
<!-- Generator: Adobe Illustrator 16.2.1, SVG Export Plug-In . SVG Version: 6.00 Build 0)  -->
<!DOCTYPE svg PUBLIC "-//W3C//DTD SVG 1.1//EN" "http://www.w3.org/Graphics/SVG/1.1/DTD/svg11.dtd">
<svg version="1.1" id="Layer_1" xmlns="http://www.w3.org/2000/svg" xmlns:xlink="http://www.w3.org/1999/xlink" x="0px" y="0px"
	 width="512px" height="512px" viewBox="0 0 512 512" style="enable-background:new 0 0 512 512;" xml:space="preserve">
<style type="text/css">
<![CDATA[
	.st0{fill:#010101;}
]]>
</style>
<g>
	<g>
		<path class="st0" d="M324.9,331.4c-20.3,11.5-43.8,18.1-68.9,18.1c-25,0-48.5-6.6-68.9-18.1C133.2,347.8,100.2,384,88.1,432h335.9
			C411.8,384,378.8,347.8,324.9,331.4z"/>
		<g>
			<path class="st0" d="M256,80.1c-66.8,0-121,54.1-121,120.9S189.2,322,256,322S377,267.8,377,201S322.8,80.1,256,80.1z M256,292.7
				c-38.5,0-71.4-25.7-84.6-57.7h169.1C327.4,267,294.5,292.7,256,292.7z"/>
		</g>
	</g>
	<g>
		<path class="st0" d="M411.9,362H512c-7.3-29-27.1-50.7-59.5-60.6c-12.2,6.9-26.3,10.8-41.4,10.8c-15,0-29.2-3.9-41.4-10.8
			c-11.5,3.5-21.5,8.6-29.8,14.9C369.7,326.3,393.7,342,411.9,362z"/>
		<path class="st0" d="M411.1,150.3c-11.9,0-23.1,2.9-33,7.9c5.6,14.5,8.6,30.3,8.6,46.8c0,13.2-2,25.9-5.6,37.9h80.8
			c-7.9,20-27.7,34.6-50.8,34.6c-14.6,0-27.9-5.9-37.7-15.2c-2.7,5.6-5.9,10.9-9.3,16c12.7,10.7,29.1,17.2,47,17.2
			c40.2,0,72.7-32.5,72.7-72.7S451.2,150.3,411.1,150.3z"/>
	</g>
	<g>
		<path class="st0" d="M172.1,316.3c-8.4-6.3-18.3-11.4-29.9-14.9c-12.2,6.9-26.3,10.8-41.4,10.8c-15,0-29.2-3.8-41.4-10.8
			C27.2,311.3,7.3,333,0,362h100.1C118.4,342,142.3,326.3,172.1,316.3z"/>
		<path class="st0" d="M100.9,277.6C77.8,277.6,58,263,50.1,243h80.8c-3.6-12-5.6-24.8-5.6-37.9c0-16.5,3.1-32.3,8.6-46.8
			c-9.9-5.1-21.1-8-33-8c-40.2,0-72.7,32.5-72.7,72.7s32.6,72.7,72.7,72.7c17.9,0,34.3-6.5,47-17.2c-3.5-5.1-6.6-10.4-9.3-16
			C128.8,271.8,115.5,277.6,100.9,277.6z"/>
	</g>
</g>
</svg>
