<?xml version="1.0" encoding="utf-8"?>
<!-- Generator: Adobe Illustrator 16.2.1, SVG Export Plug-In . SVG Version: 6.00 Build 0)  -->
<!DOCTYPE svg PUBLIC "-//W3C//DTD SVG 1.1//EN" "http://www.w3.org/Graphics/SVG/1.1/DTD/svg11.dtd">
<svg version="1.1" id="Layer_1" xmlns="http://www.w3.org/2000/svg" xmlns:xlink="http://www.w3.org/1999/xlink" x="0px" y="0px"
	 width="512px" height="512px" viewBox="0 0 512 512" style="enable-background:new 0 0 512 512;" xml:space="preserve">
<style type="text/css">
<![CDATA[
	.st0{fill:#010101;}
]]>
</style>
<g>
	<g>
		<path class="st0" d="M256,48C132.3,48,32,148.3,32,272s100.3,224,224,224s224-100.3,224-224S379.7,48,256,48z M391.8,407.8
			C355.5,444,307.3,464,256,464s-99.5-20-135.8-56.2C84,371.5,64,323.3,64,272s20-99.5,56.2-135.8C156.5,100,204.7,80,256,80
			s99.5,20,135.8,56.2C428,172.5,448,220.7,448,272S428,371.5,391.8,407.8z"/>
		<polygon class="st0" points="224,288 240,112 264,112 272,272 352,368 336,384 		"/>
	</g>
	<g>
		<path class="st0" d="M388,16L388,16l-15,28.3C396.6,56.4,418.1,72,437,91c19,19,34.6,40.4,46.7,64l28.2-15
			C484.6,86.9,441.1,43.4,388,16z"/>
	</g>
	<g>
		<path class="st0" d="M124,16L124,16l15,28.3C115.4,56.4,93.9,72,75,91c-19,19-34.6,40.4-46.7,64L0,139.9
			C27.4,86.9,70.9,43.4,124,16z"/>
	</g>
</g>
</svg>
