<?xml version="1.0" encoding="utf-8"?>
<!-- Generator: Adobe Illustrator 16.2.1, SVG Export Plug-In . SVG Version: 6.00 Build 0)  -->
<!DOCTYPE svg PUBLIC "-//W3C//DTD SVG 1.1//EN" "http://www.w3.org/Graphics/SVG/1.1/DTD/svg11.dtd">
<svg version="1.1" id="Layer_1" xmlns="http://www.w3.org/2000/svg" xmlns:xlink="http://www.w3.org/1999/xlink" x="0px" y="0px"
	 width="512px" height="512px" viewBox="0 0 512 512" style="enable-background:new 0 0 512 512;" xml:space="preserve">
<style type="text/css">
<![CDATA[
	.st0{fill:#010101;}
]]>
</style>
<g>
	<path class="st0" d="M240,0L240,0C116,0.3,16.5,100.4,16.5,224c0,123.6,99.5,223.7,223.5,224v64c141,0,256-114.6,256-256
		S381,0,240,0z M224,202v60v26c0,26.5-21.5,48-48,48v-32c8.8,0,16-7.2,16-16v-16h-70c-5.5,0-10-4.5-10-10V154c0-5.5,4.5-10,10-10h92
		c5.5,0,10,4.5,10,10V202z M400,202v60v26c0,26.5-21.5,48-48,48v-32c8.8,0,16-7.2,16-16v-16h-70c-5.5,0-10-4.5-10-10V154
		c0-5.5,4.5-10,10-10h92c5.5,0,10,4.5,10,10V202z"/>
</g>
</svg>
