<?xml version="1.0" encoding="utf-8"?>
<!-- Generator: Adobe Illustrator 16.2.1, SVG Export Plug-In . SVG Version: 6.00 Build 0)  -->
<!DOCTYPE svg PUBLIC "-//W3C//DTD SVG 1.1//EN" "http://www.w3.org/Graphics/SVG/1.1/DTD/svg11.dtd">
<svg version="1.1" id="Layer_1" xmlns="http://www.w3.org/2000/svg" xmlns:xlink="http://www.w3.org/1999/xlink" x="0px" y="0px"
	 width="512px" height="512px" viewBox="0 0 512 512" style="enable-background:new 0 0 512 512;" xml:space="preserve">
<style type="text/css">
<![CDATA[
	.st0{fill:#010101;}
]]>
</style>
<g>
	<polygon class="st0" points="296,192 296,17 296,16 216,16 216,17 216,192 128,192 256,320 384,192 	"/>
	<path class="st0" d="M328,43.8v34.1c23.6,9.5,45.2,23.8,63.8,42.3C428,156.5,448,204.7,448,256s-20,99.5-56.2,135.8
		C355.5,428,307.3,448,256,448s-99.5-20-135.8-56.2C84,355.5,64,307.3,64,256s20-99.5,56.2-135.8c18.5-18.5,40.2-32.8,63.8-42.3
		V43.8C95.6,73.8,32,157.5,32,256c0,123.7,100.3,224,224,224s224-100.3,224-224C480,157.5,416.4,73.8,328,43.8z"/>
	<rect x="128" y="352" class="st0" width="256" height="16"/>
</g>
</svg>
