<?xml version="1.0" encoding="utf-8"?>
<!-- Generator: Adobe Illustrator 16.2.1, SVG Export Plug-In . SVG Version: 6.00 Build 0)  -->
<!DOCTYPE svg PUBLIC "-//W3C//DTD SVG 1.1//EN" "http://www.w3.org/Graphics/SVG/1.1/DTD/svg11.dtd">
<svg version="1.1" id="Layer_1" xmlns="http://www.w3.org/2000/svg" xmlns:xlink="http://www.w3.org/1999/xlink" x="0px" y="0px"
	 width="512px" height="512px" viewBox="0 0 512 512" style="enable-background:new 0 0 512 512;" xml:space="preserve">
<style type="text/css">
<![CDATA[
	.st0{fill:#010101;}
]]>
</style>
<g>
	<circle class="st0" cx="256" cy="256" r="96"/>
	<path class="st0" d="M512,240h-64.7C439.6,146.7,365.3,72.4,272,64.7V0h-32v64.7C146.7,72.4,72.4,146.7,64.7,240H0v32h64.7
		c7.7,93.3,82.1,167.6,175.3,175.3V512h32v-64.7c93.3-7.7,167.6-82.1,175.3-175.3H512V240z M256,399c-79,0-143-64-143-143
		s64-143,143-143s143,64,143,143S335,399,256,399z"/>
</g>
</svg>
