<?xml version="1.0" encoding="utf-8"?>
<!-- Generator: Adobe Illustrator 16.2.1, SVG Export Plug-In . SVG Version: 6.00 Build 0)  -->
<!DOCTYPE svg PUBLIC "-//W3C//DTD SVG 1.1//EN" "http://www.w3.org/Graphics/SVG/1.1/DTD/svg11.dtd">
<svg version="1.1" id="Layer_1" xmlns="http://www.w3.org/2000/svg" xmlns:xlink="http://www.w3.org/1999/xlink" x="0px" y="0px"
	 width="512px" height="512px" viewBox="0 0 512 512" style="enable-background:new 0 0 512 512;" xml:space="preserve">
<style type="text/css">
<![CDATA[
	.st0{fill:#010101;}
]]>
</style>
<path class="st0" d="M454.4,256l52-53.2l-73.5-29.2l24.9-75.1l-78.9,5.9l-10.6-78.4l-68.3,39.9L256,0l-43.9,65.9l-68.3-39.9
	l-10.6,78.4l-78.9-5.9l24.9,75.1L5.6,202.8l52,53.2l-52,53.2l73.5,29.2l-24.9,75.1l78.9-5.9l10.6,78.4l68.3-39.9L256,512l43.9-65.8
	l68.3,39.9l10.6-78.4l78.9,5.9l-24.9-75.1l73.5-29.2L454.4,256z M256,416V96c88,0,160,71.6,160,160S344,416,256,416z"/>
</svg>
