<?xml version="1.0" encoding="utf-8"?>
<!-- Generator: Adobe Illustrator 16.2.1, SVG Export Plug-In . SVG Version: 6.00 Build 0)  -->
<!DOCTYPE svg PUBLIC "-//W3C//DTD SVG 1.1//EN" "http://www.w3.org/Graphics/SVG/1.1/DTD/svg11.dtd">
<svg version="1.1" id="Layer_1" xmlns="http://www.w3.org/2000/svg" xmlns:xlink="http://www.w3.org/1999/xlink" x="0px" y="0px"
	 width="512px" height="512px" viewBox="0 0 512 512" style="enable-background:new 0 0 512 512;" xml:space="preserve">
<style type="text/css">
<![CDATA[
	.st0{fill:#010101;}
]]>
</style>
<g>
	<path class="st0" d="M356.2,365.6C326.6,382.4,292.4,392,256,392c-36.4,0-70.6-9.6-100.1-26.4C77.5,389.5,29.4,443,11.7,512h488.5
		C482.6,442.9,434.6,389.5,356.2,365.6z"/>
	<g>
		<path class="st0" d="M256,0C158.8,0,80,78.8,80,176s78.8,176,176,176s176-78.8,176-176S353.2,0,256,0z M256,308
			c-56,0-103.8-34.8-123-84h246C359.8,273.2,312,308,256,308z"/>
	</g>
</g>
</svg>
