<?xml version="1.0" encoding="UTF-8" standalone="no"?><!DOCTYPE svg PUBLIC "-//W3C//DTD SVG 1.1//EN" "http://www.w3.org/Graphics/SVG/1.1/DTD/svg11.dtd"><svg width="100%" height="100%" viewBox="0 0 512 512" version="1.1" xmlns="http://www.w3.org/2000/svg" xmlns:xlink="http://www.w3.org/1999/xlink" xml:space="preserve" style="fill-rule:evenodd;clip-rule:evenodd;stroke-linejoin:round;stroke-miterlimit:1.41421;"><g><path d="M1,256c0,140.863 114.137,255 255,255c140.863,0 255,-114.137 255,-255c0,-140.863 -114.137,-255 -255,-255c-140.863,0 -255,114.137 -255,255ZM22.209,256c0,-128.849 104.82,-233.791 233.791,-233.791c128.849,0 233.791,104.82 233.791,233.791c0,128.849 -104.82,233.791 -233.791,233.791c-128.849,0 -233.791,-104.942 -233.791,-233.791l0,0Z" style="fill:#000;fill-rule:nonzero;"/><path d="M379.133,177.087l31.264,31.177l-154.397,154.099l-154.397,-154.099l31.265,-31.177l123.132,122.852l123.133,-122.852Z" style="fill:#000;"/></g></svg>