<?xml version="1.0" standalone="no"?><!DOCTYPE svg PUBLIC "-//W3C//DTD SVG 1.1//EN" "http://www.w3.org/Graphics/SVG/1.1/DTD/svg11.dtd"><svg width="100%" height="100%" viewBox="0 0 512 512" version="1.1" xmlns="http://www.w3.org/2000/svg" xmlns:xlink="http://www.w3.org/1999/xlink" xml:space="preserve" style="fill-rule:evenodd;clip-rule:evenodd;stroke-linejoin:round;stroke-miterlimit:1.41421;"><path d="M297.872,482.892l200.088,-194.148c8.693,-8.403 13.04,-19.849 13.04,-32.454l0,-0.58c0,-12.605 -4.347,-24.051 -13.04,-32.454l-200.088,-194.148c-17.386,-18.111 -45.349,-18.111 -62.591,0c-17.241,18.111 -17.241,47.378 0,65.489l120.256,115.039l-310.057,0c-24.631,0 -44.48,20.719 -44.48,46.364c0,26.08 19.849,46.364 44.335,46.364l310.057,0l-120.256,115.039c-17.241,18.111 -17.241,47.378 0,65.489c17.387,18.111 45.35,18.111 62.736,0Z" style="fill:#000;fill-rule:nonzero;"/></svg>