<?xml version="1.0" standalone="no"?><!DOCTYPE svg PUBLIC "-//W3C//DTD SVG 1.1//EN" "http://www.w3.org/Graphics/SVG/1.1/DTD/svg11.dtd"><svg width="100%" height="100%" viewBox="0 0 512 512" version="1.1" xmlns="http://www.w3.org/2000/svg" xmlns:xlink="http://www.w3.org/1999/xlink" xml:space="preserve" style="fill-rule:evenodd;clip-rule:evenodd;stroke-linejoin:round;stroke-miterlimit:1.41421;"><path d="M466.796,209.623l-310.144,0l120.29,-115.072c17.246,-18.116 17.246,-47.391 0,-65.507c-17.247,-18.116 -45.218,-18.116 -62.609,0l-200.29,194.202c-8.695,8.406 -13.043,19.855 -13.043,32.464l0,0.58c0,12.609 4.348,24.058 13.043,32.464l200.145,194.202c17.391,18.116 45.362,18.116 62.609,0c17.246,-18.116 17.246,-47.391 0,-65.507l-120.29,-115.072l310.144,0c24.493,0 44.348,-20.725 44.348,-46.377c0.145,-26.087 -19.71,-46.377 -44.203,-46.377Z" style="fill:#000;fill-rule:nonzero;"/></svg>