<?xml version="1.0" encoding="UTF-8" standalone="no"?><!DOCTYPE svg PUBLIC "-//W3C//DTD SVG 1.1//EN" "http://www.w3.org/Graphics/SVG/1.1/DTD/svg11.dtd"><svg width="100%" height="100%" viewBox="0 0 512 512" version="1.1" xmlns="http://www.w3.org/2000/svg" xmlns:xlink="http://www.w3.org/1999/xlink" xml:space="preserve" style="fill-rule:evenodd;clip-rule:evenodd;stroke-linejoin:round;stroke-miterlimit:1.41421;"><g><path d="M256,1c-140.863,0 -255,114.137 -255,255c0,140.863 114.137,255 255,255c140.863,0 255,-114.137 255,-255c0,-140.863 -114.137,-255 -255,-255ZM256,22.209c128.849,0 233.791,104.82 233.791,233.791c0,128.849 -104.82,233.791 -233.791,233.791c-128.849,0 -233.791,-104.82 -233.791,-233.791c0,-128.849 104.942,-233.791 233.791,-233.791l0,0Z" style="fill:#000;fill-rule:nonzero;"/><path d="M334.913,379.133l-31.177,31.264l-154.099,-154.397l154.099,-154.397l31.177,31.265l-122.852,123.132l122.852,123.133Z" style="fill:#000;"/></g></svg>