<?xml version="1.0" standalone="no"?><!DOCTYPE svg PUBLIC "-//W3C//DTD SVG 1.1//EN" "http://www.w3.org/Graphics/SVG/1.1/DTD/svg11.dtd"><svg width="100%" height="100%" viewBox="0 0 512 512" version="1.1" xmlns="http://www.w3.org/2000/svg" xmlns:xlink="http://www.w3.org/1999/xlink" xml:space="preserve" style="fill-rule:evenodd;clip-rule:evenodd;stroke-linejoin:round;stroke-miterlimit:1.41421;"><g><path d="M141.74,314.846l-15.692,-16.918l129.952,-140.005l129.952,140.005l-15.692,16.918l-114.26,-123.086l-114.26,123.086Z" style="fill:#000;fill-rule:nonzero;"/><path d="M256,511c140.863,0 255,-114.137 255,-255c0,-140.863 -114.137,-255 -255,-255c-140.863,0 -255,114.137 -255,255c0,140.863 114.137,255 255,255ZM256,489.791c-128.849,0 -233.791,-104.82 -233.791,-233.791c0,-128.849 104.82,-233.791 233.791,-233.791c128.849,0 233.791,104.82 233.791,233.791c0,128.849 -104.942,233.791 -233.791,233.791Z" style="fill:#000;fill-rule:nonzero;"/></g></svg>