<?xml version="1.0" standalone="no"?><!DOCTYPE svg PUBLIC "-//W3C//DTD SVG 1.1//EN" "http://www.w3.org/Graphics/SVG/1.1/DTD/svg11.dtd"><svg width="100%" height="100%" viewBox="0 0 512 512" version="1.1" xmlns="http://www.w3.org/2000/svg" xmlns:xlink="http://www.w3.org/1999/xlink" xml:space="preserve" style="fill-rule:evenodd;clip-rule:evenodd;stroke-linejoin:round;stroke-miterlimit:1.41421;"><path d="M29.043,297.812l194.203,200.145c8.406,8.695 19.855,13.043 32.464,13.043l0.58,0c12.609,0 24.058,-4.348 32.464,-13.043l194.203,-200.145c18.115,-17.392 18.115,-45.363 0,-62.609c-18.116,-17.246 -47.392,-17.246 -65.508,0l-115.072,120.29l0,-310.145c0,-24.493 -20.725,-44.348 -46.377,-44.348c-26.087,0 -46.377,19.855 -46.377,44.348l0,310.145l-115.072,-120.29c-18.116,-17.246 -47.392,-17.246 -65.508,0c-18.115,17.246 -18.115,45.217 0,62.609Z" style="fill:#000;fill-rule:nonzero;"/></svg>