<?xml version="1.0" standalone="no"?><!DOCTYPE svg PUBLIC "-//W3C//DTD SVG 1.1//EN" "http://www.w3.org/Graphics/SVG/1.1/DTD/svg11.dtd"><svg width="100%" height="100%" viewBox="0 0 512 512" version="1.1" xmlns="http://www.w3.org/2000/svg" xmlns:xlink="http://www.w3.org/1999/xlink" xml:space="preserve" style="fill-rule:evenodd;clip-rule:evenodd;stroke-linejoin:round;stroke-miterlimit:1.41421;"><g><path d="M314.846,141.74l-16.918,-15.692l-140.005,129.952l140.005,129.952l16.918,-15.692l-123.086,-114.26l123.086,-114.26Z" style="fill:#000;fill-rule:nonzero;"/><path d="M256,1c-140.863,0 -255,114.137 -255,255c0,140.863 114.137,255 255,255c140.863,0 255,-114.137 255,-255c0,-140.863 -114.137,-255 -255,-255ZM256,489.791c-128.849,0 -233.791,-104.82 -233.791,-233.791c0,-128.849 104.82,-233.791 233.791,-233.791c128.849,0 233.791,104.82 233.791,233.791c0,128.849 -104.942,233.791 -233.791,233.791Z" style="fill:#000;fill-rule:nonzero;"/></g></svg>