<?xml version="1.0" encoding="UTF-8" standalone="no"?><!DOCTYPE svg PUBLIC "-//W3C//DTD SVG 1.1//EN" "http://www.w3.org/Graphics/SVG/1.1/DTD/svg11.dtd"><svg width="100%" height="100%" viewBox="0 0 512 512" version="1.1" xmlns="http://www.w3.org/2000/svg" xmlns:xlink="http://www.w3.org/1999/xlink" xml:space="preserve" style="fill-rule:evenodd;clip-rule:evenodd;stroke-linejoin:round;stroke-miterlimit:1.41421;"><path d="M379.133,177.087l31.264,31.177l-154.397,154.099l-154.397,-154.099l31.265,-31.177l123.132,122.852l123.133,-122.852l0,0Z" style="fill:#000;"/><path d="M256,1.001c-140.607,0 -255,114.392 -255,254.999c0,140.607 114.393,255 255,255c140.607,0 255,-114.393 255,-255c0,-140.607 -114.393,-254.999 -255,-254.999ZM256,35.129c121.729,0 220.871,99.027 220.871,220.871c0,121.729 -99.027,220.871 -220.871,220.871c-121.729,0 -220.872,-99.142 -220.872,-220.871c0,-121.729 99.028,-220.871 220.872,-220.871Z" style="fill:#030404;fill-rule:nonzero;"/></svg>