<?xml version="1.0" standalone="no"?><!DOCTYPE svg PUBLIC "-//W3C//DTD SVG 1.1//EN" "http://www.w3.org/Graphics/SVG/1.1/DTD/svg11.dtd"><svg width="100%" height="100%" viewBox="0 0 512 512" version="1.1" xmlns="http://www.w3.org/2000/svg" xmlns:xlink="http://www.w3.org/1999/xlink" xml:space="preserve" style="fill-rule:evenodd;clip-rule:evenodd;stroke-linejoin:round;stroke-miterlimit:1.41421;"><path d="M393.406,511l-274.828,0c-47.863,0 -86.669,-38.806 -86.669,-86.685l0,-336.63c0,-47.879 38.806,-86.685 86.669,-86.685l274.828,0c47.879,0 86.685,38.806 86.685,86.685l0,336.63c0,47.878 -38.805,86.684 -86.685,86.685ZM403.401,397.727l-108.074,-301.008l-79.081,0l-107.656,301.008l69.684,0l22.116,-71.353l111.195,0l22.131,71.353l69.685,0ZM296.162,273.056c-20.447,-64.647 -31.96,-101.228 -34.541,-109.681c-2.581,-8.485 -4.42,-15.177 -5.517,-20.107c-4.606,17.51 -17.742,60.768 -39.44,129.788l79.498,0Z" style="fill:#000;"/></svg>