<?xml version="1.0" encoding="utf-8"?>
<!-- Generator: Adobe Illustrator 19.0.0, SVG Export Plug-In . SVG Version: 6.00 Build 0)  -->
<svg version="1.1" id="Layer_1" xmlns="http://www.w3.org/2000/svg" xmlns:xlink="http://www.w3.org/1999/xlink" x="0px" y="0px"
	 width="512px" height="512px" viewBox="0 0 512 512" enable-background="new 0 0 512 512" xml:space="preserve">
<path d="M486.2,196.1l-25.7-25.7v-36.2c0-46.2-37.8-83.9-83.9-83.9h-36.2l-25.5-25.7c-32.7-32.7-86-32.7-118.7,0l-25.7,25.7h-36.2
	C88,50.2,50.2,88,50.2,134.2v36.2l-25.7,25.7c-32.7,32.7-32.7,86,0,118.7l25.7,25.7v36.2c0,46.2,37.8,83.9,83.9,83.9h36.2l25.7,25.7
	c32.7,32.7,86,32.7,118.7,0l25.7-25.7h36.2c46.2,0,83.9-37.8,83.9-83.9v-36.2l25.5-25.7C518.8,282.1,518.8,228.6,486.2,196.1z
	 M437.2,301.8L302.7,436.3c-25.5,25.5-67.5,25.5-93.2,0L75.1,301.8c-25.5-25.5-25.5-67.5,0-93.2L209.5,74.2
	c25.5-25.5,67.5-25.5,93.2,0l134.5,134.5C462.9,234.4,462.9,276.3,437.2,301.8z"/>
</svg>
