<?xml version="1.0" encoding="utf-8"?>
<!-- Generator: Adobe Illustrator 16.2.1, SVG Export Plug-In . SVG Version: 6.00 Build 0)  -->
<!DOCTYPE svg PUBLIC "-//W3C//DTD SVG 1.1//EN" "http://www.w3.org/Graphics/SVG/1.1/DTD/svg11.dtd">
<svg version="1.1" id="Layer_1" xmlns="http://www.w3.org/2000/svg" xmlns:xlink="http://www.w3.org/1999/xlink" x="0px" y="0px"
	 width="512px" height="512px" viewBox="0 0 512 512" enable-background="new 0 0 512 512" xml:space="preserve">
<g>
	<path d="M438.8,396.2l-49.3-73l-47.8-72.4l-2.7-4.1c-12.8-20.3-19-44.4-19-70.2c0,0,0-73.5,0-93s15-30.4,15-39.1
		c0-8.7-7-12.4-15.7-12.4H192.5c-8.7,0-15.8,3.9-15.8,12.6c0,8.7,15.3,20.2,15.3,39.4s0,92.5,0,92.5c0,25.8-7.3,49.8-20.1,70.2
		l-2.3,3.8l-47.3,72.7L73.1,396.1c-5.8,9-9.1,20.2-9.1,31.7c0,28,16.3,52.2,63.2,52.2h257.6c47,0,63.2-24.2,63.2-52.2
		C447.9,416.3,444.6,405.2,438.8,396.2z M409.2,441c-4.4,4.2-11.601,7-24.5,7H127.1c-12.8,0-20.8-3-25.2-7.2c-2.7-2.6-6-6.8-6-13.1
		c0-5,1.4-10,3.9-14l49-72.5l0.1-0.2l0.1-0.2l47.1-72.5l3-4.899c15.7-25.2,24.8-55.2,24.8-86.9v-74.4c0-6.1,0.1-17.9-1-22.2
		C218.1,61.8,224,64,232.8,64h47c8.8,0,13.7-2,9.101,15.7c-1,3.9-1,15.7-1,22.3v74.4c0,31.2,7.8,61.3,23.899,87c1.3,2.1,3.2,5,3.2,5
		l47.8,72.1l0.101,0.2l0.1,0.2l49,72.5c2.5,4,3.9,9,3.9,14C415.9,433.8,411.9,438.4,409.2,441z"/>
	<path d="M391.2,410.8l-13-19.8l-11.9-18.2L325.8,311l-1.1-1.7c-0.3-0.399-0.7-0.8-1-1.2L323.6,307.9L310.4,288H201l-11.7,17.9l0,0
		l-0.1,0.1c-0.2,0.3-0.5,0.6-0.7,0.9L145.6,372.6l-15.1,23.2l-0.6,0.9l-0.4,0.6l-0.5,0.8l-8.4,12.801c-1.5,2.1-2.3,4.8-2.3,7.6
		c0,7.5,6.1,13.5,13.5,13.5h0.1h15.6h29.9h157.1h29.9H380h0.1c7.5,0,13.5-6.1,13.5-13.5c0-2.5-0.6-4.9-1.899-6.9
		C391.5,411.3,391.4,411.1,391.2,410.8z M302,341.7c-1.5-1.5-2.3-3.601-2.3-5.7s0.899-4.2,2.3-5.7c1.5-1.5,3.6-2.3,5.6-2.3
		c2.101,0,4.2,0.8,5.601,2.3c1.5,1.5,2.3,3.601,2.3,5.7s-0.9,4.2-2.3,5.7c-1.5,1.5-3.5,2.3-5.601,2.3
		C305.6,344,303.5,343.1,302,341.7z M338,398.4l-23.5-35.9c-2.4-3.7-1.4-8.7,2.3-11.1c1.4-0.9,2.9-1.301,4.4-1.301
		c2.6,0,5.1,1.301,6.5,3.601l23.5,35.899c2.399,3.7,1.399,8.7-2.3,11.101c-1.4,0.899-2.9,1.3-4.301,1.3
		C342.1,402,339.5,400.7,338,398.4z"/>
	<path d="M188.5,307C188.2,307.4,184.9,312.4,188.5,307L188.5,307z"/>
</g>
</svg>
