<?xml version="1.0" encoding="utf-8"?>
<!-- Generator: Adobe Illustrator 16.2.1, SVG Export Plug-In . SVG Version: 6.00 Build 0)  -->
<!DOCTYPE svg PUBLIC "-//W3C//DTD SVG 1.1//EN" "http://www.w3.org/Graphics/SVG/1.1/DTD/svg11.dtd">
<svg version="1.1" id="Layer_1" xmlns="http://www.w3.org/2000/svg" xmlns:xlink="http://www.w3.org/1999/xlink" x="0px" y="0px"
	 width="512px" height="512px" viewBox="0 0 512 512" style="enable-background:new 0 0 512 512;" xml:space="preserve">
<style type="text/css">
<![CDATA[
	.st0{fill:#010101;}
]]>
</style>
<g>
	<path class="st0" d="M96,63.6l32,56.4c33.9-35.1,79.1-56.4,128-56.4s94.1,21.3,128,56.4l32-56.4l32-32l32-16V0l-64,23.6l-46.9,44.1
		C347.7,27.2,305.1,0,256,0s-91.7,27.2-113.1,67.7L96,23.6L32,0v15.6l32,16L96,63.6z"/>
	<path class="st0" d="M248,256V80.2c-45.9,2.2-87.6,23.2-119.7,56.5L31.9,208L0,288h16l16-32l32-32l13.8-3.4
		C69.7,244,64.9,269.4,64.1,296H64l-7.9,152L32,480L0,504l16,8l48.1-32L96,448l10.1-20c22.3,32.5,52.3,57.6,86.7,71.6
		c8.5-12.1,16.6-27.6,23.6-45.7C236.9,401.2,248,330.9,248,256z"/>
	<path class="st0" d="M217.2,489c15.3,4.6,22.3,7,38.8,7c16.5,0,23.6-2.5,38.9-7c-21.5-32.2-29.5-77-38.8-137
		C246.7,411.9,238.7,456.8,217.2,489z"/>
	<path class="st0" d="M455.9,448L448,296h-0.1c-0.8-26.6-5.6-52-13.7-75.4L448,224l32,32l16,32h16l-31.9-80l-96.4-71.3
		c-32.1-33.4-73.8-54.3-119.7-56.5V256c0,74.9,11.3,145.2,31.8,197.8c7,18.1,15.1,33.6,23.7,45.6c34.3-14,64.1-39,86.4-71.4l10.1,20
		l31.9,32l48.1,32l16-8l-32-24L455.9,448z"/>
</g>
</svg>
