<?xml version="1.0" encoding="utf-8"?>
<!-- Generator: Adobe Illustrator 18.0.0, SVG Export Plug-In . SVG Version: 6.00 Build 0)  -->
<!DOCTYPE svg PUBLIC "-//W3C//DTD SVG 1.1//EN" "http://www.w3.org/Graphics/SVG/1.1/DTD/svg11.dtd">
<svg version="1.1" id="Layer_1" xmlns="http://www.w3.org/2000/svg" xmlns:xlink="http://www.w3.org/1999/xlink" x="0px" y="0px"
	 viewBox="0 0 612 792" enable-background="new 0 0 612 792" xml:space="preserve">
<g>
	<defs>
		<path id="SVGID_1_" d="M465.7,511.6L192.4,238.3c32.3-23.3,71.5-37.6,114.5-37.6c10.7,0,21.1,1,31.3,2.8
			c11.3,1.8,22.2,4.7,32.8,8.4c2.1,0.7,4.3,1.4,6.5,2.2c7.1,2.8,14.1,5.8,20.7,9.3c62.4,32.8,105.1,98.3,105.1,173.7
			C503.2,440,489,479.3,465.7,511.6z M306.9,593.4c-10.7,0-21.2-1-31.3-2.8c-11.3-1.8-22.2-4.7-32.8-8.4c-2.2-0.7-4.4-1.4-6.5-2.2
			c-7.5-2.9-14.9-6.1-21.9-9.9C152.7,537,110.6,472,110.6,397c0-42.9,14.3-82.3,37.7-114.5l273.3,273.3
			C389.2,579.1,349.8,593.4,306.9,593.4z M431.9,171.4c-0.5-0.2-0.8-0.5-1.2-0.7c-12.6-6.9-25.9-12.3-39.6-17.1
			c-2.1-0.7-4.1-1.4-6.2-2.1c-24.7-7.8-50.8-12.6-78-12.6C164.4,139,48.9,254.6,48.9,397.1c0,97.1,53.7,181.6,133,225.6
			c0.5,0.2,0.8,0.6,1.3,0.8c12.6,6.9,25.9,12.3,39.6,17.1c2.1,0.7,4.1,1.4,6.2,2.1c24.7,7.8,50.7,12.6,78,12.6
			c142.5,0,258.1-115.6,258.1-258.1C565,299.9,511.3,215.4,431.9,171.4z"/>
	</defs>
	<use xlink:href="#SVGID_1_"  overflow="visible" fill-rule="evenodd" clip-rule="evenodd"/>
	<clipPath id="SVGID_2_">
		<use xlink:href="#SVGID_1_"  overflow="visible"/>
	</clipPath>
	<g clip-path="url(#SVGID_2_)">
		<defs>
			<rect id="SVGID_3_" x="-8564.2" y="-12409.7" width="10322.8" height="27419.9"/>
		</defs>
		<use xlink:href="#SVGID_3_"  overflow="visible"/>
		<clipPath id="SVGID_4_">
			<use xlink:href="#SVGID_3_"  overflow="visible"/>
		</clipPath>
		<rect x="-112.4" y="-22.3" clip-path="url(#SVGID_4_)" width="838.7" height="838.7"/>
	</g>
</g>
</svg>
