<?xml version="1.0" encoding="utf-8"?>
<!-- Generator: Adobe Illustrator 16.0.4, SVG Export Plug-In . SVG Version: 6.00 Build 0)  -->
<!DOCTYPE svg PUBLIC "-//W3C//DTD SVG 1.1//EN" "http://www.w3.org/Graphics/SVG/1.1/DTD/svg11.dtd">
<svg version="1.1" id="Layer_1" xmlns:sketch="http://www.bohemiancoding.com/sketch/ns"
	 xmlns="http://www.w3.org/2000/svg" xmlns:xlink="http://www.w3.org/1999/xlink" x="0px" y="0px" width="180px" height="180px"
	 viewBox="0 0 180 180" enable-background="new 0 0 180 180" xml:space="preserve">
<title>180 - iPhone 6 Plus - user</title>
<desc>Created with Sketch.</desc>
<g id="Page-1" sketch:type="MSPage">
	<g id="_x31_80---iPhone-6-Plus---user" sketch:type="MSArtboardGroup">
		<g id="Imported-Layers" transform="translate(24.000000, 2.000000)" sketch:type="MSLayerGroup">
			<path id="Fill-1" sketch:type="MSShapeGroup" d="M119.875,107.611l-33.832-9.135c-6.376,7.132-14.248,11.984-22.968,11.984
				S46.483,105.608,40.1,98.477l-33.832,9.135c-3.175,0.863-5.761,4.291-5.761,7.609v50.169c0,3.319,2.685,6.026,5.969,6.026h113.2
				c3.274,0,5.968-2.707,5.968-6.026v-50.169C125.644,111.902,123.05,108.475,119.875,107.611"/>
			<path id="Fill-2" sketch:type="MSShapeGroup" d="M63.075,93.028c18.77,0,33.981-19.201,33.981-42.885
				c0-23.676-15.212-42.877-33.981-42.877s-33.99,19.201-33.99,42.877C29.085,73.828,44.306,93.028,63.075,93.028"/>
		</g>
	</g>
</g>
</svg>
