<?xml version="1.0" encoding="utf-8"?>
<!-- Generator: Adobe Illustrator 18.0.0, SVG Export Plug-In . SVG Version: 6.00 Build 0)  -->
<!DOCTYPE svg PUBLIC "-//W3C//DTD SVG 1.1//EN" "http://www.w3.org/Graphics/SVG/1.1/DTD/svg11.dtd">
<svg version="1.1" id="Layer_1" xmlns="http://www.w3.org/2000/svg" xmlns:xlink="http://www.w3.org/1999/xlink" x="0px" y="0px"
	 viewBox="0 0 612 792" enable-background="new 0 0 612 792" xml:space="preserve">
<path id="SVGID_1_" d="M478.4,500.2L177.1,198.9c35.6-25.7,78.8-41.4,126.2-41.4c11.8,0,23.3,1.1,34.5,3.1c12.5,2,24.5,5.2,36.2,9.3
	c2.3,0.8,4.7,1.5,7.2,2.4c7.8,3.1,15.5,6.4,22.8,10.3c68.8,36.2,115.9,108.4,115.9,191.5C519.7,421.3,504.1,464.6,478.4,500.2z
	 M303.3,590.4c-11.8,0-23.4-1.1-34.5-3.1c-12.5-2-24.5-5.2-36.2-9.3c-2.4-0.8-4.9-1.5-7.2-2.4c-8.3-3.2-16.4-6.7-24.1-10.9
	c-68-36.5-114.4-108.1-114.4-190.8c0-47.3,15.8-90.7,41.6-126.2l301.3,301.3C394,574.6,350.6,590.4,303.3,590.4z M441.1,125.2
	c-0.6-0.2-0.9-0.6-1.3-0.8c-13.9-7.6-28.6-13.6-43.7-18.8c-2.3-0.8-4.5-1.5-6.8-2.3c-27.2-8.6-56-13.9-86-13.9
	C146.2,89.5,18.9,216.9,18.9,374c0,107,59.2,200.2,146.6,248.7c0.6,0.2,0.9,0.7,1.4,0.9c13.9,7.6,28.6,13.6,43.7,18.8
	c2.3,0.8,4.5,1.5,6.8,2.3c27.2,8.6,55.9,13.9,86,13.9c157.1,0,284.5-127.4,284.5-284.5C587.8,266.8,528.6,173.7,441.1,125.2z"/>
</svg>
