<?xml version="1.0" encoding="utf-8"?>
<!-- Generator: Adobe Illustrator 18.0.0, SVG Export Plug-In . SVG Version: 6.00 Build 0)  -->
<!DOCTYPE svg PUBLIC "-//W3C//DTD SVG 1.1//EN" "http://www.w3.org/Graphics/SVG/1.1/DTD/svg11.dtd">
<svg version="1.1" id="Layer_1" xmlns="http://www.w3.org/2000/svg" xmlns:xlink="http://www.w3.org/1999/xlink" x="0px" y="0px"
	 viewBox="0 0 512 512" enable-background="new 0 0 512 512" xml:space="preserve">
<path d="M71,326c2.6-1.1,5.1-3.1,7.7-3.1c22.3-0.2,44.6-0.1,66.8-0.1c0.9,0,1.8,0.3,2.1,0.3c-3.7,8-7.2,16.1-11.2,23.9
	c-0.6,1.3-3,2.3-4.6,2.3c-17.9,0.2-35.8,0.2-53.8,0c-2.4,0-4.7-1.9-7.1-2.9C71,339.6,71,332.8,71,326z"/>
<path d="M179.5,306.5c-28.1,0-56.3,0-84.4,0c-10.1,0-10.9-0.8-10.9-10.6c0-50,0-100,0-150c0-14.8,5.8-20.6,20.8-20.6
	c50.2,0,100.5,0,150.7,0c14.3,0,20.5,6.1,20.5,20.3c0.1,50.2,0,100.5,0,150.7c0,8.9-1.2,10.2-10,10.2
	C237.3,306.5,208.4,306.5,179.5,306.5z"/>
<path d="M446.6,341.6c-0.1-2.4,0-4.9,0-7.3c0-11-0.3-11.6-11.5-11.5c-5.5,0.1-7.1-1.7-7-7.1c0.3-21.1,0.7-42.3-0.2-63.4
	c-0.4-8.4-2.3-17.7-6.4-24.8c-9.5-16.3-21-31.5-31.4-47.3c-9.7-14.6-23.2-21.6-40.5-21.5c-13.6,0.1-27.2,0-40.8,0
	c-14.8,0-17.5,2.7-17.5,17.3c0,45.9,0,91.8,0,137.7c0,2.8,0,5.6,0,9c-27.3,0-53.5,0-79.8,0c4,7.8,8,14.5,10.6,21.6
	c1.5,4,3.1,5.2,7.1,5.2c25.3-0.1,50.5-0.1,75.8,0c4,0,5.7-1,7-5.2c6.1-19.6,22.8-32.1,42.1-32.3c19.8-0.2,36.3,12.3,42.5,32.4
	c1.1,3.6,2.6,5.2,6.5,5.1c11.9-0.2,23.8-0.2,35.7-0.1C444,349.5,446.8,347.2,446.6,341.6z M384.8,235.5c-10.2,0.2-20.4,0-30.6,0
	c-10.2,0-20.4-0.1-30.6,0c-5.5,0.1-8-2.3-8-7.8c0.1-10.7,0.1-21.3,0-32c-0.1-5.4,2.2-8.1,7.7-8.1c11.9,0.1,23.8-0.4,35.6,0.3
	c3.3,0.2,7.3,2.8,9.4,5.5c7.8,10.2,15,20.9,22.2,31.5C395,231.4,392.8,235.4,384.8,235.5z"/>
<path d="M180.5,322.9c-18.4-0.4-33.8,14.4-34,32.6c-0.2,18.3,14.7,33.5,33,33.7c18.2,0.2,33.6-14.8,33.8-33
	C213.5,338.4,198.5,323.3,180.5,322.9z M179.6,372.5c-9-0.1-16.4-7.9-16.2-17.1c0.2-8.8,7.7-16.2,16.5-16.1
	c8.7,0.1,16.2,7.6,16.2,16.4C196.2,364.9,188.6,372.6,179.6,372.5z"/>
<path d="M354.1,322.9c-18.2,0-32.8,14.5-33,32.7c-0.2,18.6,14.5,33.6,32.9,33.6c18.7,0,33.3-14.5,33.4-33.1
	C387.6,337.6,372.8,322.9,354.1,322.9z M353.7,372.5c-9.1-0.2-16.3-8.1-16-17.3c0.3-8.8,8-16.1,16.6-15.9
	c8.9,0.2,16.7,8.2,16.5,16.9C370.6,365.3,362.7,372.8,353.7,372.5z"/>
</svg>
