<?xml version="1.0" encoding="utf-8"?>
<!-- Generator: Adobe Illustrator 16.0.4, SVG Export Plug-In . SVG Version: 6.00 Build 0)  -->
<!DOCTYPE svg PUBLIC "-//W3C//DTD SVG 1.1//EN" "http://www.w3.org/Graphics/SVG/1.1/DTD/svg11.dtd">
<svg version="1.1" id="Layer_1" xmlns:sketch="http://www.bohemiancoding.com/sketch/ns"
	 xmlns="http://www.w3.org/2000/svg" xmlns:xlink="http://www.w3.org/1999/xlink" x="0px" y="0px" width="180px" height="180px"
	 viewBox="0 0 180 180" enable-background="new 0 0 180 180" xml:space="preserve">
<title>180 - iPhone 6 Plus - rewards_color</title>
<desc>Created with Sketch.</desc>
<path d="M53.998,111.763l36.072,20.771v0.108l0.094-0.054l0.094,0.054v-0.108l36.072-20.771l-0.072-42.219l-0.148,0.085
	L89.945,48.69l-35.94,20.688l0.065,0.166L53.998,111.763z M122.326,109.452l-28.268,16.277l-0.057-32.996l28.268-16.277
	L122.326,109.452z M61.995,69.394l27.944-16.084l28.208,16.332l-27.944,16.14L61.995,69.394z M58.059,76.456l28.268,16.277
	l-0.057,32.996l-28.268-16.277L58.059,76.456z"/>
<polygon points="160.198,49.914 160.181,49.923 160.318,50.002 160.494,130.309 160.498,130.307 168.725,135.014 168.528,45.296 
	168.488,45.273 160.288,49.965 "/>
<polygon points="168.706,135.024 168.719,135.031 168.725,135.028 168.725,135.014 "/>
<polygon points="160.288,49.965 168.488,45.273 168.506,45.263 90.462,0.279 90.439,9.716 160.198,49.914 "/>
<polygon points="160.498,130.307 160.494,130.309 90.437,170.477 90.434,173.007 90.441,179.9 168.706,135.024 168.725,135.014 "/>
<polygon points="90.427,179.909 90.434,179.905 90.427,179.9 "/>
<polygon points="20.384,130.309 20.56,50.002 20.697,49.923 20.68,49.914 20.59,49.965 12.39,45.272 12.35,45.296 12.154,135.014 
	20.38,130.307 "/>
<polygon points="12.154,135.028 12.159,135.031 12.171,135.023 12.154,135.014 "/>
<polygon points="20.68,49.914 90.439,9.716 90.416,0.279 12.373,45.263 12.39,45.272 20.59,49.965 "/>
<polygon points="90.431,170.477 20.384,130.309 20.38,130.307 12.154,135.014 12.171,135.023 90.427,179.9 90.434,179.905 
	90.441,179.909 90.441,179.9 90.434,173.007 "/>
</svg>
