<?xml version="1.0" encoding="utf-8"?>
<!-- Generator: Adobe Illustrator 20.1.0, SVG Export Plug-In . SVG Version: 6.00 Build 0)  -->
<svg version="1.1" id="Layer_1" xmlns="http://www.w3.org/2000/svg" xmlns:xlink="http://www.w3.org/1999/xlink" x="0px" y="0px"
	 viewBox="0 0 60 60" style="enable-background:new 0 0 60 60;" xml:space="preserve">
<style type="text/css">
	.st0{fill:#231F20;}
</style>
<g id="Layer_2">
</g>
<path class="st0" d="M56.4,18c-17.5,0-35,0-52.9,0c0.4-3.5,0.6-6.8,1.2-10c0.1-0.8,1.4-2,2.2-2c5-0.2,10-0.3,15,0
	c1.2,0.1,2.6,1.3,3.5,2.3c1.6,1.8,3.4,2.5,5.8,2.5c6.9-0.1,13.8,0,20.7,0c3.8,0,4.1,0.3,4.3,4C56.3,15.8,56.2,16.8,56.4,18z
	 M59.4,23.3c-0.5,9-1.1,17.9-1.6,26.9c-0.2,3.3-1,3.9-4.3,3.9c-15.6,0-31.2,0-46.7,0c-3.5,0-4.1-0.4-4.3-3.9
	c-0.7-9-1.3-18.1-1.9-27.1c-0.4-2.8,0.3-3.4,3.3-3.4c8.7,0,17.5,0,26.2,0c8.6,0,17.1,0,25.7,0C59.2,19.7,59.5,20,59.4,23.3z
	 M39.9,35.3h-8.3v-8.3h-3.3v8.3h-8.3v3.3h8.3v8.3h3.3v-8.3h8.3V35.3z"/>
</svg>
