<?xml version="1.0" encoding="utf-8"?>
<!-- Generator: Adobe Illustrator 19.0.0, SVG Export Plug-In . SVG Version: 6.00 Build 0)  -->
<svg version="1.1" id="Layer_1" xmlns="http://www.w3.org/2000/svg" xmlns:xlink="http://www.w3.org/1999/xlink" x="0px" y="0px"
	 viewBox="106 51 616 512" style="enable-background:new 106 51 616 512;" xml:space="preserve">
<g>
	<path d="M661.9,359.5c-2.1,5.5-9.3,9.9-15.9,9.9H244.3c-6.6,0-13.4-4.6-15.1-10.1l-54.2-176c-1.7-5.6-8.5-10.1-15.1-10.1H119
		c-6.6,0-12-4.7-12-10.5v-28.9c0-5.8,5.4-10.5,12-10.5h84.5c6.6,0,13.4,4.6,15.1,10.1l54.2,176c1.7,5.6,8.5,10.1,15.1,10.1h317.4
		c6.6,0,13.7-4.5,15.9-10L665.3,196c2.1-5.5,9-8.4,15.2-6.6l31.2,9.3c6.2,1.9,9.6,7.9,7.5,13.3L661.9,359.5z"/>
	<path d="M666.8,436.2c0,18.6-15,33.6-33.6,33.6c-18.6,0-33.6-15-33.6-33.6c0-18.6,15-33.6,33.6-33.6
		C651.8,402.6,666.8,417.6,666.8,436.2z"/>
	<path d="M301.6,436.2c0,18.6-15,33.6-33.6,33.6c-18.5,0-33.6-15-33.6-33.6c0-18.6,15-33.6,33.6-33.6
		C286.6,402.6,301.6,417.6,301.6,436.2z"/>
</g>
</svg>
