<?xml version="1.0" encoding="utf-8"?>
<!-- Generator: Adobe Illustrator 18.0.0, SVG Export Plug-In . SVG Version: 6.00 Build 0)  -->
<!DOCTYPE svg PUBLIC "-//W3C//DTD SVG 1.1//EN" "http://www.w3.org/Graphics/SVG/1.1/DTD/svg11.dtd">
<svg version="1.1" id="Layer_1" xmlns="http://www.w3.org/2000/svg" xmlns:xlink="http://www.w3.org/1999/xlink" x="0px" y="0px"
	 viewBox="0 0 512 512" enable-background="new 0 0 512 512" xml:space="preserve">
<g id="Icon_5_" display="none">
	<g display="inline">
		<polygon points="405,136.8 375.2,107 256,226.2 136.8,107 107,136.8 226.2,256 107,375.2 136.8,405 256,285.8 375.2,405 
			405,375.2 285.8,256 		"/>
	</g>
</g>
<g id="aJ9yGo.tif">
	<g>
		<path d="M248.8,432.9c-0.4,0-0.9,0-1.3,0c-1.1-0.7-2.1-1.5-3.3-2.1c-51.9-25-103.7-50-155.6-74.9c-2.4-1.2-3.2-2.4-3.2-5
			c0.1-60.1,0.1-120.1,0-180.2c0-2.4,0.4-3.8,2.8-4.9C132,146,175.7,126,219.4,106c12.1-5.5,24.1-11.2,36.1-16.8c0.4,0,0.9,0,1.3,0
			c1,0.5,1.9,1.1,2.9,1.5c53.3,24.5,106.6,49,160,73.5c2.6,1.2,3.5,2.5,3.5,5.4c-0.1,59.8-0.1,119.7,0,179.5c0,2.9-1.1,4-3.5,5.1
			c-56.2,25.6-112.3,51.2-168.4,76.9C250.5,431.7,249.7,432.4,248.8,432.9z M250.4,417c0.1-1.3,0.2-2.1,0.2-2.8
			c0-56.1-0.1-112.3-0.1-168.4c0-2.6-1.1-3.7-3.2-4.6c-44-20-87.9-40.1-131.9-60.1c-4.8-2.2-9.7-4.4-15-6.8c0,1.5,0,2.5,0,3.5
			c0,55,0,110-0.1,165.1c0,2.4,0.8,3.5,2.9,4.5c35,16.5,70,33.2,104.9,49.8C222.1,403.5,236,410.1,250.4,417z M408.4,172.4
			c-1.6,0.7-2.7,1.1-3.8,1.7c-12.8,6.3-25.6,12.6-38.5,18.8c-2.3,1.1-2.9,2.4-2.9,4.9c0.1,24.6,0,49.2,0.1,73.8c0,2.4-0.7,3.8-2.8,5
			c-13,7-25.9,14.1-38.8,21.2c-0.9,0.5-1.9,0.9-3.4,1.7c0-27.6,0-54.7,0-82.4c-1.6,0.7-2.6,1.1-3.5,1.6c-15.3,7.5-30.6,15.1-46,22.5
			c-2.2,1.1-3,2.3-3,4.8c0,53.9,0,107.8,0,161.7c0,1,0.1,2.1,0.2,3.4c1.4-0.6,2.4-1,3.4-1.5c45.5-21.5,91-43.1,136.5-64.5
			c2-1,2.7-2,2.7-4.3c-0.1-43.8,0-87.7,0-131.5C408.4,197.1,408.4,185.1,408.4,172.4z M305,207.1c-0.7-0.5-1-0.8-1.4-1
			c-43.7-20.6-87.4-41.1-131.2-61.6c-1.1-0.5-2.8-0.3-4,0.2c-11.4,4.9-22.7,10-34,15c-5.7,2.5-11.3,5.1-17.4,7.8
			c1.5,0.7,2.6,1.2,3.7,1.7c13.5,6.1,27,12.2,40.6,18.4c30.9,14,61.8,28,92.7,41.9c1.1,0.5,2.7,0.6,3.7,0.1
			C273.4,222.2,289,214.8,305,207.1z M390.6,166.1c-0.8-0.5-1.2-0.8-1.6-1c-43.6-19.9-87.3-39.9-131-59.7c-1.1-0.5-2.9-0.4-4,0.1
			c-11.4,5.1-22.8,10.3-34.1,15.5c-0.8,0.4-1.5,0.8-2.6,1.4c14.3,6.3,28.3,12.4,42.3,18.6c31,13.7,62.1,27.3,93.1,41
			c1.1,0.5,2.7,0.8,3.7,0.4C367.7,177.2,379,171.7,390.6,166.1z"/>
		<path fill="#FFFFFF" d="M248.8,432.9c0.9-0.6,1.7-1.3,2.7-1.7c56.1-25.7,112.2-51.3,168.4-76.9c2.4-1.1,3.5-2.3,3.5-5.1
			c-0.1-59.8-0.1-119.7,0-179.5c0-2.9-0.9-4.2-3.5-5.4c-53.4-24.4-106.7-48.9-160-73.5c-1-0.5-2-1-2.9-1.5c56.4,0,112.8,0,169.2,0
			c0,114.6,0,229.1,0,343.7C366.9,432.9,307.9,432.9,248.8,432.9z"/>
		<path fill="#FFFFFF" d="M255.5,89.3c-12,5.6-24,11.2-36.1,16.8c-43.7,20-87.5,40-131.2,59.9c-2.4,1.1-2.8,2.5-2.8,4.9
			c0.1,60.1,0.1,120.1,0,180.2c0,2.6,0.8,3.9,3.2,5c51.9,24.9,103.8,49.9,155.6,74.9c1.2,0.6,2.2,1.4,3.3,2.1
			c-54.8,0-109.6,0-164.5,0c0-114.6,0-229.1,0-343.7C140.5,89.3,198,89.3,255.5,89.3z"/>
		<path fill="#FFFFFF" d="M250.4,417c-14.4-6.8-28.3-13.4-42.2-20c-35-16.6-69.9-33.2-104.9-49.8c-2.1-1-2.9-2-2.9-4.5
			c0.1-55,0.1-110,0.1-165.1c0-1,0-1.9,0-3.5c5.3,2.4,10.2,4.6,15,6.8c44,20,87.9,40.1,131.9,60.1c2.2,1,3.2,2,3.2,4.6
			c0,56.1,0,112.3,0.1,168.4C250.6,414.9,250.5,415.6,250.4,417z"/>
		<path fill="#FFFFFF" d="M408.4,172.4c0,12.7,0,24.8,0,36.9c0,43.8,0,87.7,0,131.5c0,2.3-0.7,3.3-2.7,4.3
			c-45.5,21.5-91,43-136.5,64.5c-1,0.5-2,0.9-3.4,1.5c-0.1-1.3-0.2-2.4-0.2-3.4c0-53.9,0.1-107.8,0-161.7c0-2.5,0.8-3.7,3-4.8
			c15.4-7.4,30.7-15,46-22.5c1-0.5,2-0.9,3.5-1.6c0,27.6,0,54.8,0,82.4c1.5-0.7,2.5-1.1,3.4-1.7c12.9-7.1,25.8-14.2,38.8-21.2
			c2.2-1.2,2.9-2.6,2.8-5c-0.1-24.6,0-49.2-0.1-73.8c0-2.4,0.6-3.8,2.9-4.9c12.9-6.2,25.7-12.5,38.5-18.8
			C405.6,173.5,406.7,173.1,408.4,172.4z"/>
		<path fill="#FFFFFF" d="M305,207.1c-16,7.7-31.6,15.1-47.3,22.5c-1,0.5-2.6,0.3-3.7-0.1c-30.9-13.9-61.8-27.9-92.7-41.9
			c-13.5-6.1-27-12.2-40.6-18.4c-1.1-0.5-2.2-1-3.7-1.7c6.1-2.7,11.7-5.2,17.4-7.8c11.3-5,22.6-10.1,34-15c1.2-0.5,2.9-0.7,4-0.2
			c43.8,20.5,87.5,41,131.2,61.6C304,206.3,304.3,206.6,305,207.1z"/>
		<path fill="#FFFFFF" d="M390.6,166.1c-11.6,5.6-22.9,11-34.2,16.3c-1,0.5-2.6,0.1-3.7-0.4c-31.1-13.6-62.1-27.3-93.1-41
			c-14-6.2-28-12.3-42.3-18.6c1.1-0.6,1.8-1.1,2.6-1.4c11.4-5.2,22.7-10.4,34.1-15.5c1.1-0.5,2.9-0.6,4-0.1
			c43.7,19.8,87.3,39.8,131,59.7C389.4,165.3,389.8,165.6,390.6,166.1z"/>
	</g>
</g>
</svg>
