<?xml version="1.0" encoding="utf-8"?>
<!-- Generator: Adobe Illustrator 16.0.4, SVG Export Plug-In . SVG Version: 6.00 Build 0)  -->
<!DOCTYPE svg PUBLIC "-//W3C//DTD SVG 1.1//EN" "http://www.w3.org/Graphics/SVG/1.1/DTD/svg11.dtd">
<svg version="1.1" id="Layer_1" xmlns="http://www.w3.org/2000/svg" xmlns:xlink="http://www.w3.org/1999/xlink" x="0px" y="0px"
	 width="512px" height="512px" viewBox="0 0 512 512" enable-background="new 0 0 512 512" xml:space="preserve">
<g>
	<path d="M452.517,308.452c-2.13,5.473-9.261,9.949-15.853,9.949H138.978c-6.59,0-13.39-4.564-15.109-10.147L69.652,132.296
		c-1.72-5.581-8.519-10.146-15.109-10.146H13.631c-6.59,0-11.983-4.731-11.983-10.511V82.712c0-5.778,5.393-10.511,11.983-10.511
		h84.504c6.59,0,13.39,4.569,15.108,10.148l54.215,175.958c1.72,5.582,8.519,10.149,15.109,10.149h213.365
		c6.592,0,13.723-4.479,15.853-9.95l44.142-113.475c2.131-5.471,8.971-8.421,15.211-6.552l31.208,9.341
		c6.232,1.864,9.596,7.87,7.469,13.341L452.517,308.452z"/>
	<path d="M457.465,385.197c0,18.557-15.042,33.595-33.596,33.595c-18.565,0-33.6-15.038-33.6-33.595
		c0-18.552,15.034-33.592,33.6-33.592C442.423,351.605,457.465,366.646,457.465,385.197z"/>
	<path d="M196.267,385.197c0,18.557-15.039,33.595-33.593,33.595c-18.549,0-33.587-15.038-33.587-33.595
		c0-18.552,15.038-33.592,33.587-33.592C181.228,351.605,196.267,366.646,196.267,385.197z"/>
</g>
</svg>
