<?xml version="1.0" encoding="UTF-8" standalone="no"?>
<svg width="505px" height="385px" viewBox="0 0 505 385" version="1.1" xmlns="http://www.w3.org/2000/svg" xmlns:xlink="http://www.w3.org/1999/xlink" xmlns:sketch="http://www.bohemiancoding.com/sketch/ns">
    <!-- Generator: Sketch 3.2.2 (9983) - http://www.bohemiancoding.com/sketch -->
    <title>Fill 4</title>
    <desc>Created with Sketch.</desc>
    <defs></defs>
    <g id="Page-1" stroke="none" stroke-width="1" fill="none" fill-rule="evenodd" sketch:type="MSPage">
        <path d="M418.604453,202.402271 L418.604453,274.60679 C418.604453,289.340604 406.63927,301.285149 391.88,301.285149 C377.12073,301.285149 365.155547,289.340604 365.155547,274.60679 L365.155547,203.778506 L313.726642,219.108443 L279.224453,203.057271 L279.224453,273.30415 C279.762628,335.072831 330.100438,385 392.10854,385 C454.455766,385 505,334.542943 505,272.303252 L505,202.402271 L418.604453,202.402271 Z M313.726642,160.232065 L365.155547,144.902128 L365.155547,109.274559 C363.334599,48.6318888 313.689781,0 252.5,0 C191.531387,0 142.011898,48.2786306 139.844453,108.60484 L139.844453,271.383308 C139.844453,286.117122 127.87927,298.061667 113.12,298.061667 C98.3607299,298.061667 86.3955474,286.117122 86.3955474,271.383308 L86.3955474,202.402271 L-2.84217094e-14,202.402271 L-2.84217094e-14,272.303252 C-2.84217094e-14,334.542943 50.5368613,385 112.884088,385 C174.685766,385 224.780292,335.40401 225.650219,273.922352 L225.775547,113.15304 C225.775547,98.4192266 237.74073,86.4746812 252.5,86.4746812 C267.25927,86.4746812 279.224453,98.4192266 279.224453,113.15304 L279.224453,144.180892 L313.726642,160.232065 Z" id="Fill-4" fill="#000000" sketch:type="MSShapeGroup"></path>
    </g>
</svg>