<?xml version="1.0" encoding="utf-8"?>
<!-- Generator: Adobe Illustrator 18.0.0, SVG Export Plug-In . SVG Version: 6.00 Build 0)  -->
<!DOCTYPE svg PUBLIC "-//W3C//DTD SVG 1.1//EN" "http://www.w3.org/Graphics/SVG/1.1/DTD/svg11.dtd">
<svg version="1.1" id="Layer_1" xmlns="http://www.w3.org/2000/svg" xmlns:xlink="http://www.w3.org/1999/xlink" x="0px" y="0px"
	 viewBox="0 0 612 591.3" enable-background="new 0 0 612 591.3" xml:space="preserve">
<path d="M297.9,546c-0.7,0-1.3,0-2,0c-1.6-1-3.1-2.2-4.8-3C215.6,506.6,140,470.2,64.4,433.9c-3.5-1.7-4.6-3.5-4.6-7.3
	c0.1-87.5,0.1-175,0-262.5c0-3.5,0.6-5.5,4.1-7.1c63.8-29,127.5-58.1,191.2-87.3c17.6-8,35-16.3,52.6-24.4c0.7,0,1.3,0,2,0
	c1.4,0.7,2.8,1.6,4.3,2.2c77.7,35.7,155.4,71.5,233.1,107c3.8,1.8,5.1,3.7,5.1,7.9c-0.1,87.2-0.1,174.4,0,261.6c0,4.2-1.5,5.9-5,7.5
	c-81.8,37.3-163.6,74.6-245.4,112C300.4,544.2,299.2,545.2,297.9,546z M300.2,522.7c0.1-1.9,0.3-3,0.3-4.1
	c-0.1-81.8-0.2-163.6-0.1-245.4c0-3.8-1.6-5.3-4.7-6.8c-64.1-29.1-128.1-58.4-192.1-87.6c-7-3.2-14.1-6.4-21.8-9.9c0,2.2,0,3.6,0,5
	c0,80.2,0,160.3-0.1,240.5c0,3.5,1.2,5.1,4.3,6.5c51,24.1,101.9,48.3,152.9,72.5C259,503.2,279.3,512.8,300.2,522.7z M530.4,166.4
	c-2.3,1-4,1.7-5.5,2.4c-18.7,9.1-37.3,18.4-56.1,27.4c-3.3,1.6-4.3,3.5-4.2,7.1c0.1,35.8,0,71.7,0.1,107.6c0,3.5-1,5.5-4.1,7.3
	c-18.9,10.2-37.7,20.6-56.5,30.9c-1.4,0.7-2.8,1.4-5,2.4c0-40.2,0-79.7,0-120c-2.3,1-3.7,1.6-5.1,2.3c-22.3,11-44.6,22-67,32.8
	c-3.2,1.6-4.4,3.4-4.4,7c0.1,78.5,0,157.1-0.1,235.6c0,1.5,0.2,3,0.3,5c2-0.9,3.5-1.5,4.9-2.2c66.3-31.4,132.6-62.7,198.9-94
	c2.9-1.4,3.9-3,3.9-6.2c-0.1-63.9-0.1-127.8,0-191.6C530.4,202.5,530.4,184.9,530.4,166.4z M379.8,217c-1-0.7-1.5-1.1-2-1.4
	c-63.7-30-127.4-59.9-191.2-89.7c-1.6-0.7-4.1-0.4-5.8,0.3c-16.6,7.2-33,14.5-49.5,21.8c-8.3,3.7-16.5,7.4-25.4,11.3
	c2.2,1,3.8,1.8,5.4,2.5c19.7,8.9,39.4,17.8,59.1,26.7c45,20.4,90,40.8,135.1,61c1.5,0.7,3.9,0.9,5.4,0.2
	C333.7,239,356.4,228.1,379.8,217z M504.5,157.3c-1.2-0.7-1.7-1.1-2.3-1.4c-63.6-29-127.2-58.1-190.8-87c-1.6-0.7-4.2-0.6-5.8,0.2
	c-16.6,7.4-33.2,15-49.7,22.6c-1.2,0.5-2.2,1.2-3.8,2.1c20.8,9.1,41.2,18.1,61.6,27c45.2,19.9,90.4,39.8,135.7,59.7
	c1.6,0.7,4,1.2,5.4,0.6C471.2,173.3,487.6,165.4,504.5,157.3z"/>
</svg>
