<?xml version="1.0" encoding="utf-8"?>
<!-- Generator: Adobe Illustrator 16.0.4, SVG Export Plug-In . SVG Version: 6.00 Build 0)  -->
<!DOCTYPE svg PUBLIC "-//W3C//DTD SVG 1.1//EN" "http://www.w3.org/Graphics/SVG/1.1/DTD/svg11.dtd">
<svg version="1.1" id="Layer_1" xmlns="http://www.w3.org/2000/svg" xmlns:xlink="http://www.w3.org/1999/xlink" x="0px" y="0px"
	 width="512px" height="512px" viewBox="0 0 512 512" enable-background="new 0 0 512 512" xml:space="preserve">
<path d="M189.654,207.997c-5.468,0-9.392,3.921-9.392,9.386c0,5.347,3.804,9.385,9.392,9.385c5.468,0,9.51-3.682,9.51-9.385
	C199.165,211.918,195.36,207.997,189.654,207.997z"/>
<g>
	<path d="M303.58,290.578c0-3.244,2.129-5.576,5.068-5.576c2.94,0,4.968,2.332,4.968,5.576c0,2.939-2.027,5.371-5.068,5.371
		C305.405,295.949,303.58,293.316,303.58,290.578z"/>
</g>
<g>
	<path d="M311.968,207.469l-141.79-83.453L28.351,207.469l5.292,13.236l13.556-7.424v81.684h16.043v-7.953h0.238
		c1.822,3.455,4.516,5.926,8.081,7.41c3.566,1.486,7.606,2.23,12.122,2.23c3.09,0,6.139-0.645,9.151-1.928
		c3.01-1.285,5.723-3.273,8.141-5.967c2.416-2.689,4.377-6.104,5.883-10.241c1.504-4.136,2.258-9.056,2.258-14.761
		c0-5.703-0.754-10.623-2.258-14.761c-1.506-4.137-3.467-7.531-5.883-10.183c-2.417-2.651-5.13-4.618-8.141-5.904
		c-3.012-1.284-6.061-1.928-9.151-1.928c-3.803,0-7.468,0.743-10.993,2.229c-3.526,1.487-6.319,3.837-8.378,7.049h-0.238v-36.222
		l106.113-58.125l105.423,57.77v36.577h-0.237c-1.901-3.052-4.498-5.362-7.784-6.928c-3.288-1.566-6.756-2.35-10.398-2.35
		c-4.517,0-8.479,0.903-11.885,2.711c-3.407,1.808-6.239,4.198-8.497,7.17c-2.258,2.972-3.963,6.407-5.11,10.302
		c-1.15,3.897-1.724,7.934-1.724,12.11c0,4.338,0.574,8.516,1.724,12.532c1.147,4.019,2.853,7.573,5.11,10.663
		c2.258,3.094,5.11,5.564,8.556,7.412c3.447,1.846,7.506,2.771,12.181,2.771c3.962,0,7.565-0.766,10.815-2.291
		c3.248-1.523,5.861-3.975,7.844-7.35h0.237v7.953h16.044V212.93l14.19,7.776L311.968,207.469z M64.312,256.285
		c0.553-2.411,1.426-4.537,2.614-6.387c1.188-1.847,2.674-3.314,4.457-4.397c1.782-1.085,3.94-1.627,6.477-1.627
		c2.455,0,4.594,0.542,6.417,1.627c1.822,1.083,3.328,2.551,4.516,4.397c1.188,1.85,2.059,3.976,2.615,6.387
		c0.553,2.41,0.832,4.94,0.832,7.592c0,2.571-0.278,5.061-0.832,7.471c-0.556,2.409-1.427,4.539-2.615,6.386
		c-1.188,1.849-2.694,3.313-4.516,4.397c-1.824,1.086-3.963,1.627-6.417,1.627c-2.537,0-4.694-0.541-6.477-1.627
		c-1.783-1.084-3.269-2.549-4.457-4.397c-1.188-1.847-2.061-3.977-2.614-6.386c-0.556-2.41-0.832-4.899-0.832-7.471
		C63.479,261.226,63.756,258.695,64.312,256.285z M275.491,271.106c-0.476,2.409-1.27,4.56-2.378,6.446
		c-1.109,1.889-2.596,3.395-4.456,4.52c-1.862,1.125-4.18,1.686-6.952,1.686c-2.614,0-4.854-0.58-6.715-1.746
		c-1.863-1.164-3.408-2.691-4.635-4.58c-1.229-1.886-2.121-4.037-2.674-6.446c-0.555-2.409-0.832-4.82-0.832-7.229
		c0-2.57,0.257-5.04,0.772-7.411c0.515-2.369,1.347-4.477,2.496-6.326c1.146-1.847,2.674-3.333,4.575-4.458
		c1.901-1.124,4.238-1.687,7.012-1.687c2.692,0,4.971,0.563,6.833,1.687c1.861,1.125,3.366,2.591,4.516,4.397
		c1.148,1.808,1.962,3.916,2.438,6.327c0.475,2.41,0.713,4.861,0.713,7.35C276.204,266.207,275.966,268.695,275.491,271.106z"/>
	<path d="M155.819,265.322c0,6.348-1.03,10.905-3.09,13.676c-2.061,2.771-5.389,4.158-9.983,4.158c-3.962,0-6.755-1.266-8.378-3.795
		c-1.625-2.531-2.437-6.367-2.437-11.509v-35.185h-16.875v38.318c0,3.856,0.336,7.371,1.01,10.544
		c0.672,3.174,1.842,5.865,3.506,8.074c1.664,2.209,3.94,3.936,6.833,5.18c2.891,1.244,6.596,1.869,11.111,1.869
		c3.566,0,7.051-0.844,10.458-2.531c3.406-1.688,6.18-4.297,8.319-7.832h0.356v8.676h16.044v-62.297h-16.876V265.322z"/>
	<rect x="181.25" y="232.667" width="16.875" height="62.297"/>
	<rect x="207.157" y="208.93" width="16.875" height="86.035"/>
</g>
<g>
	<path d="M348.342,259.088c-1.856-1.774-4.453-2.662-7.793-2.662c-2.386,0-4.48,0.511-6.282,1.533s-3.3,2.365-4.492,4.03
		c-1.192,1.667-2.095,3.562-2.704,5.685c-0.61,2.123-0.914,4.287-0.914,6.49c0,2.204,0.304,4.368,0.914,6.49
		c0.609,2.125,1.512,4.02,2.704,5.686s2.69,3.01,4.492,4.029c1.802,1.023,3.896,1.533,6.282,1.533c1.537,0,2.994-0.295,4.374-0.887
		c1.378-0.592,2.597-1.412,3.657-2.459c1.061-1.049,1.935-2.299,2.624-3.75c0.688-1.451,1.114-3.035,1.272-4.756h5.01
		c-0.689,5.053-2.518,8.99-5.486,11.811c-2.97,2.822-6.787,4.232-11.451,4.232c-3.129,0-5.898-0.578-8.31-1.732
		c-2.413-1.156-4.44-2.727-6.083-4.717c-1.644-1.988-2.891-4.314-3.737-6.975c-0.849-2.66-1.273-5.495-1.273-8.506
		c0-3.01,0.425-5.846,1.273-8.506c0.847-2.66,2.094-4.985,3.737-6.975c1.643-1.988,3.67-3.573,6.083-4.756
		c2.411-1.182,5.181-1.774,8.31-1.774c4.399,0,8.123,1.183,11.173,3.547c3.048,2.366,4.863,5.94,5.446,10.723h-5.01
		C351.47,263.308,350.196,260.861,348.342,259.088z"/>
	<path d="M388.539,253.927c2.411,1.183,4.439,2.768,6.082,4.756c1.644,1.989,2.89,4.314,3.737,6.975
		c0.849,2.66,1.272,5.496,1.272,8.506c0,3.011-0.424,5.846-1.272,8.506c-0.848,2.66-2.094,4.986-3.737,6.975
		c-1.643,1.99-3.671,3.561-6.082,4.717c-2.413,1.154-5.183,1.732-8.311,1.732c-3.129,0-5.897-0.578-8.31-1.732
		c-2.413-1.156-4.44-2.727-6.083-4.717c-1.645-1.988-2.89-4.314-3.737-6.975c-0.85-2.66-1.272-5.495-1.272-8.506
		c0-3.01,0.423-5.846,1.272-8.506c0.848-2.66,2.093-4.985,3.737-6.975c1.643-1.988,3.67-3.573,6.083-4.756
		c2.412-1.182,5.181-1.774,8.31-1.774C383.356,252.153,386.126,252.745,388.539,253.927z M373.947,257.959
		c-1.804,1.021-3.301,2.365-4.494,4.03c-1.192,1.667-2.094,3.562-2.703,5.685c-0.61,2.123-0.914,4.287-0.914,6.49
		c0,2.204,0.304,4.368,0.914,6.49c0.609,2.125,1.511,4.02,2.703,5.686c1.193,1.666,2.69,3.01,4.494,4.029
		c1.801,1.023,3.896,1.533,6.281,1.533s4.479-0.51,6.282-1.533c1.802-1.02,3.3-2.363,4.492-4.029
		c1.193-1.666,2.094-3.561,2.704-5.686c0.609-2.122,0.914-4.286,0.914-6.49c0-2.203-0.305-4.367-0.914-6.49
		c-0.61-2.123-1.511-4.018-2.704-5.685c-1.192-1.665-2.69-3.009-4.492-4.03c-1.804-1.021-3.896-1.533-6.282-1.533
		S375.748,256.938,373.947,257.959z"/>
	<path d="M409.333,253.363v7.014h0.238c1.324-2.58,3.061-4.595,5.208-6.047c2.147-1.451,4.891-2.177,8.23-2.177
		c2.704,0,5.155,0.673,7.355,2.016c2.199,1.345,3.671,3.387,4.413,6.128c1.22-2.741,3.021-4.783,5.407-6.128
		c2.385-1.343,4.931-2.016,7.634-2.016c9.065,0,13.598,4.864,13.598,14.593v28.219h-5.009v-27.977c0-3.439-0.717-6.06-2.147-7.861
		c-1.432-1.8-3.95-2.701-7.555-2.701c-2.174,0-3.976,0.417-5.407,1.25s-2.571,1.948-3.42,3.345
		c-0.848,1.398-1.444,2.998-1.789,4.798c-0.345,1.802-0.517,3.669-0.517,5.603v23.543h-5.01v-28.219c0-1.396-0.146-2.727-0.437-3.99
		c-0.292-1.263-0.77-2.365-1.432-3.307c-0.664-0.939-1.551-1.679-2.664-2.217c-1.113-0.537-2.466-0.806-4.056-0.806
		c-2.121,0-3.963,0.39-5.526,1.169c-1.564,0.779-2.837,1.854-3.817,3.225c-0.981,1.371-1.709,2.982-2.187,4.838
		c-0.477,1.854-0.716,3.883-0.716,6.088v23.219h-5.01v-41.602H409.333z"/>
</g>
<g>
	<path d="M471.051,287.865h-2.665v-0.896h6.394v0.896h-2.664v7.1h-1.064V287.865z"/>
	<path d="M475.688,286.969h1.455l2.519,6.719l2.531-6.719h1.456v7.996h-1.008v-6.652h-0.022l-2.497,6.652h-0.907l-2.497-6.652
		h-0.022v6.652h-1.007V286.969z"/>
</g>
</svg>
