<?xml version="1.0" encoding="utf-8"?>
<!-- Generator: Adobe Illustrator 19.2.1, SVG Export Plug-In . SVG Version: 6.00 Build 0)  -->
<svg version="1.1" id="Layer_1" xmlns="http://www.w3.org/2000/svg" xmlns:xlink="http://www.w3.org/1999/xlink" x="0px" y="0px"
	 viewBox="0 0 622.7 512" style="enable-background:new 0 0 622.7 512;" xml:space="preserve">
<style type="text/css">
	.st0{fill:#231F20;}
</style>
<g>
	<path class="st0" d="M546.9,286.4c-2,5.9-8.8,10.7-15,10.7H151.3c-6.2,0-12.7-4.9-14.3-11l-51.3-190c-1.6-6-8.1-11-14.3-11H32.6
		c-6.2,0-11.3-5.1-11.3-11.3v-8.3c0-6.2,5.1-11.3,11.3-11.3h62.3c6.2,0,12.7,4.9,14.3,11L160.5,255c1.6,6,8.1,11,14.3,11H511
		c6.2,0,13-4.8,15-10.7L567.8,110c2-5.9,7.6-6.8,12.8-6.3l12.2-0.1c11,0,9.1,8.5,7.1,14.4L546.9,286.4z"/>
	<path class="st0" d="M203.1,358.1c0,17.1-13.9,31-31,31c-17.1,0-31-13.9-31-31c0-17.1,13.9-31,31-31
		C189.2,327.1,203.1,341,203.1,358.1z"/>
	<path class="st0" d="M537.8,358.1c0,17.1-13.9,31-31,31c-17.1,0-31-13.9-31-31c0-17.1,13.9-31,31-31
		C523.9,327.1,537.8,341,537.8,358.1z"/>
</g>
</svg>
