<?xml version="1.0" encoding="utf-8"?>
<!-- Generator: Adobe Illustrator 19.2.1, SVG Export Plug-In . SVG Version: 6.00 Build 0)  -->
<svg version="1.1" id="Layer_1" xmlns="http://www.w3.org/2000/svg" xmlns:xlink="http://www.w3.org/1999/xlink" x="0px" y="0px"
	 viewBox="0 0 512 512" style="enable-background:new 0 0 512 512;" xml:space="preserve">
<style type="text/css">
	.st0{fill:#231F20;}
</style>
<g>
	<path class="st0" d="M442.4,313.8c-2,5.9-8.8,10.8-15,10.8H145.2c-6.2,0-12.6-4.9-14.3-11L79.5,123.5c-1.6-6-8.1-11-14.3-11H26.4
		c-6.2,0-11.4-5.1-11.4-11.4v-8.3c0-6.2,5.1-11.4,11.4-11.4h62.4c6.2,0,12.6,4.9,14.3,11l51.4,187.9c1.6,6,8.1,11,14.3,11h237.7
		c6.2,0,13-4.8,15-10.8l41.8-143.3c2.1-5.9,7.6-6.8,12.8-6.3l12.2-0.1c11,0,9.1,8.5,7.1,14.4L442.4,313.8z"/>
	<path class="st0" d="M197,385.2c0,17.1-13.9,31-31,31s-31-13.9-31-31c0-17.1,13.9-31,31-31S197,368.1,197,385.2z"/>
	<path class="st0" d="M433.2,385.2c0,17.1-13.9,31-31,31s-31-13.9-31-31c0-17.1,13.9-31,31-31C419.3,354.2,433.2,368.1,433.2,385.2z
		"/>
</g>
</svg>
