<?xml version="1.0" encoding="utf-8"?>
<!-- Generator: Adobe Illustrator 18.0.0, SVG Export Plug-In . SVG Version: 6.00 Build 0)  -->
<!DOCTYPE svg PUBLIC "-//W3C//DTD SVG 1.1//EN" "http://www.w3.org/Graphics/SVG/1.1/DTD/svg11.dtd">
<svg version="1.1" id="Layer_1" xmlns="http://www.w3.org/2000/svg" xmlns:xlink="http://www.w3.org/1999/xlink" x="0px" y="0px"
	 viewBox="0 0 512 512" enable-background="new 0 0 512 512" xml:space="preserve">
<g id="Icon_5_" display="none">
	<g display="inline">
		<polygon points="405,136.8 375.2,107 256,226.2 136.8,107 107,136.8 226.2,256 107,375.2 136.8,405 256,285.8 375.2,405 
			405,375.2 285.8,256 		"/>
	</g>
</g>
<g id="aJ9yGo.tif" display="none">
	<g display="inline">
		<path d="M248.8,432.9c-0.4,0-0.9,0-1.3,0c-1.1-0.7-2.1-1.5-3.3-2.1c-51.9-25-103.7-50-155.6-74.9c-2.4-1.2-3.2-2.4-3.2-5
			c0.1-60.1,0.1-120.1,0-180.2c0-2.4,0.4-3.8,2.8-4.9C132,146,175.7,126,219.4,106c12.1-5.5,24.1-11.2,36.1-16.8c0.4,0,0.9,0,1.3,0
			c1,0.5,1.9,1.1,2.9,1.5c53.3,24.5,106.6,49,160,73.5c2.6,1.2,3.5,2.5,3.5,5.4c-0.1,59.8-0.1,119.7,0,179.5c0,2.9-1.1,4-3.5,5.1
			c-56.2,25.6-112.3,51.2-168.4,76.9C250.5,431.7,249.7,432.4,248.8,432.9z M250.4,417c0.1-1.3,0.2-2.1,0.2-2.8
			c0-56.1-0.1-112.3-0.1-168.4c0-2.6-1.1-3.7-3.2-4.6c-44-20-87.9-40.1-131.9-60.1c-4.8-2.2-9.7-4.4-15-6.8c0,1.5,0,2.5,0,3.5
			c0,55,0,110-0.1,165.1c0,2.4,0.8,3.5,2.9,4.5c35,16.5,70,33.2,104.9,49.8C222.1,403.5,236,410.1,250.4,417z M408.4,172.4
			c-1.6,0.7-2.7,1.1-3.8,1.7c-12.8,6.3-25.6,12.6-38.5,18.8c-2.3,1.1-2.9,2.4-2.9,4.9c0.1,24.6,0,49.2,0.1,73.8c0,2.4-0.7,3.8-2.8,5
			c-13,7-25.9,14.1-38.8,21.2c-0.9,0.5-1.9,0.9-3.4,1.7c0-27.6,0-54.7,0-82.4c-1.6,0.7-2.6,1.1-3.5,1.6c-15.3,7.5-30.6,15.1-46,22.5
			c-2.2,1.1-3,2.3-3,4.8c0,53.9,0,107.8,0,161.7c0,1,0.1,2.1,0.2,3.4c1.4-0.6,2.4-1,3.4-1.5c45.5-21.5,91-43.1,136.5-64.5
			c2-1,2.7-2,2.7-4.3c-0.1-43.8,0-87.7,0-131.5C408.4,197.1,408.4,185.1,408.4,172.4z M305,207.1c-0.7-0.5-1-0.8-1.4-1
			c-43.7-20.6-87.4-41.1-131.2-61.6c-1.1-0.5-2.8-0.3-4,0.2c-11.4,4.9-22.7,10-34,15c-5.7,2.5-11.3,5.1-17.4,7.8
			c1.5,0.7,2.6,1.2,3.7,1.7c13.5,6.1,27,12.2,40.6,18.4c30.9,14,61.8,28,92.7,41.9c1.1,0.5,2.7,0.6,3.7,0.1
			C273.4,222.2,289,214.8,305,207.1z M390.6,166.1c-0.8-0.5-1.2-0.8-1.6-1c-43.6-19.9-87.3-39.9-131-59.7c-1.1-0.5-2.9-0.4-4,0.1
			c-11.4,5.1-22.8,10.3-34.1,15.5c-0.8,0.4-1.5,0.8-2.6,1.4c14.3,6.3,28.3,12.4,42.3,18.6c31,13.7,62.1,27.3,93.1,41
			c1.1,0.5,2.7,0.8,3.7,0.4C367.7,177.2,379,171.7,390.6,166.1z"/>
		<path fill="#FFFFFF" d="M248.8,432.9c0.9-0.6,1.7-1.3,2.7-1.7c56.1-25.7,112.2-51.3,168.4-76.9c2.4-1.1,3.5-2.3,3.5-5.1
			c-0.1-59.8-0.1-119.7,0-179.5c0-2.9-0.9-4.2-3.5-5.4c-53.4-24.4-106.7-48.9-160-73.5c-1-0.5-2-1-2.9-1.5c56.4,0,112.8,0,169.2,0
			c0,114.6,0,229.1,0,343.7C366.9,432.9,307.9,432.9,248.8,432.9z"/>
		<path fill="#FFFFFF" d="M255.5,89.3c-12,5.6-24,11.2-36.1,16.8c-43.7,20-87.5,40-131.2,59.9c-2.4,1.1-2.8,2.5-2.8,4.9
			c0.1,60.1,0.1,120.1,0,180.2c0,2.6,0.8,3.9,3.2,5c51.9,24.9,103.8,49.9,155.6,74.9c1.2,0.6,2.2,1.4,3.3,2.1
			c-54.8,0-109.6,0-164.5,0c0-114.6,0-229.1,0-343.7C140.5,89.3,198,89.3,255.5,89.3z"/>
		<path fill="#FFFFFF" d="M250.4,417c-14.4-6.8-28.3-13.4-42.2-20c-35-16.6-69.9-33.2-104.9-49.8c-2.1-1-2.9-2-2.9-4.5
			c0.1-55,0.1-110,0.1-165.1c0-1,0-1.9,0-3.5c5.3,2.4,10.2,4.6,15,6.8c44,20,87.9,40.1,131.9,60.1c2.2,1,3.2,2,3.2,4.6
			c0,56.1,0,112.3,0.1,168.4C250.6,414.9,250.5,415.6,250.4,417z"/>
		<path fill="#FFFFFF" d="M408.4,172.4c0,12.7,0,24.8,0,36.9c0,43.8,0,87.7,0,131.5c0,2.3-0.7,3.3-2.7,4.3
			c-45.5,21.5-91,43-136.5,64.5c-1,0.5-2,0.9-3.4,1.5c-0.1-1.3-0.2-2.4-0.2-3.4c0-53.9,0.1-107.8,0-161.7c0-2.5,0.8-3.7,3-4.8
			c15.4-7.4,30.7-15,46-22.5c1-0.5,2-0.9,3.5-1.6c0,27.6,0,54.8,0,82.4c1.5-0.7,2.5-1.1,3.4-1.7c12.9-7.1,25.8-14.2,38.8-21.2
			c2.2-1.2,2.9-2.6,2.8-5c-0.1-24.6,0-49.2-0.1-73.8c0-2.4,0.6-3.8,2.9-4.9c12.9-6.2,25.7-12.5,38.5-18.8
			C405.6,173.5,406.7,173.1,408.4,172.4z"/>
		<path fill="#FFFFFF" d="M305,207.1c-16,7.7-31.6,15.1-47.3,22.5c-1,0.5-2.6,0.3-3.7-0.1c-30.9-13.9-61.8-27.9-92.7-41.9
			c-13.5-6.1-27-12.2-40.6-18.4c-1.1-0.5-2.2-1-3.7-1.7c6.1-2.7,11.7-5.2,17.4-7.8c11.3-5,22.6-10.1,34-15c1.2-0.5,2.9-0.7,4-0.2
			c43.8,20.5,87.5,41,131.2,61.6C304,206.3,304.3,206.6,305,207.1z"/>
		<path fill="#FFFFFF" d="M390.6,166.1c-11.6,5.6-22.9,11-34.2,16.3c-1,0.5-2.6,0.1-3.7-0.4c-31.1-13.6-62.1-27.3-93.1-41
			c-14-6.2-28-12.3-42.3-18.6c1.1-0.6,1.8-1.1,2.6-1.4c11.4-5.2,22.7-10.4,34.1-15.5c1.1-0.5,2.9-0.6,4-0.1
			c43.7,19.8,87.3,39.8,131,59.7C389.4,165.3,389.8,165.6,390.6,166.1z"/>
	</g>
</g>
<g>
	<path fill="#FFFFFF" d="M71,326c0-85.5,0-170.9,0-256.4c125.8,0,251.6,0,377.4,0c0,125.8,0,251.6,0,377.4c-125.8,0-251.6,0-377.4,0
		c0-33.5,0-67,0-100.5c2.4,1,4.7,2.8,7.1,2.9c17.9,0.2,35.8,0.2,53.8,0c1.6,0,4-1,4.6-2.3c3.9-7.8,7.5-15.8,11.2-23.9
		c-0.3,0-1.2-0.3-2.1-0.3c-22.3,0-44.6-0.1-66.8,0.1C76.1,322.9,73.6,324.9,71,326z M179.5,306.5c28.9,0,57.8,0,86.6,0
		c8.8,0,10-1.3,10-10.2c0-50.2,0.1-100.5,0-150.7c0-14.3-6.2-20.3-20.5-20.3c-50.2,0-100.5,0-150.7,0c-15,0-20.8,5.8-20.8,20.6
		c0,50,0,100,0,150c0,9.8,0.8,10.6,10.9,10.6C123.2,306.5,151.3,306.5,179.5,306.5z M211.4,322.7c4,7.8,8,14.5,10.6,21.6
		c1.5,4,3.1,5.2,7.1,5.2c25.3-0.1,50.5-0.1,75.8,0c4,0,5.7-1,7-5.2c6.1-19.6,22.8-32.1,42.1-32.3c19.8-0.2,36.3,12.3,42.5,32.4
		c1.1,3.6,2.6,5.2,6.5,5.1c11.9-0.2,23.8-0.2,35.7-0.1c5.4,0,8.2-2.2,8-7.8c-0.1-2.4,0-4.9,0-7.3c0-11-0.3-11.6-11.5-11.5
		c-5.5,0.1-7.1-1.7-7-7.1c0.3-21.1,0.7-42.3-0.2-63.4c-0.4-8.4-2.3-17.7-6.4-24.8c-9.5-16.3-21-31.5-31.4-47.3
		c-9.7-14.6-23.2-21.6-40.5-21.5c-13.6,0.1-27.2,0-40.8,0c-14.8,0-17.5,2.7-17.5,17.3c0,45.9,0,91.8,0,137.7c0,2.8,0,5.6,0,9
		C263.9,322.7,237.8,322.7,211.4,322.7z M146.5,355.5c-0.2,18.3,14.7,33.5,33,33.7c18.2,0.2,33.6-14.8,33.8-33
		c0.2-17.7-14.7-32.9-32.8-33.2C162.1,322.5,146.7,337.3,146.5,355.5z M354.1,322.9c-18.2,0-32.8,14.5-33,32.7
		c-0.2,18.6,14.5,33.6,32.9,33.6c18.7,0,33.3-14.5,33.4-33.1C387.6,337.6,372.8,322.9,354.1,322.9z"/>
	<path d="M71,326c2.6-1.1,5.1-3.1,7.7-3.1c22.3-0.2,44.6-0.1,66.8-0.1c0.9,0,1.8,0.3,2.1,0.3c-3.7,8-7.2,16.1-11.2,23.9
		c-0.6,1.3-3,2.3-4.6,2.3c-17.9,0.2-35.8,0.2-53.8,0c-2.4,0-4.7-1.9-7.1-2.9C71,339.6,71,332.8,71,326z"/>
	<path d="M179.5,306.5c-28.1,0-56.3,0-84.4,0c-10.1,0-10.9-0.8-10.9-10.6c0-50,0-100,0-150c0-14.8,5.8-20.6,20.8-20.6
		c50.2,0,100.5,0,150.7,0c14.3,0,20.5,6.1,20.5,20.3c0.1,50.2,0,100.5,0,150.7c0,8.9-1.2,10.2-10,10.2
		C237.3,306.5,208.4,306.5,179.5,306.5z"/>
	<path d="M211.4,322.7c26.4,0,52.5,0,79.8,0c0-3.4,0-6.2,0-9c0-45.9,0-91.8,0-137.7c0-14.6,2.7-17.3,17.5-17.3c13.6,0,27.2,0,40.8,0
		c17.4-0.1,30.9,7,40.5,21.5c10.5,15.8,21.9,31,31.4,47.3c4.2,7.2,6.1,16.4,6.4,24.8c0.9,21.1,0.5,42.2,0.2,63.4
		c-0.1,5.4,1.5,7.2,7,7.1c11.1-0.2,11.5,0.4,11.5,11.5c0,2.4-0.1,4.9,0,7.3c0.2,5.6-2.6,7.9-8,7.8c-11.9-0.1-23.8-0.2-35.7,0.1
		c-3.9,0.1-5.3-1.5-6.5-5.1c-6.2-20.1-22.8-32.6-42.5-32.4c-19.3,0.2-36,12.7-42.1,32.3c-1.3,4.2-3,5.2-7,5.2
		c-25.3-0.1-50.5-0.1-75.8,0c-4,0-5.6-1.3-7.1-5.2C219.3,337.1,215.3,330.5,211.4,322.7z M354.3,235.5c10.2,0,20.4,0.1,30.6,0
		c8-0.1,10.2-4.1,5.8-10.6c-7.2-10.6-14.4-21.3-22.2-31.5c-2.1-2.7-6.1-5.3-9.4-5.5c-11.8-0.6-23.8-0.2-35.6-0.3
		c-5.6,0-7.8,2.7-7.7,8.1c0.2,10.7,0.1,21.3,0,32c-0.1,5.6,2.5,7.9,8,7.8C333.9,235.4,344.1,235.5,354.3,235.5z"/>
	<path d="M146.5,355.5c0.2-18.2,15.6-32.9,34-32.6c18.1,0.4,33,15.5,32.8,33.2c-0.2,18.2-15.6,33.2-33.8,33
		C161.2,388.9,146.3,373.8,146.5,355.5z M179.6,372.5c9,0.1,16.6-7.6,16.5-16.8c-0.1-8.8-7.5-16.3-16.2-16.4
		c-8.7-0.1-16.3,7.3-16.5,16.1C163.2,364.6,170.6,372.4,179.6,372.5z"/>
	<path d="M354.1,322.9c18.6,0,33.4,14.7,33.3,33.1c-0.1,18.7-14.7,33.2-33.4,33.1c-18.4,0-33.1-15-32.9-33.6
		C321.3,337.4,336,322.9,354.1,322.9z M354.4,339.3c-8.7-0.2-16.3,7.1-16.6,15.9c-0.3,9.2,6.9,17,16,17.3c9,0.2,16.8-7.2,17.1-16.2
		C371.1,347.5,363.3,339.5,354.4,339.3z"/>
	<path fill="#FFFFFF" d="M354.3,235.5c-10.2,0-20.4-0.1-30.6,0c-5.5,0.1-8-2.3-8-7.8c0.1-10.7,0.1-21.3,0-32
		c-0.1-5.4,2.2-8.1,7.7-8.1c11.9,0.1,23.8-0.4,35.6,0.3c3.3,0.2,7.3,2.8,9.4,5.5c7.8,10.2,15,20.9,22.2,31.5
		c4.4,6.5,2.2,10.5-5.8,10.6C374.7,235.6,364.5,235.5,354.3,235.5z"/>
	<path fill="#FFFFFF" d="M179.6,372.5c-9-0.1-16.4-7.9-16.2-17.1c0.2-8.8,7.7-16.2,16.5-16.1c8.7,0.1,16.2,7.6,16.2,16.4
		C196.2,364.9,188.6,372.6,179.6,372.5z"/>
	<path fill="#FFFFFF" d="M354.4,339.3c8.9,0.2,16.7,8.2,16.5,16.9c-0.3,9-8.1,16.5-17.1,16.2c-9.1-0.2-16.3-8.1-16-17.3
		C338.1,346.5,345.7,339.2,354.4,339.3z"/>
</g>
</svg>
