<?xml version="1.0" encoding="utf-8"?>
<!-- Generator: Adobe Illustrator 23.0.2, SVG Export Plug-In . SVG Version: 6.00 Build 0)  -->
<svg version="1.1" id="Layer_1" xmlns="http://www.w3.org/2000/svg" xmlns:xlink="http://www.w3.org/1999/xlink" x="0px" y="0px"
	 viewBox="0 0 303 481" style="enable-background:new 0 0 303 481;" xml:space="preserve">
<g>
	<defs>
		<path id="SVGID_1_" d="M234.96,113.04c-0.71,0-1.38,0.13-1.99,0.38l-0.9,0.46l-67.42,35.28l-1.53,0.79c0,0-0.02,0.01-0.02,0.02
			c-2.97,1.85-4.93,4.96-4.93,8.5v73.72c0,2.53,2.22,4.58,4.99,4.58c0.86,0,1.67-0.2,2.38-0.56c0.06-0.04,0.14-0.07,0.2-0.11
			l68.7-36.77l0.1-0.06c3.24-1.79,5.4-5.05,5.4-8.77v-72.9C239.95,115.08,237.71,113.04,234.96,113.04z"/>
	</defs>
	<use xlink:href="#SVGID_1_"  style="overflow:visible;"/>
	<clipPath id="SVGID_2_">
		<use xlink:href="#SVGID_1_"  style="overflow:visible;"/>
	</clipPath>
</g>
<g>
	<defs>
		<path id="SVGID_3_" d="M228.62,97.08L156.5,66.6c0,0-4.23-1.79-6.58-1.79c-2.35,0-6.56,1.79-6.56,1.79L71.18,97.08
			c0,0-3.17,1.23-3.17,3.54c0,2.45,3.29,4.29,3.29,4.29l72.47,35.95l1.15,0.55c1.5,0.63,3.21,0.99,5,0.99
			c1.81,0,3.54-0.36,5.06-1.01l1.01-0.49l72.6-36.01c0,0,2.98-1.51,2.98-4.27C231.56,98.19,228.62,97.08,228.62,97.08z"/>
	</defs>
	<use xlink:href="#SVGID_3_"  style="overflow:visible;"/>
	<clipPath id="SVGID_4_">
		<use xlink:href="#SVGID_3_"  style="overflow:visible;"/>
	</clipPath>
</g>
<g>
	<defs>
		<path id="SVGID_5_" d="M140.66,149.96l-1.57-0.81l-67.4-35.28l-0.9-0.46c-0.59-0.25-1.28-0.38-1.99-0.38
			c-2.75,0-4.99,2.04-4.99,4.56v72.9c0,3.72,2.16,6.98,5.4,8.77l0.08,0.06l68.7,36.77c0.75,0.43,1.65,0.67,2.61,0.67
			c2.75,0,4.99-2.05,4.99-4.58v-73.72C145.59,154.92,143.63,151.82,140.66,149.96z"/>
	</defs>
	<use xlink:href="#SVGID_5_"  style="overflow:visible;"/>
	<clipPath id="SVGID_6_">
		<use xlink:href="#SVGID_5_"  style="overflow:visible;"/>
	</clipPath>
</g>
<path d="M151.88,3C69.64,3,3,69.57,3,151.75C3,293.81,151.88,479,151.88,479s148.88-185.19,148.88-327.25
	C300.76,69.57,234.12,3,151.88,3z M152,282.5c-69.59,0-126-56.41-126-126s56.41-126,126-126c44.74,0,84.02,23.32,106.38,58.46
	c9.15,14.07,15.42,30.1,17.99,47.29c1.07,6.59,1.63,13.36,1.63,20.25C278,226.09,221.59,282.5,152,282.5z"/>
</svg>
