<?xml version="1.0" encoding="utf-8"?>
<!-- Generator: Adobe Illustrator 16.0.4, SVG Export Plug-In . SVG Version: 6.00 Build 0)  -->
<!DOCTYPE svg PUBLIC "-//W3C//DTD SVG 1.1//EN" "http://www.w3.org/Graphics/SVG/1.1/DTD/svg11.dtd">
<svg version="1.1" id="Layer_1" xmlns="http://www.w3.org/2000/svg" xmlns:xlink="http://www.w3.org/1999/xlink" x="0px" y="0px"
	 width="512px" height="512px" viewBox="0 0 512 512" enable-background="new 0 0 512 512" xml:space="preserve">
<g>
	<path d="M427.503,307.26c-1.889,5.531-8.212,10.056-14.057,10.056H149.495c-5.843,0-11.872-4.614-13.397-10.257L88.027,129.199
		c-1.525-5.641-7.554-10.255-13.397-10.255H38.354c-5.843,0-10.625-4.783-10.625-10.625v-29.24c0-5.841,4.782-10.625,10.625-10.625
		h74.928c5.843,0,11.872,4.618,13.396,10.258l48.071,177.86c1.525,5.642,7.553,10.259,13.397,10.259h189.185
		c5.845,0,12.167-4.528,14.057-10.057l39.138-114.702c1.89-5.53,7.955-8.512,13.488-6.623l27.671,9.442
		c5.526,1.885,8.508,7.955,6.623,13.485L427.503,307.26z"/>
	<path d="M423.892,384.834c0,18.758-15.204,33.958-33.958,33.958c-18.767,0-33.963-15.2-33.963-33.958
		c0-18.752,15.196-33.955,33.963-33.955C408.688,350.879,423.892,366.082,423.892,384.834z"/>
	<path d="M202.87,384.834c0,18.758-15.201,33.958-33.956,33.958c-18.75,0-33.95-15.2-33.95-33.958
		c0-18.752,15.2-33.955,33.95-33.955C187.669,350.879,202.87,366.082,202.87,384.834z"/>
</g>
</svg>
