<?xml version="1.0" encoding="utf-8"?>
<!-- Generator: Adobe Illustrator 16.0.4, SVG Export Plug-In . SVG Version: 6.00 Build 0)  -->
<!DOCTYPE svg PUBLIC "-//W3C//DTD SVG 1.1//EN" "http://www.w3.org/Graphics/SVG/1.1/DTD/svg11.dtd">
<svg version="1.1" id="Layer_1" xmlns="http://www.w3.org/2000/svg" xmlns:xlink="http://www.w3.org/1999/xlink" x="0px" y="0px"
	 width="512px" height="512px" viewBox="0 0 512 512" enable-background="new 0 0 512 512" xml:space="preserve">
<path fill="#231F20" d="M478.981,275.871c24.021-23.882,16.577-72.15-24.934-72.15l-109.206,0.076
	c4.12-23.158,10.109-61.489,9.893-65.104c-2.311-34.281-24.172-76.007-25.104-77.746c-4.011-7.4-24.099-17.485-44.365-13.15
	c-26.229,5.602-28.867,22.328-28.758,26.913c0,0,1.117,45.666,1.23,57.878c-12.468,27.493-55.678,99.749-68.793,105.315
	c-3.066-1.879-6.684-2.893-10.362-2.893H40.573c-11.703,0-21.167,9.499-21.167,21.132l0.036,190.75
	c0.795,10.302,9.575,18.355,19.834,18.355h123.918c11.019,0,19.978-8.959,19.978-19.946v-6.354c0,0,4.586-0.293,6.682,1.01
	c7.948,5.062,17.842,11.449,30.671,11.449H405.53c69.081,0,61.707-61.342,55.385-69.756c11.668-12.76,18.895-35.151,9.03-52.891
	C477.569,320.734,490.938,298.693,478.981,275.871z M446.753,274.242l-1.118,4.703c31.859,9.062,14.916,45.766-7.95,48.186
	l-1.085,4.741c30.496,7.729,15.973,45.549-7.945,48.12l-1.083,4.726c24.926,4.121,18.897,46.68-18.934,46.68l-188.113,0.073
	c-13.298,0-25.328-15.172-35.154-15.172h-8.526V269.834c10.622-6.611,23.701-15.137,30.927-21.352
	c13.766-11.703,69.947-102.452,69.947-113.797c0-11.385-1.308-60.511-1.308-60.511s5.77-7.303,18.151-7.559
	c-0.006-0.017-0.018-0.062-0.018-0.064c0.359,0,0.682,0.035,1.029,0.043c0.479,0.005,0.977,0.035,1.472,0.062
	c0.604,0.038,1.192,0.079,1.772,0.139c0.479,0.052,0.959,0.11,1.455,0.18c6.576,0.918,11.133,3.08,11.758,3.366
	c0,0,20.668,38.799,22.766,69.729c0,0-9.253,63.693-14.311,83.672h67.412h63.043c3.988,0,7.379,0.714,10.212,1.976
	c7.074,3.153,10.605,9.714,11.029,17.036C472.948,255.934,463.641,271.577,446.753,274.242z"/>
</svg>
