<?xml version="1.0" encoding="utf-8"?>
<!-- Generator: Adobe Illustrator 19.0.0, SVG Export Plug-In . SVG Version: 6.00 Build 0)  -->
<svg version="1.1" id="Layer_1" xmlns="http://www.w3.org/2000/svg" xmlns:xlink="http://www.w3.org/1999/xlink" x="0px" y="0px"
	 viewBox="106 51 622.7 512" style="enable-background:new 106 51 622.7 512;" xml:space="preserve">
<g>
	<path d="M663,290.5c-2.1,5.5-9.3,9.9-15.9,9.9H245.4c-6.6,0-13.4-4.6-15.1-10.1l-54.2-176c-1.7-5.6-8.5-10.1-15.1-10.1h-40.9
		c-6.6,0-12-4.7-12-10.5V64.8c0-5.8,5.4-10.5,12-10.5h84.5c6.6,0,13.4,4.6,15.1,10.1l54.2,176c1.7,5.6,8.5,10.1,15.1,10.1h317.4
		c6.6,0,13.7-4.5,15.9-10L666.4,127c2.1-5.5,9-8.4,15.2-6.6l31.2,9.3c6.2,1.9,9.6,7.9,7.5,13.3L663,290.5z"/>
	<path d="M667.9,367.2c0,18.6-15,33.6-33.6,33.6s-33.6-15-33.6-33.6s15-33.6,33.6-33.6S667.9,348.6,667.9,367.2z"/>
	<path d="M302.7,367.2c0,18.6-15,33.6-33.6,33.6c-18.5,0-33.6-15-33.6-33.6s15-33.6,33.6-33.6S302.7,348.6,302.7,367.2z"/>
</g>
</svg>
