<?xml version="1.0" encoding="UTF-8"?>
<svg width="456px" height="327px" viewBox="0 0 456 327" version="1.1" xmlns="http://www.w3.org/2000/svg" xmlns:xlink="http://www.w3.org/1999/xlink">
    <!-- Generator: Sketch 51.2 (57519) - http://www.bohemiancoding.com/sketch -->
    <title>Artboard 2</title>
    <desc>Created with Sketch.</desc>
    <defs></defs>
    <g id="build-shipping" fill="#000000">
        <circle id="Oval" cx="90" cy="290" r="37"></circle>
        <path d="M286.368371,284.150777 C283.433957,287.722088 278.982996,290 274,290 L136,290 C136,264.594902 115.405098,244 90,244 C64.5949015,244 44,264.594902 44,290 L16,290 C7.163444,290 1.082166e-15,282.836556 0,274 L0,16 C-1.082166e-15,7.163444 7.163444,1.623249e-15 16,0 L274,0 C282.836556,-1.623249e-15 290,7.163444 290,16 L290,271.210379 C288.190514,275.248899 286.946403,279.595932 286.368371,284.150777 Z M154.095188,271 L263,271 C267.418278,271 271,267.418278 271,263 L271,28 C271,23.581722 267.418278,20 263,20 L28,20 C23.581722,20 20,23.581722 20,28 L20,263 C20,267.054329 23.0159468,270.404245 26.9267151,270.928624 C35.2828236,243.753526 60.5845702,224 90.5,224 C120.441615,224 145.761466,243.788122 154.095188,271 Z" id="Combined-Shape"></path>
        <circle id="Oval" cx="336" cy="290" r="37"></circle>
        <path d="M382,290 C382,264.594902 361.405098,244 336,244 C320.213552,244 306.284437,251.952191 297.999934,264.069296 L297.999934,64 C297.999934,55.163444 305.163378,48 313.999934,48 L386.138672,48 C412.453125,48 456,151.241513 456,181.1875 L456,274.000026 C456,282.836582 448.836556,290.000026 440,290.000026 L382,290.000026 L382,290 Z M331.144093,67.1172338 C324.146769,67.1172338 318.474317,72.5343106 318.474317,79.2166135 L318.474317,117.783386 C318.474317,124.465689 324.146769,129.882766 331.144093,129.882766 L418.7151,129.882766 C422.070843,126.210268 394.888901,71.4591712 383.792794,67.1172338 L331.144093,67.1172338 Z" id="Combined-Shape"></path>
    </g>
</svg>
