<?xml version="1.0" encoding="utf-8"?>
<!-- Generator: Adobe Illustrator 18.0.0, SVG Export Plug-In . SVG Version: 6.00 Build 0)  -->
<!DOCTYPE svg PUBLIC "-//W3C//DTD SVG 1.1//EN" "http://www.w3.org/Graphics/SVG/1.1/DTD/svg11.dtd">
<svg version="1.1" id="Layer_1" xmlns="http://www.w3.org/2000/svg" xmlns:xlink="http://www.w3.org/1999/xlink" x="0px" y="0px"
	 viewBox="0 0 612 792" enable-background="new 0 0 612 792" xml:space="preserve">
<g>
	<g>
		<g>
			<path fill="#FFFFFF" d="M51.9,662.6c0-174.1,0-348.1,0-522.2c173.1,0,346.1,0,519.2,0c0,174.1,0,348.1,0,522.2
				C398,662.6,224.9,662.6,51.9,662.6z M55.4,398.9c84.5,86,168.2,171.3,253.7,258.4c8.4-13.6,18.6-24.5,22.3-37.3
				c10.9-38.1,36.5-59.8,72.2-72.6c24.5-8.8,41.5-25.3,50.6-50.2c12.1-33.3,35.5-54.8,69-66.7c12-4.2,23.1-11.9,33.4-19.6
				c11.1-8.3,10.6-14.3-1.5-22.1c-13.5-8.6-27.5-16.7-42-23.3c-24.9-11.3-43.8-27.2-53.5-53.8c-11.9-32.6-35.5-54.8-68.2-65.8
				c-28.3-9.5-44.4-28-54.1-55.8c-5.9-16.8-17.9-31.4-28.4-49.2C222.5,228.8,139.4,313.3,55.4,398.9z"/>
			<path d="M55.4,398.9c84.1-85.6,167.1-170.2,253.5-258.2c10.5,17.7,22.5,32.4,28.4,49.2c9.7,27.8,25.8,46.3,54.1,55.8
				c32.7,11,56.3,33.2,68.2,65.8c9.7,26.6,28.6,42.6,53.5,53.8c14.6,6.6,28.5,14.7,42,23.3c12.1,7.7,12.6,13.8,1.5,22.1
				c-10.3,7.7-21.4,15.4-33.4,19.6c-33.5,11.9-56.9,33.5-69,66.7c-9.1,24.9-26.1,41.4-50.6,50.2c-35.7,12.8-61.3,34.5-72.2,72.6
				c-3.7,12.8-14,23.8-22.3,37.3C223.5,570.2,139.8,484.9,55.4,398.9z"/>
		</g>
	</g>
</g>
</svg>
