<?xml version="1.0" encoding="utf-8"?>
<!-- Generator: Adobe Illustrator 16.0.4, SVG Export Plug-In . SVG Version: 6.00 Build 0)  -->
<!DOCTYPE svg PUBLIC "-//W3C//DTD SVG 1.1//EN" "http://www.w3.org/Graphics/SVG/1.1/DTD/svg11.dtd">
<svg version="1.1" id="Layer_1" xmlns:sketch="http://www.bohemiancoding.com/sketch/ns"
	 xmlns="http://www.w3.org/2000/svg" xmlns:xlink="http://www.w3.org/1999/xlink" x="0px" y="0px" width="180px" height="180px"
	 viewBox="0 0 180 180" enable-background="new 0 0 180 180" xml:space="preserve">
<title>180 - iPhone 6 Plus</title>
<desc>Created with Sketch.</desc>
<g id="Page-1" sketch:type="MSPage">
	<g id="_x31_80---iPhone-6-Plus" sketch:type="MSArtboardGroup">
		<g id="Imported-Layers" transform="translate(0.000000, 16.000000)" sketch:type="MSLayerGroup">
			<path id="Fill-1" sketch:type="MSShapeGroup" d="M6.57,146.532h169.034V34.204H6.57V146.532z M15.841,55.359
				c-0.885,0.02-1.609-0.702-1.609-1.59v-10.23c0-0.895,0.724-1.644,1.609-1.657h32.124c0.892-0.014,1.616,0.762,1.616,1.657v10.23
				c0,0.889-0.724,1.577-1.616,1.59H15.841L15.841,55.359z M113.494,120.126c0,0.901-0.738,1.597-1.623,1.61h-50.23
				c-0.892,0.014-1.609-0.709-1.609-1.61v-5.466c0-0.889,0.717-1.637,1.609-1.657h50.23c0.885-0.021,1.623,0.762,1.623,1.657
				V120.126L113.494,120.126z M121.947,103.729c0,0.896-0.725,1.59-1.609,1.604H61.641c-0.892,0.02-1.609-0.708-1.609-1.604v-5.466
				c0-0.896,0.717-1.644,1.609-1.663h58.697c0.885-0.014,1.609,0.768,1.609,1.663V103.729L121.947,103.729z M125.561,87.178
				c0,0.902-0.73,1.584-1.615,1.597H61.641c-0.892,0.021-1.609-0.694-1.609-1.597v-5.473c0-0.889,0.717-1.644,1.609-1.656h62.305
				c0.885-0.021,1.615,0.762,1.615,1.656V87.178L125.561,87.178z"/>
			<path id="Fill-2" sketch:type="MSShapeGroup" d="M20.433,2.613L6.57,25.177h169.034L161.747,2.613H20.433"/>
		</g>
	</g>
</g>
</svg>
