<?xml version="1.0" encoding="UTF-8"?>
<svg width="427px" height="325px" viewBox="0 0 427 325" version="1.1" xmlns="http://www.w3.org/2000/svg" xmlns:xlink="http://www.w3.org/1999/xlink">
    <!-- Generator: Sketch 53.2 (72643) - https://sketchapp.com -->
    <title>build-addToCart</title>
    <desc>Created with Sketch.</desc>
    <g id="Page-1" stroke="none" stroke-width="1" fill="none" fill-rule="evenodd">
        <g id="Artboard-2" fill="#000000">
            <g id="build-addToCart">
                <path d="M378.681217,232.496711 C376.909195,237.688322 370.884318,242 365.391048,242 L115.358668,242 C109.865398,242 104.194926,237.688322 102.688706,232.320724 L57.147727,65.0452303 C55.730109,59.765625 49.9710357,55.3659539 44.4777658,55.3659539 L10.1005285,55.3659539 C4.60725861,55.3659539 0,50.8782895 0,45.3347039 L0,38.03125 C0,32.5756579 4.51865748,28 10.1005285,28 L65.3876318,28 C70.8809017,28 76.5513739,32.3116776 78.057593,37.6792763 L123.598572,203.018914 C125.01619,208.29852 130.775264,212.698191 136.268534,212.698191 L346.873413,212.698191 C352.366683,212.698191 358.391559,208.474507 360.163582,203.194901 L397.198853,77.1003289 C399.059477,71.9087171 403.932539,71.1167763 408.539797,71.5567434 L419.349135,71.46875 C429.095259,71.46875 427.411837,78.9481908 425.639815,84.1398026 L378.681217,232.496711 Z" id="Path" fill-rule="nonzero"></path>
                <path d="M158,297.5 C158,312.669355 145.445161,325 130,325 C114.554839,325 102,312.669355 102,297.5 C102,282.330645 114.554839,270 130,270 C145.445161,270 158,282.330645 158,297.5 Z" id="Path" fill-rule="nonzero"></path>
                <path d="M372,297.5 C372,312.669355 359.445161,325 344,325 C328.554839,325 316,312.669355 316,297.5 C316,282.330645 328.554839,270 344,270 C359.445161,270 372,282.330645 372,297.5 Z" id="Path" fill-rule="nonzero"></path>
                <g id="+" transform="translate(167.000000, 0.000000)">
                    <rect id="Rectangle" x="61.8" y="0" width="30" height="152" rx="10"></rect>
                    <path d="M71.8,3.79429821e-11 L81.8,3.79429821e-11 C87.3228475,3.79419676e-11 91.8,4.4771525 91.8,10 L91.8,142 C91.8,147.522847 87.3228475,152 81.8,152 L71.8,152 C66.2771525,152 61.8,147.522847 61.8,142 L61.8,10 C61.8,4.4771525 66.2771525,3.79439966e-11 71.8,3.79429821e-11 Z" id="Rectangle-Copy-3" transform="translate(76.800000, 76.000000) rotate(-270.000000) translate(-76.800000, -76.000000) "></path>
                </g>
            </g>
        </g>
    </g>
</svg>