<?xml version="1.0" encoding="utf-8"?>
<!-- Generator: Adobe Illustrator 16.0.4, SVG Export Plug-In . SVG Version: 6.00 Build 0)  -->
<!DOCTYPE svg PUBLIC "-//W3C//DTD SVG 1.1//EN" "http://www.w3.org/Graphics/SVG/1.1/DTD/svg11.dtd">
<svg version="1.1" id="Layer_1" xmlns="http://www.w3.org/2000/svg" xmlns:xlink="http://www.w3.org/1999/xlink" x="0px" y="0px"
	 width="512px" height="512px" viewBox="0 0 512 512" enable-background="new 0 0 512 512" xml:space="preserve">
<path d="M276.563,210.738c-8.415,0-14.452,6.033-14.452,14.443c0,8.228,5.854,14.442,14.452,14.442
	c8.414,0,14.634-5.665,14.634-14.442C291.197,216.771,285.343,210.738,276.563,210.738z"/>
<g>
	<path d="M464.778,209.925L246.593,81.509L28.351,209.925l8.143,20.368l20.859-11.424v125.694h24.688v-12.238h0.366
		c2.804,5.316,6.95,9.118,12.435,11.402c5.487,2.287,11.704,3.433,18.654,3.433c4.754,0,9.447-0.992,14.081-2.967
		c4.632-1.978,8.807-5.037,12.527-9.182c3.718-4.139,6.735-9.392,9.052-15.759c2.314-6.364,3.475-13.935,3.475-22.714
		c0-8.776-1.16-16.347-3.475-22.714c-2.317-6.365-5.334-11.589-9.052-15.669c-3.72-4.079-7.895-7.106-12.527-9.085
		c-4.634-1.976-9.327-2.966-14.081-2.966c-5.852,0-11.492,1.144-16.917,3.43c-5.426,2.289-9.723,5.904-12.892,10.847h-0.366v-55.738
		l163.286-89.442l162.224,88.896v56.285h-0.365c-2.926-4.696-6.921-8.251-11.978-10.661c-5.06-2.41-10.396-3.616-16.001-3.616
		c-6.95,0-13.049,1.39-18.288,4.172c-5.243,2.781-9.602,6.459-13.075,11.033c-3.475,4.573-6.1,9.858-7.864,15.853
		c-1.77,5.997-2.652,12.209-2.652,18.635c0,6.675,0.883,13.104,2.652,19.284c1.765,6.184,4.39,11.653,7.864,16.408
		c3.474,4.761,7.862,8.562,13.166,11.406c5.304,2.84,11.551,4.265,18.744,4.265c6.097,0,11.642-1.179,16.643-3.525
		c4.998-2.345,9.02-6.116,12.07-11.31h0.364v12.238h24.688V218.328l21.836,11.965L464.778,209.925z M83.687,285.043
		c0.852-3.709,2.194-6.981,4.023-9.828c1.829-2.841,4.115-5.1,6.858-6.767c2.743-1.669,6.063-2.503,9.966-2.503
		c3.777,0,7.069,0.834,9.875,2.503c2.804,1.667,5.121,3.926,6.949,6.767c1.828,2.847,3.169,6.119,4.024,9.828
		c0.851,3.709,1.279,7.603,1.279,11.683c0,3.956-0.428,7.787-1.279,11.495c-0.855,3.708-2.196,6.985-4.024,9.827
		c-1.829,2.845-4.146,5.099-6.949,6.767c-2.806,1.671-6.098,2.503-9.875,2.503c-3.903,0-7.224-0.832-9.966-2.503
		c-2.743-1.668-5.029-3.922-6.858-6.767c-1.829-2.842-3.171-6.119-4.023-9.827c-0.855-3.708-1.28-7.539-1.28-11.495
		C82.406,292.646,82.832,288.752,83.687,285.043z M408.648,307.85c-0.731,3.708-1.953,7.017-3.659,9.92
		c-1.707,2.906-3.994,5.224-6.856,6.954c-2.866,1.731-6.432,2.594-10.698,2.594c-4.022,0-7.47-0.893-10.333-2.687
		c-2.867-1.791-5.244-4.142-7.132-7.048c-1.891-2.901-3.264-6.212-4.114-9.919c-0.854-3.708-1.28-7.418-1.28-11.125
		c0-3.955,0.396-7.756,1.188-11.403c0.792-3.646,2.072-6.89,3.841-9.734c1.765-2.842,4.114-5.129,7.041-6.86
		c2.926-1.729,6.521-2.596,10.789-2.596c4.144,0,7.649,0.866,10.515,2.596c2.864,1.731,5.18,3.986,6.948,6.767
		c1.768,2.781,3.02,6.026,3.751,9.735c0.73,3.709,1.098,7.48,1.098,11.31C409.746,300.311,409.379,304.14,408.648,307.85z"/>
	<path d="M224.498,298.949c0,9.768-1.585,16.781-4.754,21.044c-3.172,4.265-8.292,6.399-15.362,6.399
		c-6.097,0-10.395-1.948-12.892-5.84c-2.5-3.896-3.749-9.798-3.749-17.71V248.7h-25.968v58.964c0,5.934,0.517,11.342,1.554,16.225
		c1.035,4.884,2.834,9.025,5.395,12.425c2.56,3.398,6.063,6.056,10.515,7.97c4.449,1.915,10.149,2.877,17.098,2.877
		c5.487,0,10.85-1.299,16.094-3.896c5.241-2.597,9.509-6.612,12.801-12.052h0.548v13.351h24.688V248.7h-25.969V298.949z"/>
	<rect x="263.631" y="248.7" width="25.967" height="95.863"/>
	<rect x="303.496" y="212.173" width="25.967" height="132.391"/>
</g>
<g>
	<path d="M459.17,327.203h-6.134v-2.064h14.716v2.064h-6.131v16.341h-2.451V327.203z"/>
	<path d="M469.843,325.139h3.35l5.798,15.466l5.826-15.466h3.351v18.405h-2.32v-15.311h-0.051l-5.748,15.311h-2.087l-5.748-15.311
		h-0.053v15.311h-2.317V325.139z"/>
</g>
</svg>
