<?xml version="1.0" encoding="UTF-8"?>
<svg width="167px" height="244px" viewBox="0 0 167 244" version="1.1" xmlns="http://www.w3.org/2000/svg" xmlns:xlink="http://www.w3.org/1999/xlink">
    <!-- Generator: Sketch 51.3 (57544) - http://www.bohemiancoding.com/sketch -->
    <title>returns</title>
    <desc>Created with Sketch.</desc>
    <defs></defs>
    <g id="icons" stroke="none" stroke-width="1" fill="none" fill-rule="evenodd">
        <g id="Returns" fill="#000000" fill-rule="nonzero">
            <g id="returns">
                <g id="ios-redo" transform="translate(83.281437, 85.838323) scale(-1, 1) translate(-83.281437, -85.838323) ">
                    <path d="M14.6189827,149.329575 C20.7288293,161.879777 24.8914981,169.093373 27.1069891,170.970364 C27.6610042,171.439732 32.0870002,171.744727 31.3175758,167.956177 C30.9386783,166.090534 28.4930594,160.385888 24.5115784,149.329575 C20.2803027,137.579599 18.5452727,127.046711 18.5452727,127.046711 C17.0720668,117.890005 18.1839335,104.610901 19.60327,97.5091107 C22.3784618,83.6231638 31.3175758,75.2519297 41.1620158,72.4731708 C53.0549547,69.1161887 87.4855358,70.6082669 106.050851,70.0989193 L106.050851,94.9743404 L166.343142,47.7802374 L106.050851,0.708155466 L106.050851,25.6930771 C85.815533,26.5903131 55.8377146,26.2058736 35.3178763,35.7680815 C28.1228948,39.12093 22.8332787,41.7175352 17.5714586,46.5190634 C11.9768432,51.6242749 3.8674331,58.647151 0.886777227,78.1355609 C-0.646891846,88.163143 1.75322207,108.480036 3.6691032,117.894999 C5.58498433,127.309962 8.69940588,137.314208 14.6189827,149.329575 Z" id="Shape"></path>
                </g>
                <g id="cube" transform="translate(0.000000, 118.347305)">
                    <path d="M122.084838,37.988024 C121.577673,37.988024 121.09692,38.0804901 120.66028,38.2583961 L120.01937,38.5816061 L71.8386911,63.5778246 L70.7462492,64.1388048 C70.7462492,64.1388048 70.7316383,64.145269 70.7316383,64.1520142 C68.6074457,65.4639658 67.2095808,67.6668527 67.2095808,70.1735571 L67.2095808,122.408228 C67.2095808,124.201903 68.7968248,125.652695 70.7751899,125.652695 C71.3871597,125.652695 71.9696268,125.508515 72.4793206,125.258097 C72.5228722,125.231397 72.5813156,125.20526 72.6251481,125.178841 L121.72069,99.1269902 L121.793464,99.0873618 C124.109002,97.8215028 125.652695,95.506195 125.652695,92.8747035 L125.652695,41.2195619 C125.652976,39.4323511 124.051121,37.988024 122.084838,37.988024 Z" id="Shape"></path>
                    <path d="M117.734079,24.3104854 L66.8358944,1.34588395 C66.8358944,1.34588395 63.850073,0 62.1923104,0 C60.5345479,0 57.5630127,1.34588395 57.5630127,1.34588395 L6.62112895,24.3104854 C6.62112895,24.3104854 4.38323353,25.2354645 4.38323353,26.9738745 C4.38323353,28.8176512 6.70824692,30.2051199 6.70824692,30.2051199 L57.8534993,57.2832372 L58.6664136,57.6988034 C59.7263956,58.1728131 60.9289598,58.4431138 62.1923104,58.4431138 C63.4699473,58.4431138 64.6895989,58.1725321 65.7616262,57.6855975 L66.4728562,57.3161116 L117.705227,30.1916329 C117.705227,30.1916329 119.808383,29.0576063 119.808383,26.9735935 C119.808383,25.1475184 117.734079,24.3104854 117.734079,24.3104854 Z" id="Shape"></path>
                    <path d="M54.9210732,64.1520142 L53.799415,63.5778246 L5.63105021,38.5816061 L4.99042377,38.2583961 C4.57036389,38.0802091 4.0750023,37.988024 3.56559189,37.988024 C1.59959926,37.988024 0,39.43207 0,41.2192808 L0,92.8744224 C0,95.5129403 1.54115615,97.8215028 3.85696453,99.0870808 L3.91540765,99.1267091 L53.0129618,125.17856 C53.5518747,125.482096 54.1927821,125.652695 54.8775219,125.652695 C56.8412667,125.652695 58.4431138,124.201903 58.4431138,122.408228 L58.4431138,70.1735571 C58.4428328,67.6668527 57.0446937,65.4639658 54.9210732,64.1520142 Z" id="Shape"></path>
                </g>
            </g>
        </g>
    </g>
</svg>