<svg xmlns="http://www.w3.org/2000/svg" xmlns:xlink="http://www.w3.org/1999/xlink" version="1.1" x="0px" y="0px" viewBox="0 0 100 100" enable-background="new 0 0 100 100" xml:space="preserve"><g><path d="M60.906,47.49l6.505-3.904l-5.438-3.339l4.789-2.875l-10.51-6.457l-12.524,7.25l0.006,0.003L21.16,51.231l20.196,12.262   l23.061-13.846L60.906,47.49z M65.079,43.575l-5.309,3.186l-4.3-2.61l5.333-3.202L65.079,43.575z M56.234,32.324l8.195,5.036   l-3.619,2.173l-0.028-0.018l-6.396,3.702l-8.285-5.029L56.234,32.324z M23.534,51.257l8.345-4.83l0.279,0.183   c0.082,0.053,0.174,0.079,0.265,0.079c0.158,0,0.313-0.077,0.406-0.219c0.119-0.182,0.094-0.41-0.038-0.57l11.955-6.918   l8.228,5.055l-0.011,0.006l1.815,1.102l1.026,0.63c-0.025,0.117-0.009,0.244,0.06,0.354c0.092,0.148,0.25,0.23,0.412,0.23   c0.087,0,0.175-0.023,0.255-0.072l0.053-0.032l5.503,3.381L41.36,62.079L23.534,51.257z"></path><path d="M66.337,52.747L44.445,65.891c-0.287,0.172-0.379,0.544-0.208,0.83c0.114,0.189,0.314,0.294,0.52,0.294   c0.106,0,0.213-0.028,0.311-0.087L66.96,53.784c0.287-0.172,0.38-0.544,0.207-0.83C66.996,52.668,66.626,52.574,66.337,52.747z"></path><path d="M64.967,57.607L47.512,68.026c-0.287,0.171-0.381,0.543-0.209,0.83c0.113,0.189,0.314,0.295,0.52,0.295   c0.105,0,0.212-0.027,0.31-0.086l17.456-10.419c0.287-0.171,0.381-0.543,0.209-0.83C65.626,57.53,65.256,57.435,64.967,57.607z"></path><path d="M39.149,50.024l-0.359-0.235c-0.224-0.146-0.524-0.084-0.67,0.14c-0.146,0.224-0.083,0.524,0.14,0.67l0.359,0.235   c0.082,0.053,0.174,0.079,0.265,0.079c0.158,0,0.313-0.077,0.406-0.219C39.436,50.471,39.373,50.17,39.149,50.024z"></path><path d="M42.38,52.137l-0.359-0.235c-0.223-0.146-0.524-0.083-0.67,0.14c-0.147,0.224-0.084,0.523,0.139,0.671l0.359,0.235   c0.082,0.054,0.174,0.079,0.265,0.079c0.158,0,0.312-0.077,0.405-0.219C42.667,52.584,42.604,52.284,42.38,52.137z"></path><path d="M40.905,51.75c0.146-0.224,0.083-0.523-0.141-0.67l-0.359-0.234c-0.224-0.147-0.524-0.085-0.67,0.141   c-0.146,0.224-0.083,0.523,0.141,0.67l0.359,0.234c0.082,0.054,0.173,0.079,0.264,0.079C40.657,51.97,40.812,51.893,40.905,51.75z"></path><path d="M35.918,47.912l-0.359-0.235c-0.223-0.146-0.524-0.084-0.67,0.14c-0.146,0.224-0.083,0.524,0.14,0.67l0.359,0.235   c0.082,0.053,0.174,0.079,0.265,0.079c0.158,0,0.313-0.077,0.406-0.219C36.205,48.358,36.142,48.058,35.918,47.912z"></path><path d="M34.303,46.855l-0.359-0.235c-0.225-0.146-0.524-0.084-0.67,0.14c-0.146,0.224-0.083,0.524,0.14,0.67l0.359,0.235   c0.082,0.053,0.174,0.079,0.265,0.079c0.158,0,0.313-0.077,0.406-0.219C34.589,47.302,34.526,47.002,34.303,46.855z"></path><path d="M37.534,48.968l-0.359-0.235c-0.225-0.147-0.524-0.084-0.67,0.14c-0.146,0.224-0.083,0.524,0.14,0.67l0.359,0.235   c0.082,0.053,0.174,0.079,0.265,0.079c0.158,0,0.313-0.077,0.406-0.219C37.82,49.415,37.757,49.114,37.534,48.968z"></path><path d="M45.611,54.249l-0.359-0.235c-0.225-0.148-0.525-0.084-0.67,0.14c-0.147,0.224-0.084,0.523,0.139,0.671l0.359,0.235   c0.082,0.054,0.174,0.079,0.265,0.079c0.158,0,0.312-0.077,0.405-0.219C45.897,54.696,45.835,54.396,45.611,54.249z"></path><path d="M44.135,53.862c0.146-0.224,0.083-0.523-0.141-0.67l-0.359-0.234c-0.224-0.148-0.524-0.084-0.67,0.141   c-0.146,0.224-0.083,0.523,0.141,0.67l0.359,0.234c0.082,0.054,0.173,0.079,0.264,0.079C43.888,54.082,44.042,54.005,44.135,53.862   z"></path><path d="M48.981,57.031c0.146-0.224,0.083-0.523-0.141-0.67l-0.359-0.234c-0.225-0.148-0.525-0.084-0.67,0.141   c-0.146,0.224-0.083,0.523,0.141,0.67l0.359,0.234c0.082,0.054,0.173,0.079,0.264,0.079C48.734,57.251,48.889,57.174,48.981,57.031   z"></path><path d="M47.366,55.975c0.146-0.224,0.083-0.523-0.141-0.67l-0.359-0.234c-0.224-0.148-0.524-0.084-0.67,0.141   c-0.146,0.224-0.083,0.523,0.141,0.67l0.359,0.234c0.082,0.054,0.173,0.079,0.264,0.079C47.119,56.194,47.273,56.117,47.366,55.975   z"></path><path d="M49.292,50.182c0.092,0.148,0.25,0.23,0.413,0.23c0.087,0,0.175-0.023,0.254-0.072l0.365-0.225   c0.228-0.141,0.298-0.439,0.158-0.667c-0.141-0.228-0.44-0.299-0.667-0.158l-0.365,0.225   C49.222,49.656,49.151,49.954,49.292,50.182z"></path><path d="M48.062,51.425c0.086,0,0.174-0.023,0.253-0.072l0.365-0.225c0.228-0.141,0.299-0.439,0.158-0.667   c-0.14-0.227-0.438-0.298-0.666-0.158l-0.365,0.225c-0.228,0.14-0.299,0.438-0.158,0.666C47.74,51.343,47.899,51.425,48.062,51.425   z"></path><path d="M51.347,49.398c0.087,0,0.175-0.023,0.254-0.072l0.365-0.225c0.228-0.14,0.299-0.438,0.158-0.666   c-0.142-0.229-0.44-0.298-0.666-0.158l-0.365,0.225c-0.228,0.14-0.299,0.438-0.158,0.666   C51.026,49.316,51.185,49.398,51.347,49.398z"></path><path d="M52.989,48.385c0.087,0,0.175-0.023,0.254-0.072l0.365-0.225c0.228-0.14,0.299-0.438,0.158-0.666   c-0.142-0.229-0.44-0.299-0.666-0.158l-0.365,0.225c-0.228,0.14-0.299,0.438-0.158,0.666   C52.669,48.303,52.827,48.385,52.989,48.385z"></path><path d="M54.22,47.142c0.092,0.148,0.25,0.23,0.412,0.23c0.087,0,0.175-0.023,0.255-0.072l0.365-0.226   c0.228-0.141,0.298-0.439,0.157-0.667c-0.142-0.229-0.438-0.298-0.667-0.158l-0.365,0.226   C54.149,46.616,54.079,46.915,54.22,47.142z"></path><path d="M46.419,52.438c0.086,0,0.174-0.023,0.253-0.072l0.365-0.225c0.228-0.14,0.299-0.438,0.159-0.666   c-0.141-0.228-0.438-0.299-0.667-0.158l-0.365,0.225c-0.228,0.14-0.299,0.438-0.159,0.666   C46.098,52.355,46.256,52.438,46.419,52.438z"></path><path d="M44.776,53.451c0.087,0,0.175-0.023,0.254-0.072l0.365-0.226c0.228-0.141,0.298-0.439,0.158-0.667   c-0.142-0.227-0.44-0.299-0.667-0.157l-0.365,0.226c-0.228,0.141-0.298,0.439-0.158,0.667   C44.456,53.369,44.614,53.451,44.776,53.451z"></path><path d="M99.779,48.448l-8.139-5.147l2.158-5.425l-9.224-0.991l-0.647,1.469L54.731,20.757L0.437,52.182l46.311,28.112   l25.397-15.22l-0.519,1.177l10.353,1.333l4.351-10.934L99.779,48.448z M87.438,54.188l3.688-9.375l5.402,3.609L87.438,54.188z    M73.249,62.513L46.756,78.292L3.801,52.217L54.714,22.75l28.516,17.187l-9.972,22.615L73.249,62.513z M81.223,66.299l-7.884-1.015   l1.592-3.61l3.782,0.688l0.211-1.158l-3.505-0.638l0.521-1.179l4.711,0.923l0.227-1.156l-4.45-0.872l0.524-1.188l3.008,0.455   l0.176-1.164l-2.691-0.407l0.563-1.28l4.916,0.802l0.189-1.162l-4.614-0.752l0.492-1.116l5.471,0.88l0.188-1.162l-5.167-0.831   l0.52-1.179l3.653,0.51l0.162-1.166l-3.321-0.464l0.558-1.266l4.859,0.642l0.154-1.167l-4.519-0.597l0.56-1.27l3.721,0.373   l0.117-1.172l-3.338-0.334l0.503-1.14l5.064,0.596l0.137-1.17l-4.704-0.553l0.663-1.504l3.503,0.359l0.119-1.172l-3.123-0.32   l0.536-1.215l6.825,0.733L81.223,66.299z"></path><path d="M65.907,45.784l-0.182,0.114c-0.227,0.142-0.296,0.44-0.153,0.667c0.092,0.147,0.249,0.228,0.41,0.228   c0.088,0,0.177-0.024,0.257-0.074l0.182-0.114c0.227-0.142,0.296-0.44,0.153-0.667C66.432,45.709,66.133,45.641,65.907,45.784z"></path><path d="M68.596,44.103l-0.299,0.187c-0.227,0.142-0.296,0.44-0.154,0.667c0.092,0.147,0.25,0.228,0.411,0.228   c0.088,0,0.177-0.024,0.257-0.074l0.299-0.187c0.227-0.142,0.296-0.44,0.154-0.667C69.121,44.03,68.822,43.961,68.596,44.103z"></path><path d="M67.252,44.943l-0.299,0.187c-0.227,0.142-0.296,0.44-0.154,0.667c0.092,0.147,0.25,0.228,0.411,0.228   c0.088,0,0.177-0.024,0.257-0.074l0.299-0.187c0.227-0.142,0.296-0.44,0.154-0.667C67.778,44.87,67.478,44.801,67.252,44.943z"></path><path d="M70.164,43.224c-0.223-0.145-0.524-0.083-0.67,0.143c-0.075,0.115-0.095,0.251-0.065,0.375   c-0.031,0.124-0.014,0.259,0.06,0.376c0.092,0.147,0.249,0.228,0.41,0.228c0.088,0,0.177-0.024,0.257-0.074l0.182-0.114   c0.141-0.087,0.226-0.241,0.228-0.406c0.001-0.166-0.082-0.32-0.221-0.41L70.164,43.224z"></path><path d="M68.11,43.044l0.339,0.22c0.081,0.053,0.173,0.078,0.264,0.078c0.158,0,0.313-0.078,0.406-0.221   c0.146-0.224,0.082-0.524-0.143-0.67l-0.339-0.22c-0.223-0.145-0.524-0.083-0.67,0.143C67.822,42.598,67.886,42.898,68.11,43.044z"></path><path d="M66.601,41.485c-0.146,0.224-0.082,0.524,0.143,0.67l0.18,0.117c0.081,0.053,0.173,0.078,0.264,0.078   c0.158,0,0.313-0.078,0.406-0.221c0.146-0.224,0.082-0.524-0.143-0.67l-0.18-0.117C67.048,41.198,66.746,41.26,66.601,41.485z"></path><path d="M22.824,49.262c0.088,0,0.177-0.024,0.256-0.074l0.182-0.114c0.227-0.142,0.295-0.44,0.153-0.667   c-0.143-0.228-0.442-0.296-0.667-0.153l-0.182,0.114c-0.227,0.142-0.295,0.44-0.153,0.667   C22.505,49.181,22.663,49.262,22.824,49.262z"></path><path d="M21.479,50.102c0.087,0,0.176-0.024,0.256-0.074l0.299-0.187c0.227-0.142,0.296-0.44,0.154-0.667   c-0.142-0.227-0.439-0.296-0.667-0.154l-0.299,0.187c-0.227,0.142-0.296,0.44-0.154,0.667   C21.16,50.021,21.318,50.102,21.479,50.102z"></path><path d="M20.391,50.868l0.299-0.187c0.227-0.142,0.296-0.44,0.154-0.667c-0.142-0.226-0.441-0.296-0.667-0.154l-0.299,0.187   c-0.227,0.142-0.296,0.44-0.154,0.667c0.092,0.147,0.25,0.228,0.411,0.228C20.223,50.942,20.312,50.918,20.391,50.868z"></path><path d="M19.5,50.855c-0.141-0.227-0.44-0.296-0.667-0.154l-0.182,0.113c-0.14,0.087-0.226,0.241-0.228,0.406   c-0.001,0.165,0.082,0.32,0.22,0.41l0.18,0.117c0.082,0.054,0.173,0.079,0.264,0.079c0.158,0,0.313-0.077,0.406-0.22   c0.075-0.115,0.095-0.251,0.065-0.376C19.589,51.107,19.572,50.972,19.5,50.855z"></path><path d="M20.878,51.928l-0.339-0.221c-0.225-0.146-0.525-0.082-0.67,0.143c-0.146,0.224-0.083,0.523,0.142,0.67l0.339,0.221   c0.082,0.053,0.173,0.078,0.264,0.078c0.158,0,0.313-0.078,0.406-0.221C21.166,52.374,21.102,52.074,20.878,51.928z"></path><path d="M22.246,52.817l-0.18-0.117c-0.224-0.147-0.525-0.084-0.67,0.141c-0.146,0.225-0.083,0.524,0.141,0.67l0.18,0.117   c0.082,0.054,0.173,0.079,0.264,0.079c0.158,0,0.313-0.077,0.406-0.22C22.533,53.263,22.47,52.963,22.246,52.817z"></path></g></svg>