<?xml version="1.0" encoding="utf-8"?>
<!-- Generator: Adobe Illustrator 21.0.0, SVG Export Plug-In . SVG Version: 6.00 Build 0)  -->
<svg version="1.1" id="Layer_1" xmlns="http://www.w3.org/2000/svg" xmlns:xlink="http://www.w3.org/1999/xlink" x="0px" y="0px"
	 viewBox="0 0 512 512" style="enable-background:new 0 0 512 512;" xml:space="preserve">
<g>
	<path d="M389.2,312.6c-2,6-8.9,10.9-15.2,10.9H178.3c-6.3,0-12.8-5-14.5-11.1l-52-192.4c-1.6-6.1-8.2-11.1-14.5-11.1
		H58.1c-6.3,0-11.5-3.2-11.5-9.5V93c0-6.3,5.2-11.5,11.5-11.5h63.1c6.3,0,12.8,5,14.5,11.1l52,190.1c1.6,6.1,8.2,11.1,14.5,11.1
		h150.7c6.3,0,13.2-4.9,15.2-10.9l42.3-149c2.1-6,7.7-6.9,13-6.4l12.3-0.1c11.1,0,9.2,8.6,7.2,14.6L389.2,312.6z"/>
	<path d="M230.7,384.9c0,17.3-14.1,31.4-31.4,31.4s-31.4-14.1-31.4-31.4s14.1-31.4,31.4-31.4
		C216.7,353.5,230.7,367.5,230.7,384.9z"/>
	<path d="M380,384.9c0,17.3-14.1,31.4-31.4,31.4s-31.4-14.1-31.4-31.4s14.1-31.4,31.4-31.4S380,367.5,380,384.9z"/>
</g>
</svg>
