<svg id="Layer_1" data-name="Layer 1" xmlns="http://www.w3.org/2000/svg" viewBox="0 0 51.53 51.53"><title>build-order-add</title><circle cx="9.15" cy="11.72" r="2.55"/><circle cx="9.15" cy="19.38" r="2.55"/><circle cx="9.15" cy="27.04" r="2.55"/><rect x="14.26" y="10.44" width="17.87" height="2.55"/><rect x="14.26" y="18.1" width="17.87" height="2.55"/><polygon points="42.7 35.27 37.66 35.27 37.66 30.11 35.31 30.11 35.31 35.27 30.27 35.27 30.27 37.63 35.31 37.63 35.31 42.88 37.66 42.88 37.66 37.63 42.7 37.63 42.7 35.27"/><path d="M37.66,22.6V1.09H1.09V37.66H22.61A13.94,13.94,0,1,0,37.66,22.6ZM3.44,3.44H35.31V22.6a13.88,13.88,0,0,0-7.71,3.15H14.26v2.55h11a13.85,13.85,0,0,0-2.62,7H3.44ZM36.49,48.08A11.6,11.6,0,1,1,48.09,36.49,11.61,11.61,0,0,1,36.49,48.08Z"/></svg>