<?xml version="1.0" encoding="utf-8"?>
<!-- Generator: Adobe Illustrator 16.0.4, SVG Export Plug-In . SVG Version: 6.00 Build 0)  -->
<!DOCTYPE svg PUBLIC "-//W3C//DTD SVG 1.1//EN" "http://www.w3.org/Graphics/SVG/1.1/DTD/svg11.dtd">
<svg version="1.1" id="Layer_1" xmlns="http://www.w3.org/2000/svg" xmlns:xlink="http://www.w3.org/1999/xlink" x="0px" y="0px"
	 width="512px" height="512px" viewBox="0 0 512 512" enable-background="new 0 0 512 512" xml:space="preserve">
<g>
	<path d="M390.921,307.26c-1.492,5.531-6.487,10.057-11.104,10.057H171.295c-4.616,0-9.379-4.613-10.584-10.258l-37.976-177.859
		c-1.205-5.641-5.967-10.255-10.583-10.255H83.493c-4.616,0-8.394-4.783-8.394-10.625v-29.24c0-5.841,3.777-10.625,8.394-10.625
		h59.193c4.616,0,9.378,4.618,10.583,10.258l37.976,177.86c1.205,5.642,5.967,10.259,10.584,10.259h149.456
		c4.617,0,9.611-4.528,11.105-10.058l30.92-114.701c1.492-5.53,6.283-8.512,10.654-6.623l21.859,9.442
		c4.366,1.885,6.723,7.955,5.232,13.485L390.921,307.26z"/>
	<path d="M391.892,384.834c0,18.758-15.204,33.958-33.958,33.958c-18.767,0-33.963-15.2-33.963-33.958
		c0-18.752,15.196-33.955,33.963-33.955C376.688,350.879,391.892,366.082,391.892,384.834z"/>
	<path d="M228.87,384.834c0,18.758-15.201,33.958-33.956,33.958c-18.75,0-33.95-15.2-33.95-33.958
		c0-18.752,15.2-33.955,33.95-33.955C213.669,350.879,228.87,366.082,228.87,384.834z"/>
</g>
</svg>
