<?xml version="1.0" encoding="utf-8"?>
<!-- Generator: Adobe Illustrator 23.0.2, SVG Export Plug-In . SVG Version: 6.00 Build 0)  -->
<svg version="1.1" id="Layer_1" xmlns="http://www.w3.org/2000/svg" xmlns:xlink="http://www.w3.org/1999/xlink" x="0px" y="0px"
	 viewBox="0 0 167 244" style="enable-background:new 0 0 167 244;" xml:space="preserve">
<path id="Shape" d="M151.94,149.33c-6.11,12.55-10.27,19.76-12.49,21.64c-0.55,0.47-4.98,0.77-4.21-3.01
	c0.38-1.87,2.82-7.57,6.81-18.63c4.23-11.75,5.97-22.28,5.97-22.28c1.47-9.16,0.36-22.44-1.06-29.54
	c-2.78-13.89-11.71-22.26-21.56-25.04c-11.89-3.36-46.32-1.86-64.89-2.37v24.88L0.22,47.78L60.51,0.71v24.98
	c20.24,0.9,50.21,0.51,70.73,10.08c7.19,3.35,12.48,5.95,17.75,10.75c5.59,5.11,13.7,12.13,16.68,31.62
	c1.53,10.03-0.87,30.34-2.78,39.76C160.98,127.31,157.86,137.31,151.94,149.33z"/>
<path d="M122.08,156.34c-0.51,0-0.99,0.09-1.42,0.27l-0.64,0.32l-48.18,25l-1.09,0.56c0,0-0.01,0.01-0.01,0.01
	c-2.12,1.31-3.52,3.51-3.52,6.02v52.23c0,1.79,1.59,3.24,3.57,3.24c0.61,0,1.19-0.14,1.7-0.39c0.04-0.03,0.1-0.05,0.15-0.08
	l49.1-26.05l0.07-0.04c2.32-1.27,3.86-3.58,3.86-6.21v-51.66C125.65,157.78,124.05,156.34,122.08,156.34z"/>
<path d="M117.73,142.66l-50.9-22.96c0,0-2.99-1.35-4.64-1.35c-1.66,0-4.63,1.35-4.63,1.35L6.62,142.66c0,0-2.24,0.92-2.24,2.66
	c0,1.84,2.33,3.23,2.33,3.23l51.15,27.08l0.81,0.42c1.06,0.47,2.26,0.74,3.53,0.74c1.28,0,2.5-0.27,3.57-0.76l0.71-0.37l51.23-27.12
	c0,0,2.1-1.13,2.1-3.22C119.81,143.49,117.73,142.66,117.73,142.66z"/>
<path d="M54.92,182.5l-1.12-0.57l-48.17-25l-0.64-0.32c-0.42-0.18-0.92-0.27-1.42-0.27c-1.97,0-3.57,1.44-3.57,3.23v51.66
	c0,2.64,1.54,4.95,3.86,6.21l0.06,0.04l49.1,26.05c0.54,0.3,1.18,0.47,1.86,0.47c1.96,0,3.57-1.45,3.57-3.24v-52.23
	C58.44,186.01,57.04,183.81,54.92,182.5z"/>
</svg>
