<?xml version="1.0" encoding="utf-8"?>
<!-- Generator: Adobe Illustrator 22.1.0, SVG Export Plug-In . SVG Version: 6.00 Build 0)  -->
<svg version="1.1" id="Layer_1" xmlns="http://www.w3.org/2000/svg" xmlns:xlink="http://www.w3.org/1999/xlink" x="0px" y="0px"
	 viewBox="0 0 1053.4 371.9" style="enable-background:new 0 0 1053.4 371.9;" xml:space="preserve">
<ellipse transform="matrix(0.7071 -0.7071 0.7071 0.7071 -75.1451 420.9647)" cx="470.6" cy="301.2" rx="65.1" ry="65.1"/>
<ellipse cx="858" cy="302.1" rx="65.2" ry="65.6"/>
<path d="M1008,8.4H810.6L679.5,292H773c14.5-55.5,43.1-76.4,87.3-76.4c44.3,0,71.8,20.9,82.1,76.4h65.6l34.2-109L1008,8.4z
	 M825.4,153.4l45.7-113.1H969l20.6,113.1H825.4z"/>
<path d="M314.8,4.2l-39.2,63.4h87.2V81h-95.4l8.1-13.4H131.4h-6.7V81h6.7h136l-28.9,46.7h74.3v13.4h-82.5l8.1-13.4h-73.6H158v13.4
	h6.7h65.4L197,194.5H17.9h-6.7v13.4h6.7h170.8l8.6-13.4h65.4v13.4h-73.9l-50.1,81h247.5c11.5-52.3,46-71.4,86.4-71.4
	s74.1,24.8,81.8,71.4h99L787.4,4.3L314.8,4.2L314.8,4.2z"/>
</svg>
