<?xml version="1.0" encoding="utf-8"?>
<!-- Generator: Adobe Illustrator 19.0.0, SVG Export Plug-In . SVG Version: 6.00 Build 0)  -->
<svg id="Layer_1" data-name="Layer 1" xmlns="http://www.w3.org/2000/svg" viewBox="0 0 448 448"><title>close-circled</title><path d="M256,33C132.49,33,32,133.49,32,257S132.49,481,256,481,480,380.52,480,257,379.52,33,256,33ZM395.93,408.11c-33.87-24.41-85.16-28.35-95.73-56.78-0.23-2.57-.4-6.7-0.54-11,38.93-4,66.24-13.32,66.24-24.2a1,1,0,0,1-.1-0.63C336.7,289.29,391,102.91,289.89,106.7c-6.35-5.38-17.47-10.15-33.42-10.15-137,10.37-76.43,186.37-107.65,219.59h-0.06s0,0,0,.05v0h0c0.13,10.65,26.51,19.82,64.31,23.91-0.11,2.6-.33,5.81-0.82,11.2-10.58,28.45-62.14,32.39-96.13,56.85A205.53,205.53,0,0,1,49.92,257C49.92,143.37,142.37,50.92,256,50.92S462.08,143.37,462.08,257A205.53,205.53,0,0,1,395.93,408.11Z" transform="translate(-32 -33)"/></svg>