<?xml version="1.0" encoding="UTF-8"?>
<svg width="153px" height="244px" viewBox="0 0 153 244" version="1.1" xmlns="http://www.w3.org/2000/svg" xmlns:xlink="http://www.w3.org/1999/xlink">
    <!-- Generator: Sketch 51.3 (57544) - http://www.bohemiancoding.com/sketch -->
    <title>shippingPin</title>
    <desc>Created with Sketch.</desc>
    <defs></defs>
    <g id="icons" stroke="none" stroke-width="1" fill="none" fill-rule="evenodd">
        <g id="shippingPin" fill="#000000" fill-rule="nonzero">
            <g>
                <g id="location">
                    <path d="M76.25,0 C118.123958,0 152.055208,34.121875 152.055208,76.25 C152.055208,149.06875 76.25,244 76.25,244 C76.25,244 0.444791667,149.06875 0.444791667,76.25 C0.444791667,34.121875 34.3760417,0 76.25,0 Z M76.25,139.791667 C110.992163,139.791667 139.15625,111.627579 139.15625,76.8854167 C139.15625,42.1432541 110.992163,13.9791667 76.25,13.9791667 C41.5078375,13.9791667 13.34375,42.1432541 13.34375,76.8854167 C13.34375,111.627579 41.5078375,139.791667 76.25,139.791667 Z" id="Shape"></path>
                </g>
                <g id="cube" transform="translate(31.770833, 32.406250)">
                    <path d="M86.4369085,26.6875 C86.078492,26.6875 85.738741,26.7531815 85.4301653,26.8795534 L84.9772302,27.1091392 L50.9276687,44.8646996 L50.1556338,45.2631805 C50.1556338,45.2631805 50.1453082,45.2677722 50.1453082,45.2725636 C48.6441291,46.2044819 47.65625,47.7692583 47.65625,49.5498453 L47.65625,86.653692 C47.65625,87.9277929 48.7779644,88.9583333 50.1760863,88.9583333 C50.6085689,88.9583333 51.0202017,88.8559181 51.3804053,88.6780391 C51.4111834,88.6590733 51.4524857,88.6405068 51.4834624,88.6217407 L86.1795635,70.1163334 L86.2309927,70.0881842 C87.8673971,69.1890067 88.9583333,67.5443745 88.9583333,65.6751474 L88.9583333,28.9829579 C88.9585319,27.7134487 87.826492,26.6875 86.4369085,26.6875 Z" id="Shape"></path>
                    <path d="M83.6727738,16.9160461 L47.5276132,0.936510913 C47.5276132,0.936510913 45.407243,0 44.2299889,0 C43.0527349,0 40.94251,0.936510913 40.94251,0.936510913 L4.76631662,16.9160461 C4.76631662,16.9160461 3.17708333,17.5596774 3.17708333,18.769321 C3.17708333,20.0522823 4.82818313,21.0177293 4.82818313,21.0177293 L41.148798,39.8595859 L41.7260861,40.1487507 C42.4788285,40.4785824 43.3328251,40.6666667 44.2299889,40.6666667 C45.1372981,40.6666667 46.0034292,40.4783869 46.7647255,40.1395616 L47.2698029,39.882461 L83.6522843,21.0083446 C83.6522843,21.0083446 85.1458333,20.2192511 85.1458333,18.7691255 C85.1458333,17.4984816 83.6727738,16.9160461 83.6727738,16.9160461 Z" id="Shape"></path>
                    <path d="M38.8130371,45.2725636 L38.0203548,44.8646996 L3.97949544,27.1091392 L3.52676107,26.8795534 C3.22990234,26.7529818 2.87982747,26.6875 2.51982422,26.6875 C1.13044596,26.6875 0,27.7132491 0,28.9827582 L0,65.6749478 C0,67.5491658 1.08914388,69.1890067 2.72573893,70.0879846 L2.76704102,70.1161338 L37.4645638,88.6215411 C37.8454167,88.837152 38.2983496,88.9583333 38.7822591,88.9583333 C40.1700488,88.9583333 41.3020833,87.9277929 41.3020833,86.653692 L41.3020833,49.5498453 C41.3018848,47.7692583 40.3138118,46.2044819 38.8130371,45.2725636 Z" id="Shape"></path>
                </g>
            </g>
        </g>
    </g>
</svg>