<?xml version="1.0" encoding="utf-8"?>
<!-- Generator: Adobe Illustrator 16.2.1, SVG Export Plug-In . SVG Version: 6.00 Build 0)  -->
<!DOCTYPE svg PUBLIC "-//W3C//DTD SVG 1.1//EN" "http://www.w3.org/Graphics/SVG/1.1/DTD/svg11.dtd">
<svg version="1.1" id="Layer_1" xmlns="http://www.w3.org/2000/svg" xmlns:xlink="http://www.w3.org/1999/xlink" x="0px" y="0px"
	 width="512px" height="512px" viewBox="0 0 512 512" style="enable-background:new 0 0 512 512;" xml:space="preserve">
<path d="M448.9,64H416v40.7c0,22.5-23.2,39.3-47.2,39.3S320,127.2,320,104.7V64H192v40.7c0,22.5-24,39.3-48,39.3s-48-16.8-48-39.3
	V64H63.1C45.9,64,32,77.3,32,93.4v357.5C32,467,45.9,480,63.1,480h385.8c17.2,0,31.1-13,31.1-29.2V93.4C480,77.3,466.1,64,448.9,64z
	 M432,419.9c0,6.6-5.8,12-12.8,12L92.7,432c-7-0.3-12.7-5.6-12.7-12.2V188.3c0-6.9,5.9-12.3,13.3-12.3h325.5
	c7.3,0,13.2,5.3,13.2,12.1V419.9z"/>
<path d="M176,96c0,17.7-14.3,32-32,32l0,0c-17.7,0-32-14.3-32-32V64c0-17.7,14.3-32,32-32l0,0c17.7,0,32,14.3,32,32V96z"/>
<path d="M400,96c0,17.7-14.3,32-32,32l0,0c-17.7,0-32-14.3-32-32V64c0-17.7,14.3-32,32-32l0,0c17.7,0,32,14.3,32,32V96z"/>
</svg>
