<?xml version="1.0" encoding="utf-8"?>
<!-- Generator: Adobe Illustrator 16.2.1, SVG Export Plug-In . SVG Version: 6.00 Build 0)  -->
<!DOCTYPE svg PUBLIC "-//W3C//DTD SVG 1.1//EN" "http://www.w3.org/Graphics/SVG/1.1/DTD/svg11.dtd">
<svg version="1.1" id="Layer_1" xmlns="http://www.w3.org/2000/svg" xmlns:xlink="http://www.w3.org/1999/xlink" x="0px" y="0px"
	 width="512px" height="512px" viewBox="0 0 512 512" style="enable-background:new 0 0 512 512;" xml:space="preserve">
<g>
	<path d="M95.7,421h16.1c0,9.1,0,30.7,0,42.8L165,424c1.9-1.4,5.4-3,13.3-3h81.8c23,0,42.2-15.7,46.7-36.3l-18.7-17.4
		c-0.6-0.6-1.3-1.1-2-1.6c0,0,0-0.2,0-0.2c-2.6-1.8-7.2-4.4-17.5-4.4H160.5c-34.7,0-64.5-26.3-64.5-59.4V201h-1.8
		C67.9,201,48,221.4,48,246.4v128.9C48,400.3,69.4,421,95.7,421z"/>
	<path d="M183.7,338h108.1c10.4,0,15,2.3,17.5,4.2l74.7,53.1L384,338h17c34.8,0,63-26.9,63-59.9V107.8c0-33-28.2-59.8-63-59.8H183.7
		C149,48,121,74.8,121,107.8v69.7v100.5C121,311.1,149,338,183.7,338z"/>
</g>
</svg>
