<?xml version="1.0" encoding="UTF-8" standalone="no"?><!DOCTYPE svg PUBLIC "-//W3C//DTD SVG 1.1//EN" "http://www.w3.org/Graphics/SVG/1.1/DTD/svg11.dtd"><svg width="100%" height="100%" viewBox="0 0 512 512" version="1.1" xmlns="http://www.w3.org/2000/svg" xmlns:xlink="http://www.w3.org/1999/xlink" xml:space="preserve" style="fill-rule:evenodd;clip-rule:evenodd;stroke-linejoin:round;stroke-miterlimit:1.41421;"><path d="M508.057,76.537l-67.321,-53.097c-2.085,-1.716 -4.66,-2.943 -7.603,-2.943c-2.943,0 -5.641,1.227 -7.726,3.066l-244.883,314.657c0,0 -96.261,-92.582 -98.959,-95.28c-2.698,-2.697 -6.254,-7.235 -11.649,-7.235c-5.396,0 -7.848,3.802 -10.669,6.622c-2.084,2.208 -36.42,38.259 -53.342,56.163c-0.981,1.103 -1.594,1.717 -2.452,2.575c-1.472,2.085 -2.453,4.414 -2.453,6.99c0,2.697 0.981,4.905 2.453,6.989l3.433,3.189c0,0 170.818,164.073 173.638,166.893c2.82,2.82 6.254,6.377 11.281,6.377c4.906,0 8.952,-5.273 11.282,-7.603l305.46,-392.402c1.472,-2.085 2.453,-4.415 2.453,-7.113c0,-3.065 -1.226,-5.64 -2.943,-7.848Z" style="fill:#000;fill-rule:nonzero;"/></svg>