<?xml version="1.0" encoding="utf-8"?>
<!-- Generator: Adobe Illustrator 16.2.1, SVG Export Plug-In . SVG Version: 6.00 Build 0)  -->
<!DOCTYPE svg PUBLIC "-//W3C//DTD SVG 1.1//EN" "http://www.w3.org/Graphics/SVG/1.1/DTD/svg11.dtd">
<svg version="1.1" id="Layer_1" xmlns="http://www.w3.org/2000/svg" xmlns:xlink="http://www.w3.org/1999/xlink" x="0px" y="0px"
	 width="512px" height="512px" viewBox="0 0 512 512" style="enable-background:new 0 0 512 512;" xml:space="preserve">
<g>
	<g>
		<path d="M160,160h192c-1.7-20-9.7-35.2-27.9-40.1c-0.4-0.1-0.9-0.3-1.3-0.4c-12-3.4-20.8-7.5-20.8-20.7V78.2
			c0-25.5-20.5-46.3-46-46.3c-25.5,0-46,20.7-46,46.3v20.6c0,13.1-8.8,17.2-20.8,20.6c-0.4,0.1-0.9,0.4-1.4,0.5
			C169.6,124.8,161.9,140,160,160z M256,64.4c7.6,0,13.8,6.2,13.8,13.8c0,7.7-6.2,13.8-13.8,13.8c-7.6,0-13.8-6.2-13.8-13.8
			C242.2,70.6,248.4,64.4,256,64.4z"/>
		<path d="M404.6,63H331v14.5c0,10.6,8.7,18.5,19,18.5h37.2c6.7,0,12.1,5.7,12.4,12.5l0.1,327.2c-0.3,6.4-5.3,11.6-11.5,12.1
			l-264.4,0.1c-6.2-0.5-11.1-5.7-11.5-12.1l-0.1-327.3c0.3-6.8,5.9-12.5,12.5-12.5H162c10.3,0,19-7.9,19-18.5V63h-73.6
			C92.3,63,80,76.1,80,91.6V452c0,15.5,12.3,28,27.4,28H256h148.6c15.1,0,27.4-12.5,27.4-28V91.6C432,76.1,419.7,63,404.6,63z"/>
	</g>
	<rect x="144" y="192" width="112" height="16"/>
	<rect x="144" y="288" width="160" height="16"/>
	<rect x="144" y="384" width="129" height="16"/>
	<rect x="144" y="336" width="176" height="16"/>
	<rect x="144" y="240" width="208" height="16"/>
</g>
</svg>
