<?xml version="1.0" encoding="utf-8"?>
<!-- Generator: Adobe Illustrator 16.2.1, SVG Export Plug-In . SVG Version: 6.00 Build 0)  -->
<!DOCTYPE svg PUBLIC "-//W3C//DTD SVG 1.1//EN" "http://www.w3.org/Graphics/SVG/1.1/DTD/svg11.dtd">
<svg version="1.1" id="Layer_1" xmlns="http://www.w3.org/2000/svg" xmlns:xlink="http://www.w3.org/1999/xlink" x="0px" y="0px"
	 width="512px" height="512px" viewBox="0 0 512 512" style="enable-background:new 0 0 512 512;" xml:space="preserve">
<g>
	<path d="M256,32C132.3,32,32,132.3,32,256c0,123.7,100.3,224,224,224c123.7,0,224-100.3,224-224C480,132.3,379.7,32,256,32z
		 M425,164.7l-5-8.7C421.7,158.8,423.4,161.7,425,164.7z M356,92l-8.6-5C350.3,88.6,353.2,90.3,356,92z M164.9,86.9l-9.1,5.3
		C158.8,90.3,161.8,88.5,164.9,86.9z M92.1,155.9l-5.2,9C88.6,161.8,90.3,158.8,92.1,155.9z M86.9,347.1l5.3,9.2
		C90.3,353.2,88.5,350.2,86.9,347.1z M155.7,419.8l9.3,5.4C161.9,423.5,158.8,421.7,155.7,419.8z M347.3,425l8.8-5.1
		C353.2,421.7,350.2,423.4,347.3,425z M391.8,391.8c-10.1,10.1-21.1,18.9-32.9,26.4l-15.9-27.6l-13.9,8l16,27.6
		c-24.8,13-52.4,20.5-81,21.6V416h-16v31.8c-28.7-1.2-56.2-8.6-81-21.6l16-27.6l-13.9-8l-15.9,27.6c-11.8-7.5-22.8-16.3-32.9-26.4
		c-10.1-10.1-18.9-21.1-26.4-32.9l27.6-15.9l-8-13.9l-27.6,16c-13-24.8-20.5-52.4-21.6-81H96v-16H64.2c1.2-28.7,8.6-56.2,21.6-81
		l27.6,16l8-13.9l-27.6-15.9c7.5-11.8,16.3-22.8,26.4-32.9c10.1-10.1,21.1-18.9,32.9-26.4l15.9,27.6l13.9-8l-16-27.6
		c24.8-13,52.4-20.5,81-21.6V96h16V64.2c28.7,1.2,56.2,8.6,81,21.6l-16,27.6l13.9,8l15.9-27.6c11.8,7.5,22.8,16.3,32.9,26.4
		c10.1,10.1,18.9,21.1,26.4,32.9l-27.6,15.9l8,13.9l27.6-16c13,24.8,20.5,52.4,21.6,81H416v16h31.8c-1.2,28.7-8.6,56.2-21.6,81
		l-27.6-16l-8,13.9l27.6,15.9C410.7,370.6,401.9,381.7,391.8,391.8z M425.1,347.2c-1.6,3-3.4,6-5.2,8.9L425.1,347.2z"/>
	<path d="M400,249H287.2c-2-8.8-7.6-16.3-15.2-20.7V144h-32v84.3c-9.6,5.5-16,15.9-16,27.7c0,7.4,2.5,14.2,6.8,19.7l-70.4,70.7
		l5.7,5.7l70.4-70.7c5.4,4.2,12.2,6.7,19.6,6.7c14.5,0,26.8-9.7,30.7-23H400V249z"/>
</g>
</svg>
