<?xml version="1.0" encoding="utf-8"?>
<!-- Generator: Adobe Illustrator 16.2.1, SVG Export Plug-In . SVG Version: 6.00 Build 0)  -->
<!DOCTYPE svg PUBLIC "-//W3C//DTD SVG 1.1//EN" "http://www.w3.org/Graphics/SVG/1.1/DTD/svg11.dtd">
<svg version="1.1" id="Layer_1" xmlns="http://www.w3.org/2000/svg" xmlns:xlink="http://www.w3.org/1999/xlink" x="0px" y="0px"
	 width="512px" height="512px" viewBox="0 0 512 512" style="enable-background:new 0 0 512 512;" xml:space="preserve">
<g>
	<g>
		<path d="M331,284.1c6.5-6.5,6.5-17,0-23.4c-6.5-6.5-17.3-6.5-23.8,0L272,295.4V176.6c0-9.2-6.8-16.6-16-16.6
			c-9.2,0-16,7.4-16,16.6v118.9l-35-34.8c-6.5-6.5-17.1-6.5-23.6,0c-6.5,6.5-6.5,17-0.1,23.4l63.1,63c0,0,0,0,0,0.1
			c0.7,0.7,1.5,1.4,2.4,1.9c0.1,0.1,0.2,0.1,0.3,0.2c0.3,0.2,0.7,0.4,1,0.6c0.1,0.1,0.2,0.1,0.3,0.2c0.4,0.2,0.8,0.4,1.3,0.6
			c0,0,0,0,0,0c0.4,0.2,0.8,0.3,1.2,0.4c0.1,0,0.2,0.1,0.3,0.1c0.2,0,0.3,0.1,0.5,0.1c1.4,0.4,2.9,0.6,4.3,0.6
			c1.4,0,2.9-0.2,4.3-0.6c0.2,0,0.3-0.1,0.5-0.1c0.1,0,0.2-0.1,0.3-0.1c0.4-0.1,0.8-0.3,1.2-0.4c0,0,0,0,0,0
			c0.4-0.2,0.9-0.4,1.3-0.6c0.1-0.1,0.2-0.1,0.4-0.2c0.3-0.2,0.7-0.4,1-0.6c0.1-0.1,0.2-0.1,0.3-0.2c0.4-0.3,0.8-0.6,1.2-0.9
			c0,0,0,0,0,0c0.4-0.3,0.8-0.7,1.2-1.1c0,0,0.1,0,0.1-0.1L331,284.1z"/>
	</g>
	<path d="M336,368c-4.1,0-8.2-1.6-11.3-4.7c-6.2-6.2-6.2-16.4,0-22.6l84.7-84.7l-84.7-84.7c-6.2-6.2-6.2-16.4,0-22.6
		c6.2-6.2,16.4-6.2,22.6,0l96,96c6.2,6.2,6.2,16.4,0,22.6l-96,96C344.2,366.4,340.1,368,336,368z"/>
	<path d="M176,368c4.1,0,8.2-1.6,11.3-4.7c6.2-6.2,6.2-16.4,0-22.6L102.6,256l84.7-84.7c6.2-6.2,6.2-16.4,0-22.6
		c-6.2-6.2-16.4-6.2-22.6,0l-96,96c-6.2,6.2-6.2,16.4,0,22.6l96,96C167.8,366.4,171.9,368,176,368z"/>
</g>
</svg>
