<?xml version="1.0" standalone="no"?><!DOCTYPE svg PUBLIC "-//W3C//DTD SVG 1.1//EN" "http://www.w3.org/Graphics/SVG/1.1/DTD/svg11.dtd"><svg width="100%" height="100%" viewBox="0 0 512 512" version="1.1" xmlns="http://www.w3.org/2000/svg" xmlns:xlink="http://www.w3.org/1999/xlink" xml:space="preserve" style="fill-rule:evenodd;clip-rule:evenodd;stroke-linejoin:round;stroke-miterlimit:1.41421;"><path d="M449.658,281.495c1.3,-7.644 1.3,-16.572 1.3,-25.5c0,-8.927 -1.3,-16.572 -1.3,-25.499l54.759,-42.072c5.223,-3.823 6.521,-10.197 2.612,-16.573l-52.163,-87.978c-2.61,-5.105 -10.429,-7.644 -15.652,-5.105l-65.203,25.501c-13.041,-10.198 -28.68,-19.126 -44.33,-25.501l-9.131,-67.571c-1.299,-5.092 -6.521,-10.197 -13.041,-10.197l-104.326,0c-6.519,0 -11.741,5.105 -13.04,10.197l-10.431,67.571c-15.651,6.375 -29.991,15.302 -44.343,25.501l-65.203,-25.501c-6.521,-2.539 -13.042,0 -15.652,5.105l-52.163,87.98c-2.597,5.091 -1.3,12.748 2.61,16.572l56.076,42.071c0,8.927 -1.299,16.572 -1.299,25.499c0,8.928 1.299,16.573 1.299,25.5l-54.76,42.072c-5.223,3.822 -6.52,10.196 -2.611,16.572l52.162,87.979c2.612,5.105 10.431,7.644 15.652,5.105l65.204,-25.501c13.041,10.197 28.68,19.126 44.33,25.501l10.431,67.57c1.31,6.375 6.519,10.197 13.04,10.197l104.326,0c6.52,0 11.742,-5.104 13.041,-10.197l10.443,-67.57c15.639,-6.375 29.991,-15.303 44.33,-25.501l65.204,25.501c6.52,2.539 13.041,0 15.652,-5.105l52.162,-87.98c2.611,-5.091 1.3,-12.749 -2.611,-16.572l-57.374,-42.071ZM255.347,345.244c-50.863,0 -91.284,-39.518 -91.284,-89.249c0,-49.73 40.421,-89.249 91.284,-89.249c50.863,0 91.285,39.519 91.285,89.249c0,49.731 -40.422,89.249 -91.285,89.249Z" style="fill:#000;fill-rule:nonzero;"/></svg>