<?xml version="1.0" encoding="utf-8"?>
<!-- Generator: Adobe Illustrator 19.0.0, SVG Export Plug-In . SVG Version: 6.00 Build 0)  -->
<svg version="1.1" id="Layer_1" xmlns="http://www.w3.org/2000/svg" xmlns:xlink="http://www.w3.org/1999/xlink" x="0px" y="0px"
	 width="512px" height="512px" viewBox="0 0 512 512" enable-background="new 0 0 512 512" xml:space="preserve">
<style type="text/css">
	.st0{fill:#020202;}
</style>
<g id="Layer_6">
	<g>
		<path class="st0" d="M438.6,298.7L438.6,298.7L438.6,298.7c-2.7,10.8-13.7,17.3-24.5,14.6l0,0c-10.8-2.7-17.3-13.7-14.6-24.5l0,0
			c2.7-10.8,13.7-17.3,24.5-14.6l0,0c10.3,2.7,16.8,12.6,15,22.9l0,0C438.8,297.6,438.8,298.1,438.6,298.7z M424.4,233.3
			c-10.8,2.5-21.8-4.1-24.3-15.1l0,0c-2.5-10.8,4.1-21.8,15-24.3l0,0c10.8-2.5,21.8,4.1,24.3,15.1l0,0c0.5,2.7,0.7,5.4,0.2,7.9l0,0
			C438.5,224.8,432.7,231.5,424.4,233.3z M424.4,233.3c-10.8,2.5-21.8-4.1-24.3-15.1l0,0c-2.5-10.8,4.1-21.8,15-24.3l0,0
			c10.8-2.5,21.8,4.1,24.3,15.1l0,0c0.5,2.7,0.7,5.4,0.2,7.9l0,0C438.5,224.8,432.7,231.5,424.4,233.3z"/>
	</g>
	<path id="XMLID_7_" class="st0" d="M353.8,271.8c-11.2,0-20.2-9-20.2-20.2l0,0c0-11.2,9-20.2,20.2-20.2l0,0
		c11.2,0,20.2,9,20.2,20.2l0,0l0,0l0,0C374,262.8,365,271.8,353.8,271.8z"/>
	<path id="XMLID_6_" class="st0" d="M251.5,304.4c-29.2,0-52.8-23.4-52.8-52.6l0,0c0-29.2,23.4-52.8,52.6-52.8l0,0
		c29.2,0,52.8,23.4,52.8,52.6l0,0l0,0l0,0C304.3,280.8,280.7,304.3,251.5,304.4z"/>
	<path class="st0" d="M507.6,296.3c-1.8,11-12.4,18.4-23.4,16.4l0,0c-11-1.8-18.4-12.4-16.4-23.4l0,0c1.8-11,12.4-18.4,23.4-16.4
		l0,0c10.4,1.8,17.7,11.3,16.8,21.6l0,0C507.8,295.1,507.6,295.6,507.6,296.3z M491.2,232.2c-11,1.8-21.4-5.6-23.2-16.6l0,0
		c-1.8-11,5.6-21.4,16.6-23.2l0,0c11-1.8,21.4,5.6,23.2,16.6l0,0l0,0l0,0c0.2,1.8,0.4,3.4,0.2,5.2l0,0
		C507.3,223,500.4,230.8,491.2,232.2z M471.4,378.5L471.4,378.5L471.4,378.5c-5.6,9.7-17.8,13.2-27.6,7.6l0,0
		c-9.7-5.6-13.2-17.8-7.6-27.6l0,0c5.6-9.7,17.8-13.2,27.6-7.6l0,0c7,4,10.8,11.7,10.1,19.3l0,0
		C473.8,373.1,472.9,375.8,471.4,378.5z M464.2,154.2c-9.7,5.4-22,2-27.6-7.7l0,0c-5.4-9.7-2-22,7.7-27.6l0,0c9.7-5.4,22-2,27.6,7.7
		l0,0l0,0l0,0c2.2,3.8,2.9,7.7,2.5,11.7l0,0C473.8,144.8,470.2,150.8,464.2,154.2z"/>
	<path id="XMLID_1_" d="M252.2,504.4c-34,0-67-6.7-98.2-19.8c-30.1-12.8-56.9-31-80.2-54c-23.2-23.1-41.4-50.1-54-80.2
		C6.7,319.2,0,286.2,0,252.2s6.7-67,19.8-98.2c12.8-30.1,31-56.9,54-80.2c23.2-23.2,50.1-41.4,80.2-54C185.2,6.7,218.1,0,252.2,0
		c28.3,0,55.8,4.7,82.3,13.7c25.6,8.8,49.4,21.6,71,38.2c7.2,5.6,8.6,15.9,3.1,23.1c-5.6,7.2-15.9,8.6-23.1,3.1
		c-38.5-29.5-84.7-45-133.1-45c-58.5,0-113.7,22.9-155.1,64.1c-41.4,41.4-64.1,96.4-64.1,155.1c0,58.5,22.9,113.7,64.1,155.1
		c41.4,41.4,96.4,64.1,155.1,64.1c48.6,0,94.8-15.7,133.1-45c7.2-5.6,17.7-4.1,23.1,3.1c5.4,7.2,4.1,17.7-3.1,23.1
		c-21.6,16.6-45.4,29.4-71,38.2C308,499.7,280.3,504.4,252.2,504.4z"/>
</g>
</svg>
