<?xml version="1.0" standalone="no"?><!DOCTYPE svg PUBLIC "-//W3C//DTD SVG 1.1//EN" "http://www.w3.org/Graphics/SVG/1.1/DTD/svg11.dtd"><svg width="100%" height="100%" viewBox="0 0 512 512" version="1.1" xmlns="http://www.w3.org/2000/svg" xmlns:xlink="http://www.w3.org/1999/xlink" xml:space="preserve" style="fill-rule:evenodd;clip-rule:evenodd;stroke-linejoin:round;stroke-miterlimit:1.41421;"><path d="M444.727,140.188c-1.196,-2.922 -2.657,-5.711 -4.649,-8.102l-111.297,-121.789c-2.523,-2.789 -5.578,-4.781 -8.898,-6.508c-3.852,-1.992 -8.102,-2.789 -12.617,-2.789l-212.368,0c-16.468,0 -30.148,14.078 -30.148,31.742l0,445.188c0,17.797 13.68,33.07 30.148,33.07l322.868,0c16.468,0 29.484,-15.273 29.484,-33.07l0,-324.196c0,-4.781 -0.664,-9.429 -2.523,-13.546ZM128.5,152.672c0,-1.992 2.391,-2.789 4.516,-2.789l94.031,0c2.125,0 3.719,0.797 3.719,2.789l0,14.344c0,1.859 -1.461,4.117 -3.719,4.117l-94.031,0c-2.125,0 -4.516,-2.258 -4.516,-4.117l0,-14.344l0,0ZM128.5,322.672c0,-1.992 2.391,-2.789 4.516,-2.789l162.297,0c2.125,0 3.187,0.797 3.187,2.789l0,14.344c0,1.859 -0.93,4.117 -3.187,4.117l-162.297,0c-2.125,0 -4.516,-2.258 -4.516,-4.117l0,-14.344ZM341,422.016c0,1.859 -0.93,4.117 -3.187,4.117l-204.797,0c-2.125,0 -4.516,-2.258 -4.516,-4.117l0,-14.344c0,-1.992 2.391,-2.789 4.516,-2.789l204.797,0c2.125,0 3.187,0.797 3.187,2.789l0,14.344ZM383.5,252.016c0,1.859 -0.93,4.117 -3.187,4.117l-247.297,0c-2.125,0 -4.516,-2.258 -4.516,-4.117l0,-14.344c0,-1.992 2.391,-2.789 4.516,-2.789l247.297,0c2.125,0 3.187,0.797 3.187,2.789l0,14.344ZM321.211,151.211c-7.438,0 -14.742,-6.906 -14.742,-15.008l0,-87.656l94.562,102.664l-79.82,0Z" style="fill:#000;fill-rule:nonzero;"/></svg>