<?xml version="1.0" encoding="utf-8"?>
<!-- Generator: Adobe Illustrator 16.2.1, SVG Export Plug-In . SVG Version: 6.00 Build 0)  -->
<!DOCTYPE svg PUBLIC "-//W3C//DTD SVG 1.1//EN" "http://www.w3.org/Graphics/SVG/1.1/DTD/svg11.dtd">
<svg version="1.1" id="Layer_1" xmlns="http://www.w3.org/2000/svg" xmlns:xlink="http://www.w3.org/1999/xlink" x="0px" y="0px"
	 width="512px" height="512px" viewBox="0 0 512 512" enable-background="new 0 0 512 512" xml:space="preserve">
<g>
	<path d="M339.2,127.6c0.7-0.3,0.7-0.3,1.3-0.6c7.058-3.529,3.337,5.204,6.8,9.1c2.932,3.42,7.641,1.09,10.524-1.05
		c3.655-2.712,1.462-5.895-0.549-9.525c-2.209-3.986-9.498-11.837-13.976-13.325c-5.979-0.921-2.399,4.413-2.399,6.7
		c-1.543,1.157-3.941,2.454-5.101,4C335.1,123.5,338,128,339.2,127.6z"/>
	<path d="M284.9,96.7c0.856,0.786,0.337,0.297,0.079,0.062c3.193,2.869,8.374,3.837,12.521,3.837c1.665-5.019,6.829-9.504-0.7-12.4
		c-2.375,0.789-16.608,3.7-11.935,8.461C284.854,96.652,284.861,96.661,284.9,96.7z"/>
	<path d="M166.3,177.9C164.5,178,166.9,177.9,166.3,177.9L166.3,177.9z"/>
	<path d="M166.3,177.9c4.965,0,0.619-3.183-1.6-3.5c-4.726-0.629-11.651-5.461-16-5.1c-0.991,0.142-9.624,4.457-6.2,5.6
		C149.816,177.34,158.638,178.326,166.3,177.9z"/>
	<path d="M176.356,185.434c0.066,0.04,0.077,0.046-0.057-0.034c-0.214-0.129-0.31-0.186-0.338-0.203
		c0.048,0.029,0.221,0.133,0.337,0.203c-5.453-3.27-20.83,3.719-9.798,3.9c4.585,0.075,11.463,2.237,12,1.7
		C181.178,188.322,178.153,186.513,176.356,185.434z"/>
	<path d="M175.961,185.197C175.947,185.188,175.947,185.188,175.961,185.197L175.961,185.197z"/>
	<path d="M375.8,170.6c-0.001,0.006-0.004,0.011-0.005,0.017C375.795,170.629,375.797,170.629,375.8,170.6z"/>
	<path d="M434.6,197.1C435,197.1,432.8,196.7,434.6,197.1L434.6,197.1z"/>
	<path d="M256,32C132.3,32,32,132.3,32,256c0,123.701,100.3,224,224,224c123.701,0,224-100.299,224-224C480,132.3,379.701,32,256,32
		z M173.399,429.424c-5.515-3.133-9.374-7.56-10.961-15.929c-3.947-20.807-0.303-32.068,17.962-44.245
		c8.604-5.736,10.022-12.672,16.9-19.55c1.685-2.139,6.211-10.374,9.2-10.8c3.637-0.779,13.709-2.527,15.7-6.5
		c3.79-5.145,12.127-27.398,15.8-29.601c5.997-3.925,14.419-15.96,8.3-23.1c-7.021-8.642-16.799-8.766-25.9-13.3
		c-8.015-4.008-11.574-22.282-17.7-28.601c-11.912-12.136-29.999-19.199-45-26.7c-8.116-3.25-7.344-4.256-13.7,2.1
		c-8.162,8.162-20.093-2.067-21.3-10.5c-0.09-2.802-3.296-18.216-1.4-19.4c17.956-11.225-8.328-8.64-10.5-13.8
		c-5.355-14.993,13.008-26.86,25.4-28.1c13.885-1.738,16.784,21.895,22.1,19.9c2.556-1.276,2.566-12.394,2.9-14.8
		c1.267-8.029,3.588-9.273,11.4-12.175c9.098-3.379,16.063-7.617,25.7-9.225c11.006-3.195,20.317-1.533,28.8-8.6
		c3.888-2.915,6.704,1.58,10.4,2.4c7.999,1.599,9.7-11.1,9.7-15.9c-7.841,3.921,1.265-8.63-4.7-13.6
		c-7.806-6.069-19.029-0.869-25.3,5.4c-7.574,7.035-16.357,6.55-13.8-5.6c0.634-4.433,10.209-9.587,14-12
		c3.7-2.222,5.904,2.522,10.4,1.4c6.579-1.463,13.187-3.149,16.8,4.8c8.988-8.966,14.796-6.881,8.614-19.366
		C254.143,64.021,255.07,64,256,64c1.856,0,3.707,0.034,5.555,0.086C264.36,72.967,255.59,80.529,260,91.7
		c8.79,21.475,15.992,3.014,24.7-7c2.849-2.849,4.633-2.211,9.3-3.1c2.896-0.483,7.055-9.27,8.393-11.982
		c20.057,4.956,39.121,13.127,56.567,24.255c-7.447,0.792-9.348-1.396-9.234,7.377c0.042,3.317,0.296,13.319,5.274,14.15
		c8.277,0.975,6.781,6.832,14.551,7.85c7.443,0.976,2.816,7.553,5.85,14.05c3.393,10.227-19.805,13.302-24.301,14.8
		c-13.64,4.554,6.339,24.41,15.2,22.3c2.817-0.704,8.843-0.618,9.495-3.783c-0.011-0.323,0.946-13.517,2.505-13.517
		c4.564,0,5.123-2.946,10.776,0.255c13.374,7.573,20.147,25.7,35.898,29.295c2.146,0.489,4.675,0.638,6.736-0.303
		c-0.269,0.123,9.678,10.752,2.889,10.752c-9.017-2.003-13.781,0.859-21.199-4.874c-7.733-5.977-12.543-10.891-22.75-11.076
		c-8.79-0.159-16.679-3.819-25.738-2.35c-5.05,0.819-10.038,2.811-14.912,4.3c-4.617,1.538-5.51,9.765-10.2,10.7
		c-19.467,4.581-15.261,23.169-18.774,37.913c-1.35,5.662-6.025,21.003-0.925,26.087c9.12,8.853,19.783,21.035,33.175,22.963
		c7.206,1.037,22.954-4.576,27.824,2.737c2.062,4.104,7.447-3.03,8.9,0.6c3.663,10.989-4.263,18.186-4.337,28.551
		c-0.11,15.203,9.178,20.57-3.263,34.149c-13.641,13.607-4.333,30.788-11.9,47c-4.042,8.337-4.808,19.893-10.872,23.777
		c-13.321,8.532-27.7,15.4-42.714,20.384c-26.627,8.838-55.155,11.672-83.017,8.456c-14.619-1.688-29.041-5.057-42.88-10.065
		c-3.769-1.364-7.28-2.505-10.472-3.705C178.143,431.619,175.759,430.55,173.399,429.424z M131.699,402.329
		c-0.468-0.397-0.935-0.796-1.399-1.198c-3.444-2.992-6.802-6.113-10.06-9.371c-3.388-3.388-6.634-6.881-9.734-10.471
		c-0.035-0.041-0.07-0.082-0.105-0.123c-0.637-0.738-1.257-1.487-1.882-2.234C56.834,316.47,49.259,225.004,92.6,155.1
		c6.078,6.078-4.101,18.024,7.5,26c5.124,3.606,10.021,2.159,9,8.8c-0.993,6.449,5.355,6.335,6.3,12
		c2.842,12.429,19.207,18.642,9.9,32.6c-9.118,12.625-16.992,26.728-10.1,42.8c2.254,5.86,7.919,11.858,12.222,16.244
		c7.813,7.966,7.377,3.188,7.377,13.256c-0.156,4.373,5.261,8.897,4.7,11.7c-1.001,8.011-2.904,15.93-3.9,23.9
		c-1.792,28.638-0.129,56.663,21.3,78.1c-7.969-4.806-15.636-10.249-22.968-16.29C133.183,403.591,132.44,402.961,131.699,402.329z"
		/>
</g>
</svg>
