<?xml version="1.0" standalone="no"?><!DOCTYPE svg PUBLIC "-//W3C//DTD SVG 1.1//EN" "http://www.w3.org/Graphics/SVG/1.1/DTD/svg11.dtd"><svg width="100%" height="100%" viewBox="0 0 512 512" version="1.1" xmlns="http://www.w3.org/2000/svg" xmlns:xlink="http://www.w3.org/1999/xlink" xml:space="preserve" style="fill-rule:evenodd;clip-rule:evenodd;stroke-linejoin:round;stroke-miterlimit:1.41421;"><g><path d="M24.293,124.457c13.485,7.11 200.808,109.231 207.796,112.909c6.988,3.678 14.098,5.394 25.132,5.394c11.033,0 18.144,-1.716 25.131,-5.394c6.988,-3.678 194.311,-105.799 207.797,-112.909c5.026,-2.574 13.485,-7.233 15.324,-12.505c3.187,-9.317 -0.245,-12.872 -13.853,-12.872l-234.399,0l-234.399,0c-13.608,0 -17.041,3.678 -13.853,12.872c1.838,5.395 10.297,9.931 15.324,12.505Z" style="fill:#000;fill-rule:nonzero;"/><path d="M500.814,129.974c-10.052,5.149 -100.281,69.388 -159.984,108.005l100.772,113.399c2.451,2.452 3.555,5.394 2.206,6.865c-1.471,1.349 -4.658,0.613 -7.233,-1.716l-120.877,-101.998c-18.267,11.769 -31.139,19.86 -33.346,21.086c-9.439,4.781 -16.059,5.394 -25.131,5.394c-9.072,0 -15.692,-0.613 -25.132,-5.394c-2.329,-1.226 -15.079,-9.317 -33.345,-21.086l-120.878,101.998c-2.452,2.452 -5.762,3.187 -7.233,1.716c-1.471,-1.348 -0.368,-4.413 2.084,-6.865l100.65,-113.399c-59.703,-38.617 -150.913,-102.856 -160.966,-108.005c-10.788,-5.517 -11.401,0.98 -11.401,6.007c0,5.026 0,251.317 0,251.317c0,11.401 16.795,25.622 28.81,25.622l454.822,0c12.014,0 26.358,-14.344 26.358,-25.622c0,0 0,-246.413 0,-251.317c0,-5.149 0.735,-11.524 -10.176,-6.007Z" style="fill:#000;fill-rule:nonzero;"/></g></svg>