<?xml version="1.0" encoding="UTF-8" standalone="no"?><!DOCTYPE svg PUBLIC "-//W3C//DTD SVG 1.1//EN" "http://www.w3.org/Graphics/SVG/1.1/DTD/svg11.dtd"><svg width="100%" height="100%" viewBox="0 0 512 512" version="1.1" xmlns="http://www.w3.org/2000/svg" xmlns:xlink="http://www.w3.org/1999/xlink" xml:space="preserve" style="fill-rule:evenodd;clip-rule:evenodd;stroke-linejoin:round;stroke-miterlimit:1.41421;"><path d="M1,256c0,140.863 114.137,255 255,255c140.863,0 255,-114.137 255,-255c0,-140.863 -114.137,-255 -255,-255c-140.863,0 -255,114.137 -255,255ZM22.209,256c0,-128.849 104.82,-233.791 233.791,-233.791c128.849,0 233.791,104.82 233.791,233.791c0,128.849 -104.82,233.791 -233.791,233.791c-128.849,0 -233.791,-104.942 -233.791,-233.791l0,0Z" style="fill:#000;fill-rule:nonzero;"/><path d="M307.208,345.875c30.83,-18.778 51.53,-52.61 51.53,-91.274c0,-34.857 -16.844,-65.776 -42.737,-85.305c38.427,15.063 73.971,44.507 103.732,86.705c-32.02,45.398 -70.728,76.042 -112.525,89.874M92.271,256.001c25.071,-35.547 54.236,-62.093 85.776,-78.586c-20.369,19.478 -33.135,46.844 -33.135,77.186c0,33.728 15.74,63.808 40.216,83.417c-34.252,-16.106 -65.925,-43.831 -92.857,-82.017M251.825,333.628c-43.577,0 -79.029,-35.451 -79.029,-79.027c0,-43.577 35.452,-79.029 79.029,-79.029c43.577,0 79.028,35.452 79.028,79.029c0,43.576 -35.451,79.027 -79.028,79.027M444.149,247.412c-50.096,-75.838 -116.916,-117.606 -188.147,-117.606c-71.227,0 -138.053,41.771 -188.149,117.606l-5.675,8.589l5.675,8.588c50.098,75.84 116.917,117.606 188.149,117.605c71.231,0 138.051,-41.767 188.147,-117.605l5.674,-8.588l-5.674,-8.589Z" style="fill:#000;fill-rule:nonzero;"/><path d="M276.827,257.389c-15.79,0 -28.59,-12.8 -28.59,-28.59c0,-7.415 2.848,-14.149 7.478,-19.229c-1.286,-0.11 -2.576,-0.197 -3.89,-0.197c-24.978,0 -45.228,20.249 -45.228,45.227c0,24.979 20.25,45.228 45.228,45.228c24.978,0 45.227,-20.249 45.227,-45.228c0,-1.792 -0.132,-3.55 -0.334,-5.287c-5.148,4.991 -12.154,8.076 -19.891,8.076" style="fill:#000;fill-rule:nonzero;"/></svg>