<?xml version="1.0" encoding="utf-8"?>
<!-- Generator: Adobe Illustrator 16.2.1, SVG Export Plug-In . SVG Version: 6.00 Build 0)  -->
<!DOCTYPE svg PUBLIC "-//W3C//DTD SVG 1.1//EN" "http://www.w3.org/Graphics/SVG/1.1/DTD/svg11.dtd">
<svg version="1.1" id="Layer_1" xmlns="http://www.w3.org/2000/svg" xmlns:xlink="http://www.w3.org/1999/xlink" x="0px" y="0px"
	 width="512px" height="512px" viewBox="0 0 512 512" enable-background="new 0 0 512 512" xml:space="preserve">
<g>
	<path d="M255.907,32C132.195,32,32,67.817,32,112c0,8.476,3.68,16.642,10.52,24.309l0.008,0.008C74.415,175.213,192,313,192,352v87
		h0.02c0.415,22.688,28.894,41,63.98,41s63.565-18.312,63.98-41H320v-83.088c0.153-1.241,0.056-2.54,0.056-3.912
		C320.056,313,436,177.432,471,134.062v-0.002c6-7.007,9-14.408,9-22.06C480,67.817,379.619,32,255.907,32z M256,160
		c-106.039,0-192-25.072-192-56s85.961-56,192-56s192,25.072,192,56S362.039,160,256,160z"/>
</g>
</svg>
