<?xml version="1.0" encoding="utf-8"?>
<!-- Generator: Adobe Illustrator 21.1.0, SVG Export Plug-In . SVG Version: 6.00 Build 0)  -->
<svg version="1.1"
	 id="svg2" inkscape:version="0.48.4 r9939" sodipodi:docname="FP Interior_icon.svg" xmlns:cc="http://creativecommons.org/ns#" xmlns:dc="http://purl.org/dc/elements/1.1/" xmlns:inkscape="http://www.inkscape.org/namespaces/inkscape" xmlns:rdf="http://www.w3.org/1999/02/22-rdf-syntax-ns#" xmlns:sodipodi="http://sodipodi.sourceforge.net/DTD/sodipodi-0.dtd" xmlns:svg="http://www.w3.org/2000/svg"
	 xmlns="http://www.w3.org/2000/svg" xmlns:xlink="http://www.w3.org/1999/xlink" x="0px" y="0px" viewBox="0 0 512 512"
	 style="enable-background:new 0 0 512 512;" xml:space="preserve">
<sodipodi:namedview  bordercolor="#666666" borderopacity="1" gridtolerance="10" guidetolerance="10" id="namedview6" inkscape:current-layer="svg2" inkscape:cx="200" inkscape:cy="206.2719" inkscape:pageopacity="0" inkscape:pageshadow="2" inkscape:window-height="716" inkscape:window-maximized="1" inkscape:window-width="1366" inkscape:window-x="-8" inkscape:window-y="-8" inkscape:zoom="1" objecttolerance="10" pagecolor="#ffffff" showgrid="false">
	</sodipodi:namedview>
<path id="path4" d="M285.7,28.2c-29.1,1.2-58.4-1.5-87.4,1.4c-22.5,3.9-45.5,19.1-50.6,42.4c-3,18-0.1,36.3-1.1,54.4
	c-0.2,34.1-0.2,68.4,0.2,102.5c-1.9,6.6-13.6,5.1-12.5-2.2c0-28.7-28.1-53.5-56.6-49.6c-25.7,2.6-47.5,26.6-45.9,52.7
	c0.7,24.6,20.8,47.5,45.7,49.2c5-0.1,11,2.3,10.5,8.2c0.4,11.9-0.3,23.9,0.1,35.9c0,53.6,0,107.1,0,160.7c15.2,0,30.4,0,45.6,0
	c0.6-19.6-1.6-39.5,1.3-58.8c6.7-5.8,16.4-1.6,24.3-2.9c70.2,0.1,140.5-0.2,210.7,0.2c7.6,3.5,4.3,13,4.9,19.5c0.1,14,0,28.1,0,42.1
	c15.2,0,30.4,0,45.6,0c0.1-66.5-0.2-133,0.1-199.5c3-7.7,12.2-3.8,18.2-5.8c27.6-4.9,47.1-35.3,40-62.1
	c-5.8-25.6-33.3-44.4-59.3-38.8c-22.8,4.2-41.9,25-41.9,48.4c-0.1,5.3-6.4,10.2-11,5.9c-5.5-5.5-0.8-13.6-2.4-20.3
	c-0.1-45.9,0.7-91.8-0.5-137.7c-4.7-25.7-30.5-42.5-55.2-44.8C301,28.2,293.3,28.1,285.7,28.2L285.7,28.2z M225.1,307.4
	c48.3,0.1,96.7-0.2,145,0.2c7.8,4,4,13.8,4.6,20.7c-0.2,6.4,2.7,15.6-4.5,19.2c-76.9,1.1-153.9,0.1-230.9,0.5
	c-7.7-2.3-5.9-11.8-5.5-17.8c0.8-7.2-3.1-16.3,3.3-21.8c24.9-1.6,50.1-0.7,75.2-0.9C216.6,307.4,220.9,307.4,225.1,307.4
	L225.1,307.4z"/>
</svg>
