<?xml version="1.0" encoding="UTF-8" standalone="no"?><!DOCTYPE svg PUBLIC "-//W3C//DTD SVG 1.1//EN" "http://www.w3.org/Graphics/SVG/1.1/DTD/svg11.dtd"><svg width="100%" height="100%" viewBox="0 0 512 512" version="1.1" xmlns="http://www.w3.org/2000/svg" xmlns:xlink="http://www.w3.org/1999/xlink" xml:space="preserve" style="fill-rule:evenodd;clip-rule:evenodd;stroke-linejoin:round;stroke-miterlimit:1.41421;"><g><rect x="429.202" y="159.815" width="43.818" height="154.55" style="fill:#000;fill-rule:nonzero;"/><rect x="429.202" y="356.45" width="43.818" height="154.55" style="fill:#000;fill-rule:nonzero;"/><path d="M355.772,466.345l-263.688,0l0,-30.906l263.688,0l0,30.906ZM90.151,358.163l263.708,0l0,30.906l-263.708,0l0,-30.906ZM89.175,280.888l263.688,0l0,30.906l-263.688,0l0,-30.906ZM178.984,97.464c13.43,-13.131 32.281,-19.687 56.492,-19.687c9.186,0 17.874,0.877 26.024,2.59c8.15,1.734 15.244,3.926 21.301,6.596l-12.474,30.966c-10.521,-5.201 -22.058,-7.811 -34.652,-7.811c-11.518,0 -20.405,3.766 -26.682,11.258c-6.297,7.473 -9.445,18.173 -9.445,32.082c0,13.65 2.83,24.051 8.549,31.205c5.679,7.154 13.888,10.74 24.569,10.74c5.858,0 11.259,-0.577 16.2,-1.693l0,-22.876l-26.084,0l0,-30.448l63.008,0l0,78.67c-17.097,5.859 -35.888,8.788 -56.412,8.788c-22.477,0 -39.873,-6.536 -52.148,-19.568c-12.274,-13.032 -18.412,-31.643 -18.412,-55.814c0,-23.554 6.715,-41.886 20.166,-54.998M38.98,1l0,510l367.067,0l0,-391.517l66.973,0l0,-118.483l-434.04,0Z" style="fill:#000;fill-rule:nonzero;"/></g></svg>