<?xml version="1.0" standalone="no"?><!DOCTYPE svg PUBLIC "-//W3C//DTD SVG 1.1//EN" "http://www.w3.org/Graphics/SVG/1.1/DTD/svg11.dtd"><svg width="100%" height="100%" viewBox="0 0 512 512" version="1.1" xmlns="http://www.w3.org/2000/svg" xmlns:xlink="http://www.w3.org/1999/xlink" xml:space="preserve" style="fill-rule:evenodd;clip-rule:evenodd;stroke-linejoin:round;stroke-miterlimit:1.41421;"><path id="Icon" d="M1,128.5l127.5,0l0,-127.5l-127.5,0l0,127.5ZM192.25,511l127.5,0l0,-127.5l-127.5,0l0,127.5ZM1,511l127.5,0l0,-127.5l-127.5,0l0,127.5ZM1,319.75l127.5,0l0,-127.5l-127.5,0l0,127.5ZM192.25,319.75l127.5,0l0,-127.5l-127.5,0l0,127.5ZM383.5,1l0,127.5l127.5,0l0,-127.5l-127.5,0ZM192.25,128.5l127.5,0l0,-127.5l-127.5,0l0,127.5ZM383.5,319.75l127.5,0l0,-127.5l-127.5,0l0,127.5ZM383.5,511l127.5,0l0,-127.5l-127.5,0l0,127.5Z" style="fill:#000;fill-rule:nonzero;"/></svg>