<?xml version="1.0" encoding="utf-8"?>
<!-- Generator: Adobe Illustrator 16.2.1, SVG Export Plug-In . SVG Version: 6.00 Build 0)  -->
<!DOCTYPE svg PUBLIC "-//W3C//DTD SVG 1.1//EN" "http://www.w3.org/Graphics/SVG/1.1/DTD/svg11.dtd">
<svg version="1.1" id="Layer_1" xmlns="http://www.w3.org/2000/svg" xmlns:xlink="http://www.w3.org/1999/xlink" x="0px" y="0px"
	 width="512px" height="512px" viewBox="0 0 512 512" style="enable-background:new 0 0 512 512;" xml:space="preserve">
<path d="M414,257.5c0,6.9-5.3,12.4-11.6,12.4c-0.5,0-0.9-0.3-1.4-0.4c-9.9-14.7-25.7-24.4-43.8-24.4c-30,0-54.2,26.3-54.2,58.9
	v117.2c0,32.5,24.1,58.8,54.1,58.8h2.7c3.6,0,6.9-0.8,10-2.2l0,0.1c3.1-1.4,6.2-2.9,9.2-4.5c10.3-5.7,19.8-13.2,28.2-22.3
	c14.6-15.8,23.9-35.5,28.8-56.7c0.2-0.9,0.5-1.9,0.7-2.8c10.3-46,13.1-102.6,10.4-153.2c-3.2-59.7-22-108.5-55.7-145.3
	c0-0.1-0.1-0.1-0.2-0.2c-7.7-8.4-15.9-15.9-24.6-22.6c-9-7-18.5-13.1-28.4-18.1c-25.3-13.1-53.2-20-82-20l0,0v0
	c-29,0-56.7,6.9-82,20c-9.9,5.1-19.4,11.2-28.4,18.1c-8.7,6.7-17,14.2-24.7,22.6c-0.1,0.1-0.1,0.1-0.2,0.2
	C86.9,129.7,68.2,178.5,65,238.2c-2.7,50.7,0.1,107.2,10.4,153.2c0.2,0.9,0.4,1.9,0.7,2.8c4.9,21.2,14.2,40.9,28.8,56.7
	c8.4,9.1,17.9,16.6,28.2,22.3c3,1.7,6,3.2,9.2,4.5l0-0.1c3.1,1.4,6.5,2.2,10,2.2h2.7c30,0,54.1-26.4,54.1-58.8V304
	c0-32.5-24.2-58.9-54.2-58.9c-18,0-33.9,9.7-43.7,24.4c-0.5,0-1,0.4-1.5,0.4c-6.3,0-11.6-5.5-11.6-12.4c0,0,0,0,0,0
	c0-0.3,0.3-0.5,0.3-0.7c0.2-5.4,0.5-10.9,0.8-16.3c0.8-15.9,3.1-30.9,6.5-44.9c6.2-25.8,16.8-48.2,31.6-67c2.5-3.3,5.2-6.4,8-9.5
	c3.2-3.4,6.4-6.7,9.8-9.7c1.6-1.5,3.2-2.8,4.8-4.2c11-9.3,23-17,35.7-22.8c19-8.6,39.5-13.3,60.7-13.3h0c21.2,0,41.7,4.6,60.7,13.3
	c12.7,5.8,24.7,13.5,35.7,22.8c1.6,1.4,3.2,2.8,4.7,4.2c3.4,3,6.6,6.3,9.8,9.7c2.8,3.1,5.5,6.2,8,9.5c14.8,18.8,25.3,41.2,31.5,67
	c3.4,14,5.8,28.9,6.6,44.9c0.3,5.4-0.1,10.9,0.9,16.3C414,256.9,414,257.1,414,257.5C414,257.4,414,257.4,414,257.5z"/>
</svg>
