<?xml version="1.0" encoding="UTF-8" standalone="no"?><!DOCTYPE svg PUBLIC "-//W3C//DTD SVG 1.1//EN" "http://www.w3.org/Graphics/SVG/1.1/DTD/svg11.dtd"><svg width="100%" height="100%" viewBox="0 0 512 512" version="1.1" xmlns="http://www.w3.org/2000/svg" xmlns:xlink="http://www.w3.org/1999/xlink" xml:space="preserve" style="fill-rule:evenodd;clip-rule:evenodd;stroke-linejoin:round;stroke-miterlimit:1.41421;"><path d="M281.745,409.245l-51.49,0l0,-51.49l51.49,0l0,51.49ZM281.5,332.01l-51,0c0,-82.14 76.5,-76.255 76.5,-127.255c0,-28.075 -22.925,-51.123 -51,-51.123c-28.075,0 -51,23.906 -51,50.878l-51,0c0,-56.395 45.606,-101.755 102,-101.755c56.394,0 102,45.483 102,101.877c0,63.75 -76.5,70.983 -76.5,127.378Z" style="fill:#000;fill-rule:nonzero;"/><path d="M256,1.001c-140.607,0 -255,114.392 -255,254.999c0,140.607 114.393,255 255,255c140.607,0 255,-114.393 255,-255c0,-140.607 -114.393,-254.999 -255,-254.999ZM256,35.129c121.729,0 220.871,99.027 220.871,220.871c0,121.729 -99.027,220.871 -220.871,220.871c-121.729,0 -220.872,-99.142 -220.872,-220.871c0,-121.729 99.028,-220.871 220.872,-220.871Z" style="fill:#030404;fill-rule:nonzero;"/></svg>