<?xml version="1.0" encoding="utf-8"?>
<!-- Generator: Adobe Illustrator 16.2.1, SVG Export Plug-In . SVG Version: 6.00 Build 0)  -->
<!DOCTYPE svg PUBLIC "-//W3C//DTD SVG 1.1//EN" "http://www.w3.org/Graphics/SVG/1.1/DTD/svg11.dtd">
<svg version="1.1" id="Layer_1" xmlns="http://www.w3.org/2000/svg" xmlns:xlink="http://www.w3.org/1999/xlink" x="0px" y="0px"
	 width="512px" height="512px" viewBox="0 0 512 512" style="enable-background:new 0 0 512 512;" xml:space="preserve">
<path d="M400,250.6c0-37.7-30.4-69.1-67.9-69.1c-2.8,0-5.7-0.1-8.4,0.3c-8.3-36.9-41.1-66.8-80.3-66.8c-45.5,0-82.3,39.1-82.3,84.8
	c0,2.8,0.1,5.5,0.4,8.2c-27.7,2.5-49.5,27.3-49.5,55.9c0,29.3,22.9,54.8,51.6,56.3l-25.5,37.4l13.3,9.7l32.1-47.1h36.1l-47.1,69.1
	l13.3,9.7l53.7-78.8h37.9l-26,37.7l13.3,9.7l32.6-47.4H332c0.1,0,0.3,0,0.4,0l-47.1,69.1l13.3,9.7l56.6-83.1
	C381.4,306,400,280.1,400,250.6z"/>
</svg>
