<?xml version="1.0" encoding="utf-8"?>
<!-- Generator: Adobe Illustrator 16.2.1, SVG Export Plug-In . SVG Version: 6.00 Build 0)  -->
<!DOCTYPE svg PUBLIC "-//W3C//DTD SVG 1.1//EN" "http://www.w3.org/Graphics/SVG/1.1/DTD/svg11.dtd">
<svg version="1.1" id="Layer_1" xmlns="http://www.w3.org/2000/svg" xmlns:xlink="http://www.w3.org/1999/xlink" x="0px" y="0px"
	 width="512px" height="512px" viewBox="0 0 512 512" style="enable-background:new 0 0 512 512;" xml:space="preserve">
<g>
	<path d="M423.4,358c-43.8-6.7-47.1-13.1-47.1-13.1c9-54.1-18.9-122.6-64.6-159.7c-60.7-49.3-153.1-13.5-225-88.5
		c-16.8-17.5-7,196.3,83,277.3c65.8,59.2,143.3,41,164.6,31.3c19.3-8.8,32.8-24.9,32.8-24.9c35.1,10.8,52.5,10.2,52.5,10.2
		C431.9,392.1,438.1,360.2,423.4,358z M343.2,361.6c-115.3-34.1-202-153.8-202-153.8s76.1,89.8,210.2,133.5
		C351.6,348.1,347.6,357.8,343.2,361.6z"/>
</g>
</svg>
