<?xml version="1.0" encoding="utf-8"?>
<!-- Generator: Adobe Illustrator 16.2.1, SVG Export Plug-In . SVG Version: 6.00 Build 0)  -->
<!DOCTYPE svg PUBLIC "-//W3C//DTD SVG 1.1//EN" "http://www.w3.org/Graphics/SVG/1.1/DTD/svg11.dtd">
<svg version="1.1" id="Layer_1" xmlns="http://www.w3.org/2000/svg" xmlns:xlink="http://www.w3.org/1999/xlink" x="0px" y="0px"
	 width="512px" height="512px" viewBox="0 0 512 512" style="enable-background:new 0 0 512 512;" xml:space="preserve">
<path d="M417.2,80c11.1,0,31,1.7,40.1,13.1c6.7,8.5,8.4,21,5.1,39.4c-2.5,12.8-12.3,42.4-28.1,77.4c-13.8,30.4-37.1,75.9-70,120.3
	c-32.9,42.8-62,70.3-94.5,89.4c-10.4,6.1-26.8,12.3-40,12.3c-3.9,0-7.3-0.6-9.9-1.7c-11.7-4.9-22.3-18.2-31.4-39.3
	c-8.9-20.7-14.9-45.2-20.3-66.8c-0.8-3.4-1.6-6.6-2.4-9.8l-0.3-1.2c-6.6-26.1-12.8-50.8-20.9-73.8c-1.7-5-3.2-10-4.8-15.3
	c-3.6-12.4-7.4-25.2-14.9-37.8l0,0l0,0c-9.5-15.8-22-19.2-30.9-19.2c-8.3,0-15.7,2.7-22.9,5.3c-5.8,2.1-11.2,4.1-15.8,4.1
	c0,0,0,0,0,0c-0.7-1-1.5-2.4-2.2-3.7c7.9-6.6,15.6-13.4,23.1-20.1c20.6-18.3,42-37.2,66.3-51.4c7.7-4.5,19.7-9.3,30.3-9.3
	c2.6,0,5.1,0.3,7.2,0.9c7.9,2.3,18.4,16.9,23.4,32.6c5.2,16.2,8.4,35.9,11.3,53.3c0.5,3.1,1,6.1,1.5,9c1.4,8,2.3,17.2,3.3,26.9
	c3.5,33.8,7.4,72,30.8,96.9c9.8,10.5,20.6,15.8,31.9,15.8c28,0,45.3-32.2,55.7-51.4l0.7-1.3c10.2-18.7,20.8-40.8,22.7-62.5
	c2-22.6-2.8-40.3-14.1-52.7c-8.4-9.2-20.2-14.8-34.3-16.5c9.2-16.1,22.2-30,39-41.3c19.9-13.4,38.9-19.1,46.2-20.2
	C404.4,80.5,411,80,417.2,80 M417.2,64c-7.6,0-15,0.7-21.6,1.7C376.5,68.6,310.1,91.9,288,160c5.6-1,10.9-1.6,15.9-1.6
	c27.4,0,44.7,16,41.5,52.3c-1.6,17.9-10.7,37.5-20.9,56.3c-8.8,16.3-23.4,44.3-42.3,44.3c-6.3,0-13-3.1-20.2-10.7
	c-26-27.6-24-80.4-30-115.6c-3.3-19.7-6.8-44.3-13.3-64.6c-5.6-17.4-18.5-38.5-34.2-43.1c-3.7-1.1-7.6-1.6-11.6-1.6
	c-14.1,0-28.8,5.9-38.4,11.5c-39,22.8-68.8,55.2-102.5,82c6.7,6.4,9.3,21.3,19.1,22.8c1.4,0.2,2.8,0.3,4.2,0.3
	c14,0,27.2-9.3,38.7-9.3c6.3,0,12.1,2.8,17.2,11.4c9.4,15.9,12.3,33.2,18.3,50.3c8.1,22.7,14.3,47.5,20.8,73.7
	c11.1,44.3,24.8,110.5,63.3,126.8c4.9,2.1,10.4,2.9,16.1,2.9c17.3,0,36.8-7.9,48.1-14.6c40.5-23.8,72.1-58.4,99.1-93.5
	c61.8-83.2,95.9-177.5,101.1-204.4c3.3-18.6,3.3-37.8-8.3-52.3C458.1,68.5,437,64,417.2,64L417.2,64z"/>
</svg>
