<?xml version="1.0" encoding="utf-8"?>
<!-- Generator: Adobe Illustrator 16.2.1, SVG Export Plug-In . SVG Version: 6.00 Build 0)  -->
<!DOCTYPE svg PUBLIC "-//W3C//DTD SVG 1.1//EN" "http://www.w3.org/Graphics/SVG/1.1/DTD/svg11.dtd">
<svg version="1.1" id="Layer_1" xmlns="http://www.w3.org/2000/svg" xmlns:xlink="http://www.w3.org/1999/xlink" x="0px" y="0px"
	 width="512px" height="512px" viewBox="0 0 512 512" style="enable-background:new 0 0 512 512;" xml:space="preserve">
<g>
	<g>
		<path d="M256,111.9C256,111.9,256,111.9,256,111.9L256,111.9z"/>
		<path d="M349.2,334.8c-11.2-3.9-29.5-5.1-37.5-8.2c-5.6-2.2-14.5-4.5-17.3-8c-2.9-3.4-2.9-28.1-2.9-28.1s7-6.5,9.9-13.8
			c2.9-7.3,4.8-27.1,4.8-27.1s0.6,0.2,1.5,0.2c2.1,0,5.9-1.4,7.7-10.6c2.2-11.3,6.4-17.2,5.3-25.5c-0.8-5.6-3.2-6.5-4.6-6.5
			c-0.7,0-1.2,0.2-1.2,0.2s5.7-8.4,5.7-37c0-29.4-22.7-58.4-64.6-58.5c-42,0.1-64.6,29.1-64.6,58.5c0,28.5,5.7,37,5.7,37
			s-0.5-0.2-1.2-0.2c-1.5,0-3.9,0.9-4.6,6.5c-1.1,8.3,3,14.3,5.3,25.5c1.8,9.2,5.6,10.6,7.7,10.6c0.9,0,1.5-0.2,1.5-0.2
			s1.9,19.9,4.8,27.1c2.9,7.3,9.9,13.8,9.9,13.8s0,24.7-2.9,28.1c-2.9,3.4-11.7,5.8-17.3,8c-8,3.1-26.3,4.3-37.5,8.2
			c-11.2,3.9-45.8,20.2-45.8,65.2H395C395,355,360.5,338.7,349.2,334.8z M147.1,363.6c9.2-9.7,19.6-13.8,20.8-14.2
			c4.4-1.5,11.6-2.7,17.9-3.7c7.5-1.1,14.5-2.2,20-4.3c1-0.4,2.3-0.9,3.7-1.4c7.1-2.5,15.1-5.3,20.2-11.3c3.9-4.6,5.3-10.9,6.1-24.7
			c0.4-7,0.2-13.4,0.2-13.7v-6.9l-4.9-4.7c-1.1-1-4.7-5-5.9-8c-1.2-3-2.8-14.2-3.5-20.5c-1.2-11.5-6-5.5-9.7-15.2
			c-2-5.2-2.9-11.4-4.3-16.2c-1.4-4.9,6.4-9.2,4.6-15.3c-1.9-6.1-5-13.9-5-33.2c0-20.5,15.3-42.3,48.6-42.4
			c33.3,0,48.6,21.9,48.6,42.4c0,19.3-3.1,27.1-5,33.2c-1.9,6.1,6,10.4,4.6,15.3c-1.4,4.9-2.3,11-4.3,16.2
			c-3.8,9.7-8.5,3.7-9.7,15.2c-0.7,6.3-2.3,17.4-3.5,20.5c-1.2,3-4.7,7-5.8,8l-4.8,4.7v6.9c0,0.3-0.2,6.7,0.1,13.7
			c0.8,13.8,2.1,20.1,6,24.7c5.1,6,13.1,8.8,20.2,11.3c1.4,0.5,2.7,1,3.7,1.4c5.5,2.1,12.6,3.2,20,4.3c6.3,0.9,13.5,2.1,17.9,3.7
			c1.2,0.4,11.6,4.6,20.8,14.2c5.9,6.2,10,11.4,12.3,20.4H134.9C137.1,375,141.2,369.9,147.1,363.6z"/>
	</g>
	<path d="M144.1,322c9-4.5,17.8-4.5,24.6-5.4c0,0,3.8-6.2-8.7-8.4c0,0-17.1-4.3-19.1-6.7c-2-2.4-0.8-15.7-0.8-15.7
		s23.9-0.8,33.4-9.2c-15.5-23.2-7.2-50.3-10.4-75.6C160,175.8,144.9,160,116,160c-0.1,0,0,0-1,0v0c-28,0-42.4,15.8-45.6,41.1
		c-3.2,25.3,6,55.4-9.9,75.7c8.9,7.9,30.9,8.3,33.4,8.3c0.2,0,0.2,0,0.2,0c0,0,0.1-0.1,0.1-0.1s1,14.2-1,16.6
		c-2,2.4-7.9,4.6-11.9,5.5c-8.8,1.9-18.1,5-25.8,7.7C46.8,317.4,32,333,32,352h80.2C114.4,344,129.5,329.4,144.1,322z M102.8,336
		H53.9c2.4-4,4.9-5.8,6.2-6.5c7.1-2.5,15.7-5.1,23.7-6.8c3.4-0.7,14.8-3.7,20.8-10.9c3-3.5,6-9,4.6-28l-0.6-14.3L94.3,269
		c0,0-1.1,0-1.1,0h-0.6c-3.7,0-7.4-0.4-10.7-0.9c4.2-13.6,3.8-28.2,3.3-41.5c-0.3-8.5-0.5-16.9,0.4-24c2.3-18.2,11.1-27.6,29.3-27.6
		h0.2h0.5c20,0,29.4,9.2,31.8,27.7c0.9,7.1,0.8,14.9,0.6,23c-0.3,13.4-0.6,28.1,4.1,42.7c-0.4,0.1-0.7,0.2-1.1,0.3
		c-6,1.1-11.2,1.3-11.2,1.3l-14.1,0.5l-1.3,14c-1.6,17.5,1.2,23.5,4.4,27.3c0.1,0.1,0.1,0.1,0.2,0.2c-5.7,3.6-11.3,8.4-16.3,13
		C108.6,328.5,105.4,332,102.8,336z"/>
	<path d="M399.8,352H480c0-19-14.8-34.6-22.5-37.3c-7.7-2.7-17.1-5.8-25.8-7.7c-4.1-0.9-9.9-3.1-11.9-5.5c-2-2.4-1-16.6-1-16.6
		s0.1,0.1,0.1,0.1c0,0,0.1,0,0.2,0c2.5,0,24.6-0.3,33.5-8.3c-15.9-20.3-6.8-50.4-10-75.7C439.4,175.8,425,160,397,160v0
		c-1,0-1,0-1,0c-28.9,0-44.1,15.8-47.2,41.1c-3.2,25.3,5.1,52.4-10.4,75.6c9.5,8.4,33.4,9.2,33.4,9.2s1.2,13.3-0.8,15.7
		s-19.1,6.7-19.1,6.7c-12.5,2.2-8.7,8.4-8.7,8.4c6.8,0.9,15.7,0.9,24.6,5.4C382.5,329.4,397.6,344,399.8,352z M399.4,324.9
		c-5-4.6-10.6-9.4-16.3-13c0.1-0.1,0.1-0.1,0.2-0.2c3.2-3.9,6-9.9,4.4-27.3l-1.3-14l-14.1-0.5c0,0-5.2-0.2-11.2-1.3
		c-0.4-0.1-0.8-0.2-1.1-0.3c4.7-14.5,4.4-29.3,4.1-42.7c-0.2-8.1-0.3-15.9,0.6-23c2.3-18.5,11.8-27.7,31.8-27.7h0.5h0.2
		c18.2,0,26.9,9.4,29.3,27.6c0.9,7.1,0.6,15.5,0.4,24c-0.4,13.3-0.9,27.9,3.3,41.5c-3.3,0.5-7,0.9-10.7,0.9h-0.6c0,0-1.1,0-1.1,0
		l-14.4,0.4l-0.6,14.3c-1.4,19.1,1.7,24.5,4.6,28c6,7.2,17.5,10.2,20.8,10.9c7.9,1.7,16.6,4.3,23.7,6.8c1.3,0.7,3.8,2.5,6.2,6.5
		h-48.9C406.6,332,403.4,328.5,399.4,324.9z"/>
</g>
</svg>
