<?xml version="1.0" encoding="utf-8"?>
<!-- Generator: Adobe Illustrator 16.2.1, SVG Export Plug-In . SVG Version: 6.00 Build 0)  -->
<!DOCTYPE svg PUBLIC "-//W3C//DTD SVG 1.1//EN" "http://www.w3.org/Graphics/SVG/1.1/DTD/svg11.dtd">
<svg version="1.1" id="Layer_1" xmlns="http://www.w3.org/2000/svg" xmlns:xlink="http://www.w3.org/1999/xlink" x="0px" y="0px"
	 width="512px" height="512px" viewBox="0 0 512 512" style="enable-background:new 0 0 512 512;" xml:space="preserve">
<path d="M400,250.6c0-37.7-30.4-69.1-67.9-69.1c-2.8,0-5.7-0.1-8.4,0.3c-8.3-36.9-41.1-66.8-80.3-66.8c-45.5,0-82.3,39.1-82.3,84.8
	c0,2.8,0.1,5.5,0.4,8.2c-27.7,2.5-49.5,27.3-49.5,55.9c0,29.3,22.9,54.8,51.6,56.3l-25.5,37.4l13.3,9.7l32.1-47.1h36.1l-47.1,69.1
	l13.3,9.7l53.7-78.8h37.9l-26,37.7l13.3,9.7l32.6-47.4H332c0.1,0,0.3,0,0.4,0l-47.1,69.1l13.3,9.7l56.6-83.1
	C381.4,306,400,280.1,400,250.6z M332.1,302.1H290l-0.1-0.1l-0.1,0.1H166.4c-10,0-19.5-4.4-26.7-11.7c-7.2-7.3-11.1-17.2-11.1-27.5
	c0-19.7,15.2-35.7,34.9-39c1.7-0.3,9.2-1.4,15-1.9c0,0-0.5-5.6-0.7-10.1c-0.2-4.5-0.1-9.9-0.1-12.1c0-36.4,29.5-68.1,65.8-68.1
	c15.2,0,29.5,7.1,41.3,16.6c11.5,9.3,19.6,22.4,22.8,36.8l3.3,14.7l14.9-1.8c2.2-0.3,4.3-0.4,6.4-0.4c28.3,0,51.3,23.7,51.3,52.2
	C383.4,278.5,360.4,302.1,332.1,302.1z"/>
</svg>
