<?xml version="1.0" encoding="utf-8"?>
<!-- Generator: Adobe Illustrator 16.2.1, SVG Export Plug-In . SVG Version: 6.00 Build 0)  -->
<!DOCTYPE svg PUBLIC "-//W3C//DTD SVG 1.1//EN" "http://www.w3.org/Graphics/SVG/1.1/DTD/svg11.dtd">
<svg version="1.1" id="Layer_1" xmlns="http://www.w3.org/2000/svg" xmlns:xlink="http://www.w3.org/1999/xlink" x="0px" y="0px"
	 width="512px" height="512px" viewBox="0 0 512 512" style="enable-background:new 0 0 512 512;" xml:space="preserve">
<path d="M32,255.4C32,320.6,81.5,368,142.7,368h226.6c61.2,0,110.7-47.4,110.7-112.6S430.5,144,369.3,144H142.7
	C81.5,144,32,190.3,32,255.4z M404.8,233.3c10.7,0,19.4,8.5,19.4,19s-8.7,19-19.4,19s-19.4-8.5-19.4-19S394.1,233.3,404.8,233.3z
	 M362.3,191.8c10.8,0,19.5,8.5,19.5,19s-8.7,19-19.5,19c-10.7,0-19.4-8.5-19.4-19S351.6,191.8,362.3,191.8z M362.3,274.9
	c10.8,0,19.5,8.4,19.5,19c0,10.5-8.7,18.9-19.5,18.9c-10.7,0-19.4-8.5-19.4-18.9C343,283.3,351.6,274.9,362.3,274.9z M319.8,233.3
	c10.8,0,19.5,8.5,19.5,19s-8.7,19-19.5,19c-10.7,0-19.4-8.5-19.4-19S309.1,233.3,319.8,233.3z M88,245.3c0-2.7,1.8-5.3,4.3-5.3h1.1
	H128v-38.2v-0.6c0-2.8,2.1-5.2,4.8-5.2h21.9c2.7,0,5.4,2.4,5.4,5.2v0.5V240h37.2h0.6c2.7,0,5.2,2.5,5.2,5.3V267c0,2.9-2.5,5-5.2,5
	h-0.5H160v38.6v0.5c0,2.8-2.7,4.9-5.4,4.9h-21.9c-2.6,0-4.8-1.9-4.8-4.5v-1.1V272H93.1h-0.5c-2.7,0-4.6-2.1-4.6-5V245.3z"/>
</svg>
