<?xml version="1.0" encoding="utf-8"?>
<!-- Generator: Adobe Illustrator 16.2.1, SVG Export Plug-In . SVG Version: 6.00 Build 0)  -->
<!DOCTYPE svg PUBLIC "-//W3C//DTD SVG 1.1//EN" "http://www.w3.org/Graphics/SVG/1.1/DTD/svg11.dtd">
<svg version="1.1" id="Layer_1" xmlns="http://www.w3.org/2000/svg" xmlns:xlink="http://www.w3.org/1999/xlink" x="0px" y="0px"
	 width="512px" height="512px" viewBox="0 0 512 512" style="enable-background:new 0 0 512 512;" xml:space="preserve">
<g>
	<path d="M96,370.9c0,15.5,12.7,29.1,28.2,29.1h266.3c15.5,0,25.5-13.6,25.5-29.1V208H96V370.9z"/>
	<path d="M416,168.8c0-15.5-10-24.8-25.5-24.8c0,0-154.7,0-167,0c-4.7,0-10.7-9.9-18.5-19c-7.1-8.3-14.7-13-20.5-13
		c-7.5,0-60.3,0-60.3,0c-15.5,0-28.2,8.9-28.2,24.3V192h320V168.8z"/>
</g>
</svg>
