<?xml version="1.0" encoding="utf-8"?>
<!-- Generator: Adobe Illustrator 16.2.1, SVG Export Plug-In . SVG Version: 6.00 Build 0)  -->
<!DOCTYPE svg PUBLIC "-//W3C//DTD SVG 1.1//EN" "http://www.w3.org/Graphics/SVG/1.1/DTD/svg11.dtd">
<svg version="1.1" id="Layer_1" xmlns="http://www.w3.org/2000/svg" xmlns:xlink="http://www.w3.org/1999/xlink" x="0px" y="0px"
	 width="512px" height="512px" viewBox="0 0 512 512" style="enable-background:new 0 0 512 512;" xml:space="preserve">
<g id="PL_x5F_Film">
	<rect x="64" y="64" width="32" height="34.9"/>
	<path d="M367.3,81.5v142.4H144.7V81.5H367.3 M384,64H128v177.3h256V64L384,64z"/>
	<path d="M367.3,287.9v142.7H144.7V287.9H367.3 M384,270.4H128V448h256V270.4L384,270.4z"/>
	<rect x="64" y="133.8" width="32" height="34.9"/>
	<rect x="64" y="203.6" width="32" height="34.9"/>
	<rect x="64" y="273.5" width="32" height="34.9"/>
	<rect x="64" y="343.3" width="32" height="34.9"/>
	<rect x="64" y="413.1" width="32" height="34.9"/>
	<rect x="416" y="64" width="32" height="34.9"/>
	<rect x="416" y="133.8" width="32" height="34.9"/>
	<rect x="416" y="203.6" width="32" height="34.9"/>
	<rect x="416" y="273.5" width="32" height="34.9"/>
	<rect x="416" y="343.3" width="32" height="34.9"/>
	<rect x="416" y="413.1" width="32" height="34.9"/>
</g>
</svg>
