<?xml version="1.0" standalone="no"?><!DOCTYPE svg PUBLIC "-//W3C//DTD SVG 1.1//EN" "http://www.w3.org/Graphics/SVG/1.1/DTD/svg11.dtd"><svg width="100%" height="100%" viewBox="0 0 512 512" version="1.1" xmlns="http://www.w3.org/2000/svg" xmlns:xlink="http://www.w3.org/1999/xlink" xml:space="preserve" style="fill-rule:evenodd;clip-rule:evenodd;stroke-linejoin:round;stroke-miterlimit:1.41421;"><path d="M511,256c0,140.847 -114.155,255 -255,255c-140.828,0 -255,-114.153 -255,-255c0,-140.864 114.172,-255 255,-255c140.845,0 255,114.136 255,255ZM197.171,189.402l0,15.744l30.04,0l0,231.231l-30.04,0l0,15.659l124.101,0l0,-15.659l-31.433,0l0,-246.975l-92.668,0ZM291.428,104.143c0,21.915 -17.714,39.734 -39.644,39.734c-21.947,0 -39.661,-17.819 -39.661,-39.734c0,-21.882 17.714,-39.701 39.661,-39.701c21.93,0 39.644,17.819 39.644,39.701Z" style="fill:#000;"/></svg>