<?xml version="1.0" encoding="UTF-8" standalone="no"?><!DOCTYPE svg PUBLIC "-//W3C//DTD SVG 1.1//EN" "http://www.w3.org/Graphics/SVG/1.1/DTD/svg11.dtd"><svg width="100%" height="100%" viewBox="0 0 512 512" version="1.1" xmlns="http://www.w3.org/2000/svg" xmlns:xlink="http://www.w3.org/1999/xlink" xml:space="preserve" style="fill-rule:evenodd;clip-rule:evenodd;stroke-linejoin:round;stroke-miterlimit:1.41421;"><path d="M313.639,413.318l-115.278,0l0,-42.845l13.826,0c7.962,0 14.417,-6.454 14.417,-14.417l0,-128.53c0,-7.962 -6.455,-14.417 -14.417,-14.417l-13.826,0l0,-42.846l87.611,0l0,185.793c0,7.963 6.455,14.417 14.417,14.417l13.25,0l0,42.845ZM234.001,79.125c6.34,-6.385 13.992,-9.579 22.959,-9.579c9.094,0 16.778,3.194 23.056,9.579c6.274,6.386 9.415,14.047 9.415,22.987c0,8.94 -3.171,16.572 -9.51,22.893c-6.342,6.323 -13.997,9.481 -22.961,9.481c-8.837,0 -16.46,-3.191 -22.863,-9.577c-6.406,-6.384 -9.606,-13.983 -9.606,-22.797c0,-8.94 3.17,-16.601 9.51,-22.987" style="fill:#000;fill-rule:nonzero;"/><path d="M256,1.001c-140.607,0 -255,114.392 -255,254.999c0,140.607 114.393,255 255,255c140.607,0 255,-114.393 255,-255c0,-140.607 -114.393,-254.999 -255,-254.999ZM256,35.129c121.729,0 220.871,99.027 220.871,220.871c0,121.729 -99.027,220.871 -220.871,220.871c-121.729,0 -220.872,-99.142 -220.872,-220.871c0,-121.729 99.028,-220.871 220.872,-220.871Z" style="fill:#030404;fill-rule:nonzero;"/></svg>