<?xml version="1.0" encoding="utf-8"?>
<!-- Generator: Adobe Illustrator 16.2.1, SVG Export Plug-In . SVG Version: 6.00 Build 0)  -->
<!DOCTYPE svg PUBLIC "-//W3C//DTD SVG 1.1//EN" "http://www.w3.org/Graphics/SVG/1.1/DTD/svg11.dtd">
<svg version="1.1" id="Layer_1" xmlns="http://www.w3.org/2000/svg" xmlns:xlink="http://www.w3.org/1999/xlink" x="0px" y="0px"
	 width="512px" height="512px" viewBox="0 0 512 512" style="enable-background:new 0 0 512 512;" xml:space="preserve">
<g>
	<path d="M425.5,135.4c4.7-5.9,7.5-13.5,7.5-21.6c0-19.2-15.6-34.8-34.8-34.8c-8.2,0-15.7,2.8-21.6,7.5C342.6,62.3,300.9,48,256,48
		C141.1,48,48,141.1,48,256c0,114.9,93.1,208,208,208c114.9,0,208-93.1,208-208C464,211.1,449.7,169.4,425.5,135.4z M391.8,391.8
		c-17.6,17.6-38.2,31.5-61.1,41.2c-23.7,10-48.8,15.1-74.8,15.1c-25.9,0-51.1-5.1-74.8-15.1c-22.9-9.7-43.4-23.5-61.1-41.2
		c-17.6-17.6-31.5-38.2-41.2-61.1c-10-23.7-15.1-48.8-15.1-74.8c0-25.9,5.1-51.1,15.1-74.8c9.7-22.9,23.5-43.4,41.2-61.1
		s38.2-31.5,61.1-41.2c23.7-10,48.8-15.1,74.8-15.1c25.9,0,51.1,5.1,74.8,15.1c12.7,5.4,24.7,12.1,35.9,20
		c-2.1,4.5-3.3,9.5-3.3,14.9c0,19.2,15.6,34.8,34.8,34.8c5.3,0,10.3-1.2,14.9-3.3c7.9,11.2,14.6,23.2,20,35.9
		c10,23.7,15.1,48.8,15.1,74.8c0,25.9-5.1,51.1-15.1,74.8C423.3,353.6,409.5,374.2,391.8,391.8z"/>
	<circle cx="256" cy="256" r="96.1"/>
</g>
</svg>
