<?xml version="1.0" encoding="utf-8"?>
<!-- Generator: Adobe Illustrator 18.1.1, SVG Export Plug-In . SVG Version: 6.00 Build 0)  -->
<svg version="1.1" id="Layer_1" xmlns="http://www.w3.org/2000/svg" xmlns:xlink="http://www.w3.org/1999/xlink" x="0px" y="0px"
	 viewBox="0 0 512 512" enable-background="new 0 0 512 512" xml:space="preserve">
<g>
	<path d="M455.8,274c-0.1,0-0.2,0-0.4,0c-4.4-0.2-7.8-3.9-7.6-8.3c0.1-2.7,0.2-7.6,0.2-10.7c0-42.8-18.4-96.1-41.1-118.8
		c-3.1-3.1-3.1-8.2,0-11.3c3.1-3.1,8.2-3.1,11.3,0C443.9,150.6,464,207.7,464,255c0,3.2-0.1,8.3-0.2,11.4
		C463.6,270.7,460.1,274,455.8,274z"/>
	<path d="M382,111.3c-1.8,0-3.6-0.6-5.1-1.9C341.2,79.7,299.4,64,256,64c-41.3,0-79.9,12-111.7,34.8c-3.6,2.6-8.6,1.7-11.2-1.8
		c-2.6-3.6-1.7-8.6,1.8-11.2C169.5,61.1,211.4,48,256,48c47.2,0,92.5,17,131.1,49.2c3.4,2.8,3.9,7.9,1,11.3
		C386.6,110.3,384.3,111.3,382,111.3z"/>
	<path d="M71.2,351.8c-3.4,0-6.6-2.2-7.7-5.7C54,314.3,48,288,48,255c0-50.3,18.2-98.8,51.2-136.7c2.9-3.3,8-3.7,11.3-0.8
		c3.3,2.9,3.7,8,0.8,11.3C80.8,163.8,64,208.6,64,255c0,31,5.7,56.1,14.9,86.5c1.3,4.2-1.1,8.7-5.3,10
		C72.8,351.7,72,351.8,71.2,351.8z"/>
	<path d="M122.1,423.6c-0.2,0-0.3,0-0.5,0c-4.4-0.3-7.8-4-7.5-8.5c2.9-49-0.7-66.6-5.3-88.9c-3.3-16.2-7.1-34.5-9.4-67.8
		c-3.1-43,10.9-83.4,39.2-113.9c29.8-32,72.6-49.6,120.6-49.6c35.5,0,68.6,12.4,95.5,35.7c26.2,22.7,45.9,55.2,57.1,94
		c12.5,43.1,16,97.4,10.1,157c-0.4,4.4-4.4,7.6-8.7,7.2c-4.4-0.4-7.6-4.3-7.2-8.7c5.6-57.6,2.3-109.9-9.6-151
		c-10.4-35.8-28.4-65.7-52.3-86.4c-24-20.8-53.4-31.8-85-31.8c-43.5,0-82.1,15.8-108.8,44.5c-25.3,27.2-37.8,63.4-35,101.9
		c2.3,32.2,5.9,50,9.1,65.7c4.8,23.4,8.6,41.9,5.6,93C129.8,420.4,126.3,423.6,122.1,423.6z"/>
	<path d="M168.7,448.3c-0.4,0-0.7,0-1.1-0.1c-4.4-0.6-7.4-4.7-6.8-9c8-56.4-0.4-118.6-9.6-172c-5.8-33.6,0.8-62.9,19.1-84.7
		c19.3-22.9,51.3-36.5,85.7-36.5c28.6,0,54.5,11.3,74.7,32.8c20.4,21.5,34.3,52.7,40.2,90c5,31.5,7.5,57.2,7.6,78.5
		c0.3,43-5,77.3-5.2,78.7c-0.7,4.4-4.8,7.4-9.1,6.7c-4.4-0.7-7.4-4.8-6.7-9.1c0.1-0.3,5.3-34.6,5.1-76.2
		c-0.1-20.5-2.5-45.4-7.4-76.1C344.5,203.9,306.5,162,256,162c-29.8,0-57.2,11.5-73.5,30.8c-15.4,18.3-20.7,42.4-15.6,71.6
		c9.4,54.6,18,118.4,9.7,177C176,445.4,172.6,448.3,168.7,448.3z"/>
	<path d="M316.3,453c-0.5,0-1,0-1.5-0.1c-4.3-0.8-7.2-5-6.4-9.4c3.5-18.2,2.8-37.1,2.8-37.3c-0.2-4.4,3.3-8.1,7.7-8.3
		c0.1,0,0.2,0,0.3,0c4.3,0,7.8,3.4,8,7.7c0,0.8,0.7,20.9-3.1,40.9C323.5,450.3,320.1,453,316.3,453z"/>
	<path d="M216.1,461.3c-0.3,0-0.7,0-1-0.1c-4.4-0.6-7.5-4.6-6.9-9c7.2-56.3,4.4-117.8-8.4-182.7c-5.9-29.8,2.2-47.3,9.9-56.7
		c10-12.2,25.7-18.9,44.3-18.9c28.9,0,51,20.7,60.7,56.9c7.6,28.2,11.9,68.4,12.6,116.3c0.1,4.4-3.5,8-7.9,8.1c0,0-0.1,0-0.1,0
		c-4.4,0-7.9-3.5-8-7.9c-0.6-46.5-4.8-85.4-12.1-112.3C288.3,214.4,264,210,254,210c-13.7,0-25,4.6-31.9,13
		c-8,9.7-10.2,24.7-6.6,43.4c13.1,66.6,16,129.8,8.5,187.8C223.5,458.4,220.1,461.3,216.1,461.3z"/>
	<path d="M266,464c-0.3,0-0.6,0-0.9,0c-4.4-0.5-7.6-4.4-7.1-8.8c7.9-71.3,1.8-165.3-12.9-201.1c-1.7-4.1,0.3-8.8,4.3-10.5
		c4.1-1.7,8.8,0.3,10.5,4.3c15.9,38.5,22.3,134.1,14.1,208.9C273.5,461,270,464,266,464z"/>
</g>
</svg>
