<?xml version="1.0" encoding="utf-8"?>
<!-- Generator: Adobe Illustrator 18.1.1, SVG Export Plug-In . SVG Version: 6.00 Build 0)  -->
<svg version="1.1" id="Layer_1" xmlns="http://www.w3.org/2000/svg" xmlns:xlink="http://www.w3.org/1999/xlink" x="0px" y="0px"
	 viewBox="0 0 512 512" enable-background="new 0 0 512 512" xml:space="preserve">
<g>
	<path fill="#231F20" d="M390.7,99.7c-2.8-2.4-6.4-3.7-10.2-3.7c-4.6,0-9,2-11.9,5.5c-2.7,3.2-4,7.2-3.7,11.4
		c0.3,4.2,2.3,8,5.5,10.7c39.5,33.5,62.2,82.1,62.2,133.3c0,96.9-79.2,175.8-176.6,175.8S79.4,353.8,79.4,256.9
		c0-51.3,22.7-99.9,62.2-133.3c3.2-2.7,5.2-6.5,5.5-10.7c0.3-4.2-1-8.2-3.7-11.4c-3-3.5-7.3-5.5-11.9-5.5c-3.7,0-7.3,1.3-10.2,3.7
		C74.7,139.1,48,196.4,48,256.9C48,371.1,141.3,464,256,464s208-92.9,208-207.1C464,196.4,437.3,139.1,390.7,99.7z"/>
	<path fill="#231F20" d="M257,272c8.8,0,16-7.2,16-16V64c0-8.8-7.2-16-16-16s-16,7.2-16,16v192C241,264.8,248.2,272,257,272z"/>
</g>
</svg>
