<?xml version="1.0" encoding="utf-8"?>
<!-- Generator: Adobe Illustrator 18.1.1, SVG Export Plug-In . SVG Version: 6.00 Build 0)  -->
<svg version="1.1" id="Layer_1" xmlns="http://www.w3.org/2000/svg" xmlns:xlink="http://www.w3.org/1999/xlink" x="0px" y="0px"
	 viewBox="0 0 512 512" enable-background="new 0 0 512 512" xml:space="preserve">
<path d="M408,260h-24v-47.8c0-70.4-57.6-128-128-128h0h0c-70.4,0-128,57.6-128,128V260h-24c-39.6,0-72,32.4-72,72v15.8
	c0,39.6,32.4,72.2,72,72.2h24c0,4,3.6,7.9,8,7.9s8-3.7,8-8.1v-16v-128v-16V213c8.2,0,21,0,24,0c4.4,0,8-4,8-8.4
	c0-40,38.7-72.4,80-72.4s80,32.3,80,72.3c0,4.4,3.6,8.6,8,8.6c2.9,0,15.5,0,24,0v46.8v16v128v16c0,4.4,3.6,8.1,8,8.1s8-3.9,8-7.9h24
	c39.6,0,72-32.6,72-72.2V332C480,292.4,447.6,260,408,260z"/>
</svg>
