<?xml version="1.0" encoding="utf-8"?>
<!-- Generator: Adobe Illustrator 18.1.1, SVG Export Plug-In . SVG Version: 6.00 Build 0)  -->
<svg version="1.1" id="Layer_1" xmlns="http://www.w3.org/2000/svg" xmlns:xlink="http://www.w3.org/1999/xlink" x="0px" y="0px"
	 viewBox="0 0 512 512" enable-background="new 0 0 512 512" xml:space="preserve">
<g>
	<path fill="none" d="M368,224v128h48c0,0,0,0,0,0V224c0,0,0,0,0,0H368z"/>
	<path d="M112,320V144h272c0,0-0.3-4.9-0.3-25.7c0-20.8-17.2-38.3-38.1-38.3l-10.5-0.7c-6-27-32-47.3-59.1-47.3
		s-41.1,11.6-51.7,28.9c-8.5-9.8-21.1-15.4-35.2-15.4C170.8,45.5,155,57,147.4,72H123c-25,0-43,19.6-43,45.4v4
		c0,28.8,16,20.9,16,39.8C96,179,96,268,96,268c0,13.4-11.2,19.3-11.2,35.2c0,8.8,8,16.8,16.8,16.8H112z"/>
	<path d="M416,208h-48v-48H128v272l-32,32v16h304v-16l-32-32v-64h48c8.8,0,16-7.2,16-16V224C432,215.2,424.8,208,416,208z M288,204
		c11,0,20,9,20,20c0,11-9,20-20,20s-20-9-20-20C268,213,277,204,288,204z M288,352c0,6.6-5.4,12-12,12s-12-5.4-12-12
		c0-6.6,5.4-12,12-12S288,345.4,288,352z M256,256c8.8,0,16,7.2,16,16s-7.2,16-16,16s-16-7.2-16-16S247.2,256,256,256z M416,352
		C416,352,416,352,416,352l-48,0V224h48c0,0,0,0,0,0V352z"/>
</g>
</svg>
