<?xml version="1.0" encoding="utf-8"?>
<!-- Generator: Adobe Illustrator 18.1.1, SVG Export Plug-In . SVG Version: 6.00 Build 0)  -->
<svg version="1.1" id="Layer_1" xmlns="http://www.w3.org/2000/svg" xmlns:xlink="http://www.w3.org/1999/xlink" x="0px" y="0px"
	 viewBox="0 0 512 512" enable-background="new 0 0 512 512" xml:space="preserve">
<g>
	<path d="M493.4,256l-31.8,31.8c9.7-63-9.8-130.2-58.5-178.9c-81.2-81.2-213-81.3-294.2,0c-16.3,16.3-29.3,34.5-39,54l15.5,7.8
		c8.9-17.9,20.8-34.7,35.7-49.6c74.3-74.3,195.3-74.3,269.7,0.1c45.6,45.6,63.2,108.6,52.9,168L409.6,256l-10.8,10.8L452,320
		l52.7-52.7L493.4,256z"/>
	<path d="M390.8,390.8c-74.3,74.3-195.3,74.4-269.7,0C75.6,345.2,58,281.9,68.3,222.9l33.1,33.1l11.3-11.3L60,192L7.3,244.7
		L18.6,256l31.8-31.8c-9.8,63.4,9.7,130.2,58.4,178.9c81.2,81.2,213,81.2,294.2,0c16.3-16.3,29.3-34.6,39-54l-15.5-7.8
		C417.6,359.2,405.7,375.9,390.8,390.8z"/>
</g>
</svg>
