<?xml version="1.0" encoding="utf-8"?>
<!-- Generator: Adobe Illustrator 18.1.1, SVG Export Plug-In . SVG Version: 6.00 Build 0)  -->
<svg version="1.1" id="Layer_1" xmlns="http://www.w3.org/2000/svg" xmlns:xlink="http://www.w3.org/1999/xlink" x="0px" y="0px"
	 viewBox="0 0 512 512" enable-background="new 0 0 512 512" xml:space="preserve">
<g>
	<path d="M256,48C141.1,48,48,141.1,48,256c0,114.9,93.1,208,208,208c114.9,0,208-93.1,208-208C464,141.1,370.9,48,256,48z M128,240
		h53.1l-18.5,32H128V240z M139.3,352l9.5-45l24.8,16.2L139.3,352z M178.6,316.3l-24.9-15l16.9-29.2l18.5-32l37.4-64.8
		c1.6-2.8,5.2-3.7,7.9-2.1l15.1,8.6c2.8,1.6,3.7,5.1,2.1,7.9l-29,50.4l-18.4,32L178.6,316.3z M212.1,272l18.4-32h52.7l18.1,32H212.1
		z M309.5,272.3l-0.2-0.3l-18.1-32l-51.7-91.4c-1.6-2.7-0.6-6.3,2.1-7.9l15.1-8.6c2.8-1.6,6.3-0.6,7.9,2.1l60,105.8l9.8,17.2
		L310,272L309.5,272.3z M313.5,278.3l10.4-6.3l14.4-8.7l5,8.7l8.1,14.2l-24.9,15L313.5,278.3z M364.7,352
		c-8.5-16.8-17.4-13.7-26.5-25.4c-11.3-14.6-2.9-25.4,3.9-28.6c17.6-8.2,27.5,3,29.8,18.3C374.1,330.3,369.5,347.9,364.7,352z
		 M384,272h-33l-18-32h51V272z"/>
</g>
</svg>
