<?xml version="1.0" encoding="utf-8"?>
<!-- Generator: Adobe Illustrator 18.1.1, SVG Export Plug-In . SVG Version: 6.00 Build 0)  -->
<svg version="1.1" id="Layer_1" xmlns="http://www.w3.org/2000/svg" xmlns:xlink="http://www.w3.org/1999/xlink" x="0px" y="0px"
	 viewBox="0 0 512 512" enable-background="new 0 0 512 512" xml:space="preserve">
<g>
	<path d="M416,416c-8.5,18.7-24,16-63.9,16c0,10.5-1.1,16,3.3,16c4.4,0,50.4,0,55.1,0S414.7,444.2,416,416z"/>
	<path d="M96,416c1.5,28.4,0.8,32,5.5,32s50.7,0,55.1,0c4.4,0,3.3-5.5,3.3-16C120,432,109.5,435,96,416z"/>
	<circle cx="352" cy="352" r="24"/>
	<circle cx="160" cy="352" r="24"/>
	<path d="M384,64h-8H136h-8c-17.6,0-32,14.4-32,32l0,0l0,280c0,22,18,40,40,40h240c22,0,40-18,40-40V96l0,0
		C416,78.4,401.6,64,384,64z M400,376c0,13.2-10.8,24-24,24H136c-13.2,0-24-10.8-24-24v-72h288V376z M112,272V144.2
		c0-8.8,7.4-16.2,16.2-16.2H248v160H128.2C119.4,288,112,280.8,112,272z M400,272c0,8.8-7.2,16-16,16H264V128h120
		c8.8,0,16,7.4,16,16.2V272z M384,112H128c-8.8,0-16-7.2-16-16s7.2-16,16-16h256c8.8,0,16,7.2,16,16S392.8,112,384,112z"/>
</g>
</svg>
