<?xml version="1.0" encoding="utf-8"?>
<!-- Generator: Adobe Illustrator 18.1.1, SVG Export Plug-In . SVG Version: 6.00 Build 0)  -->
<svg version="1.1" id="Layer_1" xmlns="http://www.w3.org/2000/svg" xmlns:xlink="http://www.w3.org/1999/xlink" x="0px" y="0px"
	 viewBox="0 0 512 512" enable-background="new 0 0 512 512" xml:space="preserve">
<g>
	<g>
		<path d="M380.4,163.6C374,160.5,368,159,368,159c0-61.9-50.1-113-112-113s-112,51.2-112,113.1c0,0-5.7,0.9-12.4,4.4
			c-12.2,6.4-19.7,19.8-19.7,34.5c0,22.1,17.9,40,40,40c12.5,0,31.7-5.8,39.1-14.8c15.3,15.1,37.8,22.8,64.9,22.8
			c27.1,0,49.7-7.7,64.9-22.8c7.3,9,26.5,14.8,39.1,14.8c22.1,0,40-17.9,40-40C400,183.4,391.2,168.9,380.4,163.6z M360,222
			c-4.5,0-10.7-1.2-16.2-3.1c-6.4-2.3-10.5-5.8-10.5-5.8c-5.2-3.4-11.1-13.7-11.1-13.7l-12.5,12.4c-12,11.9-30.5,18.2-53.7,18.2
			c-23.1,0-41.7-6.3-53.7-18.2l-12.5-12.4c0,0-4.6,8.9-11.1,13.7c-2,1.5-4.1,3.5-10.5,5.8c-5.4,1.9-11.6,3.1-16.2,3.1
			c-13.3,0-24-10.8-24-24c0-8.2,4-15.6,10.7-20c0,0,4.1-2.5,8.1-3.9c4.6-1.5,8.4-2,8.4-2c10.1,7.8,21.4,10.5,21.4,10.5
			c-8.7-6-16.4-21.7-16.4-21.7v-1.9c0-25.8,10-50.1,28.2-68.5C206.4,72.2,230.5,62,256,62c25.5,0,49.6,10.1,67.8,28.5
			C342,108.9,352,133.3,352,159v2.1l0,0c0,0-7,15.6-15.6,21.6c0,0,11.2-2.7,21.3-10.4c0,0,3.5-0.2,7.5,1.3s8.1,4.5,8.1,4.5
			c6.7,4.5,10.7,11.8,10.7,20C384,211.2,373.2,222,360,222z"/>
	</g>
	<g>
		<path d="M191.1,240.2c-0.1,0.1-0.2,0.2-0.3,0.3L191.1,240.2C191.2,240.3,191.1,240.2,191.1,240.2z"/>
		<path d="M321,240.2C305.7,255.3,283.1,263,256,263c-27,0-49.6-7.6-64.8-22.7l-0.4,0.2c-4,4.7-11.2,8.5-18.9,11L226.8,439
			c0.9,2.6,9.5,27,29.3,27c9.1,0,17.5-5.9,23.7-14.7c3.7-5.3,5.6-11.4,5.9-12.4l55.3-187C332.8,249.2,325,245.2,321,240.2z
			 M256.1,283.7l35.8,24.6l-35.8,24.6l-35.8-24.6L256.1,283.7z M197.8,292.8L187.1,258l5-3c9.5,10.4,36.1,18.1,51.8,20.2l0.5,0.3
			l-35.8,24.6l-7.1,4.9L197.8,292.8z M205.3,318.6l3.2-2.2l35.8,24.6l-27.1,18.6L205.3,318.6z M233.1,414.3l-5.6-19.3l16.8,11.6
			L233.1,414.3z M256.1,453c-11.3,0-17.1-18.4-17.1-18.4l-1-3.8l18.1-13.1l18.2,13.2l-0.9,3.6C273.4,434.6,267.7,453,256.1,453z
			 M279.3,414.4l-11.4-7.8l17.1-11.8L279.3,414.4z M290.9,374.5l-34.8,24l-34.5-23.7l-0.4-1.5l35-24l35.2,24.2L290.9,374.5z
			 M295.2,359.8L267.9,341l35.8-24.6l3.5,2.4L295.2,359.8z M314.8,292.5l-3.7,12.7l-7.4-5.1l-35.8-24.6l0.5-0.3
			c15.6-2.1,37-8.2,51.7-18.8l4,2.6L314.8,292.5z"/>
	</g>
</g>
</svg>
