<?xml version="1.0" encoding="utf-8"?>
<!-- Generator: Adobe Illustrator 16.2.1, SVG Export Plug-In . SVG Version: 6.00 Build 0)  -->
<!DOCTYPE svg PUBLIC "-//W3C//DTD SVG 1.1//EN" "http://www.w3.org/Graphics/SVG/1.1/DTD/svg11.dtd">
<svg version="1.1" id="Layer_1" xmlns="http://www.w3.org/2000/svg" xmlns:xlink="http://www.w3.org/1999/xlink" x="0px" y="0px"
	 width="512px" height="512px" viewBox="0 0 512 512" style="enable-background:new 0 0 512 512;" xml:space="preserve">
<g>
	<circle cx="160" cy="160" r="32"/>
	<path d="M438.8,289.4l-204-213.8c-7.6-7.6-17.6-11.5-27.5-11.6H95.8C78.2,64,64,78.2,64,95.8v108.1c0,10.8,4.3,20.5,11.3,27.7
		l214,207.2c6.1,6.1,14.3,9.2,22.5,9.2c8.1,0,16.3-3,22.5-9.2l104.5-104.4c6.2-6.2,9.2-14.3,9.2-22.5
		C448,303.7,444.9,295.5,438.8,289.4z M160,208c-26.5,0-48-21.5-48-48s21.5-48,48-48s48,21.5,48,48S186.5,208,160,208z"/>
</g>
</svg>
