<?xml version="1.0" encoding="utf-8"?>
<!-- Generator: Adobe Illustrator 18.1.1, SVG Export Plug-In . SVG Version: 6.00 Build 0)  -->
<svg version="1.1" id="Layer_1" xmlns="http://www.w3.org/2000/svg" xmlns:xlink="http://www.w3.org/1999/xlink" x="0px" y="0px"
	 viewBox="0 0 512 512" enable-background="new 0 0 512 512" xml:space="preserve">
<g>
	<polygon points="219.2,400.9 226.4,423.3 240.8,414.3 	"/>
	<polygon points="285.9,423.4 293.2,400.6 271.2,414.3 	"/>
	<path d="M240.8,261.9l-0.6-0.4c-20.1-2.5-36.9-9.8-49.1-21.9c-4.1,5-11.8,9-20,11.6l9.9,30.8l4.6,14.2l9.2-5.7L240.8,261.9z"/>
	<polygon points="194.7,309.5 190.6,312 206,359.8 240.8,338.1 	"/>
	<polygon points="256,347.6 211,375.5 209.9,376.2 211.6,377.3 256,404.9 300.8,377 302.1,376.2 301.3,375.7 	"/>
	<polygon points="302.1,300 256,271.4 209.9,300 256,328.7 	"/>
	<path d="M320.9,239.7c-12.2,12.1-29,19.4-49.1,21.9l-0.6,0.4l46.1,28.7l9.5,5.9l4.8-14.8l9.8-30.3
		C333,248.8,325.1,244.8,320.9,239.7z"/>
	<path d="M231.4,439l2.6,8c0,0,7.5,19,22,19c15,0,22.2-19,22.2-19l2.5-7.8L256,423.7L231.4,439z"/>
	<polygon points="271.2,338.1 306.3,360 321.8,312.2 317.3,309.5 	"/>
	<path d="M380.4,163.9c-11,12.7-28.1,16.8-28.1,16.8c8.7-6,15.6-21.6,15.6-21.6c0-0.3,0-0.5,0-0.8C368,96.3,317.9,46,256,46
		S144,96.7,144,158.7c0,0.3,0,1.3,0,1.3h0.3c0,0,7,15.1,15.6,21.1c0,0-17.2-4.3-28.2-17.1c-11.8,7-19.8,19.7-19.8,34.5
		c0,22.1,17.9,40,40,40c12.5,0,31.7-5.8,39.1-14.9c15.3,15.2,37.8,22.8,64.9,22.8s49.7-7.7,64.9-22.9c7.3,9.1,26.5,14.8,39.1,14.8
		c22.1,0,40-18,40-40.1C400,183.7,392.1,170.9,380.4,163.9z"/>
</g>
</svg>
