<?xml version="1.0" encoding="utf-8"?>
<!-- Generator: Adobe Illustrator 18.1.1, SVG Export Plug-In . SVG Version: 6.00 Build 0)  -->
<svg version="1.1" id="Layer_1" xmlns="http://www.w3.org/2000/svg" xmlns:xlink="http://www.w3.org/1999/xlink" x="0px" y="0px"
	 viewBox="0 0 512 512" enable-background="new 0 0 512 512" xml:space="preserve">
<g>
	<polygon points="208,162.8 221.8,150 336,256 221.8,362 208,349.2 308.4,256 	"/>
	<g>
		<path d="M48,256c0,114.9,93.1,208,208,208c114.9,0,208-93.1,208-208S370.9,48,256,48C141.1,48,48,141.1,48,256z M65.3,256
			c0-105.1,85.5-190.7,190.7-190.7c105.1,0,190.7,85.5,190.7,190.7c0,105.1-85.5,190.7-190.7,190.7C150.9,446.7,65.3,361.1,65.3,256
			z"/>
	</g>
</g>
</svg>
