<?xml version="1.0" encoding="utf-8"?>
<!-- Generator: Adobe Illustrator 18.1.1, SVG Export Plug-In . SVG Version: 6.00 Build 0)  -->
<svg version="1.1" id="Layer_1" xmlns="http://www.w3.org/2000/svg" xmlns:xlink="http://www.w3.org/1999/xlink" x="0px" y="0px"
	 viewBox="0 0 512 512" enable-background="new 0 0 512 512" xml:space="preserve">
<g>
	<g>
		<g>
			<path d="M334.9,276.5c0,0.2,0,0.4-0.1,0.6C334.8,276.9,334.8,276.7,334.9,276.5z"/>
			<path d="M335.2,272.4c0,0.2,0,0.4,0,0.7C335.1,272.8,335.1,272.6,335.2,272.4z"/>
			<path d="M177,268.3v0.1c0,46.1,35.3,83.6,79.1,83.6c9.1,0,17.8-1.6,25.9-4.6l-0.1-0.1c-8.1,3-16.7,4.6-25.8,4.6
				C212.3,351.8,177,314.4,177,268.3z"/>
			<path d="M256.1,335.8c-34.8,0-63.1-30.3-63.1-67.5v-73L177,168v100.3c0,46.1,35.3,83.6,79.1,83.6c9.1,0,17.8-1.6,25.9-4.6
				l-8.3-14.1C268.1,334.9,262.2,335.8,256.1,335.8z"/>
			<path d="M335,268.4v-0.1c0,1.4,0,2.7-0.1,4.1C335,271.1,335,269.7,335,268.4z"/>
			<path d="M335.1,273.1c-0.1,1.2-0.1,2.3-0.2,3.5C335,275.4,335.1,274.2,335.1,273.1z"/>
			<path d="M320.2,317.4c7.9-11.5,13.1-25.3,14.6-40.2C333.3,292,328.1,305.8,320.2,317.4L320.2,317.4z"/>
			<path d="M255.9,48c-29.6,0-55.3,17.1-68.9,42.4l10,16.9c9.1-25.4,32-43.5,58.9-43.5c34.8,0,63.1,30.3,63.1,67.5v136.8
				c0,12.1-2.9,23.5-8.2,33.3l9.3,15.7c7.9-11.5,13.2-25.3,14.7-40.2c0-0.2,0.1-0.4,0.1-0.6c0.1-1.1,0.2-2.3,0.3-3.5
				c0-0.2-0.1-0.4-0.1-0.7c0.1-1.4,0-2.7,0-4.1V131.6C335,85.5,299.7,48,255.9,48z"/>
		</g>
		<path d="M264.2,383.3l-8.2,0.6l-8.4-0.6c-28.6-2.1-53.2-14.6-72.9-35.4c-19.7-20.8-30.7-47.8-30.7-76.1V208h-16v63.8
			c0,67.2,54,122.6,121,127.4V448h-74v16h161v-16h-72v-48.7c15-1.1,29.1-4.7,42.3-10.5l-7.8-13.3
			C287.5,379.8,275.9,382.4,264.2,383.3z"/>
		<path d="M384,271.8V208h-16v63.8c0,28.4-10.1,55.5-29.2,76.2c-0.2,0.2-0.2,0.3-0.4,0.5l7.6,13.2C369.4,338.6,384,306.8,384,271.8z
			"/>
	</g>
	<g>
		<polygon points="133.8,32 120,40.1 378.2,480 392,471.9 		"/>
	</g>
</g>
</svg>
