<?xml version="1.0" encoding="utf-8"?>
<!-- Generator: Adobe Illustrator 18.1.1, SVG Export Plug-In . SVG Version: 6.00 Build 0)  -->
<svg version="1.1" id="Layer_1" xmlns="http://www.w3.org/2000/svg" xmlns:xlink="http://www.w3.org/1999/xlink" x="0px" y="0px"
	 viewBox="0 0 512 512" enable-background="new 0 0 512 512" xml:space="preserve">
<path d="M456.3,160c-1.1,0-4.3,0-8.3,0v-41c0-13.3-9.4-23-22.8-23H230.9c-2.8,0-4.3-0.6-6.1-2.4l-22.5-22.5l-0.2-0.2
	c-4.9-4.6-8.9-6.9-17.3-6.9H88.7C74.9,64,64,74.3,64,87v73c-4,0-7.1,0-8.3,0c-12.8,0-25.3,5.1-23.5,24.3C34,203.5,55.7,423,55.7,423
	c2.7,17.8,11.7,25,25,25h352.5c12.7,0,21-7.8,23-25c0,0,22.2-212.9,23.6-233.5S470.9,160,456.3,160z M80,87c0-4.3,4.4-7,8.7-7h96.1
	c3.5,0,3.7,0.2,6.2,2.5l22.5,22.4c4.8,4.8,10.4,7.1,17.4,7.1h194.3c4.5,0,6.8,2.6,6.8,7v41c-72,0-280,0-352,0V87z M440.2,423
	c-0.8,4.7-3.7,9-8,9H82c-4.5,0-9.5-3.5-10.3-9l-24-239c0-4.4,3.6-8,8-8h400.6c4.4,0,8,3.6,8,8L440.2,423z"/>
</svg>
