<?xml version="1.0" encoding="utf-8"?>
<!-- Generator: Adobe Illustrator 16.2.1, SVG Export Plug-In . SVG Version: 6.00 Build 0)  -->
<!DOCTYPE svg PUBLIC "-//W3C//DTD SVG 1.1//EN" "http://www.w3.org/Graphics/SVG/1.1/DTD/svg11.dtd">
<svg version="1.1" id="Layer_1" xmlns="http://www.w3.org/2000/svg" xmlns:xlink="http://www.w3.org/1999/xlink" x="0px" y="0px"
	 width="512px" height="512px" viewBox="0 0 512 512" enable-background="new 0 0 512 512" xml:space="preserve">
<path d="M256,464c114.863,0,208.001-93.136,208.001-207.999c0-114.863-93.137-208.001-208-208.001c-114.872,0-208,93.137-208,208
	C48,370.864,141.131,464,256,464z M301.523,441.158c-7.375,1.544-14.822,2.769-22.271,3.692
	c-2.477-51.157-22.604-101.819-60.134-142.07l36.174-36.174l129.683,129.683C361.726,417.681,333.166,433.376,301.523,441.158z
	 M229.281,444.784c-39.476-5.562-75.104-23.254-102.988-49.179l81.506-81.507c17.716,19.054,31.045,40.045,40.507,63.38
	c8.903,21.955,14.112,45.188,15.183,68.844c-2.543,0.1-5.361-0.1-7.93-0.1C246.744,446.223,237.961,445.74,229.281,444.784z
	 M396.289,384.976L266.606,255.293l39.708-39.708c39.516,36.849,88.873,56.839,138.964,59.956c-0.9,8.635-2.25,17.231-4.051,25.702
	C433.469,332.997,417.744,361.657,396.289,384.976z M317.633,204.266l77.948-77.948c31.876,34.591,50.732,79.637,50.732,129.331
	c-0.001,1.317,0.153,2.805,0.127,4.115c-22.458-1.383-44.62-6.605-65.518-15.08C357.588,235.221,336.687,221.981,317.633,204.266z
	 M256,65.335c49.334,0,94.353,18.837,128.243,49.695l-77.923,77.923c-17.009-18.347-30.334-39.334-39.797-62.668
	c-8.43-20.788-13.374-42.561-14.789-64.895C253.153,65.359,254.574,65.335,256,65.335z M295.001,204.272l-39.708,39.708
	L127.026,115.713c29.304-26.963,67.043-44.887,108.757-49.305C238.98,116.365,258.951,165.563,295.001,204.272z M115.712,127.026
	l128.267,128.267l-36.174,36.173c-39.444-36.728-89.946-56.84-140.971-59.401C71.897,191.827,89.553,155.458,115.712,127.026z
	 M133.729,262.899c23.334,9.462,44.412,22.878,62.758,39.887l-81.457,81.455C84.173,350.352,65.335,305.335,65.336,256
	c0-2.625,0.068-5.232,0.173-7.83C89.1,249.257,111.83,254.02,133.729,262.899z"/>
</svg>
