<?xml version="1.0" encoding="utf-8"?>
<!-- Generator: Adobe Illustrator 18.1.1, SVG Export Plug-In . SVG Version: 6.00 Build 0)  -->
<svg version="1.1" id="Layer_1" xmlns="http://www.w3.org/2000/svg" xmlns:xlink="http://www.w3.org/1999/xlink" x="0px" y="0px"
	 viewBox="0 0 512 512" enable-background="new 0 0 512 512" xml:space="preserve">
<g>
	<path d="M383.7,118.3c0-20.8-17.2-38.3-38.1-38.3l-10.5-0.7c-6-27-32-47.3-59.1-47.3s-41.1,11.6-51.7,28.9
		c-8.5-9.8-21.1-15.4-35.2-15.4C170.8,45.5,155,57,147.4,72H123c-25,0-43,19.6-43,45.4v4c0,28.8,16,20.9,16,39.8
		C96,179,96,268,96,268c0,13.4-11.2,19.3-11.2,35.2c0,8.8,8,16.8,16.8,16.8H112V144h272C384,144,383.7,139.1,383.7,118.3z
		 M367.6,128H111.2c0,0-7.8,0-10.8,0s-4.4-3.8-4.4-6.6v-4c0-8.9,3.4-16.4,8.2-21.9c4.6-5.3,11.4-7.5,18.8-7.5h34.5l4.3-9.6
		c5-10.5,15.4-17.2,27.3-17.2c9,0,18.5,5.1,26.2,11.1l10.7,9.3l8-10c11.3-15,26.4-23.8,42.1-23.8c10.3,0,20,3.4,28,9.9
		c7.8,6.3,13.3,15.1,15.4,24.8l2.6,11.8c0,0,9.4-0.4,23.5,1.6s22.1,10.4,22.1,22.4L367.6,128z"/>
	<circle cx="288" cy="224" r="20"/>
	<circle cx="256" cy="272" r="16"/>
	<circle cx="276" cy="352" r="12"/>
	<g>
		<rect x="96" y="464" width="304" height="16"/>
		<path d="M416,208h-48v-48H128v272l-16,16h272l-16-16v-64h48c8.8,0,16-7.2,16-16V224C432,215.2,424.8,208,416,208z M352,432H144
			V176h208V432z M416,352C416,352,416,352,416,352l-48,0V224h48c0,0,0,0,0,0V352z"/>
	</g>
</g>
</svg>
