<?xml version="1.0" encoding="utf-8"?>
<!-- Generator: Adobe Illustrator 16.2.1, SVG Export Plug-In . SVG Version: 6.00 Build 0)  -->
<!DOCTYPE svg PUBLIC "-//W3C//DTD SVG 1.1//EN" "http://www.w3.org/Graphics/SVG/1.1/DTD/svg11.dtd">
<svg version="1.1" xmlns="http://www.w3.org/2000/svg" xmlns:xlink="http://www.w3.org/1999/xlink" x="0px" y="0px" width="512px"
	 height="512px" viewBox="0 0 512 512" enable-background="new 0 0 512 512" xml:space="preserve">
<g id="boxes" display="none">
	<rect display="inline" opacity="0.1" width="512" height="512"/>
</g>
<g id="icons">
	<g>
		<rect x="248" y="336" width="16" height="112"/>
		<path d="M413.012,178.113C406.146,113.895,354.041,64,288,64c-44.838,0-86.535,22.812-109.396,57.715
			C170.658,118.056,161.821,116,152.5,116c-34.208,0-61.981,27.487-62.477,61.577C55.092,188.613,32,220.158,32,256
			c0,43.906,35.594,80,79.5,80H248V191.412l-70.788,70.635l-11.663-11.604L256.105,160l90.487,90.467L334.85,262.07L264,191.412V336
			h136.5c43.906,0,79.5-36.094,79.5-80C480,216.352,450.973,184.116,413.012,178.113z"/>
	</g>
</g>
</svg>
