<?xml version="1.0" encoding="utf-8"?>
<!-- Generator: Adobe Illustrator 18.1.1, SVG Export Plug-In . SVG Version: 6.00 Build 0)  -->
<svg version="1.1" id="Layer_1" xmlns="http://www.w3.org/2000/svg" xmlns:xlink="http://www.w3.org/1999/xlink" x="0px" y="0px"
	 viewBox="0 0 512 512" enable-background="new 0 0 512 512" xml:space="preserve">
<g>
	<path d="M335.7,32H177.1C158.8,32,144,46.6,144,64.9v381c0,18.4,14.8,34.1,33.1,34.1h158.5c18.3,0,32.3-15.7,32.3-34.1v-381
		C368,46.6,354,32,335.7,32z M241,55h30c2.2,0,4,1.8,4,4c0,2.2-1.8,4-4,4h-30c-2.2,0-4-1.8-4-4C237,56.8,238.8,55,241,55z
		 M256.5,469c-9.6,0-17.4-7.8-17.4-17.4c0-9.6,7.8-17.4,17.4-17.4c9.6,0,17.4,7.8,17.4,17.4C273.9,461.2,266.1,469,256.5,469z
		 M352,424H160V83h192V424z"/>
	<path d="M256.5,441.6c-5.5,0-10,4.5-10,9.9c0,5.5,4.5,10,10,10s10-4.5,10-10C266.4,446.1,262,441.6,256.5,441.6z"/>
</g>
</svg>
