<?xml version="1.0" encoding="utf-8"?>
<!-- Generator: Adobe Illustrator 18.1.1, SVG Export Plug-In . SVG Version: 6.00 Build 0)  -->
<svg version="1.1" id="Layer_1" xmlns="http://www.w3.org/2000/svg" xmlns:xlink="http://www.w3.org/1999/xlink" x="0px" y="0px"
	 viewBox="0 0 512 512" enable-background="new 0 0 512 512" xml:space="preserve">
<g>
	<path d="M324.3,80.3c-1.2-0.2-2.4-0.3-3.6-0.3v0.3l0,0.1l0-0.3c-0.1,0-0.2,0-0.4,0c-22,0-42.9,25.9-47.8,60.3
		c-5.3,36.6,9.4,69,32.7,72.4c1.3,0.2,2.7,0.3,4,0.3c22,0,42.9-25.9,47.8-60.3C362.3,116.1,347.6,83.7,324.3,80.3z M341.3,150.4
		c-4,27.9-19.9,46.6-32.1,46.6c-0.6,0-1.2,0-1.7-0.1c-5.7-0.8-11.1-6.1-14.9-14.5c-4.9-10.8-6.5-25.2-4.4-39.7
		c4-27.7,19.8-46.3,32-46.6c0.6,0,1.6,0.1,2,0.1c5.7,0.8,11,6.1,14.8,14.5C341.9,121.4,343.4,135.9,341.3,150.4z"/>
	<polygon points="320.6,80 320.6,80 320.6,80 	"/>
	<path d="M442.3,169.4c-3.5-1.4-7.1-2.1-10.9-2.1c-0.1,0-0.3,0-0.4,0l0,0v0c-19.7,0.3-41.8,19.2-53.4,47.8
		c-13.9,34.2-7.5,69.2,14.4,78.2c3.5,1.4,7.1,2.1,10.9,2.1c19.8,0,42.2-19,53.9-47.8C470.6,213.4,464.1,178.4,442.3,169.4z
		 M441.9,241.5c-4.7,11.5-11.6,21.7-19.6,28.7c-6.7,5.8-13.8,9.2-19.5,9.2c-1.8,0-3.4-0.3-4.9-0.9c-5.3-2.2-9.3-8.6-11-17.7
		c-2.1-11.6-0.2-26.1,5.3-39.6c4.7-11.5,11.7-21.7,19.6-28.7c6.6-5.8,13.5-9.1,19.2-9.2c1.9,0,3.5,0.3,5,0.9
		c5.3,2.2,9.4,8.6,11.1,17.7C449.3,213.6,447.4,228,441.9,241.5z"/>
	<path d="M327.6,295.4c-27.8-43.6-39.8-60-71.6-60s-43.9,16.5-71.7,60c-23.8,37.2-71.9,40.3-83.9,71.9c-2.4,5.6-3.6,11.7-3.6,18.2
		c0,25.7,20.8,46.5,46.4,46.5c31.8,0,75.1-24,112.9-24s80.9,24,112.7,24c25.6,0,46.3-20.8,46.3-46.5c0-6.5-1.3-12.6-3.7-18.2
		C399.4,335.6,351.4,332.6,327.6,295.4z M368.8,416c-12.8,0-29.4-5.1-47-10.5c-21.5-6.6-43.7-13.5-65.8-13.5
		c-22.1,0-44.3,6.8-65.8,13.4c-17.6,5.4-34.2,10.5-47,10.5c-16.8,0-30.5-13.7-30.5-30.5c0-4.3,0.8-8.3,2.3-11.9l0.1-0.3l0.1-0.3
		c4-10.6,16-17.4,31.1-26c17.6-10,37.5-21.3,51.4-43c27.7-43.4,35.8-52.7,58.3-52.7c11.8,0,19,2.6,26.6,9.5
		c9,8.3,18.8,23.1,31.6,43.2c13.9,21.7,33.7,33,51.3,43c15.1,8.6,27,15.4,31.1,26l0.1,0.3l0.1,0.3c1.6,3.8,2.4,7.8,2.4,11.9
		C399.2,402.3,385.6,416,368.8,416z"/>
	<path d="M202.8,213c1.3,0,2.7-0.1,4-0.3c23.4-3.4,38-35.8,32.7-72.4c-5-34.5-25.9-60.3-47.8-60.3c-1.3,0-2.7,0.1-4,0.3
		c-23.4,3.4-38,35.8-32.7,72.4C160,187.1,180.9,213,202.8,213z M175.1,110.6c3.8-8.4,9.2-13.7,14.9-14.5c0.6-0.1,1.1-0.1,1.7-0.1
		c12.3,0,28.1,18.7,32.1,46.6c2.1,14.5,0.5,29-4.4,39.7c-3.8,8.4-9.2,13.7-14.9,14.5c-0.6,0.1-1.1,0.1-1.7,0.1
		c-12.3,0-28.1-18.7-32.1-46.6C168.6,135.9,170.2,121.4,175.1,110.6z"/>
	<path d="M120.1,293.3c21.9-9,28.3-44,14.4-78.2c-11.7-28.8-34.1-47.8-53.9-47.8c-3.8,0-7.4,0.7-10.9,2.1c-21.9,9-28.3,44-14.4,78.2
		c11.7,28.8,34.1,47.8,53.9,47.8C113,295.4,116.6,294.7,120.1,293.3z M70.1,241.5c-5.5-13.5-7.4-28-5.3-39.6
		c1.7-9.1,5.7-15.6,11-17.7c1.5-0.6,3.1-0.9,4.9-0.9c5.8,0,12.9,3.3,19.5,9.2c8,7,14.9,17.2,19.6,28.7c11,27,6.1,52.5-5.7,57.3
		c-1.5,0.6-3.1,0.9-4.9,0.9c-5.8,0-12.9-3.3-19.5-9.2C81.7,263.2,74.7,253,70.1,241.5z"/>
</g>
</svg>
