<?xml version="1.0" encoding="utf-8"?>
<!-- Generator: Adobe Illustrator 18.1.1, SVG Export Plug-In . SVG Version: 6.00 Build 0)  -->
<svg version="1.1" id="Layer_1" xmlns="http://www.w3.org/2000/svg" xmlns:xlink="http://www.w3.org/1999/xlink" x="0px" y="0px"
	 viewBox="0 0 512 512" enable-background="new 0 0 512 512" xml:space="preserve">
<path d="M406.3,48.2c-4.7,0.9-202,39.2-206.2,40c-4.2,0.8-8.1,3.6-8.1,8c0,0,0,238.5,0,240.1c0,1.6-0.1,7.2-2.4,11.7
	c-3.1,5.9-8.5,10.2-16.1,12.7c-3.3,1.1-7.8,2.1-13.1,3.3c-24.1,5.4-64.4,14.6-64.4,51.8c0,31.1,22.4,45.1,41.7,47.5
	c2.1,0.3,4.5,0.7,7.1,0.7c0,0,0,0,0,0c6.7,0,24-1.3,39.2-11.2c11-7.2,24.1-21.4,24.1-47.8v-219l192-39c0,0,0,136.6,0,140.7
	c0,4.1-0.2,8.9-2.5,13.4c-3.1,5.9-8.5,10.2-16.2,12.7c-3.3,1.1-7.8,2.1-13.1,3.3c-24.1,5.4-64.4,14.5-64.4,51.7
	c0,33.7,26.3,45.6,41.8,47.3c1.2,0.1,2.6,0.1,4.1,0.1c0,0,0,0,0,0c10.2,0,25.7-2.5,38.8-10c17.9-10.3,27.5-26.8,27.5-48.2V55.9
	C416,51.5,412.3,47,406.3,48.2z M192,404.8c0,15.5-5.6,27.3-16.8,34.6c-11.9,7.8-26.3,8.7-30.5,8.7c0,0,0,0,0,0
	c-1.9,0-3.6-0.4-5.1-0.6c-2.3-0.3-10.5-1.9-17.3-7.4c-6.9-5.5-10.4-13.7-10.4-24.2c0-22.6,24.6-30,51.9-36.2
	c5.7-1.3,10.6-2.4,14.6-3.7c5.5-1.8,9.5-4.2,13.5-6.9V404.8z M400,357.8c0,15.5-6.6,26.9-19.4,34.3c-10.4,5.9-23.1,7.9-30.9,7.9
	c0,0,0,0,0,0c-1.3,0-2.1,0.1-2.4,0c-4.6-0.5-27.6-4.2-27.6-31.2c0-22.6,24.6-30,51.9-36.2c5.7-1.3,10.7-2.4,14.7-3.7
	c5.5-1.8,9.6-4.2,13.6-6.9V357.8z M400,130.9l-192,38v-66l192-37.2V130.9z"/>
</svg>
