<?xml version="1.0" encoding="utf-8"?>
<!-- Generator: Adobe Illustrator 18.1.1, SVG Export Plug-In . SVG Version: 6.00 Build 0)  -->
<svg version="1.1" id="Layer_1" xmlns="http://www.w3.org/2000/svg" xmlns:xlink="http://www.w3.org/1999/xlink" x="0px" y="0px"
	 viewBox="0 0 512 512" enable-background="new 0 0 512 512" xml:space="preserve">
<g>
	<path d="M170.4,416h187c6.3,0,14.4-4.3,20.1-10.2c3.8-3.9,5.5-11.6,5.5-21.9V176H144v207c0,10.8,2.6,19.7,6.9,25.1
		C155,413.3,161.6,416,170.4,416z"/>
	<path d="M445.2,48H398H128.5C74.1,48,64,75.9,64,88.2c30.3,4.2,32,4.2,32,36.2c0,16,0,275.5,0,275.5c0,35.3,28.9,64,64.2,64H368
		c35.4,0,63-29.2,63-64.5V89.2c2-17.5,12.5-31.6,13.6-33.3c1.2-1.9,3.4-4.4,3.4-5.5C448,49.2,447.7,48,445.2,48z M399,384
		c0,11.7-1.9,24.6-10.1,33c-8.1,8.3-20.2,15-31.5,15h-187c-28.7,0-42.4-20.7-42.4-49V160h271V384z"/>
</g>
</svg>
