<?xml version="1.0" encoding="utf-8"?>
<!-- Generator: Adobe Illustrator 16.2.1, SVG Export Plug-In . SVG Version: 6.00 Build 0)  -->
<!DOCTYPE svg PUBLIC "-//W3C//DTD SVG 1.1//EN" "http://www.w3.org/Graphics/SVG/1.1/DTD/svg11.dtd">
<svg version="1.1" id="Layer_1" xmlns="http://www.w3.org/2000/svg" xmlns:xlink="http://www.w3.org/1999/xlink" x="0px" y="0px"
	 width="512px" height="512px" viewBox="0 0 512 512" style="enable-background:new 0 0 512 512;" xml:space="preserve">
<g>
	<path d="M256,304c-8.8,0-16,7.2-16,16s7.2,16,16,16s16-7.2,16-16S264.8,304,256,304z"/>
	<path d="M168,224v-72c0-48.5,39.5-88,88-88c48.5,0,88,39.5,88,88v8h16v-8c0-57.4-46.6-104-104-104c-57.5,0-104,46.6-104,104v72H96
		v240h320V224H168z M264,351v41c0,4.4-3.6,8-8,8s-8-3.6-8-8v-41c-13.8-3.6-24-16.1-24-31c0-17.7,14.3-32,32-32s32,14.3,32,32
		C288,334.9,277.8,347.4,264,351z"/>
</g>
</svg>
