<?xml version="1.0" encoding="utf-8"?>
<!-- Generator: Adobe Illustrator 18.1.1, SVG Export Plug-In . SVG Version: 6.00 Build 0)  -->
<svg version="1.1" id="Layer_1" xmlns="http://www.w3.org/2000/svg" xmlns:xlink="http://www.w3.org/1999/xlink" x="0px" y="0px"
	 viewBox="0 0 512 512" enable-background="new 0 0 512 512" xml:space="preserve">
<path d="M443.3,292.3l-57.6,57.4c-1.6,1.6-3.6,2.3-5.7,2.3c-2.1,0-4.1-0.8-5.7-2.3c-3.1-3.1-3.1-8.2,0-11.3L424,288H136
	c-39.6,0-72-32.4-72-72v-56h16v56c0,14.9,5.8,28.9,16.5,39.5c10.6,10.6,24.7,16.5,39.5,16.5h288l-51.6-50.4c-3.1-3.1-3.1-8.2,0-11.3
	c3.1-3.1,8.2-3.1,11.3,0l59.6,59.4C449.6,275.9,449.6,286,443.3,292.3z"/>
</svg>
