<?xml version="1.0" encoding="utf-8"?>
<!-- Generator: Adobe Illustrator 18.1.1, SVG Export Plug-In . SVG Version: 6.00 Build 0)  -->
<svg version="1.1" id="Layer_1" xmlns="http://www.w3.org/2000/svg" xmlns:xlink="http://www.w3.org/1999/xlink" x="0px" y="0px"
	 viewBox="0 0 512 512" enable-background="new 0 0 512 512" xml:space="preserve">
<g>
	<path d="M416,137.1c-18.9,3.9-36.8,8.2-53.7,12.8c-40.5,11-75.5,23.9-105.4,37.2c-19.3,8.6-26.2,12.4-51.5,25.9
		C147,243.9,112,277.3,112,345c0,67.8,55.6,119,144,119s144-51.2,144-119C400,277.3,339,226.3,416,137.1L416,137.1z"/>
	<path d="M96,107.4c41.5,43.7,44.6,96.5,39.4,134.4c12.8-10.5,31.2-23.9,56.1-38.4c6.4-3.8,13.3-7.6,20.6-11.4
		c11.6-6.1,23.5-11.9,35.8-17.4c-9.1-10.1-22.1-19.1-36.6-27C162.6,121.1,96,107.4,96,107.4L96,107.4z"/>
	<path d="M352,77.7c0,0-78.6,2.2-130.7,58c16.6,9.2,29.7,19,39,29.3l2.7,3c37.2-15.6,88.1-31.7,121-39
		C377.6,107.3,352,77.7,352,77.7L352,77.7z"/>
	<path d="M176,48c-15.3,20.8-25.7,42.1-30.3,55.7c21.1,5.9,35.5,12.3,61.4,24.7c9.5-10.6,20.4-20.1,32.6-28.4
		C210.3,62.5,176,48,176,48L176,48z"/>
</g>
</svg>
