<?xml version="1.0" encoding="utf-8"?>
<!-- Generator: Adobe Illustrator 18.1.1, SVG Export Plug-In . SVG Version: 6.00 Build 0)  -->
<svg version="1.1" id="Layer_1" xmlns="http://www.w3.org/2000/svg" xmlns:xlink="http://www.w3.org/1999/xlink" x="0px" y="0px"
	 viewBox="0 0 512 512" enable-background="new 0 0 512 512" xml:space="preserve">
<g>
	<g>
		<path d="M125.3,261.3c-51.3,0-93.3,42-93.3,93.3C32,406,74,448,125.3,448c51.3,0,93.3-42,93.3-93.3
			C218.7,303.3,176.7,261.3,125.3,261.3z M179.9,409.3c-14.7,14.7-34,22.7-54.6,22.7c-20.6,0-39.9-8.1-54.6-22.7S48,375.2,48,354.7
			c0-20.6,8.1-39.9,22.7-54.6c14.7-14.7,34-22.7,54.6-22.7c20.6,0,39.9,8.1,54.6,22.7c14.7,14.7,22.7,34,22.7,54.6
			C202.7,375.2,194.6,394.6,179.9,409.3z"/>
		<path d="M319.8,127.8c17.8,0,32-14.2,32-32S337.8,64,320,64c-17.8,0-32.2,14-32.2,31.8S302.1,127.8,319.8,127.8z"/>
		<path d="M386.7,261.3c-51.3,0-93.3,42-93.3,93.3c0,51.3,42,93.3,93.3,93.3c51.3,0,93.3-42,93.3-93.3
			C480,303.3,438,261.3,386.7,261.3z M441.3,409.3c-14.7,14.7-34,22.7-54.6,22.7c-20.6,0-39.9-8.1-54.6-22.7
			c-14.7-14.7-22.7-34-22.7-54.6c0-20.6,8.1-39.9,22.7-54.6c14.7-14.7,34-22.7,54.6-22.7c20.6,0,39.9,8.1,54.6,22.7
			c14.7,14.7,22.7,34,22.7,54.6C464,375.2,455.9,394.6,441.3,409.3z"/>
	</g>
	<path d="M368,192h-48l-29.5-60.1c-5.6-9.3-15.9-15.9-27.1-15.9c-8.4,0-16.8,3.7-22.4,9.3l-71.7,69.1c-5.6,5.6-9.3,14-9.3,22.4
		c0,17.4,12.6,23.6,18.5,27.1C224,270.1,240,273,240,286.1s0,65.9,0,65.9c0,8.8,7.2,16,16,16s16-7.2,16-16c0,0,0-76.8,0-90
		s-30.4-24-48.3-38l48.9-51.5c18.7,28.5,27.3,51.5,38,51.5s57.4,0,57.4,0c8.8,0,16-7.2,16-16S376.8,192,368,192z"/>
</g>
</svg>
