<?xml version="1.0" encoding="utf-8"?>
<!-- Generator: Adobe Illustrator 16.2.1, SVG Export Plug-In . SVG Version: 6.00 Build 0)  -->
<!DOCTYPE svg PUBLIC "-//W3C//DTD SVG 1.1//EN" "http://www.w3.org/Graphics/SVG/1.1/DTD/svg11.dtd">
<svg version="1.1" id="Layer_1" xmlns="http://www.w3.org/2000/svg" xmlns:xlink="http://www.w3.org/1999/xlink" x="0px" y="0px"
	 width="512px" height="512px" viewBox="0 0 512 512" style="enable-background:new 0 0 512 512;" xml:space="preserve">
<g>
	<path d="M448.2,272.7l0-32l-33.3-8.7c-0.7-4.4-1.6-8.8-2.6-13.2l27.6-20.9l-12.2-29.6l-34.4,4.8c-2.3-3.7-4.9-7-7.5-10.6l17.7-29.7
		l-22.6-22.6l-30.2,17.4c-3.5-2.6-7-5.1-10.7-7.3l5.3-35l-29.5-12.3l-21.6,28.3c-4.1-1-8.2-1.9-12.3-2.6L273.2,64h-32L232,98.9
		c-4,0.6-8.1,1.5-12.1,2.4l-21.5-29l-29.6,12.3l4.8,35.7c-3.8,2.3-8,4.5-11.7,7.2l-31.3-18.7L108,131.4l18.8,31.5
		c-2.4,3.4-4.5,7-6.7,10.5l-35.5-5L72.4,198l28.9,21.7c-1,4-1.8,8.1-2.4,12.2l-34.8,8.9l0,32l34.7,8.9c0.6,4.2,1.5,8.3,2.4,12.5
		l-28.4,21.3L85.1,345l35-5c2.3,3.8,4.5,7.7,7.1,11.3l-17.9,30.6l22.6,22.6l30.2-18.2c3.6,2.6,7.4,5,11.2,7.3l-4.5,34.3l29.6,12.2
		l20.6-27.8c4.4,1.1,8.9,1.8,13.4,2.5l8.8,33.1h32l8.3-33.1c4.6-0.7,9.1-1.5,13.6-2.6l20.7,27.1l29.6-12.2l-5-33.7
		c3.6-2.2,6.8-4.9,10.2-7.4l29,16.9l22.6-22.6l-16.8-28.9c2.8-3.8,5.5-7.4,7.9-11.4l33.8,4.8l12.3-29.5l-27.2-20.5
		c1.1-4.5,2-8.9,2.7-13.5L448.2,272.7z M384.7,263.2c-0.6,12.6-3.1,25-7.3,36.9c-1.3,3.6-3,7.7-5.2,12.3
		c-5.1,10.7-11.1,19.9-18.9,28.7c0,0-2.6,2.9-6.4,6.8c-3.8,3.8-6.4,6.2-6.4,6.2c-8.9,7.7-19.4,14.4-29.8,19.2
		c-3.9,1.8-7.5,3.1-10.7,4.2c-11.9,4.2-24.3,6.7-36.8,7.3c-4.2,0.2-8.5,0.2-12.8,0c-12.6-0.7-25.1-3.2-37-7.4
		c-3.9-1.4-7.8-3-11.6-4.8c-11.5-5.5-22-12.6-31.4-21.2c-1.4-1.3-2.7-2.6-3.9-3.8c-1.5-1.5-3.1-3.2-4.6-4.8
		c-8.6-9.5-15.7-20.2-21-31.8c-1.4-3.1-2.8-6.3-4-9.6c0,0-1.3-3.4-3.1-10c-1.8-6.7-2.6-10.5-2.6-10.5c-1.1-6.1-1.8-12.2-2.1-18.3
		c-0.2-3.8-0.2-7.6,0-11.3c0.6-12.9,3.1-25.6,7.5-37.7c1.3-3.5,2.7-7,4.2-10.3c5.4-11.7,12.6-22.5,21.3-32.1
		c1.4-1.6,2.9-3.1,4.3-4.5s2.9-2.9,4.5-4.3c9.2-8.4,19.6-15.4,30.9-20.7c3.8-1.8,7.6-3.4,11.6-4.8c12.1-4.4,24.8-6.9,37.7-7.5
		c3.7-0.2,7.5-0.2,11.3,0c6.2,0.3,12.5,1,18.7,2.2c0,0,4.6,1,8.3,1.9c3.7,0.9,10.5,3.3,10.5,3.3c3.3,1.2,7.1,2.5,10.9,4.3
		c11.6,5.4,22.3,12.4,31.8,21c1.7,1.5,3.3,3,4.8,4.6c1.2,1.2,2.4,2.5,3.8,3.9c8.6,9.4,15.8,20,21.2,31.4c1.8,3.7,3.4,7.6,4.8,11.6
		c4.3,11.9,6.8,24.3,7.4,37C384.9,254.7,384.9,259,384.7,263.2z"/>
	<path d="M278,147c-5.4-1-10.9-1.7-16.3-1.9c-3.3-0.1-6.6-0.1-9.9,0c-11.2,0.5-22.4,2.7-33,6.5c-3.4,1.2-6.8,2.6-10.1,4.2
		c-9.6,4.6-18.7,10.6-27,18.1c-1.3,1.2-2.7,2.5-3.9,3.8c-1.3,1.3-2.5,2.6-3.8,3.9c-7.8,8.6-14,18.1-18.6,28.1c-1.4,3-2.6,6-3.7,9
		c-3.8,10.7-6,21.8-6.5,33c-0.2,3.3-0.2,6.6,0,9.9c0.2,5.4,0.8,10.7,1.8,16L250.4,250L278,147z"/>
	<path d="M151,293.5c0.2,0.5,0.3,0.7,0.4,1.2c1.1,3.2,2.4,6.4,3.9,9.5c4.6,9.9,10.7,19.3,18.4,27.8c1.3,1.4,2.6,2.8,4,4.2
		c1.1,1.1,2.3,2.2,3.4,3.3c8.4,7.7,17.7,13.9,27.5,18.6c3.3,1.6,6.7,3,10.1,4.2c10.5,3.8,21.4,6,32.3,6.5c3.7,0.2,7.5,0.2,11.2,0
		c10.9-0.5,21.8-2.6,32.2-6.3c3.2-1.1,6.1-2.2,9.2-3.6c9.4-4.3,18.5-10.3,26.1-16.8l-75.9-75.9L151,293.5z"/>
	<path d="M362.2,218.8c-1.2-3.4-2.6-6.8-4.2-10.1c-4.7-9.8-10.9-19.1-18.6-27.5c-1.1-1.2-2.2-2.3-3.3-3.5c-1.4-1.4-2.8-2.7-4.2-4
		c-8.5-7.7-17.9-13.8-27.8-18.4c-3.1-1.4-6.4-2.6-9.6-3.8c-0.4-0.1-0.9-0.3-1.3-0.4l-28,103.7l75.9,75.9
		c7.3-8.3,12.4-16.4,16.6-25.2c1.7-3.5,3.5-7.4,4.7-10.9c3.7-10.4,5.8-21.3,6.4-32.3c0.2-3.7,0.2-7.5,0-11.2
		C368.2,240.2,366,229.3,362.2,218.8z"/>
</g>
</svg>
