<?xml version="1.0" encoding="utf-8"?>
<!-- Generator: Adobe Illustrator 18.1.1, SVG Export Plug-In . SVG Version: 6.00 Build 0)  -->
<svg version="1.1" id="Layer_1" xmlns="http://www.w3.org/2000/svg" xmlns:xlink="http://www.w3.org/1999/xlink" x="0px" y="0px"
	 viewBox="0 0 512 512" enable-background="new 0 0 512 512" xml:space="preserve">
<g>
	<path d="M384,256c0-4.4,3.6-8,8-8h55.8C443.7,148.3,363.7,68.3,264,64.2V120c0,4.4-3.6,8-8,8s-8-3.6-8-8V64.2
		C148.3,68.3,68.3,148.3,64.2,248H120c4.4,0,8,3.6,8,8s-3.6,8-8,8H64.2c4.1,99.7,84.2,179.7,183.8,183.8V392c0-4.4,3.6-8,8-8
		s8,3.6,8,8v55.8c99.7-4.1,179.7-84.2,183.8-183.8H392C387.6,264,384,260.4,384,256z M256,320c-35.3,0-64-28.7-64-64s28.7-64,64-64
		s64,28.7,64,64S291.3,320,256,320z"/>
	<path d="M472,248h-24.2c0.1,2.7,0.2,5.3,0.2,8s-0.1,5.3-0.2,8H472c4.4,0,8-3.6,8-8S476.4,248,472,248z"/>
	<path d="M64.2,248H40c-4.4,0-8,3.6-8,8s3.6,8,8,8h24.2c-0.1-2.7-0.2-5.3-0.2-8S64.1,250.7,64.2,248z"/>
	<path d="M248,447.8V472c0,4.4,3.6,8,8,8s8-3.6,8-8v-24.2c-2.7,0.1-5.3,0.2-8,0.2S250.7,447.9,248,447.8z"/>
	<path d="M264,64.2V40c0-4.4-3.6-8-8-8s-8,3.6-8,8v24.2c2.7-0.1,5.3-0.2,8-0.2S261.3,64.1,264,64.2z"/>
</g>
</svg>
