<?xml version="1.0" encoding="utf-8"?>
<!-- Generator: Adobe Illustrator 18.1.1, SVG Export Plug-In . SVG Version: 6.00 Build 0)  -->
<svg version="1.1" id="Layer_1" xmlns="http://www.w3.org/2000/svg" xmlns:xlink="http://www.w3.org/1999/xlink" x="0px" y="0px"
	 viewBox="0 0 512 512" enable-background="new 0 0 512 512" xml:space="preserve">
<g>
	<path d="M436.9,354.4L320,159V64h16V48h-16h-16v16v99.4l2.5,3.8L423.1,362c6.8,12.8,9.3,26,9,38c-0.2,9.3-2,17.9-6.5,25.6
		c-8.5,14.1-23.2,22.4-40.6,22.4H129.1c-17.5,0-32.5-8.4-41-22.7c-11.9-19.8-10.9-38.1,2.3-63.1L181.8,208H240v-16h-48.7l14.7-24.8
		l2-3.8V160h48v-16h-48v-32h32V96h-32V64h80V48H176v16h16v95L76.1,354.4C67.7,370.3,63.6,385.8,64,400c1.1,36.5,28.7,64,65.1,64H385
		c36.3,0,62.1-27.6,63-64C448.3,385.8,445.4,370.3,436.9,354.4z"/>
	<path d="M108.3,358.6c-6.9,10.5-10.9,24.1-10.9,33.5c0,27.6,15.8,39.8,45.7,39.8H369c29.8,0,45-15.7,45.7-40
		c0.3-9.5-3.1-22.7-10.1-33.3L332.7,240H179.5L108.3,358.6z M323.7,256l67.2,110.9l0.2,0.1l0.2,0.2c5.4,8.2,7.6,18.3,7.5,24.2
		c-0.2,7.8-2.5,14-6.7,17.8c-4.8,4.3-12.7,6.8-23,6.8H143c-11.1,0-19.3-2.2-23.7-6c-1.5-1.2-6-5.1-6-18.1c0-5.9,2.9-16.4,8.3-24.7
		l0.2-0.3l0.2,0L188.6,256H323.7z"/>
</g>
</svg>
