<?xml version="1.0" encoding="utf-8"?>
<!-- Generator: Adobe Illustrator 18.1.1, SVG Export Plug-In . SVG Version: 6.00 Build 0)  -->
<svg version="1.1" id="Layer_1" xmlns="http://www.w3.org/2000/svg" xmlns:xlink="http://www.w3.org/1999/xlink" x="0px" y="0px"
	 viewBox="0 0 512 512" enable-background="new 0 0 512 512" xml:space="preserve">
<g>
	<path d="M303,300.3V78.4c0-25.7-21-46.5-47-46.5s-47,20.8-47,46.5v221.9c-29,16.5-48.9,47.8-48.9,83.7c0,53,43,96,96,96
		s96-43,96-96C352.1,348.1,332,316.7,303,300.3z M312.5,440.6c-15.1,15.1-35.1,23.4-56.5,23.4c-44.2,0-80.1-35.9-80.1-80
		c0-28.8,15.8-55.5,40.8-69.8l8.3-4.6v-9.3V78.4c0-16.8,13.9-30.5,31-30.5s31,13.7,31,30.5v221.8v9.3l7.9,4.6
		c25.4,14.4,41,41.1,41,69.9C335.9,405.4,327.5,425.5,312.5,440.6z"/>
	<path d="M272,322V144c0-8.8-7.2-16-16-16s-16,7.2-16,16v178c-28,7.1-48.1,32.2-48.1,62c0,35.3,28.6,64,64,64s64.1-28.7,64.1-64
		C319.9,354.2,299,329.1,272,322z"/>
</g>
</svg>
