<?xml version="1.0" encoding="utf-8"?>
<!-- Generator: Adobe Illustrator 19.2.0, SVG Export Plug-In . SVG Version: 6.00 Build 0)  -->
<svg version="1.1" id="Layer_1" xmlns="http://www.w3.org/2000/svg" xmlns:xlink="http://www.w3.org/1999/xlink" x="0px" y="0px"
	 viewBox="0 0 512 512" style="enable-background:new 0 0 512 512;" xml:space="preserve">
<g>
	<path d="M447.8,64.2L64,64v384h384V64L447.8,64.2z M432,432H80V80h352V432z"/>
	<path d="M416,96H96v256h320V96z M304.2,159.8c8.8,0,16,7.2,16,16s-7.2,16-16,16s-16-7.2-16-16C288.2,166.9,295.4,159.8,304.2,159.8
		z M153.5,336l70.7-100.5L295,336H153.5z M314.6,336.1L314.6,336.1l-25.9-36.9l22.3-31.6l48.2,68.5H314.6z"/>
</g>
</svg>
