<?xml version="1.0" encoding="utf-8"?>
<!-- Generator: Adobe Illustrator 16.2.1, SVG Export Plug-In . SVG Version: 6.00 Build 0)  -->
<!DOCTYPE svg PUBLIC "-//W3C//DTD SVG 1.1//EN" "http://www.w3.org/Graphics/SVG/1.1/DTD/svg11.dtd">
<svg version="1.1" id="Layer_1" xmlns="http://www.w3.org/2000/svg" xmlns:xlink="http://www.w3.org/1999/xlink" x="0px" y="0px"
	 width="512px" height="512px" viewBox="0 0 512 512" style="enable-background:new 0 0 512 512;" xml:space="preserve">
<g>
	<path d="M480,285c0-122.1-99.7-220.7-223.2-221c-0.2,0-0.5,0-0.7,0c0,0,0,0,0,0c0,0,0,0,0,0C132.3,64,32,162.7,32,285
		c0,0.1,0,0.2,0,0.2c0,0.1,0,0.2,0,0.3c0,64,27.6,121.5,71.5,161.9l0.5,0.5l36.6-36.6l-11.3-11.3L104,425.3
		c-15.8-17.2-28.6-36-38-56.8c-10.4-23-16.4-47.4-17.7-72.5H80v-16H48.1c0.6-26,6.1-51.3,16.3-75.1c9.2-21.6,22-41.3,37.9-58.6
		L130,174l5.5-5.5l5.3-5.2l0,0l0.5-0.5L113.5,135c18-16.8,38.7-30.2,61.5-39.7c23.2-9.7,47.7-14.3,73-15.1V117h16V80.1
		c25.3,0.8,49.9,5.3,73.1,15.1c22.7,9.5,43.3,22.8,61.3,39.6l-27.9,27.9l0.5,0.5l0,0l5.3,5.2l5.5,5.5l27.9-27.9
		c16,17.3,28.8,37,38,58.7c10.2,23.9,15.6,49.1,16.2,75.2H432v16h31.7c-1.4,25.1-7.3,49.6-17.7,72.5c-9.5,20.8-22.3,39.6-38.1,56.8
		l-25.4-25.2l-11.3,11.3l36.7,36.6l2.6-2.5c42.7-40.3,69.6-97,69.6-160c0-0.1,0-0.2,0-0.3C480,285.2,480,285.1,480,285z"/>
	<path d="M240.4,254.7c-1.1,0.8-1.7,1.6-2.4,2.4c-5.4,4.9-8.9,11.8-8.9,19.6c0,14.7,12.1,26.6,26.9,26.6c8.5,0,16-3.9,20.9-10
		c0.4-0.4,0.9-0.8,1.2-1.2l81.4-94.2l-10-10.8L240.4,254.7z"/>
</g>
</svg>
