<?xml version="1.0" encoding="utf-8"?>
<!-- Generator: Adobe Illustrator 16.2.1, SVG Export Plug-In . SVG Version: 6.00 Build 0)  -->
<!DOCTYPE svg PUBLIC "-//W3C//DTD SVG 1.1//EN" "http://www.w3.org/Graphics/SVG/1.1/DTD/svg11.dtd">
<svg version="1.1" id="Layer_1" xmlns="http://www.w3.org/2000/svg" xmlns:xlink="http://www.w3.org/1999/xlink" x="0px" y="0px"
	 width="512px" height="512px" viewBox="0 0 512 512" enable-background="new 0 0 512 512" xml:space="preserve">
<g>
	<path d="M256.001,48L256.001,48h-0.002C141.129,48,48,141.137,48,256s93.128,208,207.999,208H256h0.001
		C370.872,464,464,370.863,464,256S370.871,48,256.001,48z M264,116.572l58.098-39.416c36.363,13.482,67.532,37.753,89.596,68.908
		l-22.494,64.484l-53.525,24.389L264,174.721V116.572z M189.902,77.156L248,116.572v58.148l-71.674,60.217l-53.525-24.389
		l-22.494-64.484C122.37,114.909,153.539,90.639,189.902,77.156z M99.417,364.653c-18.347-26.36-30.213-57.546-33.278-91.239
		l53.823-46.576l49.999,22.782l19.752,77.418l-20.434,38.53L99.417,364.653z M304.655,440.363
		c-15.538,4.104-31.844,6.301-48.654,6.301H256h-0.001c-16.811,0-33.116-2.197-48.654-6.301l-24.917-65.438L203.072,336h105.855
		l20.645,38.926L304.655,440.363z M342.721,365.568l-20.434-38.53l19.752-77.418l49.999-22.782l53.823,46.576
		c-3.065,33.693-14.932,64.879-33.278,91.239L342.721,365.568z"/>
</g>
</svg>
