<?xml version="1.0" encoding="utf-8"?>
<!-- Generator: Adobe Illustrator 18.1.1, SVG Export Plug-In . SVG Version: 6.00 Build 0)  -->
<svg version="1.1" id="Layer_1" xmlns="http://www.w3.org/2000/svg" xmlns:xlink="http://www.w3.org/1999/xlink" x="0px" y="0px"
	 viewBox="0 0 512 512" enable-background="new 0 0 512 512" xml:space="preserve">
<g>
	<g>
		<path d="M256,88c39.7,0,72,32.3,72,72s-32.3,72-72,72s-72-32.3-72-72S216.3,88,256,88 M256,72c-48.5,0-88,39.5-88,88
			s39.5,88,88,88s88-39.5,88-88S304.5,72,256,72L256,72z"/>
		<path d="M256,48c29.9,0,58,11.7,79.2,32.8S368,130.1,368,160s-11.7,58-32.8,79.2S285.9,272,256,272s-58-11.7-79.2-32.8
			S144,189.9,144,160s11.7-58,32.8-79.2S226.1,48,256,48 M256,32c-70.7,0-128,57.3-128,128s57.3,128,128,128s128-57.3,128-128
			S326.7,32,256,32L256,32z"/>
	</g>
	<g>
		<path d="M150.6,280.4C179.6,305.8,217,320,256,320c2.4,0,4.7-0.1,7.1-0.2l-21.7,47.7l-35.4,78l-32.3-53.8l-4.7-7.8H160H91.5
			L150.6,280.4 M147.1,254.2L64,400h96l48,80l48-105.8l33.6-74.2c-10.8,2.6-22.1,4-33.6,4C212.5,304,173.5,284.7,147.1,254.2
			L147.1,254.2z"/>
		<path d="M361.4,280.4L420.5,384H352h-9.1l-4.7,7.8L306,445.6l-24.3-53.5l39.1-85.8C335.5,299.8,349.3,291,361.4,280.4
			 M364.9,254.2c-15.1,17.4-34.3,31.2-56,39.8l-44.8,98.1L304,480l48-80h96L364.9,254.2L364.9,254.2z"/>
	</g>
</g>
</svg>
