<?xml version="1.0" encoding="utf-8"?>
<!-- Generator: Adobe Illustrator 18.1.1, SVG Export Plug-In . SVG Version: 6.00 Build 0)  -->
<svg version="1.1" id="Layer_1" xmlns="http://www.w3.org/2000/svg" xmlns:xlink="http://www.w3.org/1999/xlink" x="0px" y="0px"
	 viewBox="0 0 512 512" enable-background="new 0 0 512 512" xml:space="preserve">
<path d="M418.3,91.5C388.2,78,342.3,64,256.7,64c-85.4,0-130,12.3-161.5,27.4c-27.5,13.1-19.1,24-13.1,36.6
	c4,8.6,8.2,11.8,14.5,11.8c0.5,0,1,0,1.4-0.1L256.7,448L415,140.5c0.3,0,0.6,0,0.9,0c6.5,0,11-3.4,15.5-12.6
	C437.5,115.5,441.2,101.7,418.3,91.5z M133.3,173.9c9-3.9,19-4.4,28.4-1.2c10,3.4,18.2,10.6,22.9,20.1c4.7,9.6,5.4,20.4,2.1,30.5
	c-3,9-8.9,16.5-16.9,21.3C156.4,218.8,143.7,194.1,133.3,173.9z M296.8,330.4c-21.9,0-39.7-17.9-39.7-40s17.8-40,39.7-40
	c14,0,26.7,7.3,33.9,19.2l-31.2,60.7C298.6,330.4,297.7,330.4,296.8,330.4z M274,112.3c31.9,1,56.8,4.8,76.3,9.3
	c-2,9.2-7.1,17.3-14.7,23c-8.3,6.2-18.4,8.8-28.6,7.3c-10.2-1.5-19.2-6.9-25.3-15.3C276.3,129.5,273.7,121,274,112.3z M417.1,120.9
	c-0.9,1.9-1.6,3-2.1,3.6c-3.3-0.4-9.8-2.7-16.7-5.1C373.7,110.6,332.6,96,256.7,96c-76.3,0-117.8,14.3-142.6,22.8
	c-6.6,2.3-12.9,4.4-16.3,4.9c-0.3-0.6-0.8-1.4-1.4-2.6c-0.6-1.2-1.1-2.4-1.7-3.5c-0.9-1.8-2.1-4.2-2.6-5.8c1.1-1,3.7-3.2,9.8-6.1
	c25.2-12,65.6-25.8,154.7-25.8c86.7,0,130.1,14.9,155.2,26.1c7.2,3.2,8.2,5.6,8.2,5.6C420.1,111.9,420.6,113.7,417.1,120.9z"/>
</svg>
