<?xml version="1.0" encoding="utf-8"?>
<!-- Generator: Adobe Illustrator 18.1.1, SVG Export Plug-In . SVG Version: 6.00 Build 0)  -->
<svg version="1.1" id="Layer_1" xmlns="http://www.w3.org/2000/svg" xmlns:xlink="http://www.w3.org/1999/xlink" x="0px" y="0px"
	 viewBox="0 0 512 512" enable-background="new 0 0 512 512" xml:space="preserve">
<path d="M440,64H328c-4.4,0-8,3.6-8,8s3.6,8,8,8h92L80,419.9V328c0-4.4-3.6-8-8-8s-8,3.6-8,8v112c0,4.4,3.6,8,8,8h112
	c4.4,0,8-3.6,8-8s-4-8-8.4-8H92L432,92v92c0,4.4,3.6,8,8,8s8-3.6,8-8V72C448,67.6,444.4,64,440,64z"/>
</svg>
