<?xml version="1.0" encoding="utf-8"?>
<!-- Generator: Adobe Illustrator 18.1.1, SVG Export Plug-In . SVG Version: 6.00 Build 0)  -->
<svg version="1.1" id="Layer_1" xmlns="http://www.w3.org/2000/svg" xmlns:xlink="http://www.w3.org/1999/xlink" x="0px" y="0px"
	 viewBox="0 0 512 512" enable-background="new 0 0 512 512" xml:space="preserve">
<path d="M433.9,344.6C401,408.4,336.3,448,265.1,448c-50.5,0-97.3-19.9-131.9-56.1c-34.4-36-53.3-84.2-53.3-135.9
	s18.9-99.9,53.3-135.9C167.8,83.9,214.7,64,265.1,64c50.9,0,93.9,19.3,121.1,54.2c26.3,33.8,34.5,78.1,23.2,124.9
	c-10.9,45.1-33.5,65.8-50.5,75.2c-17.5,9.7-41.8,13.4-52.4,4.4v0c-0.3-0.3-0.6-0.6-0.8-0.9c-1.5-1.9-2.3-5.4-2.4-8.5
	c-0.1-3.1,0.2-6.7,1-10.7c0.8-4,1.9-8.4,3.2-12.7L346.1,173h-21.3l-10,26.5c-4.6-12.1-10.6-20.8-18.1-26c-7.5-5.3-15.7-7.9-24.5-7.9
	c-14.2,0-27.2,3.5-38.9,10.4c-11.8,6.9-21.8,15.9-30.1,27.1c-8.3,11.2-14.7,23.8-19.3,37.7c-4.6,13.9-6.8,27.9-6.8,41.9
	c0,8.1,1.2,15.7,3.6,22.7c2.4,7,5.9,13.2,10.4,18.6c4.5,5.4,10.1,9.7,16.7,12.8c6.6,3.1,14,4.7,22.3,4.7c10.2,0,19.7-2.7,28.5-8.4
	s16.3-12.1,22.5-18.1h0.8c0.8,9,4.7,15.5,9.8,20.1c2.6,2.3,6.3,4.5,11.1,6.1l0,0.1c21.1,7.2,42.1,3,63.8-9
	c19.8-11,46.1-34.7,58.3-85.5c12.5-51.6,3.2-100.8-26.2-138.6C368.5,69.4,321,48,265.1,48c-54.8,0-105.7,21.7-143.3,61
	C84.5,148,64,200.2,64,256s20.5,108,57.8,147c37.6,39.4,88.6,61,143.3,61c77.1,0,147.2-42.9,182.9-112L433.9,344.6z M283.5,286.4
	c-6.1,9.8-13.3,18-21.5,24.8c-8.2,6.7-17,10.1-26.6,10.1c-9.8,0-17.9-3.6-24.3-10.7c-6.4-7.2-9.6-16.9-9.6-29.3
	c0-9.6,1.6-20,4.9-31.2c3.3-11.1,8-21.5,14.1-31c6.1-9.5,13.5-17.4,22.1-23.7c8.6-6.3,18.1-9.5,28.4-9.5c4.1,0,8,1.1,11.9,3.3
	c3.8,2.2,7.2,5.1,10.2,8.7c3,3.6,5.5,7.6,7.4,12.2c1.9,4.5,2.9,9.3,2.9,14.2c0,9.1-1.8,19.3-5.3,30.6
	C294.5,266.1,289.6,276.6,283.5,286.4z"/>
</svg>
