<?xml version="1.0" encoding="utf-8"?>
<!-- Generator: Adobe Illustrator 18.1.1, SVG Export Plug-In . SVG Version: 6.00 Build 0)  -->
<svg version="1.1" id="Layer_1" xmlns="http://www.w3.org/2000/svg" xmlns:xlink="http://www.w3.org/1999/xlink" x="0px" y="0px"
	 viewBox="0 0 512 512" enable-background="new 0 0 512 512" xml:space="preserve">
<path d="M472,128H360c-4.4,0-8,3.6-8,8s3.6,8,8,8h92L287.6,308.4l-83.9-84c-1.5-1.5-3.5-2.3-5.7-2.3c-2.1,0-4.2,0.8-5.7,2.3
	L34.1,382.6c-1.6,1.6-2.1,3.7-2.1,5.9c0,2.1,0.6,3.9,2.1,5.5c1.6,1.6,3.6,2.3,5.7,2.3c2,0,4.1-0.8,5.7-2.3L198,241.3l83.9,84
	c3.1,3.1,8.2,3.1,11.3,0L464,156v92c0,4.4,3.6,8,8,8s8-3.6,8-8V136C480,131.6,476.4,128,472,128z"/>
</svg>
