<?xml version="1.0" encoding="utf-8"?>
<!-- Generator: Adobe Illustrator 16.2.1, SVG Export Plug-In . SVG Version: 6.00 Build 0)  -->
<!DOCTYPE svg PUBLIC "-//W3C//DTD SVG 1.1//EN" "http://www.w3.org/Graphics/SVG/1.1/DTD/svg11.dtd">
<svg version="1.1" xmlns="http://www.w3.org/2000/svg" xmlns:xlink="http://www.w3.org/1999/xlink" x="0px" y="0px" width="512px"
	 height="512px" viewBox="0 0 512 512" enable-background="new 0 0 512 512" xml:space="preserve">
<g id="boxes" display="none">
	<rect display="inline" opacity="0.1" width="512" height="512"/>
</g>
<g id="icons">
	<g>
		<polygon points="248,432.588 177.198,361.93 165.542,373.533 256.02,464 346.591,373.558 334.835,361.954 264,432.588 264,320 
			248,320 		"/>
		<path d="M413.012,162.113C406.146,97.895,354.041,48,288,48c-44.838,0-86.535,22.812-109.396,57.715
			C170.658,102.056,161.821,100,152.5,100c-34.208,0-61.981,27.487-62.477,61.577C55.092,172.613,32,204.158,32,240
			c0,43.906,35.594,80,79.5,80H248V208h16v112h136.5c43.906,0,79.5-36.094,79.5-80C480,200.352,450.973,168.116,413.012,162.113z"/>
	</g>
</g>
</svg>
