<?xml version="1.0" encoding="utf-8"?>
<!-- Generator: Adobe Illustrator 18.1.1, SVG Export Plug-In . SVG Version: 6.00 Build 0)  -->
<svg version="1.1" id="Layer_1" xmlns="http://www.w3.org/2000/svg" xmlns:xlink="http://www.w3.org/1999/xlink" x="0px" y="0px"
	 viewBox="0 0 512 512" enable-background="new 0 0 512 512" xml:space="preserve">
<g>
	<path d="M432,112H80c-17.6,0-32,14.4-32,32v224c0,17.6,14.4,32,32,32h352c17.6,0,32-14.4,32-32V144C464,126.4,449.6,112,432,112z
		 M80,128h352c8.8,0,16,7.2,16,16v32H64v-32C64,135.2,71.2,128,80,128z M432,384H80c-8.8,0-16-7.2-16-16V256h384v112
		C448,376.8,440.8,384,432,384z"/>
	<rect x="96" y="320" width="32" height="16"/>
	<rect x="160" y="320" width="192" height="16"/>
</g>
</svg>
