<?xml version="1.0" encoding="utf-8"?>
<!-- Generator: Adobe Illustrator 18.1.1, SVG Export Plug-In . SVG Version: 6.00 Build 0)  -->
<svg version="1.1" id="Layer_1" xmlns="http://www.w3.org/2000/svg" xmlns:xlink="http://www.w3.org/1999/xlink" x="0px" y="0px"
	 viewBox="0 0 512 512" enable-background="new 0 0 512 512" xml:space="preserve">
<g>
	<path d="M352,432c-26.1,9.1-66.4,15.8-96,15.8c-29.6,0-69.9-6.7-96-15.8c0,0-35,22.5-80,32c32.3,0,53.3-9,80-16
		c23,9,66.7,15.8,96,15.8c29.3,0,74-5.8,96-15.8c26.7,7,47,16,80,16C388.2,454.5,352,432,352,432z"/>
	<g>
		<path d="M445.5,263C445.5,263,445.5,263,445.5,263L256,176L66.5,263c0,0,0,0,0,0c-6.2,2.9-10.5,9.1-10.5,16.4
			c0,2.4,0.5,4.6,1.3,6.7L112,432c27.5,0,56.7-19,56.7-19c18,9,53.1,17.1,79.3,18.6c2.8,0.2,5.5,0.2,8,0.2c2.5,0,5.2-0.1,8-0.2
			c26.2-1.5,61.3-9.5,79.3-18.6c0,0,29.2,19,56.7,19l54.7-145.9c0.8-2.1,1.3-4.3,1.3-6.7C456,272.1,451.7,265.9,445.5,263z M212,288
			c-6.6,0-12-9.8-12-22s5.4-22,12-22s12,9.8,12,22S218.6,288,212,288z M300,288c-6.6,0-12-9.8-12-22s5.4-22,12-22s12,9.8,12,22
			S306.6,288,300,288z"/>
	</g>
	<g>
		<path d="M391.9,127l0-0.1C386.3,100.3,374.4,80,352,80h-34.6l-8.2-32H202.5l-8.1,32H160c-22.9,0-35.1,20.7-39.8,47l-19.7,104.4
			l34.2-15.7l16.6-87.7c2.5-10.7,7.3-16,16.1-16h177.1c8.9,0,13.1,5,16.1,16l16.6,87.7l34.3,15.7L391.9,127z"/>
	</g>
</g>
</svg>
