<?xml version="1.0" encoding="utf-8"?>
<!-- Generator: Adobe Illustrator 18.1.1, SVG Export Plug-In . SVG Version: 6.00 Build 0)  -->
<svg version="1.1" id="Layer_1" xmlns="http://www.w3.org/2000/svg" xmlns:xlink="http://www.w3.org/1999/xlink" x="0px" y="0px"
	 viewBox="0 0 512 512" enable-background="new 0 0 512 512" xml:space="preserve">
<path d="M456,48H344c-4.4,0-8,3.6-8,8s3.6,8,8,8h92L329,171.7c-29.8-27.1-69.5-43.7-113-43.7c-92.8,0-168,75.2-168,168
	s75.2,168,168,168c92.8,0,168-75.2,168-168c0-43.5-16.5-83.2-43.7-113L448,76v92c0,4.4,3.6,8,8,8s8-3.6,8-8V56
	C464,51.6,460.4,48,456,48z M368,296c0,40.6-15.8,78.8-44.5,107.5S256.6,448,216,448c-40.6,0-78.8-15.8-107.5-44.5S64,336.6,64,296
	s15.8-78.8,44.5-107.5S175.4,144,216,144c40.6,0,78.8,15.8,107.5,44.5S368,255.4,368,296z"/>
</svg>
