<?xml version="1.0" encoding="utf-8"?>
<!-- Generator: Adobe Illustrator 18.1.1, SVG Export Plug-In . SVG Version: 6.00 Build 0)  -->
<svg version="1.1" id="Layer_1" xmlns="http://www.w3.org/2000/svg" xmlns:xlink="http://www.w3.org/1999/xlink" x="0px" y="0px"
	 viewBox="0 0 512 512" enable-background="new 0 0 512 512" xml:space="preserve">
<g>
	<path d="M443.3,325.7l-35.6-35.4c-3.1-3.1-8.2-3.1-11.3,0c-3.1,3.1-3.1,8.2,0,11.3l26.6,26.4h-99L198.2,170.8
		c-1.5-1.8-3.9-2.8-6.3-2.8H72c-4.4,0-8,3.6-8,8s3.6,8,8,8h116.3l57.3,72l-57.3,72H72c-4.4,0-8,3.6-8,8s3.6,8,8,8h120
		c2.4,0,4.6-1,6.1-2.8l57.9-72.7l57.9,72.7c1.5,1.8,3.8,2.8,6.1,2.8h105l-26.6,26.4c-3.1,3.1-3.1,8.2,0,11.3
		c1.6,1.6,3.6,2.3,5.7,2.3c2.1,0,4.1-0.8,5.7-2.3l33.6-33.4C449.6,342,449.6,331.9,443.3,325.7z"/>
	<path d="M323.7,184h99.2l-26.6,26.4c-3.1,3.1-3.1,8.2,0,11.3c3.1,3.1,8.2,3.1,11.3,0l35.6-35.4c6.2-6.2,6.2-16.3,0-22.5l-33.6-33.4
		c-1.6-1.6-3.6-2.3-5.7-2.3c-2.1,0-4.1,0.8-5.7,2.3c-3.1,3.1-3.1,8.2,0,11.3l26.6,26.4H320c-2.4,0-4.6,1-6.1,2.8l-47.3,60.2
		l10.5,12.4L323.7,184z"/>
</g>
</svg>
