<?xml version="1.0" encoding="utf-8"?>
<!-- Generator: Adobe Illustrator 18.1.1, SVG Export Plug-In . SVG Version: 6.00 Build 0)  -->
<svg version="1.1" id="Layer_1" xmlns="http://www.w3.org/2000/svg" xmlns:xlink="http://www.w3.org/1999/xlink" x="0px" y="0px"
	 viewBox="0 0 512 512" enable-background="new 0 0 512 512" xml:space="preserve">
<g>
	<path d="M154,160h-52c-12.1,0-22-9.9-22-22V86c0-12.1,9.9-22,22-22h52c12.1,0,22,9.9,22,22v52C176,150.1,166.1,160,154,160z"/>
	<path d="M282,160h-52c-12.1,0-22-9.9-22-22V86c0-12.1,9.9-22,22-22h52c12.1,0,22,9.9,22,22v52C304,150.1,294.1,160,282,160z"/>
	<path d="M410,160h-52c-12.1,0-22-9.9-22-22V86c0-12.1,9.9-22,22-22h52c12.1,0,22,9.9,22,22v52C432,150.1,422.1,160,410,160z"/>
	<path d="M154,304h-52c-12.1,0-22-9.9-22-22v-52c0-12.1,9.9-22,22-22h52c12.1,0,22,9.9,22,22v52C176,294.1,166.1,304,154,304z"/>
	<path d="M282,304h-52c-12.1,0-22-9.9-22-22v-52c0-12.1,9.9-22,22-22h52c12.1,0,22,9.9,22,22v52C304,294.1,294.1,304,282,304z"/>
	<path d="M410,304h-52c-12.1,0-22-9.9-22-22v-52c0-12.1,9.9-22,22-22h52c12.1,0,22,9.9,22,22v52C432,294.1,422.1,304,410,304z"/>
	<path d="M154,448h-52c-12.1,0-22-9.9-22-22v-52c0-12.1,9.9-22,22-22h52c12.1,0,22,9.9,22,22v52C176,438.1,166.1,448,154,448z"/>
	<path d="M282,448h-52c-12.1,0-22-9.9-22-22v-52c0-12.1,9.9-22,22-22h52c12.1,0,22,9.9,22,22v52C304,438.1,294.1,448,282,448z"/>
	<path d="M410,448h-52c-12.1,0-22-9.9-22-22v-52c0-12.1,9.9-22,22-22h52c12.1,0,22,9.9,22,22v52C432,438.1,422.1,448,410,448z"/>
</g>
</svg>
