<?xml version="1.0" encoding="utf-8"?>
<!-- Generator: Adobe Illustrator 18.1.1, SVG Export Plug-In . SVG Version: 6.00 Build 0)  -->
<svg version="1.1" id="Layer_1" xmlns="http://www.w3.org/2000/svg" xmlns:xlink="http://www.w3.org/1999/xlink" x="0px" y="0px"
	 viewBox="0 0 512 512" enable-background="new 0 0 512 512" xml:space="preserve">
<g>
	<g>
		<path d="M144,320c26.5,0,48,21.5,48,48s-21.5,48-48,48s-48-21.5-48-48S117.5,320,144,320 M144,304c-35.3,0-64,28.7-64,64
			c0,35.3,28.7,64,64,64s64-28.7,64-64C208,332.7,179.3,304,144,304L144,304z"/>
		<path d="M367.2,288c44.4,0,80.6,36.1,80.6,80.5s-36,79.5-80.4,79.5h-223c-44.4,0-80.5-35.1-80.5-79.5s36.1-80.5,80.5-80.5H367
			 M367.5,272h-223C91.2,272,48,315.2,48,368.5S91.2,464,144.5,464h223c53.3,0,96.5-42.2,96.5-95.5S420.8,272,367.5,272L367.5,272z"
			/>
	</g>
	<g>
		<path d="M368,96c26.5,0,48,21.5,48,48s-21.5,48-48,48s-48-21.5-48-48S341.5,96,368,96 M368,80c-35.3,0-64,28.7-64,64
			c0,35.3,28.7,64,64,64s64-28.7,64-64C432,108.7,403.3,80,368,80L368,80z"/>
		<path d="M145,64h222.5c44.4,0,80.5,36.1,80.5,80.5S411.9,224,367.5,224h-223c-44.4,0-80.4-35.1-80.4-79.5S100.4,64,144.8,64
			 M144.5,48C91.2,48,48,91.2,48,144.5S91.2,240,144.5,240h223c53.3,0,96.5-42.2,96.5-95.5S420.8,48,367.5,48H144.5L144.5,48z"/>
	</g>
</g>
</svg>
