<?xml version="1.0" encoding="utf-8"?>
<!-- Generator: Adobe Illustrator 18.1.1, SVG Export Plug-In . SVG Version: 6.00 Build 0)  -->
<svg version="1.1" id="Layer_1" xmlns="http://www.w3.org/2000/svg" xmlns:xlink="http://www.w3.org/1999/xlink" x="0px" y="0px"
	 viewBox="0 0 512 512" enable-background="new 0 0 512 512" xml:space="preserve">
<g>
	<path d="M276.6,295.2c-2.5,0-4.9,0-7.3,0.2c-0.7,0.1-1.4,0.1-2.1,0.2c-4.3-19.1-14.5-35.9-28.6-48.5c-1-0.9-2.1-1.8-3.1-2.7
		c-1-0.8-2-1.6-3-2.3c-1.4-1.1-2.9-2.1-4.4-3c-2.8-1.8-5.6-3.5-8.6-5c-1.1-0.6-2.3-1.1-3.4-1.7c-11.6-5.4-24.5-8.4-38.1-8.4
		c0,0,0,0,0,0c-1,0-1.9,0-2.9,0c-0.1,0-0.2-0.1-0.3-0.1c-0.9,0-1.9,0-2.8,0c0,0,0,0,0,0s0,0.1,0,0.1c-48,3.1-85.5,42.9-85.5,91.5
		c0,3.1,0.2,6.1,0.5,9.1c-30.8,2.7-55,29.7-55,61.3c0,2.1,0.1,4.2,0.3,6.2c3,30.7,28.4,55.8,59.7,55.8h184.6h0
		c37.8,0,69.1-28.2,74.6-64.6c0,0,0,0,0,0l0,0h0c0.2-1.1,0.3-2.1,0.4-3.2c0-0.4,0.1-0.8,0.1-1.2c0.1-0.8,0.1-1.6,0.2-2.4
		c0-0.4,0-0.7,0.1-1.1c0.1-1.1,0.1-2.3,0.1-3.5c0-5.2-0.5-10.3-1.5-15.3C343.4,322,313,295.2,276.6,295.2z"/>
	<path d="M450,306c-2.5,0.1-5,0.2-7.5,0.2c-41.4,0-80.4-15.8-109.7-44.4c-29.3-28.6-45.4-66.6-45.4-107.1c0-23,5.2-45.3,15.2-65.5
		c4.4-8.9,8.9-17.3,15-25.3h-0.3c-10.8,1.2-20.2,3.3-30.3,6.4c-61.8,19-107.8,72.7-114.1,137.7c1.8-0.1,3.5-0.1,5.3-0.1
		c24.5,0,48.5,8.5,67.6,24.1c15.2,12.4,26.8,28.8,33.5,47.1c23.5,0.6,45.5,10.4,62.3,27.6c17.2,17.6,26.6,40.8,26.6,65.2
		c0,3.1-0.2,6.1-0.4,9.1c37.5-7,70.4-26.4,94.2-53.7c6.9-7.9,13-15.3,18.3-24.5C470.3,305.3,460.2,305.5,450,306z"/>
</g>
</svg>
