<?xml version="1.0" encoding="utf-8"?>
<!-- Generator: Adobe Illustrator 16.2.1, SVG Export Plug-In . SVG Version: 6.00 Build 0)  -->
<!DOCTYPE svg PUBLIC "-//W3C//DTD SVG 1.1//EN" "http://www.w3.org/Graphics/SVG/1.1/DTD/svg11.dtd">
<svg version="1.1" id="Layer_1" xmlns="http://www.w3.org/2000/svg" xmlns:xlink="http://www.w3.org/1999/xlink" x="0px" y="0px"
	 width="512px" height="512px" viewBox="0 0 512 512" enable-background="new 0 0 512 512" xml:space="preserve">
<g>
	<g>
		<path d="M210.799,301.254c-44.597-44.597-103.318-66.442-161.763-65.567c-0.513,5.306-0.819,10.643-0.928,16.01
			c1.433-0.029,2.866-0.051,4.303-0.051c27.021,0,53.357,5.124,78.276,15.229c25.791,10.458,48.938,25.831,68.798,45.691
			s35.232,43.007,45.691,68.798c10.105,24.919,15.228,51.256,15.228,78.277c0.002,1.437-0.021,2.87-0.051,4.302
			c5.369-0.109,10.707-0.414,16.011-0.928C277.239,404.57,255.395,345.85,210.799,301.254z"/>
		<path d="M377.882,248.659c-25.791-10.458-48.938-25.831-68.797-45.691c-19.861-19.86-35.233-43.007-45.692-68.797
			c-10.105-24.919-15.229-51.256-15.229-78.277c0-2.586,0.062-5.161,0.155-7.733c-5.381,0.196-10.734,0.593-16.049,1.198
			c-1.726,59.483,20.101,119.522,65.501,164.922c45.399,45.4,105.438,67.226,164.923,65.501c0.604-5.315,1.002-10.667,1.197-16.05
			c-2.572,0.094-5.148,0.156-7.732,0.156C429.136,263.889,402.801,258.765,377.882,248.659z"/>
	</g>
	<g>
		<path d="M256,48C141.137,48,48,141.136,48,256c0,114.863,93.137,208,208,208c114.872,0,208-93.138,208-208
			C464,141.137,370.87,48,256,48z M446.665,256c0,105.131-85.533,190.663-190.665,190.664C150.87,446.664,65.336,361.13,65.337,256
			C65.336,150.868,150.869,65.335,256,65.336C361.13,65.335,446.665,150.869,446.665,256z"/>
	</g>
</g>
</svg>
