<?xml version="1.0" encoding="utf-8"?>
<!-- Generator: Adobe Illustrator 18.1.1, SVG Export Plug-In . SVG Version: 6.00 Build 0)  -->
<svg version="1.1" id="Layer_1" xmlns="http://www.w3.org/2000/svg" xmlns:xlink="http://www.w3.org/1999/xlink" x="0px" y="0px"
	 viewBox="0 0 512 512" enable-background="new 0 0 512 512" xml:space="preserve">
<g>
	<path d="M276.6,295.4c-0.5,0-1.1-0.1-1.6-0.1c-2.6,0-5.2,0-7.8,0.3C258,254.8,221.6,224,178,224c-50.5,0-91.5,41-91.5,91.6
		c0,3.1,0.2,6.1,0.5,9.1c-30.8,2.7-55,30.2-55,61.8c0,33.4,26.6,62.5,60,62.5h184.6c41.7,0,75.4-34.8,75.4-76.5
		C352,330.8,318.2,295.4,276.6,295.4z M318.5,415c-11.3,11.4-26.2,18-41.9,18H92c-11.6,0-22.6-5.1-30.9-13.9
		c-8.3-8.7-13.1-20.8-13.1-32.8c0-11.4,4.2-22.4,11.9-31c7.6-8.5,17.7-13.7,28.5-14.7l16.1-1.4l-1.6-16.1c-0.2-2.5-0.4-5.1-0.4-7.6
		c0-41.7,33.9-75.6,75.5-75.6c17.4,0,33.8,5.8,47.4,16.9c13.2,10.8,22.5,25.8,26.2,42.3l3.2,14.2l14.4-1.9c1.6-0.2,3.7-0.4,5.8-0.4
		h0.8h0.8c15.7,0,30.6,6.5,41.9,18.1c11.3,11.6,17.6,27,17.6,43C336,388.2,329.8,403.6,318.5,415z"/>
	<path d="M450,306c-2.5,0.1-5,0.2-7.5,0.2c-41.4,0-80.4-15.8-109.7-44.4c-29.3-28.6-45.4-66.6-45.4-107.1c0-23,5.2-45.3,15.2-65.5
		c4.4-8.9,8.9-17.3,15-25.3h-0.3c-10.8,1.2-20.2,3.3-30.3,6.4c-61.8,19-107.8,72.7-114.1,137.7c1.8-0.1,3.5-0.1,5.3-0.1
		c3.6,0,7.2,0.2,10.8,0.6c2.7-25.8,12.4-50.1,28.4-71.1c17.2-22.6,41.3-40.1,68.3-49.7c-9.4,21.1-14.2,43.6-14.2,67
		c0,44.8,17.9,86.9,50.3,118.5c32.3,31.5,75.2,48.9,120.9,48.9c0.8,0,1.6,0,2.4,0c-20.8,21.7-47.8,36.4-77.1,42.6
		c0.2,2.4,0.3,4.8,0.3,7.2c0,3.1-0.2,6.1-0.4,9.1c37.5-7,70.4-26.4,94.2-53.7c6.9-7.9,13-15.3,18.3-24.5
		C470.3,305.3,460.2,305.5,450,306z"/>
</g>
</svg>
