<?xml version="1.0" encoding="utf-8"?>
<!-- Generator: Adobe Illustrator 18.1.1, SVG Export Plug-In . SVG Version: 6.00 Build 0)  -->
<svg version="1.1" id="Layer_1" xmlns="http://www.w3.org/2000/svg" xmlns:xlink="http://www.w3.org/1999/xlink" x="0px" y="0px"
	 viewBox="0 0 512 512" enable-background="new 0 0 512 512" xml:space="preserve">
<g>
	<g>
		<g>
			<circle cx="256" cy="88" r="8"/>
			<circle cx="256" cy="424" r="8"/>
			<circle cx="424" cy="256" r="8"/>
			<circle cx="88" cy="256" r="8"/>
		</g>
		<g>
			<circle cx="110.5" cy="172" r="8"/>
			<circle cx="401.5" cy="340" r="8"/>
			<circle cx="340" cy="110.5" r="8"/>
			<circle cx="172" cy="401.5" r="8"/>
		</g>
		<g>
			<circle cx="110.5" cy="340" r="8"/>
			<circle cx="401.5" cy="172" r="8"/>
			<circle cx="172" cy="110.5" r="8"/>
			<circle cx="340" cy="401.5" r="8"/>
		</g>
		<path d="M269.9,248c-2.9-5-8.1-7.8-13.4-8l-30-55.4c-2.3-3.8-7.2-5-11-2.7c-3.8,2.3-5,7.2-2.7,11l29.6,54.9
			c-2.9,4.8-3.2,11.1-0.2,16.3c1.5,2.5,3.5,4.5,5.9,5.8V384c0,4.4,3.6,8,8,8c4.4,0,8-3.6,8-8V269.9
			C271.7,265.4,274.3,255.7,269.9,248z"/>
	</g>
	<g>
		<g>
			<path d="M403.1,108.9c-81.2-81.2-212.9-81.2-294.2,0s-81.2,212.9,0,294.2c81.2,81.2,212.9,81.2,294.2,0
				C484.3,321.9,484.3,190.1,403.1,108.9z M390.8,390.8c-74.3,74.3-195.3,74.3-269.6,0c-74.3-74.3-74.3-195.3,0-269.6
				s195.3-74.3,269.6,0C465.2,195.5,465.2,316.5,390.8,390.8z"/>
		</g>
	</g>
</g>
</svg>
