<?xml version="1.0" encoding="utf-8"?>
<!-- Generator: Adobe Illustrator 18.1.1, SVG Export Plug-In . SVG Version: 6.00 Build 0)  -->
<svg version="1.1" id="Layer_1" xmlns="http://www.w3.org/2000/svg" xmlns:xlink="http://www.w3.org/1999/xlink" x="0px" y="0px"
	 viewBox="0 0 512 512" enable-background="new 0 0 512 512" xml:space="preserve">
<g>
	<path d="M358.3,48.2c-4.7,0.9-106,20.1-110.2,20.9c-4.2,0.8-8.1,3.6-8.1,8c0,0,0,257.7,0,259.4c0,1.6-0.1,7.2-2.4,11.7
		c-3.1,5.9-8.5,10.2-16.1,12.7c-3.3,1.1-7.8,2.1-13.1,3.3c-24.1,5.4-64.4,14.5-64.4,51.6c0,31,22.4,45,41.7,47.4
		c2.1,0.3,4.5,0.8,7.1,0.8c0,0,0,0,0,0c6.7,0,24-1.4,39.2-11.3c11-7.1,24.1-21.4,24.1-47.8V166.5l112-22.9V55.8
		C368,51.5,364.3,47,358.3,48.2z"/>
</g>
</svg>
