<?xml version="1.0" encoding="utf-8"?>
<!-- Generator: Adobe Illustrator 16.2.1, SVG Export Plug-In . SVG Version: 6.00 Build 0)  -->
<!DOCTYPE svg PUBLIC "-//W3C//DTD SVG 1.1//EN" "http://www.w3.org/Graphics/SVG/1.1/DTD/svg11.dtd">
<svg version="1.1" id="Layer_1" xmlns="http://www.w3.org/2000/svg" xmlns:xlink="http://www.w3.org/1999/xlink" x="0px" y="0px"
	 width="512px" height="512px" viewBox="0 0 512 512" enable-background="new 0 0 512 512" xml:space="preserve">
<path d="M256.001,464c114.863,0,208-93.136,208-208c0-114.862-93.137-208-208-208c-114.872,0-208,93.137-208,208
	C48.001,370.864,141.131,464,256.001,464z M127.026,115.712L255.292,243.98l39.597-39.597l0.139-0.139
	c-36.199-39.182-55.773-88.081-58.862-137.88c5.25-0.545,10.564-0.87,15.932-0.979c1.382,22.45,6.326,44.347,14.796,65.233
	c9.337,23.024,22.584,43.954,39.452,62.308l77.896-77.896c3.946,3.593,7.731,7.355,11.363,11.263l-77.998,77.999
	c18.703,17.518,40.114,31.246,63.757,40.834c20.896,8.473,42.793,13.43,65.251,14.814c-0.111,5.414-0.444,10.775-0.999,16.07
	c-50.368-3.176-99.956-23.371-139.329-60.397l-0.084,0.084l-39.598,39.597l129.684,129.684c-3.612,3.926-7.387,7.7-11.313,11.312
	L255.292,266.607l-36.173,36.173l-3.508,3.508c37.026,39.373,57.225,88.958,60.402,139.327c-5.297,0.556-10.66,0.889-16.076,0.999
	c-1.385-22.458-6.34-44.353-14.814-65.25c-9.587-23.642-23.315-45.053-40.833-63.757l-77.998,77.998
	c-3.908-3.633-7.671-7.418-11.263-11.362l77.896-77.896c-18.354-16.868-39.265-30.134-62.291-39.47
	c-20.897-8.475-42.791-13.431-65.249-14.814c0.109-5.375,0.438-10.693,0.985-15.951c49.775,3.102,98.708,22.734,137.872,58.917
	l3.674-3.675l36.062-36.062L115.711,127.027C119.325,123.101,123.099,119.326,127.026,115.712z"/>
</svg>
