<?xml version="1.0" encoding="utf-8"?>
<!-- Generator: Adobe Illustrator 18.1.1, SVG Export Plug-In . SVG Version: 6.00 Build 0)  -->
<svg version="1.1" id="Layer_1" xmlns="http://www.w3.org/2000/svg" xmlns:xlink="http://www.w3.org/1999/xlink" x="0px" y="0px"
	 viewBox="0 0 512 512" enable-background="new 0 0 512 512" xml:space="preserve">
<g>
	<path d="M467.7,269.2c-4.3-30.9-14.4-57.3-33.8-57.3l-7.6,0.1c-30.6-62-94.2-103.5-166.6-103.5c-3.5,0-7,0.1-10.5,0.3
		c-85.8,4.8-154.7,66.7-171.7,146.8l-11.4,1.6c-17.2,2.4-26.9,34.8-21.6,72.5c5,36.2,22.1,64,38.6,64c0.7,0,1.4,0,2-0.1l15.7-2.2
		c32.9,53.5,92.1,88.7,158.5,88.7c3.5,0,7-0.1,10.5-0.3c85.2-4.7,153.8-65.9,171.4-145.2l7.4-0.4
		C463.8,331.7,472.4,302.8,467.7,269.2z M106.2,374.4l-23.1,3.2c-1.1-0.3-5.6-3-10.8-12.2c-5.7-10-9.9-23.5-11.9-38
		c-2-14.5-1.6-28.6,1.1-39.8c2.5-10.2,6.1-14,7.1-14.7l21.6-3c7.2,12.9,13.6,30,16.5,49.3C109.7,340.1,110.7,359.9,106.2,374.4z
		 M451.1,305.3c-1.8,8-4.3,11.8-5.5,13l-17.5,1l-2.6,11.8c-4,17.9-10.8,34.9-20.3,50.7c-9.4,15.5-21.1,29.4-34.9,41.2
		c-28.6,24.6-63.7,38.7-101.4,40.8c-3.2,0.2-6.4,0.3-9.6,0.3c-29.4,0-58.4-7.7-83.9-22.2c-24.9-14.2-46-34.5-60.9-58.9l-5.1-8.3
		c8-11.9,12.8-31.6,9.6-57.5c-2.8-22.6-15.4-40.5-27.4-50.8l1.6-7.4c7.6-35.8,27.1-68.7,54.9-92.9c28.7-24.9,64.1-39.1,102.1-41.2
		c3.2-0.2,6.8-0.3,9.8-0.3c32.2,0,63.2,9,90.3,26c26.6,16.7,47.9,40.4,61.7,68.5l3.6,7.5c8.1,19,12.5,37.1,13.9,57.5
		c1.5-25.3-2.1-42.7-7.1-56l11.5-0.1c3.4,0,6.9,5.9,8.3,8.5c4.2,8,7.5,20.1,9.6,35.1C453.5,283.7,453.3,295.7,451.1,305.3z"/>
	
		<ellipse transform="matrix(-5.551456e-02 -0.9985 0.9985 -5.551456e-02 -76.2673 657.53)" cx="272.9" cy="364.8" rx="15.4" ry="15.4"/>
	<path d="M352.8,344.8c-8.5,0.5-15,7.7-14.5,16.2c0.5,8.5,7.7,15,16.2,14.5c8.5-0.5,15-7.7,14.5-16.2
		C368.6,350.8,361.3,344.3,352.8,344.8z"/>
	<path d="M168,73.6c2.1,1.4,5,2.4,8.6,3c2.5,0.4,5.3,0.6,8.3,0.6c1.2,0,2.4,0,3.6-0.1c1,0,1.9-0.1,2.9-0.2c-0.4-0.4-0.8-0.9-1.2-1.3
		c-0.4,0-0.9,0-1.3,0c-0.4,0-0.8,0-1.2,0c-3.8,0-7.4-0.3-10.4-0.9c-3.5-0.7-6.7-2.1-8.4-3.4c-1.6-1.4-1.3-3.7-1.3-3.7
		c0.3-2.6,2.4-4.8,5.4-7.4c2.7-2.3,6.4-4.7,10.8-7l3.1-1.5c-0.8,3.3-0.9,6.9-0.2,10.5c2.1,10.9,10.9,18.9,21.4,20.4l4.7,23.1
		l15.8-3.2l-4.6-22.8c9.4-5.1,14.8-15.8,12.8-26.9c-0.7-3.5-2-6.7-3.9-9.5c-1.8-0.3-4.3-0.5-7.2-0.5c-5.6,0-13.1,0.6-22,2.6
		c1.1-0.3,2.1-0.7,3.2-1c7.6-2.1,14.5-3.5,21.5-4.2c8.6-1,15-0.3,16.6-0.1s3,0.5,4.3,0.9c-0.8,1.2-1.2,2.7-1.2,4.2
		c0,3.3,2.1,6.2,5,7.4c-0.2,0.3-0.5,0.6-0.7,0.9c-0.8,0.9-1.8,1.9-2.9,2.8c-1.1,0.9-2.2,1.8-3.5,2.7l-6.5,3.8
		c-0.1,0.5-0.2,1-0.3,1.5c0.1,0,0.2-0.1,0.2-0.1l8.3-4.7c1.2-0.8,2.4-1.6,3.4-2.4c1.2-0.9,2.2-1.8,3.1-2.8c0.3-0.3,0.7-0.7,1-1
		c0.3,0,0.6,0,0.9,0c4.4,0,8-3.6,8-8s-3.6-8-8-8c-1.6,0-3.1,0.5-4.4,1.3c-1.8-0.8-3.6-1.3-6.4-1.8c-2.8-0.5-11.8-1.2-19.6-0.3
		c-3.1-2.3-8.9-4.2-13.9-4.2c-1.6,0-3.1,0.1-4.7,0.4c-7.9,1.5-14.2,6.5-17.7,13c0,0-11.7,4.5-19.6,11.7c-3.2,2.9-5,6.4-5.3,8.3
		C163.8,68.6,164.8,71.5,168,73.6z M211.6,46.3c5.8,0,10.5,4.7,10.5,10.5s-4.7,10.5-10.5,10.5c-5.8,0-10.5-4.7-10.5-10.5
		S205.8,46.3,211.6,46.3z"/>
</g>
</svg>
