<?xml version="1.0" encoding="utf-8"?>
<!-- Generator: Adobe Illustrator 18.1.1, SVG Export Plug-In . SVG Version: 6.00 Build 0)  -->
<svg version="1.1" id="Layer_1" xmlns="http://www.w3.org/2000/svg" xmlns:xlink="http://www.w3.org/1999/xlink" x="0px" y="0px"
	 viewBox="0 0 512 512" enable-background="new 0 0 512 512" xml:space="preserve">
<g>
	<path d="M256,48C141.1,48,48,141.1,48,256s93.1,208,208,208s208-93.1,208-208S370.9,48,256,48z M304,112
		c18.7,0,30.9,10.3,34.1,29.1c1.9,11.1-0.6,26.6-3.5,34.9H352c16.5,0,30.3,4.1,38.9,18.4C397,204.8,400,218,400,244h-16
		c0-28-3.8-36.1-6.9-41.4c-5.7-9.7-14.2-10.6-25.1-10.6h-29.5c-2.8,0-5.5-1.6-6.9-3.9c-1.4-2.4-1.5-5.4-0.1-7.9
		c0.1-0.2,9.4-21.8,6.9-36.3c-1.3-7.6-2.4-15.8-18.4-15.8c-4.4,0-8-3.6-8-8S299.6,112,304,112z M272,96c4.4,0,8,3.6,8,8s-3.6,8-8,8
		c-1,0-17.9,1.7-17.9,27.5c0,11,5,18.6,15.6,23.1c8.9,3.8,18.2,3.9,18.3,3.9c2.9,0.1,5.6,1.7,7,4.3c1.4,2.6,1.2,5.8-0.4,8.2
		c-4.7,7.1-6.5,17.7-3.7,21.9c4.1,6,7.3,7.2,20,7.1c1.2,0,2.4,0,3.6,0c23.6,0,36.9,0.6,45.7,4.7c16,7.4,15.8,23.1,15.8,30.2
		c0,0.6,0,1.1,0,1.1h-16c0-1,0-0.4,0-1.1c0-8.2-1-13-6.7-15.7c-4.3-2-12.7-3.2-39-3.2c-1.2,0-2.4,0-3.5,0c-13,0-24.3,0.2-33.3-13.1
		c-5.3-7.8-5-20-1.7-29.8c-3.6-0.7-7.8-1.9-12-3.6c-16.7-7-25.7-20.5-25.7-38C238.1,106.8,260,96,272,96z M376,256v48h-16v-48H376z
		 M352,256v48h-20l-48-48H352z M112,304v-48h117l48,48H112z M391.8,391.8c-1.9,1.9-3.8,3.7-5.8,5.5L114.7,126c1.8-2,3.6-3.9,5.5-5.8
		c1.9-1.9,3.8-3.7,5.8-5.5L397.3,386C395.5,387.9,393.7,389.9,391.8,391.8z M400,304h-16v-48h16V304z M400,244
		C400,244,400,243.9,400,244L400,244L400,244z"/>
	<path d="M400,244L400,244L400,244C400,243.9,400,244,400,244z"/>
</g>
</svg>
