<?xml version="1.0" encoding="utf-8"?>
<!-- Generator: Adobe Illustrator 16.2.1, SVG Export Plug-In . SVG Version: 6.00 Build 0)  -->
<!DOCTYPE svg PUBLIC "-//W3C//DTD SVG 1.1//EN" "http://www.w3.org/Graphics/SVG/1.1/DTD/svg11.dtd">
<svg version="1.1" id="Layer_1" xmlns="http://www.w3.org/2000/svg" xmlns:xlink="http://www.w3.org/1999/xlink" x="0px" y="0px"
	 width="512px" height="512px" viewBox="0 0 512 512" enable-background="new 0 0 512 512" xml:space="preserve">
<path fill="#010101" d="M264.5,304.488c0-21.975,22.205-38.674,41.992-54.824c7.908-6.453,14.499-12.547,20.647-18.962
	c26.547-27.697,25.36-51.744,25.36-71.059V155.5c0-44.25-27.324-120-28.527-123h-63.979h-64c-1.203,3-35.493,78.5-35.493,123v4.144
	c0,19.273,1.423,43.361,27.971,71.059c6.148,6.415,12.744,12.509,20.65,18.962c19.789,16.15,39.379,32.85,39.379,54.824V464.5h-72
	v16h83.493H336.5v-16h-72V304.488z M206.722,48.5h53.271h53.249c5.359,15,19.51,62,24.836,96H181.887
	C187.214,110.5,201.363,63.5,206.722,48.5z M259.993,268.916c-2.969,0-5.249-0.92-7.172-2.754c0.002,0.009,0.004,0.018,0.006,0.026
	c-8.804-10.807-20.234-20.158-30.97-28.92c-7.518-6.135-14.617-11.929-20.088-17.637c-22.054-23.008-21.929-38.416-21.796-57.375
	c0.011-1.428-0.067-0.755,0.021-1.755h159.979c0.088,1,0.01,0.328,0.02,1.755c0.133,18.959,0.26,35.617-21.795,58.625
	c-5.471,5.708-12.57,10.877-20.086,17.012c-10.737,8.762-22.165,17.801-30.968,28.608c0.002-0.009,0.008-0.174,0.01-0.183
	C265.231,268.152,262.993,268.916,259.993,268.916z"/>
</svg>
