<?xml version="1.0" encoding="utf-8"?>
<!-- Generator: Adobe Illustrator 18.1.1, SVG Export Plug-In . SVG Version: 6.00 Build 0)  -->
<svg version="1.1" id="Layer_1" xmlns="http://www.w3.org/2000/svg" xmlns:xlink="http://www.w3.org/1999/xlink" x="0px" y="0px"
	 viewBox="0 0 512 512" enable-background="new 0 0 512 512" xml:space="preserve">
<path d="M403.1,108.9c-81.2-81.2-212.9-81.2-294.2,0s-81.2,212.9,0,294.2c81.2,81.2,212.9,81.2,294.2,0
	C484.3,321.9,484.3,190.1,403.1,108.9z M121.2,121.2c74.3-74.3,195.3-74.3,269.6,0c38,38,56.5,88.1,55.7,138
	c-2.9-4.6-23.1-35.2-52.5-35.2c-27.9,0-42.3,26.1-51.8,43.3c-1.4,2.6-2.8,5-4,7.1c-11.6,19.5-27.7,30.4-43.1,29.3
	c-13.6-1-25.2-11.3-32.6-29.2c-9.3-22.4-29.6-46.5-53.7-49.9c-11.4-1.6-28.6,0.9-45.3,21.7c-3.3,4.1-7,9.5-11.2,15.9
	c-10.6,15.7-26.5,39.4-38.7,41.4c-21,3.4-36.6-12.2-39.3-14.6c-2-1.7-4.4-4.3-7.3-7.6C59.5,224.5,77.5,164.8,121.2,121.2z
	 M390.8,390.8c-74.3,74.3-195.3,74.3-269.6,0c-24.2-24.2-40.5-53.3-48.9-84.1c7,5.7,19.3,13.3,35.5,13.3c2.7,0,5.6-0.2,8.5-0.7
	c19-3.1,35.8-28.1,49.4-48.2c3.9-5.8,7.5-11.2,10.4-14.8c9.7-12,20-17.4,30.6-15.9c12.9,1.8,31.1,16.2,41.1,40.2
	c9.9,23.7,26.3,37.6,46.3,39c21.6,1.5,43.3-12.4,58-37.1c1.4-2.3,2.8-4.8,4.2-7.5c8.6-15.6,19.3-35.1,37.7-35.1
	c11.1,0,20.9,7.3,27.2,13.4c7.4,7.2,9,9,12.9,14.6c3.4,4.8,6.5,8.7,10.3,16.7C438.6,323.5,420.7,360.9,390.8,390.8z"/>
</svg>
