<?xml version="1.0" encoding="utf-8"?>
<!-- Generator: Adobe Illustrator 18.1.1, SVG Export Plug-In . SVG Version: 6.00 Build 0)  -->
<svg version="1.1" id="Layer_1" xmlns="http://www.w3.org/2000/svg" xmlns:xlink="http://www.w3.org/1999/xlink" x="0px" y="0px"
	 viewBox="0 0 512 512" enable-background="new 0 0 512 512" xml:space="preserve">
<g>
	<path d="M209,112c8.8,0,15,6.2,15,15v192c0,23.3-4.3,45-13.3,64c-3.5,7.5-6.8,13-9.4,17H182c12.7-19,25-45.3,25-80.5V304h-16h-62
		c-8.8,0-17-8.2-17-17V127c0-8.5,7.9-15,17-15H209 M209,96h-80c-17.7,0-33,13.3-33,31v160c0,17.7,15.3,33,33,33h62c0,64-46,96-46,96
		h64c0,0,31-33.6,31-97c0-45.7,0-141.8,0-192C240,109.3,226.7,96,209,96L209,96z"/>
	<path d="M385,112c8.8,0,15,6.2,15,15v192c0,23.3-4.3,45-13.3,64c-3.5,7.5-6.8,13-9.4,17H358c12.7-19,25-45.3,25-80.5V304h-16h-62
		c-8.8,0-17-8.2-17-17V127c0-8.5,7.9-15,17-15H385 M385,96h-80c-17.7,0-33,13.3-33,31v160c0,17.7,15.3,33,33,33h62c0,64-46,96-46,96
		h64c0,0,31-33.6,31-97c0-45.7,0-141.8,0-192C416,109.3,402.7,96,385,96L385,96z"/>
</g>
</svg>
