<?xml version="1.0" encoding="utf-8"?>
<!-- Generator: Adobe Illustrator 18.1.1, SVG Export Plug-In . SVG Version: 6.00 Build 0)  -->
<svg version="1.1" id="Layer_1" xmlns="http://www.w3.org/2000/svg" xmlns:xlink="http://www.w3.org/1999/xlink" x="0px" y="0px"
	 viewBox="0 0 512 512" enable-background="new 0 0 512 512" xml:space="preserve">
<g>
	<g>
		<path d="M246.9,64c-12.6,1.4-24.9,4-36.6,7.7C132.4,96.4,76,169.3,76,255.4C76,361.8,162,448,268.2,448
			c58.7,0,111.2-26.4,146.5-67.9c8.1-9.5,15.2-19.8,21.4-30.8c-11.4,2.8-23.1,4.5-35,5.1c-2.9,0.1-5.9,0.2-8.8,0.2
			c-48.4,0-94-18.9-128.2-53.2c-34.3-34.3-53.1-80-53.1-128.5c0-27.6,6.1-54.3,17.7-78.5C233.6,83.7,239.7,73.5,246.9,64L246.9,64z"
			/>
	</g>
</g>
</svg>
