<?xml version="1.0" encoding="utf-8"?>
<!-- Generator: Adobe Illustrator 18.1.1, SVG Export Plug-In . SVG Version: 6.00 Build 0)  -->
<svg version="1.1" id="Layer_1" xmlns="http://www.w3.org/2000/svg" xmlns:xlink="http://www.w3.org/1999/xlink" x="0px" y="0px"
	 viewBox="0 0 512 512" enable-background="new 0 0 512 512" xml:space="preserve">
<g>
	<path d="M274.3,176c14,0,27.2,5.3,37.4,14.9c10.2,9.7,16.6,23.1,18.2,37.7l1.3,12.1l12.1,2c14.4,2.3,24.8,15,24.8,30.2
		c0,8.4-3.2,16.2-8.9,22.2c-5.6,5.8-12.9,9-20.6,9H173.4c-7.7,0-15-3.2-20.6-9c-5.7-6-8.9-13.9-8.9-22.2c0-14.3,8.9-26.8,22.1-31.1
		l10.9-3.5l0.2-11.4c0.2-11.2,9-20.4,19.7-20.4c2.8,0,8.4,1.1,12.1,2.8s8.8,4,8.8,4l7.6-10.9C235.7,186.1,254.5,176,274.3,176
		 M274.3,160c-25.6,0-49.4,13.4-62.5,33.8c-4.5-2.1-9.6-3.4-14.9-3.4c-19.5,0-35.4,16.1-35.7,36.1c-20,6.5-33.2,25.2-33.2,46.2
		c0,25.7,20.3,47.2,45.4,47.2h165.1c25.1,0,45.4-21.4,45.4-47.2c0-23.2-16.6-42.4-38.3-45.9C341.8,189.3,312,160,274.3,160
		L274.3,160z"/>
	<path d="M256,64c25.9,0,51.1,5.1,74.7,15.1c22.9,9.7,43.4,23.5,61,41.2c17.6,17.6,31.5,38.2,41.2,61c10,23.7,15.1,48.8,15.1,74.7
		s-5.1,51.1-15.1,74.7c-9.7,22.9-23.5,43.4-41.2,61c-17.6,17.6-38.2,31.5-61,41.2c-23.7,10-48.8,15.1-74.7,15.1
		c-25.9,0-51.1-5.1-74.7-15.1c-22.9-9.7-43.4-23.5-61-41.2c-17.6-17.6-31.5-38.2-41.2-61C69.1,307.1,64,281.9,64,256
		s5.1-51.1,15.1-74.7c9.7-22.9,23.5-43.4,41.2-61c17.6-17.6,38.2-31.5,61-41.2C204.9,69.1,230.1,64,256,64 M256,48
		C141.1,48,48,141.1,48,256s93.1,208,208,208c114.9,0,208-93.1,208-208S370.9,48,256,48L256,48z"/>
</g>
</svg>
