<?xml version="1.0" encoding="utf-8"?>
<!-- Generator: Adobe Illustrator 18.1.1, SVG Export Plug-In . SVG Version: 6.00 Build 0)  -->
<svg version="1.1" id="Layer_1" xmlns="http://www.w3.org/2000/svg" xmlns:xlink="http://www.w3.org/1999/xlink" x="0px" y="0px"
	 viewBox="0 0 512 512" enable-background="new 0 0 512 512" xml:space="preserve">
<path d="M256,48C141.1,48,48,141.1,48,256c0,114.9,93.1,208,208,208s208-93.1,208-208C464,141.1,370.9,48,256,48z M391.8,120.2
	c17.6,17.6,31.5,38.2,41.2,61c2.7,6.3,5,12.8,7,19.4l-101.1,6.8c-8.2-14-19.9-25.7-33.9-34l6.5-101.3c6.5,2,13,4.3,19.3,7
	C353.6,88.8,374.1,102.6,391.8,120.2z M256,336c-44.1,0-80-35.9-80-80c0-44.1,35.9-80,80-80s80,35.9,80,80
	C336,300.1,300.1,336,256,336z M120.2,120.2c17.6-17.6,38.2-31.5,61-41.2c6.3-2.7,12.8-5,19.3-7l6.5,101.3
	c-13.9,8.3-25.6,20-33.9,33.9l-101.1-6.7c2-6.5,4.3-13,7-19.3C88.8,158.4,102.6,137.9,120.2,120.2z M120.2,391.8
	c-17.6-17.6-31.5-38.2-41.2-61c-2.7-6.3-5-12.8-7-19.3l101.3-6.5c8.2,13.9,19.9,25.5,33.8,33.8l-6.6,101.2c-6.5-2-13-4.3-19.3-7
	C158.4,423.2,137.9,409.4,120.2,391.8z M391.8,391.8c-17.6,17.6-38.2,31.5-61,41.2c-6.3,2.7-12.8,5-19.3,7l-6.7-101.1
	c14.1-8.3,25.8-20.1,34.1-34.2l101.1,6.8c-2,6.5-4.3,13-7,19.4C423.2,353.6,409.4,374.1,391.8,391.8z"/>
</svg>
