<?xml version="1.0" encoding="utf-8"?>
<!-- Generator: Adobe Illustrator 18.1.1, SVG Export Plug-In . SVG Version: 6.00 Build 0)  -->
<svg version="1.1" id="Layer_1" xmlns="http://www.w3.org/2000/svg" xmlns:xlink="http://www.w3.org/1999/xlink" x="0px" y="0px"
	 viewBox="0 0 512 512" enable-background="new 0 0 512 512" xml:space="preserve">
<g>
	<g>
		<polygon points="347.2,464 370,464 320.7,416 297.9,416 314,432 198,432 214.1,416 191.3,416 142,464 164.8,464 181.9,448 
			330.1,448 		"/>
		<path d="M200,72h112c4.4,0,8,3.6,8,8c0,4.4-3.6,8-8,8H200c-4.4,0-8-3.6-8-8C192,75.6,195.6,72,200,72z"/>
	</g>
	<path d="M344,64c26.5,0,48,21.5,48,48v224c0,26.5-21.5,48-48,48H168c-26.5,0-48-21.5-48-48V112c0-26.5,21.5-48,48-48H344 M168,256
		h178c17.6,0,32-14.4,32-32v-96c0-17.6-14.3-32-32-32H168c-17.6,0-32,14.4-32,32v96C136,241.6,150.3,256,168,256 M336.5,375.5
		c24.3,0,44-19.7,44-44s-19.7-44-44-44s-44,19.7-44,44S312.2,375.5,336.5,375.5 M176.5,375.5c24.3,0,44-19.7,44-44s-19.7-44-44-44
		s-44,19.7-44,44S152.2,375.5,176.5,375.5 M344,48H168c-35.3,0-64,28.7-64,64v224c0,35.3,28.7,64,64,64h176c35.3,0,64-28.7,64-64
		V112C408,76.7,379.3,48,344,48L344,48z M168,240c-8.8,0-16-7.2-16-16v-96c0-8.8,7.2-16,16-16h178c8.8,0,16,7.2,16,16v96
		c0,8.8-7.2,16-16,16H168L168,240z M336.5,359.5c-15.5,0-28-12.5-28-28s12.5-28,28-28c15.5,0,28,12.5,28,28S352,359.5,336.5,359.5
		L336.5,359.5z M176.5,359.5c-15.5,0-28-12.5-28-28s12.5-28,28-28c15.5,0,28,12.5,28,28S192,359.5,176.5,359.5L176.5,359.5z"/>
</g>
</svg>
