<?xml version="1.0" encoding="utf-8"?>
<!-- Generator: Adobe Illustrator 18.1.1, SVG Export Plug-In . SVG Version: 6.00 Build 0)  -->
<svg version="1.1" id="Layer_1" xmlns="http://www.w3.org/2000/svg" xmlns:xlink="http://www.w3.org/1999/xlink" x="0px" y="0px"
	 viewBox="0 0 512 512" enable-background="new 0 0 512 512" xml:space="preserve">
<g>
	<path d="M286,496c-6.1,0-11.8-2.3-16-6.6c-3.2-3.3-7.1-9.1-7.1-18.6V351.4H249v119.4c0,9.5-4,15.4-7.4,18.7
		c-4.3,4.2-10.1,6.5-16.3,6.5s-11.9-2.3-16.3-6.5c-3.4-3.3-7.4-9.1-7.4-18.7V351.4h-43.9l44.5-170.6h-6.8L171,271.2
		c-4,13.1-13.7,17.8-21.4,17.8l0,0c-6.6,0-12.9-3.2-17-8.7c-4.8-6.4-6.1-14.9-3.6-23.9l29-104.1c4.2-15.2,20.7-38.2,48.7-39.3h0.3
		h98.1c28.4,1.2,44.1,26,48.5,38.9l0.1,0.4l29,104.3c2.4,9,1,17.6-3.9,24c-4.1,5.4-10.4,8.6-16.9,8.6c-7.7,0-17.3-4.8-21.3-18.1
		v-0.2l-24.3-90.1h-7.7l45.5,170.6H309v119.4c0,9.5-3.9,15.3-7.1,18.6C297.7,493.7,292.1,496,286,496z"/>
	<path d="M255.9,106.4c-24.2,0-43.9-20.3-43.9-45.2S231.7,16,255.9,16s43.9,20.3,43.9,45.2S280.1,106.4,255.9,106.4z"/>
</g>
</svg>
