<?xml version="1.0" encoding="utf-8"?>
<!-- Generator: Adobe Illustrator 16.2.1, SVG Export Plug-In . SVG Version: 6.00 Build 0)  -->
<!DOCTYPE svg PUBLIC "-//W3C//DTD SVG 1.1//EN" "http://www.w3.org/Graphics/SVG/1.1/DTD/svg11.dtd">
<svg version="1.1" id="Layer_1" xmlns="http://www.w3.org/2000/svg" xmlns:xlink="http://www.w3.org/1999/xlink" x="0px" y="0px"
	 width="512px" height="512px" viewBox="0 0 512 512" style="enable-background:new 0 0 512 512;" xml:space="preserve">
<g>
	<path d="M256.1,64C132.3,64,32,162.7,32,285c0,64.3,27.9,122,72.1,163h303.8c44.2-41,72.1-98.7,72.1-163
		C480,162.7,379.9,64,256.1,64z M278.2,292.1c-0.4,0.4-0.8,0.8-1.2,1.2c-4.9,6.1-12.4,10-20.9,10c-14.9,0-26.9-11.9-26.9-26.6
		c0-7.8,3.5-14.7,8.9-19.6c0.7-0.8,1.3-1.6,2.4-2.4l109.2-67.6l10,10.8L278.2,292.1z M403.6,429.5l-2.4,2.5l-14.9-15l-19.2-19.2
		l10.5-10.4l23.6,23.2c14.8-15.9,22.7-30.3,31.4-49.5c9.7-21.2,15.2-43.1,16.5-67.1H420v-15h29.4c-0.6-23-5.6-47-15.1-69
		c-8.6-20-20.5-37.8-35.3-53.8l-25.9,25.7l-5.1-5.1L363,172l0,0l-0.5-0.5l25.9-25.7c-16.7-15.5-36-27.7-57.1-36.5
		c-21.6-9-44.2-13.2-68.2-13.9V130h-14V95.3c-24,0.7-46.5,4.9-68.1,13.9c-21.2,8.8-40.6,21.1-57.4,36.7l25.8,25.6l-0.5,0.5l0,0
		l-4.9,4.8l-5.1,5L113,156.2c-14.8,16-26.7,34-35.3,53.9c-9.5,22-14.6,46-15.1,69H92v15H62.8c1.3,24,6.8,45.9,16.5,67.1
		c8.8,19.2,16.6,33.7,31.4,49.6l23.5-23.2l10.6,10.4L125.6,417l-14.8,14.9l-0.6-0.6C69.4,394,47.7,334.5,47.7,284.7
		c0-0.1,0-0.2,0-0.3c0-0.1,0-0.3,0-0.3c0-84.2,53.8-157.6,125.9-188.1c25.2-10.7,53.3-16,82.5-16c0,0,0,0,0,0s0,0,0,0s0,0,0,0
		c29,0.1,57.9,5.2,82.9,16c72.8,31.4,125.3,104.1,125.3,188.3c0,0.1,0,0.2,0,0.3c0,0.1,0,0.2,0,0.3C464.3,343,439,394.3,403.6,429.5
		z"/>
</g>
</svg>
