<?xml version="1.0" encoding="utf-8"?>
<!-- Generator: Adobe Illustrator 16.2.1, SVG Export Plug-In . SVG Version: 6.00 Build 0)  -->
<!DOCTYPE svg PUBLIC "-//W3C//DTD SVG 1.1//EN" "http://www.w3.org/Graphics/SVG/1.1/DTD/svg11.dtd">
<svg version="1.1" id="Layer_1" xmlns="http://www.w3.org/2000/svg" xmlns:xlink="http://www.w3.org/1999/xlink" x="0px" y="0px"
	 width="512px" height="512px" viewBox="0 0 512 512" enable-background="new 0 0 512 512" xml:space="preserve">
<g>
	<g>
		<path d="M210.748,301.254c-44.597-44.597-103.318-66.442-161.763-65.567c-0.513,5.306-0.818,10.644-0.928,16.01
			c1.433-0.028,2.866-0.051,4.303-0.051c27.021,0,53.357,5.124,78.276,15.229c25.791,10.458,48.938,25.832,68.798,45.691
			c19.86,19.86,35.232,43.007,45.691,68.797c10.105,24.92,15.229,51.257,15.229,78.277c0,1.437-0.023,2.87-0.053,4.302
			c5.369-0.108,10.707-0.414,16.011-0.927C277.188,404.571,255.344,345.849,210.748,301.254z"/>
		<path d="M377.831,248.659c-25.791-10.458-48.938-25.831-68.797-45.691c-19.861-19.86-35.233-43.006-45.692-68.797
			c-10.105-24.919-15.229-51.256-15.229-78.277c0-2.586,0.062-5.161,0.155-7.733c-5.381,0.196-10.734,0.593-16.049,1.198
			c-1.726,59.483,20.101,119.522,65.501,164.922c45.401,45.4,105.438,67.226,164.923,65.501c0.605-5.316,1.002-10.667,1.197-16.049
			c-2.572,0.093-5.148,0.155-7.732,0.155C429.085,263.889,402.75,258.765,377.831,248.659z"/>
	</g>
	<rect x="173.092" y="298.91" transform="matrix(0.7071 -0.7071 0.7071 0.7071 -156.9481 234.9112)" width="63.998" height="16"/>
	
		<rect x="125.01" y="263.556" transform="matrix(0.5608 -0.8279 0.8279 0.5608 -155.8758 249.2542)" width="63.999" height="15.999"/>
	<rect x="70.565" y="241.637" transform="matrix(0.3053 -0.9522 0.9522 0.3053 -166.4675 271.0809)" width="63.998" height="16"/>
	
		<rect x="209.329" y="347.875" transform="matrix(0.8279 -0.5608 0.5608 0.8279 -158.059 196.5773)" width="63.999" height="15.999"/>
	
		<rect x="231.248" y="402.32" transform="matrix(0.9522 -0.3053 0.3053 0.9522 -112.7135 99.9733)" width="63.999" height="15.998"/>
	<rect x="269.255" y="202.746" transform="matrix(-0.7071 0.7071 -0.7071 -0.7071 663.2946 146.7533)" width="63.999" height="16"/>
	
		<rect x="233.82" y="154.747" transform="matrix(-0.8279 0.5608 -0.5608 -0.8279 577.1734 148.4108)" width="63.999" height="15.999"/>
	
		<rect x="211.902" y="100.302" transform="matrix(-0.9522 0.3053 -0.3053 -0.9522 509.2218 136.9605)" width="63.998" height="15.999"/>
	
		<rect x="318.139" y="239.064" transform="matrix(-0.5608 0.8279 -0.8279 -0.5608 751.0572 95.7319)" width="63.998" height="16.001"/>
	
		<rect x="372.583" y="260.985" transform="matrix(-0.3053 0.9522 -0.9522 -0.3053 784.2533 -34.1489)" width="63.999" height="15.997"/>
	<g>
		<path d="M256,48C141.137,48,48,141.136,48,256c0,114.863,93.137,208,208,208c114.872,0,208-93.137,208-208
			C464,141.137,370.87,48,256,48z M446.665,256c0,105.131-85.533,190.664-190.665,190.664C150.87,446.664,65.336,361.13,65.337,256
			C65.336,150.868,150.869,65.335,256,65.336C361.132,65.335,446.665,150.869,446.665,256z"/>
	</g>
</g>
</svg>
