<?xml version="1.0" encoding="utf-8"?>
<!-- Generator: Adobe Illustrator 18.1.1, SVG Export Plug-In . SVG Version: 6.00 Build 0)  -->
<svg version="1.1" id="Layer_1" xmlns="http://www.w3.org/2000/svg" xmlns:xlink="http://www.w3.org/1999/xlink" x="0px" y="0px"
	 viewBox="0 0 512 512" enable-background="new 0 0 512 512" xml:space="preserve">
<g>
	<path d="M137,80h286c22.1,0,40,17.9,40,40v272c0,22.1-17.9,40-40,40H137c-22.1,0-40-17.9-40-40c0-4.4,3.6-8,8-8s8,3.6,8,8
		c0,13.2,10.8,24,24,24h286c13.2,0,24-10.8,24-24V120c0-13.2-10.8-24-24-24H137c-13.2,0-24,10.8-24,24c0,4.4-3.6,8-8,8s-8-3.6-8-8
		C97,97.9,114.9,80,137,80z"/>
	<path d="M316.3,246.7l-84.6-84.4c-3.1-3.1-8.2-3.1-11.3,0c-3.1,3.1-3.1,8.2,0,11.3L296,248H57c-4.4,0-8,3.6-8,8s3.6,8,8,8h239
		l-73.7,74.4c-3.1,3.1-3.1,8.2,0,11.3c1.6,1.5,3.6,2.3,5.7,2.3c2.1,0,4.1-0.7,5.7-2.3l82.6-82.4C322.6,261,322.6,252.9,316.3,246.7z
		"/>
</g>
</svg>
