<?xml version="1.0" encoding="utf-8"?>
<!-- Generator: Adobe Illustrator 18.1.1, SVG Export Plug-In . SVG Version: 6.00 Build 0)  -->
<svg version="1.1" id="Layer_1" xmlns="http://www.w3.org/2000/svg" xmlns:xlink="http://www.w3.org/1999/xlink" x="0px" y="0px"
	 viewBox="0 0 512 512" enable-background="new 0 0 512 512" xml:space="preserve">
<g>
	<path d="M288,400c0,18-14.4,32-32,32s-32.2-14-32.2-32h-16c0,27,21.6,48,48.1,48s48.1-21,48.1-48H288z"/>
	<polygon points="133.8,32 120,40.1 378.2,480 392,471.9 	"/>
	<g>
		<path d="M236.3,104.2c16.8-2.1,22.2-2.4,39.7,0c20.8,2.9,41.6,14,55.2,30.4c17.7,21.4,26.7,53.2,26.7,94.6
			c0,51.4,4.4,84.9,14.2,108.7c5.2,12.6,11.7,22,19,30h-41.5l9.4,16H432c-35.4-32-58.1-39-58.1-154.9c0-99.1-49-132.9-94.9-140.6
			c0-0.6,0.1-1.1,0.1-1.7c0-12.7-10.3-23-23-23s-23,10.3-23,23c0,0.6,0,1.2,0.1,1.8c-13.1,2.2-26.5,6.6-38.9,14l8,13.7
			C212.5,110,224.2,105.7,236.3,104.2z"/>
		<path d="M121.1,368c7.2-8,13.7-17.3,18.9-29.9c9.8-23.8,14.1-57.3,14.1-108.8c0-30.2,4.8-55.4,14.4-75.1l-9.5-16.2
			c-12.8,21.4-20.9,50.9-20.9,91.2C138.1,345.1,115.6,352,80,384h222.9l-9.4-16H121.1z"/>
	</g>
</g>
</svg>
