<?xml version="1.0" encoding="utf-8"?>
<!-- Generator: Adobe Illustrator 18.1.1, SVG Export Plug-In . SVG Version: 6.00 Build 0)  -->
<svg version="1.1" id="Layer_1" xmlns="http://www.w3.org/2000/svg" xmlns:xlink="http://www.w3.org/1999/xlink" x="0px" y="0px"
	 viewBox="0 0 512 512" enable-background="new 0 0 512 512" xml:space="preserve">
<g>
	<path d="M149.5,283.3c-51.9,0-83.9,45.7-83.9,95.1c0,22.7-10.1,39.2-33.6,48.1c14.3,27.8,62,37.5,95.7,37.5
		c8.4,0,15.9-0.6,21.8-1.7c35.6-6.4,80.1-24.9,90.7-77C252.5,324.7,201.4,283.3,149.5,283.3z"/>
	<path d="M467.6,60.4c-7.7-7.7-16.8-12.4-26.1-12.4c-6.3,0-12.7,2.2-18.8,7L247.6,209.1c-3.4-0.9-6.6-1.4-9.7-1.4
		c-4.8,0-9.3,1.2-13.2,3.8l-63.6,52.8c-1.6,1.6-1.5,4.3,0.1,5.9c0.5,0.5,1.1,0.8,1.7,1c0.6,0,1.3,0.1,1.9,0.1c0,0,0,0,0.1,0
		c47.9,3.4,92,37.8,90.3,90.5c0,0.5,0,1-0.1,1.5c0.1,0.8,0.5,1.7,1.1,2.3c0.8,0.8,1.9,1.2,2.9,1.2c1,0,2.1-0.4,2.9-1.2
		c0,0,0,0,0.1,0c0.1-0.1,0.1-0.1,0.2-0.2l54.3-62.2c4.2-6.4,4.7-14.2,2.4-22.9l154.2-175C484.9,90.3,480.6,73.3,467.6,60.4z"/>
	<polygon points="161.1,264.2 161.1,264.2 161.1,264.2 	"/>
</g>
</svg>
