<?xml version="1.0" encoding="utf-8"?>
<!-- Generator: Adobe Illustrator 18.1.1, SVG Export Plug-In . SVG Version: 6.00 Build 0)  -->
<svg version="1.1" id="Layer_1" xmlns="http://www.w3.org/2000/svg" xmlns:xlink="http://www.w3.org/1999/xlink" x="0px" y="0px"
	 viewBox="0 0 512 512" enable-background="new 0 0 512 512" xml:space="preserve">
<g>
	<path d="M149.5,283.3c-51.9,0-83.9,45.7-83.9,95.1c0,22.7-10.1,39.2-33.6,48.1c14.3,27.8,62,37.5,95.7,37.5
		c8.4,0,15.9-0.6,21.8-1.7c35.6-6.4,80.1-24.9,90.7-77C252.5,324.7,201.4,283.3,149.5,283.3z M224.5,382.2
		c-4,19.6-13.6,34.5-29.5,45.7c-12.6,8.9-28.8,15.2-48.3,18.7c-3.6,0.6-9.8,1.4-19,1.4c-25.4,0-54.1-5.8-70.5-17.1
		c16-12.2,24.4-30,24.4-52.4c0-21,6.9-41.4,18.8-55.9c8.7-10.6,24.3-23.2,49.1-23.2c24.2,0,48.1,10.9,62.4,28.3
		C220.5,338.3,229.7,356.3,224.5,382.2z"/>
	<path d="M467.6,60.4c-7.7-7.7-16.8-12.4-26.1-12.4c-6.3,0-12.7,2.2-18.8,7L247.6,209.1c-3.4-0.9-6.6-1.4-9.7-1.4
		c-4.8,0-9.3,1.2-13.2,3.8l-63.6,52.8c-1.6,1.6-1.5,4.3,0.1,5.9c0.5,0.5,1.1,0.8,1.7,1c0.6,0,1.3,0.1,1.9,0.1c0,0,0,0,0.1,0
		c47.9,3.4,92,37.8,90.3,90.5c0,0.5,0,1-0.1,1.5c0.1,0.8,0.5,1.7,1.1,2.3c0.8,0.8,1.9,1.2,2.9,1.2c1,0,2.1-0.4,2.9-1.2
		c0,0,0,0,0.1,0c0.1-0.1,0.1-0.1,0.2-0.2l54.3-62.2c4.2-6.4,4.7-14.2,2.4-22.9l154.2-175C484.9,90.3,480.6,73.3,467.6,60.4z
		 M460.7,95L301.1,276.2l2.3,8.3c1.1,4,1.1,7.1,0.1,9.2l-35.4,40.5c-4.6-18.2-14.4-34.7-28.7-48c-13.3-12.3-29.8-21.4-47.9-26.5
		l42.5-35.2c0.8-0.4,1.9-0.8,3.8-0.8c1.6,0,3.5,0.3,5.5,0.8l8.3,2.3L433,67.3c2.9-2.2,5.7-3.3,8.5-3.3c4.6,0,9.9,2.7,14.8,7.7
		c4.2,4.2,6.9,8.8,7.5,12.9C464.2,86.8,464.3,90.4,460.7,95z"/>
	<polygon points="161.1,264.2 161.1,264.2 161.1,264.2 	"/>
</g>
</svg>
