<?xml version="1.0" encoding="utf-8"?>
<!-- Generator: Adobe Illustrator 18.1.1, SVG Export Plug-In . SVG Version: 6.00 Build 0)  -->
<svg version="1.1" id="Layer_1" xmlns="http://www.w3.org/2000/svg" xmlns:xlink="http://www.w3.org/1999/xlink" x="0px" y="0px"
	 viewBox="0 0 512 512" enable-background="new 0 0 512 512" xml:space="preserve">
<g>
	<path d="M390.7,97.9c-3.4-2.9-8.4-2.5-11.3,0.9c-2.9,3.4-2.5,8.4,0.9,11.3c43,36.6,67.6,89.7,67.6,145.8
		C448,361.8,361.9,448,256,448S64,361.8,64,255.9c0-56.1,24.6-109.2,67.6-145.8c3.4-2.9,3.8-7.9,0.9-11.3c-2.9-3.4-7.9-3.8-11.3-0.9
		C74.7,137.5,48,195.1,48,255.9C48,370.6,141.3,464,256,464s208-93.4,208-208.1C464,195.1,437.3,137.5,390.7,97.9z"/>
	<path d="M257,272c4.4,0,8-3.6,8-8V56c0-4.4-3.6-8-8-8s-8,3.6-8,8v208C249,268.4,252.6,272,257,272z"/>
</g>
</svg>
