<?xml version="1.0" encoding="utf-8"?>
<!-- Generator: Adobe Illustrator 18.1.1, SVG Export Plug-In . SVG Version: 6.00 Build 0)  -->
<svg version="1.1" id="Layer_1" xmlns="http://www.w3.org/2000/svg" xmlns:xlink="http://www.w3.org/1999/xlink" x="0px" y="0px"
	 viewBox="0 0 512 512" enable-background="new 0 0 512 512" xml:space="preserve">
<path d="M264,325c0-22,20.5-38.7,40.2-54.8c7.9-6.5,15.4-12.5,21.5-19c26.5-27.7,26.2-51.7,26.2-71.1V176c0-44.2-30.8-124.6-32-128
	h-64h-64c-1.2,3.4-32,83.5-32,128v4.1c0,19.3-0.3,43.4,26.2,71.1c6.1,6.4,13.6,12.5,21.5,19C227.5,286.3,248,303,248,325v123h-72v16
	h80h80v-16h-72V325z M202.7,64H256h53.3c5.4,16,19.5,62.7,24.8,96H177.9C183.2,126.7,197.4,80,202.7,64z"/>
</svg>
