<?xml version="1.0" encoding="utf-8"?>
<!-- Generator: Adobe Illustrator 18.1.1, SVG Export Plug-In . SVG Version: 6.00 Build 0)  -->
<svg version="1.1" id="Layer_1" xmlns="http://www.w3.org/2000/svg" xmlns:xlink="http://www.w3.org/1999/xlink" x="0px" y="0px"
	 viewBox="0 0 512 512" enable-background="new 0 0 512 512" xml:space="preserve">
<path d="M384,224c-32.7,0-59.7,24.6-63.5,56.2c-9.1,0-29.6-1.3-55.5-11.3c-32.6-12.7-79.9-42.2-121.5-110.8
	C171.3,151.2,192,126,192,96c0-35.3-28.7-64-64-64S64,60.7,64,96c0,32.3,23.9,59,55,63.4v193.3C87.9,357,64,383.7,64,416
	c0,35.3,28.7,64,64,64s64-28.7,64-64c0-33-24.9-60.1-57-63.6V174.8c42.7,66.5,90.6,95.9,124.2,109c27.8,10.8,50.1,12.4,61,12.4
	c0.1,0,0.2,0,0.4,0c4,31.4,30.9,55.8,63.5,55.8c35.3,0,64-28.7,64-64S419.3,224,384,224z M80,96c0-26.5,21.5-48,48-48s48,21.5,48,48
	s-21.5,48-48,48S80,122.5,80,96z M176,416c0,26.5-21.5,48-48,48s-48-21.5-48-48s21.5-48,48-48S176,389.5,176,416z M384,336
	c-26.5,0-48-21.5-48-48s21.5-48,48-48s48,21.5,48,48S410.5,336,384,336z"/>
</svg>
