<?xml version="1.0" encoding="utf-8"?>
<!-- Generator: Adobe Illustrator 18.1.1, SVG Export Plug-In . SVG Version: 6.00 Build 0)  -->
<svg version="1.1" id="Layer_1" xmlns="http://www.w3.org/2000/svg" xmlns:xlink="http://www.w3.org/1999/xlink" x="0px" y="0px"
	 viewBox="0 0 512 512" enable-background="new 0 0 512 512" xml:space="preserve">
<g>
	<path d="M411.1,256c0-23.9,14.8-42.8,36.9-55.8c-4-13.3-9.3-26.2-15.8-38.2c-24.9,6.5-45-3.2-62-20.2c-16.9-16.9-22.1-37.1-15.6-62
		c-12-6.5-24.8-11.8-38.2-15.8c-13,22.2-36.4,36.9-60.4,36.9c-23.9,0-47.4-14.7-60.4-36.9c-13.4,4-26.2,9.3-38.2,15.8
		c6.5,24.9,1.3,45-15.6,62c-16.9,16.9-37.1,26.7-61.9,20.2C73.3,174,68,186.8,64,200.2c22.2,13,37,31.9,37,55.8s-14.8,47.4-37,60.4
		c4,13.4,9.3,26.2,15.8,38.2c24.9-6.5,45-1.3,61.9,15.6c17,16.9,22.1,37.1,15.6,62c12.1,6.5,24.8,11.8,38.2,15.8
		c13-22.2,36.5-36.9,60.4-36.9s47.4,14.7,60.4,36.9c13.4-4,26.2-9.3,38.2-15.8c-6.5-24.9-1.3-45,15.6-62
		c16.9-16.9,37.1-26.7,62-20.2c6.5-12.1,11.8-24.9,15.8-38.2C425.8,298.8,411.1,279.9,411.1,256z M256,352c-52.9,0-96-43-96-96
		s43-96,96-96s96,43,96,96S309,352,256,352z"/>
</g>
</svg>
