<?xml version="1.0" encoding="utf-8"?>
<!-- Generator: Adobe Illustrator 18.1.1, SVG Export Plug-In . SVG Version: 6.00 Build 0)  -->
<svg version="1.1" id="Layer_1" xmlns="http://www.w3.org/2000/svg" xmlns:xlink="http://www.w3.org/1999/xlink" x="0px" y="0px"
	 viewBox="0 0 512 512" enable-background="new 0 0 512 512" xml:space="preserve">
<path d="M403.1,108.9c-81.2-81.2-212.9-81.2-294.2,0s-81.2,212.9,0,294.2c81.2,81.2,212.9,81.2,294.2,0
	C484.3,321.9,484.3,190.1,403.1,108.9z M121.2,121.2c74.3-74.3,195.3-74.3,269.6,0c38,38,56.5,88.1,55.7,138
	c-2.9-4.7-23.1-35.2-52.5-35.2c-27.9,0-42.3,26.1-51.8,43.3c-1.4,2.6-2.8,5-4,7.1c-11.6,19.5-27.7,30.4-43.1,29.3
	c-13.6-1-25.2-11.3-32.6-29.2c-9.3-22.4-29.6-46.5-53.7-49.9c-11.4-1.6-28.6,0.9-45.3,21.7c-3.3,4.1-7,9.5-11.2,15.9
	c-10.6,15.7-26.5,39.4-38.7,41.4c-21,3.4-36.6-12.2-39.3-14.6c-2-1.7-4.4-4.3-7.2-7.5C59.5,224.5,77.5,164.8,121.2,121.2z"/>
</svg>
