<?xml version="1.0" encoding="utf-8"?>
<!-- Generator: Adobe Illustrator 18.1.1, SVG Export Plug-In . SVG Version: 6.00 Build 0)  -->
<svg version="1.1" id="Layer_1" xmlns="http://www.w3.org/2000/svg" xmlns:xlink="http://www.w3.org/1999/xlink" x="0px" y="0px"
	 viewBox="0 0 512 512" enable-background="new 0 0 512 512" xml:space="preserve">
<path d="M64,154.6c0,14.9,7.9,24.3,13.1,30.6c1.4,1.6,3.2,3.8,3.8,5c-0.3,0.6-1.2,1.9-1.9,2.8c-4,5.2-10,13.2-10,31.1
	c0,16.4,9.7,24.4,15.4,29.1c0.9,0.8,2.1,1.7,2.9,2.5c-11.1,16.1-6.5,36.2,3.7,47.7c10.5,11.8,20.3,13.2,46.4,11.7
	c18-1.1,55.5-6.9,80.2-10.8c10.1-1.6,18.9-3,21.6-3.2c12.7-1.3,15.2,0,16.4,4.9c0.5,2.1-1.9,6.9-4.9,13c-4,8.1-9.5,19.2-14.5,35.8
	c-10.1,33.2-9,71.2,2.7,92.2c5.5,9.9,14.8,17.1,26.3,17.1s20.3-2.4,24.9-7.9c3.4-4,5.3-11.6,9.2-26.8c3.1-12.4,7-30.9,12-42
	c7.5-16.6,39.7-45.1,57-60.4c4.1-3.6,7.6-6.7,10.1-9.1c8.7-8.1,17.6-21.1,25.5-32.7c5.4-7.8,10.4-15.2,13.7-18.5
	c7.1-7.1,16.6-10.9,22.3-10.9c4.4,0,8-3.6,8-8V88c0-4.4-3.6-8-8-8c-35.7,0-50.7-5.7-66.7-11.8c-12.2-4.7-24.9-9.5-46.4-12.1
	c-32.4-4-74.2-8.1-112.6-8.1c-20.4,0-39.9,2-56.6,3.9c-31,3.6-64.2,10.8-75.2,37c-4.7,11.4,0,22.2,2.8,28.7c0.3,0.6,0.5,1.2,0.8,1.9
	c-0.8,0.6-1.6,1.4-2.4,2C76.5,127.6,64,137.8,64,154.6z"/>
</svg>
