<?xml version="1.0" encoding="utf-8"?>
<!-- Generator: Adobe Illustrator 18.1.1, SVG Export Plug-In . SVG Version: 6.00 Build 0)  -->
<svg version="1.1" id="Layer_1" xmlns="http://www.w3.org/2000/svg" xmlns:xlink="http://www.w3.org/1999/xlink" x="0px" y="0px"
	 viewBox="0 0 512 512" enable-background="new 0 0 512 512" xml:space="preserve">
<path d="M236,96c-70,0-127.8,59.7-127.8,130.8c0,4.3,0.3,8.6,0.8,12.8C65.8,243.5,32,283.6,32,328c0,47,37.9,88,84.6,88h257.8
	c58.3,0,105.6-49.4,105.6-108c0-58.6-47.3-108.8-105.6-108.8c-2.3,0-4.8-0.2-7.2-0.2c-2.1,0-4.2,0-6.1,0.1
	C349.3,145.6,306,96,236,96L236,96z"/>
</svg>
