<?xml version="1.0" encoding="utf-8"?>
<!-- Generator: Adobe Illustrator 18.1.1, SVG Export Plug-In . SVG Version: 6.00 Build 0)  -->
<svg version="1.1" id="Layer_1" xmlns="http://www.w3.org/2000/svg" xmlns:xlink="http://www.w3.org/1999/xlink" x="0px" y="0px"
	 viewBox="0 0 512 512" enable-background="new 0 0 512 512" xml:space="preserve">
<g>
	<g>
		<path d="M177,268.4c0,46.1,35.3,83.6,79,83.6c9.1,0,17.8-1.6,25.9-4.6L177,168V268.4z"/>
		<path d="M335,268.4V131.5c0-46.1-35.3-83.6-79-83.6c-29.5,0-55.2,17.1-68.8,42.4l132.7,227C329.4,303.6,335,286.7,335,268.4z"/>
		<path d="M264.2,383.3l-8.2,0.6l-8.4-0.6c-28.5-2.1-53.2-14.6-72.9-35.4c-19.7-20.8-30.7-47.8-30.7-76.1V208h-16v63.8
			c0,67.2,54,122.6,121,127.5V448h-74v16h161v-16h-72v-48.7c14.8-1.1,29-4.7,42.1-10.5l-7.8-13.3
			C287.4,379.8,275.8,382.5,264.2,383.3z"/>
		<path d="M384,271.8V208h-16v63.8c0,28.4-10.2,55.5-29.3,76.3c-0.2,0.2-0.3,0.3-0.5,0.5l7.7,13.2C369.3,338.6,384,306.8,384,271.8z
			"/>
	</g>
	<g>
		<polygon points="134.2,32 120.4,40 377.8,480 391.6,472 		"/>
	</g>
</g>
</svg>
