<?xml version="1.0" encoding="utf-8"?>
<!-- Generator: Adobe Illustrator 18.1.1, SVG Export Plug-In . SVG Version: 6.00 Build 0)  -->
<svg version="1.1" id="Layer_1" xmlns="http://www.w3.org/2000/svg" xmlns:xlink="http://www.w3.org/1999/xlink" x="0px" y="0px"
	 viewBox="0 0 512 512" enable-background="new 0 0 512 512" xml:space="preserve">
<path d="M372.5,92.7C352,78,332,64,310,64s-22,8-54,8s-32-8-54-8s-42,14-62.5,28.7C107.9,115.4,48,179,48,179s35.3,43,48,57
	c12.8,14.2,14.6,14,16,0s3.6-44,8-44s8,3.6,8,8v248h256V200c0-4.4,3.5-8,8-8s6.5,29.5,8,44s3,14.4,16,0s48-57,48-57
	S404.1,115.4,372.5,92.7z M256,141c-29.8,0-54-21.3-54-44c0-30,24.2-8.7,54-8.7S310,67,310,97C310,120.3,285.8,141,256,141z"/>
</svg>
