<?xml version="1.0" encoding="utf-8"?>
<!-- Generator: Adobe Illustrator 18.1.1, SVG Export Plug-In . SVG Version: 6.00 Build 0)  -->
<svg version="1.1" id="Layer_1" xmlns="http://www.w3.org/2000/svg" xmlns:xlink="http://www.w3.org/1999/xlink" x="0px" y="0px"
	 viewBox="0 0 512 512" enable-background="new 0 0 512 512" xml:space="preserve">
<path d="M372.5,92.6C352,78,332,64,310,64c-22,0-22,8-54,8s-32-8-54-8S160,78,139.5,92.6c-31.6,22.6-91.5,86-91.5,86
	s35.3,42.8,48,56.8c4.3,4.7,7.5,6.3,9.8,6.3c4.7,0,5.9-6.3,5.9-6.3l15.2-35.9V448h256V199.5c5,0,16.7,35.9,16.7,35.9
	s1.5,6.4,6.2,6.4c2.4,0,5.7-1.6,10-6.4c13-14.3,48.1-56.8,48.1-56.8S404.2,115.2,372.5,92.6z M213.1,80.9c9.9,0,25.4,7.3,42.9,7.3
	c17.5,0,33.1-7.3,42.9-7.3c6.9,0,11.1,3.6,11.1,16c0,23.2-24.2,43.8-54,43.8c-29.8,0-54-21.2-54-43.8
	C202,84.5,206.1,80.9,213.1,80.9z M410.5,217.4c-0.7-1.9-1.4-3.8-2.2-5.8c-2.3-5.8-4.3-10.3-6.1-13.8c-2-3.9-7.7-14.2-18.9-14.2
	c-8.8,0-16.3,7.1-16.3,15.9V432H143V199.5c0-7.6-5.1-14.1-12.5-15.6c-1.1-0.2-2-0.3-3.1-0.3c-6.3,0-12.1,3.7-14.6,9.6L102,218
	c-9.5-10.9-23.5-27.7-32.6-38.7c18.1-18.6,56.9-57.6,79.5-73.8c12.9-9.3,26.2-18.7,39.2-23.1c-1.4,4.1-2.1,8.9-2.1,14.5
	c0,15.7,7.9,31.2,21.6,42.6c13.3,11.1,30.5,17.2,48.5,17.2c18,0,35.2-6,48.4-16.9c13.7-11.3,21.6-27,21.6-42.9
	c0-5.6-0.7-10.3-2.1-14.4c13,4.4,26.3,13.9,39.2,23.1c22.6,16.2,61.4,55.2,79.4,73.8C433.7,190.1,420.1,206.4,410.5,217.4z"/>
</svg>
