<?xml version="1.0" encoding="utf-8"?>
<!-- Generator: Adobe Illustrator 18.1.1, SVG Export Plug-In . SVG Version: 6.00 Build 0)  -->
<svg version="1.1" id="Layer_1" xmlns="http://www.w3.org/2000/svg" xmlns:xlink="http://www.w3.org/1999/xlink" x="0px" y="0px"
	 viewBox="0 0 512 512" enable-background="new 0 0 512 512" xml:space="preserve">
<g>
	<path d="M413,226.1C406.1,161.9,354,112,288,112c-44.8,0-86.5,22.8-109.4,57.7c-7.9-3.7-16.8-5.7-26.1-5.7
		c-34.2,0-62,27.5-62.5,61.6c-34.9,11-58,42.6-58,78.4c0,43.9,35.6,80,79.5,80h289c43.9,0,79.5-36.1,79.5-80
		C480,264.4,451,232.1,413,226.1z M237.5,309.3c-1.5,1.5-3.6,2.7-5.4,2.7s-4-1.3-5.5-2.8L192,275l11-10.9l29.2,28.9l77-76.9
		l10.8,11.1L237.5,309.3z"/>
</g>
</svg>
