<?xml version="1.0" encoding="utf-8"?>
<!-- Generator: Adobe Illustrator 18.1.1, SVG Export Plug-In . SVG Version: 6.00 Build 0)  -->
<svg version="1.1" id="Layer_1" xmlns="http://www.w3.org/2000/svg" xmlns:xlink="http://www.w3.org/1999/xlink" x="0px" y="0px"
	 viewBox="0 0 512 512" enable-background="new 0 0 512 512" xml:space="preserve">
<path d="M448,96c0-35.3-28.7-64-64-64s-64,28.7-64,64c0,32.3,23.9,59,55,63.4l1,0V219l-120,59.1L136,219v-59.5
	c31.6-3.9,56-30.8,56-63.5c0-35.3-28.7-64-64-64S64,60.7,64,96c0,32.3,23.9,59,55,63.4l1,0V229l128,63v60.3
	c-31.6,3.9-56,30.8-56,63.5c0,35.3,28.7,64,64,64s64-28.7,64-64c0-32.3-23.9-59-55-63.4l-1,0V292l128-63v-69.5
	C423.6,155.5,448,128.6,448,96z M80,96c0-26.5,21.5-48,48-48s48,21.5,48,48s-21.5,48-48,48S80,122.5,80,96z M304,415.8
	c0,26.5-21.5,48-48,48s-48-21.5-48-48s21.5-48,48-48S304,389.3,304,415.8z M384,144c-26.5,0-48-21.5-48-48s21.5-48,48-48
	s48,21.5,48,48S410.5,144,384,144z"/>
</svg>
