<?xml version="1.0" encoding="utf-8"?>
<!-- Generator: Adobe Illustrator 18.1.1, SVG Export Plug-In . SVG Version: 6.00 Build 0)  -->
<svg version="1.1" id="Layer_1" xmlns="http://www.w3.org/2000/svg" xmlns:xlink="http://www.w3.org/1999/xlink" x="0px" y="0px"
	 viewBox="0 0 512 512" enable-background="new 0 0 512 512" xml:space="preserve">
<path d="M236,112c28.5,0,54,9.4,73.6,27.1c17.7,15.9,30.4,38.3,35.8,63l2.9,13.3l13.7-0.9c1.6-0.1,3.7-0.1,5.1-0.1
	c1.2,0,2.4,0,3.5,0c1.2,0,2.5,0,3.7,0c23.6,0,46,9.8,63.1,27.5c17.1,17.8,26.5,41,26.5,65.4c0,24.3-9.4,47.7-26.4,65.1
	c-17,17.3-39.8,27.4-63.6,27.4H116c-18.1,0-34.6-7.9-47.7-21.4C55.2,365.1,48,347.1,48,328.4c0-17.9,6.6-35.5,18.5-49.4
	c11.8-13.8,27.4-22.3,43.9-23.7l16.1-1.5l-1.6-16c-0.3-3.4-0.7-7.3-0.7-11.3c0-30.3,11.8-59,33.1-80.8C178.6,124,206.6,112,236,112
	 M236,96c-70,0-127.8,59.7-127.8,130.8c0,4.3,0.3,8.6,0.8,12.8C65.8,243.5,32,283.6,32,328c0,47,37.9,88,84.6,88h257.8
	c58.3,0,105.6-49.4,105.6-108c0-58.6-47.3-108.8-105.6-108.8c-2.3,0-4.8-0.2-7.2-0.2c-2.1,0-4.2,0-6.1,0.1
	C349.3,145.6,306,96,236,96L236,96z"/>
</svg>
