<?xml version="1.0" encoding="utf-8"?>
<!-- Generator: Adobe Illustrator 18.1.1, SVG Export Plug-In . SVG Version: 6.00 Build 0)  -->
<svg version="1.1" id="Layer_1" xmlns="http://www.w3.org/2000/svg" xmlns:xlink="http://www.w3.org/1999/xlink" x="0px" y="0px"
	 viewBox="0 0 512 512" enable-background="new 0 0 512 512" xml:space="preserve">
<path d="M453.9,382.7c-51.8-8-54.9-12.7-54.9-12.7c15.6-74-23.2-154.1-77.1-198.6C250.1,112.2,141,155.2,56,65.2
	c-0.8-0.8-1.5-1.2-2.2-1.2c-16.6,0-2,240.5,100.3,333.9C196.9,437.1,244,448,281.8,448c30.8,0,55.5-7.3,66.8-12.5
	c22.8-10.6,38.7-33.9,38.7-33.9c37,11.6,57.3,12.2,61.3,12.2c0.5,0,0.7,0,0.7,0c0.4,0.1,0.8,0.1,1.2,0.1
	C464.3,413.9,470.8,385.3,453.9,382.7z M341.9,421c-8.9,4.1-31.5,11-60,11c-19.6,0-38.7-3.2-56.7-9.5c-21.9-7.6-42.1-19.9-60.2-36.4
	c-20.4-18.6-38.6-45.2-54-79c-13.3-29-24.3-62.5-32.6-99.5c-6.8-30-11.5-61.8-13.4-89.4c-0.6-9.5-0.9-17.3-0.9-23.6
	c46.4,38.2,97.8,46.4,143.8,53.8c38.9,6.2,75.6,12.1,103.9,35.4c25.5,21.1,46.7,49.7,59.6,80.6c14,33.4,15.9,66.9,12.7,100.7
	c-180-63-264.5-170.5-264.5-170.5s72.5,125.2,252.3,200.8C366.8,401.9,358.6,413.2,341.9,421z"/>
</svg>
