<?xml version="1.0" encoding="utf-8"?>
<!-- Generator: Adobe Illustrator 18.1.1, SVG Export Plug-In . SVG Version: 6.00 Build 0)  -->
<svg version="1.1" id="Layer_1" xmlns="http://www.w3.org/2000/svg" xmlns:xlink="http://www.w3.org/1999/xlink" x="0px" y="0px"
	 viewBox="0 0 512 512" enable-background="new 0 0 512 512" xml:space="preserve">
<g>
	<g>
		<polygon points="347.2,464 370,464 315.5,410.8 297.9,416 314,432 198,432 214.1,416 196.7,410.8 142,464 164.8,464 181.9,448 
			330.1,448 		"/>
		<path d="M256,368c-26.5,0-48-21.5-48-48s21.5-48,48-48s48,21.5,48,48S282.5,368,256,368z M256,289.5c-16.8,0-30.5,13.7-30.5,30.5
			s13.7,30.5,30.5,30.5s30.5-13.7,30.5-30.5S272.8,289.5,256,289.5z"/>
		<path d="M337,64h-17c0-8.8-7.2-16-16-16h-96c-8.8,0-16,7.2-16,16h-15c-35.3,0-65,27.7-65,63v224c0,35.3,144,65,144,65
			s144-29.7,144-65V127C400,91.7,372.3,64,337,64z M209,64h94v16h-94V64z M384,350.5c0,1.6-8.7,14.3-65,31.9
			c-27.2,8.5-53.7,15.4-62.6,17.3c-8.9-1.9-35.5-8.7-62.7-17.2c-56.5-17.6-64.7-30.3-65.7-31.9V127c0-26.2,22.3-47,49-47h15
			c0,8.8,7.2,16,16,16h96c8.8,0,16-7.2,16-16h17c12.8,0,24.5,4.7,33.4,13.6c8.9,8.9,13.6,20.6,13.6,33.4V350.5z"/>
	</g>
	<path d="M336,144C336,144,336,144,336,144l0,64c0,0,0,0,0,0l-160,0c0,0,0,0,0,0l0-63.9c0,0,0-0.1,0-0.1H336 M336,128H176
		c-8.8,0-16,7.2-16,16v64c0,8.8,7.2,16,16,16h160c8.8,0,16-7.2,16-16v-64C352,135.2,344.8,128,336,128L336,128z"/>
</g>
</svg>
