<?xml version="1.0" encoding="utf-8"?>
<!-- Generator: Adobe Illustrator 18.1.1, SVG Export Plug-In . SVG Version: 6.00 Build 0)  -->
<svg version="1.1" id="Layer_1" xmlns="http://www.w3.org/2000/svg" xmlns:xlink="http://www.w3.org/1999/xlink" x="0px" y="0px"
	 viewBox="0 0 512 512" enable-background="new 0 0 512 512" xml:space="preserve">
<g>
	<path d="M453.9,382.7c-51.8-8-55.7-15.7-55.7-15.7c15.6-74-22.4-151.1-76.3-195.6C250.1,112.2,141,155.2,56,65.2
		c-19.8-21-8.3,235.5,98.1,332.7c77.8,71,169.4,49.2,194.5,37.6c22.8-10.6,38.7-33.9,38.7-33.9c41.5,13,62,12.2,62,12.2
		C463.9,415.6,471.3,385.4,453.9,382.7z M362.1,386.1c-136.2-40.9-241.6-187.5-241.6-187.5s92.9,110.7,251.4,163.2
		C372,369.9,367.3,381.5,362.1,386.1z"/>
</g>
</svg>
