<?xml version="1.0" encoding="utf-8"?>
<!-- Generator: Adobe Illustrator 18.1.1, SVG Export Plug-In . SVG Version: 6.00 Build 0)  -->
<svg version="1.1" id="Layer_1" xmlns="http://www.w3.org/2000/svg" xmlns:xlink="http://www.w3.org/1999/xlink" x="0px" y="0px"
	 viewBox="0 0 512 512" enable-background="new 0 0 512 512" xml:space="preserve">
<g>
	<path d="M274,255.8c0,9.9-8.1,18-18,18c-9.9,0-18-8.1-18-18c0-9.9,8.1-18,18-18S274,245.9,274,255.8 M288,255.8
		c0-17.7-14.3-32-32-32c-17.7,0-32,14.3-32,32c0,17.7,14.3,32,32,32C273.7,287.8,288,273.5,288,255.8L288,255.8z"/>
	<path d="M274,128c0,9.9-8.1,18-18,18s-18-8.1-18-18s8.1-18,18-18S274,118.1,274,128 M288,128c0-17.7-14.3-32-32-32
		c-17.7,0-32,14.3-32,32s14.3,32,32,32S288,145.6,288,128L288,128z"/>
	<path d="M274,384c0,9.9-8.1,18-18,18s-18-8.1-18-18s8.1-18,18-18S274,374.1,274,384 M288,384c0-17.7-14.3-32-32-32s-32,14.3-32,32
		s14.3,32,32,32S288,401.7,288,384L288,384z"/>
</g>
</svg>
