<?xml version="1.0" encoding="utf-8"?>
<!-- Generator: Adobe Illustrator 16.2.1, SVG Export Plug-In . SVG Version: 6.00 Build 0)  -->
<!DOCTYPE svg PUBLIC "-//W3C//DTD SVG 1.1//EN" "http://www.w3.org/Graphics/SVG/1.1/DTD/svg11.dtd">
<svg version="1.1" id="Layer_1" xmlns="http://www.w3.org/2000/svg" xmlns:xlink="http://www.w3.org/1999/xlink" x="0px" y="0px"
	 width="512px" height="512px" viewBox="0 0 512 512" enable-background="new 0 0 512 512" xml:space="preserve">
<g>
	<g>
		<path d="M256,304c-4.632,0-9.106-0.672-13.347-1.902c-7.212,28.24-14.655,64.372-14.655,93.208
			c0,55.929,11.62,84.694,28.002,84.694s28.002-28.766,28.002-84.694c0-28.836-7.443-64.968-14.655-93.208
			C265.106,303.328,260.632,304,256,304z"/>
		<path d="M256,208c4.674,0,9.189,0.684,13.465,1.936c7.175-28.171,14.537-64.064,14.537-92.742C284.002,61.266,272.382,32,256,32
			s-28.002,29.266-28.002,85.194c0,28.678,7.362,64.571,14.537,92.742C246.811,208.684,251.326,208,256,208z"/>
		<path d="M209.985,269.639c-1.284-4.326-1.985-8.9-1.985-13.639c0-4.568,0.655-8.984,1.853-13.173
			c-28.195-7.188-64.174-14.58-92.908-14.58C61.016,228.247,32,239.618,32,256s29.016,28.252,84.944,28.252
			C145.724,284.252,181.77,276.838,209.985,269.639z"/>
		<path d="M395.057,228.247c-28.735,0-64.714,7.392-92.909,14.58C303.345,247.016,304,251.432,304,256
			c0,4.737-0.701,9.312-1.985,13.639c28.216,7.199,64.262,14.613,93.042,14.613c55.928,0,84.943-11.62,84.943-28.002
			S450.984,228.247,395.057,228.247z"/>
		<path d="M233.009,298.123c-7.957-4.36-14.545-10.912-18.961-18.835c-25.051,14.864-55.812,35.124-76.176,55.488
			c-39.547,39.547-52.023,68.458-40.44,80.042c11.584,11.584,40.495-0.894,80.042-40.441
			C197.859,353.992,218.141,323.188,233.009,298.123z"/>
		<path d="M279.213,214.005c7.982,4.43,14.579,11.062,18.953,19.079c25.012-14.853,55.655-35.055,75.963-55.361
			c39.547-39.547,52.023-68.458,40.44-80.042c-11.584-11.583-40.495,0.893-80.042,40.44
			C314.241,158.407,294.061,189.007,279.213,214.005z"/>
		<path d="M213.834,233.084c4.374-8.017,10.971-14.649,18.953-19.079c-14.848-24.998-35.028-55.598-55.313-75.883
			c-39.548-39.547-68.458-52.024-80.042-40.44c-11.584,11.583,0.894,40.494,40.44,80.041
			C158.179,198.029,188.822,218.231,213.834,233.084z"/>
		<path d="M297.952,279.288c-4.415,7.923-11.004,14.475-18.961,18.835c14.868,25.064,35.149,55.869,55.536,76.255
			c39.547,39.547,68.457,52.024,80.041,40.44s-0.893-40.495-40.439-80.042C353.764,314.412,323.003,294.152,297.952,279.288z"/>
		<path d="M323.213,385.691c-9.137-9.137-18.184-20.137-26.746-31.746c2.154,14.264,3.535,28.438,3.535,41.36
			c0,12.649-0.562,24.196-1.682,34.587c15.504,27.422,30.402,38.836,41.685,34.277c11.874-4.797,14.35-25.089,4.855-58.491
			C337.95,399.869,330.734,393.213,323.213,385.691z"/>
		<path d="M189.031,126.927c9.049,9.048,17.996,19.917,26.467,31.393c-2.135-14.184-3.5-28.275-3.5-41.126
			c0-12.649,0.562-24.196,1.682-34.586c-15.504-27.423-30.401-38.838-41.686-34.279c-11.868,4.795-14.348,25.068-4.869,58.441
			C174.122,112.613,181.43,119.325,189.031,126.927z"/>
		<path d="M126.559,323.463c9.137-9.138,20.137-18.185,31.747-26.746c-14.264,2.154-28.439,3.535-41.361,3.535
			c-12.649,0-24.196-0.562-34.588-1.683c-27.422,15.504-38.836,30.401-34.277,41.686c4.799,11.877,25.099,14.351,58.515,4.848
			C112.412,338.173,119.068,330.953,126.559,323.463z"/>
		<path d="M385.442,189.051c-9.13,9.13-20.12,18.17-31.719,26.728c14.254-2.152,28.419-3.531,41.333-3.531
			c12.648,0,24.194,0.563,34.585,1.682c27.423-15.504,38.838-30.402,34.279-41.685c-4.798-11.875-25.092-14.35-58.498-4.854
			C399.601,174.327,392.939,181.554,385.442,189.051z"/>
		<path d="M188.787,385.691c-8.986,8.986-17.541,16.747-25.652,23.289c-8.42,30.34-5.955,48.938,5.244,53.691
			c11.791,5.006,27.894-7.6,44.803-37.947c-0.785-9.015-1.184-18.826-1.184-29.419c0-12.922,1.381-27.097,3.535-41.36
			C206.971,365.555,197.924,376.554,188.787,385.691z"/>
		<path d="M323.213,127.038c8.951-8.951,17.473-16.667,25.557-23.168c8.538-30.55,6.095-49.271-5.148-54.044
			c-11.791-5.004-27.894,7.6-44.803,37.947c0.785,9.016,1.184,18.828,1.184,29.421c0,13.004-1.398,27.277-3.576,41.632
			C305,147.205,314.061,136.19,323.213,127.038z"/>
		<path d="M87.524,213.432c9.015-0.786,18.827-1.185,29.42-1.185c12.894,0,27.036,1.375,41.269,3.521
			c-11.576-8.54-22.541-17.562-31.654-26.675c-8.982-8.982-16.775-17.568-23.349-25.726c-30.306-8.4-48.882-5.932-53.633,5.26
			C44.572,180.419,57.177,196.522,87.524,213.432z"/>
		<path d="M424.477,299.067c-9.016,0.786-18.827,1.185-29.42,1.185c-12.923,0-27.098-1.381-41.361-3.535
			c11.609,8.562,22.609,17.608,31.746,26.746c8.945,8.943,16.711,17.507,23.268,25.646c30.354,8.427,48.958,5.964,53.713-5.237
			C467.428,332.08,454.822,315.977,424.477,299.067z"/>
	</g>
	<circle cx="256" cy="256" r="32"/>
</g>
</svg>
