<?xml version="1.0" encoding="utf-8"?>
<!-- Generator: Adobe Illustrator 18.1.1, SVG Export Plug-In . SVG Version: 6.00 Build 0)  -->
<svg version="1.1" id="Layer_1" xmlns="http://www.w3.org/2000/svg" xmlns:xlink="http://www.w3.org/1999/xlink" x="0px" y="0px"
	 viewBox="0 0 512 512" enable-background="new 0 0 512 512" xml:space="preserve">
<g>
	<path d="M396.2,288.9c-1.1,4.5-2.3,9-3.9,13.4c5.8,4.5,11.4,8.9,16.8,13.3c36,29.1,59,57.2,53.2,57.2c-7.9,0.5-27.6-1.1-71.1-17.1
		c-12.2-4.5-25.3-9.7-38.8-15.6c19.7-22.5,31.6-51.9,31.6-84.2c0-70.7-57.3-128-128-128c-57,0-105.2,37.2-121.8,88.7
		c-12-8.6-23.2-17.1-33.3-25.3c-36-29.1-47.6-45.2-51.2-52.2c-4.3-7,32.6-0.9,76.1,15.1c6.8,2.5,13.9,5.2,21.1,8
		c2.8-3.3,5.8-6.5,8.9-9.5c-65.9-27.5-114.2-37.7-122.5-22.9c-13.1,23.1,76.1,98.2,199.1,167.9c123,69.6,233.4,107.4,246.4,84.3
		C487.1,367.3,453.6,331.3,396.2,288.9z"/>
	<path d="M128.1,252.3c0,1.2-0.1,2.4-0.1,3.7c0,70.7,57.3,128,128,128c25.8,0,49.8-7.6,69.9-20.7c-32.5-14.4-66.4-29.5-103.5-50.5
		C188.6,293.6,155.3,271.1,128.1,252.3z"/>
</g>
</svg>
