<?xml version="1.0" encoding="utf-8"?>
<!-- Generator: Adobe Illustrator 18.1.1, SVG Export Plug-In . SVG Version: 6.00 Build 0)  -->
<svg version="1.1" id="Layer_1" xmlns="http://www.w3.org/2000/svg" xmlns:xlink="http://www.w3.org/1999/xlink" x="0px" y="0px"
	 viewBox="0 0 512 512" enable-background="new 0 0 512 512" xml:space="preserve">
<g>
	<path d="M285.4,80c45.6,0,87.2,14.6,117.2,41.1c18.9,16.8,29.4,39,29.4,62.6s-10.4,45.8-29.4,62.6l-30.3,26.9
		c-10.4,9.2-16.1,21.2-16.1,33.9c0,12.6,5.7,24.6,16.1,33.9c9.3,8.2,16.4,11.4,30.6,13.8l0.8,0.1c5.9,1,12.6,2.1,15.5,4.7
		c2.9,2.7,4.8,8,4.8,13.1c0,2.7-0.7,7.6-4.5,11c-34.6,30.7-85,48.4-138.2,48.4c-0.5,0-1.1,0-1.6,0c-26.5-0.2-52.2-4.6-76.4-13.1
		c-25.1-8.9-47.3-21.7-66-38.2c-18.7-16.6-33.2-35.9-43-57.4C84.8,302.6,80,280.7,80,258.3c0-22.4,4.8-44.2,14.2-64.9
		c9.8-21.5,24.3-40.8,43-57.4C177.5,100.4,231.5,80,285.4,80 M285.4,64c-55.7,0-113.9,20.3-158.8,60.1
		c-83.5,73.8-83.5,194.7,0,268.5c41.5,36.7,97.5,55,152.9,55.4c0.6,0,1.2,0,1.7,0c55.4,0,110-17.9,148.8-52.4
		c14.3-12.7,11.9-36.6,0-47.8c-6.6-6.1-16.3-7.6-24.6-9c-11.5-1.9-15.9-4-22.6-10c-14.3-12.7-14.3-31.1,0-43.8l30.3-26.9
		c46.4-41,46.4-108.2,0-149.2C379,78.9,333.1,64,285.4,64L285.4,64z"/>
	<path d="M320,144c8.8,0,16,7.2,16,16s-7.2,16-16,16s-16-7.2-16-16S311.2,144,320,144 M320,128c-17.7,0-32,14.3-32,32s14.3,32,32,32
		s32-14.3,32-32S337.7,128,320,128L320,128z"/>
	<path d="M224,133c8.8,0,16,7.2,16,16s-7.2,16-16,16s-16-7.2-16-16S215.2,133,224,133 M224,117c-17.7,0-32,14.3-32,32s14.3,32,32,32
		s32-14.3,32-32S241.7,117,224,117L224,117z"/>
	<path d="M152,200c8.8,0,16,7.2,16,16s-7.2,16-16,16s-16-7.2-16-16S143.2,200,152,200 M152,184c-17.7,0-32,14.3-32,32s14.3,32,32,32
		s32-14.3,32-32S169.7,184,152,184L152,184z"/>
	<path d="M160,294c8.8,0,16,7.2,16,16s-7.2,16-16,16s-16-7.2-16-16S151.2,294,160,294 M160,278c-17.7,0-32,14.3-32,32s14.3,32,32,32
		s32-14.3,32-32S177.7,278,160,278L160,278z"/>
	<path d="M296,400c-26.5,0-48-21.5-48-48s21.5-48,48-48s48,21.5,48,48S322.5,400,296,400z M296,320c-17.6,0-32,14.4-32,32
		s14.4,32,32,32s32-14.4,32-32S313.6,320,296,320z"/>
</g>
</svg>
