<?xml version="1.0" encoding="utf-8"?>
<!-- Generator: Adobe Illustrator 18.1.1, SVG Export Plug-In . SVG Version: 6.00 Build 0)  -->
<svg version="1.1" id="Layer_1" xmlns="http://www.w3.org/2000/svg" xmlns:xlink="http://www.w3.org/1999/xlink" x="0px" y="0px"
	 viewBox="0 0 512 512" enable-background="new 0 0 512 512" xml:space="preserve">
<polygon points="389.6,165.5 378.3,176.8 449.1,248 264,248 264,62.9 335.2,133.8 346.5,122.4 256,31.9 165.5,122.4 176.8,133.7 
	248,62.9 248,248 62.9,248 133.7,176.8 122.4,165.5 32,256 122.5,346.5 133.8,335.2 62.9,264 248,264 248,449 176.8,378.2 
	165.5,389.5 256,480 346.5,389.5 335.2,378.2 264,449 264,264 449.1,264 378.2,335.2 389.5,346.5 480,256 "/>
</svg>
