<?xml version="1.0" encoding="utf-8"?>
<!-- Generator: Adobe Illustrator 18.1.1, SVG Export Plug-In . SVG Version: 6.00 Build 0)  -->
<svg version="1.1" id="Layer_1" xmlns="http://www.w3.org/2000/svg" xmlns:xlink="http://www.w3.org/1999/xlink" x="0px" y="0px"
	 viewBox="0 0 512 512" enable-background="new 0 0 512 512" xml:space="preserve">
<g>
	<g>
		<g>
			<rect x="160" y="64" width="16" height="54"/>
			<rect x="16" y="208" width="55" height="16"/>
			<polygon points="59.5,117.4 70.5,106.3 101.9,137.8 90.9,148.9 			"/>
			<polygon points="239.4,147.9 228.4,136.8 259.7,105.3 270.8,116.4 			"/>
			<polygon points="72.5,320.7 61.5,309.6 92.9,278.1 103.9,289.2 			"/>
		</g>
		<path d="M153.9,267.9c-26.3-5.2-46.2-28.4-46.2-56.2c0-31.6,25.7-57.3,57.3-57.3c18.3,0,34.6,8.6,45.1,22
			c4.7-2.7,9.6-5.1,14.7-7.1c-13.3-18.7-35.1-30.9-59.8-30.9c-40.5,0-73.3,32.8-73.3,73.3c0,36.8,27.1,67.3,62.5,72.5
			c-0.3-3.3-0.5-6.7-0.5-10.1C153.7,272,153.7,270,153.9,267.9z"/>
	</g>
	<path d="M403.3,259.2c-0.8,0-1.6,0-2.4,0c-3.1,0-6.1,0-9,0.4c-11.3-50.3-56.1-88.2-109.7-88.2c-14.6,0-28.6,2.8-41.4,7.9
		c-5.1,2-10,4.4-14.7,7.1c-32,18.5-54.1,52.4-56.2,91.6c-0.1,2.1-0.2,4.1-0.2,6.2c0,3.4,0.2,6.8,0.5,10.1c0,0.4,0.1,0.8,0.1,1.1
		c-37.9,3.4-67.6,37.1-67.6,76c0,41.1,33.3,76.7,74.3,76.7h226.4c51.2,0,92.7-43.4,92.7-94.8C496,301.9,454.5,259.2,403.3,259.2z
		 M457.4,408.7c-14.6,15-33.8,23.3-54.1,23.3H176.9c-31.6,0-58.3-27.9-58.3-60.7c0-14.9,5.5-29.4,15.6-40.7
		c9.9-11.2,23.3-18.1,37.5-19.3l16.1-1.4l-1.5-15.1l-0.1-1c-0.3-3.2-0.5-6.5-0.5-9.7c0-1.8,0.1-3.6,0.1-5.3
		c1.8-33.6,20.8-62.7,48.3-78.6c4.6-2.7,9.5-5,14.5-6.8c10.4-3.9,21.7-6,33.5-6c22.3,0,43.2,7.5,60.6,21.6
		c16.9,13.8,28.7,33,33.5,54.1l3.2,14.2l14.4-1.8c2.1-0.3,4.7-0.3,7.1-0.3l1.2,0l1.3,0c20.4,0,39.6,8.2,54.2,22.9
		c14.6,14.8,22.6,34.4,22.6,55C480,373.9,472,393.7,457.4,408.7z"/>
</g>
</svg>
