<?xml version="1.0" encoding="utf-8"?>
<!-- Generator: Adobe Illustrator 18.1.1, SVG Export Plug-In . SVG Version: 6.00 Build 0)  -->
<svg version="1.1" id="Layer_1" xmlns="http://www.w3.org/2000/svg" xmlns:xlink="http://www.w3.org/1999/xlink" x="0px" y="0px"
	 viewBox="0 0 512 512" enable-background="new 0 0 512 512" xml:space="preserve">
<g>
	<path d="M256,288c70.7,0,128-57.3,128-128S326.7,32,256,32S128,89.3,128,160S185.3,288,256,288z M256,72c48.5,0,88,39.5,88,88
		s-39.5,88-88,88s-88-39.5-88-88S207.5,72,256,72z"/>
	<path d="M256,232c39.7,0,72-32.3,72-72s-32.3-72-72-72s-72,32.3-72,72S216.3,232,256,232z"/>
	<path d="M256,304c-43.5,0-82.5-19.3-108.9-49.8L64,400h96l48,80l48-105.8l33.6-74.2C278.8,302.6,267.6,304,256,304z"/>
	<path d="M364.9,254.2c-15.1,17.4-34.3,31.2-56,39.8l-44.8,98.1L304,480l48-80h96L364.9,254.2z"/>
</g>
</svg>
