<?xml version="1.0" encoding="utf-8"?>
<!-- Generator: Adobe Illustrator 18.1.1, SVG Export Plug-In . SVG Version: 6.00 Build 0)  -->
<svg version="1.1" id="Layer_1" xmlns="http://www.w3.org/2000/svg" xmlns:xlink="http://www.w3.org/1999/xlink" x="0px" y="0px"
	 viewBox="0 0 512 512" enable-background="new 0 0 512 512" xml:space="preserve">
<g>
	<polygon points="349.2,208 362,221.8 256,336 150,221.8 162.8,208 256,308.4 	"/>
	<g>
		<path d="M256,48C141.1,48,48,141.1,48,256c0,114.9,93.1,208,208,208s208-93.1,208-208C464,141.1,370.9,48,256,48z M256,65.3
			c105.1,0,190.7,85.5,190.7,190.7c0,105.1-85.5,190.7-190.7,190.7c-105.1,0-190.7-85.5-190.7-190.7C65.3,150.9,150.9,65.3,256,65.3
			z"/>
	</g>
</g>
</svg>
