<?xml version="1.0" encoding="utf-8"?>
<!-- Generator: Adobe Illustrator 18.1.1, SVG Export Plug-In . SVG Version: 6.00 Build 0)  -->
<svg version="1.1" id="Layer_1" xmlns="http://www.w3.org/2000/svg" xmlns:xlink="http://www.w3.org/1999/xlink" x="0px" y="0px"
	 viewBox="0 0 512 512" enable-background="new 0 0 512 512" xml:space="preserve">
<g>
	<path fill="#231F20" d="M208,346.1l-59.4,41.9c-3.2,3-4.5,7.8-4.6,11.9s1,7.5,4.1,10.7c3.1,3.3,7.7,5.3,11.9,5.3
		c4,0,10.9-4.2,14-7.2l61-44.3c3.2-3,5-7.2,5-11.6l8-45l-40-40V346.1z"/>
	<g>
		<circle fill="#231F20" cx="272" cy="96" r="32"/>
		<g>
			<path fill="#231F20" d="M338.9,430.2l-13.3-100.7c-0.4-3-1.7-5.8-3.6-8.1l-49.9-59V155.7c0-9.7-13.2-11.7-16-11.7h-32
				c-2.5,0-4.9,0.6-7.2,1.7l-59.5,29.7C148.7,180,144,188.7,144,200v56c0,8.8,7.2,16,16,16s16-7.2,16-16v-54.1l32-16V256l86.5,86.5
				l12.7,92c1.1,8,8,13.4,15.8,13.4h1.8C333.5,446.8,340.1,438.9,338.9,430.2z"/>
			<path fill="#231F20" d="M363.1,235.8L280,153.3v45.1l60.6,60.1c6.3,6.2,16.4,6.2,22.6-0.1c3.1-3.1,4.8-6.4,4.8-10.4
				C368,243.9,366.3,239,363.1,235.8z"/>
		</g>
	</g>
</g>
</svg>
