<?xml version="1.0" encoding="utf-8"?>
<!-- Generator: Adobe Illustrator 18.1.1, SVG Export Plug-In . SVG Version: 6.00 Build 0)  -->
<svg version="1.1" id="Layer_1" xmlns="http://www.w3.org/2000/svg" xmlns:xlink="http://www.w3.org/1999/xlink" x="0px" y="0px"
	 viewBox="0 0 512 512" enable-background="new 0 0 512 512" xml:space="preserve">
<g>
	<path d="M256,96c-83,0-166.1,35.8-224,93.7l37.3,39.6c24.3-24.3,52.5-43.3,83.9-56.6C185.8,159,220.3,152,256,152
		s70.2,7,102.7,20.7c31.4,13.3,59.7,32.3,83.9,56.6l37.3-39.6C422.1,131.8,339,96,256,96L256,96z"/>
	<path d="M256,209c-57.2,0-109,23.1-146.6,60.4L149,309c28.7-28.4,66.6-44,107-44c40.4,0,78.3,15.6,107,44l39.6-39.6
		C365,232.1,313.2,209,256,209L256,209z"/>
	<path d="M256,321c-25.9,0-48.9,12.3-63.6,31.4L256,416l63.6-63.6C304.9,333.3,281.9,321,256,321L256,321z"/>
</g>
</svg>
