<?xml version="1.0" encoding="utf-8"?>
<!-- Generator: Adobe Illustrator 18.1.1, SVG Export Plug-In . SVG Version: 6.00 Build 0)  -->
<svg version="1.1" id="Layer_1" xmlns="http://www.w3.org/2000/svg" xmlns:xlink="http://www.w3.org/1999/xlink" x="0px" y="0px"
	 viewBox="0 0 512 512" enable-background="new 0 0 512 512" xml:space="preserve">
<path d="M256,48C141.1,48,48,141.1,48,256s93.1,208,208,208c114.9,0,208-93.1,208-208S370.9,48,256,48z M256,65.3
	c105.1,0,190.7,85.5,190.7,190.7c0,46.6-16.8,89.2-44.6,122.4c0,0-0.1-0.1-0.1-0.1c-20-8.2-65.9-24.1-92.9-32.1
	c-2.4-0.7-2.7-0.9-2.7-10.7c0-8.1,3.3-16.3,6.6-23.3c3.6-7.5,7.7-20.2,9.2-31.6c4.2-4.9,10-14.5,13.6-32.9
	c3.2-16.2,1.7-22.1-0.4-27.6c-0.2-0.6-0.5-1.2-0.6-1.7c-0.8-3.8,0.3-23.5,3.1-38.8c1.9-10.5-0.5-32.8-14.9-51.3
	c-9.1-11.7-26.6-26-58.5-28l-17.5,0c-31.4,2-48.8,16.3-58,28c-14.5,18.5-16.9,40.8-15,51.3c2.8,15.3,3.9,35,3.1,38.8
	c-0.2,0.7-0.4,1.2-0.6,1.8c-2.1,5.5-3.7,11.4-0.4,27.6c3.7,18.4,9.4,28,13.6,32.9c1.5,11.4,5.7,24,9.2,31.6c2.6,5.5,3.8,13,3.8,23.6
	c0,9.9-0.4,10-2.6,10.7c-28,8.3-72.2,24.2-90.1,31.9C82.1,345.3,65.3,302.6,65.3,256C65.3,150.9,150.9,65.3,256,65.3z M121.4,391
	c19.9-8,58.6-21.8,83.1-29.1l0.1,0l0.1,0c8.4-2.6,11.6-8.5,12.8-13c0.9-3.2,1-6.5,1-13c0-13.1-1.7-22.7-5.3-30.4
	c-2.9-6.1-6.6-17.2-7.9-26.9l-0.6-4.7l-3.1-3.6c-1.9-2.2-6.8-9.2-10.1-25.6c-2.6-13-1.4-16-0.4-18.7l0-0.1l0-0.1l0.1-0.3
	c0.2-0.6,0.6-1.6,1-2.8l0.1-0.5l0.1-0.5c1.7-8-0.6-31.9-3-45c-1.1-6.2,0.3-23.8,11.8-38.6c7.1-9,20.8-20.1,45.9-21.8l16.5,0
	c25.6,1.7,39.4,12.8,46.4,21.9c11.6,14.8,12.9,32.4,11.8,38.6c-2.4,13-4.7,37-3,45l0.1,0.3l0.1,0.3c0.4,1.5,0.9,2.8,1.2,3.6
	c1.1,2.8,2.1,5.9-0.4,18.6c-3.3,16.4-8.1,23.3-10,25.6l-3.1,3.6l-0.6,4.8c-1.3,9.7-5,20.7-7.8,26.8c-4,8.5-8.1,18.8-8.1,30.1
	c0,5.8,0.1,9.6,1.1,13.2c1.3,4.4,4.5,10.2,12.9,12.8l0.1,0l0.1,0c23.7,7,63.9,20.8,86,29.4c-34.5,34.4-82.1,55.7-134.5,55.7
	C203.5,446.7,156,425.4,121.4,391z"/>
</svg>
