<?xml version="1.0" encoding="utf-8"?>
<!-- Generator: Adobe Illustrator 18.1.1, SVG Export Plug-In . SVG Version: 6.00 Build 0)  -->
<svg version="1.1" id="Layer_1" xmlns="http://www.w3.org/2000/svg" xmlns:xlink="http://www.w3.org/1999/xlink" x="0px" y="0px"
	 viewBox="0 0 512 512" enable-background="new 0 0 512 512" xml:space="preserve">
<g>
	<path d="M256,48C141.1,48,48,141.1,48,256c0,114.9,93.1,208,208,208c114.9,0,208-93.1,208-208C464,141.1,370.9,48,256,48z
		 M256,446.7c-105.1,0-190.7-85.5-190.7-190.7c0-105.1,85.5-190.7,190.7-190.7c105.1,0,190.7,85.5,190.7,190.7
		C446.7,361.1,361.1,446.7,256,446.7z"/>
	<polygon points="139.3,352 173.5,323.2 148.8,307 	"/>
	<path d="M342.2,298c-6.8,3.2-15.2,14-3.9,28.6c9.1,11.7,18,8.7,26.5,25.4c4.8-4.1,9.4-21.7,7.3-35.7
		C369.7,301,359.8,289.8,342.2,298z"/>
	<path d="M251.6,189.6c1.6-2.7,0.6-6.3-2.1-7.9l-15.1-8.6c-2.8-1.6-6.3-0.6-7.9,2.1L189.1,240l-18.5,32l-16.9,29.2l24.9,15
		l25.5-44.3l18.4-32L251.6,189.6z"/>
	<polygon points="230.6,240 212.1,272 301.3,272 283.2,240 	"/>
	<polygon points="351,272 384,272 384,240 333,240 	"/>
	<polygon points="181.1,240 128,240 128,272 162.6,272 	"/>
	<path d="M324.6,240l-60-105.8c-1.6-2.8-5.2-3.7-7.9-2.1l-15.1,8.6c-2.8,1.6-3.7,5.1-2.1,7.9l51.7,91.4l18.1,32l0.2,0.3l0.5-0.3
		l24.4-14.8L324.6,240z"/>
	<polygon points="343.2,272 338.3,263.3 323.9,272 313.5,278.3 326.5,301.3 351.4,286.2 	"/>
</g>
</svg>
