<?xml version="1.0" encoding="utf-8"?>
<!-- Generator: Adobe Illustrator 16.2.1, SVG Export Plug-In . SVG Version: 6.00 Build 0)  -->
<!DOCTYPE svg PUBLIC "-//W3C//DTD SVG 1.1//EN" "http://www.w3.org/Graphics/SVG/1.1/DTD/svg11.dtd">
<svg version="1.1" id="Layer_1" xmlns="http://www.w3.org/2000/svg" xmlns:xlink="http://www.w3.org/1999/xlink" x="0px" y="0px"
	 width="512px" height="512px" viewBox="0 0 512 512" enable-background="new 0 0 512 512" xml:space="preserve">
<path d="M257,48C142.137,48,49,141.136,49,256c0,114.864,93.137,208,208,208c114.872,0,208-93.138,208-208
	C465,141.138,371.87,48,257,48z M446.856,273.414l-53.822-46.575l-49.997,22.781l-19.752,77.416l20.434,38.529l69.858-0.915
	c-25.528,36.664-63.584,63.987-107.92,75.699l24.913-65.426L309.927,336H204.074l-20.644,38.924l24.914,65.428
	c-44.896-11.861-83.356-39.725-108.884-77.089c0.321,0.463,0.642,0.928,0.962,1.388l69.86,0.915l20.433-38.529l-19.751-77.416
	l-49.998-22.781l-53.822,46.575c-0.002,0.016-0.003,0.033-0.006,0.049c-0.524-5.752-0.801-11.575-0.801-17.463
	c0-40.906,12.963-78.834,34.978-109.922l22.49,64.472l53.524,24.388L249,174.723v-58.147L190.917,77.17
	c20.6-7.638,42.857-11.833,66.082-11.833c23.224,0,45.482,4.195,66.082,11.833L265,116.576v58.147l71.672,60.215l53.523-24.388
	l22.49-64.472c22.016,31.088,34.979,69.016,34.979,109.922c0,5.881-0.275,11.697-0.8,17.443
	C446.862,273.434,446.859,273.424,446.856,273.414z"/>
</svg>
