<?xml version="1.0" encoding="utf-8"?>
<!-- Generator: Adobe Illustrator 18.1.1, SVG Export Plug-In . SVG Version: 6.00 Build 0)  -->
<svg version="1.1" id="Layer_1" xmlns="http://www.w3.org/2000/svg" xmlns:xlink="http://www.w3.org/1999/xlink" x="0px" y="0px"
	 viewBox="0 0 512 512" enable-background="new 0 0 512 512" xml:space="preserve">
<g>
	<path d="M384.5,64c-24.8,0-47.8,77.3-47.8,160c0,57,32.1,80,32.1,80s6.2,4.8,15.1,6v130c0,4.4,3.6,8,8,8s8-3.6,8-8V75
		C400,64,389.5,64,384.5,64z M384,81v191.5V293c-1-0.1-5-1-7.3-3.1c-1.3-1.1-5.2-4.6-10.3-12.9c-11.3-18.1-13.6-38.8-13.6-52.9
		c0-34.9,4.2-71.4,12-100.1c7.5-28,16.2-39.7,19.2-43V81z"/>
	<path d="M296,64h-8l10,103.5c0,4.4-3.6,7.8-8,7.8c-4.4,0-8-3.2-8-7.6L276,64h-8l-6,103.5c0,4.4-3.6,7.8-8,7.8c-4.4,0-8-3.2-8-7.6
		L256,64h-8c0,0-24,107.1-24,127.9c0,20.8,13.2,39.4,32,45.3c5.3,1.7,8,1.8,8,1.8v201c0,4.4,3.6,8,8,8s8-3.6,8-8V239
		c0,0,5.1-0.9,8-1.8c18.6-6,32-24.2,32-45.2S296,64,296,64z M272,223c-28.6,0-32-26.6-32-31.6c0,0,0.1-2.7,0.3-4.5
		c3.9,2.7,8.6,4.3,13.7,4.3c7.2,0,11.5-3.1,18-3.1s10.8,3.1,18,3.1c5.1,0,9.8-1.6,13.7-4.3c0.2,1.9,0.3,4.6,0.3,4.6
		C304,196.2,300.6,223,272,223z"/>
	<path d="M160,64c-26.5,0-48,63.9-48,127.9c0,17.3,9.2,33.2,23.2,41.3c11.4,6.7,16.8,6.8,16.8,6.8v200c0,4.4,3.6,8,8,8s8-3.6,8-8
		V240c0,0,5.1,0,16.2-6.2c14.2-8,23.8-24,23.8-41.8C208,128,186.5,64,160,64z M176.3,219.6l-0.1,0.1l-0.1,0.1
		c-0.7,0.4-1.6,1-2.6,1.4c-1.2,0.3-2.4,0.7-3.5,1.3c-3.4,0.7-6.8,1.3-9.9,1.3c-3.1,0-6.5-0.6-9.9-1.3c-1.1-0.5-2.2-0.9-3.5-1.2
		c-1-0.5-2.2-1.2-3-1.7l-0.2-0.1l-0.2-0.1c-9.4-5.6-15.3-16.1-15.3-27.4c0-29.4,4.8-59.5,13.1-82.5c4.8-13.2,9.5-20.5,12.6-24.3
		c3.4-4.2,5.8-5.1,6.3-5.1s2.9,0.9,6.3,5.1c3.1,3.8,7.8,11,12.6,24.3c8.3,23,13.1,53,13.1,82.5C192,203.3,185.8,214.2,176.3,219.6z"
		/>
</g>
</svg>
