<?xml version="1.0" encoding="utf-8"?>
<!-- Generator: Adobe Illustrator 18.1.1, SVG Export Plug-In . SVG Version: 6.00 Build 0)  -->
<svg version="1.1" id="Layer_1" xmlns="http://www.w3.org/2000/svg" xmlns:xlink="http://www.w3.org/1999/xlink" x="0px" y="0px"
	 viewBox="0 0 512 512" enable-background="new 0 0 512 512" xml:space="preserve">
<g>
	<g>
		<path d="M113.9,406c-2.1,0-4.2-0.8-5.8-2.5C68.8,362.5,48,311.5,48,256c0-55.5,20.8-106.5,60.2-147.5c3.1-3.2,8.1-3.3,11.3-0.2
			s3.3,8.1,0.2,11.3C83.3,157.5,64,204.7,64,256c0,51.3,19.3,98.5,55.7,136.5c3.1,3.2,3,8.3-0.2,11.3
			C117.9,405.3,115.9,406,113.9,406z"/>
		<path d="M398.1,406c-2,0-4-0.7-5.5-2.2c-3.2-3.1-3.3-8.1-0.2-11.3c36.4-38,55.7-85.2,55.7-136.5c0-51.3-19.3-98.5-55.7-136.5
			c-3.1-3.2-3-8.3,0.2-11.3s8.3-3,11.3,0.2c39.4,41,60.2,92,60.2,147.5c0,55.5-20.8,106.5-60.2,147.5
			C402.3,405.2,400.2,406,398.1,406z"/>
	</g>
	<g>
		<path d="M156.1,365.6c-2.1,0-4.1-0.8-5.7-2.4c-28.1-28.6-43.6-66.3-43.6-106.4c0-41,16.1-79.4,45.3-108.1
			c3.1-3.1,8.2-3.1,11.3,0.1c3.1,3.2,3.1,8.2-0.1,11.3c-26.2,25.7-40.6,60.1-40.6,96.7c0,35.8,13.8,69.6,39,95.1
			c3.1,3.2,3.1,8.2-0.1,11.3C160.1,364.8,158.1,365.6,156.1,365.6z"/>
		<path d="M355.9,365.6c-2,0-4.1-0.8-5.6-2.3c-3.1-3.1-3.2-8.2-0.1-11.3c25.1-25.5,39-59.3,39-95.1c0-36.7-14.4-71-40.6-96.7
			c-3.1-3.1-3.2-8.2-0.1-11.3c3.1-3.1,8.2-3.2,11.3-0.1c29.2,28.8,45.3,67.2,45.3,108.1c0,40-15.5,77.8-43.6,106.4
			C360.1,364.8,358,365.6,355.9,365.6z"/>
	</g>
	<g>
		<path d="M198,326.9c-2.1,0-4.1-0.8-5.7-2.4c-17.9-18.2-27.8-42.4-27.8-67.9c0-26.2,10.3-50.7,29-69.1c3.1-3.1,8.2-3.1,11.3,0.1
			c3.1,3.2,3.1,8.2-0.1,11.3c-15.6,15.3-24.2,35.8-24.2,57.7c0,21.4,8.2,41.5,23.2,56.7c3.1,3.1,3.1,8.2-0.1,11.3
			C202.1,326.1,200.1,326.9,198,326.9z"/>
		<path d="M314,326.9c-2,0-4.1-0.8-5.6-2.3c-3.1-3.1-3.2-8.2-0.1-11.3c15-15.2,23.2-35.4,23.2-56.7c0-21.9-8.6-42.3-24.2-57.7
			c-3.1-3.1-3.2-8.2-0.1-11.3c3.1-3.1,8.2-3.2,11.3-0.1c18.7,18.4,29,42.9,29,69.1c0,25.6-9.9,49.7-27.8,67.9
			C318.1,326.1,316,326.9,314,326.9z"/>
	</g>
	<circle cx="256" cy="256" r="32"/>
</g>
</svg>
