<?xml version="1.0" encoding="utf-8"?>
<!-- Generator: Adobe Illustrator 19.2.0, SVG Export Plug-In . SVG Version: 6.00 Build 0)  -->
<svg version="1.1" id="Layer_1" xmlns="http://www.w3.org/2000/svg" xmlns:xlink="http://www.w3.org/1999/xlink" x="0px" y="0px"
	 viewBox="0 0 512 512" style="enable-background:new 0 0 512 512;" xml:space="preserve">
<g>
	<polygon points="297.9,416 314,432 198,432 214.1,416 196.7,410.8 142,464 164.8,464 181.9,448 330.1,448 347.2,464 370,464 
		315.5,410.8 	"/>
	<path d="M337,64h-17c0-8.8-7.2-16-16-16h-96c-8.8,0-16,7.2-16,16h-15c-35.3,0-65,27.7-65,63v224c0,35.3,144,65,144,65
		s144-29.7,144-65V127C400,91.7,372.3,64,337,64z M209,64h94v16h-94V64z M256,368c-26.5,0-48-21.5-48-48s21.5-48,48-48
		s48,21.5,48,48S282.5,368,256,368z M352,208c0,8.8-7.2,16-16,16H176c-8.8,0-16-7.2-16-16v-64c0-8.8,7.2-16,16-16h160
		c8.8,0,16,7.2,16,16V208z"/>
	<path d="M256,289.5c-16.8,0-30.5,13.7-30.5,30.5s13.7,30.5,30.5,30.5s30.5-13.7,30.5-30.5S272.8,289.5,256,289.5z"/>
</g>
</svg>
