<?xml version="1.0" encoding="utf-8"?>
<!-- Generator: Adobe Illustrator 16.2.1, SVG Export Plug-In . SVG Version: 6.00 Build 0)  -->
<!DOCTYPE svg PUBLIC "-//W3C//DTD SVG 1.1//EN" "http://www.w3.org/Graphics/SVG/1.1/DTD/svg11.dtd">
<svg version="1.1" id="Layer_1" xmlns="http://www.w3.org/2000/svg" xmlns:xlink="http://www.w3.org/1999/xlink" x="0px" y="0px"
	 width="512px" height="512px" viewBox="0 0 512 512" style="enable-background:new 0 0 512 512;" xml:space="preserve">
<g>
	<path d="M64,272c0,5.4,0.2,10.7,0.6,16c1.3,17.1,4.7,33.7,9.9,49.4c7.9,23.8,19.9,45.7,35.3,64.8C147.9,449.6,206.4,480,272,480
		c114.9,0,208-93.1,208-208c0-65.6-30.4-124.1-77.8-162.2c-19.1-15.4-41-27.4-64.8-35.3c-15.7-5.2-32.3-8.6-49.4-9.9
		c-5.3-0.4-10.6-0.6-16-0.6v208H64z M80.7,288H272h16v-16V80.7c20.3,1.7,40,6.5,58.7,14.4c15.9,6.7,30.6,15.5,44.1,26.1
		c5.9,4.7,11.6,9.7,16.9,15.1c11.6,11.6,21.5,24.4,29.7,38.4c4.3,7.3,8.1,14.8,11.4,22.7c10,23.7,15.1,48.8,15.1,74.7
		s-5.1,51.1-15.1,74.7c-9.7,22.9-23.5,43.4-41.2,61c-17.6,17.6-38.2,31.5-61,41.2c-23.7,10-48.8,15.1-74.7,15.1s-51.1-5.1-74.7-15.1
		c-7.8-3.3-15.4-7.1-22.7-11.4c-13.9-8.2-26.8-18.1-38.4-29.7c-5.4-5.4-10.4-11-15.1-16.9c-10.6-13.5-19.4-28.2-26.1-44.1
		C87.1,328,82.3,308.3,80.7,288z"/>
	<path d="M32,240c0,5.4,0.2,10.7,0.6,16H240h16v-16V32.6c-5.3-0.4-10.6-0.6-16-0.6C125.1,32,32,125.1,32,240z M48,240
		c0-25.9,5.1-51.1,15.1-74.7c9.7-22.9,23.5-43.4,41.2-61c17.6-17.6,38.2-31.5,61-41.2C188.9,53.1,214.1,48,240,48v192H48z"/>
</g>
</svg>
