<?xml version="1.0" encoding="utf-8"?>
<!-- Generator: Adobe Illustrator 18.1.1, SVG Export Plug-In . SVG Version: 6.00 Build 0)  -->
<svg version="1.1" id="Layer_1" xmlns="http://www.w3.org/2000/svg" xmlns:xlink="http://www.w3.org/1999/xlink" x="0px" y="0px"
	 viewBox="0 0 512 512" enable-background="new 0 0 512 512" xml:space="preserve">
<path d="M215.2,88l93.5,146.1l4.9,7.5l9.1-0.3l67.8-2l0.2,0l0.2,0c3.2-0.2,6.2-0.2,9.2-0.2c17.2,0,33.7,2.4,46.5,6.7
	c10.6,3.6,15.4,7.4,17.1,9.3c-1.6,1.9-6.5,5.7-17.1,9.3c-12.8,4.3-29.3,6.7-46.5,6.7c-2.8,0-6.1,0-9.2-0.2l-0.2,0l-0.2,0l-67.8-1.6
	l-9-0.2l-4.9,7.9L215.2,424h-16.1L250,289l7.8-20.9l-22.2-1l-126.1-5.1l-8.2-0.3l-5.1,6.7L56.2,320h-0.6l23.2-58.3l2.4-6.1l-2.4-5.8
	L55.6,192h0.6l39.4,49.8l5,6.2l8.1-0.3l126.8-4.2l22.4-0.7l-7.9-20.7L199.2,88H215 M224,72h-48l59,155.7L108.2,232L64,176H32l32,80
	l-32,80h32l44.9-57.7l126.1,5.2L176,440h48l98.2-154.5L390,287c3.3,0.2,6.6,0.1,10,0.1c44.2,0,80-14.4,80-32.1s-35.8-32-80-32
	c-3.4,0-6.7,0.1-10,0.2l-67.8,2.2L224,72L224,72z"/>
</svg>
