<?xml version="1.0" encoding="utf-8"?>
<!-- Generator: Adobe Illustrator 18.1.1, SVG Export Plug-In . SVG Version: 6.00 Build 0)  -->
<svg version="1.1" id="Layer_1" xmlns="http://www.w3.org/2000/svg" xmlns:xlink="http://www.w3.org/1999/xlink" x="0px" y="0px"
	 viewBox="0 0 512 512" enable-background="new 0 0 512 512" xml:space="preserve">
<g>
	<polygon points="120.4,40 377.8,480 391.6,472 134.2,32 	"/>
	<path d="M256,144c-12.3,0-24,1.3-35.5,3.8l20.4,35c4.9-0.9,9.9-1.4,15.1-1.4c42.4,0,76.8,33.5,76.8,74.7c0,19.2-7.5,36.7-19.8,50
		l24.3,41.5c45.8-23.3,82.4-62.9,110.7-91.5C403.6,204.6,340.6,144,256,144z"/>
	<path d="M256,330.7c-42.4,0-76.8-33.5-76.8-74.7c0-19.2,7.5-36.7,19.8-50l-24.1-41.2C138.4,183.9,103.3,215.4,64,256
		c57.8,59.2,106.3,112,192,112c12.3,0,24.1-1.4,35.5-3.9l-20.4-34.9C266.2,330.2,261.2,330.7,256,330.7z"/>
	<path d="M300.7,253.4c-3.9,1.7-8.2,2.6-12.7,2.6c-1.5,0-3-0.1-4.4-0.3l12,20.6c3.3-6.1,5.2-13,5.2-20.3
		C300.8,255.1,300.8,254.2,300.7,253.4z"/>
	<path d="M216.4,235.7c-3.3,6.1-5.2,13-5.2,20.3c0,23.3,18.8,42.3,42.5,43.5L216.4,235.7z"/>
</g>
</svg>
