<?xml version="1.0" encoding="utf-8"?>
<!-- Generator: Adobe Illustrator 18.1.1, SVG Export Plug-In . SVG Version: 6.00 Build 0)  -->
<svg version="1.1" id="Layer_1" xmlns="http://www.w3.org/2000/svg" xmlns:xlink="http://www.w3.org/1999/xlink" x="0px" y="0px"
	 viewBox="0 0 512 512" enable-background="new 0 0 512 512" xml:space="preserve">
<g>
	<path d="M403.1,108.9c-81.2-81.2-212.9-81.2-294.2,0s-81.2,212.9,0,294.2c81.2,81.2,212.9,81.2,294.2,0
		C484.3,321.9,484.3,190.1,403.1,108.9z M256,80c4.4,0,8,3.6,8,8c0,4.4-3.6,8-8,8s-8-3.6-8-8C248,83.6,251.6,80,256,80z M103.6,168
		c2.2-3.8,7.1-5.1,10.9-2.9s5.1,7.1,2.9,10.9c-2.2,3.8-7.1,5.1-10.9,2.9C102.7,176.7,101.4,171.8,103.6,168z M88,264
		c-4.4,0-8-3.6-8-8c0-4.4,3.6-8,8-8s8,3.6,8,8C96,260.4,92.4,264,88,264z M114.5,346.9c-3.8,2.2-8.7,0.9-10.9-2.9
		c-2.2-3.8-0.9-8.7,2.9-10.9s8.7-0.9,10.9,2.9C119.6,339.8,118.3,344.7,114.5,346.9z M178.9,405.5c-2.2,3.8-7.1,5.1-10.9,2.9
		c-3.8-2.2-5.1-7.1-2.9-10.9c2.2-3.8,7.1-5.1,10.9-2.9C179.8,396.8,181.1,401.7,178.9,405.5z M176,117.4c-3.8,2.2-8.7,0.9-10.9-2.9
		c-2.2-3.8-0.9-8.7,2.9-10.9c3.8-2.2,8.7-0.9,10.9,2.9S179.8,115.2,176,117.4z M256,432c-4.4,0-8-3.6-8-8c0-4.4,3.6-8,8-8s8,3.6,8,8
		C264,428.4,260.4,432,256,432z M264,269.9V384c0,4.4-3.6,8-8,8s-8-3.6-8-8V269.8c-2.4-1.4-4.4-3.3-5.9-5.8
		c-3-5.2-2.7-11.5,0.2-16.3l-29.6-54.9c-2.3-3.8-1-8.7,2.7-11c3.8-2.3,8.7-1,11,2.7l30,55.4c5.4,0.1,10.6,3,13.4,8
		C274.3,255.7,271.7,265.4,264,269.9z M344,408.4c-3.8,2.2-8.7,0.9-10.9-2.9c-2.2-3.8-0.9-8.7,2.9-10.9c3.8-2.2,8.7-0.9,10.9,2.9
		S347.8,406.2,344,408.4z M346.9,114.5c-2.2,3.8-7.1,5.1-10.9,2.9c-3.8-2.2-5.1-7.1-2.9-10.9c2.2-3.8,7.1-5.1,10.9-2.9
		C347.8,105.8,349.1,110.7,346.9,114.5z M408.4,344c-2.2,3.8-7.1,5.1-10.9,2.9c-3.8-2.2-5.1-7.1-2.9-10.9c2.2-3.8,7.1-5.1,10.9-2.9
		S410.6,340.2,408.4,344z M405.5,178.9c-3.8,2.2-8.7,0.9-10.9-2.9c-2.2-3.8-0.9-8.7,2.9-10.9s8.7-0.9,10.9,2.9
		C410.6,171.8,409.3,176.7,405.5,178.9z M424,264c-4.4,0-8-3.6-8-8c0-4.4,3.6-8,8-8s8,3.6,8,8C432,260.4,428.4,264,424,264z"/>
</g>
</svg>
