<?xml version="1.0" encoding="utf-8"?>
<!-- Generator: Adobe Illustrator 18.1.1, SVG Export Plug-In . SVG Version: 6.00 Build 0)  -->
<svg version="1.1" id="Layer_1" xmlns="http://www.w3.org/2000/svg" xmlns:xlink="http://www.w3.org/1999/xlink" x="0px" y="0px"
	 viewBox="0 0 512 512" enable-background="new 0 0 512 512" xml:space="preserve">
<g>
	<g>
		<g>
			<path d="M434.7,203.4l15.5-2.4c0,0,0,0,0,0c7.1,0,22.4-3,25.5-6.2c3.1-3.2,4.2-5.8,4.2-8.6s-1.7-7.9-4.8-11.3
				c-3-3.4-16-5.3-23.7-6.3c-2.2-0.3-3.9-0.4-5.2-0.4c-3.2,0-4.1,0.7-5.5,1.6c-2.3,1.5-3,11.7-3.2,17l-8.1,1.8
				c-4.8-12.5-11.4-35.6-21.5-54c-11.5-20.8-23.5-27.4-28.5-29c-4.9-1.5-9.4-2.6-43-6.1C302.7,96,273.4,96,256,96s-46.7,0-80.6,3.6
				c-33.6,3.4-38.1,4.5-43,6.1c-5,1.6-17,8.2-28.5,29c-10.1,18.4-16.7,41.5-21.5,54l-8.1-1.8c-0.2-5.3-0.9-15.6-3.2-17
				c-1.4-0.9-2.4-1.7-5.5-1.7c-1.3,0-2.9,0.1-5.1,0.4c-7.6,1-20.6,2.8-23.7,6.2c-3,3.4-4.7,8.3-4.7,11.1s1.1,5.9,4.2,9.1
				c3.1,3.2,18.5,6.2,25.5,6.2c0,0,0,0,0,0l15.5,2.4c0,0-26.8,14.2-41.2,30.4c0,0-4.1,24.5-4.1,57.9c0,48,5.8,88.3,5.8,88.3
				c26.5,4.6,46.2,6.2,65.9,6.7c5.4,0.1,10.6,0.2,15.9,0.2c4.3,0,8.7,0,13.3-0.1c24.4-0.3,15.8-7.4,26.7-7.4c0.1,0,0.3,0,0.4,0
				c11.3,0.2,55,4.5,96,4.5c41,0,84.7-4.3,96-4.5c0.1,0,0.3,0,0.4,0c10.8,0,2.2,7.1,26.7,7.3c4.5,0,8.8,0.1,13,0.1
				c5.4,0,10.7-0.1,16.3-0.2c19.7-0.5,39.5-2.2,65.9-6.8c0,0,5.8-40.3,5.8-88.4c0-33.5-4.1-57.9-4.1-57.9
				C461.5,217.5,434.7,203.4,434.7,203.4z M110.4,154.4c4.3-10.1,14-27.1,22.1-32.8c0,0,47-9.6,123.5-9.6s123.5,9.6,123.5,9.6
				c8.1,5.6,17.8,22.6,22.1,32.8s11.4,33.8,10.3,36.5c-0.8,2,0.2,3.3-5.4,3.3c-1.8,0-4.4-0.1-8-0.4c-14.3-1.1-99.5-2.3-142.5-2.3
				c-43,0-128.1,1.2-142.5,2.3c-3.6,0.3-6.1,0.4-8,0.4c-5.7,0-4.6-1.3-5.4-3.3C99,188.1,106.1,164.5,110.4,154.4z M459.8,366.1
				c-18.3,2.8-34.3,4.2-51.9,4.6c-5.1,0.1-10.1,0.2-15.9,0.2c-3.7,0-7.8,0-12.8-0.1c-5.5-0.1-8.1-0.5-9.1-0.8
				c-3.6-3.3-8.5-6.6-17.7-6.6c-0.2,0-0.4,0-0.7,0c-3.9,0.1-10.5,0.5-19.7,1c-19.2,1.2-48.3,3.4-76,3.5c-27.7,0-56.8-2.3-76.1-3.5
				c-9.2-0.6-15.8-1-19.7-1c-0.2,0-0.4,0-0.7,0c-9.2,0-14.1,3.3-17.7,6.6c-1,0.2-3.6,0.7-9.1,0.8c-5.3,0.1-9.4,0.1-13.1,0.1
				c-5.6,0-10.6-0.1-15.5-0.2c-17.6-0.5-33.7-1.9-51.9-4.6C50.5,351,48,322.9,48,291.7c0-23.3,2.1-42.3,3.2-50.7
				c10.7-10.4,27.6-20.6,33.7-23.9l13.8-7.5c0,0,44.3-2,157.3-2s157.2,2,157.2,2l13.9,7.5c6.1,3.3,23,13.4,33.7,23.8
				c1.1,8.4,3.2,27.3,3.2,50.8C464,322.8,461.5,351,459.8,366.1z"/>
		</g>
		<g>
			<path d="M138.8,278.3c-9.9,0-29.8-1-34.5-1.2c-4.7-0.1-8.8,3.8-11.2,3.8s-25.5-3.6-28-14.9c-2.5-11.2,0-23,0-22.8
				c15.5-0.7,30.5-0.2,58.5,7.8c28.1,7.9,43.6,23.3,43.6,23.3S148.7,278.3,138.8,278.3z"/>
			<path d="M342.2,339.3c-12.7,1.7-58.5,2.2-86.2,2.2s-73.5-0.5-86.2-2.2c-13.1-1.7-29.8-17.3-18.4-30.2
				c7.6-8.5,20.8-13.6,48.9-17.3c29.8-3.8,48.6-4.3,55.6-4.3c7,0,25.8,0.5,55.6,4.3c28.1,3.7,43.2,9.6,48.9,17.3
				C370.8,322.9,355.3,337.5,342.2,339.3z"/>
			<path d="M446.9,266.1c-2.5,11.2-25.6,14.9-28,14.9c-2.4,0-6.5-3.9-11.2-3.8c-4.7,0.2-24.6,1.2-34.5,1.2s-28.4-4-28.4-4
				s15.5-15.4,43.6-23.3c28-8,43-8.5,58.5-7.8C446.9,243.1,449.4,254.8,446.9,266.1z"/>
		</g>
	</g>
	<g>
		<path d="M401,412.3c0,2.1,1.3,3.7,3.2,3.7c0,0,53,0,56.5,0c4.9,0,5.9-3.5,6.2-5.5c1.4-8.4,1.9-21.3,1.9-21.3
			c-25.7,4.7-48.8,5.5-67.8,6V412.3z"/>
		<path d="M45.2,410.5c0.3,2,1.3,5.5,6.2,5.5c3.5,0,56.7,0,56.7,0c1.9,0,3-1.6,3-3.7v-17.1c-19-0.5-42.2-1.3-67.9-6
			C43.1,389.3,43.8,402.1,45.2,410.5z"/>
	</g>
</g>
</svg>
