<?xml version="1.0" encoding="utf-8"?>
<!-- Generator: Adobe Illustrator 18.1.1, SVG Export Plug-In . SVG Version: 6.00 Build 0)  -->
<svg version="1.1" id="Layer_1" xmlns="http://www.w3.org/2000/svg" xmlns:xlink="http://www.w3.org/1999/xlink" x="0px" y="0px"
	 viewBox="0 0 512 512" enable-background="new 0 0 512 512" xml:space="preserve">
<path fill="#010101" d="M464,48c0,0-19.8,1.4-53.1,27.2c-15.5,12-162.2,120.6-162.2,120.6l-159.7-7.9L48,224.4l102,51.2l-8,10.1
	l-81.6,4.1l-6.7,33.6l60.6,47.2l-26.7,53.6l53.7-26.5l47.3,60.6l33.6-6.7l4.1-81.6l10.1-7.9L287.6,464l36.5-40.9l-7.9-159.7
	c0,0,108.6-146.7,120.6-162C462.7,67.8,464,48,464,48z M424.3,91.6L300.1,258.5l7.8,158.8l-16.5,18.5l-40.7-80.9l-8.8-17.4
	l-31.3,24.5l-3.9,76.4l-11.7,2.3l-49.2-63.1L123,388.8l11.4-22.8l-63.1-49.2l2.3-11.7l76.4-3.9l24.8-31.1l-17.6-8.8l-80.9-40.7
	l18.5-16.5l158.9,7.8L420.7,87.8c4.5-3.5,8.7-6.5,12.6-9C430.8,82.7,427.8,87,424.3,91.6z"/>
</svg>
