<?xml version="1.0" encoding="utf-8"?>
<!-- Generator: Adobe Illustrator 18.1.1, SVG Export Plug-In . SVG Version: 6.00 Build 0)  -->
<svg version="1.1" id="Layer_1" xmlns="http://www.w3.org/2000/svg" xmlns:xlink="http://www.w3.org/1999/xlink" x="0px" y="0px"
	 viewBox="0 0 512 512" enable-background="new 0 0 512 512" xml:space="preserve">
<g>
	<polygon points="48,112 48,208 176,244 176,243.7 176,112 	"/>
	<path d="M256,282.2"/>
	<g>
		<path d="M200,328.2c0,30.9,25.1,56,56,56s56-25.1,56-56c0-23.5-14.4-43.5-34.9-51.9l-21.1,5.8l-21-5.9
			C214.4,284.7,200,304.8,200,328.2z"/>
		<path d="M368.4,251.1l-69.6,19.2c17.7,13.1,29.2,34.2,29.2,57.9c0,39.7-32.3,72-72,72s-72-32.3-72-72c0-23.7,11.5-44.8,29.3-57.9
			L143.7,251c-15,21.8-23.7,48.3-23.7,76.8c0,75.1,60.9,136,136,136s136-60.9,136-136C392,299.3,383.3,273,368.4,251.1z"/>
	</g>
	<polygon points="192,112 192,248 256,266 320,248.4 320,248.2 320,112 	"/>
	<polygon points="336,112 336,243.7 336,244 464,208 464,112 	"/>
	<rect x="48" y="48" width="416" height="48"/>
</g>
</svg>
