<?xml version="1.0" encoding="utf-8"?>
<!-- Generator: Adobe Illustrator 18.1.1, SVG Export Plug-In . SVG Version: 6.00 Build 0)  -->
<svg version="1.1" id="Layer_1" xmlns="http://www.w3.org/2000/svg" xmlns:xlink="http://www.w3.org/1999/xlink" x="0px" y="0px"
	 viewBox="0 0 512 512" enable-background="new 0 0 512 512" xml:space="preserve">
<g>
	<circle cx="256" cy="95.7" r="16"/>
	<path d="M400,64h-92.1c4.1,4.6,7.3,10,9.4,16H392c4.4,0,8,3.6,8,8v352c0,4.4-3.6,8-8,8H120c-4.4,0-8-3.6-8-8V88c0-4.4,3.6-8,8-8
		h74.7c2.1-6,5.3-11.4,9.4-16H112c-8.8,0-16,7.2-16,16v368c0,8.8,7.2,16,16,16h288c8.8,0,16-7.2,16-16V80C416,71.2,408.8,64,400,64z
		"/>
	<path d="M176,111v17h-48v304h256V128h-48v-17c0-8.8-6.4-15-15.2-15H304c0-5.6-1-11-2.7-16c-2.1-6-5.3-11.4-9.4-16
		c-8.8-9.9-21.6-16-35.9-16s-27.1,6.1-35.9,16c-4.1,4.6-7.3,10-9.4,16c-1.7,5-2.7,10.4-2.7,16h-14.5C184.7,96,176,102.2,176,111z
		 M336,160v-16h32v272H144V144h32v16H336z M224,112V95.5c0-17.9,14.1-32,32-32s32,14.1,32,32V112h16h16v32H192v-32H224z"/>
</g>
</svg>
