<?xml version="1.0" encoding="utf-8"?>
<!-- Generator: Adobe Illustrator 18.1.1, SVG Export Plug-In . SVG Version: 6.00 Build 0)  -->
<svg version="1.1" id="Layer_1" xmlns="http://www.w3.org/2000/svg" xmlns:xlink="http://www.w3.org/1999/xlink" x="0px" y="0px"
	 viewBox="0 0 512 512" enable-background="new 0 0 512 512" xml:space="preserve">
<path d="M372.5,92.7C352,78,332,64,310,64s-22,8-54,8s-32-8-54-8s-42,14-62.5,28.7C107.9,115.4,48,179,48,179s34.6,41.3,51.7,61
	c12.7,14.7,16,17.8,16,0c0-42.7,0-48,6.3-48s6,3.6,6,8v248h256V200c0-4.4-0.3-8,6-8s6.3,5.3,6.3,48c0,17.8,3.3,14.7,16,0
	c17-19.7,51.7-61,51.7-61S404.1,115.4,372.5,92.7z M256,141c-30,0-54-20.7-54-44c0-30,24-8.7,54-8.7c29.8,0,54-21.3,54,8.7
	C310,120.3,285.8,141,256,141z"/>
</svg>
