<?xml version="1.0" encoding="utf-8"?>
<!-- Generator: Adobe Illustrator 16.2.1, SVG Export Plug-In . SVG Version: 6.00 Build 0)  -->
<!DOCTYPE svg PUBLIC "-//W3C//DTD SVG 1.1//EN" "http://www.w3.org/Graphics/SVG/1.1/DTD/svg11.dtd">
<svg version="1.1" id="Layer_1" xmlns="http://www.w3.org/2000/svg" xmlns:xlink="http://www.w3.org/1999/xlink" x="0px" y="0px"
	 width="512px" height="512px" viewBox="0 0 512 512" enable-background="new 0 0 512 512" xml:space="preserve">
<g>
	<path d="M395.057,228.247c-28.733,0-64.708,7.391-92.902,14.578c-0.975-3.419-2.306-6.688-3.974-9.75
		c25.009-14.852,55.645-35.05,75.948-55.353c39.547-39.547,52.023-68.458,40.44-80.042c-2.747-2.748-6.471-4.142-11.079-4.142
		c-14.818,0-38.796,14.415-68.963,44.582c-20.282,20.282-40.459,50.873-55.306,75.869c-3.062-1.696-6.33-3.062-9.755-4.062
		c7.174-28.17,14.535-64.059,14.535-92.735C284.002,61.266,272.382,32,256,32s-28.002,29.266-28.002,85.194
		c0,28.676,7.362,64.565,14.536,92.735c-3.425,1-6.693,2.365-9.755,4.062c-14.847-24.996-35.023-55.587-55.305-75.869
		C147.309,107.957,123.33,93.54,108.51,93.54c-4.609,0-8.331,1.394-11.079,4.142c-11.584,11.583,0.894,40.494,40.44,80.041
		c20.303,20.303,50.938,40.501,75.947,55.353c-1.668,3.062-2.999,6.331-3.974,9.75c-28.194-7.188-64.169-14.578-92.901-14.578
		C61.016,228.247,32,239.618,32,256s29.016,28.252,84.944,28.252c28.777,0,64.82-7.413,93.034-14.611
		c1.003,3.391,2.368,6.624,4.055,9.656c-25.048,14.863-55.801,35.119-76.161,55.479c-39.547,39.547-52.023,68.458-40.44,80.042
		c2.748,2.748,6.471,4.142,11.078,4.142c14.819,0,38.796-14.415,68.963-44.583c20.382-20.381,40.659-51.177,55.526-76.239
		c3.032,1.658,6.267,2.989,9.651,3.967c-7.211,28.239-14.654,64.367-14.654,93.201C227.998,451.234,239.618,480,256,480
		s28.002-28.766,28.002-84.694c0-28.834-7.442-64.962-14.653-93.201c3.385-0.978,6.619-2.309,9.651-3.967
		c14.867,25.062,35.145,55.858,55.527,76.24c30.164,30.165,54.144,44.582,68.963,44.582c4.609,0,8.33-1.394,11.078-4.142
		c11.584-11.584-0.893-40.495-40.439-80.042c-20.361-20.36-51.114-40.616-76.162-55.479c1.687-3.032,3.052-6.266,4.055-9.656
		c28.215,7.198,64.258,14.611,93.035,14.611c55.928,0,84.943-11.62,84.943-28.002S450.984,228.247,395.057,228.247z
		 M345.841,149.436c35.382-35.383,52.681-39.412,56.818-39.846c-0.211,2.305-1.343,7.326-6.404,15.991
		c-6.786,11.62-18.35,25.738-33.44,40.828c-13.533,13.534-34.299,29.111-60.512,45.438c-0.619-0.648-1.25-1.283-1.895-1.904
		C316.732,183.729,332.309,162.968,345.841,149.436z M249.222,64.678c2.548-9.703,5.297-14.055,6.778-15.834
		c1.481,1.78,4.23,6.131,6.778,15.834c3.417,13.015,5.224,31.174,5.224,52.516c0,19.117-3.66,44.781-10.637,74.821
		c-0.455-0.01-0.91-0.015-1.365-0.015s-0.91,0.005-1.365,0.015c-6.977-30.04-10.638-55.704-10.638-74.821
		C243.998,95.853,245.804,77.693,249.222,64.678z M209.698,211.846c-26.213-16.326-46.979-31.904-60.512-45.437
		c-15.09-15.091-26.653-29.208-33.439-40.828c-5.061-8.665-6.194-13.687-6.404-15.992c4.138,0.435,21.436,4.463,56.818,39.845
		c13.533,13.533,29.108,34.295,45.433,60.507C210.948,210.563,210.316,211.198,209.698,211.846z M116.944,268.252
		c-21.339,0-39.483-1.845-52.471-5.335c-9.689-2.604-13.961-5.394-15.675-6.87c1.75-1.451,6.077-4.177,15.796-6.689
		c12.927-3.343,31.029-5.11,52.351-5.11c19.172,0,44.922,3.68,75.064,10.694C192.003,255.294,192,255.646,192,256
		c0,0.52,0.006,1.037,0.019,1.556C161.87,264.572,136.12,268.252,116.944,268.252z M166.16,363.064
		c-35.383,35.382-52.68,39.411-56.818,39.846c0.21-2.305,1.343-7.326,6.404-15.992c6.786-11.619,18.349-25.737,33.439-40.828
		c13.587-13.586,34.457-29.229,60.815-45.625c0.584,0.604,1.181,1.197,1.789,1.779C195.394,328.603,179.749,349.475,166.16,363.064z
		 M262.782,447.612c-2.569,9.707-5.338,13.954-6.782,15.636c-1.444-1.682-4.212-5.929-6.782-15.636
		c-3.415-12.901-5.22-30.988-5.22-52.307c0-19.228,3.701-45.066,10.752-75.317c0.417,0.008,0.834,0.012,1.25,0.012
		s0.834-0.004,1.25-0.012c7.052,30.25,10.752,56.089,10.752,75.317C268.002,416.624,266.197,434.711,262.782,447.612z M256,288
		c-17.673,0-32-14.327-32-32s14.327-32,32-32s32,14.327,32,32S273.673,288,256,288z M302,300.465
		c26.356,16.395,47.227,32.037,60.814,45.625c15.091,15.091,26.654,29.209,33.44,40.828c5.062,8.666,6.193,13.688,6.403,15.992
		c-4.137-0.435-21.435-4.464-56.817-39.846c-13.589-13.59-29.234-34.462-45.63-60.82C300.818,301.663,301.415,301.069,302,300.465z
		 M447.467,263.03c-12.958,3.416-31.081,5.222-52.41,5.222c-19.176,0-44.927-3.68-75.076-10.696c0.014-0.519,0.02-1.036,0.02-1.556
		c0-0.354-0.003-0.706-0.009-1.059c30.144-7.014,55.893-10.694,75.065-10.694c21.329,0,39.453,1.806,52.41,5.222
		c9.705,2.559,14.005,5.317,15.736,6.781C461.472,257.713,457.172,260.471,447.467,263.03z"/>
	<path d="M323.213,385.691c-9.137-9.137-18.184-20.137-26.746-31.746c2.154,14.264,3.535,28.438,3.535,41.36
		c0,12.649-0.562,24.196-1.682,34.587c13.291,23.509,26.139,35.253,36.643,35.253c1.749,0,3.432-0.325,5.042-0.976
		c11.874-4.797,14.35-25.089,4.855-58.491C337.95,399.869,330.734,393.213,323.213,385.691z M333.738,448.566
		c-2.738-1.46-9.407-6.369-18.992-22.269c0.689-7.872,1.098-16.337,1.219-25.282c5.012,4.88,9.947,9.436,14.747,13.613
		C335.816,434.408,334.954,444.779,333.738,448.566z"/>
	<path d="M189.031,126.927c9.048,9.048,17.997,19.917,26.466,31.393c-2.134-14.184-3.5-28.275-3.5-41.126
		c0-12.649,0.563-24.196,1.682-34.586c-13.292-23.51-26.139-35.255-36.644-35.255c-1.749,0-3.431,0.325-5.042,0.976
		c-11.868,4.795-14.348,25.068-4.87,58.441C174.122,112.613,181.43,119.325,189.031,126.927z M178.261,63.932
		c2.737,1.459,9.407,6.369,18.994,22.27c-0.687,7.838-1.094,16.264-1.217,25.167c-5.001-4.856-9.943-9.398-14.769-13.574
		C176.185,78.064,177.046,67.713,178.261,63.932z"/>
	<path d="M126.559,323.463c9.137-9.138,20.137-18.185,31.747-26.746c-14.264,2.154-28.439,3.535-41.361,3.535
		c-12.649,0-24.197-0.562-34.588-1.683c-27.422,15.504-38.836,30.401-34.277,41.686c2.806,6.944,10.913,10.675,23.842,10.675
		c9.182,0,20.795-1.881,34.672-5.827C112.412,338.173,119.068,330.953,126.559,323.463z M71.921,334.93
		c-4.092,0-6.733-0.502-8.223-0.97c1.477-2.755,6.407-9.411,22.253-18.966c7.872,0.69,16.338,1.099,25.284,1.22
		c-4.87,5.004-9.42,9.937-13.598,14.742C87.549,333.562,78.728,334.93,71.921,334.93z"/>
	<path d="M385.442,189.051c-9.13,9.13-20.12,18.17-31.719,26.728c14.254-2.152,28.419-3.531,41.333-3.531
		c12.648,0,24.194,0.563,34.585,1.682c27.423-15.504,38.838-30.402,34.279-41.685c-2.806-6.945-10.914-10.675-23.844-10.675
		c-9.178,0-20.785,1.879-34.654,5.822C399.601,174.327,392.939,181.554,385.442,189.051z M440.077,177.569
		c4.093,0,6.734,0.502,8.225,0.97c-1.478,2.755-6.409,9.412-22.255,18.965c-7.867-0.689-16.327-1.097-25.267-1.218
		c4.869-5.004,9.42-9.939,13.6-14.749C424.461,178.935,433.274,177.569,440.077,177.569z"/>
	<path d="M188.787,385.691c-8.986,8.986-17.541,16.747-25.652,23.289c-8.42,30.34-5.956,48.938,5.244,53.691
		c1.674,0.711,3.437,1.066,5.275,1.066c11.107,0,25.019-12.975,39.528-39.014c-0.786-9.015-1.185-18.826-1.185-29.419
		c0-12.922,1.381-27.097,3.536-41.36C206.971,365.555,197.924,376.554,188.787,385.691z M174.981,447.207
		c-0.904-2.966-2.147-11.15,2.312-29.159c6.048-5.079,12.323-10.782,18.743-17.032c0.095,6.979,0.366,13.686,0.81,20.039
		C186.466,438.66,178.52,445.39,174.981,447.207z"/>
	<path d="M323.213,127.038c8.951-8.951,17.473-16.667,25.557-23.168c8.538-30.55,6.095-49.271-5.148-54.044
		c-1.674-0.71-3.437-1.066-5.274-1.066c-11.106,0-25.02,12.975-39.528,39.013c0.785,9.016,1.184,18.828,1.184,29.421
		c0,13.004-1.398,27.277-3.576,41.632C305,147.205,314.061,136.19,323.213,127.038z M337.02,65.29
		c0.91,2.984,2.166,11.251-2.393,29.491c-6.029,5.051-12.277,10.72-18.66,16.931c-0.092-7.062-0.364-13.846-0.812-20.269
		C325.534,73.836,333.482,67.107,337.02,65.29z"/>
	<path d="M87.524,213.432c9.015-0.786,18.827-1.185,29.42-1.185c12.894,0,27.036,1.375,41.268,3.521
		c-11.576-8.54-22.541-17.562-31.654-26.675c-8.982-8.982-16.775-17.568-23.349-25.726c-12.195-3.38-22.492-5.001-30.752-5.001
		c-12.267,0-20.042,3.573-22.881,10.261C44.572,180.419,57.177,196.522,87.524,213.432z M72.458,174.367
		c5.815,0,13.242,1.088,21.687,3.165c5.077,6.049,10.781,12.33,17.034,18.754c-6.959,0.096-13.648,0.367-19.984,0.81
		C73.563,186.7,66.84,178.745,65.034,175.215C66.415,174.801,68.809,174.367,72.458,174.367z"/>
	<path d="M424.477,299.067c-9.016,0.786-18.827,1.185-29.42,1.185c-12.923,0-27.098-1.381-41.361-3.535
		c11.609,8.562,22.609,17.608,31.746,26.746c8.945,8.943,16.711,17.507,23.268,25.646c12.23,3.396,22.555,5.023,30.833,5.023
		c12.266,0,20.041-3.573,22.88-10.261C467.428,332.08,454.822,315.977,424.477,299.067z M439.542,338.132
		c-5.833,0-13.287-1.095-21.765-3.185c-5.078-6.053-10.774-12.326-17.012-18.734c6.98-0.095,13.688-0.365,20.041-0.81
		c17.631,10.396,24.353,18.351,26.158,21.881C445.585,337.697,443.19,338.132,439.542,338.132z"/>
	<path d="M256,240c-8.822,0-16,7.178-16,16s7.178,16,16,16s16-7.178,16-16S264.822,240,256,240z"/>
</g>
</svg>
