<?xml version="1.0" encoding="utf-8"?>
<!-- Generator: Adobe Illustrator 18.1.1, SVG Export Plug-In . SVG Version: 6.00 Build 0)  -->
<svg version="1.1" id="Layer_1" xmlns="http://www.w3.org/2000/svg" xmlns:xlink="http://www.w3.org/1999/xlink" x="0px" y="0px"
	 viewBox="0 0 512 512" enable-background="new 0 0 512 512" xml:space="preserve">
<g>
	<path d="M352,148c-37-52-72.5-82.5-96-100c-23.1,16-58.6,48.1-95.8,99.8s-62.9,107.8-64.1,170c0,1.2-0.1,2.5-0.1,3.7
		c0,18.3,3.9,35.8,10.9,51.8c4.1,9.3,9.2,18,15.2,26.2c28.5,38.8,77.8,64.4,133.8,64.4c88.4,0,160.1-63.8,160.1-142.4
		C416,258.2,389,200,352,148z M265.9,411c-15.8,0-32.7-1.4-45.9-7.4c87-13.6,119-45.6,139.8-122.2c5.2,11.2,6.2,23.7,6.2,36.8
		C366,369.4,321.2,411,265.9,411z"/>
</g>
</svg>
