<?xml version="1.0" encoding="utf-8"?>
<!-- Generator: Adobe Illustrator 18.1.1, SVG Export Plug-In . SVG Version: 6.00 Build 0)  -->
<svg version="1.1" id="Layer_1" xmlns="http://www.w3.org/2000/svg" xmlns:xlink="http://www.w3.org/1999/xlink" x="0px" y="0px"
	 viewBox="0 0 512 512" enable-background="new 0 0 512 512" xml:space="preserve">
<g>
	<path d="M278.6,346.5l-67.9,67.9c-15,15-35.1,23.3-56.6,23.3s-41.5-8.3-56.6-23.3c-15-15-23.3-35.1-23.3-56.6s8.3-41.5,23.3-56.6
		l67.9-67.9c3.9-3.9,8.1-7.3,12.5-10.2c5.1-3.4,10.6-6.1,16.3-8.2c5.3-1.9,10.8-3.3,16.5-4.1c3.7-0.5,7.4-0.8,11.2-0.8
		c1.7,0,3.4,0.1,5.1,0.2c19.5,1.2,37.6,9.3,51.5,23.1c13.8,13.8,21.9,32,23.1,51.5c5.4-1,10.7-2.7,15.6-5
		c-2.2-21.1-11.4-41.7-27.5-57.8c-16.1-16.1-36.6-25.3-57.8-27.5c-5.7-0.6-11.5-0.7-17.2-0.3c-6,0.4-11.9,1.4-17.7,3
		c-6.1,1.6-12.1,3.8-17.8,6.7c-9.1,4.5-17.7,10.5-25.3,18.1l-67.9,67.9c-37.3,37.3-37.3,98.4,0,135.8l0,0
		c37.3,37.3,98.4,37.3,135.8,0l67.9-67.9c7.6-7.6,13.6-16.1,18.1-25.3c-6.4,1-12.8,1.5-19.2,1.5
		C285.9,338.5,282.5,342.7,278.6,346.5z"/>
	<path d="M425.7,86.3L425.7,86.3c-37.3-37.3-98.4-37.3-135.8,0l-67.9,67.9c-7.6,7.6-13.6,16.1-18.1,25.3c6.4-1,12.8-1.5,19.2-1.5
		c2.9-4.5,6.3-8.7,10.2-12.5l67.9-67.9c15-15,35.1-23.3,56.6-23.3s41.5,8.3,56.6,23.3c15,15,23.3,35.1,23.3,56.6
		c0,21.4-8.3,41.5-23.3,56.6l-67.9,67.9c-3.9,3.9-8.1,7.3-12.5,10.2c-5.1,3.4-10.6,6.1-16.3,8.2c-5.3,1.9-10.8,3.3-16.5,4.1
		c-3.7,0.5-7.4,0.8-11.2,0.8c-1.7,0-3.4-0.1-5.1-0.2c-19.5-1.2-37.6-9.3-51.5-23.1c-13.8-13.8-21.9-32-23.1-51.5
		c-5.4,1-10.7,2.7-15.6,5c2.2,21.1,11.4,41.7,27.5,57.8l0,0c16.1,16.1,36.6,25.3,57.8,27.5c5.7,0.6,11.5,0.7,17.2,0.3
		c6-0.4,11.9-1.4,17.7-3c6.1-1.6,12.1-3.8,17.8-6.7c9.1-4.5,17.7-10.5,25.3-18.1l67.9-67.9C463,184.7,463,123.6,425.7,86.3z"/>
</g>
</svg>
