<?xml version="1.0" encoding="utf-8"?>
<!-- Generator: Adobe Illustrator 18.1.1, SVG Export Plug-In . SVG Version: 6.00 Build 0)  -->
<svg version="1.1" id="Layer_1" xmlns="http://www.w3.org/2000/svg" xmlns:xlink="http://www.w3.org/1999/xlink" x="0px" y="0px"
	 viewBox="0 0 512 512" enable-background="new 0 0 512 512" xml:space="preserve">
<g>
	<path d="M255.7,106.6C255.7,106.6,255.7,106.6,255.7,106.6l-0.2,0c-25,0-45.5-20.3-45.5-45.3S230.4,16,255.5,16S301,36.3,301,61.3
		c0,12.1-4.7,23.5-13.3,32C279.2,101.9,267.8,106.6,255.7,106.6z M255.5,32c-16.2,0-29.4,13.1-29.4,29.3s13.2,29.3,29.4,29.3l0.2,0
		c0,0,0,0,0,0c7.8,0,15.2-3,20.7-8.6c5.5-5.5,8.6-12.9,8.6-20.7C284.9,45.1,271.7,32,255.5,32z"/>
	<g>
		<path d="M221.2,496c-14.4,0-29-10.5-29-30.4l1-277.6h-6v105c0,9.3-4,15.1-7.4,18.3c-4.3,4.1-10.1,6.4-16.2,6.4s-11.9-2.3-16.2-6.4
			c-3.4-3.2-7.4-8.9-7.4-18.3V171.4c0-13.8,5.4-27.8,14.8-38.4c10.4-11.6,24.6-18,40-18h122.3c15.4,0,29.6,6.4,40,18.1
			c9.4,10.6,14.8,24.5,14.8,38.3V293c0,7.3-2.7,13.8-7.6,18.3c-4.4,4-10.3,6.2-16.5,6.2c-6.2,0-12.1-2.2-16.5-6.2
			c-4.9-4.5-7.6-11-7.6-18.3V188h-5v277.6c0,19.7-15.4,30.4-29.8,30.4c-13.4,0-28.3-9.3-29.4-29.8c0-0.1,0-0.3,0-0.4V325h-8v140.6
			c0,0.1,0,0.2,0,0.3C250.8,485.6,235.7,496,221.2,496z M179.2,172h22.1c2.1,0,4.2,0.8,5.7,2.4s2.4,3.5,2.3,5.7l-1,285.6
			c0,10.6,6.7,14.4,12.9,14.4c6.8,0,13.8-4.5,14.2-14.6V317c0-4.4,3.6-8,8-8h24.1c4.4,0,8,3.6,8,8v148.5
			c0.7,10.7,7.3,14.5,13.4,14.5c6.6,0,13.7-4.5,13.7-14.4V180c0-4.4,3.6-8,8-8h21.1c4.4,0,8,3.6,8,8v113c0,8.1,6.7,8.5,8,8.5
			c1.3,0,8-0.4,8-8.5V171.4c0-19.5-15.6-40.4-38.8-40.4H194.8c-18.6,0-38.8,15.4-38.8,40.4V293c0,8.2,6.3,8.6,7.5,8.6
			s7.5-0.4,7.5-8.6V180C171.1,175.6,174.7,172,179.2,172z"/>
	</g>
</g>
</svg>
