<?xml version="1.0" encoding="utf-8"?>
<!-- Generator: Adobe Illustrator 18.1.1, SVG Export Plug-In . SVG Version: 6.00 Build 0)  -->
<svg version="1.1" id="Layer_1" xmlns="http://www.w3.org/2000/svg" xmlns:xlink="http://www.w3.org/1999/xlink" x="0px" y="0px"
	 viewBox="0 0 512 512" enable-background="new 0 0 512 512" xml:space="preserve">
<path d="M448,272.8v-32l-33.3-8.7l-2.6-13.2l27.6-20.9l-12.2-29.6l-34.4,4.8l-7.5-10.6l17.7-29.7l-22.6-22.6l-30.2,17.4l-10.7-7.3
	l5.3-35L315.6,73L294,101.3l-12.3-2.6L273,64h-32l-9.2,34.9l-12.1,2.4l-21.5-29l-29.6,12.3l4.8,35.7l-11.7,7.2l-31.3-18.7
	l-22.6,22.6l18.8,31.5l-6.7,10.5l-35.5-5L72.3,198l28.9,21.7l-2.4,12.2L64,240.8v32l34.7,8.9l2.4,12.5l-28.4,21.3L85,345.1l35-5
	l7.1,11.3L109.2,382l22.6,22.6l30.2-18.2l11.2,7.3l-4.5,34.3l29.6,12.2l20.6-27.8l13.4,2.5l8.8,33.1h32l8.3-33.1l13.6-2.6l20.7,27.1
	l29.6-12.2l-5-33.7l10.2-7.4l29,16.9l22.6-22.6l-16.8-28.9l7.9-11.4l33.8,4.8l12.3-29.5L412,294.9l2.7-13.5L448,272.8z M128,256
	c0-70.7,57.3-128,128-128c7.5,0,14.8,0.7,22,1.9l-31.6,116.3l-116.5,31.6C128.6,270.7,128,263.4,128,256z M252,270l85.1,85
	c-22.1,18.1-50.3,29-81.1,29c-54.8,0-101.5-34.4-119.8-82.8L252,270z M300.8,136.1c48.6,18.2,83.2,65,83.2,119.9
	c0,31.2-11.1,59.7-29.7,81.9L269,253L300.8,136.1z"/>
</svg>
