<?xml version="1.0" encoding="utf-8"?>
<!-- Generator: Adobe Illustrator 18.1.1, SVG Export Plug-In . SVG Version: 6.00 Build 0)  -->
<svg version="1.1" id="Layer_1" xmlns="http://www.w3.org/2000/svg" xmlns:xlink="http://www.w3.org/1999/xlink" x="0px" y="0px"
	 viewBox="0 0 512 512" enable-background="new 0 0 512 512" xml:space="preserve">
<g>
	<path d="M255.8,68c30.2,24.1,58.1,54,83.1,89.2c41.1,57.7,61,111.4,61,164.3c0,69.7-64.6,126.4-144.1,126.4
		c-49.1,0-94.3-21.7-120.9-57.9c-5.4-7.3-9.9-15.1-13.4-23.1c-6.3-14.6-9.6-29.8-9.6-45.4c0-0.3,0-0.8,0-1.2c0-0.7,0.1-1.5,0.1-2.3
		c1-52.6,21-105.2,61.1-160.8C207.6,109.4,238.4,81.7,255.8,68 M256.1,48c-23.1,16-58.6,48.1-95.8,99.8s-62.9,107.8-64.1,170
		c0,1.2-0.1,2.5-0.1,3.7c0,18.3,3.9,35.8,10.9,51.8c4.1,9.3,9.2,18,15.2,26.2c28.5,38.8,77.8,64.4,133.8,64.4
		c88.4,0,160.1-63.8,160.1-142.4c0-63.4-27-121.6-64-173.6S279.5,65.5,256.1,48L256.1,48z"/>
	<path d="M265.9,411c-15.8,0-32.7-1.4-45.9-7.4c87-13.6,119-45.6,139.8-122.2c5.2,11.2,6.2,23.7,6.2,36.8
		C366,369.4,321.2,411,265.9,411z"/>
</g>
</svg>
