<?xml version="1.0" encoding="utf-8"?>
<!-- Generator: Adobe Illustrator 16.2.1, SVG Export Plug-In . SVG Version: 6.00 Build 0)  -->
<!DOCTYPE svg PUBLIC "-//W3C//DTD SVG 1.1//EN" "http://www.w3.org/Graphics/SVG/1.1/DTD/svg11.dtd">
<svg version="1.1" id="Layer_1" xmlns="http://www.w3.org/2000/svg" xmlns:xlink="http://www.w3.org/1999/xlink" x="0px" y="0px"
	 width="512px" height="512px" viewBox="0 0 512 512" enable-background="new 0 0 512 512" xml:space="preserve">
<g>
	<g>
		<path d="M116.932,62.929c46.044,0,88.767,4.997,127.047,14.925c52.027,13.492,93.783,35.708,124.139,66.064
			c23.85,23.85,42.785,54.928,56.296,92.386c10.997,30.49,18.433,65.216,22.106,103.216c4.587,47.436,2.085,88.297,0.34,107.348
			c-10.994,1.012-29.23,2.276-51.71,2.276c-46.048,0-88.806-5.034-127.083-14.958c-52.031-13.49-93.806-35.727-124.166-66.085
			c-23.85-23.851-42.793-54.937-56.304-92.395c-10.998-30.491-18.438-65.219-22.112-103.222
			c-4.586-47.435-2.086-88.228-0.342-107.276C76.137,64.194,94.374,63,116.857,63H117 M116.85,48
			c-38.926,0.001-65.191,3.658-65.191,3.658s-29.984,215.227,81.736,326.947C206.099,451.309,322.617,464,395.148,464
			c38.926,0,65.193-3.658,65.193-3.658s29.984-215.226-81.736-326.947C305.902,60.691,189.381,47.998,116.85,48L116.85,48z"/>
		
			<rect x="249.819" y="136.41" transform="matrix(0.7072 -0.707 0.707 0.7072 -106.5548 257.2143)" width="14.859" height="241.675"/>
		
			<rect x="129.251" y="32.937" transform="matrix(0.7071 0.7072 -0.7072 0.7071 136.6924 -56.6147)" width="14.858" height="207.483"/>
		
			<rect x="367.893" y="271.58" transform="matrix(0.7071 0.7071 -0.7071 0.7071 375.3462 -155.4639)" width="14.858" height="207.483"/>
	</g>
	<g>
		<rect x="163.147" y="123.147" transform="matrix(0.7071 0.7071 -0.7071 0.7071 171.1367 -70.8918)" width="16" height="96.001"/>
		
			<rect x="197.089" y="157.087" transform="matrix(0.7071 0.7071 -0.7071 0.7071 205.0755 -84.9506)" width="15.999" height="96.001"/>
		<rect x="231.029" y="191.03" transform="matrix(0.7071 0.7071 -0.7071 0.7071 239.0293 -99.0092)" width="16" height="95.999"/>
		<rect x="264.971" y="224.971" transform="matrix(0.7071 0.7071 -0.7071 0.7071 272.9707 -113.0681)" width="16" height="95.999"/>
		<rect x="298.911" y="258.912" transform="matrix(0.7071 0.7071 -0.7071 0.7071 306.9304 -127.127)" width="16" height="96"/>
		<rect x="332.852" y="292.853" transform="matrix(0.7071 0.7071 -0.7071 0.7071 340.8737 -141.1856)" width="16" height="95.999"/>
	</g>
</g>
</svg>
