<?xml version="1.0" encoding="utf-8"?>
<!-- Generator: Adobe Illustrator 18.1.1, SVG Export Plug-In . SVG Version: 6.00 Build 0)  -->
<svg version="1.1" id="Layer_1" xmlns="http://www.w3.org/2000/svg" xmlns:xlink="http://www.w3.org/1999/xlink" x="0px" y="0px"
	 viewBox="0 0 512 512" enable-background="new 0 0 512 512" xml:space="preserve">
<g>
	<path d="M431,320.6c0-4.4,1.2-8.6,3.3-12.2c0.6-1.1,1.4-2.1,2.1-3.1c17.4-26,27.6-57.1,27.6-90.3C464.3,122.8,386.5,48,290.3,48
		c-83.9,0-153.9,57.1-170.3,132.9c-2.4,11.1-3.7,22.4-3.7,34.2c0,92.3,74.8,169.1,171,169.1c15.3,0,35.9-4.6,47.2-7.7
		s22.5-7.2,25.4-8.3s6.1-1.7,9.3-1.7c3.6,0,7,0.7,10.1,2l56.7,20.1c0,0,2.4,1,3.9,1c4.4,0,8-3.5,8-8c0-1-0.5-2.7-0.5-2.7L431,320.6z
		 M385.1,353.6c-5-2-10.3-3.2-15.8-3.2c-4.1,0-10.1,0.8-12.2,1.6c-2.1,0.8-11.3,3.8-11.3,3.8c-4.2,1.4-9.9,3.8-15.2,5.1
		c-14,3.6-30.1,7.2-43.2,7.2c-41.9,0-81.1-16.1-110.3-45.3c-14.1-14.1-25.1-30.5-32.8-48.7c-7.9-18.8-11.9-38.7-11.9-59.1
		c0-10.2,1.1-20.6,3.3-30.8c7.2-33.4,26.5-63.8,54.2-85.7c13.8-10.9,29.4-19.5,46.1-25.4c17.4-6.1,35.7-9.2,54.4-9.2
		c22,0,43.3,4.2,63.3,12.6c19.3,8.1,36.4,19.6,51,34.2C432.7,139,448,176,448,215v0v0c0,28.9-8.6,57-24.7,81.2
		c-0.1,0.1-0.2,0.3-0.3,0.4c-0.7,0.9-1.6,2.2-2.5,3.8c-3.5,6.1-5.4,12.4-5.4,20.1c0,7.7,8.2,32.5,13,48.2L385.1,353.6z"/>
	<g>
		<path d="M305.3,395.7c-6.3,6.1-12.1,10.4-12.1,10.4c-24.9,20.2-56.4,31.4-89.5,31.4c-18.8,0-37.1-3.6-54.5-10.7
			c-0.4-0.2-0.8-0.3-1-0.4l0,0c-0.6-0.3-1.2-0.5-1.8-0.6c-7-2.3-14.7-2-21.4,0.7l-42.5,16.8l9.3-48.5c0.1-0.5,0.1-1,0.1-1.5
			c0-5.1-1.3-10-3.9-14.3l-0.4-0.7c-0.5-0.8-1-1.8-1.7-2.7c-14.4-21.7-22-46.9-22-72.9c0-30,10.6-62.8,37.8-92.9
			c0.6-4.3,1.3-8.6,2.3-12.8c1-4.5,2.2-9,3.5-13.4l-8,7.1C66.8,219.2,48,260,48,302.5c0,29.3,8.6,57.6,24.8,82
			c0.1,0.1,0.2,0.2,0.3,0.4c0.2,0.2,0.6,0.9,0.8,1.4c0.2,0.3,0.3,0.6,0.5,0.8c1,1.7,1.5,3.4,1.6,5.4l-11.9,62
			c-0.6,2.9,0.5,5.8,2.7,7.7c1.5,1.2,3.3,1.8,5.1,1.8c1,0,2-0.2,2.9-0.6l56.1-22.1c1.8-0.7,3.7-1.1,5.7-1.1c1.8,0,3.6,0.3,5.3,0.9
			c0.2,0.1,0.5,0.2,0.7,0.2l0,0c0.1,0.1,0.2,0.1,0.3,0.1c19.3,8,39.8,12,60.7,12c46.6,0,90.4-20.1,120.1-55.1c0,0,3.2-4.4,6.9-9.6
			c-3.8,1.2-8,2.5-12.2,3.7C314.8,393.5,310.3,394.6,305.3,395.7z"/>
	</g>
</g>
</svg>
