<?xml version="1.0" encoding="utf-8"?>
<!-- Generator: Adobe Illustrator 18.1.1, SVG Export Plug-In . SVG Version: 6.00 Build 0)  -->
<svg version="1.1" id="Layer_1" xmlns="http://www.w3.org/2000/svg" xmlns:xlink="http://www.w3.org/1999/xlink" x="0px" y="0px"
	 viewBox="0 0 512 512" enable-background="new 0 0 512 512" xml:space="preserve">
<path d="M256,48C141.1,48,48,141.1,48,256s93.1,208,208,208c114.9,0,208-93.1,208-208S370.9,48,256,48z M391.8,391.8
	c-17.6,17.6-38.2,31.5-61,41.2c-23.7,10-48.8,15.1-74.7,15.1V64c25.9,0,51.1,5.1,74.7,15.1c22.9,9.7,43.4,23.5,61,41.2
	c17.6,17.6,31.5,38.2,41.2,61c10,23.7,15.1,48.8,15.1,74.7s-5.1,51.1-15.1,74.7C423.2,353.6,409.4,374.1,391.8,391.8z"/>
</svg>
