<?xml version="1.0" encoding="utf-8"?>
<!-- Generator: Adobe Illustrator 18.1.1, SVG Export Plug-In . SVG Version: 6.00 Build 0)  -->
<svg version="1.1" id="Layer_1" xmlns="http://www.w3.org/2000/svg" xmlns:xlink="http://www.w3.org/1999/xlink" x="0px" y="0px"
	 viewBox="0 0 512 512" enable-background="new 0 0 512 512" xml:space="preserve">
<g>
	<path d="M288,400c0,17-14.4,32-32,32s-32.2-15-32.2-32h-16c0,26,21.6,47.9,48.1,47.9S304,426,304,400H288z"/>
	<path d="M373.9,229.2c0-99-49-132.8-94.9-140.5c0-0.6,0.1-1.1,0.1-1.7c0-12.7-10.3-23-23-23s-23,10.3-23,23c0,0.6,0,1.2,0.1,1.8
		c-45.9,7.8-94.9,41.9-94.9,140.7C138.1,345,115.6,352,80,384h352C396.6,352,373.9,344.9,373.9,229.2z M121.1,368
		c7.2-8,13.7-17.4,18.9-30c9.8-23.7,14.1-57.3,14.1-108.7c0-41.3,9-73.1,26.8-94.5c13.6-16.4,33.7-27.7,55.4-30.5
		c16.8-2.1,22.2-2.4,39.7,0c20.8,2.9,41.6,14,55.2,30.4c17.7,21.4,26.7,53.2,26.7,94.5c0,51.4,4.4,84.9,14.2,108.7
		c5.2,12.6,11.7,22.1,19,30.1H121.1z"/>
</g>
</svg>
