<?xml version="1.0" encoding="utf-8"?>
<!-- Generator: Adobe Illustrator 18.1.1, SVG Export Plug-In . SVG Version: 6.00 Build 0)  -->
<svg version="1.1" id="Layer_1" xmlns="http://www.w3.org/2000/svg" xmlns:xlink="http://www.w3.org/1999/xlink" x="0px" y="0px"
	 viewBox="0 0 512 512" enable-background="new 0 0 512 512" xml:space="preserve">
<g>
	<g>
		<path d="M365,388c30-35.2,47-84,47-132c0-48-15.6-92.3-41.9-128.1l-13.6,10.3c24.2,32.9,38.6,73.7,38.6,117.8
			s-14.4,84.9-38.6,117.8L365,388z"/>
		<path d="M351.2,256c0-35.9-12-69-32-95.8l-13.5,10.1c17.9,24,28.6,53.6,28.6,85.8c0,21.4-4.8,41.7-13.3,60l10.1,17.3
			C343.9,310.4,351.2,284.1,351.2,256z"/>
		<path d="M293.9,256c0-24-8.2-46-21.8-63.9l-13.5,9.8c8,10.4,13.7,22.5,16.5,35.7l18.1,30.8C293.7,264.4,293.9,260.2,293.9,256z"/>
		<polygon points="158.4,216 100,216 100,296 158.4,296 228,352 228,259.2 188.5,191.8 		"/>
	</g>
	<g>
		<polygon points="162.8,80 148,88.5 349.2,432 364,423.5 		"/>
	</g>
</g>
</svg>
