<?xml version="1.0" encoding="utf-8"?>
<!-- Generator: Adobe Illustrator 18.1.1, SVG Export Plug-In . SVG Version: 6.00 Build 0)  -->
<svg version="1.1" id="Layer_1" xmlns="http://www.w3.org/2000/svg" xmlns:xlink="http://www.w3.org/1999/xlink" x="0px" y="0px"
	 viewBox="0 0 512 512" enable-background="new 0 0 512 512" xml:space="preserve">
<g>
	<path d="M288.2,255.8c0-17.7-14.3-32-32-32s-32,14.3-32,32c0,17.7,14.3,32,32,32C273.9,287.8,288.2,273.5,288.2,255.8L288.2,255.8z
		"/>
	<path d="M288.2,128.2c0-17.7-14.3-32-32-32s-32,14.3-32,32s14.3,32,32,32S288.2,145.8,288.2,128.2L288.2,128.2z"/>
	<path d="M288.2,383.8c0-17.7-14.3-32-32-32c-17.7,0-32,14.3-32,32s14.3,32,32,32C273.9,415.8,288.2,401.5,288.2,383.8L288.2,383.8z
		"/>
</g>
</svg>
