<?xml version="1.0" encoding="utf-8"?>
<!-- Generator: Adobe Illustrator 18.1.1, SVG Export Plug-In . SVG Version: 6.00 Build 0)  -->
<svg version="1.1" id="Layer_1" xmlns="http://www.w3.org/2000/svg" xmlns:xlink="http://www.w3.org/1999/xlink" x="0px" y="0px"
	 viewBox="0 0 512 512" enable-background="new 0 0 512 512" xml:space="preserve">
<g>
	<g>
		<path d="M384,160c17.6,0,32-14.4,32-32s-14.4-32-32-32s-32,14.4-32,32S366.4,160,384,160z M384,112c8.8,0,16,7.2,16,16
			s-7.2,16-16,16s-16-7.2-16-16S375.2,112,384,112z"/>
	</g>
	<g>
		<path d="M448,64v130.7L201.3,441.4L70.6,310.7L317.3,64H448 M464,48H310.7L48,310.7L201.3,464L464,201.3V48L464,48z"/>
	</g>
</g>
</svg>
