<?xml version="1.0" encoding="utf-8"?>
<!-- Generator: Adobe Illustrator 16.2.1, SVG Export Plug-In . SVG Version: 6.00 Build 0)  -->
<!DOCTYPE svg PUBLIC "-//W3C//DTD SVG 1.1//EN" "http://www.w3.org/Graphics/SVG/1.1/DTD/svg11.dtd">
<svg version="1.1" id="Layer_1" xmlns="http://www.w3.org/2000/svg" xmlns:xlink="http://www.w3.org/1999/xlink" x="0px" y="0px"
	 width="512px" height="512px" viewBox="0 0 512 512" enable-background="new 0 0 512 512" xml:space="preserve">
<g>
	<path d="M115.078,403.078c9.287-9.287,17.596-19.322,24.895-30.021l-20.088-10.334l7.319-14.228l21.303,10.959
		c4.153-7.239,7.876-14.744,11.154-22.496c2.016-4.765,3.845-9.587,5.49-14.458l-23.087-4.44l3.022-15.712l24.606,4.732
		c3.545-14.033,5.592-28.431,6.141-43.08H152v-16h23.834c-0.533-14.235-2.489-28.23-5.854-41.888l-24.894,4.788l-3.022-15.712
		l23.47-4.515c-1.745-5.27-3.696-10.484-5.873-15.632c-3.134-7.408-6.681-14.586-10.612-21.526l-21.845,11.237l-7.319-14.228
		l20.725-10.662c-7.449-11.047-15.977-21.387-25.531-30.941c-1.016-1.016-2.045-2.014-3.078-3.006
		c-3.872-3.719-7.863-7.277-11.978-10.666C58.076,135.959,32,192.93,32,256s26.076,120.041,68.022,160.75
		c4.114-3.389,8.105-6.947,11.978-10.666C113.033,405.092,114.062,404.094,115.078,403.078z"/>
	<path d="M351.934,379.219L327.089,392l-7.319-14.229l23.807-12.246c-7.186-12.792-13.16-26.354-17.75-40.543l-26.854,5.166
		l-3.022-15.713l25.501-4.904c-3.597-14.663-5.743-29.893-6.292-45.531H288v-16h27.158c0.534-15.214,2.57-30.046,5.993-44.34
		l-25.202-4.848l3.022-15.713l26.49,5.096c4.523-14.255,10.438-27.888,17.578-40.748l-23.271-11.971l7.319-14.229l24.234,12.467
		c9.708-14.865,21.119-28.517,33.98-40.653c3.934-3.712,8.002-7.282,12.196-10.704C358.924,50.884,309.67,32,256,32
		c-54.837,0-105.062,19.717-144,52.432c4.122,3.463,8.117,7.072,11.978,10.818c11.592,11.25,21.964,23.746,30.917,37.266
		l21.901-11.268l7.319,14.229l-20.851,10.727c7.358,13.054,13.45,26.916,18.099,41.426l23.55-4.529l3.022,15.713l-22.237,4.277
		c3.507,14.472,5.603,29.492,6.144,44.91H216v16h-24.158c-0.557,15.842-2.758,31.263-6.44,46.102l22.534,4.334l-3.022,15.713
		l-23.938-4.604c-4.715,14.441-10.857,28.234-18.262,41.218l21.402,11.01L176.796,392l-22.526-11.589
		c-8.811,13.162-18.967,25.348-30.292,36.339c-3.86,3.746-7.855,7.355-11.978,10.818C150.938,460.283,201.163,480,256,480
		c53.67,0,102.924-18.884,141.5-50.357c-4.194-3.422-8.263-6.992-12.196-10.704C372.712,407.057,361.508,393.723,351.934,379.219z"
		/>
	<path d="M480,256c0-64.207-27.021-122.096-70.304-162.938c-4.187,3.331-8.252,6.835-12.196,10.502
		c-1.885,1.753-3.75,3.53-5.578,5.358c-9.897,9.897-18.683,20.645-26.318,32.14L384,150.525l-7.319,14.228l-19.424-9.992
		c-3.653,6.555-6.972,13.314-9.918,20.281c-2.255,5.33-4.265,10.733-6.056,16.196l20.537,3.95l-3.022,15.712l-21.917-4.215
		c-3.278,13.475-5.189,27.277-5.715,41.314H352v16h-20.834c0.541,14.451,2.545,28.655,6.003,42.508l21.629-4.16l3.022,15.712
		l-20.157,3.877c1.694,5.063,3.583,10.073,5.676,15.021c3.093,7.311,6.589,14.396,10.459,21.251l18.883-9.714L384,362.723
		l-17.783,9.148c7.49,11.146,16.074,21.576,25.705,31.207c1.828,1.828,3.693,3.605,5.578,5.358
		c3.944,3.667,8.01,7.171,12.196,10.502C452.979,378.096,480,320.207,480,256z"/>
	<polygon points="100.022,95.25 100.022,95.25 100.035,95.238 	"/>
	<polygon points="100.022,416.75 100.035,416.762 100.022,416.75 	"/>
	<polygon points="112,427.568 112,427.568 111.993,427.562 	"/>
	<polygon points="112,84.432 111.993,84.438 112,84.432 	"/>
	<polygon points="409.696,418.938 409.696,418.938 409.686,418.948 	"/>
	<polygon points="409.696,93.062 409.686,93.052 409.696,93.062 	"/>
	<polygon points="397.5,82.357 397.5,82.357 397.502,82.359 	"/>
	<polygon points="397.5,429.643 397.502,429.642 397.5,429.643 	"/>
</g>
</svg>
