<?xml version="1.0" encoding="utf-8"?>
<!-- Generator: Adobe Illustrator 16.2.1, SVG Export Plug-In . SVG Version: 6.00 Build 0)  -->
<!DOCTYPE svg PUBLIC "-//W3C//DTD SVG 1.1//EN" "http://www.w3.org/Graphics/SVG/1.1/DTD/svg11.dtd">
<svg version="1.1" id="Layer_1" xmlns="http://www.w3.org/2000/svg" xmlns:xlink="http://www.w3.org/1999/xlink" x="0px" y="0px"
	 width="512px" height="512px" viewBox="0 0 512 512" style="enable-background:new 0 0 512 512;" xml:space="preserve">
<g>
	<path d="M342.3,339.4c-7,6.5-14.7,12.1-23,16.9c-8.4,4.8-17.3,8.5-26.6,11.1c-9.3,2.6-19.1,4-29.2,4c-15.3,0-30.2-2.5-44.2-7.4
		c-13.7-4.8-25.9-12.1-36.1-21.6c-10.2-9.3-20.9-24.9-27.2-39.6c-5.5-12.8-7.8-26.6-7.8-47.9c0-15.1,3.5-31.8,9.5-46
		c5.8-13.6,13.9-25.6,24-35.6c10-9.9,22.2-18,36.3-24c12.6-5.3,27.5-7.9,45.6-7.9c14.3,0,28,2.3,40.5,6.8
		c12.2,4.4,22.9,10.7,31.8,18.8c8.2,7.5,13.3,16.6,18.7,28.9c4.7,10.5,6.5,19.8,6.5,34.3c0,11.8-2.1,23.1-6.2,33.4
		c-4.1,10.1-7.2,16.3-13.4,24c-6.5,7.8-10.1,12.1-17,16.1c-8,4.7-14.1,6.9-19,6.9c-3.9,0-5.1-0.9-5.2-1c-0.6-0.5-1.1-1.2-1.4-2.9
		c-0.3-2.3,0-5.4,0.9-8.9c1-4,2.5-7.8,4.7-13.1l40-107.4h-26.3l-4.6,12.2c-3.6-4.2-7.9-7.8-12.7-10.6c-11.4-6.6-21-9.3-33.2-9.3
		c-14.2,0-27.5,3.7-39.3,11c-11.5,7.1-21.4,16.3-29.3,27.3c-7.8,10.8-9.8,16.6-13.4,27.3l-0.6,1.8c-4.3,12.8-6.5,25.4-6.5,37.5
		c0,8.1,1.5,16,4.4,23.3c2.9,7.4,6.9,13.8,11.9,19c4.9,5.4,11,9.7,18.2,13c7,3.2,14.7,4.9,23,4.9c9.2,0,17.6-1.5,27.4-4.9
		c5.4-1.9,10.2-4.6,14.8-8.5c1,1.7,2.3,3.2,3.8,4.6c5.8,5.8,13.5,8.8,22.7,8.8c9.2,0,19.1-3.1,31-9.8c10.6-6,16.8-12.9,24.4-22
		c8.6-10.3,12.9-19.1,17.5-30.8c5.2-12.9,7.8-27,7.8-41.8c0-18.6-2.5-31.3-8.9-45.3c-6.8-14.8-13.7-26.7-25-36.7
		c-11.2-10-24.6-17.7-39.8-23.1c-15-5.3-31.1-7.9-48-7.9c-20.6,0-38.2,3.1-53.7,9.4c-16.8,6.8-31.7,16.4-44.3,28.4
		c-12.6,12.2-22.7,26.8-29.9,43.2c-7.5,17-11.7,37.6-11.7,56.7c0,25.7,3.2,43.7,10.7,60.1c8.3,18,21.8,36.5,34.3,47.3
		c13.1,11.4,28.1,19.8,44.6,25c16.3,5.2,33.2,7.9,50,7.9c11.5,0,23.3-1.6,35.1-4.7c11.9-3.3,23-7.8,33-13.5
		c10.2-5.7,20-12.8,29-21.2c9-8.4,19.2-21.5,22.8-27.9c1.9-3.5,3.1-6.1,3.7-7.7h-27.6C354.5,326.8,348.8,333.3,342.3,339.4z
		 M272.1,291.9c-4.5,5.7-7.4,9.1-10.9,11.4c-3.9,2.7-7,4.4-11,5.3l-0.1,0c-4,1-8.3,1.6-12.7,1.6c-5.1,0-9.7-0.9-13.8-2.7
		c-4.2-1.8-7.7-4.2-10.8-7.5c-3-3.2-5.5-7-7.3-11.4c-1.7-4.4-2.6-9.3-2.6-14.5c0-9,1.7-18.8,5.1-29c0.4-1.2,0.8-2.5,1.1-3.4
		c2.7-8.3,4.1-10.9,9.1-19.2c4.6-7.6,11.8-14.6,21.8-21.3c7.9-5.3,16.7-8,26.3-8c3.9,0,8,0.5,12.3,1.4c3.1,0.7,4.7,1.6,7.8,3.4
		l0.2,0.1c0.4,0.2,0.8,0.4,1.3,0.7l0.3,0.2c3.5,2,6.6,4.6,9.3,7.8c2.1,2.5,3.8,5.7,5.1,9.7L282.5,273
		C279.4,280.6,275.9,287,272.1,291.9z"/>
</g>
</svg>
