<?xml version="1.0" encoding="utf-8"?>
<!-- Generator: Adobe Illustrator 16.2.1, SVG Export Plug-In . SVG Version: 6.00 Build 0)  -->
<!DOCTYPE svg PUBLIC "-//W3C//DTD SVG 1.1//EN" "http://www.w3.org/Graphics/SVG/1.1/DTD/svg11.dtd">
<svg version="1.1" id="Layer_1" xmlns="http://www.w3.org/2000/svg" xmlns:xlink="http://www.w3.org/1999/xlink" x="0px" y="0px"
	 width="512px" height="512px" viewBox="0 0 512 512" enable-background="new 0 0 512 512" xml:space="preserve">
<g>
	<path d="M310.392,209.877c1.858,0.265,3.729,0.399,5.558,0.399c27.531,0,53.45-29.037,59.009-66.105
		c3.374-22.426-1.556-45.14-13.186-60.76c-8.015-10.766-18.443-17.338-30.165-19.007c-1.92-0.269-3.848-0.404-5.729-0.404
		C299.16,64,277.607,90.507,272,128c-3.666,24.333-0.78,48.949,10.918,64.663C290.166,202.398,299.666,208.351,310.392,209.877z"/>
	<path d="M459.828,203.5c-4.383-11.73-11.753-20.212-21.318-24.524c-4.389-1.975-8.994-2.976-13.688-2.976
		c-20.025,0-40.373,18.667-50.633,46.454c-12.697,34.42-5.314,68.135,17.174,78.423c4.521,2.071,9.365,3.123,14.393,3.123
		c20.396,0,41.127-17.119,51.582-42.596C465.238,242.121,466.168,220.477,459.828,203.5z"/>
	<path d="M54.663,261.404C65.118,286.881,85.847,304,106.244,304c5.028,0,9.871-1.052,14.394-3.123
		c22.488-10.288,29.871-44.003,17.173-78.423C127.55,194.667,107.204,176,87.178,176c-4.693,0-9.3,1.001-13.689,2.976
		c-9.565,4.312-16.934,12.794-21.317,24.524C45.832,220.477,46.761,242.121,54.663,261.404z"/>
	<path d="M196.531,210.27c1.857,0,3.725-0.132,5.552-0.393c10.73-1.526,20.234-7.48,27.484-17.219
		c11.699-15.714,14.098-39.623,10.433-63.953C234.384,91.212,213.314,64,186.597,64c-1.881,0-3.809,0.136-5.737,0.405
		c-11.715,1.675-22.144,8.253-30.159,19.023c-11.623,15.62-16.549,38.325-13.177,60.734
		C143.075,181.232,168.994,210.27,196.531,210.27z"/>
	<path d="M256,256c-64,0-128,71-128,138.003c0,19.993,10.932,36.075,21.667,42.664C162.925,444.805,172.269,448,191.704,448
		c23.093,0,29.325-7.409,40.136-13.945c7.819-4.728,14.572-8.811,24.161-8.811s16.342,4.083,24.16,8.811
		C290.972,440.591,297.203,448,320.297,448c19.434,0,28.778-3.195,42.036-11.333C373.068,430.078,384,413.996,384,394.003
		C384,327,320,256,256,256z"/>
</g>
</svg>
