<?xml version="1.0" encoding="utf-8"?>
<!-- Generator: Adobe Illustrator 16.2.1, SVG Export Plug-In . SVG Version: 6.00 Build 0)  -->
<!DOCTYPE svg PUBLIC "-//W3C//DTD SVG 1.1//EN" "http://www.w3.org/Graphics/SVG/1.1/DTD/svg11.dtd">
<svg version="1.1" id="Layer_1" xmlns="http://www.w3.org/2000/svg" xmlns:xlink="http://www.w3.org/1999/xlink" x="0px" y="0px"
	 width="512px" height="512px" viewBox="0 0 512 512" style="enable-background:new 0 0 512 512;" xml:space="preserve">
<g>
	<polygon points="368,400 96,400 96,144 304.1,144 320.1,128 80,128 80,416 384,416 384,191.9 368,207.9 	"/>
	<polygon points="237.6,284.1 227.9,274.4 399.2,103.1 387.9,91.7 208,271.7 208,304 240.2,304 420.3,124 408.9,112.7 	"/>
	<path d="M444.2,80.3l-12.5-12.5c-2.7-2.4-6.2-3.8-10-3.8s-7.3,1.5-9.9,3.8L399.7,80l0.1,0.1L411,91.4l21,21l12.2-12.2
		c2.4-2.6,3.8-6.1,3.8-9.9C448.1,86.5,446.6,83,444.2,80.3z"/>
</g>
</svg>
