<?xml version="1.0" encoding="utf-8"?>
<!-- Generator: Adobe Illustrator 16.2.1, SVG Export Plug-In . SVG Version: 6.00 Build 0)  -->
<!DOCTYPE svg PUBLIC "-//W3C//DTD SVG 1.1//EN" "http://www.w3.org/Graphics/SVG/1.1/DTD/svg11.dtd">
<svg version="1.1" id="Layer_1" xmlns="http://www.w3.org/2000/svg" xmlns:xlink="http://www.w3.org/1999/xlink" x="0px" y="0px"
	 width="512px" height="512px" viewBox="0 0 512 512" style="enable-background:new 0 0 512 512;" xml:space="preserve">
<g>
	<path d="M403.1,108.9c-81.2-81.2-212.9-81.2-294.2,0s-81.2,212.9,0,294.2c81.2,81.2,212.9,81.2,294.2,0S484.3,190.1,403.1,108.9z
		 M390.8,390.8c-74.3,74.3-195.3,74.3-269.6,0c-74.3-74.3-74.3-195.3,0-269.6s195.3-74.3,269.6,0
		C465.2,195.5,465.2,316.5,390.8,390.8z"/>
	<polygon points="340.4,159.4 255.6,244.1 171.2,159.8 159.4,171.6 243.7,256 159.4,340.4 171.2,352.2 255.6,267.9 340.4,352.6 
		352.2,340.8 267.5,256 352.2,171.2 	"/>
</g>
</svg>
