<?xml version="1.0" encoding="utf-8"?>
<!-- Generator: Adobe Illustrator 16.2.1, SVG Export Plug-In . SVG Version: 6.00 Build 0)  -->
<!DOCTYPE svg PUBLIC "-//W3C//DTD SVG 1.1//EN" "http://www.w3.org/Graphics/SVG/1.1/DTD/svg11.dtd">
<svg version="1.1" id="Layer_1" xmlns="http://www.w3.org/2000/svg" xmlns:xlink="http://www.w3.org/1999/xlink" x="0px" y="0px"
	 width="512px" height="512px" viewBox="0 0 512 512" enable-background="new 0 0 512 512" xml:space="preserve">
<path d="M409.696,93.062c-3.934-3.712-8.002-7.282-12.196-10.704C358.924,50.884,309.67,32,256,32
	c-54.837,0-105.062,19.717-144,52.432c-4.122,3.463-8.117,7.072-11.978,10.818C58.076,135.959,32,192.93,32,256
	s26.076,120.041,68.022,160.75c3.86,3.746,7.855,7.355,11.978,10.818C150.938,460.283,201.163,480,256,480
	c53.67,0,102.924-18.884,141.5-50.357c4.194-3.422,8.263-6.992,12.196-10.704C452.979,378.096,480,320.207,480,256
	S452.979,133.904,409.696,93.062z M403.078,108.922c19.107,19.107,34.107,41.354,44.583,66.12
	c9.809,23.191,15.228,47.699,16.173,72.958H331.166c0.945-25.259,6.364-49.767,16.173-72.958
	c10.476-24.767,25.476-47.013,44.583-66.12c1.828-1.828,3.693-3.605,5.578-5.358C399.385,105.316,401.25,107.094,403.078,108.922z
	 M385.304,93.062C343.828,132.2,317.301,186.996,315.158,248H264V48.166c25.259,0.946,49.767,6.364,72.958,16.173
	C354.397,71.715,370.58,81.344,385.304,93.062z M175.042,64.339C198.233,54.53,222.741,49.112,248,48.166V248h-56.158
	c-2.104-59.877-27.701-113.771-67.865-152.75C139.418,82.534,156.525,72.171,175.042,64.339z M108.922,108.922
	c1.016-1.016,2.045-2.014,3.078-3.006c1.033,0.992,2.062,1.99,3.078,3.006c19.107,19.107,34.107,41.354,44.583,66.12
	c9.809,23.191,15.227,47.699,16.173,72.958H48.166c0.946-25.259,6.364-49.767,16.173-72.958
	C74.814,150.275,89.814,128.029,108.922,108.922z M108.922,403.078c-19.107-19.107-34.107-41.354-44.583-66.12
	C54.53,313.767,49.112,289.259,48.166,264h127.669c-0.946,25.259-6.364,49.767-16.173,72.958
	c-10.476,24.767-25.476,47.013-44.583,66.12c-1.016,1.016-2.045,2.014-3.078,3.006C110.967,405.092,109.938,404.094,108.922,403.078
	z M123.978,416.75c40.164-38.979,65.761-92.873,67.865-152.75H248v199.834c-25.259-0.945-49.767-6.364-72.958-16.173
	C156.525,439.829,139.418,429.466,123.978,416.75z M336.958,447.661c-23.191,9.809-47.699,15.228-72.958,16.173V264h51.158
	c2.143,61.004,28.67,115.8,70.146,154.938C370.58,430.656,354.397,440.285,336.958,447.661z M403.078,403.078
	c-1.828,1.828-3.693,3.605-5.578,5.358c-1.885-1.753-3.75-3.53-5.578-5.358c-19.107-19.107-34.107-41.354-44.583-66.12
	c-9.809-23.191-15.228-47.699-16.173-72.958h132.668c-0.945,25.259-6.364,49.767-16.173,72.958
	C437.186,361.725,422.186,383.971,403.078,403.078z"/>
</svg>
