<?xml version="1.0" encoding="utf-8"?>
<!-- Generator: Adobe Illustrator 16.2.1, SVG Export Plug-In . SVG Version: 6.00 Build 0)  -->
<!DOCTYPE svg PUBLIC "-//W3C//DTD SVG 1.1//EN" "http://www.w3.org/Graphics/SVG/1.1/DTD/svg11.dtd">
<svg version="1.1" id="Layer_1" xmlns="http://www.w3.org/2000/svg" xmlns:xlink="http://www.w3.org/1999/xlink" x="0px" y="0px"
	 width="512px" height="512px" viewBox="0 0 512 512" enable-background="new 0 0 512 512" xml:space="preserve">
<g>
	<polygon points="184,240.306 208,320 304,320 328,240.306 256,192 	"/>
	<path d="M256,32C132.288,32,32,132.288,32,256s100.288,224,224,224s224-100.288,224-224S379.712,32,256,32z M420.161,383.761
		l-0.923-13.153l-69.456,24.308l-43.929,60.812l1.703,1.849C290.827,461.846,273.58,464,256,464
		c-17.585,0-34.838-2.156-51.572-6.428l1.734-1.845l-43.929-60.812l-69.456-24.308l-0.924,13.172
		c-11.174-14.313-20.393-29.982-27.515-46.821c-9.396-22.213-14.77-45.632-16.038-69.764l13.128,9.63L103,217.796v-78.138
		l-21.42,2.963c7.869-12.085,16.998-23.355,27.342-33.699c19.107-19.107,41.354-34.107,66.12-44.583
		c6.532-2.763,13.169-5.174,19.896-7.239L184.81,82.365L256,104l71.198-21.635l-10.122-25.262
		c6.723,2.064,13.355,4.475,19.882,7.235c24.767,10.476,47.013,25.476,66.12,44.583c10.344,10.344,19.473,21.614,27.342,33.699
		L409,139.658v78.138l41.579,59.028l13.12-9.621c-1.27,24.128-6.645,47.545-16.038,69.755
		C440.542,353.789,431.328,369.452,420.161,383.761z"/>
</g>
</svg>
