<?xml version="1.0" encoding="utf-8"?>
<!-- Generator: Adobe Illustrator 16.2.1, SVG Export Plug-In . SVG Version: 6.00 Build 0)  -->
<!DOCTYPE svg PUBLIC "-//W3C//DTD SVG 1.1//EN" "http://www.w3.org/Graphics/SVG/1.1/DTD/svg11.dtd">
<svg version="1.1" id="Layer_1" xmlns="http://www.w3.org/2000/svg" xmlns:xlink="http://www.w3.org/1999/xlink" x="0px" y="0px"
	 width="512px" height="512px" viewBox="0 0 512 512" enable-background="new 0 0 512 512" xml:space="preserve">
<g>
	<path d="M34.789,46.103c-2.371,24.035-6.671,87.665,4.832,157.962l76.566-76.564L34.789,46.103z"/>
	<path d="M304,315.313l-36.609,36.61l-11.314-11.314l36.609-36.61L272,283.313l-36.609,36.61l-11.314-11.314l36.609-36.61
		L240,251.313l-36.61,36.61l-11.314-11.314l36.61-36.61L208,219.313l-36.609,36.61l-11.314-11.314l36.609-36.61L127.5,138.813
		l-84.376,84.376c11.91,58.541,35.573,119.583,80.838,164.848c45.268,45.268,106.309,68.932,164.848,80.841l84.379-84.378
		L304,315.313z"/>
	<path d="M208,196.686l37.032-37.032l11.314,11.314L219.314,208L240,228.686l37.031-37.032l11.314,11.314L251.314,240L272,260.686
		l37.031-37.032l11.314,11.314L283.314,272L304,292.686l37.032-37.032l11.314,11.314L315.314,304l69.188,69.187l84.375-84.374
		c-11.91-58.541-35.574-119.584-80.839-164.849C342.771,78.697,281.73,55.032,223.192,43.122L138.813,127.5L208,196.686z"/>
	<path d="M307.934,472.381c35.824,5.861,69.917,7.619,97.92,7.619c26.955,0,48.257-1.628,60.044-2.791l-81.396-81.395
		L307.934,472.381z"/>
	<path d="M204.068,39.619c-35.825-5.862-69.919-7.62-97.923-7.619c-26.954,0-48.253,1.628-60.04,2.791l81.395,81.395L204.068,39.619
		z"/>
	<path d="M477.212,465.896c2.371-24.036,6.67-87.664-4.832-157.958L395.815,384.5L477.212,465.896z"/>
</g>
</svg>
