<?xml version="1.0" encoding="utf-8"?>
<!-- Generator: Adobe Illustrator 16.2.1, SVG Export Plug-In . SVG Version: 6.00 Build 0)  -->
<!DOCTYPE svg PUBLIC "-//W3C//DTD SVG 1.1//EN" "http://www.w3.org/Graphics/SVG/1.1/DTD/svg11.dtd">
<svg version="1.1" id="Layer_1" xmlns="http://www.w3.org/2000/svg" xmlns:xlink="http://www.w3.org/1999/xlink" x="0px" y="0px"
	 width="512px" height="512px" viewBox="0 0 512 512" enable-background="new 0 0 512 512" xml:space="preserve">
<path d="M256,32C132.288,32,32,132.288,32,256s100.288,224,224,224s224-100.288,224-224S379.712,32,256,32z M463.699,267.203
	l-13.12,9.621L409,217.796v-78.138l21.417,2.958c6.669,10.241,12.438,21.064,17.244,32.426C458.503,200.675,464,227.913,464,256
	C464,259.75,463.895,263.484,463.699,267.203z M208,320l-24-79.694L256,192l72,48.306L304,320H208z M317.076,57.104l10.122,25.262
	L256,104l-71.19-21.635L194.938,57.1C214.612,51.057,235.07,48,256,48C276.936,48,297.397,51.059,317.076,57.104z M64.339,175.042
	c4.805-11.359,10.573-22.182,17.241-32.421l21.42-2.963v78.138l-41.571,59.028l-13.128-9.63C48.105,263.479,48,259.748,48,256
	C48,227.913,53.497,200.675,64.339,175.042z M108.922,403.078c-6.173-6.173-11.91-12.679-17.212-19.486l1.067-12.984l69.456,24.308
	l43.929,60.812l-1.732,1.845c-9.994-2.552-19.804-5.857-29.388-9.911C150.275,437.186,128.029,422.186,108.922,403.078z
	 M403.078,403.078c-19.107,19.107-41.354,34.107-66.12,44.583c-9.589,4.056-19.403,7.362-29.401,9.915l-1.703-1.849l43.929-60.812
	l69.456-24.308l0.923,13.153C414.896,390.507,409.201,396.955,403.078,403.078z"/>
</svg>
