<?xml version="1.0" encoding="utf-8"?>
<!-- Generator: Adobe Illustrator 16.2.1, SVG Export Plug-In . SVG Version: 6.00 Build 0)  -->
<!DOCTYPE svg PUBLIC "-//W3C//DTD SVG 1.1//EN" "http://www.w3.org/Graphics/SVG/1.1/DTD/svg11.dtd">
<svg version="1.1" id="Layer_1" xmlns="http://www.w3.org/2000/svg" xmlns:xlink="http://www.w3.org/1999/xlink" x="0px" y="0px"
	 width="512px" height="512px" viewBox="0 0 512 512" style="enable-background:new 0 0 512 512;" xml:space="preserve">
<g>
	<path d="M423.3,199.4c-15.9-15.1-37.1-23.4-59.7-23.4c-22.6,0-43.8,8.3-59.7,23.4l-36.2,34.3l11.7,11.2l36.2-34.4
		c12.8-12.1,29.8-18.8,47.9-18.8c18.1,0,35.1,6.7,47.9,18.8c26.4,25.1,26.4,65.9,0,90.9c-12.8,12.1-29.8,18.8-47.9,18.8
		c-18.1,0-35.1-6.7-47.9-18.8l-107.6-102c-16-15.1-37.2-23.4-59.7-23.4c-22.6,0-43.8,8.3-59.7,23.4c-32.9,31.2-32.9,81.9,0,113.1
		c15.9,15.1,37.1,23.4,59.7,23.4c22.6,0,43.8-8.3,59.7-23.4l36.1-34.3l-11.7-11.1l-36.2,34.3c-12.8,12.1-29.8,18.8-47.9,18.8
		c-18.1,0-35.1-6.7-47.9-18.8c-26.4-25.1-26.4-65.9,0-90.9c12.8-12.1,29.8-18.8,47.9-18.8c18.1,0,35.1,6.7,47.9,18.8l107.6,102
		c16,15.1,37.2,23.4,59.7,23.4c22.6,0,43.8-8.3,59.7-23.4C456.2,281.4,456.2,230.6,423.3,199.4z"/>
</g>
</svg>
