<?xml version="1.0" encoding="utf-8"?>
<!-- Generator: Adobe Illustrator 16.2.1, SVG Export Plug-In . SVG Version: 6.00 Build 0)  -->
<!DOCTYPE svg PUBLIC "-//W3C//DTD SVG 1.1//EN" "http://www.w3.org/Graphics/SVG/1.1/DTD/svg11.dtd">
<svg version="1.1" id="Layer_1" xmlns="http://www.w3.org/2000/svg" xmlns:xlink="http://www.w3.org/1999/xlink" x="0px" y="0px"
	 width="512px" height="512px" viewBox="0 0 512 512" enable-background="new 0 0 512 512" xml:space="preserve">
<g>
	<path d="M96,32v16v368h16V48h352v401.143c0,8.205-6.652,14.857-14.857,14.857H62.857C54.652,464,48,457.348,48,449.143V112h32V96
		H32v353.143C32,466.157,45.843,480,62.857,480h386.285C466.157,480,480,466.157,480,449.143V48V32H96z"/>
	<rect x="160" y="96" width="128" height="16"/>
	<rect x="160" y="192" width="256" height="16"/>
	<rect x="160" y="288" width="224" height="16"/>
	<rect x="160" y="384" width="256" height="16"/>
</g>
</svg>
