<?xml version="1.0" encoding="utf-8"?>
<!-- Generator: Adobe Illustrator 16.2.1, SVG Export Plug-In . SVG Version: 6.00 Build 0)  -->
<!DOCTYPE svg PUBLIC "-//W3C//DTD SVG 1.1//EN" "http://www.w3.org/Graphics/SVG/1.1/DTD/svg11.dtd">
<svg version="1.1" id="Layer_1" xmlns="http://www.w3.org/2000/svg" xmlns:xlink="http://www.w3.org/1999/xlink" x="0px" y="0px"
	 width="512px" height="512px" viewBox="0 0 512 512" style="enable-background:new 0 0 512 512;" xml:space="preserve">
<g>
	<polygon points="213.5,384 270.5,308 238.3,308 	"/>
	<path d="M328.4,176.7c-2.7,0-5.4,0-8,0.3c-7.9-35-39.1-61.4-76.4-61.4c-43.3,0-78.3,35.2-78.3,78.5c0,2.6,0.1,5.2,0.4,7.8
		c-26.4,2.3-47.1,25.7-47.1,52.8c0,28.6,23.2,53.3,51.7,53.3h7.3h4h56.3l5.5-17h-41.3l22-99h53l-20,64h52l-39,52h57.9
		c35.7,0,64.6-30.1,64.6-65.9C393,206.4,364.1,176.7,328.4,176.7z"/>
</g>
</svg>
