<?xml version="1.0" encoding="utf-8"?>
<!-- Generator: Adobe Illustrator 16.2.1, SVG Export Plug-In . SVG Version: 6.00 Build 0)  -->
<!DOCTYPE svg PUBLIC "-//W3C//DTD SVG 1.1//EN" "http://www.w3.org/Graphics/SVG/1.1/DTD/svg11.dtd">
<svg version="1.1" id="Layer_1" xmlns="http://www.w3.org/2000/svg" xmlns:xlink="http://www.w3.org/1999/xlink" x="0px" y="0px"
	 width="512px" height="512px" viewBox="0 0 512 512" enable-background="new 0 0 512 512" xml:space="preserve">
<path d="M388.037,123.964C309.741,45.668,184.256,31.998,106.146,32c-41.92,0.001-70.206,3.939-70.206,3.939
	S3.649,267.723,123.963,388.037C202.26,466.333,327.742,480,405.853,480c41.92,0,70.208-3.939,70.208-3.939
	S508.352,244.279,388.037,123.964z M395.814,384.5l62.509-62.508c1.104,7.84,2.057,15.821,2.843,23.948
	c4.217,43.61,2.873,82.05,1.221,105.132L395.814,384.5z M376.703,135.277c25.685,25.685,46.096,59.162,60.646,99.502
	c7.51,20.821,13.476,43.483,17.849,67.711l-70.696,70.696L315.314,304l37.031-37.032l-11.314-11.314L304,292.686L283.314,272
	l37.031-37.032l-11.314-11.314L272,260.686L251.314,240l37.032-37.032l-11.314-11.314L240,228.686L219.314,208l37.032-37.032
	l-11.315-11.314L208,196.686L138.814,127.5l70.707-70.706c11.468,2.078,22.634,4.511,33.456,7.318
	C299.007,78.643,344.012,102.586,376.703,135.277z M50.829,166.061c-4.217-43.613-2.871-82.055-1.218-105.136l66.575,66.575
	l-62.515,62.515C52.568,182.172,51.615,174.189,50.829,166.061z M60.913,49.599c11.626-0.838,27.134-1.598,45.191-1.599
	c29.292,0.001,57.351,1.909,83.919,5.663L127.5,116.187L60.913,49.599z M135.277,376.724
	c-25.685-25.685-46.085-59.162-60.635-99.502c-7.51-20.819-13.473-43.48-17.845-67.705l70.704-70.703L196.686,208l-36.61,36.61
	l11.314,11.314l36.61-36.61L228.686,240l-36.61,36.61l11.314,11.314l36.61-36.61l20.685,20.685l-36.609,36.61l11.314,11.314
	L272,283.313l20.686,20.686l-36.609,36.61l11.314,11.314L304,315.313l69.187,69.187l-70.714,70.714
	c-11.475-2.078-22.647-4.513-33.479-7.321C212.96,433.363,167.972,409.418,135.277,376.724z M405.852,464
	c-29.289,0-57.329-1.906-83.881-5.656l62.53-62.529l66.587,66.587C439.451,463.24,423.928,464,405.852,464z"/>
</svg>
