<?xml version="1.0" encoding="utf-8"?>
<!-- Generator: Adobe Illustrator 16.2.1, SVG Export Plug-In . SVG Version: 6.00 Build 0)  -->
<!DOCTYPE svg PUBLIC "-//W3C//DTD SVG 1.1//EN" "http://www.w3.org/Graphics/SVG/1.1/DTD/svg11.dtd">
<svg version="1.1" id="Layer_1" xmlns="http://www.w3.org/2000/svg" xmlns:xlink="http://www.w3.org/1999/xlink" x="0px" y="0px"
	 width="512px" height="512px" viewBox="0 0 512 512" enable-background="new 0 0 512 512" xml:space="preserve">
<g>
	<path d="M191.842,248H248V32.157c-51.715,1.816-98.965,21.157-136,52.274c4.122,3.463,8.117,7.072,11.978,10.818
		C164.142,134.229,189.738,188.123,191.842,248z"/>
	<path d="M315.158,248c2.143-61.004,28.67-115.8,70.146-154.938c3.934-3.712,8.002-7.282,12.196-10.704
		c-36.65-29.902-82.943-48.424-133.5-50.2V248H315.158z"/>
	<path d="M391.922,108.922c-19.107,19.107-34.107,41.354-44.583,66.12c-9.81,23.191-15.228,47.699-16.173,72.958h148.677
		c-2.143-61.005-28.671-115.801-70.146-154.938c-4.187,3.331-8.252,6.835-12.196,10.502
		C395.615,105.316,393.75,107.094,391.922,108.922z"/>
	<path d="M159.661,175.042c-10.476-24.767-25.476-47.013-44.583-66.12c-1.016-1.016-2.045-2.014-3.078-3.006
		c-3.872-3.719-7.863-7.277-11.978-10.666C59.858,134.229,34.261,188.123,32.157,248h143.677
		C174.888,222.741,169.47,198.233,159.661,175.042z"/>
	<path d="M315.158,264H264v215.843c50.557-1.776,96.85-20.298,133.5-50.2c-4.194-3.422-8.263-6.992-12.196-10.704
		C343.828,379.8,317.301,325.004,315.158,264z"/>
	<path d="M115.078,403.078c19.107-19.107,34.107-41.354,44.583-66.12c9.809-23.191,15.227-47.699,16.173-72.958H32.157
		c2.104,59.877,27.701,113.771,67.865,152.75c4.114-3.389,8.105-6.947,11.978-10.666
		C113.033,405.092,114.062,404.094,115.078,403.078z"/>
	<path d="M347.339,336.958c10.476,24.767,25.476,47.013,44.583,66.12c1.828,1.828,3.693,3.605,5.578,5.358
		c3.944,3.667,8.01,7.171,12.196,10.502C451.172,379.801,477.7,325.005,479.843,264H331.166
		C332.111,289.259,337.529,313.767,347.339,336.958z"/>
	<path d="M191.842,264c-2.104,59.877-27.701,113.771-67.865,152.75c-3.86,3.746-7.855,7.355-11.978,10.818
		c37.035,31.117,84.285,50.458,136,52.274V264H191.842z"/>
	<polygon points="100.022,416.75 100.035,416.762 100.022,416.75 	"/>
	<polygon points="409.696,418.938 409.696,418.938 409.686,418.948 	"/>
	<polygon points="100.022,95.25 100.022,95.25 100.035,95.238 	"/>
	<polygon points="112,427.568 112,427.568 111.993,427.562 	"/>
	<polygon points="397.5,429.643 397.502,429.642 397.5,429.643 	"/>
	<polygon points="112,84.432 111.993,84.438 112,84.432 	"/>
	<polygon points="397.5,82.357 397.5,82.357 397.502,82.359 	"/>
	<polygon points="409.696,93.062 409.686,93.052 409.696,93.062 	"/>
</g>
</svg>
