<?xml version="1.0" encoding="utf-8"?>
<!-- Generator: Adobe Illustrator 16.2.1, SVG Export Plug-In . SVG Version: 6.00 Build 0)  -->
<!DOCTYPE svg PUBLIC "-//W3C//DTD SVG 1.1//EN" "http://www.w3.org/Graphics/SVG/1.1/DTD/svg11.dtd">
<svg version="1.1" id="Layer_1" xmlns="http://www.w3.org/2000/svg" xmlns:xlink="http://www.w3.org/1999/xlink" x="0px" y="0px"
	 width="512px" height="512px" viewBox="0 0 512 512" enable-background="new 0 0 512 512" xml:space="preserve">
<path d="M409.696,93.062c-3.934-3.712-8.002-7.282-12.196-10.704C358.924,50.884,309.67,32,256,32
	c-54.837,0-105.062,19.717-144,52.432c-4.122,3.463-8.117,7.072-11.978,10.818C58.076,135.959,32,192.93,32,256
	s26.076,120.041,68.022,160.75c3.86,3.746,7.855,7.355,11.978,10.818C150.938,460.283,201.163,480,256,480
	c53.67,0,102.924-18.884,141.5-50.357c4.194-3.422,8.263-6.992,12.196-10.704C452.979,378.096,480,320.207,480,256
	S452.979,133.904,409.696,93.062z M108.922,403.078c-19.107-19.107-34.107-41.354-44.583-66.12C53.497,311.325,48,284.087,48,256
	s5.497-55.325,16.339-80.958c10.476-24.767,25.476-47.013,44.583-66.12c1.016-1.016,2.045-2.014,3.078-3.006
	c1.033,0.992,2.062,1.99,3.078,3.006c19.107,19.107,34.107,41.354,44.583,66.12C170.503,200.675,176,227.913,176,256
	s-5.497,55.325-16.339,80.958c-10.476,24.767-25.476,47.013-44.583,66.12c-1.016,1.016-2.045,2.014-3.078,3.006
	C110.967,405.092,109.938,404.094,108.922,403.078z M336.958,447.661C311.325,458.503,284.087,464,256,464
	s-55.325-5.497-80.958-16.339c-18.517-7.832-35.624-18.195-51.064-30.911C165.924,376.041,192,319.07,192,256
	s-26.076-120.041-68.022-160.75c15.44-12.716,32.548-23.079,51.064-30.911C200.675,53.497,227.913,48,256,48
	s55.325,5.497,80.958,16.339c17.439,7.376,33.622,17.005,48.346,28.723C342.021,133.904,315,191.793,315,256
	s27.021,122.096,70.304,162.938C370.58,430.656,354.397,440.285,336.958,447.661z M403.078,403.078
	c-1.828,1.828-3.693,3.605-5.578,5.358c-1.885-1.753-3.75-3.53-5.578-5.358c-19.107-19.107-34.107-41.354-44.583-66.12
	C336.497,311.325,331,284.087,331,256s5.497-55.325,16.339-80.958c10.476-24.767,25.476-47.013,44.583-66.12
	c1.828-1.828,3.693-3.605,5.578-5.358c1.885,1.753,3.75,3.53,5.578,5.358c19.107,19.107,34.107,41.354,44.583,66.12
	C458.503,200.675,464,227.913,464,256s-5.497,55.325-16.339,80.958C437.186,361.725,422.186,383.971,403.078,403.078z"/>
</svg>
