<?xml version="1.0" encoding="utf-8"?>
<!-- Generator: Adobe Illustrator 16.2.1, SVG Export Plug-In . SVG Version: 6.00 Build 0)  -->
<!DOCTYPE svg PUBLIC "-//W3C//DTD SVG 1.1//EN" "http://www.w3.org/Graphics/SVG/1.1/DTD/svg11.dtd">
<svg version="1.1" id="Layer_1" xmlns="http://www.w3.org/2000/svg" xmlns:xlink="http://www.w3.org/1999/xlink" x="0px" y="0px"
	 width="512px" height="512px" viewBox="0 0 512 512" style="enable-background:new 0 0 512 512;" xml:space="preserve">
<g>
	<g>
		<path d="M360,224v-72c0-57.4-46.6-104-104-104c-57.5,0-104,46.6-104,104v72H96v240h320V224H360z M168,152c0-48.5,39.5-88,88-88
			c48.5,0,88,39.5,88,88v72H168V152z M400,448H112V240h288V448z"/>
	</g>
	<path d="M288,320c0-17.7-14.3-32-32-32s-32,14.3-32,32c0,14.9,10.2,27.4,24,31v41c0,4.4,3.6,8,8,8s8-3.6,8-8v-41
		C277.8,347.4,288,334.9,288,320z M256,336c-8.8,0-16-7.2-16-16s7.2-16,16-16s16,7.2,16,16S264.8,336,256,336z"/>
</g>
</svg>
