<?xml version="1.0" encoding="utf-8"?>
<!-- Generator: Adobe Illustrator 16.2.1, SVG Export Plug-In . SVG Version: 6.00 Build 0)  -->
<!DOCTYPE svg PUBLIC "-//W3C//DTD SVG 1.1//EN" "http://www.w3.org/Graphics/SVG/1.1/DTD/svg11.dtd">
<svg version="1.1" id="Layer_1" xmlns="http://www.w3.org/2000/svg" xmlns:xlink="http://www.w3.org/1999/xlink" x="0px" y="0px"
	 width="512px" height="512px" viewBox="0 0 512 512" style="enable-background:new 0 0 512 512;" xml:space="preserve">
<g>
	<g id="PL_x5F_Tag_1_">
		<path d="M207.1,80c6.1,0.1,11.9,2.5,16.2,6.8l203.9,213.6l0.1,0.1l0.1,0.1c2.9,2.9,4.5,6.9,4.5,11.2c0,4.3-1.6,8.2-4.5,11.1
			L323,427.5c-2.9,2.9-6.9,4.5-11.1,4.5c-4.3,0-8.3-1.6-11.2-4.5l-0.1-0.1l-0.1-0.1L86.6,220.2c-4.3-4.5-6.6-10.3-6.6-16.4V95.8
			C80,87.1,87.1,80,95.8,80H207.1 M207.2,64H95.8C78.2,64,64,78.2,64,95.8v108.1c0,10.8,4.3,20.5,11.3,27.7l214,207.2
			c6.1,6.1,14.3,9.2,22.5,9.2c8.1,0,16.3-3,22.5-9.2l104.5-104.4c6.2-6.2,9.2-14.3,9.2-22.5c0-8.2-3.1-16.4-9.2-22.5l-204-213.8
			C227.1,68,217.2,64.1,207.2,64L207.2,64z"/>
	</g>
	<path d="M160,128c17.7,0,32,14.3,32,32s-14.3,32-32,32s-32-14.3-32-32S142.3,128,160,128 M160,112c-26.5,0-48,21.5-48,48
		s21.5,48,48,48s48-21.5,48-48S186.5,112,160,112L160,112z"/>
</g>
</svg>
