<?xml version="1.0" encoding="utf-8"?>
<!-- Generator: Adobe Illustrator 16.2.1, SVG Export Plug-In . SVG Version: 6.00 Build 0)  -->
<!DOCTYPE svg PUBLIC "-//W3C//DTD SVG 1.1//EN" "http://www.w3.org/Graphics/SVG/1.1/DTD/svg11.dtd">
<svg version="1.1" id="Layer_1" xmlns="http://www.w3.org/2000/svg" xmlns:xlink="http://www.w3.org/1999/xlink" x="0px" y="0px"
	 width="512px" height="512px" viewBox="0 0 512 512" style="enable-background:new 0 0 512 512;" xml:space="preserve">
<g>
	<path d="M305,244.4c13.9,0,27,4.7,37.8,13.5c10.5,8.6,17.9,20.5,20.8,33.7l3,13.5l13.6-1.7c2-0.3,3.9-0.4,5.8-0.4
		c25.9,0,46.9,22.3,46.9,48.5c0,26.2-21,48.5-46.9,48.5H234.5c-9.2,0-17.8-4.7-24.4-11.4c-6.6-6.7-10.2-16.1-10.2-25.5
		c0-18,13.9-32.9,31.9-35.9c1.6-0.3,8.4-1.3,13.7-1.8c0,0-0.5-5.2-0.6-9.4c-0.1-4.2-0.1-9.1-0.1-11.1
		C244.9,271.5,271.8,244.4,305,244.4 M305,229c-41.5,0-75.2,34-75.2,75.9c0,2.5,0.1,5.1,0.4,7.5c-25.4,2.3-45.2,25.4-45.2,51.5
		c0,27.7,22.2,52,49.7,52H386c34.3,0,62-29.6,62-64.2s-27.8-63.5-62-63.5c-2.6,0-5.2-0.2-7.7,0.1C370.7,254.7,340.8,229,305,229
		L305,229z"/>
	<g>
		<rect x="208" y="96" width="16" height="55"/>
		<rect x="64" y="246" width="56" height="17"/>
		<polygon points="110.3,155.9 121.5,144.6 153.4,176.7 142.2,188 		"/>
		<polygon points="288.1,187.9 276.9,176.7 308.7,144.6 319.9,155.9 		"/>
		<polygon points="121.5,355.5 110.3,344.2 142.2,312.1 153.4,323.4 		"/>
	</g>
	<g>
		<path d="M194.7,302c-20.6-8.2-35.2-28.4-35.2-52c0-30.8,24.9-55.9,55.6-55.9c15.9,0,30.2,6.7,40.3,17.5c4.8-3.5,9.7-6.3,13.9-8.3
			c-13.1-15.3-32.5-25.1-54.2-25.1c-39.4,0-71.4,32.2-71.4,71.8c0,27.8,15.8,52,38.9,63.9C186.3,308.7,190.6,304.8,194.7,302z"/>
	</g>
</g>
</svg>
