<?xml version="1.0" encoding="utf-8"?>
<!-- Generator: Adobe Illustrator 16.2.1, SVG Export Plug-In . SVG Version: 6.00 Build 0)  -->
<!DOCTYPE svg PUBLIC "-//W3C//DTD SVG 1.1//EN" "http://www.w3.org/Graphics/SVG/1.1/DTD/svg11.dtd">
<svg version="1.1" id="Layer_1" xmlns="http://www.w3.org/2000/svg" xmlns:xlink="http://www.w3.org/1999/xlink" x="0px" y="0px"
	 width="512px" height="512px" viewBox="0 0 512 512" style="enable-background:new 0 0 512 512;" xml:space="preserve">
<path d="M273.5,269.2c10.1-6.7,23.1-15.2,44.5-30.5c18.6-13.2,49.9-36.4,49.9-97.4c0-49.3-28.7-93.3-28.7-93.3H172.9
	c0,0-28.8,44.4-28.8,93.8c0,61,31.2,84.1,49.7,97.3c21.4,15.2,35,24.6,43.7,30.3c5,3.3,10.5,14.1,10.5,18.6l0,160h-73v16h160v-16
	h-71V288C264,283,268.6,272.5,273.5,269.2z M184.1,64H328c7.4,0,24,44.5,24,77.3c0,0.9,0,1.8,0,2.7H160.1c0-0.7,0-1.5,0-2.2
	C160.1,108.9,176.7,77,184.1,64z M256.1,256c-5.7,0-11-1.5-15.7-4.1c-7.9-5.3-19.9-13.5-37.3-25.9c-7.6-5.4-19-13.6-27.8-26.7
	c-7.4-11.1-12.1-24-14.1-39.2h189.6c-5.4,39.9-27.8,55.8-41.9,65.8c-15,10.7-25.7,18.3-34.3,24.2C269.4,253.8,263,256,256.1,256z"/>
</svg>
