<?xml version="1.0" encoding="utf-8"?>
<!-- Generator: Adobe Illustrator 16.2.1, SVG Export Plug-In . SVG Version: 6.00 Build 0)  -->
<!DOCTYPE svg PUBLIC "-//W3C//DTD SVG 1.1//EN" "http://www.w3.org/Graphics/SVG/1.1/DTD/svg11.dtd">
<svg version="1.1" id="Layer_1" xmlns="http://www.w3.org/2000/svg" xmlns:xlink="http://www.w3.org/1999/xlink" x="0px" y="0px"
	 width="512px" height="512px" viewBox="0 0 512 512" enable-background="new 0 0 512 512" xml:space="preserve">
<g>
	<path d="M315,256c0-64.207,27.021-122.096,70.304-162.938c3.934-3.712,8.002-7.282,12.196-10.704C358.924,50.884,309.67,32,256,32
		c-54.837,0-105.062,19.717-144,52.432c4.122,3.463,8.117,7.072,11.978,10.818C165.924,135.959,192,192.93,192,256
		s-26.076,120.041-68.022,160.75c-3.86,3.746-7.855,7.355-11.978,10.818C150.938,460.283,201.163,480,256,480
		c53.67,0,102.924-18.884,141.5-50.357c-4.194-3.422-8.263-6.992-12.196-10.704C342.021,378.096,315,320.207,315,256z"/>
	<path d="M480,256c0-64.207-27.021-122.096-70.304-162.938c-4.187,3.331-8.252,6.835-12.196,10.502
		c-1.885,1.753-3.75,3.53-5.578,5.358c-19.107,19.107-34.107,41.354-44.583,66.12C336.497,200.675,331,227.913,331,256
		s5.497,55.325,16.339,80.958c10.476,24.767,25.476,47.013,44.583,66.12c1.828,1.828,3.693,3.605,5.578,5.358
		c3.944,3.667,8.01,7.171,12.196,10.502C452.979,378.096,480,320.207,480,256z"/>
	<path d="M115.078,403.078c19.107-19.107,34.107-41.354,44.583-66.12C170.503,311.325,176,284.087,176,256
		s-5.497-55.325-16.339-80.958c-10.476-24.767-25.476-47.013-44.583-66.12c-1.016-1.016-2.045-2.014-3.078-3.006
		c-3.872-3.719-7.863-7.277-11.978-10.666C58.076,135.959,32,192.93,32,256s26.076,120.041,68.022,160.75
		c4.114-3.389,8.105-6.947,11.978-10.666C113.033,405.092,114.062,404.094,115.078,403.078z"/>
	<polygon points="100.022,95.25 100.022,95.25 100.035,95.238 	"/>
	<polygon points="112,427.568 112,427.568 111.993,427.562 	"/>
	<polygon points="100.022,416.75 100.035,416.762 100.022,416.75 	"/>
	<polygon points="112,84.432 111.993,84.438 112,84.432 	"/>
	<polygon points="409.696,418.938 409.696,418.938 409.686,418.948 	"/>
	<polygon points="397.5,429.643 397.502,429.642 397.5,429.643 	"/>
	<polygon points="409.696,93.062 409.686,93.052 409.696,93.062 	"/>
	<polygon points="397.5,82.357 397.5,82.357 397.502,82.359 	"/>
</g>
</svg>
