<?xml version="1.0" encoding="utf-8"?>
<!-- Generator: Adobe Illustrator 16.2.1, SVG Export Plug-In . SVG Version: 6.00 Build 0)  -->
<!DOCTYPE svg PUBLIC "-//W3C//DTD SVG 1.1//EN" "http://www.w3.org/Graphics/SVG/1.1/DTD/svg11.dtd">
<svg version="1.1" id="Layer_1" xmlns="http://www.w3.org/2000/svg" xmlns:xlink="http://www.w3.org/1999/xlink" x="0px" y="0px"
	 width="512px" height="512px" viewBox="0 0 512 512" enable-background="new 0 0 512 512" xml:space="preserve">
<path d="M409.696,93.062c-3.934-3.712-8.002-7.282-12.196-10.704C358.924,50.884,309.67,32,256,32
	c-54.837,0-105.062,19.717-144,52.432c-4.122,3.463-8.117,7.072-11.978,10.818C58.076,135.959,32,192.93,32,256
	s26.076,120.041,68.022,160.75c3.86,3.746,7.855,7.355,11.978,10.818C150.938,460.283,201.163,480,256,480
	c53.67,0,102.924-18.884,141.5-50.357c4.194-3.422,8.263-6.992,12.196-10.704C452.979,378.096,480,320.207,480,256
	S452.979,133.904,409.696,93.062z M108.922,403.078c-19.107-19.107-34.107-41.354-44.583-66.12C53.497,311.325,48,284.087,48,256
	s5.497-55.325,16.339-80.958c10.476-24.767,25.476-47.013,44.583-66.12c1.016-1.016,2.045-2.014,3.078-3.006
	c1.033,0.992,2.062,1.99,3.078,3.006c9.555,9.555,18.083,19.895,25.531,30.942l-20.725,10.662l7.319,14.228l21.845-11.237
	c3.932,6.94,7.479,14.118,10.612,21.526c2.177,5.147,4.128,10.362,5.873,15.632l-23.47,4.514l3.022,15.712l24.894-4.788
	c3.364,13.657,5.32,27.652,5.854,41.888H152v16h23.834c-0.549,14.649-2.596,29.047-6.142,43.08l-24.606-4.732l-3.022,15.712
	l23.086,4.44c-1.645,4.871-3.474,9.692-5.49,14.458c-3.279,7.752-7.001,15.257-11.154,22.496l-21.303-10.959l-7.319,14.228
	l20.088,10.334c-7.299,10.699-15.607,20.734-24.895,30.021c-1.016,1.016-2.045,2.014-3.078,3.006
	C110.967,405.092,109.938,404.094,108.922,403.078z M336.958,447.661C311.325,458.503,284.087,464,256,464
	s-55.325-5.497-80.958-16.339c-18.517-7.832-35.624-18.195-51.064-30.911c11.325-10.991,21.481-23.177,30.292-36.339L176.796,392
	l7.319-14.229l-21.402-11.01c7.404-12.983,13.547-26.776,18.261-41.218l23.939,4.604l3.022-15.713l-22.534-4.334
	c3.683-14.839,5.884-30.26,6.441-46.102H216v-16h-24.158c-0.542-15.418-2.638-30.438-6.144-44.911l22.237-4.277l-3.022-15.713
	l-23.55,4.53c-4.648-14.51-10.74-28.373-18.099-41.427l20.851-10.726l-7.319-14.229l-21.902,11.267
	c-8.953-13.519-19.325-26.016-30.917-37.265c15.44-12.716,32.548-23.079,51.064-30.911C200.675,53.497,227.913,48,256,48
	s55.325,5.497,80.958,16.339c17.439,7.376,33.622,17.005,48.346,28.723c-12.861,12.137-24.272,25.789-33.98,40.654l-24.234-12.467
	l-7.319,14.229l23.271,11.971c-7.141,12.86-13.055,26.493-17.578,40.748l-26.49-5.095l-3.022,15.713l25.202,4.847
	c-3.423,14.295-5.459,29.126-5.993,44.34H288v16h27.158c0.549,15.639,2.695,30.868,6.292,45.531l-25.501,4.904l3.022,15.713
	l26.854-5.165c4.589,14.188,10.564,27.75,17.75,40.542l-23.807,12.246L327.089,392l24.845-12.781
	c9.574,14.504,20.778,27.838,33.37,39.72C370.58,430.656,354.397,440.285,336.958,447.661z M403.078,403.078
	c-1.828,1.828-3.693,3.605-5.578,5.358c-1.885-1.753-3.75-3.53-5.578-5.358c-9.631-9.631-18.215-20.061-25.705-31.207L384,362.723
	l-7.319-14.228l-18.883,9.714c-3.87-6.855-7.367-13.94-10.459-21.251c-2.093-4.948-3.981-9.958-5.676-15.021l20.157-3.877
	l-3.022-15.712l-21.629,4.16c-3.458-13.853-5.462-28.057-6.003-42.508H352v-16h-20.834c0.525-14.037,2.437-27.84,5.715-41.315
	l21.917,4.215l3.022-15.712l-20.536-3.95c1.791-5.462,3.8-10.866,6.055-16.196c2.947-6.967,6.265-13.727,9.918-20.281l19.424,9.992
	L384,150.525l-18.396-9.464c7.636-11.496,16.421-22.242,26.318-32.14c1.828-1.828,3.693-3.605,5.578-5.358
	c1.885,1.753,3.75,3.53,5.578,5.358c19.107,19.107,34.107,41.354,44.583,66.12C458.503,200.675,464,227.913,464,256
	s-5.497,55.325-16.339,80.958C437.186,361.725,422.186,383.971,403.078,403.078z"/>
</svg>
