<?xml version="1.0" encoding="utf-8"?>
<!-- Generator: Adobe Illustrator 16.2.1, SVG Export Plug-In . SVG Version: 6.00 Build 0)  -->
<!DOCTYPE svg PUBLIC "-//W3C//DTD SVG 1.1//EN" "http://www.w3.org/Graphics/SVG/1.1/DTD/svg11.dtd">
<svg version="1.1" id="Layer_1" xmlns="http://www.w3.org/2000/svg" xmlns:xlink="http://www.w3.org/1999/xlink" x="0px" y="0px"
	 width="512px" height="512px" viewBox="0 0 512 512" style="enable-background:new 0 0 512 512;" xml:space="preserve">
<path d="M307.4,354.4l92.6,30.2l-2.6-46.1l-101.2-90.4c0,0-22.7-152-24.7-168.3C266.9,44.6,255.9,32,255.9,32S245,44.6,240.5,79.8
	c-2.1,16.3-24.7,168.3-24.7,168.3l-101.2,90.4l-2.6,46.1l92.6-30.2l1.2,10.8l-46.1,51l16,24l64.1-8l16,47.8l16.2-47.8l64.2,8l16-24
	l-46.1-51L307.4,354.4z"/>
</svg>
