<svg id="Layer_1" data-name="Layer 1" xmlns="http://www.w3.org/2000/svg" viewBox="0 0 512 512"><path d="M388.54,133.54a122.51,122.51,0,0,0-116,83.22H220.26l-5.92,6.9-8.68,10.13a5.9,5.9,0,0,1-8.79,0l-8.68-10.13-5.92-6.9h-16.5l-5.92,6.9-8.68,10.13a5.9,5.9,0,0,1-8.79,0l-8.68-10.13-5.92-6.9h-16.5l-5.92,6.9L96.69,233.8a5.9,5.9,0,0,1-8.79,0l-8.68-10.13-5.92-6.9H54.16l-31,23.57L6.58,253a13.51,13.51,0,0,0,0,21.87l16.6,12.63,23.58,17.94a28.08,28.08,0,0,0,17,5.63h215.4A122.47,122.47,0,1,0,388.54,133.54ZM442.2,292.37A36.37,36.37,0,1,1,478.58,256,36.37,36.37,0,0,1,442.2,292.37Z"/></svg>