<?xml version="1.0" encoding="utf-8"?>
<!-- Generator: Adobe Illustrator 16.2.1, SVG Export Plug-In . SVG Version: 6.00 Build 0)  -->
<!DOCTYPE svg PUBLIC "-//W3C//DTD SVG 1.1//EN" "http://www.w3.org/Graphics/SVG/1.1/DTD/svg11.dtd">
<svg version="1.1" id="Layer_1" xmlns="http://www.w3.org/2000/svg" xmlns:xlink="http://www.w3.org/1999/xlink" x="0px" y="0px"
	 width="512px" height="512px" viewBox="0 0 512 512" style="enable-background:new 0 0 512 512;" xml:space="preserve">
<g>
	<path d="M224,288l64-64l-64-64v48H72c-4.4,0-8,3.6-8,8v16c0,4.4,3.6,8,8,8h152V288z"/>
	<path d="M440,64H168c-4.4,0-8,3.6-8,8v104h32V96h176l-48,32v224H192v-80h-32v104c0,4.4,3.6,8,8,8h152v64l118.8-59.4
		c9.2-4.6,9.2-6.1,9.2-14.6V72C448,67.6,444.4,64,440,64z"/>
</g>
</svg>
