<?xml version="1.0" standalone="no"?><!DOCTYPE svg PUBLIC "-//W3C//DTD SVG 1.1//EN" "http://www.w3.org/Graphics/SVG/1.1/DTD/svg11.dtd"><svg width="100%" height="100%" viewBox="0 0 512 512" version="1.1" xmlns="http://www.w3.org/2000/svg" xmlns:xlink="http://www.w3.org/1999/xlink" xml:space="preserve" style="fill-rule:evenodd;clip-rule:evenodd;stroke-linejoin:round;stroke-miterlimit:1.41421;"><path d="M202.17,358.003l39.662,39.663l141.668,-141.666l-141.668,-141.667l-39.662,39.664l73.67,73.67l-274.84,0l0,56.666l273.413,0l-72.243,73.67ZM454.334,1l-396.668,0c-31.169,0 -56.666,25.497 -56.666,56.666l0,113.334l56.666,0l0,-113.333l396.668,0l0,396.669l-396.668,0l0,-113.336l-56.666,0l0,113.334c0,31.169 25.497,56.666 56.666,56.666l396.668,0c31.169,0 56.666,-25.497 56.666,-56.666l0,-396.668c0,-31.169 -25.497,-56.666 -56.666,-56.666Z" style="fill:#000;fill-rule:nonzero;"/></svg>