<?xml version="1.0" encoding="utf-8"?>
<!-- Generator: Adobe Illustrator 19.2.0, SVG Export Plug-In . SVG Version: 6.00 Build 0)  -->
<svg version="1.1" xmlns="http://www.w3.org/2000/svg" xmlns:xlink="http://www.w3.org/1999/xlink" x="0px" y="0px"
	 viewBox="0 0 512 512" style="enable-background:new 0 0 512 512;" xml:space="preserve">
<g id="Layer_1">
</g>
<g id="Layer_2">
	<g>
		<path d="M426.8,64H85.2C73.5,64,64,73.5,64,85.2l0,341.6c0,11.7,9.5,21.2,21.2,21.2H256V296h-45.9v-56H256v-41.4
			c0-49.6,34.4-76.6,78.7-76.6c21.2,0,44,1.6,49.3,2.3v51.8l-35.3,0c-24.1,0-28.7,11.4-28.7,28.2V240h57.4l-7.5,56H320v152h106.8
			c11.7,0,21.2-9.5,21.2-21.2V85.2C448,73.5,438.5,64,426.8,64z"/>
	</g>
</g>
</svg>
