<?xml version="1.0" encoding="utf-8"?>
<!-- Generator: Adobe Illustrator 18.1.1, SVG Export Plug-In . SVG Version: 6.00 Build 0)  -->
<svg version="1.1" id="Layer_1" xmlns="http://www.w3.org/2000/svg" xmlns:xlink="http://www.w3.org/1999/xlink" x="0px" y="0px"
	 viewBox="0 0 512 512" enable-background="new 0 0 512 512" xml:space="preserve">
<g>
	<path d="M457.6,224l-2.1-8.9l-193.5,0V297h115.6c-12,57-67.7,87-113.2,87c-33.1,0-68-13.9-91.1-36.3c-23.7-23-38.8-56.9-38.8-91.8
		c0-34.5,15.5-69,38.1-91.7c22.5-22.6,56.6-35.4,90.5-35.4c38.8,0,66.6,20.6,77,30l58.2-57.9c-17.1-15-64-52.8-137.1-52.8
		c0,0,0,0,0,0c-56.4,0-110.5,21.6-150,61C72.2,147.9,52,204,52,256s19.1,105.4,56.9,144.5c40.4,41.7,97.6,63.5,156.5,63.5
		c53.6,0,104.4-21,140.6-59.1c35.6-37.5,54-89.4,54-143.8C460,238.2,457.7,224.6,457.6,224z"/>
</g>
</svg>
