<?xml version="1.0" encoding="utf-8"?>
<!-- Generator: Adobe Illustrator 18.1.1, SVG Export Plug-In . SVG Version: 6.00 Build 0)  -->
<svg version="1.1" id="Layer_1" xmlns="http://www.w3.org/2000/svg" xmlns:xlink="http://www.w3.org/1999/xlink" x="0px" y="0px"
	 viewBox="0 0 512 512" enable-background="new 0 0 512 512" xml:space="preserve">
<g>
	<g id="Icon_1_">
		<g>
			<path d="M154.7,464h266.7c23.5,0,42.7-19.2,42.7-42.7V154.7c0-23.5-19.2-42.7-42.7-42.7H154.7c-23.5,0-42.7,19.2-42.7,42.7v266.7
				C112,444.8,131.2,464,154.7,464z"/>
		</g>
	</g>
	<path d="M90.7,48h266.7c23.5,0,42.7,19.2,42.7,42.7V96h-32H138.7C115.2,96,96,115.2,96,138.7V368v32h-5.3
		C67.2,400,48,380.8,48,357.3V90.7C48,67.2,67.2,48,90.7,48z"/>
</g>
</svg>
