<?xml version="1.0" encoding="utf-8"?>
<!-- Generator: Adobe Illustrator 18.1.1, SVG Export Plug-In . SVG Version: 6.00 Build 0)  -->
<svg version="1.1" id="Layer_1" xmlns="http://www.w3.org/2000/svg" xmlns:xlink="http://www.w3.org/1999/xlink" x="0px" y="0px"
	 viewBox="0 0 512 512" enable-background="new 0 0 512 512" xml:space="preserve">
<g>
	<path d="M379.4,178.3l-87.2,133.4C299,320,303,330.5,303,342c0,26.5-21.5,48-48,48s-48-21.5-48-48c0-3,0.3-6,0.8-8.9l-57.6-33.5
		c-8.6,8.3-20.3,13.4-33.3,13.4c-8.6,0-16.6-2.3-23.6-6.2L32,364.2v57.2c0,23.5,19.2,42.7,42.7,42.7h362.7
		c23.5,0,42.7-19.2,42.7-42.7V208.8l-58.6-38.9c-8.1,6.3-18.3,10.1-29.4,10.1C387.7,180,383.4,179.4,379.4,178.3z"/>
	<path d="M117,217c26.5,0,48,21.5,48,48c0,2.1-0.2,4.2-0.4,6.2l60.1,33.6c8.3-6.8,18.8-10.8,30.4-10.8c3.6,0,7.1,0.4,10.4,1.1
		l87.4-135.4c-5.6-7.8-8.9-17.4-8.9-27.8c0-26.5,21.5-48,48-48s48,21.5,48,48c0,3.9-0.5,7.7-1.3,11.3l41.3,27.6V90.7
		c0-23.5-19.2-42.7-42.7-42.7H74.7C51.2,48,32,67.2,32,90.7V320l40-38.3c-1.9-5.2-3-10.8-3-16.7C69,238.5,90.5,217,117,217z"/>
</g>
</svg>
