<?xml version="1.0" encoding="utf-8"?>
<!-- Generator: Adobe Illustrator 18.1.1, SVG Export Plug-In . SVG Version: 6.00 Build 0)  -->
<svg version="1.1" id="Layer_1" xmlns="http://www.w3.org/2000/svg" xmlns:xlink="http://www.w3.org/1999/xlink" x="0px" y="0px"
	 viewBox="0 0 512 512" enable-background="new 0 0 512 512" xml:space="preserve">
<path d="M412.6,227.1L278.6,89c-5.8-6-13.7-9-22.4-9h-0.4c-8.7,0-16.6,3-22.4,9l-134,138.1c-12.5,12-12.5,31.3,0,43.2
	c12.5,11.9,32.7,11.9,45.2,0l79.4-83v214c0,16.9,14.3,30.6,32,30.6c18,0,32-13.7,32-30.6v-214l79.4,83c12.5,11.9,32.7,11.9,45.2,0
	C425.1,258.4,425.1,239.1,412.6,227.1z"/>
</svg>
