<?xml version="1.0" encoding="utf-8"?>
<!-- Generator: Adobe Illustrator 18.1.1, SVG Export Plug-In . SVG Version: 6.00 Build 0)  -->
<svg version="1.1" id="Layer_1" xmlns="http://www.w3.org/2000/svg" xmlns:xlink="http://www.w3.org/1999/xlink" x="0px" y="0px"
	 viewBox="0 0 512 512" enable-background="new 0 0 512 512" xml:space="preserve">
<path d="M401.4,224h-214l83-79.4c11.9-12.5,11.9-32.7,0-45.2c-11.9-12.5-31.2-12.5-43.2,0L89,233.4c-6,5.8-9,13.7-9,22.4v0.4
	c0,8.7,3,16.6,9,22.4l138.1,134c12,12.5,31.3,12.5,43.2,0c11.9-12.5,11.9-32.7,0-45.2l-83-79.4h214c16.9,0,30.6-14.3,30.6-32
	C432,238,418.3,224,401.4,224z"/>
</svg>
