<?xml version="1.0" encoding="utf-8"?>
<!-- Generator: Adobe Illustrator 18.1.1, SVG Export Plug-In . SVG Version: 6.00 Build 0)  -->
<svg version="1.1" id="Layer_1" xmlns="http://www.w3.org/2000/svg" xmlns:xlink="http://www.w3.org/1999/xlink" x="0px" y="0px"
	 viewBox="0 0 512 512" enable-background="new 0 0 512 512" xml:space="preserve">
<g>
	<path d="M365.9,402.6L343,416.1l-16-28l20.2-11.9c-5.2-8.5-9.8-17.4-13.9-26.7c-1.4-3.1-2.7-6.3-3.9-9.5l-25.1,5.8l-7.1-31.6
		l22.6-5.2c-2.8-12.1-4.7-24-5.5-37H290v-32h24.3c0.8-12,2.7-24.8,5.5-36.8l-22.6-5.2l7.1-31.6l25.1,5.8c1.3-3.2,2.6-6.4,4-9.6
		c4.1-9.2,8.7-18.1,13.8-26.6L327,124.1l16-28l22.8,13.5c5.2-6.4,10.8-12.5,16.7-18.3C347.4,64.1,303.5,48,256,48
		s-91.4,16.1-126.5,43.2c5.9,5.8,11.5,12,16.7,18.3L169,96.1l16,28L164.8,136c5.1,8.5,9.8,17.4,13.8,26.6c1.4,3.2,2.7,6.4,4,9.6
		l25.1-5.8l7.1,31.6l-22.6,5.2c2.8,12.1,4.6,24.8,5.5,36.8H222v32h-24.3c-0.8,13-2.7,24.9-5.5,37l22.6,5.2l-7.1,31.6l-25.1-5.8
		c-1.2,3.2-2.5,6.3-3.9,9.5c-4.1,9.2-8.7,18.1-13.9,26.7l20.2,11.9l-16,28l-22.9-13.5c-5.2,6.3-10.7,12.4-16.6,18.2
		c35.1,27.1,79,43.2,126.5,43.2s91.4-16.1,126.5-43.2C376.6,415,371.1,408.9,365.9,402.6z"/>
	<path d="M393.8,126l18.1,10.7l-16,28l-21.2-12.5c-5,8.3-9.5,16.9-13.3,25.9c-0.2,0.4-0.4,0.9-0.5,1.3l21,4.9l-7.1,31.6l-23.9-5.5
		c-2.3,9.7-3.8,19.6-4.6,29.6H370v32h-23.6c0.8,10,2.3,20,4.6,29.8l23.9-5.5l7.1,31.6l-21,4.9c0.2,0.4,0.3,0.8,0.5,1.2
		c3.8,9,8.3,17.7,13.3,26l21.1-12.4l16,28l-18,10.6c3.3,3.9,6.8,7.7,10.5,11.3c0.6,0.6,1.3,1.3,2,2C442,362,464,311.4,464,256
		s-22-106-57.7-143.4c-0.7,0.7-1.4,1.3-2,2C400.6,118.3,397.1,122.1,393.8,126z"/>
	<path d="M118.2,386.1l-18-10.6l16-28l21.1,12.4c5.1-8.3,9.5-17,13.3-26c0.2-0.4,0.3-0.8,0.5-1.2l-21-4.9l7.1-31.6l23.9,5.5
		c2.3-9.8,3.8-19.8,4.6-29.8H142v-32h23.6c-0.8-10-2.3-19.9-4.6-29.6l-23.9,5.5l-7.1-31.6l21-4.9c-0.2-0.4-0.3-0.9-0.5-1.3
		c-3.8-9-8.2-17.7-13.3-25.9l-21.2,12.5l-16-28l18.1-10.7c-3.4-3.9-6.9-7.7-10.6-11.4c-0.6-0.6-1.3-1.3-2-2C70,150,48,200.6,48,256
		s22,106,57.7,143.4c0.7-0.7,1.4-1.3,2-2C111.3,393.8,114.8,390,118.2,386.1z"/>
</g>
</svg>
