<?xml version="1.0" encoding="utf-8"?>
<!-- Generator: Adobe Illustrator 18.1.1, SVG Export Plug-In . SVG Version: 6.00 Build 0)  -->
<svg version="1.1" id="Layer_1" xmlns="http://www.w3.org/2000/svg" xmlns:xlink="http://www.w3.org/1999/xlink" x="0px" y="0px"
	 viewBox="0 0 512 512" enable-background="new 0 0 512 512" xml:space="preserve">
<g>
	<path d="M368,48H144c-26.6,0-48,21.6-48,48v320c0,26.4,21.4,48,48,48h224c26.4,0,48-21.6,48-48V96C416,69.6,394.6,48,368,48z
		 M200,416h-48v-48h48V416z M200,328h-48v-48h48V328z M200,240h-48v-48h48V240z M280,416h-48v-48h48V416z M280,328h-48v-48h48V328z
		 M280,240h-48v-48h48V240z M360,416h-48V280h48V416z M360,240h-48v-48h48V240z M360,144H152V96h208V144z"/>
</g>
</svg>
