<?xml version="1.0" encoding="utf-8"?>
<!-- Generator: Adobe Illustrator 18.1.1, SVG Export Plug-In . SVG Version: 6.00 Build 0)  -->
<svg version="1.1" id="Layer_1" xmlns="http://www.w3.org/2000/svg" xmlns:xlink="http://www.w3.org/1999/xlink" x="0px" y="0px"
	 viewBox="0 0 512 512" enable-background="new 0 0 512 512" xml:space="preserve">
<path d="M296,48H176.5C154.4,48,136,65.4,136,87.5V96h-7.5C106.4,96,88,113.4,88,135.5v288c0,22.1,18.4,40.5,40.5,40.5h208
	c22.1,0,39.5-18.4,39.5-40.5V416h8.5c22.1,0,39.5-18.4,39.5-40.5V176L296,48z M296,92.6l83.4,83.4H296V92.6z M344,423.5
	c0,4.7-3.4,8.5-7.5,8.5h-208c-4.4,0-8.5-4.1-8.5-8.5v-288c0-4.1,3.8-7.5,8.5-7.5h7.5v255.5c0,22.1,10.4,32.5,32.5,32.5H344V423.5z
	 M392,375.5c0,4.7-3.4,8.5-7.5,8.5h-208c-4.4,0-8.5-4.1-8.5-8.5v-288c0-4.1,3.8-7.5,8.5-7.5H248h16v96v32h32h96V375.5z"/>
</svg>
