<?xml version="1.0" encoding="utf-8"?>
<!-- Generator: Adobe Illustrator 18.1.1, SVG Export Plug-In . SVG Version: 6.00 Build 0)  -->
<svg version="1.1" id="Layer_1" xmlns="http://www.w3.org/2000/svg" xmlns:xlink="http://www.w3.org/1999/xlink" x="0px" y="0px"
	 viewBox="0 0 512 512" enable-background="new 0 0 512 512" xml:space="preserve">
<path d="M203.1,158.3c5.2-11.2,8.1-23.5,8.1-36.7c0-49.5-40.1-89.6-89.6-89.6S32,72.1,32,121.6s40.1,89.6,89.6,89.6
	c13.2,0,25.5-2.9,36.7-8.1l52.9,52.9l-52.9,52.9c-11.2-5.2-23.5-8.1-36.7-8.1c-49.5,0-89.6,40.1-89.6,89.6S72.1,480,121.6,480
	s89.6-40.1,89.6-89.6c0-13.2-2.9-25.5-8.1-36.7l52.9-52.9l156.8,156.8H480v-22.4L203.1,158.3z M121.6,166.4
	c-24.6,0-44.8-19.9-44.8-44.8S97,76.8,121.6,76.8s44.8,19.9,44.8,44.8S146.2,166.4,121.6,166.4z M121.6,435.2
	c-24.6,0-44.8-19.9-44.8-44.8s20.2-44.8,44.8-44.8s44.8,19.9,44.8,44.8S146.2,435.2,121.6,435.2z M256,267.2
	c-6.3,0-11.2-4.9-11.2-11.2c0-6.3,4.9-11.2,11.2-11.2c6.3,0,11.2,4.9,11.2,11.2C267.2,262.3,262.3,267.2,256,267.2z M412.8,54.4
	L278.4,188.8l44.8,44.8L480,76.8V54.4H412.8z"/>
</svg>
