<?xml version="1.0" encoding="utf-8"?>
<!-- Generator: Adobe Illustrator 18.1.1, SVG Export Plug-In . SVG Version: 6.00 Build 0)  -->
<svg version="1.1" id="Layer_1" xmlns="http://www.w3.org/2000/svg" xmlns:xlink="http://www.w3.org/1999/xlink" x="0px" y="0px"
	 viewBox="0 0 512 512" enable-background="new 0 0 512 512" xml:space="preserve">
<g>
	<path d="M32,96v320h448V96H32z M438,255.8c0,23.4-1.4,41.2-3.3,70.2s-16.8,49.4-51.7,52.6c-34.9,3.2-83.8,3.5-127,3.4
		c-42.9,0.1-92-0.1-127-3.4C94.1,375.4,79.3,355,77.3,326S74,279.2,74,255.8c0-23.4,0.1-38.6,3.3-70.2s20.1-49.2,51.7-52.4
		s86-3.2,127-3.2s95.4,0,127,3.2c31.6,3.2,48.5,20.9,51.7,52.4C437.9,217.2,438,232.5,438,255.8z"/>
	<g>
		<path d="M357.5,280.4v0.7c0,16.3-10.1,25.9-23.6,25.9c-13.5,0-22.6-10.8-23.9-25.9c0,0-1.2-7.9-1.2-23.9s1.4-26,1.4-26
			c2.4-17,10.7-25.9,24.2-25.9c13.4,0,24.1,11.6,24.1,29.2c0,0.1,0,0.5,0,0.5h45.1c0-21.9-5.5-41.6-16.6-54
			c-11-12.4-27.5-18.6-49.3-18.6c-10.9,0-20.9,1.4-30,4.3c-9.1,2.9-17,7.9-23.6,15.1c-6.6,7.2-11.7,16.8-15.4,28.9
			c-3.6,12.1-5.5,27.3-5.5,45.7c0,18,1.5,33,4.4,45.1c3,12.1,7.3,21.7,13.1,28.9c5.8,7.2,13.1,12.2,21.8,15
			c8.8,2.8,19.1,4.2,30.9,4.2c25,0,43-6.4,53.8-18.7c10.8-12.3,16.2-30.3,16.2-53.9h-46.1C357.5,277,357.5,279.5,357.5,280.4z"/>
		<path d="M202.6,280.4v0.7c0,16.3-10.1,25.9-23.6,25.9c-13.5,0-22.6-10.8-23.9-25.9c0,0-1.2-7.9-1.2-23.9s1.4-26,1.4-26
			c2.4-17,10.7-25.9,24.2-25.9c13.4,0,24.1,11.6,24.1,29.2c0,0.1,0,0.5,0,0.5h45.1c0-21.9-5.5-41.6-16.6-54
			c-11-12.4-27.5-18.6-49.3-18.6c-10.9,0-20.9,1.4-30,4.3c-9.1,2.9-17,7.9-23.6,15.1c-6.6,7.2-11.7,16.8-15.4,28.9
			c-3.6,12.1-5.5,27.3-5.5,45.7c0,18,1.5,33,4.4,45.1c3,12.1,7.3,21.7,13.1,28.9c5.8,7.2,13.1,12.2,21.8,15
			c8.8,2.8,19.1,4.2,30.9,4.2c25,0,43-6.4,53.8-18.7c10.8-12.3,16.2-30.3,16.2-53.9h-46.1C202.6,277,202.6,279.5,202.6,280.4z"/>
	</g>
</g>
</svg>
