<?xml version="1.0" encoding="utf-8"?>
<!-- Generator: Adobe Illustrator 18.1.1, SVG Export Plug-In . SVG Version: 6.00 Build 0)  -->
<svg version="1.1" id="Layer_1" xmlns="http://www.w3.org/2000/svg" xmlns:xlink="http://www.w3.org/1999/xlink" x="0px" y="0px"
	 viewBox="0 0 512 512" enable-background="new 0 0 512 512" xml:space="preserve">
<g>
	<path fill="none" d="M369.1,142.9C338.9,112.6,298.7,96,256,96v320c42.7,0,82.9-16.6,113.1-46.9C399.4,338.9,416,298.7,416,256
		S399.4,173.1,369.1,142.9z"/>
	<path d="M256,48C141.1,48,48,141.1,48,256s93.1,208,208,208s208-93.1,208-208S370.9,48,256,48z M369.1,369.1
		C338.9,399.4,298.7,416,256,416V96c42.7,0,82.9,16.6,113.1,46.9C399.4,173.1,416,213.3,416,256S399.4,338.9,369.1,369.1z"/>
</g>
</svg>
