<?xml version="1.0" encoding="utf-8"?>
<!-- Generator: Adobe Illustrator 18.1.1, SVG Export Plug-In . SVG Version: 6.00 Build 0)  -->
<svg version="1.1" id="Layer_1" xmlns="http://www.w3.org/2000/svg" xmlns:xlink="http://www.w3.org/1999/xlink" x="0px" y="0px"
	 viewBox="0 0 512 512" enable-background="new 0 0 512 512" xml:space="preserve">
<g>
	<path d="M123.4,183c0.4-0.1,0.8-0.1,1.2-0.2C124.1,182.9,123.8,183,123.4,183z"/>
</g>
<g>
	<path d="M341.5,303.4C330.7,247.7,282.2,206,224,206c-34,0-65.1,12-86.5,39.1c29.4,2.2,56.7,13.1,77.7,34.2
		c15.6,15.7,26.6,34.9,32.1,55.8h-28.7c-13.1-37.6-48-64.5-90.6-64.5c-5.1,0-12.3,0.6-17.7,1.7c-45.7,9.4-78.3,47.6-78.3,95
		c0,53.4,43,96.8,96,96.8h208c44.1,0,80-36.1,80-80.6C415.9,340.8,383.1,306.3,341.5,303.4z"/>
	<g>
		<path d="M112.5,225.4c13.6-17.3,30.7-30.5,50.8-39.2c18.4-8,38.8-12,60.7-12c6.1,0,12.2,0.4,18.2,1.1c-6.1-18.1-9.4-37.6-9.4-57.8
			c0-24.6,4.9-48.1,13.8-69.4C161.9,68.7,99,145.7,99,237.3c0,1.6,0,3.2,0.1,4.8c0.1,0,0.2-0.1,0.3-0.1L112.5,225.4z"/>
		<path d="M417.6,306.8c13.3,14.2,22.6,31.5,27.1,50.1c16.5-21.4,28.7-46.4,35.3-73.5c-21.2,9-44.5,13.9-68.9,13.9
			c-1.2,0-2.4,0-3.6,0C411,300.2,414.4,303.4,417.6,306.8z"/>
	</g>
</g>
</svg>
