<?xml version="1.0" encoding="utf-8"?>
<!-- Generator: Adobe Illustrator 18.1.1, SVG Export Plug-In . SVG Version: 6.00 Build 0)  -->
<svg version="1.1" id="Layer_1" xmlns="http://www.w3.org/2000/svg" xmlns:xlink="http://www.w3.org/1999/xlink" x="0px" y="0px"
	 viewBox="0 0 512 512" enable-background="new 0 0 512 512" xml:space="preserve">
<path d="M256.1,144.8c56.2,0,101.9,45.3,101.9,101.1c0,13.1-2.6,25.5-7.3,37l59.5,59c30.8-25.5,55-58.4,69.9-96
	C444.8,157.2,357.8,94.3,255.9,94.3c-28.5,0-55.8,5.1-81.1,14.1l44,43.7C230.4,147.5,242.9,144.8,256.1,144.8z M52.4,89.7l46.5,46.1
	l9.4,9.3C74.4,171.1,47.9,205.9,32,245.9c35.2,88.7,122.2,151.6,224.1,151.6c31.6,0,61.7-6.1,89.2-17l8.6,8.5l59.7,59l25.9-25.7
	L78.2,64L52.4,89.7z M165,201.4l31.6,31.3c-1,4.2-1.6,8.7-1.6,13.1c0,33.5,27.3,60.6,61.1,60.6c4.5,0,9-0.6,13.2-1.6l31.6,31.3
	c-13.6,6.7-28.7,10.7-44.8,10.7c-56.2,0-101.9-45.3-101.9-101.1C154.2,229.9,158.3,215,165,201.4z M252.8,185.7l64.2,63.7l0.4-3.2
	c0-33.5-27.3-60.6-61.1-60.6L252.8,185.7z"/>
</svg>
