<?xml version="1.0" encoding="utf-8"?>
<!-- Generator: Adobe Illustrator 18.1.1, SVG Export Plug-In . SVG Version: 6.00 Build 0)  -->
<svg version="1.1" id="Layer_1" xmlns="http://www.w3.org/2000/svg" xmlns:xlink="http://www.w3.org/1999/xlink" x="0px" y="0px"
	 viewBox="0 0 512 512" enable-background="new 0 0 512 512" xml:space="preserve">
<g id="Icon_41_">
	<g>
		<path d="M256,105c-101.8,0-188.4,62.4-224,151c35.6,88.6,122.2,151,224,151s188.4-62.4,224-151C444.4,167.4,357.8,105,256,105z
			 M256,356.7c-56,0-101.8-45.3-101.8-100.7S200,155.3,256,155.3S357.8,200.6,357.8,256S312,356.7,256,356.7z M256,195.6
			c-33.6,0-61.1,27.2-61.1,60.4s27.5,60.4,61.1,60.4s61.1-27.2,61.1-60.4S289.6,195.6,256,195.6z"/>
	</g>
</g>
</svg>
