<?xml version="1.0" encoding="utf-8"?>
<!-- Generator: Adobe Illustrator 18.1.1, SVG Export Plug-In . SVG Version: 6.00 Build 0)  -->
<svg version="1.1" id="Layer_1" xmlns="http://www.w3.org/2000/svg" xmlns:xlink="http://www.w3.org/1999/xlink" x="0px" y="0px"
	 viewBox="0 0 512 512" enable-background="new 0 0 512 512" xml:space="preserve">
<g>
	<path d="M78.1,205.6c-2.4,0-4.9-0.6-7.1-1.9c-6.7-3.9-9-12.4-5.1-19.1C83.7,154.6,137.8,84.5,256,84.5c51.2,0,96.1,13.6,133.4,40.4
		c30.7,22,47.9,46.9,56.1,58.9c4.4,6.4,2.7,15-3.7,19.4c-6.4,4.3-15.2,2.7-19.6-3.7c-14.9-21.6-60.1-87.2-166.2-87.2
		c-103.6,0-150.4,60.4-165.7,86.3C87.7,203.2,83,205.6,78.1,205.6z"/>
	<path d="M315.5,480c-1.2,0-2.3-0.1-3.5-0.4c-85.7-21.5-117.7-108.1-119-111.7l-0.2-0.8c-0.7-2.5-17.9-61.9,8.5-96.7
		c12.1-15.9,30.5-24,54.8-24c22.6,0,38.9,7.1,50.1,21.8c9.2,12,12.9,26.8,16.5,41.1c7.5,29.7,12.9,45.3,44.1,46.9
		c13.7,0.7,22.7-7.4,27.8-14.3c13.8-18.8,16.2-49.5,5.8-76.5C387,230.4,339.6,164.5,256,164.5c-35.7,0-68.5,11.6-94.8,33.4
		c-21.8,18.1-39.1,43.6-47.4,69.8c-15.4,48.8,4.8,125.5,5,126.2c2,7.4-2.5,15.1-10,17c-7.5,2-15.3-2.5-17.3-9.9
		c-0.9-3.5-22.5-85.3-4.7-141.7C106.2,198.2,166,136.6,256,136.6c41.6,0,80.9,14.3,113.7,41.3c25.4,21,46.2,49.2,57,77.4
		c13.8,36,10.1,76.4-9.4,102.8c-13,17.6-31.5,26.8-52,25.8c-53.4-2.7-63-40.4-70-67.9c-7.2-28.2-11.8-41.8-39.3-41.8
		c-15.1,0-25.7,4.2-32.3,12.9c-9,11.9-9.7,30.5-8.7,44c1,14.1,4,25.5,4.7,27.8c2.2,5.6,30.8,76.5,99.3,93.7
		c7.6,1.9,12.1,9.5,10.2,16.9C327.5,475.8,321.8,480,315.5,480z"/>
	<path d="M205.5,473.6c-3.8,0-7.5-1.5-10.3-4.4c-34.3-36.4-53.7-77.1-61-128l0-0.3c-4.1-33.7,1.9-81.4,31.3-114.2
		c21.7-24.2,52.2-36.5,90.5-36.5c45.3,0,80.9,21.3,103.1,61.5c16.1,29.2,19.3,58.3,19.4,59.5c0.8,7.7-4.9,14.5-12.6,15.3
		c-7.7,0.8-14.7-4.8-15.5-12.4l0,0c0-0.3-2.8-25.3-16.5-49.7c-17.2-30.7-43.4-46.3-78-46.3c-29.9,0-53.3,9.1-69.4,27.1
		c-23.2,25.9-27.7,65.8-24.5,92.2c6.4,45,23.5,80.8,53.7,112.8c5.3,5.6,5,14.5-0.7,19.7C212.4,472.3,208.9,473.6,205.5,473.6z"/>
	<path d="M363.5,433.5c-30,0-55.5-8.4-75.9-25.1c-41-33.4-45.6-87.8-45.8-90.1c-0.6-7.7,5.2-14.4,13-15c7.8-0.6,14.5,5.1,15.1,12.8
		c0.1,0.8,4.2,45.3,35.8,70.9c18.7,15.1,43.7,21.1,74.5,17.6c7.7-0.9,14.7,4.6,15.6,12.3c0.9,7.7-4.7,14.6-12.4,15.4
		C376.6,433.1,369.9,433.5,363.5,433.5z"/>
	<path d="M387.2,62.6C375.5,54.9,334,32,256,32c-81.9,0-123.5,25.3-132.7,31.7c-0.6,0.4-1.2,0.8-1.7,1.3c-0.1,0.1-0.2,0.1-0.2,0.1
		l0,0c-2.9,2.6-4.7,6.3-4.7,10.4c0,7.7,6.3,13.9,14.1,13.9c3.1,0,5.9-1,8.2-2.6l0,0l-0.1,0.1c0.4-0.3,36.3-27,117.1-27
		s116.7,26.8,117.1,27l-0.1-0.1l0.2-0.2c2.4,1.8,5.3,2.8,8.5,2.8c7.8,0,14.1-6.2,14.1-13.9C395.8,69.7,392.3,64.7,387.2,62.6z"/>
</g>
</svg>
