<?xml version="1.0" encoding="utf-8"?>
<!-- Generator: Adobe Illustrator 18.1.1, SVG Export Plug-In . SVG Version: 6.00 Build 0)  -->
<svg version="1.1" id="Layer_1" xmlns="http://www.w3.org/2000/svg" xmlns:xlink="http://www.w3.org/1999/xlink" x="0px" y="0px"
	 viewBox="0 0 512 512" enable-background="new 0 0 512 512" xml:space="preserve">
<g>
	<polygon points="156,215 132,215 132,246 101,246 101,270 132,270 132,300 156,300 156,270 186,270 186,246 156,246 	"/>
	<path d="M369.3,144H142.7C81.5,144,32,190.5,32,255.4c0,65,49.5,112.6,110.7,112.6h226.5c61.2,0,110.7-47.6,110.7-112.6
		C480,190.5,430.5,144,369.3,144z M144.2,316.5c-33.1,0-60-27.1-60-60.5c0-33.4,26.9-60.5,60-60.5s60,27.1,60,60.5
		C204.2,289.4,177.4,316.5,144.2,316.5z M347.3,269.1c-7.2,7.2-19,7.2-26.2,0c-7.2-7.2-7.2-19,0-26.2c7.2-7.2,19-7.2,26.2,0
		C354.5,250.1,354.5,261.9,347.3,269.1z M384.8,306.6c-7.2,7.2-19,7.2-26.2,0c-7.2-7.2-7.2-19,0-26.2c7.2-7.2,19-7.2,26.2,0
		S392.1,299.4,384.8,306.6z M384.8,231.6c-7.2,7.2-19,7.2-26.2,0c-7.2-7.2-7.2-19,0-26.2c7.2-7.2,19-7.2,26.2,0
		S392.1,224.4,384.8,231.6z M422.4,269.1c-7.2,7.2-19,7.2-26.2,0s-7.2-19,0-26.2c7.2-7.2,19-7.2,26.2,0
		C429.6,250.1,429.6,261.9,422.4,269.1z"/>
</g>
</svg>
