<?xml version="1.0" encoding="utf-8"?>
<!-- Generator: Adobe Illustrator 18.1.1, SVG Export Plug-In . SVG Version: 6.00 Build 0)  -->
<svg version="1.1" id="Layer_1" xmlns="http://www.w3.org/2000/svg" xmlns:xlink="http://www.w3.org/1999/xlink" x="0px" y="0px"
	 viewBox="0 0 512 512" enable-background="new 0 0 512 512" xml:space="preserve">
<path d="M416,160c0-35.3-28.7-64-64-64s-64,28.7-64,64c0,23.7,12.9,44.3,32,55.4v8.6c0,19.9-7.8,33.7-25.3,44.9
	c-15.4,9.8-38.1,17.1-67.5,21.5c-14,2.1-25.7,6-35.2,10.7V151.4c19.1-11.1,32-31.7,32-55.4c0-35.3-28.7-64-64-64S96,60.7,96,96
	c0,23.7,12.9,44.3,32,55.4v209.2c-19.1,11.1-32,31.7-32,55.4c0,35.3,28.7,64,64,64s64-28.7,64-64c0-16.6-6.3-31.7-16.7-43.1
	c1.9-4.9,9.7-16.3,29.4-19.3c38.8-5.8,68.9-15.9,92.3-30.8C365,300,384,265.8,384,224v-8.6C403.1,204.3,416,183.7,416,160z M160,56
	c22.1,0,40,17.9,40,40s-17.9,40-40,40s-40-17.9-40-40S137.9,56,160,56z M160,456c-22.1,0-40-17.9-40-40s17.9-40,40-40s40,17.9,40,40
	S182.1,456,160,456z M352,200c-22.1,0-40-17.9-40-40s17.9-40,40-40s40,17.9,40,40S374.1,200,352,200z"/>
</svg>
