<?xml version="1.0" encoding="utf-8"?>
<!-- Generator: Adobe Illustrator 18.1.1, SVG Export Plug-In . SVG Version: 6.00 Build 0)  -->
<svg version="1.1" id="Layer_1" xmlns="http://www.w3.org/2000/svg" xmlns:xlink="http://www.w3.org/1999/xlink" x="0px" y="0px"
	 viewBox="0 0 512 512" enable-background="new 0 0 512 512" xml:space="preserve">
<path d="M384,224c-23.7,0-44.4,12.9-55.4,32c-18.3-0.5-52.4-4.1-75.5-18.1c-32.3-19.4-64.6-53.1-87-90.5c15.7-11.7,26-30.3,26-51.4
	c0-35.3-28.7-64-64-64S64,60.7,64,96c0,23.7,12.9,44.3,32,55.4v209.2c-19.1,11.1-32,31.7-32,55.4c0,35.3,28.7,64,64,64
	s64-28.7,64-64c0-23.7-12.9-44.3-32-55.4V244.2c18.7,19.4,39.1,36,60,48.6c38.8,23.4,87,26.9,108.6,27.3
	c11.1,19.1,31.7,31.9,55.4,31.9c35.3,0,64-28.7,64-64S419.3,224,384,224z M88,96c0-22.1,17.9-40,40-40s40,17.9,40,40s-17.9,40-40,40
	S88,118.1,88,96z M168,416c0,22.1-17.9,40-40,40s-40-17.9-40-40s17.9-40,40-40S168,393.9,168,416z M384,328c-22.1,0-40-17.9-40-40
	s17.9-40,40-40s40,17.9,40,40S406.1,328,384,328z"/>
</svg>
