<?xml version="1.0" encoding="utf-8"?>
<!-- Generator: Adobe Illustrator 18.1.1, SVG Export Plug-In . SVG Version: 6.00 Build 0)  -->
<svg version="1.1" id="Layer_1" xmlns="http://www.w3.org/2000/svg" xmlns:xlink="http://www.w3.org/1999/xlink" x="0px" y="0px"
	 viewBox="0 0 512 512" enable-background="new 0 0 512 512" xml:space="preserve">
<path d="M448,96c0-35.3-28.7-64-64-64s-64,28.7-64,64c0,23.6,12.9,44.3,32,55.4v52.8l-96,48l-96-48v-52.8c19.1-11.1,32-31.8,32-55.4
	c0-35.3-28.7-64-64-64S64,60.7,64,96c0,23.6,12.9,44.3,32,55.4v92.4l128,64v52.8c-19.1,11.1-32,31.8-32,55.4c0,35.3,28.7,64,64,64
	s64-28.7,64-64c0-23.6-12.9-44.3-32-55.4v-52.8l128-64v-92.4C435.1,140.3,448,119.6,448,96z M128,56c22.1,0,40,17.9,40,40
	s-17.9,40-40,40s-40-17.9-40-40S105.9,56,128,56z M256,456c-22.1,0-40-17.9-40-40s17.9-40,40-40s40,17.9,40,40S278.1,456,256,456z
	 M384,136c-22.1,0-40-17.9-40-40s17.9-40,40-40s40,17.9,40,40S406.1,136,384,136z"/>
</svg>
