<?xml version="1.0" encoding="utf-8"?>
<!-- Generator: Adobe Illustrator 18.1.1, SVG Export Plug-In . SVG Version: 6.00 Build 0)  -->
<svg version="1.1" id="Layer_1" xmlns="http://www.w3.org/2000/svg" xmlns:xlink="http://www.w3.org/1999/xlink" x="0px" y="0px"
	 viewBox="0 0 512 512" enable-background="new 0 0 512 512" xml:space="preserve">
<path d="M434.7,188c-18.8-18-43.8-28-70.5-28c-26.6,0-51.6,9.9-70.4,27.9l-17.6,15.9l33.1,32.1l17-15.4l0.1-0.1
	c10.1-9.6,23.5-15,37.7-15c14.2,0,27.6,5.3,37.7,14.9c10,9.6,15.4,22.3,15.4,35.8c0,13.5-5.5,26.1-15.4,35.6
	c-10.1,9.6-23.5,15-37.7,15s-27.6-5.3-37.7-14.9L218.2,188c-18.9-18-43.9-28-70.4-28c-26.7,0-51.7,9.9-70.5,28
	C58.4,206.1,48,230.2,48,256c0,25.7,10.4,49.9,29.3,68c18.8,18,43.8,28,70.5,28c26.7,0,51.7-9.9,70.4-28l37.8-36.1l37.7,36.1
	c18.9,18,43.9,28,70.4,28c26.7,0,51.7-9.9,70.4-27.9c19-18.1,29.4-42.2,29.4-68C464,230.3,453.6,206.1,434.7,188z M185.5,291.7
	c-10.1,9.6-23.5,15-37.7,15c-14.2,0-27.6-5.3-37.7-14.9c-10-9.6-15.4-22.3-15.4-35.8c0-13.5,5.5-26.1,15.4-35.6
	c10.1-9.6,23.5-15,37.7-15c14.2,0,27.6,5.3,37.7,14.9l37.4,35.8L185.5,291.7z"/>
</svg>
