<?xml version="1.0" encoding="utf-8"?>
<!-- Generator: Adobe Illustrator 18.1.1, SVG Export Plug-In . SVG Version: 6.00 Build 0)  -->
<svg version="1.1" id="Layer_1" xmlns="http://www.w3.org/2000/svg" xmlns:xlink="http://www.w3.org/1999/xlink" x="0px" y="0px"
	 viewBox="0 0 512 512" enable-background="new 0 0 512 512" xml:space="preserve">
<g>
	<path d="M256,162.5c-51.6,0-93.5,42-93.5,93.5c0,51.6,42,93.5,93.5,93.5s93.5-41.9,93.5-93.5C349.5,204.4,307.6,162.5,256,162.5z"
		/>
	<g>
		<path d="M433.5,120.4c0,23.1-18.8,41.9-41.9,41.9c-23.1,0-41.9-18.7-41.9-41.9c0-23.1,18.8-41.9,41.9-41.9
			C414.7,78.5,433.5,97.3,433.5,120.4z"/>
		<g>
			<path d="M256,464c-114.7,0-208-93.3-208-208S141.3,48,256,48c24.8,0,49.1,4.3,72.3,12.9c8.3,3.1,12.5,12.3,9.5,20.6
				c-3.1,8.3-12.3,12.5-20.6,9.5C297.6,83.8,277,80.1,256,80.1C159,80.1,80.1,159,80.1,256S159,431.9,256,431.9S431.9,353,431.9,256
				c0-21-3.7-41.6-10.9-61.1c-3.1-8.3,1.2-17.5,9.5-20.6c8.3-3.1,17.5,1.2,20.6,9.5c8.6,23.1,12.9,47.5,12.9,72.3
				C464,370.7,370.7,464,256,464z"/>
		</g>
	</g>
</g>
</svg>
