<?xml version="1.0" encoding="utf-8"?>
<!-- Generator: Adobe Illustrator 18.1.1, SVG Export Plug-In . SVG Version: 6.00 Build 0)  -->
<svg version="1.1" id="Layer_1" xmlns="http://www.w3.org/2000/svg" xmlns:xlink="http://www.w3.org/1999/xlink" x="0px" y="0px"
	 viewBox="0 0 512 512" enable-background="new 0 0 512 512" xml:space="preserve">
<g>
	<polygon points="128.1,256 256.1,480 384.1,256 	"/>
	<path d="M392,161c3-9,4.7-22.7,4.7-32.9c0-53.1-43-96.1-96.1-96.1c-31.4,0-59.2,15-76.8,38.3c0,0-9.1,14-10.8,29l-3.4-1
		c-2.3-9-3.7-20,1.6-31.5c-7.4-2.5-9.4-2.8-17.6-2.8c-41.7,0-75.6,33.8-75.6,75.6c0,6.3,0.8,15.5,2.3,21.4
		c-13.9,3.5-24.3,16.1-24.3,31l0,0c0,17.6,14.4,32,32,32h256c17.6,0,32-14.4,32-32l0,0C416,177.2,405.8,164.6,392,161z"/>
</g>
</svg>
