<?xml version="1.0" encoding="utf-8"?>
<!-- Generator: Adobe Illustrator 18.1.1, SVG Export Plug-In . SVG Version: 6.00 Build 0)  -->
<svg version="1.1" id="Layer_1" xmlns="http://www.w3.org/2000/svg" xmlns:xlink="http://www.w3.org/1999/xlink" x="0px" y="0px"
	 viewBox="0 0 512 512" enable-background="new 0 0 512 512" xml:space="preserve">
<g>
	<path d="M256,398.5c-22.3,0-40.5,18.3-40.5,40.7c0,22.4,18.2,40.7,40.5,40.7s40.5-18.3,40.5-40.7
		C296.5,416.9,278.3,398.5,256,398.5z M136.5,32C114.2,32,96,50.3,96,72.7s18.2,40.7,40.5,40.7S177,95.1,177,72.7S158.8,32,136.5,32
		z M136.5,154.2c-22.3,0-40.5,18.3-40.5,40.7s18.2,40.7,40.5,40.7s40.5-18.3,40.5-40.7S158.8,154.2,136.5,154.2z M136.5,276.4
		c-22.3,0-40.5,18.3-40.5,40.7c0,22.4,18.2,40.7,40.5,40.7s40.5-18.3,40.5-40.7C177,294.7,158.8,276.4,136.5,276.4z M375.5,113.5
		c22.3,0,40.5-18.3,40.5-40.7S397.8,32,375.5,32S335,50.3,335,72.7S353.2,113.5,375.5,113.5z M256,276.4
		c-22.3,0-40.5,18.3-40.5,40.7c0,22.4,18.2,40.7,40.5,40.7s40.5-18.3,40.5-40.7C296.5,294.7,278.3,276.4,256,276.4z M375.5,276.4
		c-22.3,0-40.5,18.3-40.5,40.7c0,22.4,18.2,40.7,40.5,40.7s40.5-18.3,40.5-40.7C416,294.7,397.8,276.4,375.5,276.4z M375.5,154.2
		c-22.3,0-40.5,18.3-40.5,40.7s18.2,40.7,40.5,40.7s40.5-18.3,40.5-40.7S397.8,154.2,375.5,154.2z M256,154.2
		c-22.3,0-40.5,18.3-40.5,40.7s18.2,40.7,40.5,40.7s40.5-18.3,40.5-40.7S278.3,154.2,256,154.2z M256,32
		c-22.3,0-40.5,18.3-40.5,40.7s18.2,40.7,40.5,40.7s40.5-18.3,40.5-40.7S278.3,32,256,32z"/>
</g>
</svg>
