<?xml version="1.0" encoding="utf-8"?>
<!-- Generator: Adobe Illustrator 18.1.1, SVG Export Plug-In . SVG Version: 6.00 Build 0)  -->
<svg version="1.1" id="Layer_1" xmlns="http://www.w3.org/2000/svg" xmlns:xlink="http://www.w3.org/1999/xlink" x="0px" y="0px"
	 viewBox="0 0 512 512" enable-background="new 0 0 512 512" xml:space="preserve">
<g>
	<g id="Icon_1_">
		<g>
			<path d="M192,277.4h189.7l-43.6,44.7L368,352l96-96l-96-96l-31,29.9l44.7,44.7H192V277.4z"/>
		</g>
	</g>
	<g>
		<path d="M255.7,421.3c-44.1,0-85.5-17.2-116.7-48.4c-31.2-31.2-48.3-72.7-48.3-116.9c0-44.1,17.2-85.7,48.3-116.9
			c31.2-31.2,72.6-48.4,116.7-48.4c44,0,85.3,17.1,116.5,48.2l30.3-30.3c-8.5-8.4-17.8-16.2-27.7-23.2C339.7,61,298.6,48,255.7,48
			C141.2,48,48,141.3,48,256s93.2,208,207.7,208c42.9,0,84-13,119-37.5c10-7,19.2-14.7,27.7-23.2l-30.2-30.2
			C341.1,404.2,299.7,421.3,255.7,421.3z"/>
		<rect x="447.4" y="255.4" transform="matrix(-0.7071 -0.7071 0.7071 -0.7071 583.767 753.7971)" width="1.2" height="1.2"/>
	</g>
</g>
</svg>
