<?xml version="1.0" encoding="utf-8"?>
<!-- Generator: Adobe Illustrator 18.1.1, SVG Export Plug-In . SVG Version: 6.00 Build 0)  -->
<svg version="1.1" id="Layer_1" xmlns="http://www.w3.org/2000/svg" xmlns:xlink="http://www.w3.org/1999/xlink" x="0px" y="0px"
	 viewBox="0 0 512 512" enable-background="new 0 0 512 512" xml:space="preserve">
<g>
	<path d="M256,48c-42.9,0-84.2,13-119.2,37.5c-34.2,24-60.2,57.2-75.1,96.1L58,192h45.7l1.9-5c8.2-17.8,19.4-33.9,33.5-48
		c31.2-31.2,72.7-48.4,116.9-48.4c44.2,0,85.7,17.2,116.9,48.4c31.2,31.2,48.4,72.7,48.4,116.9c0,44.1-17.2,85.7-48.4,116.9
		c-31.2,31.2-72.7,48.4-116.9,48.4c-44.1,0-85.6-17.2-116.9-48.4c-14-14-25.3-30.1-33.5-47.9l-1.9-5H58l3.6,10.4
		c14.9,38.9,40.9,72.1,75.1,96.1C171.8,451.1,213,464,256,464c114.7,0,208-93.3,208-208S370.7,48,256,48z"/>
	<g id="Icon_9_">
		<g>
			<path d="M48,277.4h189.7l-43.6,44.7L224,352l96-96l-96-96l-31,29.9l44.7,44.7H48V277.4z"/>
		</g>
	</g>
</g>
</svg>
