<?xml version="1.0" encoding="utf-8"?>
<!-- Generator: Adobe Illustrator 18.1.1, SVG Export Plug-In . SVG Version: 6.00 Build 0)  -->
<svg version="1.1" id="Layer_1" xmlns="http://www.w3.org/2000/svg" xmlns:xlink="http://www.w3.org/1999/xlink" x="0px" y="0px"
	 viewBox="0 0 512 512" enable-background="new 0 0 512 512" xml:space="preserve">
<path d="M383.6,98.8C352.1,65.8,308,48.2,256,48c-51.9,0.2-96,17.8-127.5,50.8C96.8,132,80,178.8,80,234c0,43.5,1.8,69.2,12.9,115.8
	c0,0,22.7,75.7,35.5,104.1c3.5,7.8,7.4,11.8,15.5,9.3c6.4-2,46.8-17.9,54.7-21.6c7.9-3.6,11.6-8.6,8.9-15.2
	c-3.8-9.2-33.9-95.6-33.9-95.6c-8.4-36.3-11.6-53.9-11.6-94.3c0-28.2,9.8-54.1,27.7-72.9c17.5-18.3,41-28.4,66.3-28.4
	s48.8,10.1,66.3,28.4c17.9,18.8,27.7,44.6,27.7,72.8c0,40-3.2,64-11.7,94.4s-32.2,90.1-33.9,95.6c-1.7,5.6,2.1,12.5,8.9,15.2
	c6.8,2.7,49.3,19.6,54.7,21.6c5.4,2,10.6,0.6,14.5-7.7c4-8.3,24.6-61.4,36.5-105.7C431,305.5,432,277.5,432,234
	C432,178.8,415.3,132.1,383.6,98.8z M173.1,419.7l-22.9,9.6c-6.9-16.3-17.2-43.2-25.9-77.2l22-6.5L173.1,419.7z M361.7,429.3
	l-22.9-9.6c7.2-16.6,19.1-45.1,26.6-74.1l22,6.5C379,386,368.7,413,361.7,429.3z"/>
</svg>
