<?xml version="1.0" encoding="utf-8"?>
<!-- Generator: Adobe Illustrator 18.1.1, SVG Export Plug-In . SVG Version: 6.00 Build 0)  -->
<svg version="1.1" id="Layer_1" xmlns="http://www.w3.org/2000/svg" xmlns:xlink="http://www.w3.org/1999/xlink" x="0px" y="0px"
	 viewBox="0 0 512 512" enable-background="new 0 0 512 512" xml:space="preserve">
<g>
	<path d="M442,107v141L229.2,451.7c8,8,20.8,12.3,28.8,12.3s22.8-3.7,31.4-12.3L480,272V144L442,107z"/>
	<path d="M384,48H224L44.3,235.6c-8,8-12,17.8-12.3,28.4c-0.3,11.3,3.7,23.3,12.3,31.9l123.8,123.6c8,8,20.8,12.5,28.8,12.5
		s22.7-3.9,31.3-12.5L416,240V80L384,48z M353.3,150.7c-21.7,6.1-41.3-10-41.3-30.7c0-17.7,14.3-32,32-32
		c20.7,0,36.8,19.6,30.7,41.3C371.8,139.6,363.6,147.8,353.3,150.7z"/>
</g>
</svg>
