<?xml version="1.0" encoding="utf-8"?>
<!-- Generator: Adobe Illustrator 18.1.1, SVG Export Plug-In . SVG Version: 6.00 Build 0)  -->
<svg version="1.1" id="Layer_1" xmlns="http://www.w3.org/2000/svg" xmlns:xlink="http://www.w3.org/1999/xlink" x="0px" y="0px"
	 viewBox="0 0 512 512" enable-background="new 0 0 512 512" xml:space="preserve">
<g>
	<path d="M407.2,130.4C360.7,111.5,309.8,102,256,102c-53.9,0-108.3,10.3-151.2,28c-8.1,3.3-15.3,9-10.1,19.5S255.9,480,255.9,480
		l161-329.9C420.1,143.2,417.8,134.7,407.2,130.4z M186.2,204c-18.7,0-32-14.3-32-32c0-17.7,13.3-32,32-32c18.7,0,32,14.3,32,32
		S204.9,204,186.2,204z M256,347c-18.7,0-32-14.3-32-32s13.3-32,32-32c18.7,0,32,14.3,32,32S274.7,347,256,347z M325.8,224
		c-18.7,0-32-14.3-32-32s13.3-32,32-32c18.7,0,32,14.3,32,32S344.5,224,325.8,224z"/>
	<path d="M436.9,66C384.7,45.4,320.3,32,256,32c-64.3,0-127.6,12.1-180.9,33.4C70.4,67.3,64,71,64,79.2l9.7,24.1
		c2.8,4.9,8.7,8.2,15.1,8.2c1.8,0,4.3-0.3,7.3-1.5c49-18.9,103.1-29.6,160-29.6c56.9,0,115.2,11.6,160,29.6c3.6,1.4,5.6,1.5,7.3,1.5
		c6.6,0,12.2-3.3,15-8.1l9.8-24.1C448,72,443.2,68.5,436.9,66z"/>
</g>
</svg>
