<?xml version="1.0" encoding="utf-8"?>
<!-- Generator: Adobe Illustrator 18.1.1, SVG Export Plug-In . SVG Version: 6.00 Build 0)  -->
<svg version="1.1" id="Layer_1" xmlns="http://www.w3.org/2000/svg" xmlns:xlink="http://www.w3.org/1999/xlink" x="0px" y="0px"
	 viewBox="0 0 512 512" enable-background="new 0 0 512 512" xml:space="preserve">
<g>
	<g id="Icon_8_">
		<g>
			<path d="M400,421.3V154.7c0-23.5-19.2-42.7-42.7-42.7H90.7C67.2,112,48,131.2,48,154.7v266.7c0,23.5,19.2,42.7,42.7,42.7h266.7
				C380.8,464,400,444.8,400,421.3z M157.3,304l45.3,64l66.7-96l88,128H90.7L157.3,304z"/>
		</g>
	</g>
	<path d="M421.3,48H154.7C131.2,48,112,67.2,112,90.7V96h32h229.3c23.5,0,42.7,19.2,42.7,42.7V368v32h5.3
		c23.5,0,42.7-19.2,42.7-42.7V90.7C464,67.2,444.8,48,421.3,48z"/>
</g>
</svg>
