<?xml version="1.0" encoding="utf-8"?>
<!-- Generator: Adobe Illustrator 18.1.1, SVG Export Plug-In . SVG Version: 6.00 Build 0)  -->
<svg version="1.1" id="Layer_1" xmlns="http://www.w3.org/2000/svg" xmlns:xlink="http://www.w3.org/1999/xlink" x="0px" y="0px"
	 viewBox="0 0 512 512" enable-background="new 0 0 512 512" xml:space="preserve">
<g>
	<path d="M464,64H192c-8.8,0-16,7.7-16,16.5V112H74c-23.1,0-42,18.9-42,42v207.5c0,47.6,39,86.5,86,86.5h279.7
		c45.1,0,82.3-36.9,82.3-82V80C480,71.2,472.8,64,464,64z M176,144v192h-42V163.2c0-6.8-0.8-13.3-3.3-19.2H176z M159,399.4
		C148,410,133.2,416,118.5,416c-14.5,0-28.1-5.7-38.5-16c-10.3-10.3-16-24-16-38.5V163.2c0-10.6,8.4-19.2,19-19.2s19,8.6,19,19.2
		V352c0,8.8,7.2,16,16,16h57.5C174,379.6,168.3,390.6,159,399.4z M448,366c0,13.3-5.4,25.8-14.9,35.3c-9.5,9.5-22.2,14.7-35.4,14.7
		H187.3c12.8-14.9,20.7-33.9,20.7-54.5V112V97h240V366z"/>
	<rect x="248" y="136" width="160" height="56"/>
	<rect x="248" y="224" width="160" height="32"/>
	<rect x="248" y="288" width="160" height="32"/>
	<path d="M408,352H248c0,0,0,32-8,32c7,0,138.6,0,148.7,0C408,384,408,363,408,352z"/>
</g>
</svg>
