<?xml version="1.0" encoding="utf-8"?>
<!-- Generator: Adobe Illustrator 18.1.1, SVG Export Plug-In . SVG Version: 6.00 Build 0)  -->
<svg version="1.1" id="Layer_1" xmlns="http://www.w3.org/2000/svg" xmlns:xlink="http://www.w3.org/1999/xlink" x="0px" y="0px"
	 viewBox="0 0 512 512" enable-background="new 0 0 512 512" xml:space="preserve">
<g>
	<path d="M440,96h-88l-32-32H192l-32,32H72c-22.1,0-40,17.9-40,40v272c0,22.1,17.9,40,40,40h368c22.1,0,40-17.9,40-40V136
		C480,113.9,462.1,96,440,96z M368,267h-97.7l44.8-45.1c-14.7-15.4-35.7-25.5-58.8-25.5c-46.2,0-84,37.8-84,84c0,46.2,37.8,84,84,84
		c35.5,0,66.2-21.5,78.2-53.5h29.6c-13.4,47-56.2,81.5-107.8,81.5c-62.3,0-112-50.4-112-112c0-61.6,50.4-112,112-112
		c30.8,0,58.7,12.6,79,32.9l32.8-32.9V267z"/>
</g>
</svg>
