<?xml version="1.0" encoding="utf-8"?>
<!-- Generator: Adobe Illustrator 18.1.1, SVG Export Plug-In . SVG Version: 6.00 Build 0)  -->
<svg version="1.1" id="Layer_1" xmlns="http://www.w3.org/2000/svg" xmlns:xlink="http://www.w3.org/1999/xlink" x="0px" y="0px"
	 viewBox="0 0 512 512" enable-background="new 0 0 512 512" xml:space="preserve">
<path d="M73.8,141.9c-15.2,6-25.8,21.8-25.8,39.5v256c0,23.5,18.5,42.7,41.6,42.7h332.8c23.1,0,41.6-19.2,41.6-42.7v-256
	c0-23.7-18.5-42.7-41.6-42.7H179l171.8-71.3L336.7,32L73.8,141.9z M160,438c-35.4,0-64-28.6-64-64s28.6-64,64-64s64,28.6,64,64
	S195.4,438,160,438z M416,266.7h-32v-46.2h-44.8v46.2H96v-85.3h320V266.7z"/>
</svg>
