<?xml version="1.0" encoding="utf-8"?>
<!-- Generator: Adobe Illustrator 18.1.1, SVG Export Plug-In . SVG Version: 6.00 Build 0)  -->
<svg version="1.1" id="Layer_1" xmlns="http://www.w3.org/2000/svg" xmlns:xlink="http://www.w3.org/1999/xlink" x="0px" y="0px"
	 viewBox="0 0 512 512" enable-background="new 0 0 512 512" xml:space="preserve">
<g>
	<g>
		<g>
			<path d="M139,400c0,0-23,25.3-23,40.7c0,12.8,10.3,23.3,23,23.3s23-10.5,23-23.3C162,425.3,139,400,139,400z"/>
			<path d="M217,368c0,0-23,25.3-23,40.7c0,12.8,10.4,23.3,23,23.3c12.7,0,23-10.5,23-23.3C240,393.3,217,368,217,368z"/>
			<path d="M295,400c0,0-23,25.3-23,40.7c0,12.8,10.3,23.3,23,23.3c12.6,0,23-10.5,23-23.3C318,425.3,295,400,295,400z"/>
			<path d="M373,368c0,0-23,25.3-23,40.7c0,12.8,10.4,23.3,23,23.3c12.7,0,23-10.5,23-23.3C396,393.3,373,368,373,368z"/>
		</g>
	</g>
	<path d="M393.2,161.2C380.5,96.6,323.9,48,256,48c-39.7,0-76,14-100.9,45.4c34.3,2.6,66.1,15.2,90.7,39.8
		c18.2,18.2,31,40.5,37.4,64.8h-33.5c-15.3-43.7-56-75-105.7-75c-6,0-14.3,0.7-20.6,2C70,136,32,180.4,32,235.5
		C32,297.6,79.4,352,141.2,352h242.7c51.5,0,96.2-46,96.2-97.8C480,204.8,441.7,164.6,393.2,161.2z"/>
</g>
</svg>
