<?xml version="1.0" encoding="utf-8"?>
<!-- Generator: Adobe Illustrator 18.1.1, SVG Export Plug-In . SVG Version: 6.00 Build 0)  -->
<svg version="1.1" id="Layer_1" xmlns="http://www.w3.org/2000/svg" xmlns:xlink="http://www.w3.org/1999/xlink" x="0px" y="0px"
	 viewBox="0 0 512 512" enable-background="new 0 0 512 512" xml:space="preserve">
<g>
	<rect x="128" y="416" width="256" height="48"/>
	<path d="M256,288c17.7,0,32-14.3,32-32c0-17.7-14.3-32-32-32c-3,0-6,0.4-8.8,1.2l-66.7-48.7l-4,3.5l48.9,66.7
		c-0.9,2.9-1.4,6-1.4,9.3C224,273.7,238.3,288,256,288z"/>
	<path d="M256,48C141.1,48,48,141.1,48,256c0,48.3,16.5,92.7,44.1,128h58.8l4-4l22.1-22.1l-22.9-22.9L132,357
		c-19.9-24.3-32.1-54-35.2-85H128v-32H96.8c3.1-31,15.3-60.7,35.2-85l22.1,22l22.9-22.9L155,132c24.3-19.9,54-32.1,85-35.2V128h32
		V96.8c31,3.1,60.7,15.3,85,35.2l-22,22.1l22.9,22.9l22.1-22c19.9,24.3,32.1,54,35.2,85H384v32h31.2c-3.1,31-15.3,60.7-35.2,85
		l-22.1-22l-22.9,22.9l22.1,22.1l4,4h58.8c27.6-35.3,44.1-79.7,44.1-128C464,141.1,370.9,48,256,48z"/>
</g>
</svg>
