<?xml version="1.0" encoding="utf-8"?>
<!-- Generator: Adobe Illustrator 18.1.1, SVG Export Plug-In . SVG Version: 6.00 Build 0)  -->
<svg version="1.1" id="Layer_1" xmlns="http://www.w3.org/2000/svg" xmlns:xlink="http://www.w3.org/1999/xlink" x="0px" y="0px"
	 viewBox="0 0 512 512" enable-background="new 0 0 512 512" xml:space="preserve">
<path d="M232.9,371.6c0,12.7,10.4,23.1,23.1,23.1s23.1-10.4,23.1-23.1c0-12.7-10.4-23.1-23.1-23.1S232.9,358.8,232.9,371.6z
	 M232.9,48v92.4h46.2V96.1c78.3,11.3,138.7,78.3,138.7,159.9c0,89.4-72.3,161.8-161.8,161.8S94.2,345.4,94.2,256
	c0-38.8,13.6-74.4,36.5-102.2L256,279.1l32.6-32.6L131.4,89.4v0.5C80.8,127.7,48,187.8,48,256c0,114.9,92.9,208,208,208
	c114.9,0,208-93.1,208-208S370.9,48,256,48H232.9z M394.7,256c0-12.7-10.4-23.1-23.1-23.1c-12.7,0-23.1,10.4-23.1,23.1
	s10.4,23.1,23.1,23.1C384.3,279.1,394.7,268.7,394.7,256z M117.3,256c0,12.7,10.4,23.1,23.1,23.1s23.1-10.4,23.1-23.1
	s-10.4-23.1-23.1-23.1S117.3,243.3,117.3,256z"/>
</svg>
