<?xml version="1.0" encoding="utf-8"?>
<!-- Generator: Adobe Illustrator 18.1.1, SVG Export Plug-In . SVG Version: 6.00 Build 0)  -->
<svg version="1.1" id="Layer_1" xmlns="http://www.w3.org/2000/svg" xmlns:xlink="http://www.w3.org/1999/xlink" x="0px" y="0px"
	 viewBox="0 0 512 512" enable-background="new 0 0 512 512" xml:space="preserve">
<g>
	<path d="M383.8,92.2C348.5,64.5,304.1,48,256,48c-48,0-92.3,16.5-127.6,44c41.6,44.8,64.3,103,64,164.3
		c-0.3,61-23.3,118.6-64.9,162.9c35.4,28,80.1,44.8,128.5,44.8c48.5,0,93.3-16.8,128.8-45c-41.5-44.3-64.5-101.8-64.8-162.7
		C319.7,195.1,342.3,137,383.8,92.2z"/>
	<path d="M353.1,255.1c0,26.9,5.1,53,15.1,77.8c9.6,23.6,23.3,44.9,40.8,63.6c34.1-37.1,55-86.5,55-140.5
		c0-54.5-21.2-104.2-55.8-141.4c-17.1,18.5-30.6,39.6-40,62.7C358.2,202.1,353.1,228.3,353.1,255.1z"/>
	<path d="M159.3,255.1c0-26.9-5.1-53-15.1-77.8c-9.4-23.2-22.9-44.4-40.2-62.9c-34.7,37.2-56,87-56,141.6
		c0,54.2,21,103.6,55.2,140.7c17.6-18.7,31.4-40.1,41-63.8C154.2,308.2,159.3,282,159.3,255.1z"/>
</g>
</svg>
