<?xml version="1.0" encoding="utf-8"?>
<!-- Generator: Adobe Illustrator 18.1.1, SVG Export Plug-In . SVG Version: 6.00 Build 0)  -->
<svg version="1.1" id="Layer_1" xmlns="http://www.w3.org/2000/svg" xmlns:xlink="http://www.w3.org/1999/xlink" x="0px" y="0px"
	 viewBox="0 0 512 512" enable-background="new 0 0 512 512" xml:space="preserve">
<g>
	<path d="M410.1,244.1c12,0,26.6,10.9,33.8,25.9H464c-0.3-50-21.2-101.5-59.4-140.9c-36.3-37.4-83-60.5-132.6-65.7
		c-3-9-11.5-15.4-21.6-15.4c-10,0-18.5,6.5-21.5,15.3C125.3,73.8,48,159.7,48,266.2c0,1.1,0.1,1.8,0.4,3.8h21.8
		c6.8-15,22.2-25.9,35.3-25.9c17,0,31.5,10.9,36.5,25.9h19.8c4.1-15,16.9-25.7,33-25.7c17.8,0,33.1,14.5,34.1,32.6v118.3
		c0,9.3,0.1,24.1-13.4,24.1c-6.9,0-16.6-1.8-16.6-16V382h-43v21.3c0,34.6,23.6,60.7,60,60.7c19.5,0,33.3-8.5,43.5-18.7
		c13.1-13.2,13.5-34.7,13.5-50.1V276.1c2-25.8,23.9-31.7,41.9-31.7c17.2,0,32.3,11.6,37.8,25.6h20.5
		C378.2,255,392.9,244.1,410.1,244.1z"/>
</g>
</svg>
