<?xml version="1.0" encoding="utf-8"?>
<!-- Generator: Adobe Illustrator 16.2.1, SVG Export Plug-In . SVG Version: 6.00 Build 0)  -->
<!DOCTYPE svg PUBLIC "-//W3C//DTD SVG 1.1//EN" "http://www.w3.org/Graphics/SVG/1.1/DTD/svg11.dtd">
<svg version="1.1" id="Layer_1" xmlns="http://www.w3.org/2000/svg" xmlns:xlink="http://www.w3.org/1999/xlink" x="0px" y="0px"
	 width="512px" height="512px" viewBox="0 0 512 512" style="enable-background:new 0 0 512 512;" xml:space="preserve">
<path d="M115.2,378C87,378,64,400.9,64,429c0,28.1,23,51,51.2,51h37.2c15.3,0,28.9-6.8,38.3-17.4c0.1-0.1,0.3-0.1,0.4-0.2
	c0.6-0.6,1-1.5,1.5-2.1c1.3-1.6,2.5-3.2,3.5-5c9.5-14.2,14-32.9,14-47.2c0-16.8,0-197.3,0-197.3c0-0.6,0-1.1,0-1.7
	c0-0.5,0-1.1,0-1.6c0.8-14.2,11.2-25.7,25.1-28.9c1.7-0.4,5.4-1.2,5.4-1.2L390.5,149c0.7-0.1,1.3-0.2,2-0.3c0.8-0.1,1.5-0.1,2.4-0.1
	c12.1,0,21.1,9.5,21.1,21.2c0,0,0,105.8,0,131.4c0,25.5,2.9,31.9-40.5,31.9h-20.1c-28.3,0-51.2,22.9-51.2,51c0,28.1,22.9,51,51.2,51
	h37.2c18.2,0,34.1-9.4,43.2-23.6c0-0.1,0.1,0,0.2,0c9-12.2,11.9-30.6,11.9-55.3c0-24.8,0-302.8,0-302.8c0-11.7-9.9-21.2-22-21.2
	c-0.7,0-1.4,0.1-2,0.1l-3.1,0.5L203.3,74c-13.8,3.7-26.3,16.9-27.3,31.4c0,0.1,0,0.1,0,0.2c0,0.1,0,0.1,0,0.2c0,0,0,236.2,0,250.1
	c0,13.9,2,22.2-47.7,22.2H115.2z"/>
</svg>
