<?xml version="1.0" encoding="utf-8"?>
<!-- Generator: Adobe Illustrator 16.0.4, SVG Export Plug-In . SVG Version: 6.00 Build 0)  -->
<!DOCTYPE svg PUBLIC "-//W3C//DTD SVG 1.1//EN" "http://www.w3.org/Graphics/SVG/1.1/DTD/svg11.dtd">
<svg version="1.1" id="Layer_1" xmlns="http://www.w3.org/2000/svg" xmlns:xlink="http://www.w3.org/1999/xlink" x="0px" y="0px"
	 width="512px" height="512px" viewBox="0 0 512 512" enable-background="new 0 0 512 512" xml:space="preserve">
<path d="M137.681,354.158c19.375,0,35.075,15.676,35.075,35.027c0,19.377-15.7,35.076-35.075,35.076
	c-19.377,0-35.075-15.699-35.075-35.076C102.606,369.834,118.304,354.158,137.681,354.158z"/>
<path d="M314.997,354.158c19.375,0,35.05,15.676,35.05,35.027c0,19.377-15.675,35.076-35.05,35.076
	c-19.351,0-35.075-15.699-35.075-35.076C279.922,369.834,295.646,354.158,314.997,354.158z"/>
<rect x="159.318" y="126.988" width="24.27" height="25.437"/>
<rect x="108.444" y="126.988" width="24.268" height="25.437"/>
<rect x="210.192" y="126.988" width="24.27" height="25.437"/>
<rect x="261.068" y="126.988" width="24.268" height="25.437"/>
<rect x="311.942" y="126.988" width="24.27" height="25.437"/>
<rect x="261.068" y="178.931" width="24.268" height="25.437"/>
<rect x="311.942" y="178.931" width="24.27" height="25.437"/>
<rect x="210.192" y="178.931" width="24.27" height="25.437"/>
<rect x="159.318" y="178.931" width="24.27" height="25.437"/>
<rect x="108.444" y="178.931" width="24.268" height="25.437"/>
<rect x="159.318" y="229.805" width="24.27" height="25.438"/>
<rect x="210.192" y="229.805" width="24.27" height="25.438"/>
<rect x="261.068" y="229.805" width="24.268" height="25.438"/>
<path d="M102.606,316.699c-20.769,0-25.661-16.295-26.606-19.152L27.909,150.041c-0.623-1.938,0.421-4.149,2.309-4.844
	l28.543-10.185c0.223-0.024,0.446-0.049,0.647-0.049c2.284,0,3.551,1.019,3.998,2.434l40.416,124.008
	c2.906,8.99,12.322,16.047,21.414,16.047h195.326c9.29,0,18.482-7.354,20.94-16.744L391.11,68.413
	c0.72-2.795,4.025-5.428,6.78-5.428h77.331c1.988,0,3.652,1.752,3.652,3.812v31.598c0,2.087-1.664,3.826-3.652,3.826h-37.436
	c-9.314,0-18.507,7.353-20.915,16.768l-47.472,183.948c-0.696,2.732-4.57,13.762-23.649,13.762H102.606z"/>
</svg>
