<?xml version="1.0" encoding="utf-8"?>
<!-- Generator: Adobe Illustrator 18.1.1, SVG Export Plug-In . SVG Version: 6.00 Build 0)  -->
<svg version="1.1" id="Layer_1" xmlns="http://www.w3.org/2000/svg" xmlns:xlink="http://www.w3.org/1999/xlink" x="0px" y="0px"
	 viewBox="0 0 512 512" enable-background="new 0 0 512 512" xml:space="preserve">
<path d="M356,57.4c-38.7,0-75.8,17.5-100,45.1c-24.2-27.6-61.3-45.1-100-45.1c-68.6,0-122.3,52.3-122.3,119
	c0,81.7,75.6,148.5,190.1,249.6l32.2,28.5l32.2-28.5c114.5-101.1,190.1-167.8,190.1-249.5C478.3,109.7,424.6,57.4,356,57.4z
	 M258.3,394.1l-2.3,2.1l-2.3-2.1C148,300.7,78.2,239,78.2,176.5c0-43.2,33.5-75.7,77.8-75.7c34.2,0,67.6,21.5,79.2,51.1h41.5
	c11.8-29.5,45.1-51.1,79.4-51.1c44.3,0,77.8,32.6,77.8,75.7C433.8,239,364,300.7,258.3,394.1z"/>
</svg>
