<?xml version="1.0" encoding="utf-8"?>
<!-- Generator: Adobe Illustrator 18.1.1, SVG Export Plug-In . SVG Version: 6.00 Build 0)  -->
<svg version="1.1" id="Layer_1" xmlns="http://www.w3.org/2000/svg" xmlns:xlink="http://www.w3.org/1999/xlink" x="0px" y="0px"
	 viewBox="0 0 512 512" enable-background="new 0 0 512 512" xml:space="preserve">
<path d="M479.9,117.9L377,32.1l-28.8,34l102.9,85.8L479.9,117.9z M163.7,66L135,32L32.1,117.8l28.8,34L163.7,66z M255.9,79.6
	c-111.4,0-201.4,89.6-201.4,200.2c0,110.6,90,200.2,201.4,200.2s201.6-89.6,201.6-200.2C457.5,169.2,367.3,79.6,255.9,79.6z
	 M256,435.5c-86.5,0-156.7-69.7-156.7-155.7S169.5,124.1,256,124.1s156.7,69.7,156.7,155.7S342.7,435.5,256,435.5z M223.2,313.7
	l-47.5-47.2L152,290.1l71.2,70.7l134.5-133.6l-23.7-23.6L223.2,313.7z"/>
</svg>
