<?xml version="1.0" encoding="utf-8"?>
<!-- Generator: Adobe Illustrator 16.2.1, SVG Export Plug-In . SVG Version: 6.00 Build 0)  -->
<!DOCTYPE svg PUBLIC "-//W3C//DTD SVG 1.1//EN" "http://www.w3.org/Graphics/SVG/1.1/DTD/svg11.dtd">
<svg version="1.1" id="Layer_1" xmlns="http://www.w3.org/2000/svg" xmlns:xlink="http://www.w3.org/1999/xlink" x="0px" y="0px"
	 width="512px" height="512px" viewBox="0 0 512 512" style="enable-background:new 0 0 512 512;" xml:space="preserve">
<g>
	<path d="M396.7,131.4c-0.1-0.1-0.2-0.1-0.3-0.2c-0.6-0.2-1.1-0.5-1.6-0.7c0,0,0,0-0.1,0C352.3,112.3,305.4,102,256,102
		c-49.4,0-96.3,10-138.7,28c0,0-0.1,0-0.1,0c-0.6,1-1.2,0.8-1.9,1.1c-0.1,0-0.1,0.1-0.1,0.2c-4.8,2.5-8.1,7.4-8.1,13.1
		c0,1.8,0.3,3.6,1,5.1l0,0.1L256,480l147.6-329.9l0,0c0.8-1.8,1.2-3.7,1.2-5.8C404.8,138.8,401.5,133.9,396.7,131.4z M247.3,118
		c3.8-2.2,8.7-0.8,10.9,3c0.1,0.2,3.4,5.8,9.3,9.5c7.1,4.6,14.8,4.5,23.5-0.4c3.8-2.2,8.7-0.8,10.9,3c2.2,3.8,0.8,8.7-3,10.9
		c-14,7.9-28.4,7.7-40.7-0.5c-8.7-5.9-13.4-13.8-13.8-14.7C242.1,125.1,243.4,120.2,247.3,118z M160,160.1c0-17.7,14.3-32,32-32
		s32,14.3,32,32s-14.3,32-32,32S160,177.7,160,160.1z M213.8,261.4c-0.3,4.4-4.2,7.7-8.6,7.4c-4.4-0.3-7.7-4.2-7.4-8.6
		c1.2-16,9.4-27.9,23.1-33.5c9.7-4,18.9-3.4,19.9-3.3c4.4,0.3,7.7,4.2,7.4,8.6c-0.3,4.4-4.2,7.7-8.5,7.4c-0.2,0-6.7-0.4-13.1,2.4
		C218.7,245,214.6,251.5,213.8,261.4z M268.1,395.1c-9.3,5-18.4,5.4-19.4,5.4c-4.4,0.1-8.1-3.3-8.2-7.8c-0.1-4.4,3.3-8.1,7.7-8.2
		c0.2,0,6.7-0.3,12.8-3.7c7.4-4.2,10.8-11,10.5-21c-0.1-4.4,3.3-8.1,7.8-8.2c4.4-0.1,8.1,3.3,8.2,7.8
		C288,375.4,281.1,388.1,268.1,395.1z M256,339.1c-17.7,0-32-14.3-32-32s14.3-32,32-32s32,14.3,32,32S273.7,339.1,256,339.1z
		 M320,224.1c-17.7,0-32-14.3-32-32s14.3-32,32-32s32,14.3,32,32S337.7,224.1,320,224.1z"/>
	<path d="M423.7,65.9c-0.6-0.3-1.2-0.9-1.8-0.9c-0.1,0-0.1,0-0.1,0C371.1,44,315,31.9,256,31.9c-58.9,0-115.1,11.9-165.8,33.3l0,0
		c-0.7,0.3-1.3,0.6-2,0.9c0,0,0,0-0.1,0c-4.8,2.5-8.1,7.4-8.1,13c0,1.7,0.3,3.4,0.9,5c0.1,0.4,0.2,0.7,0.4,1l6.6,15.9l1,2.4
		c2.5,4.9,7.7,8.2,13.8,8.2c2.1,0,4.2-0.4,6-1.2c0.2-0.1,0.5-0.2,0.7-0.3c44.9-19,94.5-29.6,146.7-29.6
		c52.2,0,101.8,10.6,146.7,29.6c0.2,0.1,0.5,0.2,0.7,0.3c1.8,0.8,3.8,1.2,6,1.2c6,0,11.2-3.3,13.7-8.1l1.1-2.6l6.5-15.8
		c0.2-0.3,0.3-0.6,0.4-1c0.6-1.6,0.9-3.3,0.9-5C432,73.4,428.6,68.4,423.7,65.9z"/>
</g>
</svg>
