<?xml version="1.0" encoding="utf-8"?>
<!-- Generator: Adobe Illustrator 16.2.1, SVG Export Plug-In . SVG Version: 6.00 Build 0)  -->
<!DOCTYPE svg PUBLIC "-//W3C//DTD SVG 1.1//EN" "http://www.w3.org/Graphics/SVG/1.1/DTD/svg11.dtd">
<svg version="1.1" id="Layer_1" xmlns="http://www.w3.org/2000/svg" xmlns:xlink="http://www.w3.org/1999/xlink" x="0px" y="0px"
	 width="512px" height="512px" viewBox="0 0 512 512" style="enable-background:new 0 0 512 512;" xml:space="preserve">
<g>
	<circle cx="256" cy="256" r="64"/>
	<g>
		<path d="M160,256c0-34.8,18.6-65.3,46.3-82.2l-23.1-23.1c-6.3,4.3-12.2,9.3-17.7,14.8C141.3,189.7,128,221.8,128,256
			c0,34.2,13.3,66.3,37.5,90.5c5.5,5.5,11.4,10.4,17.7,14.8l23.1-23.1C178.6,321.3,160,290.8,160,256z"/>
		<path d="M352,256c0,34.8-18.6,65.3-46.3,82.2l23.1,23.1c6.3-4.3,12.2-9.3,17.7-14.8c24.2-24.2,37.5-56.3,37.5-90.5
			c0-34.2-13.3-66.3-37.5-90.5c-5.5-5.5-11.4-10.4-17.7-14.8l-23.1,23.1C333.4,190.7,352,221.2,352,256z"/>
		<path d="M96,256c0-52.5,25.3-99,64.3-128.2L137.4,105c-6,4.7-11.7,9.8-17.2,15.3c-17.6,17.6-31.5,38.2-41.1,61
			C69.1,204.9,64,230.1,64,256c0,25.9,5.1,51.1,15.1,74.7c9.7,22.9,23.5,43.4,41.1,61c5.5,5.5,11.2,10.6,17.2,15.3l22.8-22.8
			C121.3,355,96,308.5,96,256z"/>
		<path d="M416,256c0,52.5-25.3,99-64.3,128.2l22.8,22.8c6-4.7,11.7-9.8,17.2-15.3c17.6-17.6,31.5-38.2,41.1-61
			c10-23.7,15.1-48.8,15.1-74.7c0-25.9-5.1-51.1-15.1-74.7c-9.7-22.9-23.5-43.4-41.1-61c-5.5-5.5-11.2-10.6-17.2-15.3l-22.8,22.8
			C390.7,157,416,203.5,416,256z"/>
	</g>
</g>
</svg>
