<?xml version="1.0" encoding="UTF-8" standalone="no"?><!DOCTYPE svg PUBLIC "-//W3C//DTD SVG 1.1//EN" "http://www.w3.org/Graphics/SVG/1.1/DTD/svg11.dtd"><svg width="100%" height="100%" viewBox="0 0 512 512" version="1.1" xmlns="http://www.w3.org/2000/svg" xmlns:xlink="http://www.w3.org/1999/xlink" xml:space="preserve" style="fill-rule:evenodd;clip-rule:evenodd;stroke-linejoin:round;stroke-miterlimit:1.41421;"><path d="M433.534,221.683c-7.411,-38.991 -27.801,-74.577 -57.955,-100.849c-32.359,-28.193 -73.84,-43.72 -116.804,-43.72c-42.963,0 -84.446,15.527 -116.803,43.72c-32.028,27.906 -53.052,66.316 -59.196,108.154l44.991,6.608c9.462,-64.424 65.783,-113.006 131.008,-113.006c62.735,0 117.211,44.954 129.7,105.711l-31.933,4.69l62.686,46.618l46.633,-62.674l-32.327,4.748l0,0Z" style="fill:#000;fill-rule:nonzero;"/><path d="M258.775,387.47c-47.263,0 -89.916,-24.527 -113.754,-64.647l30.006,-9.887l-69.755,-35.169l-35.187,69.747l31.028,-10.223c30.817,59.079 90.785,95.655 157.662,95.655c64.702,0 124.378,-35.202 155.739,-91.869l-39.792,-22.018c-23.351,42.197 -67.78,68.411 -115.947,68.411" style="fill:#000;fill-rule:nonzero;"/><path d="M256,1.001c-140.607,0 -255,114.392 -255,254.999c0,140.607 114.393,255 255,255c140.607,0 255,-114.393 255,-255c0,-140.607 -114.393,-254.999 -255,-254.999ZM256,35.129c121.729,0 220.871,99.027 220.871,220.871c0,121.729 -99.027,220.871 -220.871,220.871c-121.729,0 -220.872,-99.142 -220.872,-220.871c0,-121.729 99.028,-220.871 220.872,-220.871Z" style="fill:#030404;fill-rule:nonzero;"/></svg>