<?xml version="1.0" encoding="UTF-8" standalone="no"?><!DOCTYPE svg PUBLIC "-//W3C//DTD SVG 1.1//EN" "http://www.w3.org/Graphics/SVG/1.1/DTD/svg11.dtd"><svg width="100%" height="100%" viewBox="0 0 512 512" version="1.1" xmlns="http://www.w3.org/2000/svg" xmlns:xlink="http://www.w3.org/1999/xlink" xml:space="preserve" style="fill-rule:evenodd;clip-rule:evenodd;stroke-linejoin:round;stroke-miterlimit:1.41421;"><g><path d="M211.5,273.4l-58,-0.3c8.2,48.9 51,86.3 102.5,86.3c15.9,0 31,-3.6 44.5,-10c5.8,-2.8 11.3,-6 16.5,-9.8l43.5,47.1c-1.3,1.1 -2.7,2.1 -4,3.1c-28,20.9 -62.8,33.2 -100.5,33.2c-1.2,0 -2.5,0 -3.7,0c-71.5,-1.5 -132,-47.6 -154.6,-111.4c-4.3,-12.3 -7.3,-25.2 -8.7,-38.5l-57,-0.1l67,-76.2l23,-26.2l38.7,44.4l50.8,58.4Z" style="fill:#000;fill-rule:nonzero;"/><path d="M259.7,89c72.1,1.6 133,48.3 155.2,112.9c4,11.7 6.8,24 8.1,36.8l57,0.1l-66.9,76.1l-23.1,26.2l-38.6,-44.3l-50.9,-58.4l57.9,0.2c-8.3,-48.8 -51.1,-86 -102.4,-86c-16,0 -31.1,3.6 -44.7,10.1c-5.8,2.7 -11.2,6 -16.3,9.7l-43.6,-47c1.6,-1.3 3.3,-2.6 5,-3.8c27.9,-20.5 62.3,-32.6 99.6,-32.6c1.2,0 2.5,0 3.7,0Z" style="fill:#000;fill-rule:nonzero;"/></g></svg>