<?xml version="1.0" standalone="no"?><!DOCTYPE svg PUBLIC "-//W3C//DTD SVG 1.1//EN" "http://www.w3.org/Graphics/SVG/1.1/DTD/svg11.dtd"><svg width="100%" height="100%" viewBox="0 0 512 512" version="1.1" xmlns="http://www.w3.org/2000/svg" xmlns:xlink="http://www.w3.org/1999/xlink" xml:space="preserve" style="fill-rule:evenodd;clip-rule:evenodd;stroke-linejoin:round;stroke-miterlimit:1.41421;"><g><path d="M256,1c-80.484,0 -145.714,65.23 -145.714,145.714c0,80.485 65.23,145.715 145.714,145.715c80.484,0 145.714,-65.23 145.714,-145.715c0,-80.484 -65.23,-145.714 -145.714,-145.714ZM256,237.786c-50.317,0 -91.071,-40.755 -91.071,-91.072c0,-50.317 40.754,-91.071 91.071,-91.071c50.317,0 91.071,40.754 91.071,91.071c0,50.317 -40.754,91.072 -91.071,91.072Z" style="fill:#000;fill-rule:nonzero;"/><g><path d="M185.078,314.513c-21.743,-9.221 -41.21,-22.312 -57.83,-39.046c-1.594,-1.594 -3.188,-3.188 -4.668,-4.896l-85.151,149.358l109.285,0l54.643,91.071l54.643,-120.442l29.029,-63.978c-9.562,1.48 -19.239,2.277 -29.029,2.277c-24.589,0 -48.382,-4.781 -70.922,-14.344Z" style="fill:#000;fill-rule:nonzero;"/><path d="M389.533,270.685c-1.479,1.594 -3.073,3.302 -4.667,4.895c-16.62,16.621 -36.087,29.826 -57.716,38.933l-27.891,61.246l-24.931,55.098l36.315,80.143l54.643,-91.071l109.285,0l-85.038,-149.244Z" style="fill:#000;fill-rule:nonzero;"/></g></g></svg>