<?xml version="1.0" encoding="UTF-8" standalone="no"?>
<svg width="723px" height="563px" viewBox="0 0 723 563" version="1.1" xmlns="http://www.w3.org/2000/svg" xmlns:xlink="http://www.w3.org/1999/xlink">
    <!-- Generator: Sketch 42 (36781) - http://www.bohemiancoding.com/sketch -->
    <title>shippingBox</title>
    <desc>Created with Sketch.</desc>
    <defs></defs>
    <g id="Page-1" stroke="none" stroke-width="1" fill="none" fill-rule="evenodd">
        <path d="M130,278.924325 L5.48525591,215.922841 C-4.28370593,210.97998 -0.149051081,196.189762 10.766965,197.029455 L123.505826,205.701675 L74.9799629,104.317283 C72.4863394,99.1073909 74.9123225,92.8743246 80.2718134,90.7209578 L304.271813,0.720957775 C309.153672,-1.24050325 314.720458,0.916205823 317.006583,5.65471887 L365.960189,107.122194 L445.009737,29.8490408 C447.70283,27.216466 451.646585,26.3201918 455.212963,27.530213 L679.212963,103.530213 C685.935795,105.811174 688.207266,114.175542 683.561687,119.543767 L596,220.726161 L596,274 L576,274 L576,233.539431 L373,340.046157 L373,536.328937 L576,428.001582 L576,391 L596,391 L596,434 C596,437.692284 593.965429,441.08413 590.707936,442.822434 L367.761515,561.793842 C364.974826,563.305731 361.47523,563.521074 358.292064,561.822434 L135.292064,442.822434 C133.663318,441.953282 132.340302,440.670745 131.424472,439.14396 C130.508643,437.617175 130,435.846142 130,434 L130,278.924325 Z M163.497367,218.035421 L363,322.707206 L562.502633,218.035421 L363,134.834771 L163.497367,218.035421 Z M349.40506,118.834868 L303.054988,22.7638095 L97.6245358,105.302831 L144.918732,204.113919 L349.40506,118.834868 Z M583.172226,204.985933 L658.712802,117.6946 L454.600397,48.4421771 L380.796838,120.587229 L583.172226,204.985933 Z M59.4967626,220.836985 L263.38587,324 L322.416299,324 L137.178608,226.812512 L59.4967626,220.836985 Z M615,231.999717 C615.000254,227.508937 620.461081,225.295188 623.588368,228.518102 L721.591594,329.518103 C723.473746,331.457808 723.473773,334.542099 721.591653,336.481837 L623.591781,437.481837 C620.464522,440.704833 615.003612,438.491108 615.003353,434.00029 L615.000289,381 L553.996647,381 C551.235071,381 548.996432,378.761186 548.996647,375.99961 L549,333 L549,289 C549,286.238577 551.238576,284 554,284 L614.997057,284 L615,231.999717 Z" id="shippingBox" fill="#000000" fill-rule="nonzero"></path>
    </g>
</svg>