<?xml version="1.0" encoding="UTF-8" standalone="no"?>
<svg width="416px" height="516px" viewBox="0 0 416 516" version="1.1" xmlns="http://www.w3.org/2000/svg" xmlns:xlink="http://www.w3.org/1999/xlink">
    <!-- Generator: Sketch 42 (36781) - http://www.bohemiancoding.com/sketch -->
    <title>shippingBox</title>
    <desc>Created with Sketch.</desc>
    <defs></defs>
    <g id="Page-1" stroke="none" stroke-width="1" fill="none" fill-rule="evenodd">
        <path d="M74.8098244,256.482968 L3.16905484,220.234451 C-2.4516124,217.390527 -0.0726985041,208.880832 6.20793755,209.363958 L71.0733381,214.353604 L43.1535107,156.021107 C41.7187802,153.023545 43.1145931,149.43729 46.1982284,148.198329 L175.078808,96.4159535 C177.887633,95.2874078 181.090537,96.5282914 182.405881,99.254641 L210.571815,157.63494 L256.053741,113.17508 C257.603239,111.660402 259.872317,111.144722 261.924267,111.840919 L390.804847,155.568259 C394.672893,156.880632 395.979806,161.693153 393.306927,164.781813 L342.927458,222.998088 L342.927458,253.649709 L331.420264,253.649709 L331.420264,230.370327 L214.622239,291.650009 L214.622239,404.583216 L331.420264,342.256018 L331.420264,320.966798 L342.927458,320.966798 L342.927458,345.707266 C342.927458,347.831658 341.756848,349.783189 339.882618,350.783339 L211.608226,419.234697 C210.004877,420.104577 207.99135,420.228476 206.159885,419.251147 L77.8546651,350.783339 C76.9175498,350.283264 76.1563396,349.545344 75.6294083,348.666893 C75.1024769,347.788443 74.8098244,346.769462 74.8098244,345.707266 L74.8098244,256.482968 Z M94.0828603,221.449944 L208.868641,281.673874 L323.654423,221.449944 L208.868641,173.579641 L94.0828603,221.449944 Z M201.04666,164.373941 L174.378696,109.098523 L56.182286,156.588152 L83.393462,213.440073 L201.04666,164.373941 Z M335.546874,213.941794 L379.00988,163.717877 L261.571821,123.872821 L219.108226,165.382179 L335.546874,213.941794 Z M34.2451008,223.061852 L151.554683,282.417696 L185.518414,282.417696 L78.9401061,226.499929 L34.2451008,223.061852 Z M353.859293,229.484438 C353.85944,226.900624 357.00138,225.626922 358.800695,227.481257 L415.187804,285.59259 C416.270719,286.708618 416.270734,288.483195 415.187838,289.599242 L358.802658,347.710575 C357.003359,349.564957 353.861372,348.291269 353.861222,345.707433 L353.85946,315.213201 L318.760421,315.213201 C317.171521,315.213201 315.883498,313.925077 315.883622,312.336178 L315.885551,287.595934 L315.885551,262.280106 C315.885551,260.691294 317.173538,259.403307 318.76235,259.403307 L353.8576,259.403307 L353.859293,229.484438 Z" id="shippingBox" fill="#000000" fill-rule="nonzero"></path>
    </g>
</svg>