<svg xmlns:dc="http://purl.org/dc/elements/1.1/" xmlns:cc="http://creativecommons.org/ns#" xmlns:rdf="http://www.w3.org/1999/02/22-rdf-syntax-ns#" xmlns:svg="http://www.w3.org/2000/svg" xmlns="http://www.w3.org/2000/svg" xmlns:sodipodi="http://sodipodi.sourceforge.net/DTD/sodipodi-0.dtd" xmlns:inkscape="http://www.inkscape.org/namespaces/inkscape" version="1.1" x="0px" y="0px" viewBox="0 0 100 125"><g transform="translate(0,-952.36218)"><path style="text-indent:0;text-transform:none;direction:ltr;block-progression:tb;baseline-shift:baseline;color:#000000;enable-background:accumulate;" d="M 6.8125,18 C 6.3540975,18.087467 5.9917766,18.5334 6,19 l 0,12 c -0.00747,0.528313 0.4716346,1.014242 1,1.014242 0.5283654,0 1.0074717,-0.485929 1,-1.014242 l 0,-11 11,0 c 0.528313,0.0075 1.014242,-0.471635 1.014242,-1 0,-0.528365 -0.485929,-1.007472 -1.014242,-1 -4.055524,-8e-6 -8.146766,0 -12.1875,0 z m 74,0 c -0.523599,0.04909 -0.955337,0.570151 -0.90625,1.09375 C 79.955338,19.617349 80.476401,20.049087 81,20 l 11,0 0,11 c -0.0075,0.528313 0.471635,1.014242 1,1.014242 0.528365,0 1.007472,-0.485929 1,-1.014242 l 0,-12 c -5.2e-5,-0.523584 -0.476416,-0.999948 -1,-1 -4.055528,-7e-6 -8.146753,0 -12.1875,0 z M 16.875,27.96875 C 16.383772,28.030302 15.980739,28.505306 16,29 l 0,42 c -0.0075,0.528313 0.471635,1.014242 1,1.014242 0.528365,0 1.007472,-0.485929 1,-1.014242 l 0,-42 c 0.02261,-0.578237 -0.550908,-1.103962 -1.125,-1.03125 z m 9,0 C 25.383772,28.030302 24.980739,28.505306 25,29 l 0,36 c -0.0075,0.528313 0.471635,1.014242 1,1.014242 0.528365,0 1.007472,-0.485929 1,-1.014242 l 0,-36 c 0.02261,-0.578237 -0.550908,-1.103962 -1.125,-1.03125 z m 9,0 C 34.383772,28.030302 33.980739,28.505306 34,29 l 0,36 c -0.0075,0.528313 0.471635,1.014242 1,1.014242 0.528365,0 1.007472,-0.485929 1,-1.014242 l 0,-36 c 0.02261,-0.578237 -0.550908,-1.103962 -1.125,-1.03125 z m 7,0 C 41.383772,28.030302 40.980739,28.505306 41,29 l 0,36 c -0.0075,0.528313 0.471635,1.014242 1,1.014242 0.528365,0 1.007472,-0.485929 1,-1.014242 l 0,-36 c 0.02261,-0.578237 -0.550908,-1.103962 -1.125,-1.03125 z m 9,0 C 50.383772,28.030302 49.980739,28.505306 50,29 l 0,36 c -0.0075,0.528313 0.471635,1.014242 1,1.014242 0.528365,0 1.007472,-0.485929 1,-1.014242 l 0,-36 c 0.02261,-0.578237 -0.550908,-1.103962 -1.125,-1.03125 z m 7,0 C 57.383772,28.030302 56.980739,28.505306 57,29 l 0,36 c -0.0075,0.528313 0.471635,1.014242 1,1.014242 0.528365,0 1.007472,-0.485929 1,-1.014242 l 0,-36 c 0.02261,-0.578237 -0.550908,-1.103962 -1.125,-1.03125 z m 9,0 C 66.383772,28.030302 65.980739,28.505306 66,29 l 0,36 c -0.0075,0.528313 0.471635,1.014242 1,1.014242 0.528365,0 1.007472,-0.485929 1,-1.014242 l 0,-36 c 0.02261,-0.578237 -0.550908,-1.103962 -1.125,-1.03125 z m 7,0 C 73.383772,28.030302 72.980739,28.505306 73,29 l 0,36 c -0.0075,0.528313 0.471635,1.014242 1,1.014242 0.528365,0 1.007472,-0.485929 1,-1.014242 l 0,-36 c 0.02261,-0.578237 -0.550908,-1.103962 -1.125,-1.03125 z m 9,0 C 82.383772,28.030302 81.980739,28.505306 82,29 l 0,42 c -0.0075,0.528313 0.471635,1.014242 1,1.014242 0.528365,0 1.007472,-0.485929 1,-1.014242 l 0,-42 c 0.02261,-0.578237 -0.550908,-1.103962 -1.125,-1.03125 z m -76,40 C 6.3837721,68.030302 5.9807388,68.505306 6,69 l 0,12 c 5.24e-5,0.523584 0.4764155,0.999948 1,1 l 12,0 c 0.528313,0.0075 1.014242,-0.471635 1.014242,-1 0,-0.528365 -0.485929,-1.007472 -1.014242,-1 L 8,80 8,69 C 8.02261,68.421763 7.4490925,67.896038 6.875,67.96875 z m 86.03125,0 C 92.86397,67.97645 92.82219,67.98691 92.78125,68 92.334096,68.100141 91.98897,68.541902 92,69 l 0,11 -11,0 c -0.528313,-0.0075 -1.014242,0.471635 -1.014242,1 0,0.528365 0.485929,1.007472 1.014242,1 l 12,0 c 0.523584,-5.2e-5 0.999948,-0.476416 1,-1 l 0,-12 c 0.02018,-0.566637 -0.529279,-1.084703 -1.09375,-1.03125 z" transform="translate(0,952.36218)" fill="#000000" fill-opacity="1" stroke="none" marker="none" visibility="visible" display="inline" overflow="visible"/></g><text x="0" y="115" fill="#000000" font-size="5px" font-weight="bold" font-family="'Helvetica Neue', Helvetica, Arial-Unicode, Arial, Sans-serif">Created by Rockicon</text><text x="0" y="120" fill="#000000" font-size="5px" font-weight="bold" font-family="'Helvetica Neue', Helvetica, Arial-Unicode, Arial, Sans-serif">from the Noun Project</text></svg>