<?xml version="1.0" encoding="utf-8"?>
<!-- Generator: Adobe Illustrator 16.2.1, SVG Export Plug-In . SVG Version: 6.00 Build 0)  -->
<!DOCTYPE svg PUBLIC "-//W3C//DTD SVG 1.1//EN" "http://www.w3.org/Graphics/SVG/1.1/DTD/svg11.dtd">
<svg version="1.1" id="Layer_1" xmlns="http://www.w3.org/2000/svg" xmlns:xlink="http://www.w3.org/1999/xlink" x="0px" y="0px"
	 width="512px" height="512px" viewBox="0 0 512 512" enable-background="new 0 0 512 512" xml:space="preserve">
<g transform="translate(384 48)">
	<g id="icon-javascript_1_1_">
		<path d="M192,104.001v197.017c0,41.567-9.644,71.988-28.662,90.417C146.278,407.965,121.277,416,86.907,416
			c-12.002,0-25.78-1.496-37.184-3.886l4.089-30.505c7.147,1.269,15.465,2.15,24.775,2.15c21.92,0,37.892-6.459,48.827-19.745
			C138.73,350.268,144,330.085,144,300.499V104.001H192 M208,88.001h-80v212.498c0,52.58-18.032,67.261-49.412,67.261
			c-14.705,0-27.948-2.521-38.25-6.064L32,423.904C46.7,428.967,69.259,432,86.907,432C158.955,432,208,398.129,208,301.019V88.001
			L208,88.001z"/>
		<path d="M382.463,96c24.458,0,45.898,3.146,65.1,9.585l-9.582,32.062c-13.611-5.505-32.535-10.937-56.485-10.937
			c-18.607,0-34.462,4.584-45.849,13.256c-11.732,8.936-18.194,21.583-18.194,35.613c0,34.974,33.062,48.149,71.347,63.405
			l0.107,0.043l0.109,0.042c26.976,10.298,45.938,22.26,57.968,36.572C458.593,289.451,464,305.543,464,326.284
			c0,25.177-9.333,46.71-26.99,62.275c-20.35,17.938-51.417,27.421-89.843,27.421c-28.052,0-54.698-6.426-72.615-13.979
			l7.593-31.603c17.579,7.249,41.881,14.382,69.438,14.382c20.28,0,36.629-4.477,48.591-13.305
			c12.806-9.451,19.857-23.698,19.857-40.119c0-15.348-6.041-27.923-18.469-38.445c-10.157-8.602-24.8-16.047-47.466-24.135
			c-26.861-9.905-47.36-21.948-60.934-35.795C278.922,218.455,272,201.829,272,182.154c0-24.149,9.831-45.101,28.43-60.591
			C320.51,104.839,348.876,96,382.463,96 M382.463,80C305.02,80,256,123.998,256,182.154c0,50.082,37.751,81.44,92.641,101.665
			c39.7,14.157,55.391,26.807,55.391,47.539c0,22.755-18.138,37.424-52.448,37.424c-31.863,0-60.789-10.639-80.394-21.255v-0.021
			L256,410.727c18.639,10.637,53.441,21.254,91.167,21.254C437.853,431.98,480,383.43,480,326.284
			c0-48.55-26.958-79.9-85.278-102.163c-43.139-17.191-61.27-26.795-61.27-48.542c0-17.2,15.689-32.869,48.043-32.869
			c31.846,0,53.744,10.707,66.505,17.291l19.125-64C447.125,87.22,420.187,80,382.463,80L382.463,80z"/>
	</g>
</g>
</svg>
