<?xml version="1.0" encoding="utf-8"?>
<!-- Generator: Adobe Illustrator 16.2.1, SVG Export Plug-In . SVG Version: 6.00 Build 0)  -->
<!DOCTYPE svg PUBLIC "-//W3C//DTD SVG 1.1//EN" "http://www.w3.org/Graphics/SVG/1.1/DTD/svg11.dtd">
<svg version="1.1" id="Layer_1" xmlns="http://www.w3.org/2000/svg" xmlns:xlink="http://www.w3.org/1999/xlink" x="0px" y="0px"
	 width="512px" height="512px" viewBox="0 0 512 512" enable-background="new 0 0 512 512" xml:space="preserve">
<path d="M448,32h-80L256,251.839L144,32H64l112.368,208H127v48h74.564L215,319v17h-88v48h88v96h3.527h74.945H295v-96h88v-48h-88v-17
	l15.891-31H383v-48h-47.289L448,32z M367,256v16h-56.109h-9.99l-4.386,8.727l-15.641,31.375L279,315.301V319v16.5V352h16.5H367v16
	h-71.5H279v15.5V464h-48v-80.5V368h-15.5H143v-16h72.5H231v-16.5V319v-3.381l-1.118-3.093l-13.811-31.25l-4.09-9.276h-10.417H143
	v-16h33.368h26.829l-12.752-23.605L90.829,48h43.365l107.549,210.852L256,286.711l14.256-27.797L377.806,48H421h0.18
	l-99.548,184.399L308.891,256h26.82H367z"/>
</svg>
