<?xml version="1.0" encoding="utf-8"?>
<!-- Generator: Adobe Illustrator 16.2.1, SVG Export Plug-In . SVG Version: 6.00 Build 0)  -->
<!DOCTYPE svg PUBLIC "-//W3C//DTD SVG 1.1//EN" "http://www.w3.org/Graphics/SVG/1.1/DTD/svg11.dtd">
<svg version="1.1" id="Layer_1" xmlns="http://www.w3.org/2000/svg" xmlns:xlink="http://www.w3.org/1999/xlink" x="0px" y="0px"
	 width="512px" height="512px" viewBox="0 0 512 512" style="enable-background:new 0 0 512 512;" xml:space="preserve">
<g>
	<path d="M202.1,266.7H93.4c-7.4,0-13.4,6.1-13.4,13.7v89c0,6.6,4.6,11.9,10.7,13.2l105.4,21.1l6.9,1.2c7-0.3,12.7-6.4,12.7-13.5
		V280.4C215.7,272.7,209.5,266.7,202.1,266.7L202.1,266.7z"/>
	<path d="M418.4,266.7H250.2c-7.4,0-13.4,6.1-13.4,13.7v120.5v0.2c0,5.5,3.3,10.1,7.9,12.2c0.2,0.2,0.2,0.2,0.2,0.2l5.3,1.1
		c0.2,0,0.2,0,0.3,0l164.7,32.9c0.2,0.1,0.5,0.3,0.7,0.3c0.1,0,0.2,0,0.3-0.1c0.7,0.4,1.4,0.4,2.1,0.4c7.4,0,13.6-6,13.6-13.5V280.4
		C432,272.7,425.8,266.7,418.4,266.7L418.4,266.7z"/>
	<path d="M418.4,64c-0.7,0-1.4,0-2.1,0.4c-0.1-0.1-0.2-0.1-0.3-0.1c-0.2,0-0.5,0.1-0.7,0.3L250.5,97.4c-0.2,0-0.2,0-0.3,0l-5.1,1.1
		c0,0-0.2,0-0.4,0.2c-4.6,2.1-7.9,6.9-7.9,12.4v120.5c0,7.6,6,13.7,13.4,13.7h168.2c7.4,0,13.6-6.1,13.6-13.7V77.5
		C432,70.1,425.8,64,418.4,64L418.4,64z"/>
	<path d="M203,107l-6.9,1.2L90.7,129.4C84.6,130.7,80,136,80,142.6v89c0,7.6,6,13.7,13.4,13.7h108.8c7.4,0,13.6-6.1,13.6-13.7V120.5
		C215.7,113.4,210.1,107.4,203,107L203,107z"/>
</g>
</svg>
