<?xml version="1.0" encoding="utf-8"?>
<!-- Generator: Adobe Illustrator 16.2.1, SVG Export Plug-In . SVG Version: 6.00 Build 0)  -->
<!DOCTYPE svg PUBLIC "-//W3C//DTD SVG 1.1//EN" "http://www.w3.org/Graphics/SVG/1.1/DTD/svg11.dtd">
<svg version="1.1" id="Layer_1" xmlns="http://www.w3.org/2000/svg" xmlns:xlink="http://www.w3.org/1999/xlink" x="0px" y="0px"
	 width="512px" height="512px" viewBox="0 0 512 512" enable-background="new 0 0 512 512" xml:space="preserve">
<g>
	<path d="M471.036,150.483l-34.951-35.296c-5.819-5.801-13.506-9.188-21.645-9.188h-0.111c-8.142,0-15.827,3.375-21.694,9.208
		l-139.73,140.436l-61.774-62.064c-5.714-5.762-13.63-9.066-21.804-9.066c-8.064,0.024-15.957,3.297-21.68,9.003l-34.956,35.021
		c-11.986,11.99-11.993,31.492-0.042,43.446l118.355,118.942c4.496,4.522,10.323,7.535,16.562,8.597l0.693,0.434l4.659,0.014
		c8.18,0,15.896-3.189,21.791-9.04l196.295-197.004C482.955,181.969,482.971,162.483,471.036,150.483z M252.859,367.522
		l-116.661-117.24l33.157-33.218l83.533,83.925l161.48-162.091l33.122,33.28L252.859,367.522z"/>
	<g>
		<polygon points="369.688,124.772 292.504,47.364 369.688,124.772 		"/>
		<path d="M290.551,45.504c-19.894-18.006-50.493-18.006-70.387,0C230.111,36.501,242.734,32,255.357,32
			S280.604,36.501,290.551,45.504z"/>
		<path d="M463.391,218.745l-0.82-0.818l-22.59,22.665l0.77,0.769c7.904,7.95,7.898,21.358-0.02,29.298L269.853,442.037
			c-3.836,3.845-8.981,5.963-14.489,5.963s-10.653-2.118-14.486-5.961L69.982,270.656c-7.924-7.945-7.924-21.369,0.002-29.316
			L240.867,69.963c3.836-3.846,8.981-5.963,14.49-5.963s10.654,2.117,14.486,5.959l77.253,77.479l22.591-22.665l-77.184-77.408
			c-0.639-0.64-1.29-1.261-1.953-1.86C280.604,36.501,267.98,32,255.357,32s-25.246,4.501-35.193,13.504
			c-0.663,0.6-1.314,1.221-1.953,1.86L47.324,218.745c-20.432,20.488-20.432,54.021,0,74.508l170.893,171.381
			C228.434,474.878,241.898,480,255.363,480s26.93-5.122,37.146-15.366l170.881-171.381C474.665,281.909,480.012,268.747,480,256
			C479.986,242.43,473.926,229.312,463.391,218.745z"/>
	</g>
</g>
</svg>
