<?xml version="1.0" encoding="utf-8"?>
<!-- Generator: Adobe Illustrator 18.1.1, SVG Export Plug-In . SVG Version: 6.00 Build 0)  -->
<svg version="1.1" id="Layer_1" xmlns="http://www.w3.org/2000/svg" xmlns:xlink="http://www.w3.org/1999/xlink" x="0px" y="0px"
	 viewBox="-49 141 512 512" enable-background="new -49 141 512 512" xml:space="preserve">
<g>
	<path d="M207,239.6c51.3,0,57.3,0.2,77.6,1.1c18.7,0.9,28.9,4,35.7,6.6c9,3.5,15.4,7.6,22.1,14.4c6.7,6.7,10.9,13.1,14.4,22.1
		c2.6,6.8,5.8,16.9,6.6,35.7c0.9,20.2,1.1,26.3,1.1,77.6s-0.2,57.3-1.1,77.6c-0.9,18.7-4,28.9-6.6,35.7c-3.5,9-7.6,15.4-14.4,22.1
		c-6.7,6.7-13.1,10.9-22.1,14.4c-6.8,2.6-16.9,5.8-35.7,6.6c-20.2,0.9-26.3,1.1-77.6,1.1s-57.3-0.2-77.6-1.1
		c-18.7-0.9-28.9-4-35.7-6.6c-9-3.5-15.4-7.6-22.1-14.4c-6.7-6.7-10.9-13.1-14.4-22.1c-2.6-6.8-5.8-16.9-6.6-35.7
		c-0.9-20.2-1.1-26.3-1.1-77.6s0.2-57.3,1.1-77.6c0.9-18.7,4-28.9,6.6-35.7c3.5-9,7.6-15.4,14.4-22.1c6.7-6.7,13.1-10.9,22.1-14.4
		c6.8-2.6,16.9-5.8,35.7-6.6C149.7,239.8,155.7,239.6,207,239.6 M207,205c-52.1,0-58.7,0.2-79.2,1.2c-20.4,0.9-34.4,4.2-46.6,8.9
		c-12.6,4.9-23.3,11.5-34,22.1c-10.7,10.7-17.2,21.4-22.1,34c-4.7,12.2-8,26.2-8.9,46.6c-0.9,20.5-1.2,27-1.2,79.2
		c0,52.1,0.2,58.7,1.2,79.2c0.9,20.4,4.2,34.4,8.9,46.6c4.9,12.6,11.5,23.3,22.1,34c10.7,10.7,21.4,17.2,34,22.1
		c12.2,4.7,26.2,8,46.6,8.9c20.5,0.9,27,1.2,79.2,1.2s58.7-0.2,79.2-1.2c20.4-0.9,34.4-4.2,46.6-8.9c12.6-4.9,23.3-11.5,34-22.1
		c10.7-10.7,17.2-21.4,22.1-34c4.7-12.2,8-26.2,8.9-46.6c0.9-20.5,1.2-27,1.2-79.2s-0.2-58.7-1.2-79.2c-0.9-20.4-4.2-34.4-8.9-46.6
		c-4.9-12.6-11.5-23.3-22.1-34c-10.7-10.7-21.4-17.2-34-22.1c-12.2-4.7-26.2-8-46.6-8.9C265.7,205.2,259.1,205,207,205L207,205z"/>
	<path d="M207,298.4c-54.5,0-98.6,44.1-98.6,98.6c0,54.5,44.1,98.6,98.6,98.6s98.6-44.1,98.6-98.6
		C305.6,342.5,261.5,298.4,207,298.4z M207,461c-35.3,0-64-28.7-64-64c0-35.3,28.7-64,64-64s64,28.7,64,64
		C271,432.3,242.3,461,207,461z"/>
	<circle cx="309.5" cy="294.5" r="23"/>
</g>
</svg>
