<?xml version="1.0" encoding="utf-8"?>
<!-- Generator: Adobe Illustrator 16.2.1, SVG Export Plug-In . SVG Version: 6.00 Build 0)  -->
<!DOCTYPE svg PUBLIC "-//W3C//DTD SVG 1.1//EN" "http://www.w3.org/Graphics/SVG/1.1/DTD/svg11.dtd">
<svg version="1.1" id="Layer_1" xmlns="http://www.w3.org/2000/svg" xmlns:xlink="http://www.w3.org/1999/xlink" x="0px" y="0px"
	 width="512px" height="512px" viewBox="0 0 512 512" style="enable-background:new 0 0 512 512;" xml:space="preserve">
<path d="M417.2,64c-7.6,0-15,0.7-21.6,1.7C376.5,68.6,310.1,91.9,288,160c5.6-1,10.9-1.6,15.9-1.6c27.4,0,44.7,16,41.5,52.3
	c-1.6,17.9-10.7,37.5-20.9,56.3c-8.8,16.3-23.4,44.3-42.3,44.3c-6.3,0-13-3.1-20.2-10.7c-26-27.6-24-80.4-30-115.6
	c-3.3-19.7-6.8-44.3-13.3-64.6c-5.6-17.4-18.5-38.5-34.2-43.1c-3.7-1.1-7.6-1.6-11.6-1.6c-14.1,0-28.8,5.9-38.4,11.5
	c-39,22.8-68.8,55.2-102.5,82c6.7,6.4,9.3,21.3,19.1,22.8c1.4,0.2,2.8,0.3,4.2,0.3c14,0,27.2-9.3,38.7-9.3c6.3,0,12.1,2.8,17.2,11.4
	c9.4,15.9,12.3,33.2,18.3,50.3c8.1,22.7,14.3,47.5,20.8,73.7c11.1,44.3,24.8,110.5,63.3,126.8c4.9,2.1,10.4,2.9,16.1,2.9
	c17.3,0,36.8-7.9,48.1-14.6c40.5-23.8,72.1-58.4,99.1-93.5c61.8-83.2,95.9-177.5,101.1-204.4c3.3-18.6,3.3-37.8-8.3-52.3
	C458.1,68.5,437,64,417.2,64L417.2,64z"/>
</svg>
