<?xml version="1.0" encoding="utf-8"?>
<!-- Generator: Adobe Illustrator 16.2.1, SVG Export Plug-In . SVG Version: 6.00 Build 0)  -->
<!DOCTYPE svg PUBLIC "-//W3C//DTD SVG 1.1//EN" "http://www.w3.org/Graphics/SVG/1.1/DTD/svg11.dtd">
<svg version="1.1" id="Layer_1" xmlns="http://www.w3.org/2000/svg" xmlns:xlink="http://www.w3.org/1999/xlink" x="0px" y="0px"
	 width="512px" height="512px" viewBox="0 0 512 512" enable-background="new 0 0 512 512" xml:space="preserve">
<g transform="translate(384 48)">
	<g id="icon-javascript_1_1_">
		<path d="M208,88.001h-80v212.498c0,52.58-18.032,67.261-49.412,67.261c-14.705,0-27.948-2.521-38.25-6.064L32,423.904
			C46.7,428.967,69.259,432,86.907,432C158.955,432,208,398.129,208,301.019V88.001L208,88.001z"/>
		<path d="M382.463,80C305.02,80,256,123.998,256,182.154c0,50.082,37.751,81.44,92.641,101.665
			c39.7,14.157,55.391,26.807,55.391,47.539c0,22.755-18.138,37.424-52.448,37.424c-31.863,0-60.789-10.639-80.394-21.255v-0.021
			L256,410.727c18.639,10.637,53.441,21.254,91.167,21.254C437.853,431.98,480,383.43,480,326.284
			c0-48.55-26.958-79.9-85.278-102.163c-43.139-17.191-61.27-26.795-61.27-48.542c0-17.2,15.689-32.869,48.043-32.869
			c31.846,0,53.744,10.707,66.505,17.291l19.125-64C447.125,87.22,420.187,80,382.463,80L382.463,80z"/>
	</g>
</g>
</svg>
