<?xml version="1.0" encoding="utf-8"?>
<!-- Generator: Adobe Illustrator 16.2.1, SVG Export Plug-In . SVG Version: 6.00 Build 0)  -->
<!DOCTYPE svg PUBLIC "-//W3C//DTD SVG 1.1//EN" "http://www.w3.org/Graphics/SVG/1.1/DTD/svg11.dtd">
<svg version="1.1" id="Layer_1" xmlns="http://www.w3.org/2000/svg" xmlns:xlink="http://www.w3.org/1999/xlink" x="0px" y="0px"
	 width="512px" height="512px" viewBox="0 0 512 512" enable-background="new 0 0 512 512" xml:space="preserve">
<g transform="translate(96 48)">
	<g id="icon-markdown">
		<path fill="#231F20" d="M351.659,64H-31.659C-49.496,64-64,78.484-64,96.308v223.349C-64,337.493-49.496,352-31.659,352h383.318
			C369.496,352,384,337.493,384,319.656V96.308C384,78.484,369.496,64,351.659,64z M188.023,304h-56.048v-96l-42.04,53.878
			L47.913,208v96H-8.131V112h56.044l42.022,67.98l42.04-67.98l56.048-0.057V304L188.023,304z M271.68,304l-69.635-96h42v-96h56.043
			v96h42.027l-70.453,96H271.68z"/>
	</g>
</g>
</svg>
