<?xml version="1.0" encoding="utf-8"?>
<!-- Generator: Adobe Illustrator 16.2.1, SVG Export Plug-In . SVG Version: 6.00 Build 0)  -->
<!DOCTYPE svg PUBLIC "-//W3C//DTD SVG 1.1//EN" "http://www.w3.org/Graphics/SVG/1.1/DTD/svg11.dtd">
<svg version="1.1" id="Layer_1" xmlns="http://www.w3.org/2000/svg" xmlns:xlink="http://www.w3.org/1999/xlink" x="0px" y="0px"
	 width="512px" height="512px" viewBox="0 0 512 512" enable-background="new 0 0 512 512" xml:space="preserve">
<g transform="translate(96 96)">
	<g id="icon-nodejs_small">
		<path d="M255.917,480c-5.77,0-11.536-1.562-16.633-4.599l-52.985-32.44c-7.914-4.562-4.024-6.203-1.443-7.141
			c10.565-3.781,13.712-5.657,24.946-12.285c1.207-0.667,2.748-0.424,3.956,0.322l39.71,23.504c1.475,0.85,3.556,0.85,4.93,0
			l155.188-92.246c1.475-0.877,2.415-2.646,2.415-4.441V163.869c0-1.849-0.94-3.592-2.449-4.528L258.433,64.669
			c-1.478-0.894-3.421-0.894-4.899,0L98.516,159.374c-1.544,0.903-2.516,2.698-2.516,4.495v186.805c0,1.813,0.972,3.513,2.481,4.389
			l39.929,23.971c23.609,12.205,37.59-0.169,37.59-14.61V180.725c0-2.653,2.047-4.727,4.595-4.727h22.81
			c2.514,0,4.596,2.073,4.596,4.727v183.698c0,32.563-19.352,51.248-49.199,51.248c-9.156,0-16.397,0-36.552-10.279l-41.584-24.782
			C70.371,374.459,64,362.965,64,350.656V161.191c0-12.316,6.371-23.784,16.665-29.917L239.35,36.41
			c10.027-5.88,23.374-5.88,33.332,0l158.65,94.864C441.63,137.423,448,148.899,448,161.191v189.465
			c0,12.309-6.37,23.75-16.668,29.953l-158.65,94.775c-5.097,3.036-10.832,4.598-16.699,4.598L255.917,480z"/>
		<path d="M304.943,351.998c-64.61,0-84.005-31.61-84.005-59.271c0-2.63,2.047-4.729,4.562-4.729h20.522
			c2.282,0,4.226,1.7,4.562,4.016c3.084,21.601,16.748,31.15,54.324,31.15c33.4,0,47.091-10.346,47.091-28.683
			c0-10.592-3.463-18.424-55.407-23.698c-43.427-4.441-70.288-14.373-70.288-50.294c0-33.136,26.996-52.491,72.234-52.491
			c46.128,0,76.462,14,79.173,50.829c0.101,1.337-0.368,2.629-1.241,3.644c-0.871,0.964-2.078,1.527-3.353,1.527h-20.591
			c-2.145,0-4.024-1.562-4.459-3.713c-4.401-16.953-16.969-23.402-49.563-23.402c-36.486,0-40.746,12.753-40.746,22.608
			c0,11.962,5.031,15.44,54.294,22.171c48.76,6.663,71.932,16.117,71.932,51.552c0,35.781-28.807,58.783-79.075,58.783H304.943z"/>
	</g>
</g>
</svg>
