<?xml version="1.0" encoding="utf-8"?>
<!-- Generator: Adobe Illustrator 21.0.0, SVG Export Plug-In . SVG Version: 6.00 Build 0)  -->
<svg version="1.1" id="Layer_1" xmlns="http://www.w3.org/2000/svg" xmlns:xlink="http://www.w3.org/1999/xlink" x="0px" y="0px"
	 viewBox="0 0 512 512" style="enable-background:new 0 0 512 512;" xml:space="preserve">
<path d="M448.5,112c0-26.2-21.3-47.5-47.5-47.5H112c-26.2,0-47.5,21.3-47.5,47.5v289c0,26.2,21.3,47.5,47.5,47.5h289
	c26.2,0,47.5-21.3,47.5-47.5V112z M257,175.8c44.2,0,80,35.8,80,80s-35.8,80-80,80s-80-35.8-80-80S212.8,175.8,257,175.8z
	 M416.5,160.5c0,8.8-7.2,16-16,16h-48c-8.8,0-16-7.2-16-16v-48c0-8.8,7.2-16,16-16h48c8.8,0,16,7.2,16,16V160.5z M401.5,416.5h-288
	c-8.8,0-17-8.2-17-17v-175h53.1c-3,10-4.6,20.6-4.6,31.6c0,29.9,11.7,57.9,32.8,79.1s49.3,32.7,79.2,32.7s58-11.7,79.2-32.8
	s32.8-49,32.8-79c0-10.9-1.6-21.6-4.6-31.6h52.1v175C416.5,408.3,410.3,416.5,401.5,416.5z"/>
</svg>
