<?xml version="1.0" encoding="utf-8"?>
<!-- Generator: Adobe Illustrator 16.2.1, SVG Export Plug-In . SVG Version: 6.00 Build 0)  -->
<!DOCTYPE svg PUBLIC "-//W3C//DTD SVG 1.1//EN" "http://www.w3.org/Graphics/SVG/1.1/DTD/svg11.dtd">
<svg version="1.1" id="Layer_1" xmlns="http://www.w3.org/2000/svg" xmlns:xlink="http://www.w3.org/1999/xlink" x="0px" y="0px"
	 width="512px" height="512px" viewBox="0 0 512 512" enable-background="new 0 0 512 512" xml:space="preserve">
<path fill="#231F20" d="M461.568,293.242c-24.943-18.595-57.493-14.47-84.683-4.153c-10.891-18.556-11.364-32.718-5.089-52.971
	c0.812-2.562,0.258-3.981-2.296-5.126c-6.2-2.771-15.13-1.302-21.369,0.425c-2.154,0.59-3.723,1.737-4.2,4.005
	c-4.51,22.167-18.383,42.47-30.475,61.156c-8.514-17.054-7.84-30.253-2.112-48.017c0.698-2.164,0.377-3.313-1.695-4.462
	c-6.352-3.434-16.101-1.748-22.575,0.254c-7.445,2.268-18.628,40.775-22.2,48.41c-7.465,15.95-14.08,40.839-26.762,53.49
	c-10.763-14.453,20.595-47.909,9.522-60.207c-2.798-3.108-8.639-3.79-12.112-1.39c-0.377,0.254-0.825,0.426-1.526,0.826
	c0.646-5.942,1.442-11.531-0.28-17.432c-1.821-6.208-6.441-9.773-13.204-9.587c-15.746,0.474-29.613,12.629-39.061,24.134
	c-8.992,11.069-32.708,17.946-45.458,24.618c-21.903-19.939-69.318-41.097-70.553-75.05c-1.337-38.261,42.279-64.227,71.397-79.755
	c37.87-20.211,97.073-45.312,139.245-23.256c5.589,2.909,10.154,6.727,12.279,12.696c2.104,5.885,2.048,11.829,0.59,17.794
	c-7.751,31.547-41.298,52.385-70.09,61.998c-14.166,4.733-29.709,7.937-44.713,7.338c-4.414-0.175-38.145-14.553-37.87-14.706
	c-1.401,0.773-1.652,2.067-1.179,3.35c20.839,57.084,126.365,15.251,153.962-14.056c13.291-14.098,22.775-30.039,24.806-49.276
	c0.991-9.387-0.06-18.597-4.664-27.141c-5.016-9.291-12.971-15.623-22.465-20.364c-66.755-33.354-162.431,10.209-213.983,54.243
	c-22.372,19.109-50.358,49.474-37.515,81.325c13.939,34.57,56.645,52.293,84.441,73.434c-22.491,11.676-50.63,23.757-65.204,45.654
	c-8.334,12.551-11.29,25.93-5.084,40.2c11,25.206,50.999,14.283,67.876,3.171c15.462-10.173,25.868-23.833,30.362-41.349
	c3.899-15.186,3.099-30.967-3.374-45.272c8.191-4.483,16.428-8.999,24.651-13.515c0.125,0.097,0.235,0.215,0.361,0.297
	c-6.735,21.099-9.71,47.546,4.271,66.616c5.602,7.623,20.14,7.928,26.09,0.278c7.714-10.003,12.831-22.54,17.94-34.017
	c-0.597,8.571-1.922,17.451,1.205,25.751c1.583,4.247,4.298,7.398,9.397,7.959c3.473,0.371,6.245-1.148,8.796-3.071
	c23.905-17.94,37.974-62.772,49.405-89.66c3.107,11.727,6.538,22.442,12.212,33.255c1.401,2.657,1.232,4.366-0.697,6.58
	c-8.473,9.76-28.722,26.041-30.685,39.225c-0.459,3.083,1.499,6.033,4.975,6.742c13.626,2.844,28.733-2.318,39.798-10.134
	c11.539-8.156,15.265-19.278,12.463-32.47c-4.004-18.99,9.62-40.212,22.577-55.803c2.378,11.803,5.963,23.162,12.375,33.472
	c-11.442,10.498-28.508,25.387-26.058,42.919c0.865,6.275,6.243,10.331,12.7,8.903c13.81-3.042,25.738-9.251,34.448-20.252
	c7.896-9.923,5.069-20.755,1.625-31.664c20.888-6.231,42.02-7.478,62.852-0.026c10.059,3.575,18.161,9.599,22.967,19.034
	c5.885,11.561,2.634,22.507-8.793,29.812c-1.067,0.682-2.269,1.213-3.166,2.067c-0.548,0.506-0.868,1.561-0.728,2.27
	c0.07,0.426,1.244,0.948,1.904,0.948c3.751-0.028,6.807-1.896,9.718-3.831c7.337-4.818,11.822-11.322,12.971-19.865
	c0.23-2.363,0.224-4.728-0.021-7.091C478.347,310.466,471.709,300.812,461.568,293.242
	C449.802,284.471,471.709,300.812,461.568,293.242z M130.828,346.016c-1.188,15.244-8.431,27.606-20.278,37.594
	c-6.665,5.631-14.299,9.641-23.205,11.055c-3.22,0.506-6.524,0.625-9.66-0.646c-4.456-1.812-5.464-5.59-5.546-9.624
	c-0.561-25.184,35.808-49.761,56.547-57.175c1.767,6.271,2.635,12.495,2.128,18.821L130.828,346.016z M221.042,279.771
	c-3.415,20.396-12.976,57.004-28.275,71.623c-2.062,1.961-4.034,1.844-5.083-0.704c-9.052-21.997,3.212-67.358,28.947-74.359
	C219.656,275.515,221.533,276.859,221.042,279.771z M282.565,354.531c7.368-8.193,14.729-16.379,22.11-24.619
	C305.587,339.074,289.3,357.308,282.565,354.531z M353.189,338.354h0.013c-1.567,1-3.274,1.283-4.871,2.056
	c-1.459,0.721-1.963-0.094-1.99-1.294c-0.363-10.075,9.9-22.077,16.987-28.108c0.11-0.104,0.295,0.031,0.571-0.114
	C367.795,321.265,363.3,332.355,353.189,338.354z"/>
</svg>
