<?xml version="1.0" encoding="utf-8"?>
<!-- Generator: Adobe Illustrator 16.2.1, SVG Export Plug-In . SVG Version: 6.00 Build 0)  -->
<!DOCTYPE svg PUBLIC "-//W3C//DTD SVG 1.1//EN" "http://www.w3.org/Graphics/SVG/1.1/DTD/svg11.dtd">
<svg version="1.1" id="Layer_1" xmlns="http://www.w3.org/2000/svg" xmlns:xlink="http://www.w3.org/1999/xlink" x="0px" y="0px"
	 width="512px" height="512px" viewBox="0 0 512 512" enable-background="new 0 0 512 512" xml:space="preserve">
<g transform="translate(96 48)">
	<g id="icon-markdown">
		<path fill="#231F20" d="M447.659,112H64.341C46.504,112,32,126.484,32,144.308v223.349C32,385.493,46.504,400,64.341,400h383.318
			C465.496,400,480,385.493,480,367.656V144.308C480,126.484,465.496,112,447.659,112z M284.023,352h-56.047v-96l-42.04,53.878
			L143.913,256v96H87.869V160h56.044l42.023,67.98l42.04-67.98l56.047-0.057V352z M367.68,352l-69.635-96h42v-96h56.043v96h42.027
			l-70.453,96H367.68z"/>
	</g>
</g>
</svg>
