<?xml version="1.0" encoding="utf-8"?>
<!-- Generator: Adobe Illustrator 16.0.4, SVG Export Plug-In . SVG Version: 6.00 Build 0)  -->
<!DOCTYPE svg PUBLIC "-//W3C//DTD SVG 1.1//EN" "http://www.w3.org/Graphics/SVG/1.1/DTD/svg11.dtd">
<svg version="1.1" id="Layer_1" xmlns="http://www.w3.org/2000/svg" xmlns:xlink="http://www.w3.org/1999/xlink" x="0px" y="0px"
	 width="512px" height="512px" viewBox="0 0 512 512" enable-background="new 0 0 512 512" xml:space="preserve">
<path d="M255,48.836C141.139,48.836,48.836,141.139,48.836,255c0,113.861,92.303,206.163,206.164,206.163
	c113.861,0,206.163-92.302,206.163-206.163C461.163,141.139,368.861,48.836,255,48.836z M253.625,202.772
	c-6.833,0-12.37,5.537-12.37,12.37v75.594c0,28.844-23.383,52.228-52.228,52.228S136.8,319.579,136.8,290.735v-34.361h39.858v32.986
	c0,6.832,5.538,12.37,12.37,12.37c6.833,0,12.37-5.538,12.37-12.37v-74.219c0-28.845,23.383-52.228,52.228-52.228
	c28.844,0,52.228,23.383,52.228,52.228v15.119l-23.365,7.56l-16.493-7.56v-15.119C265.995,208.309,260.457,202.772,253.625,202.772z
	 M370.451,290.735c0,28.844-23.384,52.228-52.228,52.228c-28.845,0-52.229-23.384-52.229-52.228v-33.674l16.493,7.56l23.365-7.56
	v33.674c0,6.831,5.538,12.369,12.37,12.369s12.37-5.538,12.37-12.369v-32.986h39.857V290.735z"/>
</svg>
