<svg xmlns="http://www.w3.org/2000/svg" viewBox="-49 141 512 512">
  <path d="M207 205c-52.1 0-58.7.2-79.2 1.2-20.4.9-34.4 4.2-46.6 8.9-12.6 4.9-23.3 11.5-34 22.1-10.7 10.7-17.2 21.4-22.1 34-4.7 12.2-8 26.2-8.9 46.6-.9 20.5-1.2 27-1.2 79.2 0 52.1.2 58.7 1.2 79.2.9 20.4 4.2 34.4 8.9 46.6 4.9 12.6 11.5 23.3 22.1 34 10.7 10.7 21.4 17.2 34 22.1 12.2 4.7 26.2 8 46.6 8.9 20.5.9 27 1.2 79.2 1.2s58.7-.2 79.2-1.2c20.4-.9 34.4-4.2 46.6-8.9 12.6-4.9 23.3-11.5 34-22.1 10.7-10.7 17.2-21.4 22.1-34 4.7-12.2 8-26.2 8.9-46.6.9-20.5 1.2-27 1.2-79.2s-.2-58.7-1.2-79.2c-.9-20.4-4.2-34.4-8.9-46.6-4.9-12.6-11.5-23.3-22.1-34-10.7-10.7-21.4-17.2-34-22.1-12.2-4.7-26.2-8-46.6-8.9-20.5-1-27.1-1.2-79.2-1.2z"/>
  <path fill="#FFF" d="M207 298.4c-54.5 0-98.6 44.1-98.6 98.6s44.1 98.6 98.6 98.6 98.6-44.1 98.6-98.6-44.1-98.6-98.6-98.6zm0 162.6c-35.3 0-64-28.7-64-64s28.7-64 64-64 64 28.7 64 64-28.7 64-64 64z"/>
  <circle fill="#FFF" cx="309.5" cy="294.5" r="23"/>
</svg>
