<?xml version="1.0" encoding="utf-8"?>
<!-- Generator: Adobe Illustrator 16.2.1, SVG Export Plug-In . SVG Version: 6.00 Build 0)  -->
<!DOCTYPE svg PUBLIC "-//W3C//DTD SVG 1.1//EN" "http://www.w3.org/Graphics/SVG/1.1/DTD/svg11.dtd">
<svg version="1.1" id="Layer_1" xmlns="http://www.w3.org/2000/svg" xmlns:xlink="http://www.w3.org/1999/xlink" x="0px" y="0px"
	 width="512px" height="512px" viewBox="0 0 512 512" enable-background="new 0 0 512 512" xml:space="preserve">
<g>
	<g>
		<path d="M475.695,145.772l-34.908-35.062c-2.807-2.798-6.465-4.341-10.404-4.326c-3.936-0.015-7.623,1.532-10.418,4.311
			l-167.07,167.621l-73.129-73.472c-2.734-2.758-6.498-4.342-10.393-4.332c-3.863,0.012-7.654,1.564-10.404,4.307l-34.965,35.029
			c-5.756,5.758-5.777,15.086-0.016,20.849l118.359,118.947c2.367,2.381,5.441,3.858,8.719,4.219
			c0.555,0.075,1.119,0.106,1.684,0.103c0.035,0,0.072,0,0.107-0.006l0.016,0.01c3.949,0.012,7.699-1.553,10.502-4.335
			l212.311-213.017c2.799-2.8,4.314-6.679,4.314-10.243S478.643,148.734,475.695,145.772z"/>
	</g>
	<g>
		<path d="M462.568,217.927L282.74,398.354c-7.768,7.713-18.043,11.957-28.98,11.957l-7.982-0.01l-1.363-0.22
			c-7.324-1.75-14.416-6.442-19.771-11.834L106.326,279.342c-7.756-7.76-12.029-18.079-12.023-29.058
			c0-10.991,4.277-21.32,12.027-29.068l35.008-35.078c7.604-7.582,18.125-11.945,28.959-11.967c10.799,0,21.359,4.416,28.947,12.066
			l54.551,54.806l115.891-116.271l-77.184-77.408C282.447,37.283,269.8,32,255.998,32s-27.41,4.959-37.789,15.364L47.322,218.745
			C37.107,228.989,32,242.719,32,256.029s5.107,26.98,15.322,37.224l170.893,171.381c20.434,20.488,53.859,20.488,74.293,0
			l170.881-171.381C474.648,281.562,480,269.969,480,255.999s-6.029-26.641-16.611-37.254L462.568,217.927z"/>
	</g>
</g>
</svg>
