<?xml version="1.0" encoding="utf-8"?>
<!-- Generator: Adobe Illustrator 16.2.1, SVG Export Plug-In . SVG Version: 6.00 Build 0)  -->
<!DOCTYPE svg PUBLIC "-//W3C//DTD SVG 1.1//EN" "http://www.w3.org/Graphics/SVG/1.1/DTD/svg11.dtd">
<svg version="1.1" id="Layer_1" xmlns="http://www.w3.org/2000/svg" xmlns:xlink="http://www.w3.org/1999/xlink" x="0px" y="0px"
	 width="512px" height="512px" viewBox="0 0 512 512" enable-background="new 0 0 512 512" xml:space="preserve">
<path fill="#231F20" d="M461.573,292.877c-11.762-8.773-25.482-12.379-40.153-12.955c-11.958-0.467-23.626,1.244-34.913,5.145
	c-3.218,1.107-6.359,2.428-9.592,3.656c-0.436-0.744-0.889-1.455-1.255-2.201c-3.33-6.479-7.334-12.672-8.213-20.1
	c-0.631-5.287-1.414-10.562-0.098-15.768c1.271-5.021,2.94-9.949,4.478-14.916c0.812-2.562,0.258-3.982-2.295-5.127
	c-0.894-0.4-1.86-0.764-2.823-0.895c-6.289-0.869-12.464-0.363-18.54,1.32c-2.154,0.59-3.722,1.738-4.199,4.006
	c-0.267,1.311-0.829,2.553-1.203,3.832c-1.581,5.355-2.704,10.791-5.267,15.879c-6.438,12.768-13.773,25.049-21.293,37.256
	c-0.829,1.311-1.668,2.604-2.703,4.205c-2.631-5.273-5.432-9.988-6.3-15.527c-0.953-6.277-1.722-12.527-0.087-18.75
	c1.222-4.621,2.804-9.188,4.275-13.752c0.698-2.164,0.377-3.314-1.695-4.463c-1.037-0.561-2.215-1.094-3.388-1.254
	c-6.525-0.91-12.923-0.428-19.181,1.508c-1.963,0.598-2.971,1.803-3.588,3.725c-1.734,5.637-3.231,11.432-5.683,16.797
	c-9.955,21.742-20.174,43.373-30.393,64.992c-2.143,4.514-4.635,8.881-7.044,13.262c-0.615,1.121-1.483,2.394-2.24,3.15
	c-0.543-0.729-0.792-1.997-0.9-2.715c-0.266-1.766-0.277-4.561,0.283-7.244c1.668-8.119,3.615-16.211,5.655-24.266
	c1.684-6.65,3.643-13.23,5.518-19.855c0.632-2.217,0.644-4.275-1.036-6.143c-2.798-3.109-8.637-3.791-12.109-1.389
	c-0.377,0.254-0.825,0.426-1.526,0.826c0.113-1.039,0.195-1.709,0.294-2.361c0.729-5.064,0.883-10.082-0.574-15.076
	c-1.82-6.209-6.439-9.775-13.2-9.588c-3.151,0.094-6.456,0.602-9.368,1.695c-12.25,4.582-21.673,12.686-29.682,22.445
	c-0.727,0.895-1.691,1.695-2.715,2.23c-10.361,5.492-20.775,10.896-31.167,16.346c-3.889,2.018-7.77,4.062-11.564,6.049
	c-3.107-2.83-5.934-5.768-9.139-8.252c-9.775-7.611-19.715-15.01-29.542-22.541c-8.723-6.65-17.181-13.594-23.646-22.42
	c-4.815-6.559-7.911-13.74-8.206-21.857c-0.361-10.338,2.704-19.793,8.222-28.604c7.067-11.242,16.686-20.271,27.285-28.471
	c11.199-8.654,23.309-15.998,35.87-22.701c17.553-9.373,35.644-17.678,55.006-23.154c19.868-5.623,40.011-8.842,60.806-6.598
	c8.175,0.883,16.098,2.672,23.394,6.49c5.587,2.91,10.151,6.729,12.276,12.699c2.102,5.887,2.047,11.832,0.59,17.799
	c-2.965,12.074-9.896,22.037-18.619,30.93c-14.309,14.592-31.783,24.514-51.452,31.084c-11.34,3.791-23.003,6.172-34.988,7.131
	c-9.787,0.773-19.361-0.053-28.619-3.297c-6.13-2.15-11.479-5.436-15.762-10.215c-0.786-0.855-1.764-1.779-3.191-0.988
	c-1.401,0.773-1.652,2.068-1.178,3.35c0.785,2.152,1.512,4.367,2.744,6.277c3.067,4.795,7.545,8.293,12.489,11.283
	c9.466,5.742,20.05,7.666,31.024,8.117c16.659,0.697,32.929-1.678,48.943-5.943c22.879-6.084,42.759-16.834,58.719-33.793
	c13.288-14.102,22.769-30.047,24.798-49.289c0.991-9.389-0.058-18.602-4.662-27.148c-5.014-9.293-12.967-15.627-22.459-20.369
	C272.958,99.46,258.033,97,242.619,96c-5.152,0-10.289,0-15.441,0c-18.676,1-36.738,4.541-54.279,10.632
	c-13.272,4.608-26.308,9.771-38.947,15.794c-27.54,13.111-53.189,28.801-74.247,50.564c-10.501,10.844-19.935,22.727-24.498,35.811
	c-1.243,3.562-3.263,9.282-3.205,15.199c0.042,4.316,0.684,8.82,1.025,10.377c2.383,10.875,7.834,18.51,14.749,26.356
	c9.841,11.193,21.759,20.194,34.12,28.671c10.709,7.332,21.576,14.516,32.328,21.805c1.849,1.244,3.556,2.699,5.558,4.223
	c-1.724,0.895-3.164,1.68-4.663,2.402c-14.197,6.865-27.835,14.557-40.431,23.877c-7.578,5.637-14.913,11.602-20.092,19.387
	c-8.332,12.555-11.287,25.936-5.083,40.211c1.822,4.176,4.498,7.931,8.496,10.426c1.011,0.631,2.164,1.206,4.16,2.119
	c2.644,1.209,8.539,2.146,12.494,2.146c3.626,0,5.24,0,8.866,0c10.847,0,23.972-5.018,33.841-11.52
	c15.458-10.176,25.861-23.84,30.354-41.359c3.263-12.713,3.376-25.482-0.445-38.141c-0.351-1.176-0.798-2.332-1.275-3.467
	c-0.477-1.133-1.006-2.246-1.653-3.676c8.189-4.486,16.423-9.002,24.644-13.518c0.125,0.096,0.235,0.214,0.361,0.296
	c-0.447,1.4-0.923,2.802-1.331,4.218c-2.923,10.203-4.87,20.578-4.172,31.168c0.743,11.27,2.854,21.805,9.773,31.248
	c5.6,7.625,20.134,7.93,26.083,0.279c2.1-2.725,4.16-5.559,5.687-8.586c4.029-7.92,7.754-15.971,11.576-23.969
	c0.168-0.348,0.321-0.682,0.672-1.471c-0.264,3.791-0.602,7.119-0.743,10.457c-0.223,5.182,0.087,10.359,1.947,15.301
	c1.582,4.248,4.297,7.4,9.395,7.961c3.472,0.371,6.243-1.148,8.794-3.072c4.003-3.006,7.252-6.719,9.658-10.938
	c6.805-11.936,13.807-23.797,19.979-36.039c6.679-13.219,12.518-26.842,18.717-40.303c0.354-0.746,0.65-1.494,1.037-2.404
	c1.457,5.502,2.492,10.869,4.371,15.973c2.182,5.916,4.898,11.686,7.837,17.291c1.401,2.658,1.233,4.367-0.696,6.582
	c-8.078,9.309-16.016,18.723-23.972,28.125c-1.76,2.082-3.526,4.182-4.982,6.451c-0.896,1.375-1.484,3.057-1.723,4.658
	c-0.459,3.084,1.499,6.035,4.973,6.744c3.134,0.654,6.493,0.895,9.688,0.654c11.1-0.773,21.181-4.488,30.099-10.791
	c11.537-8.158,15.261-19.283,12.459-32.477c-0.753-3.578-2.1-7.061-3.401-10.506c-0.586-1.562-0.613-2.656,0.451-4.102
	c9.225-12.564,17.121-25.904,24.442-39.549c0.294-0.537,0.591-1.072,1.08-1.66c2.377,11.805,5.961,23.168,12.372,33.48
	c-3.271,3.002-6.521,5.727-9.434,8.742c-6.455,6.6-12.039,13.797-14.955,22.545c-1.26,3.775-2.225,7.607-1.662,11.643
	c0.865,6.277,6.241,10.334,12.696,8.906c13.806-3.043,25.732-9.254,34.439-20.258c5.883-7.396,6.411-15.648,3.947-24.303
	c-0.671-2.35-1.467-4.658-2.322-7.369c3.402-1.016,6.721-2.219,10.163-2.965c17.839-3.889,35.494-3.209,52.671,2.939
	c10.055,3.576,18.156,9.6,22.961,19.039c5.883,11.564,2.633,22.512-8.791,29.82c-1.068,0.682-2.268,1.213-3.165,2.068
	c-0.548,0.506-0.868,1.561-0.728,2.27c0.07,0.426,1.244,0.949,1.904,0.949c3.75-0.029,6.805-1.896,9.715-3.832
	c7.335-4.82,11.82-11.326,12.967-19.871c0,0,0.154-1.577,0.168-3.475c0.009-1.183-0.055-2.489-0.188-3.617
	C478.348,310.106,471.712,300.449,461.573,292.877z M130.925,345.664c-1.188,15.248-8.429,27.613-20.272,37.604
	c-6.663,5.633-14.295,9.643-23.199,11.057c-3.219,0.506-6.522,0.625-9.657-0.645c-4.455-1.814-5.463-5.592-5.545-9.627
	c-0.143-6.422,2.209-12.217,5.445-17.717c4.211-7.199,10.389-12.689,16.98-17.787c10.389-8.066,21.674-14.904,33.223-21.354
	c0.185-0.109,0.408-0.162,0.883-0.332c1.767,6.273,2.634,12.498,2.127,18.826L130.925,345.664z M221.114,279.402l-0.012,0.016
	c-0.843,4.873-1.907,9.732-3.39,14.459c-5.152,16.318-11.761,32.154-18.926,47.754c-1.319,2.883-3.238,5.529-4.919,8.266
	c-0.251,0.428-0.643,0.787-1.021,1.148c-2.061,1.961-4.033,1.844-5.081-0.705c-1.22-2.967-1.975-6.145-2.617-9.297
	c-0.421-2.1-0.321-4.314-0.448-6.479c0.139-15.355,5.04-29.336,13.383-42.316c3.445-5.367,7.197-10.469,12.895-13.859
	c1.766-1.041,3.724-1.883,5.726-2.428C219.729,275.145,221.605,276.49,221.114,279.402z M282.62,354.182
	c7.366-8.195,14.726-16.383,22.104-24.625C305.636,338.721,289.354,356.959,282.62,354.182z M353.225,338h0.012
	c-1.566,1-3.273,1.283-4.869,2.057c-1.459,0.721-1.963-0.094-1.99-1.295c-0.029-0.814,0.086-1.707,0.322-2.506
	c2.98-10.043,8.472-18.637,16.66-25.609c0.111-0.105,0.295,0.031,0.572-0.115C367.826,320.906,363.332,332,353.225,338z"/>
</svg>
