<?xml version="1.0" encoding="utf-8"?>
<!-- Generator: Adobe Illustrator 18.1.1, SVG Export Plug-In . SVG Version: 6.00 Build 0)  -->
<svg version="1.1" id="Layer_1" xmlns="http://www.w3.org/2000/svg" xmlns:xlink="http://www.w3.org/1999/xlink" x="0px" y="0px"
	width="512" height="512" viewBox="0 0 512 512" enable-background="new 0 0 512 512" xml:space="preserve">
<g>
	<path d="M207,205c-52.1,0-58.7,0.2-79.2,1.2c-20.4,0.9-34.4,4.2-46.6,8.9c-12.6,4.9-23.3,11.5-34,22.1
		c-10.7,10.7-17.2,21.4-22.1,34c-4.7,12.2-8,26.2-8.9,46.6c-0.9,20.5-1.2,27-1.2,79.2c0,52.1,0.2,58.7,1.2,79.2
		c0.9,20.4,4.2,34.4,8.9,46.6c4.9,12.6,11.5,23.3,22.1,34c10.7,10.7,21.4,17.2,34,22.1c12.2,4.7,26.2,8,46.6,8.9
		c20.5,0.9,27,1.2,79.2,1.2s58.7-0.2,79.2-1.2c20.4-0.9,34.4-4.2,46.6-8.9c12.6-4.9,23.3-11.5,34-22.1c10.7-10.7,17.2-21.4,22.1-34
		c4.7-12.2,8-26.2,8.9-46.6c0.9-20.5,1.2-27,1.2-79.2s-0.2-58.7-1.2-79.2c-0.9-20.4-4.2-34.4-8.9-46.6c-4.9-12.6-11.5-23.3-22.1-34
		c-10.7-10.7-21.4-17.2-34-22.1c-12.2-4.7-26.2-8-46.6-8.9C265.7,205.2,259.1,205,207,205L207,205z"/>
	<path fill="#FFFFFF" d="M207,298.4c-54.5,0-98.6,44.1-98.6,98.6c0,54.5,44.1,98.6,98.6,98.6s98.6-44.1,98.6-98.6
		C305.6,342.5,261.5,298.4,207,298.4z M207,461c-35.3,0-64-28.7-64-64c0-35.3,28.7-64,64-64s64,28.7,64,64
		C271,432.3,242.3,461,207,461z"/>
	<circle fill="#FFFFFF" cx="309.5" cy="294.5" r="23"/>
</g>
</svg>
