<?xml version="1.0" encoding="utf-8"?>
<!-- Generator: Adobe Illustrator 16.2.1, SVG Export Plug-In . SVG Version: 6.00 Build 0)  -->
<!DOCTYPE svg PUBLIC "-//W3C//DTD SVG 1.1//EN" "http://www.w3.org/Graphics/SVG/1.1/DTD/svg11.dtd">
<svg version="1.1" id="Layer_1" xmlns="http://www.w3.org/2000/svg" xmlns:xlink="http://www.w3.org/1999/xlink" x="0px" y="0px"
	 width="512px" height="512px" viewBox="0 0 512 512" style="enable-background:new 0 0 512 512;" xml:space="preserve">
<path d="M256,48.3c28,0,55.2,5.6,80.8,16.7c24.8,10.7,47,26.1,66.1,45.7c19.1,19.6,34.2,42.5,44.7,67.9
	c10.9,26.4,16.4,54.4,16.4,83.3c0,45.8-13.9,89.5-40.2,126.3c-12.6,17.7-27.8,33.2-45,46.2c-15.8,11.9-33,21.3-51.2,28.2
	c0-1.9,0-4.1,0-6.5c0.1-11.9,0.2-29.8,0.2-50.4c0-12.4-2-22.5-4.9-30.5c37.2-8.3,92-33.7,92-125.4c0-24.6-7.1-46.5-21.2-65.1
	c3.1-12.9,5.5-35.6-5.1-63l-2.7-7.1l-7.2-2.4c-1.5-0.5-4.8-1.3-10-1.3c-11.5,0-30.9,3.9-59.5,22.6c-17-4.2-34.8-6.6-53.1-6.6H256
	h-0.1c-18.3,0-36.2,2.4-53.1,6.6c-28.6-18.7-48-22.7-59.5-22.7c-5.2,0-8.5,0.9-10,1.4l-7.2,2.4l-2.7,7.1c-10.6,27.5-8.2,50.2-5.1,63
	c-14.1,18.7-21.2,40.6-21.2,65.1c0,49.6,16,79.9,36.6,98.5c-8.1-6.6-18.6-12.1-31.2-13l-0.5,0l-0.5,0l-0.3,0
	c-13.1,0-22.3,5.4-25.2,14.7c-4.7,14.8,9.8,25,14.6,28.4l0.5,0.6l1.5,0.6c1.6,1,10.1,7,16.9,24.5c2,6.2,6.3,14.5,13.6,22.2
	c-13.1-11.2-24.8-24-34.9-38.1C61.9,351.5,48,307.8,48,262c0-28.9,5.5-56.9,16.4-83.3c10.5-25.5,25.5-48.3,44.7-67.9
	c19.1-19.6,41.4-35,66.1-45.7C200.8,54,228,48.3,256,48.3 M136.7,351c16.8,14.1,36.3,20.9,52.3,24.5c-0.8,2.2-1.5,4.5-2.1,6.9
	c-3.4,1-7.5,1.8-11.7,1.8c-10.9,0-19-5.4-25.6-16.9C147.2,362.7,142.8,356.6,136.7,351 M140.4,439.6c9.8,5.3,22.1,8.8,37.2,8.8
	c2.2,0,4.4-0.1,6.7-0.2c0,2.8,0,5.5,0.1,7.9c0,2.4,0,4.6,0.1,6.5C168.9,456.8,154.2,449.1,140.4,439.6 M256,32.3
	C132.3,32.3,32,135.2,32,262c0,101.5,64.2,187.5,153.2,217.9c1.4,0.3,2.6,0.4,3.8,0.4c8.3,0,11.5-6.1,11.5-11.4
	c0-5.5-0.2-19.9-0.3-39.1c-8.4,1.9-15.9,2.7-22.6,2.7c-43.1,0-52.9-33.5-52.9-33.5c-10.2-26.5-24.9-33.8-24.9-33.8
	c-19.5-13.7-0.1-14.2,1.4-14.2c0.1,0,0.1,0,0.1,0c22.5,2,34.3,23.9,34.3,23.9c11.2,19.6,26.2,25.2,39.6,25.2c10.5,0,20-3.4,25.6-6
	c2-14.8,7.8-24.9,14.2-30.7c-49.7-5.8-102-25.5-102-113.5c0-25.1,8.7-45.6,23-61.6c-2.3-5.8-10-29.2,2.2-60.8c0,0,1.6-0.5,5-0.5
	c8.1,0,26.4,3.1,56.6,24.1c17.9-5.1,37-7.6,56.1-7.7c19,0.1,38.2,2.6,56.1,7.7c30.2-21,48.5-24.1,56.6-24.1c3.4,0,5,0.5,5,0.5
	c12.2,31.6,4.5,55,2.2,60.8c14.3,16.1,23,36.6,23,61.6c0,88.2-52.4,107.6-102.3,113.3c8,7.1,15.2,21.1,15.2,42.5
	c0,30.7-0.3,55.5-0.3,63c0,5.4,3.1,11.5,11.4,11.5c1.2,0,2.6-0.1,4-0.4C415.9,449.5,480,363.4,480,262
	C480,135.2,379.7,32.3,256,32.3L256,32.3z"/>
</svg>
