<?xml version="1.0" encoding="utf-8"?>
<!-- Generator: Adobe Illustrator 16.2.1, SVG Export Plug-In . SVG Version: 6.00 Build 0)  -->
<!DOCTYPE svg PUBLIC "-//W3C//DTD SVG 1.1//EN" "http://www.w3.org/Graphics/SVG/1.1/DTD/svg11.dtd">
<svg version="1.1" id="Layer_1" xmlns="http://www.w3.org/2000/svg" xmlns:xlink="http://www.w3.org/1999/xlink" x="0px" y="0px"
	 width="512px" height="512px" viewBox="0 0 512 512" style="enable-background:new 0 0 512 512;" xml:space="preserve">
<style type="text/css">
<![CDATA[
	.st0{fill:#010101;}
]]>
</style>
<g>
	<path class="st0" d="M254.7,101.3c-0.6,1-1.2,2-1.7,3.1c1.8-3.5,4.3-6.5,7.4-8.7C258.3,97,256.3,98.8,254.7,101.3z"/>
	<path class="st0" d="M426.3,396c-6.7-4-13.2-11-12-18.8c2.3-15.3,2.5-21.5-0.2-25.8c-1.9-3.2-5.5-5-8.6-5.8c2-2.5,3.1-5.4,3.8-10.9
		c1.3-10-4.7-41-12.7-65.7s-34.3-55-44.7-68s-21.5-33.5-21.5-33.5c-9.7-29-4.3-47.1-4.8-66.2C324.7,64,298.7,32,261,32h-14
		c-37.5,0-58,26.9-58,60c0,0,0.7,16.6,2,50s1,39.4-8,55.3c-4.9,8.7-28,30-36.7,44.7s-6.6,29.5-23.6,52.8c-12.4,17-13.8,28.4-9.7,44
		c-7,8.2-3.6,19.9-5,24.9c-2.6,8.7-13.7,10.3-22.3,11s-15.3,0-18.7,5.3s0.7,16,4.3,30S64,425,64,441s30,16,59.7,22.7
		s40.7,16.3,56,16.3s29.3-16,38-19.3s29-3.7,42.3-3.7s37,0,48.3,3s8.7,20,36.7,20s34.7-20.7,61-34.3s42-20,42-29.7
		S433,400,426.3,396z M202,451.3c-1.3,13-13.9,20.3-25.4,19.3c-13-1.1-36-11.8-51-14.6c-12.9-2.5-37.5-6.4-46.1-9.4
		s-7.4-8.9-6.1-14.2s10.2-11.1,6.2-23.4s-7.8-20.2-4.8-24.2s20.5-3.4,25.5-4.8s11.1-5.4,13.3-9.9c1.6-3.3-0.5-15,1.9-21.8
		c3.3-9.5,11.9-8,15.6-7.5s7.7,2.6,7.7,2.6c14.3,7.3,32.9,43.1,46.3,64.8S203.3,438.3,202,451.3z M318.3,385.7
		c2,10.3,4.2,24.5,1.7,36.3s-9,16.5-12.7,24c-2.2-6.8,11.3-16.7,9.8-33.7c-1.7-19.3,2.7-9.6-14.9,3.7c-13,9.8-28.6,20.1-54,22.5
		c-21,2-38-10.5-38-10.5c1,3.3,5,10.7,4.6,19s-3.5,9.3-3.5,9.3s1.7-13-2.3-22s-9.3-19.7-9.3-19.7s7.6-3.7,10.6-11s3-16.3-7.7-26.7
		s-52.5-37.6-55.9-42.1c-4.9-6.5-6.7-10.2-7-23.2s5.4-24.8,4.3-20.3c-0.8,3.2-1.9,6.8-1.9,19.8s9.6,25.3,15.9,27
		c9.5,2.6,2-28.1,8-55.1s18.2-38.8,18.5-40.8s-0.2-6.9,0.5-11.9c1-6.3,3.3-12,7-19s10.2-15.2,10.2-15.2c-2.2-22.7-0.1-20.1,5.1-11.8
		c4,6.5,16.7,22.7,24.7,22s19.7-11,26.7-16.3s19-10.3,23.3-13.3s1-5.3-4.7-4.3s-11,5-21.3,10.3s-23,11.2-30.1,7.8
		s-18.5-21.6-17.2-20.5c15.4,13.6,21.5,10.5,27.6,9.1c6.2-1.4,12.1-3.5,27.8-10.5s20.7-5.3,22.3-8.7s-0.7-5.7-4.7-5.7
		s-1.2,5.2-22.7,12.3c-15.3,5.1-21.1,7.7-29.3,7.3s-10.4-2-14.7-4.3s-9.4-6-12.6-10c-1.8-2.2-2.4-3.3-2.4-6.6s8.3-8.3,12.3-11.3
		s12.3-10.9,12.3-10.9s1-7.2-0.6-12.7c-1.9-6.5-7.8-9.3-11.9-8.1c-4.1,1.1-8,5.5-6.8,14.8c1,8.3,7,11,7,11s-2.7,3.5-5.2,4.7
		c0,0-0.8-0.3-3.5-6.3s-6.6-19.5-0.3-31.1s19.6-5.2,23.8,3.8c3.9,8.3,2.4,22.7,2.4,22.7s4.7-1.3,10.3-1.3c4.1,0,9,4.7,10.6,4.8
		c0.7,0,0.5-0.1,0-2.5c-0.8-3.8-0.6-8.6-0.6-13.4c0-4.2,1.2-8.4,2.7-12c0.1-0.2,0.1-0.3,0.2-0.5c0.5-1.1,1.1-2.2,1.7-3.1
		c1.6-2.5,3.6-4.5,5.7-5.8c3.5-2.5,7.8-3.8,12.3-3.8c12.4,0,22.3,11.2,22.3,25c0,0,0,0,0,0.1c0,5.1-0.4,10.2-1.2,13.5
		c-2.2,8.8-3.7,9.3-6.8,9.3c-4.1,0-8.1-1.5-6.3-3.4c1.1-1.1,1.2-1.2,2.7-4s2.7-6.9,2.7-10.3c0-7.6-6.1-13.7-13.7-13.7
		c-3.5,0-6.6,1.3-9.1,3.5c-1.2,0.9-2,2.1-2.7,3.3c-1.1,1.9-1.8,4-1.9,6.3c-0.5,4-0.4,8.6-0.2,10.4c0.6,5,10.9,9.6,23.9,12.9
		s11.3,9,8.3,25.3s6.3,18.3,14.3,33.8s8.3,25.2,9.7,29.8s12.7,11.3,17.7,33c6.7,29.2,5.2,38.8,5,49.2c-0.5,8.2-2.1,15,8.3,9.7
		c4-2,6.5-2.9,11-3.7c3.1-6.3,4.4-18.3,4.5-24.3c0.2-13.5-0.3-41.5-27.7-71.5c0,0,28.5,21.7,33,62c2.5,22.3-2,34.4-2,34.4
		c5.3,1.3,10.8,5.3,13.6,9.8c3.7,6.1-0.5-4.4-20-5.8c-4.8-0.4-8.2,0.5-11.8,2.3s-5.3,3.3-6.7,5.6c-2,3.3-3.1,7.6-3.2,11.7
		c-7.1-1.2-12.4,0-16.8,4.9C313.5,358.1,316.3,375.3,318.3,385.7z M220.6,124.9c-0.2-4.9-2.1-9-4.7-10.8c0.3-0.3,0.8-0.7,1.7-0.4
		c1.4,0.4,3.5,2.7,4.3,6.3c0.7,2.9,0.4,7.7-1.4,7.7c0-0.1,0-0.1,0-0.2C220.6,126.7,220.6,125.8,220.6,124.9z M275.3,112.9
		c0.4-0.3,1.1-0.6,2.3-0.3c1.8,0.4,4.4,2.8,5.3,6.2c0.7,2.8,0.1,7.4-2.2,7.3c0-0.1,0-0.1,0-0.2c0.1-0.8,0.2-1.6,0.2-2.5
		C280.8,118.8,278.6,114.8,275.3,112.9z M412.4,432.9c-24.1,10.4-37.7,25.5-52.7,33.5s-26.7,0.3-32.7-10s5-33.3-0.7-64.7
		c-4.4-24.2-5.1-28.8-1.5-35.7c2.7-5.1,8.1-5.5,12.5-4c1.3,5.4,7.7,23.6,28,23.6c20.3,0,26-18,33-23.7c0.3-0.3,0.7-0.5,1-0.8
		c3.4,0.2,7.4,1.1,8.8,4.8c2.3,5.8-1.9,17.5-1.8,22.3c0.3,15.7,9,19.2,26.4,29C448,416,436.9,422.3,412.4,432.9z"/>
</g>
</svg>
