<?xml version="1.0" encoding="utf-8"?>
<!-- Generator: Adobe Illustrator 16.2.1, SVG Export Plug-In . SVG Version: 6.00 Build 0)  -->
<!DOCTYPE svg PUBLIC "-//W3C//DTD SVG 1.1//EN" "http://www.w3.org/Graphics/SVG/1.1/DTD/svg11.dtd">
<svg version="1.1" id="Layer_1" xmlns="http://www.w3.org/2000/svg" xmlns:xlink="http://www.w3.org/1999/xlink" x="0px" y="0px"
	 width="512px" height="512px" viewBox="0 0 512 512" enable-background="new 0 0 512 512" xml:space="preserve">
<g>
	<path d="M256,144c88.365,0,160-28.654,160-64s-71.635-64-160-64C167.634,16,96,44.654,96,80S167.634,144,256,144z M256,29.438
		c75.661,0,137,20.848,137,46.562s-61.339,46.562-137,46.562S119,101.715,119,76S180.339,29.438,256,29.438z"/>
	<ellipse cx="256" cy="75" rx="127.378" ry="40"/>
	<path d="M256,448c88.365,0,152-28.654,152-64V248c0,28.581-41.612,52.783-104.26,61.002C301.238,333.16,280.82,352,256,352
		s-45.238-18.84-47.74-42.998C145.612,300.783,104,276.581,104,248v136C104,419.346,167.634,448,256,448z"/>
	<path d="M256,152c-88.366,0-160-28.654-160-64c0,0,0,32.834,8,40v104c0,28.732,42.049,53.042,105.25,61.134
		C214.176,271.861,233.229,256,256,256s41.824,15.861,46.75,37.134C365.951,285.042,408,260.732,408,232V128c8-8.25,8-40,8-40
		C416,123.346,344.365,152,256,152z"/>
	<path d="M408,392c0,35.346-63.635,64-152,64c-88.366,0-152-28.654-152-64v23.999L96,432c0,6.994,2.815,13.725,8,20.025
		C125.016,477.562,185.121,496,256,496c70.879,0,130.984-18.438,152-43.975c5.186-6.301,8-13.031,8-20.025l-8-16.001V392z"/>
</g>
</svg>
