<?xml version="1.0" standalone="no"?><!DOCTYPE svg PUBLIC "-//W3C//DTD SVG 1.1//EN" "http://www.w3.org/Graphics/SVG/1.1/DTD/svg11.dtd"><svg width="100%" height="100%" viewBox="0 0 512 512" version="1.1" xmlns="http://www.w3.org/2000/svg" xmlns:xlink="http://www.w3.org/1999/xlink" xml:space="preserve" style="fill-rule:evenodd;clip-rule:evenodd;stroke-linejoin:round;stroke-miterlimit:1.41421;"><g><path d="M255.755,1c-140.741,0 -254.755,114.26 -254.755,255c0,140.74 114.014,255 254.755,255c140.985,0 255.245,-114.26 255.245,-255c0,-140.74 -114.26,-255 -255.245,-255ZM256,460c-112.666,0 -204,-91.334 -204,-204c0,-112.666 91.334,-204 204,-204c112.666,0 204,91.334 204,204c0,112.666 -91.334,204 -204,204Z" style="fill:#000;fill-opacity:0.898039;fill-rule:nonzero;"/><path d="M268.75,128.5l-38.25,0l0,153l133.875,80.3l19.125,-31.384l-114.75,-68.041l0,-133.875Z" style="fill:#000;fill-opacity:0.898039;fill-rule:nonzero;"/></g></svg>