<?xml version="1.0" standalone="no"?><!DOCTYPE svg PUBLIC "-//W3C//DTD SVG 1.1//EN" "http://www.w3.org/Graphics/SVG/1.1/DTD/svg11.dtd"><svg width="100%" height="100%" viewBox="0 0 512 512" version="1.1" xmlns="http://www.w3.org/2000/svg" xmlns:xlink="http://www.w3.org/1999/xlink" xml:space="preserve" style="fill-rule:evenodd;clip-rule:evenodd;stroke-linejoin:round;stroke-miterlimit:1.41421;"><path d="M401.714,171l-24.285,0l0,-48.571c0,-66.786 -54.643,-121.429 -121.429,-121.429c-66.786,0 -121.429,54.643 -121.429,121.429l46.141,0c0,-41.291 34.004,-75.289 75.288,-75.289c41.291,0 75.288,33.998 75.288,75.289l-0.002,0l0,48.571l-221,0c-26.717,0 -48.572,21.855 -48.572,48.571l0,242.858c0,26.716 21.855,48.571 48.572,48.571l291.428,0c26.717,0 48.572,-21.855 48.572,-48.571l0,-242.858c0,-26.716 -21.855,-48.571 -48.572,-48.571ZM256,392c-26.717,0 -48.571,-21.855 -48.571,-48.571c0,-26.717 21.854,-48.572 48.571,-48.572c26.717,0 48.571,21.855 48.571,48.572c0,26.716 -21.854,48.571 -48.571,48.571Z" style="fill:#000;fill-rule:nonzero;"/></svg>