<?xml version="1.0" encoding="UTF-8" standalone="no"?>
<svg width="416px" height="516px" viewBox="0 0 416 516" version="1.1" xmlns="http://www.w3.org/2000/svg" xmlns:xlink="http://www.w3.org/1999/xlink">
    <!-- Generator: Sketch 42 (36781) - http://www.bohemiancoding.com/sketch -->
    <title>Combined Shape</title>
    <desc>Created with Sketch.</desc>
    <defs></defs>
    <g id="Page-1" stroke="none" stroke-width="1" fill="none" fill-rule="evenodd">
        <path d="M83,147 L416,147 L416,164 L166,164 L166,181 L416,181 L416,198 L166,198 L166,215 L416,215 L416,232 L166,232 L166,249 L416,249 L416,266 L0,266 L0,257.5 L0,147 L83,147 Z M0,283 L416,283 L416,300 L0,300 L0,283 Z M0,317 L416,317 L416,334 L0,334 L0,317 Z M0,351 L416,351 L416,368 L0,368 L0,351 Z M13.7063391,162 L17.2330506,163.854102 L16.5595086,159.927051 L19.4126782,157.145898 L15.4696949,156.572949 L13.7063391,153 L11.9429833,156.572949 L8,157.145898 L10.8531695,159.927051 L10.1796276,163.854102 L13.7063391,162 Z M27.7063391,173 L31.2330506,174.854102 L30.5595086,170.927051 L33.4126782,168.145898 L29.4696949,167.572949 L27.7063391,164 L25.9429833,167.572949 L22,168.145898 L24.8531695,170.927051 L24.1796276,174.854102 L27.7063391,173 Z M55.7063391,173 L59.2330506,174.854102 L58.5595086,170.927051 L61.4126782,168.145898 L57.4696949,167.572949 L55.7063391,164 L53.9429833,167.572949 L50,168.145898 L52.8531695,170.927051 L52.1796276,174.854102 L55.7063391,173 Z M83.7063391,173 L87.2330506,174.854102 L86.5595086,170.927051 L89.4126782,168.145898 L85.4696949,167.572949 L83.7063391,164 L81.9429833,167.572949 L78,168.145898 L80.8531695,170.927051 L80.1796276,174.854102 L83.7063391,173 Z M111.706339,173 L115.233051,174.854102 L114.559509,170.927051 L117.412678,168.145898 L113.469695,167.572949 L111.706339,164 L109.942983,167.572949 L106,168.145898 L108.85317,170.927051 L108.179628,174.854102 L111.706339,173 Z M139.706339,173 L143.233051,174.854102 L142.559509,170.927051 L145.412678,168.145898 L141.469695,167.572949 L139.706339,164 L137.942983,167.572949 L134,168.145898 L136.85317,170.927051 L136.179628,174.854102 L139.706339,173 Z M27.7063391,197 L31.2330506,198.854102 L30.5595086,194.927051 L33.4126782,192.145898 L29.4696949,191.572949 L27.7063391,188 L25.9429833,191.572949 L22,192.145898 L24.8531695,194.927051 L24.1796276,198.854102 L27.7063391,197 Z M55.7063391,197 L59.2330506,198.854102 L58.5595086,194.927051 L61.4126782,192.145898 L57.4696949,191.572949 L55.7063391,188 L53.9429833,191.572949 L50,192.145898 L52.8531695,194.927051 L52.1796276,198.854102 L55.7063391,197 Z M83.7063391,197 L87.2330506,198.854102 L86.5595086,194.927051 L89.4126782,192.145898 L85.4696949,191.572949 L83.7063391,188 L81.9429833,191.572949 L78,192.145898 L80.8531695,194.927051 L80.1796276,198.854102 L83.7063391,197 Z M111.706339,197 L115.233051,198.854102 L114.559509,194.927051 L117.412678,192.145898 L113.469695,191.572949 L111.706339,188 L109.942983,191.572949 L106,192.145898 L108.85317,194.927051 L108.179628,198.854102 L111.706339,197 Z M139.706339,197 L143.233051,198.854102 L142.559509,194.927051 L145.412678,192.145898 L141.469695,191.572949 L139.706339,188 L137.942983,191.572949 L134,192.145898 L136.85317,194.927051 L136.179628,198.854102 L139.706339,197 Z M27.7063391,221 L31.2330506,222.854102 L30.5595086,218.927051 L33.4126782,216.145898 L29.4696949,215.572949 L27.7063391,212 L25.9429833,215.572949 L22,216.145898 L24.8531695,218.927051 L24.1796276,222.854102 L27.7063391,221 Z M55.7063391,221 L59.2330506,222.854102 L58.5595086,218.927051 L61.4126782,216.145898 L57.4696949,215.572949 L55.7063391,212 L53.9429833,215.572949 L50,216.145898 L52.8531695,218.927051 L52.1796276,222.854102 L55.7063391,221 Z M83.7063391,221 L87.2330506,222.854102 L86.5595086,218.927051 L89.4126782,216.145898 L85.4696949,215.572949 L83.7063391,212 L81.9429833,215.572949 L78,216.145898 L80.8531695,218.927051 L80.1796276,222.854102 L83.7063391,221 Z M111.706339,221 L115.233051,222.854102 L114.559509,218.927051 L117.412678,216.145898 L113.469695,215.572949 L111.706339,212 L109.942983,215.572949 L106,216.145898 L108.85317,218.927051 L108.179628,222.854102 L111.706339,221 Z M139.706339,221 L143.233051,222.854102 L142.559509,218.927051 L145.412678,216.145898 L141.469695,215.572949 L139.706339,212 L137.942983,215.572949 L134,216.145898 L136.85317,218.927051 L136.179628,222.854102 L139.706339,221 Z M27.7063391,245 L31.2330506,246.854102 L30.5595086,242.927051 L33.4126782,240.145898 L29.4696949,239.572949 L27.7063391,236 L25.9429833,239.572949 L22,240.145898 L24.8531695,242.927051 L24.1796276,246.854102 L27.7063391,245 Z M55.7063391,245 L59.2330506,246.854102 L58.5595086,242.927051 L61.4126782,240.145898 L57.4696949,239.572949 L55.7063391,236 L53.9429833,239.572949 L50,240.145898 L52.8531695,242.927051 L52.1796276,246.854102 L55.7063391,245 Z M83.7063391,245 L87.2330506,246.854102 L86.5595086,242.927051 L89.4126782,240.145898 L85.4696949,239.572949 L83.7063391,236 L81.9429833,239.572949 L78,240.145898 L80.8531695,242.927051 L80.1796276,246.854102 L83.7063391,245 Z M111.706339,245 L115.233051,246.854102 L114.559509,242.927051 L117.412678,240.145898 L113.469695,239.572949 L111.706339,236 L109.942983,239.572949 L106,240.145898 L108.85317,242.927051 L108.179628,246.854102 L111.706339,245 Z M139.706339,245 L143.233051,246.854102 L142.559509,242.927051 L145.412678,240.145898 L141.469695,239.572949 L139.706339,236 L137.942983,239.572949 L134,240.145898 L136.85317,242.927051 L136.179628,246.854102 L139.706339,245 Z M13.7063391,185 L17.2330506,186.854102 L16.5595086,182.927051 L19.4126782,180.145898 L15.4696949,179.572949 L13.7063391,176 L11.9429833,179.572949 L8,180.145898 L10.8531695,182.927051 L10.1796276,186.854102 L13.7063391,185 Z M41.7063391,185 L45.2330506,186.854102 L44.5595086,182.927051 L47.4126782,180.145898 L43.4696949,179.572949 L41.7063391,176 L39.9429833,179.572949 L36,180.145898 L38.8531695,182.927051 L38.1796276,186.854102 L41.7063391,185 Z M69.7063391,185 L73.2330506,186.854102 L72.5595086,182.927051 L75.4126782,180.145898 L71.4696949,179.572949 L69.7063391,176 L67.9429833,179.572949 L64,180.145898 L66.8531695,182.927051 L66.1796276,186.854102 L69.7063391,185 Z M97.7063391,185 L101.233051,186.854102 L100.559509,182.927051 L103.412678,180.145898 L99.4696949,179.572949 L97.7063391,176 L95.9429833,179.572949 L92,180.145898 L94.8531695,182.927051 L94.1796276,186.854102 L97.7063391,185 Z M125.706339,185 L129.233051,186.854102 L128.559509,182.927051 L131.412678,180.145898 L127.469695,179.572949 L125.706339,176 L123.942983,179.572949 L120,180.145898 L122.85317,182.927051 L122.179628,186.854102 L125.706339,185 Z M13.7063391,210 L17.2330506,211.854102 L16.5595086,207.927051 L19.4126782,205.145898 L15.4696949,204.572949 L13.7063391,201 L11.9429833,204.572949 L8,205.145898 L10.8531695,207.927051 L10.1796276,211.854102 L13.7063391,210 Z M41.7063391,210 L45.2330506,211.854102 L44.5595086,207.927051 L47.4126782,205.145898 L43.4696949,204.572949 L41.7063391,201 L39.9429833,204.572949 L36,205.145898 L38.8531695,207.927051 L38.1796276,211.854102 L41.7063391,210 Z M69.7063391,210 L73.2330506,211.854102 L72.5595086,207.927051 L75.4126782,205.145898 L71.4696949,204.572949 L69.7063391,201 L67.9429833,204.572949 L64,205.145898 L66.8531695,207.927051 L66.1796276,211.854102 L69.7063391,210 Z M97.7063391,210 L101.233051,211.854102 L100.559509,207.927051 L103.412678,205.145898 L99.4696949,204.572949 L97.7063391,201 L95.9429833,204.572949 L92,205.145898 L94.8531695,207.927051 L94.1796276,211.854102 L97.7063391,210 Z M125.706339,210 L129.233051,211.854102 L128.559509,207.927051 L131.412678,205.145898 L127.469695,204.572949 L125.706339,201 L123.942983,204.572949 L120,205.145898 L122.85317,207.927051 L122.179628,211.854102 L125.706339,210 Z M13.7063391,233 L17.2330506,234.854102 L16.5595086,230.927051 L19.4126782,228.145898 L15.4696949,227.572949 L13.7063391,224 L11.9429833,227.572949 L8,228.145898 L10.8531695,230.927051 L10.1796276,234.854102 L13.7063391,233 Z M41.7063391,233 L45.2330506,234.854102 L44.5595086,230.927051 L47.4126782,228.145898 L43.4696949,227.572949 L41.7063391,224 L39.9429833,227.572949 L36,228.145898 L38.8531695,230.927051 L38.1796276,234.854102 L41.7063391,233 Z M69.7063391,233 L73.2330506,234.854102 L72.5595086,230.927051 L75.4126782,228.145898 L71.4696949,227.572949 L69.7063391,224 L67.9429833,227.572949 L64,228.145898 L66.8531695,230.927051 L66.1796276,234.854102 L69.7063391,233 Z M97.7063391,233 L101.233051,234.854102 L100.559509,230.927051 L103.412678,228.145898 L99.4696949,227.572949 L97.7063391,224 L95.9429833,227.572949 L92,228.145898 L94.8531695,230.927051 L94.1796276,234.854102 L97.7063391,233 Z M125.706339,233 L129.233051,234.854102 L128.559509,230.927051 L131.412678,228.145898 L127.469695,227.572949 L125.706339,224 L123.942983,227.572949 L120,228.145898 L122.85317,230.927051 L122.179628,234.854102 L125.706339,233 Z M13.7063391,256 L17.2330506,257.854102 L16.5595086,253.927051 L19.4126782,251.145898 L15.4696949,250.572949 L13.7063391,247 L11.9429833,250.572949 L8,251.145898 L10.8531695,253.927051 L10.1796276,257.854102 L13.7063391,256 Z M41.7063391,256 L45.2330506,257.854102 L44.5595086,253.927051 L47.4126782,251.145898 L43.4696949,250.572949 L41.7063391,247 L39.9429833,250.572949 L36,251.145898 L38.8531695,253.927051 L38.1796276,257.854102 L41.7063391,256 Z M69.7063391,256 L73.2330506,257.854102 L72.5595086,253.927051 L75.4126782,251.145898 L71.4696949,250.572949 L69.7063391,247 L67.9429833,250.572949 L64,251.145898 L66.8531695,253.927051 L66.1796276,257.854102 L69.7063391,256 Z M97.7063391,256 L101.233051,257.854102 L100.559509,253.927051 L103.412678,251.145898 L99.4696949,250.572949 L97.7063391,247 L95.9429833,250.572949 L92,251.145898 L94.8531695,253.927051 L94.1796276,257.854102 L97.7063391,256 Z M125.706339,256 L129.233051,257.854102 L128.559509,253.927051 L131.412678,251.145898 L127.469695,250.572949 L125.706339,247 L123.942983,250.572949 L120,251.145898 L122.85317,253.927051 L122.179628,257.854102 L125.706339,256 Z M153.706339,256 L157.233051,257.854102 L156.559509,253.927051 L159.412678,251.145898 L155.469695,250.572949 L153.706339,247 L151.942983,250.572949 L148,251.145898 L150.85317,253.927051 L150.179628,257.854102 L153.706339,256 Z M153.706339,233 L157.233051,234.854102 L156.559509,230.927051 L159.412678,228.145898 L155.469695,227.572949 L153.706339,224 L151.942983,227.572949 L148,228.145898 L150.85317,230.927051 L150.179628,234.854102 L153.706339,233 Z M153.706339,210 L157.233051,211.854102 L156.559509,207.927051 L159.412678,205.145898 L155.469695,204.572949 L153.706339,201 L151.942983,204.572949 L148,205.145898 L150.85317,207.927051 L150.179628,211.854102 L153.706339,210 Z M153.706339,185 L157.233051,186.854102 L156.559509,182.927051 L159.412678,180.145898 L155.469695,179.572949 L153.706339,176 L151.942983,179.572949 L148,180.145898 L150.85317,182.927051 L150.179628,186.854102 L153.706339,185 Z M153.706339,162 L157.233051,163.854102 L156.559509,159.927051 L159.412678,157.145898 L155.469695,156.572949 L153.706339,153 L151.942983,156.572949 L148,157.145898 L150.85317,159.927051 L150.179628,163.854102 L153.706339,162 Z M125.706339,162 L129.233051,163.854102 L128.559509,159.927051 L131.412678,157.145898 L127.469695,156.572949 L125.706339,153 L123.942983,156.572949 L120,157.145898 L122.85317,159.927051 L122.179628,163.854102 L125.706339,162 Z M97.7063391,162 L101.233051,163.854102 L100.559509,159.927051 L103.412678,157.145898 L99.4696949,156.572949 L97.7063391,153 L95.9429833,156.572949 L92,157.145898 L94.8531695,159.927051 L94.1796276,163.854102 L97.7063391,162 Z M69.7063391,162 L73.2330506,163.854102 L72.5595086,159.927051 L75.4126782,157.145898 L71.4696949,156.572949 L69.7063391,153 L67.9429833,156.572949 L64,157.145898 L66.8531695,159.927051 L66.1796276,163.854102 L69.7063391,162 Z M41.7063391,162 L45.2330506,163.854102 L44.5595086,159.927051 L47.4126782,157.145898 L43.4696949,156.572949 L41.7063391,153 L39.9429833,156.572949 L36,157.145898 L38.8531695,159.927051 L38.1796276,163.854102 L41.7063391,162 Z" id="usFlag" fill="#000000"></path>
    </g>
</svg>