<?xml version="1.0" standalone="no"?><!DOCTYPE svg PUBLIC "-//W3C//DTD SVG 1.1//EN" "http://www.w3.org/Graphics/SVG/1.1/DTD/svg11.dtd"><svg width="100%" height="100%" viewBox="0 0 512 512" version="1.1" xmlns="http://www.w3.org/2000/svg" xmlns:xlink="http://www.w3.org/1999/xlink" xml:space="preserve" style="fill-rule:evenodd;clip-rule:evenodd;stroke-linejoin:round;stroke-miterlimit:1.41421;"><path id="Icon_40_" d="M256,1c-140.25,0 -255,114.75 -255,255c0,140.25 114.75,255 255,255c140.25,0 255,-114.75 255,-255c0,-140.25 -114.75,-255 -255,-255ZM256,77.5c42.05,0 76.5,34.45 76.5,76.5c0,42.05 -34.45,76.5 -76.5,76.5c-42.05,0 -76.5,-34.45 -76.5,-76.5c0,-42.05 34.45,-76.5 76.5,-76.5ZM256,439.649c-63.75,0 -119.899,-33.101 -153,-81.649c1.226,-51 102,-79.075 153,-79.075c51,0 151.774,28.075 153,79.075c-33.101,48.425 -89.25,81.649 -153,81.649Z" style="fill:#000;fill-rule:nonzero;"/></svg>