<?xml version="1.0" encoding="utf-8"?>
<!-- Generator: Adobe Illustrator 19.0.0, SVG Export Plug-In . SVG Version: 6.00 Build 0)  -->
<svg version="1.1" id="Layer_1" xmlns="http://www.w3.org/2000/svg" xmlns:xlink="http://www.w3.org/1999/xlink" x="0px" y="0px"
	 width="512px" height="512px" viewBox="0 0 512 512" enable-background="new 0 0 512 512" xml:space="preserve">
<g id="XMLID_2_">
	<path id="XMLID_28_" d="M443.6,36.3c0.4,0.4,0.7-0.2,0.9-0.2c10.1-5.7,19.9-11.5,30-17.4c0.2-0.2,0.4-0.4,0.5-0.4
		c-7.7-4.4-15.4-9-23-13.3c-2.7-1.6-5.5-2.9-8-4.9c-0.2,0-0.2,0-0.2,0c-0.2,0-0.2,0-0.2,0c0.2,0.2,0.2,0.2,0.2,0.2
		C443.6,12.3,443.6,24.4,443.6,36.3z"/>
	<path id="XMLID_3_" d="M504.4,35.7L504.4,35.7c-0.5-0.7-1.3-1.1-2-1.3c-5.3-3.1-10.6-6-15.7-9.1c-4.6-2.6-9.1-5.3-13.7-7.9
		c-0.2,0.2-0.4,0.4-0.5,0.4c-10.1,5.8-19.9,11.5-30,17.4c-0.4,0.2-0.5,0.5-0.9,0.2c-0.5,0.2-0.9-0.2-1.3-0.4c-1.6-0.9-3.3-2-5.1-2.9
		c-8.2-4.8-16.3-9.5-24.5-14.3c-0.5-0.4-0.7-0.2-1.1,0c-5.1,2.9-10.2,5.8-15.4,8.8c-5.5,3.1-10.8,6.4-16.3,9.3
		c-5.5,2.9-10.8,6.2-16.1,9.3c-7.5,4.4-14.8,8.6-22.3,13c-6.4,3.7-12.8,7.3-19.2,11.1c-1.6,0.9-3.3,1.6-4.6,2.9l0,0
		c-0.4,0.4-0.2,0.9-0.2,1.5c0,11.3,0,22.5,0,34c0,0.7-0.2,1.5-0.4,2.2c-10.2,26.7-20.5,53.2-30.7,79.9c-0.4,0.7-0.4,1.5-0.4,2.4
		c0,14.4,0,28.9,0,43.1c0,0.9-0.2,1.5-1.1,2c-6.8,3.8-13.7,7.9-20.5,11.9c-0.5,0.4-0.9,0.5-1.3,1.1c-2.9,7.5-5.7,14.8-8.6,22.3
		c-0.7-0.2-0.5-0.9-0.9-1.3c-5.7-14.3-11.1-28.7-16.4-42.9c-15.2-39.3-30.2-78.6-45.3-117.9c-0.4-1.1-0.5-2.2-0.5-3.3
		c0-11.5,0-23,0-34.5l0,0c0-0.2-0.2-0.4-0.4-0.5c-6-3.3-11.9-6.8-17.9-10.2c-6.6-3.8-13.3-7.7-19.9-11.5
		c-6.2-3.7-12.6-7.3-18.8-10.8c-7.3-4.2-14.8-8.4-21.9-12.8c-6.8-4-13.7-7.9-20.7-11.7c-5.1-2.9-10.2-5.8-15.5-9
		c-3.3-2-6.8-4-10.2-5.8c-0.5-0.4-1.3-0.4-1.8,0c-2.2,1.3-4.4,2.6-6.4,3.7c-8.2,4.6-16.3,9.7-24.7,13.9c-5.8,2.9-11.3,6.4-17,9.7
		C9.5,30.2,4.8,33,0,35.7c0,0.2,0,0.2,0,0.2l0,0c0,12.2,0,24.5,0,36.7c0.4,0.4,0.4,0.7,0.5,1.1c12.8,31.3,25.8,62.3,38.6,93.4
		c0.4,0.7,0.5,1.1,1.3,1.6c7.3,4,14.4,8.4,21.7,12.4c0.9,0.4,1.1,0.9,1.1,1.8c0,13.7,0,27.2,0,40.9c0,1.1,0.2,2,0.5,2.9
		c31.3,75.7,62.5,151.3,93.6,227c0.4,1.1,1.1,1.8,2.2,2.4c30.7,17.7,61.6,35.5,92.3,53.2c0.4,0.2,0.5,0.5,1.1,0.4
		c0.4-0.2,0.5-0.2,0.9-0.4c5.7-3.1,11.1-6.4,16.8-9.5c4.6-2.6,9.3-5.3,13.9-8c-0.5,0-1.1-0.4-1.5-0.5c-2.2-1.3-4.6-2.6-6.8-3.8
		c-7.3-4.2-14.6-8.4-21.9-12.6c-0.4-0.2-0.7-0.7-1.1-0.5c-0.2,0.2-0.4,0.4-0.4,0.5c0-0.2,0-0.5,0.4-0.5c0.4-0.2,0.9,0.4,1.1,0.5
		c7.3,4.2,14.6,8.4,21.9,12.6c2.2,1.3,4.6,2.6,6.8,3.8c0.4,0.4,0.9,0.5,1.5,0.5l0,0l0,0c0.4-0.2,0.9-0.4,1.3-0.5
		c7.9-4.4,15.5-9,23.2-13.3c12.6-7.1,25-14.4,37.6-21.6c0.5-0.4,0.9-0.7,1.3-1.3c9.1-22.1,18.3-44.4,27.4-66.5
		c10.8-26.3,21.7-52.6,32.5-79c12.8-31.1,25.8-62.3,38.6-93.4c9.5-23.2,19.2-46.6,28.9-70c10.1-24.3,19.9-48.4,30-72.7
		c0.2-0.5,0.4-1.3,0.4-2c0-11.3,0-22.8,0-34.2C504.6,36.6,504.8,36.1,504.4,35.7z M62.3,108.3c-0.2,0.2-0.4,0-0.5,0
		c-0.2-0.2-0.4-0.2-0.4-0.2c0,0.4,0,0.9,0,1.3c-0.2,0.2-0.4,0-0.5,0c-10.2-5.8-20.5-11.9-30.7-17.7c-0.2,0-0.2-0.2-0.2-0.2
		c0.2-0.4,0.5-0.5,1.1-0.7c0.2,0,0.2-0.2,0.4-0.2l0,0c-0.2,0-0.2-0.2-0.2-0.2c-0.2-0.2-0.2-0.5-0.2-0.9c0-11.9,0-23.8,0-35.6l0,0
		c0,11.9,0,23.8,0,35.6c0,0.4-0.2,0.5,0.2,0.9c0.2-0.4,0.5-0.5,1.1-0.7c10.1-5.8,20.1-11.7,30.2-17.5l0,0c0.2,0,0.2,0,0.2,0l0,0
		C62.3,84.2,62.3,96.2,62.3,108.3z M147.5,282.6c-6.9,4-14.1,8-21,12.1c-0.5,0.4-1.1,0.4-1.6,0.2c-0.2,0-0.2-0.2-0.2-0.2l-0.2,0.2
		c-0.5,0.4-1.1,0.4-1.6,0.2c-10.1-5.8-20.1-11.5-30.2-17.5c-0.2-0.2-0.4-0.4-0.5-0.4c0.4-0.2,0.5-0.4,0.9-0.4
		c0.4-0.2,0.9-0.4,1.1-0.7c0-1.6,0-3.1,0-4.6c0-9.7,0-19.6,0-29.2c0-0.2,0-0.2,0-0.4c0,8.4,0,16.8,0,25.2c0,1.8,0,3.8,0,5.8
		c0.4-0.2,0.5-0.4,0.9-0.4c5.3-3.1,10.4-6,15.7-9.1c3.7-2.2,7.5-4.4,11.1-6.6c1.1,0.5,2.4,1.3,3.5,2.2c1.5,0.4,2.7,1.3,4,2.2
		c9,5.1,17.9,10.2,26.9,15.5c0.4,0.2,0.5,0.4,0.9,0.5C153.9,279,150.8,280.6,147.5,282.6z M157.2,417.5c0-5.7,0-11.3,0-17
		C157.2,406.2,157.2,411.9,157.2,417.5L157.2,417.5L157.2,417.5z M157.2,383.9c0-0.2,0-0.4,0-0.5
		C157.2,383.3,157.2,383.5,157.2,383.9L157.2,383.9z M187.7,401.3c-7.9,4.6-15.9,9.1-23.8,13.7c-1.8,1.1-3.7,2.2-5.5,3.1
		c-0.9,0.5-1.1,0.5-1.1,0.2c0.2,0.5,0.4,0.4,1.1-0.2c1.8-1.1,3.7-2.2,5.5-3.1C171.8,410.4,179.8,405.8,187.7,401.3
		c0.4-0.2,0.5-0.4,0.7-0.5C188.4,400.9,188.1,401.1,187.7,401.3z M188.8,145.9c0-0.7-0.4-1.1-0.9-1.5c-1.8-1.1-3.7-2.2-5.7-3.1
		c-6.2-3.7-12.6-7.3-18.8-10.8c-2.2-1.1-4-2.6-6.4-3.5c0,12.1,0,24.1,0,36.2c-0.4-0.2-0.7-0.4-1.1-0.5c0,0.5,0,1.1,0,1.6
		c-3.3-1.8-6.8-3.8-10.2-5.8c-6.8-3.8-13.5-7.9-20.3-11.7c-0.4-0.2-0.5-0.4-0.9-0.4l0,0c0-0.5,0.5-0.5,0.9-0.9
		c0.2-0.2,0.2-0.2,0.4-0.2h-0.2l0,0l0,0l0,0c0-0.5,0.5-0.5,0.9-0.9c10.1-5.8,19.9-11.5,30-17.4c0.2-0.2,0.4-0.4,0.5-0.2
		c2.4,0.9,4.4,2.4,6.4,3.5c6.4,3.7,12.6,7.3,18.8,10.8c1.8,1.1,3.7,2.2,5.7,3.1C188.4,144.8,188.8,145.2,188.8,145.9L188.8,145.9z
		 M252,475.1c0,11,0,21.9,0,32.9l0,0C251.8,496.8,251.8,486.1,252,475.1z M251.8,473.3c-0.4-0.2-0.7-0.4-1.1-0.5c0,0.5,0,1.1,0,1.6
		c-10.6-6-21-12.1-31.6-18.3c0.5-0.4,0.9-0.5,1.5-0.9c-0.2-0.2-0.2-0.2-0.4-0.2c10.6-6,21-12.1,31.6-18.3
		C251.8,449.1,251.8,461.2,251.8,473.3z M283.3,381.7c-0.4,0.4-0.9,0.5-1.3,0.9c0.2,0,0.2,0.2,0.2,0.2c-1.6,1.3-3.5,2.2-5.3,3.1
		c-8.6,4.9-17,9.9-25.4,14.8c-0.4,0.2-0.5,0.5-1.1,0.5c-10.1-5.8-20.3-11.7-30.3-17.5c-0.4-0.2-0.9-0.4-0.7-0.9
		c0.4-0.2,0.7-0.4,1.1-0.5c0-0.2-0.2-0.2,0-0.4c10.1-5.8,20.3-11.7,30.3-17.5c0.4-0.2,0.9-0.4,1.3-0.5c0.2,0.9,1.1,1.1,1.6,1.3
		C263.5,370.6,273.4,376.2,283.3,381.7L283.3,381.7z M346.7,90.4c10.1-5.8,20.3-11.7,30.5-17.5c0.4-0.2,0.7-0.5,1.1-0.4l0,0l0,0l0,0
		c0,11.9,0,23.8,0,35.5c0,0.5-0.4,0.9-0.9,1.3c-8,4.6-16.3,9.3-24.3,14.1c-0.7,0.4-1.5,0.9-2.2,1.3c-0.7,0.4-1.3,0.9-2.2,1.1
		c-0.7,0.4-1.5,0.9-2.2,1.3l0,0l0,0C346.7,114.7,346.7,102.4,346.7,90.4z M287.7,416.4c0.4-0.2,0.7-0.2,0.9-0.7
		C288.4,416.1,288,416.2,287.7,416.4z M289.1,415.3L289.1,415.3c0.2,0,0.2,0,0.4,0C289.3,415.3,289.3,415.3,289.1,415.3z
		 M291.5,414.1C291.5,414.1,291.3,414.1,291.5,414.1C291.3,414.2,291.3,414.2,291.5,414.1C291.3,414.1,291.5,414.1,291.5,414.1
		L291.5,414.1z M293.3,413L293.3,413L293.3,413L293.3,413L293.3,413z M293.5,413c0.2,0,0.2,0,0.2,0S293.5,413,293.5,413z
		 M293.7,412.6c-0.2,0-0.2,0.2-0.2,0.2l0,0C293.5,412.8,293.7,412.8,293.7,412.6L293.7,412.6z M302.3,335.3
		c-0.4,0.2-0.5,0.5-0.9,0.4c5.3-13.2,10.6-26.3,15.7-39.7c0.4-0.7,0.5-1.1,1.1-0.9v-0.2c0.4-1.1,0.9-1.1,1.8-0.5
		c8.4,4.9,16.8,9.7,25.2,14.6c0.4,0.2,0.5,0.4,0.9,0.5l0,0c-0.4,0.4-0.9,0.5-1.3,0.9c0.2,0.2,0.2,0.2,0.4,0.2
		c-4,2.4-8.2,4.9-12.2,7.1C322.8,323.6,312.5,329.4,302.3,335.3z M345.4,419.4c-0.2,0.2-0.2,0.2-0.4,0.2c0,0,0,0,0.2,0
		c0,0.5-0.5,0.5-0.9,0.9c-9.9,5.7-19.7,11.3-29.6,17c-0.2,0.2-0.4,0.2-0.4,0.2c-0.4-0.4-0.2-0.7-0.2-1.1c0-11.3,0-22.5,0-33.6
		c0-0.4-0.2-0.9,0.2-1.1c0.4,0.2,0.5,0.4,0.9,0.5c0-0.2,0-0.2,0-0.4c0-0.4-0.2-0.9,0.2-1.1c10.2,6,20.7,11.9,30.9,17.9
		C346.3,419,345.8,419.2,345.4,419.4z M370.8,213.7c-5.1-2.9-10.2-5.8-15.4-8.8c-0.4-0.2-0.5-0.2-0.7-0.2c0.2,0,0.4,0,0.7,0.2
		C360.6,207.7,365.7,210.6,370.8,213.7c2.4,1.3,4.9,2.9,7.5,4.4l0,0C375.8,216.5,373.4,215,370.8,213.7z M408.7,272
		c-8.4-4.9-16.8-9.7-25.2-14.6c-1.6-0.9-3.3-1.8-5.3-2.9c2.4-1.3,4.8-2.7,7.1-4c-2.4,1.3-4.6,2.6-7.1,4c1.8,1.1,3.7,2,5.3,2.9
		C391.8,262.4,400.3,267.3,408.7,272c0.7,0.4,0.9,0.5,1.1,0.2C409.8,272.6,409.4,272.6,408.7,272z M409.9,163.1
		c-0.4,0.4-0.9,0.5-1.3,0.9c0.2,0,0.2,0.2,0.4,0.2c-2.4,1.6-5.1,3.1-7.5,4.6c-8,4.6-16.1,9.3-23.9,13.9c-10.6-6-21-12.1-31.6-18.3
		c0.5-0.4,0.9-0.5,1.5-0.9c-0.2-0.2-0.2-0.2-0.4-0.2c2.6-1.6,5.1-2.9,7.5-4.4c7.7-4.4,15.5-9,23.2-13.3c0.7-0.4,1.3-0.2,1.8,0.2
		c9.9,5.8,19.9,11.5,29.8,17.4C409.4,162.9,409.8,163.1,409.9,163.1L409.9,163.1z M409.9,271.3L409.9,271.3L409.9,271.3L409.9,271.3
		z M471.7,89.6c-5.7-3.3-11.3-6.6-17-9.9c-4-2.4-8-4.6-12.1-7.1c-0.4-0.2-0.9-0.2-0.9-0.7l0,0l0,0c0.2,0.5,0.5,0.5,0.9,0.7
		c4,2.4,8,4.6,12.1,7.1C460.4,83.1,466,86.4,471.7,89.6c0.5,0.4,0.9,0.4,1.1,0.5C472.6,90,472.3,89.8,471.7,89.6z"/>
</g>
</svg>
