<?xml version="1.0" encoding="utf-8"?>
<!-- Generator: Adobe Illustrator 19.0.0, SVG Export Plug-In . SVG Version: 6.00 Build 0)  -->
<svg version="1.1" id="Layer_1" xmlns="http://www.w3.org/2000/svg" xmlns:xlink="http://www.w3.org/1999/xlink" x="0px" y="0px"
	 width="512px" height="512px" viewBox="0 0 512 512" style="enable-background:new 0 0 512 512;" xml:space="preserve">
<g id="Page-1">
	<path d="M0,0l254.5,480.2L509,0H0z M303.3,110.7c8.9,0,15.5,6.6,15.5,15.5s-6.6,15.5-15.5,15.5c-8.9,0-15.5-6.6-15.5-15.5
		C289.9,117.3,294.4,110.7,303.3,110.7z M216.9,219.1c-8.9,0-15.5-6.6-15.5-15.5s6.6-15.5,15.5-15.5s15.5,6.6,15.5,15.5
		S223.5,219.1,216.9,219.1z M216.9,181.4c-8.9,0-15.5-6.6-15.5-15.5s6.6-15.5,15.5-15.5s15.5,6.6,15.5,15.5S223.5,181.4,216.9,181.4
		z M216.9,141.7c-8.9,0-15.5-6.6-15.5-15.5s6.6-15.5,15.5-15.5s15.5,6.6,15.5,15.5C230.1,134.9,223.5,141.7,216.9,141.7z
		 M258.9,258.9c-8.9,0-15.5-6.6-15.5-15.5s6.6-15.5,15.5-15.5c8.9,0,15.5,6.6,15.5,15.5S267.8,258.9,258.9,258.9z M258.9,219.1
		c-8.9,0-15.5-6.6-15.5-15.5s6.6-15.5,15.5-15.5c8.9,0,15.5,6.6,15.5,15.5S267.8,219.1,258.9,219.1z M258.9,181.4
		c-8.9,0-15.5-6.6-15.5-15.5s6.6-15.5,15.5-15.5c8.9,0,15.5,6.6,15.5,15.5S267.8,181.4,258.9,181.4z M258.9,141.7
		c-8.9,0-15.5-6.6-15.5-15.5s6.6-15.5,15.5-15.5c8.9,0,15.5,6.6,15.5,15.5S267.8,141.7,258.9,141.7z M303.3,219.1
		c-8.9,0-15.5-6.6-15.5-15.5s6.6-15.5,15.5-15.5c8.9,0,15.5,6.6,15.5,15.5S312,219.1,303.3,219.1z M303.3,181.4
		c-8.9,0-15.5-6.6-15.5-15.5s6.6-15.5,15.5-15.5c8.9,0,15.5,6.6,15.5,15.5S312,181.4,303.3,181.4z"/>
</g>
</svg>
