<?xml version="1.0" standalone="no"?><!DOCTYPE svg PUBLIC "-//W3C//DTD SVG 1.1//EN" "http://www.w3.org/Graphics/SVG/1.1/DTD/svg11.dtd"><svg width="100%" height="100%" viewBox="0 0 512 512" version="1.1" xmlns="http://www.w3.org/2000/svg" xmlns:xlink="http://www.w3.org/1999/xlink" xml:space="preserve" style="fill-rule:evenodd;clip-rule:evenodd;stroke-linejoin:round;stroke-miterlimit:1.41421;"><path d="M1,171l0,170l113.334,0l141.666,148.143l0,-466.285l-141.666,148.142l-113.334,0ZM383.5,256c0,-50.999 -28.333,-96.166 -70.833,-118.021l0,234.595c42.5,-20.407 70.833,-65.574 70.833,-116.574ZM312.667,1l0,59.736c82.163,24.775 141.667,103.467 141.667,195.264c0,91.799 -59.504,170.49 -141.667,195.264l0,59.736c113.333,-26.225 198.333,-131.143 198.333,-255c0,-123.856 -85,-228.775 -198.333,-255Z" style="fill:#000;fill-rule:nonzero;"/></svg>