<?xml version="1.0" standalone="no"?><!DOCTYPE svg PUBLIC "-//W3C//DTD SVG 1.1//EN" "http://www.w3.org/Graphics/SVG/1.1/DTD/svg11.dtd"><svg width="100%" height="100%" viewBox="0 0 512 512" version="1.1" xmlns="http://www.w3.org/2000/svg" xmlns:xlink="http://www.w3.org/1999/xlink" xml:space="preserve" style="fill-rule:evenodd;clip-rule:evenodd;stroke-linejoin:round;stroke-miterlimit:1.41421;"><g><path d="M454.555,256c0,30.171 -6.486,58.918 -18.067,84.807l42.341,42.341c20.594,-37.725 32.171,-81.124 32.171,-127.148c0,-123.856 -85,-228.775 -197.891,-255l0,59.736c82.344,24.775 141.446,103.467 141.446,195.264Z" style="fill:#000;fill-rule:nonzero;"/><path d="M256,22.858l-67.762,69.7l67.762,67.76l0,-137.46Z" style="fill:#000;fill-rule:nonzero;"/><path d="M474.931,443.113l-437.918,-437.92l-31.875,31.875l120.194,120.08l-10.996,13.852l-113.336,0l0,170l113.334,0l141.666,148.143l0,-201.268l126.059,125.755c-20.081,16.943 -43.715,29.919 -68.95,37.634l0,59.736c41.172,-9.525 78.354,-29.435 109.325,-56.856l52.607,52.718l31.875,-31.933l-31.878,-31.926l-0.107,0.11Z" style="fill:#000;fill-rule:nonzero;"/><path d="M383.75,256c0,-50.999 -28.141,-96.166 -70.641,-118.021l0,79.448l67.47,67.47c2.064,-9.322 3.171,-18.997 3.171,-28.897Z" style="fill:#000;fill-rule:nonzero;"/></g></svg>