<?xml version="1.0" standalone="no"?>
<!DOCTYPE svg PUBLIC "-//W3C//DTD SVG 1.1//EN" "http://www.w3.org/Graphics/SVG/1.1/DTD/svg11.dtd">
<svg width="512px" height="512px" version="1.1" xmlns="http://www.w3.org/2000/svg" xmlns:xlink="http://www.w3.org/1999/xlink" xml:space="preserve" style="fill-rule:evenodd;clip-rule:evenodd;stroke-linejoin:round;stroke-miterlimit:1.41421;">
    <g id="Layer_1">
        <g>
            <path d="M457.605,414.723L339.796,296.81C361.424,269.775 374.421,235.358 374.421,197.926C374.421,110.479 303.611,39.6694 216.373,39.6694C129.03,39.6694 58.3244,110.583 58.3244,197.926C58.3244,285.268 129.134,356.182 216.373,356.182C254.013,356.182 288.535,342.977 315.673,321.037L433.378,438.95L457.605,414.723ZM116.345,298.162C89.6222,271.439 74.9611,235.878 74.9611,198.03C74.9611,160.181 89.7262,124.62 116.345,97.8978C142.964,71.1752 178.628,56.3061 216.373,56.3061C254.117,56.3061 289.678,71.0713 316.401,97.7939C343.123,124.517 357.785,160.077 357.785,197.926C357.785,235.774 343.02,271.335 316.401,298.058C289.678,324.781 254.117,339.546 216.373,339.546C178.628,339.65 143.068,324.884 116.345,298.162ZM207.343,274.004L207.343,208.782L145.324,208.782L145.324,187.049L207.343,187.049L207.343,122.296L228.224,122.296L228.224,187.049L290.243,187.049L290.243,208.782L228.224,208.782L228.224,274.004L207.343,274.004Z" style="fill:black;"/>
        </g>
    </g>
</svg>
