<?xml version="1.0" standalone="no"?>
<!DOCTYPE svg PUBLIC "-//W3C//DTD SVG 1.1//EN" "http://www.w3.org/Graphics/SVG/1.1/DTD/svg11.dtd">
<svg width="512px" height="512px" version="1.1" xmlns="http://www.w3.org/2000/svg" xmlns:xlink="http://www.w3.org/1999/xlink" xml:space="preserve" style="fill-rule:evenodd;clip-rule:evenodd;stroke-linejoin:round;stroke-miterlimit:1.41421;">
    <g id="Layer_1">
        <g>
            <path d="M462.14,415.036L344.233,297.025C365.879,269.968 378.887,235.522 378.887,198.058C378.887,110.538 308.018,39.6694 220.707,39.6694C133.291,39.6694 62.5266,110.642 62.5266,198.058C62.5266,285.473 133.396,356.446 220.707,356.446C258.379,356.446 292.929,343.23 320.09,321.272L437.893,439.283L462.14,415.036ZM120.595,298.378C93.8505,271.633 79.1771,236.042 79.1771,198.162C79.1771,160.282 93.9545,124.691 120.595,97.9464C147.236,71.2015 182.931,56.32 220.707,56.32C258.483,56.32 294.074,71.0975 320.819,97.8424C347.563,124.587 362.237,160.178 362.237,198.058C362.237,235.938 347.459,271.529 320.819,298.274C294.074,325.019 258.483,339.796 220.707,339.796C182.931,339.9 147.34,325.123 120.595,298.378ZM294.639,208.923L149.599,208.923L149.599,185.647L294.639,185.647L294.639,208.923Z" style="fill:black;"/>
        </g>
    </g>
</svg>
