<?xml version="1.0" encoding="UTF-8"?>
<svg id="Layer_1" data-name="Layer 1" xmlns="http://www.w3.org/2000/svg" viewBox="0 0 141.73 141.73">
  <defs>
    <style>
      .cls-1 {
        fill: #54575a;
      }
    </style>
  </defs>
  <g id="_8jTesd.tif" data-name="8jTesd.tif">
    <g>
      <g>
        <path class="cls-1" d="M114.54,42.38h0c0,1.45,1.17,2.63,2.62,2.63,1.05,0,2.1,0,3.16,0h4.85c2.7,.01,4.07,1.37,4.07,4.04,.01,11.28,.01,22.57,0,33.85,0,2.65-1.41,4.05-4.08,4.06-.71,.01-1.42,0-2.17,0h-.24v-8.82c0-2.62-.88-3.5-3.47-3.5H36.28c-2.69,0-3.55,.86-3.55,3.53v8.83s0,0,0,0c-1.39-.03-2.67-.02-3.89-.23-1.56-.26-2.6-1.74-2.6-3.69,0-7.43,0-14.87,0-22.3,0-3.89,0-7.77,0-11.65,0-2.77,1.34-4.12,4.1-4.12H101.84c1.46,0,2.64-1.18,2.64-2.64h0c0-1.46-1.18-2.64-2.64-2.64H30.59c-4.69,0-8.05,2.29-9.21,6.27-.27,.93-.4,1.97-.4,3.18-.02,8.93-.02,17.87-.02,26.81v6.7c0,5.8,3.75,9.55,9.56,9.55,14.11,.01,28.23,0,42.34,0h23.28c.83,0,1.66,.01,2.49,.01h14.3c1.71,.01,3.45,.01,5.19,.01,2.66,0,5.34-.02,8-.09,3.92-.11,7.04-2.66,8.13-6.67,.06-.19,.13-.4,.2-.6l.06-.16v-.2s.01-37.43,.01-37.43l-.08-.19c-.08-.2-.14-.32-.17-.44-1.04-4.01-4.32-6.64-8.35-6.72l-8.74-.02c-1.46,0-2.64,1.18-2.64,2.63Zm2.88,38.4H54.56c-.55,0-1.12,0-1.71,.12-1.34,.28-2.13,1.31-2.05,2.7,.06,1.27,.9,2.19,2.18,2.4,.46,.07,.9,.07,1.32,.06h.25c20.81,.01,41.61,.01,62.42,.01h.45v.89h-5c-1.2,0-2.4,0-3.6,.01h-10.19c-20.02-.01-40.06-.01-60.09-.01h-.47v-.89h2.76c1.9,0,3.79,0,5.69-.01,1.71-.01,2.91-1.03,2.97-2.53,.02-.71-.23-1.37-.7-1.86-.54-.56-1.34-.87-2.26-.88-2.22-.02-4.44-.02-6.69,0h-1.76v-.8H117.42v.8Z"/>
        <path class="cls-1" d="M102.28,86.97h-1.32c.11,0,.22-.01,.34-.02,.29-.02,.63-.04,.98,.02Z"/>
      </g>
      <path class="cls-1" d="M45.35,53.6c.36,.68,1.01,1.17,1.79,1.35,.4,.09,.79,.08,1.13,.08h.17s29.68,0,29.68,0h.2c.12,0,.24,0,.36,0,1.52-.13,2.62-1.23,2.63-2.63,.01-.69-.25-1.33-.72-1.81-.52-.52-1.25-.81-2.07-.81-3.63-.01-7.27-.01-10.9-.01h-8.72c-3.62,0-7.25,0-10.87-.01h-.01c-1.4,0-2.33,.56-2.77,1.66-.29,.72-.25,1.51,.1,2.18Z"/>
      <path class="cls-1" d="M100.08,97.75v.06c.5,4.56,2.61,8.24,6.28,10.94,.51,.37,1.09,.56,1.66,.56,.78,0,1.53-.35,2.05-1.02,.43-.57,.62-1.25,.53-1.93-.09-.7-.47-1.33-1.07-1.78-2.58-1.96-3.96-4.47-4.23-7.67-.06-.67-.37-1.27-.89-1.7-.54-.44-1.27-.65-2-.58-1.49,.17-2.4,1.39-2.33,3.12Z"/>
      <path class="cls-1" d="M45.4,108.28c.51,.67,1.23,1.02,2,1.02,.63,0,1.29-.23,1.9-.69,3.5-2.64,5.55-6.23,6.07-10.68,.12-.99-.11-1.83-.66-2.44-.35-.4-1.05-.85-2.13-.87h-.09c-1.3,.14-2.21,1.07-2.32,2.39-.27,3.12-1.62,5.57-4.14,7.49-1.28,.98-1.55,2.57-.63,3.78Z"/>
      <path class="cls-1" d="M61.87,100.62v2.68c0,1.05,0,2.09,.01,3.13,.02,1.77,1.02,2.86,2.61,2.86h.02c1.56,0,2.62-1.17,2.63-2.88,.02-3.05,.02-6.05,0-8.92-.01-1.72-1.07-2.87-2.64-2.87h-.02c-1.56,.01-2.58,1.14-2.6,2.89-.01,1.03-.01,2.07-.01,3.11Z"/>
      <path class="cls-1" d="M88.34,106.43c.01,1.71,1.08,2.86,2.65,2.86h0c1.24,0,2.57-.76,2.6-2.88,.01-1.09,.01-2.19,.01-3.28v-1.29s0-1.33,0-1.33c0-1.01,0-2.02-.01-3.03-.02-1.74-1.05-2.86-2.61-2.86h-.02c-1.56,.01-2.62,1.18-2.63,2.89-.02,3.04-.02,6.04,0,8.92Z"/>
      <path class="cls-1" d="M74.64,106.43c.01,1.74,1.05,2.86,2.64,2.86h.02c1.23,0,2.57-.77,2.6-2.88,.01-1.06,.01-2.13,0-3.19v-2.67c.01-1.03,.01-2.05-.01-3.07-.02-1.74-1.05-2.86-2.61-2.86h-.03c-1.57,.02-2.6,1.15-2.62,2.89-.02,3.04-.02,6.04,.01,8.92Z"/>
      <path class="cls-1" d="M32.74,52.24c-.04,.72,.19,1.4,.67,1.92,.47,.52,1.14,.82,1.88,.85,.81,.03,1.64,.04,2.48,.04s1.65-.01,2.48-.04c.74-.02,1.41-.31,1.87-.81,.47-.51,.72-1.19,.69-1.92-.05-1.45-1.11-2.44-2.69-2.51h-3.05c-.57,0-1.14-.01-1.7,.01-1.47,.06-2.55,1.06-2.63,2.46Z"/>
    </g>
  </g>
</svg>