<svg xmlns="http://www.w3.org/2000/svg" width="512" height="512"><path d="M104 160a56 56 0 1156-56 56.06 56.06 0 01-56 56zm152 0a56 56 0 1156-56 56.06 56.06 0 01-56 56zm152 0a56 56 0 1156-56 56.06 56.06 0 01-56 56zM104 312a56 56 0 1156-56 56.06 56.06 0 01-56 56zm152 0a56 56 0 1156-56 56.06 56.06 0 01-56 56zm152 0a56 56 0 1156-56 56.06 56.06 0 01-56 56zM104 464a56 56 0 1156-56 56.06 56.06 0 01-56 56zm152 0a56 56 0 1156-56 56.06 56.06 0 01-56 56zm152 0a56 56 0 1156-56 56.06 56.06 0 01-56 56z"/></svg>