<?xml version="1.0" encoding="UTF-8"?>
<svg id="Layer_1" data-name="Layer 1" xmlns="http://www.w3.org/2000/svg" viewBox="0 0 141.73 141.73">
  <defs>
    <style>
      .cls-1 {
        fill: #53575a;
      }
    </style>
  </defs>
  <path class="cls-1" d="M113.64,116.62H28.1c0,1.64,0,3.24,0,4.83,0,1.73-.5,2.22-2.23,2.22-2.03,0-4.06,0-6.09,0-1.89,0-2.33-.44-2.33-2.35,0-18.89,0-37.78,.02-56.66,0-1.59-.21-2.87-1.37-4.21-2.95-3.41-2.41-8.61,.92-11.62,3.33-3.02,8.45-2.95,11.69,.15,3.24,3.09,3.61,8.3,.63,11.66-1.01,1.14-1.38,2.24-1.25,3.65,.04,.5,0,1,0,1.6H113.59c-.14-1.75,.54-3.46-1.07-5.14-3.15-3.3-2.75-8.7,.58-11.82,3.38-3.17,8.69-3.08,11.95,.19,3.27,3.29,3.37,8.61,.14,11.95-.69,.72-.91,1.42-.91,2.37,.02,19.2,.02,38.4,.02,57.6,0,2.29-.35,2.64-2.63,2.64-2.03,0-4.06,.01-6.09,0-1.35-.01-1.91-.56-1.93-1.93-.02-1.67,0-3.34,0-5.11m-.17-8.86H28.3v5.48H113.47v-5.48Zm-29.84-3.44h7.73v-35.02h-7.73v35.02Zm-33.27-.02h7.74v-35.01h-7.74v35.01Zm11.13,.01h7.66v-35.04h-7.66v35.04Zm-33.22,0h7.64v-35.01h-7.64v35.01Zm18.7-34.97h-7.66v34.97h7.66v-34.97Zm25.63,34.96h7.65v-35.01h-7.65v35.01Zm29.83-34.98h-7.65v35.01h7.65v-35.01Zm3.39,35.01h7.62v-34.98h-7.62v34.98Zm15.15-40.61h-4.06v56.63h4.06V63.7ZM20.75,120.33h4.02V63.71h-4.02v56.62Zm-3.28-65.13c0,2.97,2.39,5.36,5.35,5.34,2.96-.02,5.3-2.42,5.28-5.42-.02-2.91-2.42-5.3-5.3-5.29-2.98,.01-5.34,2.39-5.33,5.37m106.82,.11c.06-2.98-2.27-5.43-5.22-5.47-2.91-.04-5.33,2.27-5.4,5.18-.07,3,2.22,5.46,5.16,5.52,2.97,.07,5.4-2.26,5.46-5.23"/>
  <path class="cls-1" d="M69.13,38.3c-7.08,.2-13.85,5.47-15.45,11.96-.21,.87-.24,1.44,.71,2,1.84,1.08,2.56,3.42,1.91,5.44-.63,1.97-2.55,3.34-4.63,3.32-2.14-.03-4-1.46-4.58-3.53-.56-2.01,.22-4.24,2.06-5.28,.84-.47,1.04-1.05,1.23-1.89,1.67-7.59,6.67-12.03,13.79-14.36,1.58-.52,3.26-.73,4.99-1.1v-5.25h-1.27c-7.26,0-14.51,0-21.77,0-3.41,0-5.66-1.52-6.63-4.8-.48-1.62-.59-3.37-.74-5.07-.09-1.01,.57-1.57,1.59-1.64,.31-.02,.62,0,.94,0h59.11c2.3,0,2.79,.38,2.54,2.64-.19,1.8-.53,3.66-1.23,5.31-1.01,2.39-3.05,3.57-5.69,3.57-7.37,0-14.75,0-22.12,0h-1.33v5.29c1.38,.27,2.81,.43,4.18,.82,7.05,2.03,12.17,6.15,14.34,13.43,.04,.15,.12,.3,.13,.45,.08,1.31,.6,2.2,1.79,2.95,1.7,1.07,2.21,3.46,1.5,5.36-.72,1.93-2.58,3.18-4.64,3.12-2.03-.05-3.86-1.45-4.45-3.39-.61-2.04,.07-4.25,1.9-5.33,.95-.56,.96-1.12,.72-1.99-1.77-6.45-6.33-9.88-12.49-11.56-.93-.25-1.91-.36-2.98-.55-.03,.44-.07,.77-.07,1.1,0,1.88,.05,3.76-.02,5.63-.05,1.33,.12,2.3,1.37,3.23,2.08,1.54,1.99,4.73,.1,6.52-1.88,1.78-4.94,1.58-6.56-.42-1.64-2.03-1.27-5.06,.91-6.49,.78-.51,.97-1.04,.95-1.88-.05-2.42-.02-4.85-.03-7.27,0-.07-.04-.15-.09-.31m-27.02-16.9c.06,3.55,1.43,4.95,4.78,4.95,16.03,0,32.06,0,48.09,0,.43,0,.86,0,1.29-.01,1.08-.01,1.94-.5,2.38-1.43,.51-1.07,.81-2.23,1.24-3.5H42.11Zm11.18,34.85c.02-.84-.67-1.55-1.53-1.57-.89-.02-1.56,.62-1.57,1.49-.01,.89,.63,1.56,1.5,1.58,.85,.02,1.57-.66,1.6-1.5m36.67-1.57c-.87,.02-1.54,.72-1.52,1.56,.03,.87,.71,1.52,1.59,1.5,.87-.02,1.52-.69,1.5-1.57-.02-.88-.68-1.51-1.57-1.49m-18.79-4.66c-1.1,.21-1.64,.68-1.46,1.43,.11,.46,.7,1.04,1.16,1.13,.75,.15,1.31-.42,1.18-1.2-.09-.49-.57-.91-.87-1.36"/>
</svg>