<?xml version="1.0" encoding="UTF-8"?>
<svg id="Layer_1" data-name="Layer 1" xmlns="http://www.w3.org/2000/svg" viewBox="0 0 141.73 141.73">
  <defs>
    <style>
      .cls-1 {
        fill: #54575a;
      }
    </style>
  </defs>
  <path class="cls-1" d="M14.36,110.01c0-1.36,0-2.71,0-4.07,.05-.55,.14-1.1,.14-1.65,0-10.01,.02-20.03-.01-30.04,0-1.14,.21-1.6,1.5-1.56,3.31,.11,6.62,.04,9.94,.03,.42,0,.84-.05,1.29-.07,.04-.36,.08-.59,.08-.83,0-13,0-26.01,.02-39.01,0-.84-.3-1.13-1.12-1.1-1.18,.05-2.36,.01-3.58,.01v-9.2H119.34v9.2c-1.13,0-2.16,0-3.2,0-1.57,0-1.58,0-1.58,1.56,0,12.65,0,25.29,0,37.94v1.53h12.78c0,.52,0,.91,0,1.3,0,14.56-.02,29.12,.03,43.68,0,1.29-.43,1.49-1.57,1.49-36.55-.02-73.11-.02-109.66-.02-1.63,0-1.62,0-1.64-1.67-.04-2.51-.1-5.01-.15-7.52ZM78,36.98v35.64h27.55V36.98h-27.55Zm-41.76,0v35.62h27.64V36.99h-27.64Zm16.84,39.74v29.19h35.71v-29.19H53.09Zm70.28,29.29v-29.3h-30.64c-.02,.56-.06,.99-.06,1.42,0,8.81,.02,17.63-.03,26.44,0,1.16,.33,1.47,1.47,1.46,9.34-.04,18.67-.02,28.01-.02h1.25Zm-74.3-.07v-29.26H18.46v29.26h30.61Zm74.32,4.07H18.47v5.22H123.39v-5.22Zm-8.03-82.16c.39-1.51,.3-1.65-1.14-1.65-28.85,0-57.7,0-86.55,0-1.48,0-1.55,.11-1.18,1.65H115.36Zm-4.72,44.74V31.92h-37.76c0,.63,0,1.14,0,1.65,0,12.44,0,24.89,0,37.33,0,.32,.02,.64,0,.96-.03,.88,.38,1,1.16,.68,0-.49,0-.97,0-1.44,0-12.16,0-24.33,0-36.49,0-1.53,0-1.54,1.58-1.54,10.45,0,20.91,0,31.36,0,2.86,0,2.42-.3,2.43,2.39,.02,11.97,0,23.93,0,35.9,0,.74-.18,1.66,1.21,1.25Zm-79.49-.03c1.25,.44,1.22-.3,1.22-1.08,0-12.29,0-24.58,0-36.86,0-1.56,0-1.56,1.57-1.56,10.74,0,21.47,0,32.21,0,1.62,0,1.62,0,1.62,1.65,0,12.09,0,24.18,0,36.27,0,.4-.06,.82,.04,1.19,.06,.22,.38,.46,.61,.5,.15,.03,.44-.26,.52-.46,.1-.24,.04-.55,.04-.83,0-12.73,0-25.45,0-38.18,0-.42-.05-.84-.08-1.3H31.15v40.68Z"/>
  <path class="cls-1" d="M99.87,65.76c.03-1.1,.81-1.83,1.92-1.78,1.03,.04,1.88,.95,1.83,1.95-.05,1.02-.94,1.81-1.99,1.78-1.11-.04-1.79-.78-1.76-1.94Z"/>
  <path class="cls-1" d="M61.76,65.86c0,1.09-.79,1.86-1.88,1.85-1.07-.01-1.88-.83-1.88-1.88,0-1.04,.83-1.85,1.91-1.85,1.08,0,1.86,.79,1.85,1.88Z"/>
  <path class="cls-1" d="M81.8,91.4c-2.68-2.68-5.41-5.4-8.2-8.19,.84-.74,1.75-1.55,2.55-2.26,2.58,2.59,5.32,5.34,8.07,8.1-.68,.66-1.59,1.53-2.42,2.34Z"/>
  <path class="cls-1" d="M81.76,79.31c1.29,1.29,2.71,2.71,4.2,4.2-.8,.73-1.69,1.55-2.48,2.27-1.34-1.32-2.76-2.74-4.19-4.15,.72-.68,1.63-1.53,2.47-2.33Z"/>
  <path class="cls-1" d="M119.19,89.01c-.77,.75-1.64,1.61-2.45,2.39-2.74-2.74-5.48-5.48-8.26-8.26,.8-.75,1.69-1.6,2.55-2.41,2.68,2.72,5.4,5.48,8.15,8.27Z"/>
  <path class="cls-1" d="M120.83,83.53c-.79,.78-1.65,1.63-2.45,2.41-1.44-1.46-2.88-2.92-4.33-4.39,.77-.7,1.69-1.54,2.51-2.29,1.34,1.34,2.79,2.79,4.27,4.27Z"/>
  <path class="cls-1" d="M45.41,89.08c-.72,.71-1.58,1.56-2.41,2.38-2.69-2.72-5.4-5.45-8.17-8.24,.81-.71,1.73-1.51,2.55-2.22,2.54,2.55,5.27,5.3,8.03,8.08Z"/>
  <path class="cls-1" d="M42.91,79.1c1.44,1.44,2.84,2.84,4.22,4.22-.86,.85-1.75,1.72-2.58,2.55-1.36-1.35-2.78-2.77-4.26-4.24,.83-.8,1.71-1.65,2.62-2.52Z"/>
</svg>