<svg id="svg" version="1.1" xmlns="http://www.w3.org/2000/svg" xmlns:xlink="http://www.w3.org/1999/xlink" width="400" height="400" viewBox="0, 0, 400,400"><g id="svgg"><path id="path0" d="M150.000 4.821 C -77.117 67.791,-35.119 398.249,200.000 398.249 C 402.296 398.249,478.068 131.749,305.126 28.509 C 261.578 2.512,194.997 -7.655,150.000 4.821 M198.436 91.721 L 203.297 108.441 218.144 107.014 C 254.466 103.524,282.253 138.706,263.885 164.930 C 259.320 171.448,259.425 171.875,265.603 171.875 C 315.959 171.875,313.290 247.230,262.210 267.668 L 250.449 272.374 254.878 286.968 C 260.993 307.116,260.791 307.892,248.441 311.682 C 236.075 315.477,236.726 316.070,231.326 296.094 C 228.415 285.327,225.758 281.250,221.653 281.250 C 213.131 281.250,212.349 284.966,217.362 301.624 C 222.427 318.451,221.578 320.293,207.384 323.279 C 197.743 325.307,197.518 325.080,193.789 309.536 C 189.003 289.588,189.281 289.712,165.517 296.908 C 142.221 303.961,144.556 304.902,143.348 287.975 C 142.441 275.268,143.031 274.113,152.439 270.157 C 164.962 264.892,165.070 267.114,149.645 212.611 C 134.279 158.316,134.217 158.220,116.585 160.864 C 108.869 162.022,103.125 161.634,103.125 159.957 C 103.125 158.348,102.285 152.830,101.258 147.695 C 99.414 138.474,99.645 138.290,120.008 132.778 C 141.749 126.893,142.171 126.476,137.958 115.047 C 130.835 95.728,130.977 91.371,138.796 89.409 C 142.920 88.374,148.373 86.729,150.913 85.754 C 154.364 84.430,156.493 87.988,159.330 99.813 C 163.506 117.218,165.618 119.756,173.435 116.756 C 177.250 115.292,178.176 112.514,176.821 106.590 C 170.018 76.827,169.670 77.664,189.756 75.426 C 191.857 75.192,195.763 82.524,198.436 91.721 M182.031 143.847 C 173.686 147.202,173.556 148.760,179.834 170.353 C 185.190 188.778,187.848 189.311,212.037 176.802 C 245.379 159.560,217.933 129.416,182.031 143.847 M202.945 207.271 L 191.827 210.938 198.257 233.169 L 204.688 255.401 217.188 251.663 C 244.202 243.585,256.250 233.646,256.250 219.440 C 256.250 204.383,229.926 198.374,202.945 207.271 " stroke="none" fill="#000000" fill-rule="evenodd"></path></g></svg>