<?xml version="1.0" encoding="UTF-8"?>
<svg id="Layer_1" data-name="Layer 1" xmlns="http://www.w3.org/2000/svg" viewBox="0 0 141.73 141.73">
  <defs>
    <style>
      .cls-1 {
        fill: #53575a;
      }

      .cls-2 {
        fill: #54575a;
      }
    </style>
  </defs>
  <path class="cls-2" d="M118.29,116.89h-50.98c-5.17,0-9.38-4.21-9.38-9.38,0-2.52,2.05-4.57,4.57-4.57h60.61c2.52,0,4.57,2.05,4.57,4.57,0,5.17-4.21,9.38-9.38,9.38Zm-54.99-8.65c.35,1.9,2.02,3.35,4.01,3.35h50.98c2,0,3.67-1.45,4.02-3.35H63.3Z"/>
  <path class="cls-2" d="M64.9,99.57H24.24c-5.62,0-10.19-4.57-10.19-10.19,0-1.28,.5-2.48,1.4-3.39,.91-.91,2.12-1.41,3.4-1.41H63.77v5.3H19.38c.25,2.46,2.34,4.39,4.86,4.39h40.66v5.3Z"/>
  <path class="cls-2" d="M99.27,108.24h-21.27c-9.31,0-16.88-7.57-16.88-16.88v-26.84c0-2.61,2.12-4.73,4.73-4.73h45.56c2.61,0,4.73,2.12,4.73,4.73v26.84c0,9.31-7.57,16.88-16.88,16.88Zm-32.85-43.15v26.27c0,6.38,5.19,11.58,11.58,11.58h21.27c6.38,0,11.58-5.19,11.58-11.58v-26.27h-44.43Z"/>
  <path class="cls-2" d="M118.8,91.2h-5.3v-5.3h5.3c1.97,0,3.57-1.6,3.57-3.56v-6.9c0-1.97-1.6-3.57-3.57-3.57h-5.3v-5.3h5.3c4.89,0,8.87,3.98,8.87,8.87v6.9c0,4.89-3.98,8.86-8.87,8.86Z"/>
  <path class="cls-2" d="M63.77,89.88h-19.81c-2.86,0-5.43-1.48-6.85-3.95-1.43-2.48-1.42-5.43,0-7.91l21.36-37.02c.3-.53,.67-1.03,1.13-1.5,1.65-1.77,4.15-2.68,6.63-2.4,2.51,.29,4.67,1.71,5.94,3.9l11.62,20.12-4.59,2.65-11.62-20.12c-.57-.99-1.46-1.23-1.95-1.28-.82-.1-1.64,.2-2.19,.78-.18,.19-.29,.33-.38,.48l-3.07,5.33-18.3,31.7c-.68,1.18-.23,2.22,0,2.61,.23,.39,.9,1.3,2.26,1.3h19.81v5.3Z"/>
  <path class="cls-2" d="M43.96,89.88h-7.63c-2.86,0-5.42-1.48-6.85-3.96-1.43-2.48-1.43-5.43,0-7.91l21.37-37.02c.3-.53,.68-1.04,1.13-1.5,1.43-1.54,3.53-2.46,5.71-2.46h0c2.19,0,4.28,.92,5.75,2.51l1.69,1.84-1.74,1.8c-.14,.14-.25,.29-.34,.45l-21.37,37.04c-.68,1.18-.23,2.22,0,2.61,.23,.39,.9,1.3,2.26,1.3v5.3Zm13.74-47.54c-.72,0-1.39,.29-1.86,.8-.18,.19-.29,.33-.38,.49l-21.38,37.04c-.68,1.17-.23,2.21,0,2.61,.23,.39,.9,1.31,2.26,1.31h.16c-.76-2.16-.56-4.52,.62-6.56l20.59-35.68Z"/>
  <path class="cls-2" d="M36.34,89.88h-7.62c-2.86,0-5.42-1.48-6.85-3.95-1.43-2.48-1.43-5.43,0-7.91l21.38-37.03c1.28-2.2,3.45-3.62,5.96-3.9,2.47-.27,4.97,.64,6.64,2.45l1.7,1.84-1.75,1.8c-.14,.14-.25,.29-.34,.45l-21.38,37.04c-.68,1.17-.23,2.21,0,2.6,.23,.39,.9,1.31,2.26,1.31v5.3Zm13.75-47.54c-.1,0-.2,0-.3,.02-.48,.05-1.38,.29-1.96,1.29l-21.37,37.02c-.68,1.17-.22,2.21,0,2.61,.23,.39,.9,1.3,2.26,1.3h.15c-.77-2.16-.56-4.52,.62-6.56l20.6-35.67h0Z"/>
  <path class="cls-2" d="M83.52,35.9c.95,2.71,.26,5.45-.29,8.18-.62,3.08-1.05,6.33,.1,9.35,.44,1.15,1.53,1.94,2.8,1.59,1.1-.3,2.03-1.64,1.59-2.8-1.03-2.71-.4-5.45,.16-8.2,.63-3.08,1.1-6.29,.03-9.33-.41-1.16-1.55-1.93-2.8-1.59-1.12,.31-2,1.63-1.59,2.8h0Z"/>
  <path class="cls-1" d="M92.55,27.72c.95,2.71,.26,5.45-.29,8.18-.62,3.08-1.05,6.33,.1,9.35,.44,1.15,1.53,1.94,2.8,1.59,1.1-.3,2.03-1.64,1.59-2.8-1.03-2.71-.4-5.45,.16-8.2,.63-3.08,1.1-6.29,.03-9.33-.41-1.16-1.55-1.93-2.8-1.59-1.12,.31-2,1.63-1.59,2.8h0Z"/>
  <path class="cls-1" d="M100.51,36.76c.95,2.71,.26,5.45-.29,8.18-.62,3.08-1.05,6.33,.1,9.35,.44,1.15,1.53,1.94,2.8,1.59,1.1-.3,2.03-1.64,1.59-2.8-1.03-2.71-.4-5.45,.16-8.2,.63-3.08,1.1-6.29,.03-9.33-.41-1.16-1.55-1.93-2.8-1.59-1.12,.31-2,1.63-1.59,2.8h0Z"/>
  <polygon class="cls-2" points="54.15 71.27 51.5 71.27 51.46 65.93 56.8 65.88 56.84 71.23 54.15 71.27"/>
  <polygon class="cls-2" points="56.15 81.27 53.5 81.27 53.46 75.93 58.8 75.88 58.84 81.23 56.15 81.27"/>
  <polygon class="cls-2" points="62.72 57.55 60.07 57.55 60.02 52.21 65.37 52.16 65.41 57.51 62.72 57.55"/>
  <polygon class="cls-2" points="71.82 61.8 69.17 61.8 69.12 56.46 74.47 56.41 74.51 61.76 71.82 61.8"/>
</svg>