<svg xmlns="http://www.w3.org/2000/svg" width="512" height="512"><path d="M304 384v-24c0-29 31.54-56.43 52-76 28.84-27.57 44-64.61 44-108 0-80-63.73-144-144-144a143.6 143.6 0 00-144 144c0 41.84 15.81 81.39 44 108 20.35 19.21 52 46.7 52 76v24m16 96h64m-80-48h96m-48-48V256" fill="none" stroke="#000" stroke-linecap="round" stroke-linejoin="round" stroke-width="32"/><path d="M294 240s-21.51 16-38 16-38-16-38-16" fill="none" stroke="#000" stroke-linecap="round" stroke-linejoin="round" stroke-width="32"/></svg>