<svg xmlns="http://www.w3.org/2000/svg" width="512" height="512"><path d="M416 64h-16V48.45c0-8.61-6.62-16-15.23-16.43A16 16 0 00368 48v16H144V48.45c0-8.61-6.62-16-15.23-16.43A16 16 0 00112 48v16H96a64 64 0 00-64 64v288a64 64 0 0064 64h320a64 64 0 0064-64V128a64 64 0 00-64-64zM136 416a24 24 0 1124-24 24 24 0 01-24 24zm0-80a24 24 0 1124-24 24 24 0 01-24 24zm80 80a24 24 0 1124-24 24 24 0 01-24 24zm0-80a24 24 0 1124-24 24 24 0 01-24 24zm80 80a24 24 0 1124-24 24 24 0 01-24 24zm0-80a24 24 0 1124-24 24 24 0 01-24 24zm0-80a24 24 0 1124-24 24 24 0 01-24 24zm80 80a24 24 0 1124-24 24 24 0 01-24 24zm0-80a24 24 0 1124-24 24 24 0 01-24 24zm72-120v16a8 8 0 01-8 8H72a8 8 0 01-8-8v-24a32.09 32.09 0 0132-32h320a32.09 32.09 0 0132 32z"/></svg>