<svg xmlns="http://www.w3.org/2000/svg" viewBox="0 0 512 512"><path d="M32,456a24,24,0,0,0,24,24H456a24,24,0,0,0,24-24V176H32ZM352,212a4,4,0,0,1,4-4h40a4,4,0,0,1,4,4v40a4,4,0,0,1-4,4H356a4,4,0,0,1-4-4Zm0,80a4,4,0,0,1,4-4h40a4,4,0,0,1,4,4v40a4,4,0,0,1-4,4H356a4,4,0,0,1-4-4Zm-80-80a4,4,0,0,1,4-4h40a4,4,0,0,1,4,4v40a4,4,0,0,1-4,4H276a4,4,0,0,1-4-4Zm0,80a4,4,0,0,1,4-4h40a4,4,0,0,1,4,4v40a4,4,0,0,1-4,4H276a4,4,0,0,1-4-4Zm0,80a4,4,0,0,1,4-4h40a4,4,0,0,1,4,4v40a4,4,0,0,1-4,4H276a4,4,0,0,1-4-4Zm-80-80a4,4,0,0,1,4-4h40a4,4,0,0,1,4,4v40a4,4,0,0,1-4,4H196a4,4,0,0,1-4-4Zm0,80a4,4,0,0,1,4-4h40a4,4,0,0,1,4,4v40a4,4,0,0,1-4,4H196a4,4,0,0,1-4-4Zm-80-80a4,4,0,0,1,4-4h40a4,4,0,0,1,4,4v40a4,4,0,0,1-4,4H116a4,4,0,0,1-4-4Zm0,80a4,4,0,0,1,4-4h40a4,4,0,0,1,4,4v40a4,4,0,0,1-4,4H116a4,4,0,0,1-4-4Z"/><path d="M456,64H400.08V32h-48V64H159.92V32h-48V64H56A23.8,23.8,0,0,0,32,87.77V144H480V87.77A23.8,23.8,0,0,0,456,64Z"/></svg>