<svg id="icons" xmlns="http://www.w3.org/2000/svg" viewBox="0 0 512 512"><path d="M416,64H400V48.45c0-8.61-6.62-16-15.23-16.43A16,16,0,0,0,368,48V64H144V48.45c0-8.61-6.62-16-15.23-16.43A16,16,0,0,0,112,48V64H96a64,64,0,0,0-64,64v12a4,4,0,0,0,4,4H476a4,4,0,0,0,4-4V128A64,64,0,0,0,416,64Z"/><path d="M476,176H36a4,4,0,0,0-4,4V416a64,64,0,0,0,64,64H416a64,64,0,0,0,64-64V180A4,4,0,0,0,476,176ZM239.58,401.1c-12.17,9.61-28.75,14.9-46.7,14.9-27.87,0-48.48-18.16-57.66-33.7A16,16,0,0,1,162.78,366c1.08,1.84,11.15,18,30.1,18,16.66,0,36.12-7.29,36.12-27.82,0-6.25-1.22-14.95-7-20.88-8.54-8.74-22.75-12.67-30.11-12.67a16,16,0,0,1,0-32c4.85,0,17.41-2.6,25.28-10.65a22,22,0,0,0,6.57-16.08c0-23.23-28.63-23.9-31.89-23.9-17.34,0-23.8,10.61-24.07,11.06a16,16,0,1,1-27.55-16.26c7.64-13,25.22-26.8,51.62-26.8,16.44,0,31.76,4.77,43.13,13.42,13.39,10.2,20.76,25.28,20.76,42.48A54,54,0,0,1,240,302.35c-1.15,1.18-2.36,2.28-3.59,3.35a66.18,66.18,0,0,1,8.42,7.23c10.56,10.8,16.14,25.75,16.14,43.25C261,374.24,253.39,390.19,239.58,401.1ZM368,396a16,16,0,0,1-32,0V256.29l-22.51,16.59a16,16,0,1,1-19-25.76l43.42-32a16,16,0,0,1,9.49-3.12H352a16,16,0,0,1,16,16Z"/></svg>