<svg viewBox="0 0 512 512" xmlns="http://www.w3.org/2000/svg">
  <path fill-rule="evenodd" clip-rule="evenodd" d="M117.863 223.718C109.182 213.702 110.265 198.544 120.282 189.863L240.282 85.8635C249.302 78.0455 262.698 78.0455 271.718 85.8635L391.718 189.863C401.735 198.544 402.818 213.702 394.137 223.718C385.456 233.735 370.298 234.818 360.282 226.137L256 135.759L151.718 226.137C141.702 234.818 126.544 233.735 117.863 223.718Z" fill="black"/>
  <path fill-rule="evenodd" clip-rule="evenodd" d="M117.863 288.282C109.182 298.298 110.265 313.456 120.282 322.137L240.282 426.137C249.302 433.954 262.698 433.954 271.718 426.137L391.718 322.137C401.735 313.456 402.818 298.298 394.137 288.282C385.456 278.265 370.298 277.182 360.282 285.863L256 376.241L151.718 285.863C141.702 277.182 126.544 278.265 117.863 288.282Z" fill="black"/>
</svg>
