<?xml version="1.0" encoding="UTF-8"?>
<svg id="Layer_1" data-name="Layer 1" xmlns="http://www.w3.org/2000/svg" xmlns:xlink="http://www.w3.org/1999/xlink" viewBox="0 0 141.73 141.73">
  <defs>
    <style>
      .cls-1 {
        fill: none;
      }

      .cls-2 {
        clip-path: url(#clippath);
      }

      .cls-3 {
        fill: #555759;
      }

      .cls-4 {
        clip-path: url(#clippath-1);
      }
    </style>
    <clipPath id="clippath">
      <rect class="cls-1" x="3.92" y="0" width="141.73" height="141.73"/>
    </clipPath>
    <clipPath id="clippath-1">
      <rect class="cls-1" x="3.92" y="0" width="141.73" height="141.73"/>
    </clipPath>
  </defs>
  <g class="cls-2">
    <g class="cls-4">
      <path class="cls-3" d="M108.01,14.17H41.57c-11.75,0-21.31,9.56-21.31,21.31v59.89c0,11.66,9.42,21.16,21.05,21.3l-5.37,5.37c-1.26,1.26-1.26,3.31,0,4.57,1.23,1.22,3.36,1.22,4.57,0l9.92-9.92h48.73l9.92,9.92c.61,.61,1.42,.95,2.28,.95s1.67-.34,2.28-.95c1.26-1.26,1.26-3.31,0-4.57l-5.37-5.37c11.63-.14,21.05-9.64,21.05-21.3V35.49c0-11.75-9.56-21.31-21.31-21.31m14.58,81.2c0,8.04-6.54,14.58-14.58,14.58H41.57c-8.04,0-14.58-6.54-14.58-14.58V35.49c0-8.04,6.54-14.58,14.58-14.58H108.01c8.04,0,14.58,6.54,14.58,14.58v59.89Z"/>
      <path class="cls-3" d="M95.28,26.09H54.3c-11.75,0-21.31,9.56-21.31,21.31v36.05c0,11.75,9.56,21.31,21.31,21.31h40.98c11.75,0,21.31-9.56,21.31-21.31V47.41c0-11.75-9.56-21.31-21.31-21.31m14.58,57.36c0,8.04-6.54,14.58-14.58,14.58H54.3c-8.04,0-14.58-6.54-14.58-14.58V47.41c0-8.04,6.54-14.58,14.58-14.58h40.98c8.04,0,14.58,6.54,14.58,14.58v36.05Z"/>
      <path class="cls-3" d="M74.79,41.43c-13.24,0-24.01,10.77-24.01,24s10.77,24.01,24.01,24.01,24.01-10.77,24.01-24.01-10.77-24-24.01-24m-18.3,25.87h3.02c1.24,0,2.24-1,2.24-2.24s-1-2.24-2.24-2.24h-2.91c.49-3.41,1.9-6.53,3.99-9.07l2.12,2.12c.44,.44,1.01,.66,1.59,.66s1.15-.22,1.59-.66c.88-.88,.88-2.3,0-3.17l-2.02-2.02c2.49-1.85,5.45-3.08,8.68-3.48v2.9c0,1.24,1,2.24,2.24,2.24s2.24-1,2.24-2.24v-2.9c3.4,.42,6.52,1.77,9.09,3.79l-2.14,2.14c-.88,.88-.88,2.3,0,3.17,.44,.44,1.01,.66,1.59,.66s1.15-.22,1.59-.66l2.14-2.14c1.92,2.46,3.22,5.42,3.68,8.66h-2.97c-1.24,0-2.24,1-2.24,2.24s1,2.24,2.24,2.24h3.09c-.34,3.38-1.61,6.47-3.54,9.06l-2.11-2.11c-.88-.88-2.3-.88-3.17,0-.88,.88-.88,2.3,0,3.17l2.21,2.21c-2.64,2.17-5.89,3.62-9.45,4.05v-2.8c0-1.24-1-2.24-2.24-2.24s-2.24,1-2.24,2.24v2.8c-3.38-.41-6.47-1.75-9.03-3.74l2.08-2.08c.88-.88,.88-2.3,0-3.17-.88-.88-2.3-.88-3.17,0l-2.09,2.09c-2.1-2.67-3.49-5.92-3.84-9.47"/>
      <path class="cls-3" d="M74.79,74.55c5.03,0,9.12-4.09,9.12-9.12s-4.09-9.12-9.12-9.12-9.12,4.09-9.12,9.12,4.09,9.12,9.12,9.12m0-13.75c2.55,0,4.63,2.08,4.63,4.63s-2.08,4.63-4.63,4.63-4.63-2.08-4.63-4.63,2.08-4.63,4.63-4.63"/>
    </g>
  </g>
</svg>