<svg xmlns="http://www.w3.org/2000/svg" viewBox="0 0 512 512"><path fill="none" stroke="#000" stroke-linecap="round" stroke-linejoin="round" stroke-width="32" d="M448,341.37V170.61A32,32,0,0,0,432.11,143l-152-88.46a47.94,47.94,0,0,0-48.24,0L79.89,143A32,32,0,0,0,64,170.61V341.37A32,32,0,0,0,79.89,369l152,88.46a48,48,0,0,0,48.24,0l152-88.46A32,32,0,0,0,448,341.37Z"/><polyline fill="none" stroke="#000" stroke-linecap="round" stroke-linejoin="round" stroke-width="32" points="69 153.99 256 263.99 443 153.99"/><line fill="none" stroke="#000" stroke-linecap="round" stroke-linejoin="round" stroke-width="32" x1="256" y1="463.99" x2="256" y2="263.99"/><ellipse cx="256" cy="152" rx="24" ry="16"/><ellipse cx="208" cy="296" rx="16" ry="24"/><ellipse cx="112" cy="328" rx="16" ry="24"/><ellipse cx="304" cy="296" rx="16" ry="24"/><ellipse cx="400" cy="240" rx="16" ry="24"/><ellipse cx="304" cy="384" rx="16" ry="24"/><ellipse cx="400" cy="328" rx="16" ry="24"/></svg>