<?xml version="1.0" encoding="UTF-8"?>
<svg id="Layer_1" data-name="Layer 1" xmlns="http://www.w3.org/2000/svg" viewBox="0 0 141.73 141.73">
  <defs>
    <style>
      .cls-1 {
        stroke-width: 3px;
      }

      .cls-1, .cls-2 {
        stroke: #565859;
      }

      .cls-1, .cls-2, .cls-3 {
        fill: none;
        stroke-miterlimit: 10;
      }

      .cls-2, .cls-3 {
        stroke-width: 4px;
      }

      .cls-3 {
        stroke: #555759;
      }
    </style>
  </defs>
  <g>
    <g>
      <path class="cls-3" d="M91.88,77.85h33.88s0-6.02,0-6.02h-27.86c-3.33,0-6.02,2.7-6.02,6.02Z"/>
      <path class="cls-3" d="M119.74,47.95v23.87s6.02,0,6.02,0v-29.89c-3.33,0-6.02,2.7-6.02,6.02Z"/>
      <polygon class="cls-2" points="116.77 77.85 119.24 101.04 125.3 101.04 122.83 77.85 116.77 77.85"/>
      <polygon class="cls-2" points="96.75 101.04 102.81 101.04 105.28 77.85 99.22 77.85 96.75 101.04"/>
    </g>
    <g>
      <path class="cls-3" d="M49.85,77.85H15.97v-6.02h27.86c3.33,0,6.02,2.7,6.02,6.02Z"/>
      <path class="cls-3" d="M21.99,47.95v23.87h-6.02v-29.89c3.33,0,6.02,2.7,6.02,6.02Z"/>
      <polygon class="cls-2" points="24.96 77.85 22.49 101.04 16.43 101.04 18.9 77.85 24.96 77.85"/>
      <polygon class="cls-2" points="44.98 101.04 38.92 101.04 36.45 77.85 42.51 77.85 44.98 101.04"/>
    </g>
    <g>
      <path class="cls-2" d="M73.6,63.93v37.12h-5.27V63.93c.84,.2,1.73,.3,2.63,.3s1.8-.1,2.64-.3Z"/>
      <path class="cls-2" d="M104.11,50.13v7.72c-.04,.09-.09,.19-.13,.28-1.94,3.59-5.74,6.03-10.1,6.03s-8.16-2.44-10.09-6.03h-2.65c-1.54,2.89-4.27,5.03-7.54,5.8-.84,.2-1.73,.3-2.64,.3s-1.79-.1-2.63-.3c-3.27-.76-6-2.91-7.54-5.8h-2.64c-1.94,3.59-5.74,6.03-10.1,6.03s-8.16-2.44-10.09-6.03c-.06-.09-.1-.19-.15-.28v-7.72H104.11Z"/>
      <line class="cls-3" x1="51.24" y1="101.04" x2="90.68" y2="101.04"/>
    </g>
  </g>
  <g>
    <g>
      <path class="cls-2" d="M45.88,40.69h3.86v2.13c0,.96-.78,1.73-1.73,1.73h-.4c-.96,0-1.73-.78-1.73-1.73v-2.13h0Z"/>
      <line class="cls-1" x1="47.82" y1="44.17" x2="47.82" y2="49.61"/>
    </g>
    <g>
      <path class="cls-2" d="M92.18,40.69h3.86v2.13c0,.96-.78,1.73-1.73,1.73h-.4c-.96,0-1.73-.78-1.73-1.73v-2.13h0Z"/>
      <line class="cls-1" x1="94.11" y1="44.17" x2="94.11" y2="49.61"/>
    </g>
  </g>
</svg>