<svg xmlns="http://www.w3.org/2000/svg" viewBox="0 0 512 512"><path fill="none" stroke="#000" stroke-linejoin="round" stroke-width="32" stroke-linecap="round" d="M288,304V286c0-16.63-14.26-30-32-30s-32,13.37-32,30v18"/><rect strke="#000" stroke-linejoin="round" stroke-width="32" stroke-linecap="round" x="192" y="320" width="128" height="80" rx="16"/><path fill="none" stroke="#000" stroke-linejoin="round" stroke-width="32" d="M416,221.25V416a48,48,0,0,1-48,48H144a48,48,0,0,1-48-48V96a48,48,0,0,1,48-48h98.75a32,32,0,0,1,22.62,9.37L406.63,198.63A32,32,0,0,1,416,221.25Z"/><path fill="none" stroke="#000" stroke-linejoin="round" stroke-width="32" stroke-linecap="round" d="M256,50.88V176a32,32,0,0,0,32,32H413.12"/></svg>