<?xml version="1.0" encoding="UTF-8"?>
<svg id="Layer_1" data-name="Layer 1" xmlns="http://www.w3.org/2000/svg" viewBox="0 0 141.73 141.73">
  <defs>
    <style>
      .cls-1 {
        fill: #53575a;
      }
    </style>
  </defs>
  <path class="cls-1" d="M29.45,53.5H112.28V26.23H29.45v27.27Zm77.53-5.3H34.75V31.53H106.98v16.67Z"/>
  <path class="cls-1" d="M99.56,62.75h0c0,1.46,1.19,2.65,2.65,2.65h4.77v50.96c0,3.12-3.8,5.76-8.3,5.76H43.06c-4.5,0-8.31-2.64-8.31-5.76v-50.96h54.58c1.46,0,2.65-1.19,2.65-2.65s-1.19-2.65-2.65-2.65H29.45v56.26c0,6.1,6.11,11.06,13.61,11.06h55.62c7.5,0,13.6-4.96,13.6-11.06V60.09h-10.07c-1.46,0-2.65,1.19-2.65,2.65"/>
  <path class="cls-1" d="M113.25,14.32H28.49c-3.5,0-6.34,2.84-6.34,6.33v4.54c0,3.49,2.84,6.34,6.34,6.34H113.25c3.5,0,6.33-2.83,6.33-6.33v-4.55c0-3.5-2.83-6.33-6.33-6.33m1.03,10.87c0,.57-.47,1.04-1.04,1.04H28.49c-.57,0-1.04-.47-1.04-1.04v-4.54c0-.57,.46-1.03,1.03-1.03H113.25c.57,0,1.03,.46,1.03,1.03v4.54Z"/>
  <path class="cls-1" d="M29.45,48.2v17.2h59.88c1.46,0,2.65-1.19,2.65-2.65s-1.19-2.65-2.65-2.65H34.75v-6.6H106.98v6.6h-4.77c-1.46,0-2.65,1.19-2.65,2.65s1.19,2.65,2.65,2.65h10.07v-17.2H29.45Z"/>
  <path class="cls-1" d="M63.97,26.23h-18.73c-2.53,0-4.58,2.05-4.58,4.58v9.47c0,2.52,2.06,4.58,4.58,4.58h18.73c2.52,0,4.58-2.06,4.58-4.58v-9.47c0-2.53-2.05-4.58-4.58-4.58m-.72,13.33h-17.29v-8.03h17.29v8.03Z"/>
  <path class="cls-1" d="M96.49,26.23h-18.73c-2.53,0-4.58,2.05-4.58,4.58v9.47c0,2.52,2.06,4.58,4.58,4.58h18.73c2.52,0,4.58-2.06,4.58-4.58v-9.47c0-2.53-2.05-4.58-4.58-4.58m-.72,13.33h-17.29v-8.03h17.29v8.03Z"/>
</svg>