<?xml version="1.0" encoding="UTF-8"?>
<svg id="Layer_1" data-name="Layer 1" xmlns="http://www.w3.org/2000/svg" viewBox="0 0 141.73 141.73">
  <defs>
    <style>
      .cls-1 {
        fill: #53575a;
      }
    </style>
  </defs>
  <path class="cls-1" d="M38.46,53.5H103.28V26.23H38.46v27.27Zm59.52-5.3H43.76V31.53h54.22v16.67Z"/>
  <g>
    <path class="cls-1" d="M90.39,62.74h0c0,1.46,1.19,2.65,2.65,2.65h4.93v50.96c0,3.18-2.58,5.76-5.76,5.76H49.51c-3.18,0-5.76-2.58-5.76-5.76v-50.96h-5.3v50.96c0,6.11,4.95,11.06,11.06,11.06h42.7c6.11,0,11.06-4.95,11.06-11.06V60.09h-10.23c-1.46,0-2.65,1.19-2.65,2.65"/>
    <path class="cls-1" d="M104.43,14.32H37.29c-3.29,0-5.95,2.66-5.95,5.95v5.31c0,3.29,2.66,5.95,5.95,5.95H104.43c3.29,0,5.95-2.66,5.95-5.95v-5.31c0-3.29-2.66-5.95-5.95-5.95m.65,11.26c0,.36-.29,.65-.65,.65H37.29c-.36,0-.65-.29-.65-.65v-5.31c0-.36,.29-.65,.65-.65H104.43c.36,0,.65,.29,.65,.65v5.31Z"/>
    <path class="cls-1" d="M38.46,48.19v11.9h5.3v-6.6h54.22v6.6h-4.93c-1.46,0-2.65,1.19-2.65,2.65s1.19,2.65,2.65,2.65h10.23v-17.2H38.46Z"/>
    <path class="cls-1" d="M82.82,62.74h0c0,1.46-1.19,2.65-2.65,2.65H38.45v-5.3h41.72c1.46,0,2.65,1.19,2.65,2.65"/>
    <path class="cls-1" d="M80.23,26.23h-18.72c-2.53,0-4.58,2.05-4.58,4.58v9.47c0,2.53,2.05,4.58,4.58,4.58h18.72c2.53,0,4.58-2.05,4.58-4.58v-9.47c0-2.53-2.05-4.58-4.58-4.58m-.72,13.33h-17.28v-8.03h17.28v8.03Z"/>
  </g>
</svg>