<svg xmlns="http://www.w3.org/2000/svg" width="512" height="512"><path d="M48 336v96a48.14 48.14 0 0048 48h320a48.14 48.14 0 0048-48v-96" fill="none" stroke="#000" stroke-linejoin="round" stroke-width="32"/><path fill="none" stroke="#000" stroke-linecap="round" stroke-linejoin="round" stroke-width="32" d="M48 336h144m128 0h144m-272 0a64 64 0 00128 0"/><path d="M384 32H128c-26 0-43 14-48 40L48 192v96a48.14 48.14 0 0048 48h320a48.14 48.14 0 0048-48v-96L432 72c-5-27-23-40-48-40z" fill="none" stroke="#000" stroke-linejoin="round" stroke-width="32"/><path fill="none" stroke="#000" stroke-linecap="round" stroke-linejoin="round" stroke-width="32" d="M48 192h144m128 0h144m-272 0a64 64 0 00128 0"/></svg>