<?xml version="1.0" encoding="UTF-8"?>
<svg id="Layer_1" data-name="Layer 1" xmlns="http://www.w3.org/2000/svg" viewBox="0 0 141.73 141.73">
  <defs>
    <style>
      .cls-1 {
        fill: #555759;
      }

      .cls-2 {
        fill: none;
        stroke: #555759;
        stroke-miterlimit: 10;
        stroke-width: 4px;
      }
    </style>
  </defs>
  <path class="cls-2" d="M106.56,54.96c0,16.07-10.16,29.76-24.42,35-4.01,1.48-8.34,2.28-12.86,2.28s-8.85-.8-12.85-2.28c-14.25-5.23-24.42-18.93-24.42-35,0-20.58,16.69-37.27,37.27-37.27s37.28,16.69,37.28,37.27Z"/>
  <path class="cls-1" d="M111.72,37.43l-1.9,1.53-1.37,1.1c.66,1.73,1.21,3.52,1.64,5.35l3.43-2.75c-.5-1.79-1.1-3.54-1.8-5.23Zm-10.55-15.46c-.69-.67-1.4-1.32-2.14-1.94-1.8-1.54-3.73-2.94-5.76-4.19l-3.33,2.68c2.09,1.19,4.07,2.55,5.92,4.07,.74,.61,1.46,1.24,2.16,1.91,3.97,3.73,7.2,8.23,9.48,13.26l.62-.5,2.58-2.08c-2.37-4.97-5.62-9.43-9.53-13.21ZM29.27,67.36l-3.32,2.68c.79,2.25,1.74,4.44,2.86,6.53l.05-.04,3.13-2.52c-1.09-2.13-2-4.35-2.72-6.65Zm17.08,22.68c-.69-.45-1.37-.93-2.03-1.43-4.41-3.28-8.12-7.4-10.93-12.08l-2.5,2.02-.64,.51c2.86,4.64,6.53,8.76,10.86,12.13,.65,.51,1.31,1,1.99,1.47,1.51,1.05,3.08,2.01,4.72,2.88l3.41-2.75c-1.7-.81-3.33-1.73-4.88-2.75Z"/>
  <circle class="cls-1" cx="69.29" cy="54.96" r="8.12"/>
  <path class="cls-2" d="M97.78,107.43v13.19c0,2.9-2.37,5.27-5.26,5.27H46.05c-2.89,0-5.26-2.37-5.26-5.27v-13.19c0-2.89,2.37-5.26,5.26-5.26h46.47c2.89,0,5.26,2.37,5.26,5.26Z"/>
  <path class="cls-2" d="M82.14,89.96v12.21h-25.71v-12.21c4,1.48,8.33,2.28,12.85,2.28s8.85-.8,12.86-2.28Z"/>
  <g>
    <line class="cls-2" x1="51" y1="108.87" x2="87.58" y2="108.87"/>
    <line class="cls-2" x1="51" y1="118.98" x2="87.58" y2="118.98"/>
  </g>
  <path class="cls-2" d="M111.92,76.5v31.35c0,3.34-2.7,6.04-6.04,6.04h-2.64"/>
  <circle class="cls-2" cx="111.92" cy="72.65" r="3.85"/>
  <rect class="cls-2" x="97.78" y="108.87" width="5.46" height="10.1"/>
</svg>