<svg xmlns="http://www.w3.org/2000/svg" width="512" height="512"><path d="M215.08 156.92c-4.89-24-10.77-56.27-10.77-73.23A51.36 51.36 0 01256 32h0c28.55 0 51.69 23.69 51.69 51.69 0 16.5-5.85 48.95-10.77 73.23m-81.84 198.16c-4.91 24.06-10.77 56.16-10.77 73.23A51.36 51.36 0 00256 480h0c28.55 0 51.69-23.69 51.69-51.69 0-16.54-5.85-48.93-10.77-73.23m58.16-140c24.06-4.91 56.16-10.77 73.23-10.77A51.36 51.36 0 01480 256h0c0 28.55-23.69 51.69-51.69 51.69-16.5 0-48.95-5.85-73.23-10.77m-198.16-81.85c-24-4.89-56.25-10.76-73.23-10.76A51.36 51.36 0 0032 256h0c0 28.55 23.69 51.69 51.69 51.69 16.5 0 48.95-5.85 73.23-10.77" fill="none" stroke="#000" stroke-linecap="round" stroke-miterlimit="10" stroke-width="32"/><path d="M296.92 156.92c13.55-20.48 32.3-47.25 44.37-59.31a51.35 51.35 0 0173.1 0h0c20.19 20.19 19.8 53.3 0 73.1-11.66 11.67-38.67 30.67-59.31 44.37m-198.16 81.84c-20.48 13.55-47.25 32.3-59.31 44.37a51.35 51.35 0 000 73.1h0c20.19 20.19 53.3 19.8 73.1 0 11.67-11.66 30.67-38.67 44.37-59.31m140-58.16c20.48 13.55 47.25 32.3 59.31 44.37a51.35 51.35 0 010 73.1h0c-20.19 20.19-53.3 19.8-73.1 0-11.69-11.69-30.66-38.65-44.37-59.31m-81.84-198.16c-13.53-20.43-32.38-47.32-44.37-59.31a51.35 51.35 0 00-73.1 0h0c-20.19 20.19-19.8 53.3 0 73.1 11.61 11.61 38.7 30.68 59.31 44.37" fill="none" stroke="#000" stroke-linecap="round" stroke-miterlimit="10" stroke-width="32"/><circle cx="256" cy="256" r="64" fill="none" stroke="#000" stroke-linecap="round" stroke-miterlimit="10" stroke-width="32"/></svg>