<svg id="icons" xmlns="http://www.w3.org/2000/svg" viewBox="0 0 512 512"><path d="M200,246.84c8.81,58.62-7.33,90.67-52.91,97.41-50.65,7.49-71.52-26.44-80.33-85.06-11.85-78.88,16-127.94,55.71-131.1C158.61,125.22,191.18,188.23,200,246.84Z" fill="none" stroke="#000" stroke-miterlimit="10" stroke-width="32"/><path d="M223.65,409.53c3.13,33.28-14.86,64.34-42,69.66-27.4,5.36-58.71-16.37-65.09-49.19s17.75-34.56,47.32-40.21S219.87,369.39,223.65,409.53Z" fill="none" stroke="#000" stroke-miterlimit="10" stroke-width="32"/><path d="M312,150.83c-8.81,58.62,7.33,90.67,52.9,97.41,50.66,7.49,71.52-26.44,80.33-85.06,11.86-78.89-16-128.22-55.7-131.1C353.13,29.44,320.82,92.21,312,150.83Z" fill="none" stroke="#000" stroke-miterlimit="10" stroke-width="32"/><path d="M288.35,313.53c-3.13,33.27,14.86,64.34,42,69.66,27.4,5.36,58.71-16.37,65.09-49.19s-17.75-34.56-47.32-40.22S292.13,273.38,288.35,313.53Z" fill="none" stroke="#000" stroke-miterlimit="10" stroke-width="32"/></svg>