<?xml version="1.0" encoding="utf-8"?>
<!-- Generator: Adobe Illustrator 22.0.1, SVG Export Plug-In . SVG Version: 6.00 Build 0)  -->
<svg version="1.1" id="Layer_1" xmlns="http://www.w3.org/2000/svg" xmlns:xlink="http://www.w3.org/1999/xlink" x="0px" y="0px"
	 viewBox="0 0 512 512" style="enable-background:new 0 0 512 512;" xml:space="preserve">
<g>
	<path d="M388.9,266.3c-5.1-5-5.2-13.3-0.1-18.4l47.2-47.9H211c-7.2,0-13-5.8-13-13s5.8-13,13-13h224.9l-47.2-47.9
		c-5-5.1-5-13.3,0.1-18.4c5.1-5,13.3-5,18.4,0.1l69,70c0,0,0,0,0,0c1.1,1.2,2.1,2.5,2.7,4.1c0.7,1.6,1,3.3,1,5
		c0,3.4-1.3,6.6-3.7,9.1l-69,70C402.2,271.2,394,271.3,388.9,266.3z"/>
	<path d="M123.1,404.3c5.1-5,5.2-13.3,0.1-18.4L76.1,338H301c7.2,0,13-5.8,13-13s-5.8-13-13-13H76.1l47.2-47.9
		c5-5.1,5-13.3-0.1-18.4c-5.1-5-13.3-5-18.4,0.1l-69,70c0,0,0,0,0,0c-1.1,1.2-2.1,2.5-2.7,4.1c-0.7,1.6-1,3.3-1,5
		c0,3.4,1.3,6.6,3.7,9.1l69,70C109.8,409.2,118,409.3,123.1,404.3z"/>
</g>
</svg>
