<?xml version="1.0" encoding="utf-8"?>
<!-- Generator: Adobe Illustrator 22.0.1, SVG Export Plug-In . SVG Version: 6.00 Build 0)  -->
<svg version="1.1" id="Layer_1" xmlns="http://www.w3.org/2000/svg" xmlns:xlink="http://www.w3.org/1999/xlink" x="0px" y="0px"
	 viewBox="0 0 512 512" style="enable-background:new 0 0 512 512;" xml:space="preserve">
<g>
	<g>
		<path d="M404.3,86l-202,202c-1.5,1.5-2.3,3.5-2.3,5.6v26.5c0,4.4,3.6,7.9,7.9,7.9h26.3c2.1,0,4.2-0.8,5.7-2.3l202.1-202
			c3.1-3.1,3.1-8.1,0-11.2L415.5,86C412.4,82.9,407.4,82.9,404.3,86z"/>
		<path d="M475.6,67l-14.4-14.4c-0.1-0.1-0.2-0.2-0.2-0.2c-3.1-2.7-7.2-4.4-11.5-4.4c-4.4,0-8.5,1.7-11.6,4.5l-11.3,11.4
			c-1.5,1.6-1.5,4.1,0,5.6l10.4,10.4l21.7,21.7c1.6,1.6,4.1,1.6,5.7,0l11.3-11.3c2.8-3.1,4.4-7.1,4.4-11.6
			C480,74.3,478.4,70.1,475.6,67z"/>
	</g>
	<g>
		<path d="M250,342c-3,3-7.1,4.7-11.3,4.7h-1.1H200h-2.7c-8.8,0-16-7.2-16-16V328v-37.7v-1.1c0-4.2,1.7-8.3,4.7-11.3l0.8-0.8
			l147.6-147.6c2.5-2.5,0.7-6.8-2.8-6.8H90.7c-32.4,0-58.7,26.3-58.7,58.7v224c0,32.4,26.3,58.7,58.7,58.7h256
			c32.4,0,58.7-26.3,58.7-58.7v-209c0-3.6-4.3-5.3-6.8-2.8L250.8,341.2L250,342z"/>
	</g>
</g>
</svg>
