<?xml version="1.0" encoding="utf-8"?>
<!-- Generator: Adobe Illustrator 22.0.1, SVG Export Plug-In . SVG Version: 6.00 Build 0)  -->
<svg version="1.1" id="Layer_1" xmlns="http://www.w3.org/2000/svg" xmlns:xlink="http://www.w3.org/1999/xlink" x="0px" y="0px"
	 viewBox="0 0 512 512" style="enable-background:new 0 0 512 512;" xml:space="preserve">
<g>
	<path d="M417.5,160l-54.5,0c-4.6,0-8.9-2-12-5.4c-28.4-31.8-39.1-42.6-50.7-42.6h-85.5c-11.7,0-23.2,10.8-51.7,42.7
		c-3,3.4-7.4,5.3-11.9,5.3l-4.1,0v-8c0-4.4-3.6-8-8-8h-26c-4.4,0-8,3.6-8,8v8h-7.5C79.9,160,64,173.2,64,190.7v176
		c0,17.5,15.9,33.3,33.5,33.3h320c17.6,0,30.5-15.8,30.5-33.3v-176C448,173.2,435.1,160,417.5,160z M308.3,340.5
		c-0.8,2.5-2.6,4.6-4.8,6.1c-14.1,9.7-30.5,14.8-47.5,14.8c-21,0-41.2-8.1-57.1-22.7c-14.6-13.5-24.1-31.2-27-50.2h-20.4
		c-3.2,0-6-2.8-5.6-6.6c0.1-0.7,0.3-1.3,0.7-1.8l31.5-42.3c1.1-1.4,2.7-2.2,4.4-2.2c1.7,0,3.3,0.8,4.4,2.2l32.2,41.8
		c2,2.6,1.5,6.4-1.8,8.5c-0.6,0.4-1.2,0.5-1.9,0.5l-20.8,0c2.7,12.8,9.7,24.8,19.9,34c11.6,10.6,26.3,16.4,41.4,16.4
		c12.3,0,24.4-4,35.1-11.5c1.9-1.3,4.2-2.1,6.5-2.1c3.2,0,6.2,1.3,8.3,3.7C308.7,332.1,309.7,336.4,308.3,340.5z M364.9,273
		l-31.2,42.9c-1.8,2.5-5.5,3.2-8.3,0.8c-0.2-0.2-0.4-0.4-0.5-0.6l-32.4-43.1c-2-2.6-1.4-6.5,1.9-8.5c0.6-0.3,1.2-0.5,1.9-0.5l21,0
		c-2.7-13.6-9.7-26.1-19.9-35.6c-11.5-10.7-26.2-16.6-41.3-16.6c-12.5,0-24.6,3.9-35.2,11.3c-1.9,1.3-4.1,2-6.4,2
		c-3.1,0-6.1-1.3-8.2-3.6c-2.8-3-3.8-7.4-2.5-11.5c0.8-2.5,2.6-4.6,4.7-6c14.1-9.7,30.6-14.8,47.6-14.8c21.7,0,42.2,7.9,57.8,22.3
		c13.3,12.3,23.2,32.1,26.2,52.4l21.1,0c0.6,0,1.3,0.2,1.8,0.5C366.2,266.5,366.8,270.4,364.9,273z"/>
</g>
</svg>
