<?xml version="1.0" encoding="utf-8"?>
<!-- Generator: Adobe Illustrator 22.0.1, SVG Export Plug-In . SVG Version: 6.00 Build 0)  -->
<svg version="1.1" id="Layer_1" xmlns="http://www.w3.org/2000/svg" xmlns:xlink="http://www.w3.org/1999/xlink" x="0px" y="0px"
	 viewBox="0 0 512 512" style="enable-background:new 0 0 512 512;" xml:space="preserve">
<g>
	<path d="M432,136h-84.3c12.4-11,20.3-26.6,20.3-44c0-33.1-28.3-60-63.1-60c-20.6,0-37.9,9.7-48.9,27.4C245,41.7,227.7,32,207.1,32
		C172.3,32,144,58.9,144,92c0,17.4,7.8,33,20.3,44H80c-17.7,0-32,14.3-32,32v20c0,2.2,1.8,4,4,4h408c2.2,0,4-1.8,4-4v-20
		C464,150.3,449.7,136,432,136z M304.9,60c18.6,0,33.7,14.3,33.7,32s-15.1,32-33.7,32c-18.6,0-33.7,0-33.7,0
		C271.2,76,286.3,60,304.9,60z M207.1,60c18.6,0,33.7,16,33.7,64c0,0-15.1,0-33.7,0c-18.6,0-33.7-14.3-33.7-32S188.5,60,207.1,60z"
		/>
	<path d="M64,226v222c0,17.6,14.4,32,32,32h146V218H72C67.6,218,64,221.6,64,226z"/>
	<path d="M440,218H270v262h146c17.6,0,32-14.4,32-32V226C448,221.6,444.4,218,440,218z"/>
</g>
</svg>
