<?xml version="1.0" encoding="utf-8"?>
<!-- Generator: Adobe Illustrator 22.0.1, SVG Export Plug-In . SVG Version: 6.00 Build 0)  -->
<svg version="1.1" id="Layer_1" xmlns="http://www.w3.org/2000/svg" xmlns:xlink="http://www.w3.org/1999/xlink" x="0px" y="0px"
	 viewBox="0 0 512 512" style="enable-background:new 0 0 512 512;" xml:space="preserve">
<path d="M406.3,48.2c-4.7,0.9-202,39.2-206.2,40c-4.2,0.8-8.1,3.6-8.1,8c0,0,0,238.5,0,240.1c0,1.6-0.1,7.2-2.4,11.7
	c-3.1,5.9-8.5,10.2-16.1,12.7c-3.3,1.1-7.8,2.1-13.1,3.3c-24.1,5.4-64.4,14.6-64.4,51.8c0,31.1,22.4,45.1,41.7,47.5
	c2.1,0.3,4.5,0.7,7.1,0.7c0,0,0,0,0,0c6.7,0,36-3.3,51.2-13.2c11-7.2,24.1-21.4,24.1-47.8V190.5c0-3.8,2.7-7.1,6.4-7.8l152-30.7
	c5-1,9.6,2.8,9.6,7.8v130.9c0,4.1-0.2,8.9-2.5,13.4c-3.1,5.9-8.5,10.2-16.2,12.7c-3.3,1.1-8.8,2.1-14.1,3.3
	c-24.1,5.4-64.4,14.5-64.4,51.7c0,33.7,25.4,47.2,41.8,48.3c6.5,0.4,11.2,0.3,19.4-0.9c8.2-1.2,23.5-5.5,36.5-13
	c17.9-10.3,27.5-26.8,27.5-48.2V55.9C416,51.5,412.3,47,406.3,48.2z"/>
</svg>
