<?xml version="1.0" encoding="utf-8"?>
<!-- Generator: Adobe Illustrator 22.0.1, SVG Export Plug-In . SVG Version: 6.00 Build 0)  -->
<svg version="1.1" id="Layer_1" xmlns="http://www.w3.org/2000/svg" xmlns:xlink="http://www.w3.org/1999/xlink" x="0px" y="0px"
	 viewBox="0 0 512 512" style="enable-background:new 0 0 512 512;" xml:space="preserve">
<path d="M475.9,246.2l-79.4-79.4c-5.4-5.4-14.2-5.4-19.6,0l-0.2,0.2c-5.4,5.4-5.4,14.2,0,19.6l54.9,54.9l-161.8,0.5l0.5-161.8
	l54.9,54.9c5.4,5.4,14.2,5.4,19.6,0l0.2-0.2c5.4-5.4,5.4-14.2,0-19.6l-79.4-79.4c-5.4-5.4-14.2-5.4-19.6,0l-79.4,79.4
	c-5.4,5.4-5.4,14.2,0,19.6l0.2,0.2c5.4,5.4,14.2,5.4,19.6,0l54.9-54.9l0.5,161.8l-161.8-0.5l54.9-54.9c5.4-5.4,5.4-14.2,0-19.6
	l-0.2-0.2c-5.4-5.4-14.2-5.4-19.6,0l-79.4,79.4c-5.4,5.4-5.4,14.2,0,19.6l79.4,79.4c5.4,5.4,14.2,5.4,19.6,0l0.2-0.2
	c5.4-5.4,5.4-14.2,0-19.6l-54.9-54.9l161.8-0.5l-0.5,161.8l-54.9-54.9c-5.4-5.4-14.2-5.4-19.6,0l-0.2,0.2c-5.4,5.4-5.4,14.2,0,19.6
	l79.4,79.4c5.4,5.4,14.2,5.4,19.6,0l79.4-79.4c5.4-5.4,5.4-14.2,0-19.6l-0.2-0.2c-5.4-5.4-14.2-5.4-19.6,0l-54.9,54.9l-0.5-161.8
	l161.8,0.5l-54.9,54.9c-5.4,5.4-5.4,14.2,0,19.6l0.2,0.2c5.4,5.4,14.2,5.4,19.6,0l79.4-79.4C481.4,260.4,481.4,251.6,475.9,246.2z"
	/>
</svg>
