<?xml version="1.0" encoding="utf-8"?>
<!-- Generator: Adobe Illustrator 22.0.1, SVG Export Plug-In . SVG Version: 6.00 Build 0)  -->
<svg version="1.1" id="Layer_1" xmlns="http://www.w3.org/2000/svg" xmlns:xlink="http://www.w3.org/1999/xlink" x="0px" y="0px"
	 viewBox="0 0 512 512" style="enable-background:new 0 0 512 512;" xml:space="preserve">
<g>
	<path d="M479.9,394.9c0-19.6,4.2-97.1-56.8-158.7c-40.4-40.7-91.9-61.7-163.4-65.5c-2.1-0.1-3.8-1.9-3.8-4V84
		c0-3.2-3.5-5.1-6.2-3.4L33.8,222.8c-2.4,1.6-2.4,5.1,0,6.7l215.9,142.2c2.7,1.8,6.2-0.1,6.2-3.4v-81.6c0-2.3,1.9-4.1,4.2-4
		c44.1,1.7,69.5,10.9,97.1,23.2c36.1,16.2,72.9,50.9,94.5,83.5c13.1,19.9,19.2,33.9,21.4,39.7c0.7,1.7,2.3,2.8,4.1,2.8h2.9
		C480,420.2,479.9,405.2,479.9,394.9z"/>
</g>
</svg>
