<?xml version="1.0" encoding="utf-8"?>
<!-- Generator: Adobe Illustrator 22.0.1, SVG Export Plug-In . SVG Version: 6.00 Build 0)  -->
<svg version="1.1" id="Layer_1" xmlns="http://www.w3.org/2000/svg" xmlns:xlink="http://www.w3.org/1999/xlink" x="0px" y="0px"
	 viewBox="0 0 512 512" style="enable-background:new 0 0 512 512;" xml:space="preserve">
<g>
	<path d="M346.5,240H272v-74.5c0-8.8-7.2-16-16-16c-8.8,0-16,7.2-16,16V240h-74.5c-8.8,0-16,6-16,16s7.5,16,16,16s74.5,0,74.5,0
		s0,65,0,74.5s7,16,16,16s16-7.2,16-16V272h74.5c8.8,0,16-7.2,16-16C362.5,247.2,355.3,240,346.5,240z"/>
	<g>
		<g>
			<path d="M256,76c48.1,0,93.3,18.7,127.3,52.7S436,207.9,436,256s-18.7,93.3-52.7,127.3S304.1,436,256,436
				c-48.1,0-93.3-18.7-127.3-52.7C94.7,349.3,76,304.1,76,256s18.7-93.3,52.7-127.3C162.7,94.7,207.9,76,256,76 M256,48
				C141.1,48,48,141.1,48,256s93.1,208,208,208c114.9,0,208-93.1,208-208S370.9,48,256,48L256,48z"/>
		</g>
	</g>
</g>
</svg>
