<?xml version="1.0" encoding="utf-8"?>
<!-- Generator: Adobe Illustrator 22.0.1, SVG Export Plug-In . SVG Version: 6.00 Build 0)  -->
<svg version="1.1" id="Layer_1" xmlns="http://www.w3.org/2000/svg" xmlns:xlink="http://www.w3.org/1999/xlink" x="0px" y="0px"
	 viewBox="0 0 512 512" style="enable-background:new 0 0 512 512;" xml:space="preserve">
<path d="M348.3,216.4c-5,5.1-13.3,5.1-18.4,0.1L269,155.8v231.3c0,7.1-5.8,12.9-13,12.9s-13-5.8-13-12.9V155.8l-60.9,60.8
	c-5.1,5-13.3,4.9-18.4-0.1c-5-5.1-5-13.2,0.1-18.3l83-82.4c0,0,0,0,0,0c1.2-1.1,2.5-2,4.1-2.7c1.6-0.7,3.3-1,5-1
	c3.4,0,6.6,1.3,9.1,3.7l83,82.4C353.2,203.1,353.3,211.3,348.3,216.4z"/>
</svg>
