<?xml version="1.0" encoding="utf-8"?>
<!-- Generator: Adobe Illustrator 18.1.1, SVG Export Plug-In . SVG Version: 6.00 Build 0)  -->
<svg version="1.1" id="Layer_1" xmlns="http://www.w3.org/2000/svg" xmlns:xlink="http://www.w3.org/1999/xlink" x="0px" y="0px"
	 viewBox="0 0 512 512" enable-background="new 0 0 512 512" xml:space="preserve">
<path d="M190.1,133.1c16.1,1.9,32.8,10.8,46.9,24.9l167.7,167.7l59.3-59.3L286.2,88.7c-54.3-54.3-143.2-54.3-197.5,0l0,0
	c-54.3,54.3-54.3,143.2,0,197.5L266.5,464l59.3-59.3L158.1,237.1c-14.4-14.4-23.4-30.9-25.4-46.6c-2.1-16,3.1-30.4,15.3-42.6
	C159.5,136.3,174.1,131.2,190.1,133.1z M444.2,266.5L404.7,306l-29.6-29.6l39.5-39.5L444.2,266.5z M306,404.7l-39.5,39.5l-29.6-29.6
	l39.5-39.5L306,404.7z"/>
</svg>
