<?xml version="1.0" encoding="utf-8"?>
<!-- Generator: Adobe Illustrator 18.1.1, SVG Export Plug-In . SVG Version: 6.00 Build 0)  -->
<svg version="1.1" id="Layer_1" xmlns="http://www.w3.org/2000/svg" xmlns:xlink="http://www.w3.org/1999/xlink" x="0px" y="0px"
	 viewBox="0 0 512 512" enable-background="new 0 0 512 512" xml:space="preserve">
<g>
	<g>
		<g>
			<path d="M352,255.4c15.6,20.7,24,45.7,24,72.1c0,32.1-12.5,62.2-35.1,84.9s-52.8,35.1-84.9,35.1s-62.2-12.5-84.9-35.1
				S136,359.6,136,327.5c0-26.4,8.5-51.5,24.1-72.2l-6.2-1.7l-10.2-2.9c-15,21.8-23.7,48.3-23.7,76.8c0,75.1,60.9,136.5,136,136.5
				s136-61.4,136-136.5c0-28.4-8.7-54.8-23.6-76.6l-10.2,2.8L352,255.4z"/>
		</g>
		<g>
			<path d="M298.7,270.1l-21.7,6c20.5,8.3,35,28.4,35,51.9c0,30.9-25.1,56-56,56s-56-25.1-56-56c0-23.5,14.5-43.6,34.9-51.9l-21.6-6
				C195.5,283.2,184,304.3,184,328c0,39.7,32.3,72,72,72s72-32.3,72-72C328,304.3,316.5,283.2,298.7,270.1z"/>
		</g>
	</g>
	<path d="M48,48v160l208,58l208-58V48H48z M448,64v32H64V64H448z M64,196v-84h112v116L64,196z M256,248.7l-64-17V112h128v119.7
		L256,248.7z M336,228V112h112v84L336,228z"/>
</g>
</svg>
