<?xml version="1.0" encoding="utf-8"?>
<!-- Generator: Adobe Illustrator 22.0.1, SVG Export Plug-In . SVG Version: 6.00 Build 0)  -->
<svg version="1.1" id="Layer_1" xmlns="http://www.w3.org/2000/svg" xmlns:xlink="http://www.w3.org/1999/xlink" x="0px" y="0px"
	 viewBox="0 0 512 512" style="enable-background:new 0 0 512 512;" xml:space="preserve">
<g>
	<path d="M48,82.7v346.7c0,19.1,15.5,34.7,34.7,34.7h346.7c19.1,0,34.7-15.5,34.7-34.7V82.7c0-19.1-15.5-34.7-34.7-34.7H82.7
		C63.5,48,48,63.5,48,82.7z M137.3,379.8c-13.1,1.7-24.1-9.3-22.4-22.4c1.1-8.9,8.3-16.1,17.2-17.2c13.1-1.7,24.1,9.3,22.4,22.4
		C153.4,371.5,146.2,378.7,137.3,379.8z M137.3,275.8c-13.1,1.7-24.1-9.3-22.4-22.4c1.1-8.9,8.3-16.1,17.2-17.2
		c13.1-1.7,24.1,9.3,22.4,22.4C153.4,267.5,146.2,274.7,137.3,275.8z M137.3,171.8c-13.1,1.7-24.1-9.3-22.4-22.4
		c1.1-8.9,8.3-16.1,17.2-17.2c13.1-1.7,24.1,9.3,22.4,22.4C153.4,163.5,146.2,170.7,137.3,171.8z M384.7,374h-180
		c-7.7,0-14-6.3-14-14l0,0c0-7.7,6.3-14,14-14h180c7.7,0,14,6.3,14,14l0,0C398.7,367.7,392.4,374,384.7,374z M384.7,270h-180
		c-7.7,0-14-6.3-14-14l0,0c0-7.7,6.3-14,14-14h180c7.7,0,14,6.3,14,14l0,0C398.7,263.7,392.4,270,384.7,270z M384.7,166h-180
		c-7.7,0-14-6.3-14-14l0,0c0-7.7,6.3-14,14-14h180c7.7,0,14,6.3,14,14l0,0C398.7,159.7,392.4,166,384.7,166z"/>
</g>
</svg>
