<?xml version="1.0" encoding="utf-8"?>
<!-- Generator: Adobe Illustrator 22.0.1, SVG Export Plug-In . SVG Version: 6.00 Build 0)  -->
<svg version="1.1" id="Layer_1" xmlns="http://www.w3.org/2000/svg" xmlns:xlink="http://www.w3.org/1999/xlink" x="0px" y="0px"
	 viewBox="0 0 512 512" style="enable-background:new 0 0 512 512;" xml:space="preserve">
<g>
	<g>
		<path d="M168.2,64h-0.3c-8.7,0-15.8,7.1-15.8,15.8v30.3c0,8.7,7.1,15.8,15.8,15.8h0.3c8.7,0,15.8-7.1,15.8-15.8V79.8
			C184,71.1,176.9,64,168.2,64z"/>
		<path d="M79,216.2v-0.3c0-8.7-7.1-15.8-15.8-15.8H31.8c-8.7,0-15.8,7.1-15.8,15.8v0.3c0,8.7,7.1,15.8,15.8,15.8h31.3
			C71.9,232,79,224.9,79,216.2z"/>
		<path d="M79.7,149c3,3,7,4.7,11.2,4.7c4.2,0,8.2-1.7,11.2-4.7c6.1-6.2,6.1-16.2,0-22.3l-20.3-20.5c-3-3-7-4.7-11.2-4.7h0
			c-4.2,0-8.2,1.7-11.2,4.7c-6.1,6.2-6.1,16.2,0,22.3L79.7,149z"/>
		<path d="M271,105.2c-3-3-7-4.7-11.2-4.7h0c-4.2,0-8.2,1.7-11.2,4.7l-20.3,20.4c-6.1,6.2-6.1,16.2,0,22.3l0.3,0.3l0.1,0
			c2.9,2.8,6.8,4.3,10.8,4.3c4.2,0,8.2-1.7,11.2-4.7l20.3-20.4C277.1,121.4,277.1,111.4,271,105.2z"/>
		<path d="M92.9,273.3L92.9,273.3c-4.2,0-8.2,1.7-11.2,4.7l-20.3,20.5c-6.1,6.2-6.1,16.2,0,22.3c3,3,7,4.7,11.2,4.7
			c4.2,0,8.2-1.7,11.2-4.7l20.3-20.5c6.1-6.2,6.1-16.2,0-22.3C101.1,275,97.1,273.3,92.9,273.3z"/>
	</g>
	<path d="M403.3,259.2c-0.8,0-1.6,0-2.4,0c-3.1,0-6.1,0-9,0.4c-11.3-50.3-56.1-88.2-109.7-88.2c-14.6,0-28.6,2.8-41.4,7.9
		c-5.1,2-10,4.4-14.7,7.1c-32,18.5-54.1,52.4-56.2,91.6c-0.1,2.1-0.2,4.1-0.2,6.2c0,3.4,0.2,6.8,0.5,10.1c0,0.4,0.1,0.8,0.1,1.1
		c-37.9,3.4-67.6,37.1-67.6,76c0,41.1,33.3,76.7,74.3,76.7h226.4c51.2,0,92.7-43.4,92.7-94.8C496,301.9,454.5,259.2,403.3,259.2z"/>
	<path d="M150.7,283.6c0-0.1,0-0.2,0-0.3c-0.3-3.4-0.5-6.8-0.5-10.2c0-2.1,0.1-4.2,0.2-6.3c2.2-39.9,24.6-74.3,57.2-93.1
		c4.8-2.8,9.8-5.2,14.9-7.2c0,0,0.1,0,0.1,0c-13.4-17-34.2-28-57.6-28c-40.5,0-73.3,32.8-73.3,73.3
		C91.7,247.3,117,276.9,150.7,283.6z"/>
</g>
</svg>
