<?xml version="1.0" encoding="utf-8"?>
<!-- Generator: Adobe Illustrator 16.2.1, SVG Export Plug-In . SVG Version: 6.00 Build 0)  -->
<!DOCTYPE svg PUBLIC "-//W3C//DTD SVG 1.1//EN" "http://www.w3.org/Graphics/SVG/1.1/DTD/svg11.dtd">
<svg version="1.1" xmlns="http://www.w3.org/2000/svg" xmlns:xlink="http://www.w3.org/1999/xlink" x="0px" y="0px" width="512px"
	 height="512px" viewBox="0 0 512 512" enable-background="new 0 0 512 512" xml:space="preserve">
<g id="boxes" display="none">
	<rect display="inline" opacity="0.1" width="512" height="512"/>
</g>
<g id="icons">
	<path d="M413.012,226.113C406.146,161.895,354.041,112,288,112c-44.838,0-86.535,22.812-109.396,57.715
		C170.658,166.056,161.821,164,152.5,164c-34.208,0-61.981,27.487-62.477,61.577C55.092,236.613,32,268.158,32,304
		c0,43.906,35.594,80,79.5,80h289c43.906,0,79.5-36.094,79.5-80C480,264.352,450.973,232.116,413.012,226.113z M400.5,368h-289
		C76.486,368,48,339.152,48,304c0-14.272,4.443-27.047,12.85-38.6c8.471-11.64,20.226-20.154,33.994-24.504l11.01-3.51l0.168-11.562
		c0.179-12.274,5.093-23.795,13.837-32.425c8.751-8.637,20.344-13.396,32.642-13.396c6.76,0,13.29,1.428,19.41,4.246l12.523,5.766
		l7.555-11.533c20.807-31.768,57.857-50.732,95.762-50.732c27.813,0,52.48,10.265,73.09,28.904
		c20.466,18.51,33.344,43.737,36.263,71.035l1.303,12.188l12.107,1.915c14.727,2.329,28.253,9.922,38.087,21.381
		C458.531,274.744,464,288.76,464,304C464,339.152,435.514,368,400.5,368z"/>
</g>
</svg>
