<?xml version="1.0" encoding="utf-8"?>
<!-- Generator: Adobe Illustrator 22.0.1, SVG Export Plug-In . SVG Version: 6.00 Build 0)  -->
<svg version="1.1" id="Layer_1" xmlns="http://www.w3.org/2000/svg" xmlns:xlink="http://www.w3.org/1999/xlink" x="0px" y="0px"
	 viewBox="0 0 512 512" style="enable-background:new 0 0 512 512;" xml:space="preserve">
<g>
	<path d="M424,64H88c-22,0-40,18-40,40v304c0,22,18,40,40,40h336c22,0,40-18,40-40V104C464,82,446,64,424,64z M436,240
		c0,8.8-7.2,16-16,16h-86.8c-6.8,0-12.8,4.2-15.1,10.6c-4.1,11.6-14.3,21.4-26.1,21.4h-72c-11.9,0-22.1-9.8-26.1-21.4
		c-2.2-6.4-8.3-10.6-15.1-10.6H92c-8.8,0-16-7.2-16-16V108c0-8.8,7.2-16,16-16h328c8.8,0,16,7.2,16,16V240z"/>
	<path d="M386,156H126c-7.7,0-14-6.3-14-14v0c0-7.7,6.3-14,14-14h260c7.7,0,14,6.3,14,14v0C400,149.7,393.7,156,386,156z"/>
	<path d="M386,220H126c-7.7,0-14-6.3-14-14v0c0-7.7,6.3-14,14-14h260c7.7,0,14,6.3,14,14v0C400,213.7,393.7,220,386,220z"/>
</g>
</svg>
