<?xml version="1.0" encoding="utf-8"?>
<!-- Generator: Adobe Illustrator 22.0.1, SVG Export Plug-In . SVG Version: 6.00 Build 0)  -->
<svg version="1.1" id="Layer_1" xmlns="http://www.w3.org/2000/svg" xmlns:xlink="http://www.w3.org/1999/xlink" x="0px" y="0px"
	 viewBox="0 0 512 512" style="enable-background:new 0 0 512 512;" xml:space="preserve">
<g>
	<polygon points="387.9,373.7 437.1,373.7 454.6,298.3 387.9,298.3 	"/>
	<path d="M387.9,448h0.5c18.7,0,33.4-12.5,38.3-29.5l6-25.9h-44.8V448z"/>
	<rect x="265.4" y="392.5" width="103.7" height="55.5"/>
	<polygon points="75,373.7 124,373.7 124,298.3 57.5,298.3 	"/>
	<rect x="142.9" y="192" width="103.7" height="87.5"/>
	<rect x="265.4" y="192" width="103.7" height="87.5"/>
	<path d="M85.5,418.3c4.7,17,19.4,29.7,38.1,29.7h0.5v-55.5H79.4L85.5,418.3z"/>
	<rect x="142.9" y="392.5" width="103.7" height="55.5"/>
	<rect x="265.4" y="298.3" width="103.7" height="75.4"/>
	<rect x="142.9" y="298.3" width="103.7" height="75.4"/>
	<path d="M464,192h-47.9V96c0-17.6-14.4-32-32-32H127.9c-17.6,0-32,14.4-32,32v96H48c-10.3,0-17.9,9.6-15.6,19.6l19.7,67.9h71.9V106
		c0-7.7,6.3-14,14-14H374c7.7,0,14,6.3,14,14v173.5h72l19.6-67.9C481.9,201.6,474.3,192,464,192z"/>
</g>
</svg>
