<?xml version="1.0" encoding="utf-8"?>
<!-- Generator: Adobe Illustrator 18.1.1, SVG Export Plug-In . SVG Version: 6.00 Build 0)  -->
<svg version="1.1" id="Layer_1" xmlns="http://www.w3.org/2000/svg" xmlns:xlink="http://www.w3.org/1999/xlink" x="0px" y="0px"
	 viewBox="0 0 512 512" enable-background="new 0 0 512 512" xml:space="preserve">
<path d="M416,160c0-35.3-28.7-64-64-64s-64,28.7-64,64c0,32.6,24.4,59.5,56,63.5v0.5c0,23-9.9,42.4-29.5,57.5
	c-21.3,16.5-48.7,24.1-67.9,27.5c-43.2,7.8-64.1,33.3-71.6,44.7c-2.6-0.6-5.3-1.1-8-1.4V159.6c32.1-3.5,57-30.6,57-63.6
	c0-35.3-28.7-64-64-64S96,60.7,96,96c0,32.3,23.9,59,55,63.4v193.3c-31.1,4.4-55,31.1-55,63.4c0,35.3,28.7,64,64,64s64-28.7,64-64
	c0-24.3-13.6-45.5-33.6-56.3c7.3-10.1,25.1-28.7,59-34.9c21-3.8,51-12.2,74.8-30.6c23.4-18.1,35.7-42.3,35.7-70.2v-0.5
	C391.6,219.5,416,192.6,416,160z M112,96c0-26.5,21.5-48,48-48s48,21.5,48,48s-21.5,48-48,48S112,122.5,112,96z M208,416
	c0,26.5-21.5,48-48,48s-48-21.5-48-48s21.5-48,48-48S208,389.5,208,416z M352,208c-26.5,0-48-21.5-48-48s21.5-48,48-48
	s48,21.5,48,48S378.5,208,352,208z"/>
</svg>
