<?xml version="1.0" encoding="utf-8"?>
<!-- Generator: Adobe Illustrator 22.0.1, SVG Export Plug-In . SVG Version: 6.00 Build 0)  -->
<svg version="1.1" id="Layer_1" xmlns="http://www.w3.org/2000/svg" xmlns:xlink="http://www.w3.org/1999/xlink" x="0px" y="0px"
	 viewBox="0 0 512 512" style="enable-background:new 0 0 512 512;" xml:space="preserve">
<path d="M278.6,256l68.2-68.2c6.2-6.2,6.2-16.4,0-22.6c-6.2-6.2-16.4-6.2-22.6,0L256,233.4l-68.2-68.2c-6.2-6.2-16.4-6.2-22.6,0
	c-3.1,3.1-4.7,7.2-4.7,11.3c0,4.1,1.6,8.2,4.7,11.3l68.2,68.2l-68.2,68.2c-3.1,3.1-4.7,7.2-4.7,11.3c0,4.1,1.6,8.2,4.7,11.3
	c6.2,6.2,16.4,6.2,22.6,0l68.2-68.2l68.2,68.2c6.2,6.2,16.4,6.2,22.6,0c6.2-6.2,6.2-16.4,0-22.6L278.6,256z"/>
</svg>
