<?xml version="1.0" encoding="utf-8"?>
<!-- Generator: Adobe Illustrator 22.0.1, SVG Export Plug-In . SVG Version: 6.00 Build 0)  -->
<svg version="1.1" id="Layer_1" xmlns="http://www.w3.org/2000/svg" xmlns:xlink="http://www.w3.org/1999/xlink" x="0px" y="0px"
	 viewBox="0 0 512 512" style="enable-background:new 0 0 512 512;" xml:space="preserve">
<g>
	<path d="M359.1,231.9l-0.1,0c-0.1-0.1-0.3-0.4-0.4-0.6l-78.9-79.6h0c-5.8-6-14.2-10.2-23.6-10.2c-11.8,0-22.2,6.2-27.7,16.3h0
		c0,0-3.4,5.1-12.6,19.8c-1.6,2.6-1.6,6,0.1,8.6l26.8,41.2c2.9,3.8,3.3,8,1.4,9.9l-0.1,0.1c-2.3,2.3-5.9,1.5-9.8-1.4l-32.3-20.5
		c-3.8-2.4-8.7-1.2-11.1,2.5c-21.9,35.1-46.8,74.7-71.2,114c-1.6,2.5-1.6,5.7-0.1,8.3l14.1,24.1c2.9,3.8,3.3,8,1.4,9.9l-0.1,0.1
		c-2.3,2.3-5.9,1.5-9.8-1.4l-16.6-8.4c-3.7-1.9-8.2-0.6-10.4,2.9c-17.7,28.3-28,44.7-29.1,46.5v0c-3,5.1-5,11.2-5,17.8
		c0,17.8,14.2,32.2,31.9,32.2c7.8,0,14.4-3.4,20.6-7.6l104.5-77.6c3.4-2.5,4.2-7.2,2-10.7L202.5,336c-2.9-3.8-3.3-8-1.4-9.9l0.1-0.1
		c2.3-2.3,5.9-1.5,9.8,1.4l37.4,25.6c2.8,1.9,6.5,1.9,9.3-0.2c53-39.1,97.5-72.2,97.5-72.2h0c7.9-6,13-15.4,13-26
		C368.2,245.9,365.1,237.8,359.1,231.9L359.1,231.9z"/>
	<path d="M446.9,131.2l-11.2-17.9c-2.2-3.8-7.1-5.1-10.9-2.9L365.4,147l47.3-78.9c2.2-3.8,0.9-8.8-2.9-11l-17.7-8
		c-3.9-2.3-8.8-0.9-11,3l-57.6,108.3l28.6,28.8l91.8-46.8C447.8,140.2,449.2,135.2,446.9,131.2z"/>
</g>
</svg>
