<?xml version="1.0" encoding="utf-8"?>
<!-- Generator: Adobe Illustrator 18.1.1, SVG Export Plug-In . SVG Version: 6.00 Build 0)  -->
<svg version="1.1" id="Layer_1" xmlns="http://www.w3.org/2000/svg" xmlns:xlink="http://www.w3.org/1999/xlink" x="0px" y="0px"
	 viewBox="0 0 512 512" enable-background="new 0 0 512 512" xml:space="preserve">
<path d="M280,48h-48c-66,0-120,54-120,120v128c0,63.3,49.7,115.6,112,119.7V464h64v-48.3c62.3-4.2,112-56.4,112-119.7V168
	C400,102,346,48,280,48z M240,448v-32h32v32H240z M280,400h-48c-27.6,0-53.7-10.9-73.4-30.6c-0.5-0.5-0.9-1-1.4-1.4h197.7
	c-0.5,0.5-0.9,1-1.4,1.4C333.7,389.1,307.6,400,280,400z M367.5,352H144.5c-10.7-16.6-16.5-35.9-16.5-56v-8h80v-16h-80v-32h80v-16
	h-80v-32h80v-16h-80v-8c0-27.6,10.9-53.7,30.6-73.4c13.9-13.9,30.9-23.4,49.4-27.8V112h16V64.3c2.6-0.2,5.3-0.3,8-0.3h16v64h16V64
	h16c2.7,0,5.4,0.1,8,0.3V112h16V66.8c18.5,4.4,35.6,13.9,49.4,27.8c19.7,19.7,30.6,45.8,30.6,73.4v8h-80v16h80v32h-80v16h80v32h-80
	v16h80v8C384,316.1,378.2,335.4,367.5,352z"/>
</svg>
