<?xml version="1.0" encoding="utf-8"?>
<!-- Generator: Adobe Illustrator 22.0.1, SVG Export Plug-In . SVG Version: 6.00 Build 0)  -->
<svg version="1.1" id="Layer_1" xmlns="http://www.w3.org/2000/svg" xmlns:xlink="http://www.w3.org/1999/xlink" x="0px" y="0px"
	 viewBox="0 0 512 512" style="enable-background:new 0 0 512 512;" xml:space="preserve">
<g>
	<path d="M460.6,147.3L353,256.9c-0.8,0.8-0.8,2,0,2.8l75.3,80.2c5.1,5.1,5.1,13.3,0,18.4c-2.5,2.5-5.9,3.8-9.2,3.8
		s-6.7-1.3-9.2-3.8l-75-79.9c-0.8-0.8-2.1-0.8-2.9,0l-18.3,18.6c-15.3,15.5-35.6,24.1-57.4,24.2c-22.1,0.1-43.1-9.2-58.6-24.9
		l-17.6-17.9c-0.8-0.8-2.1-0.8-2.9,0l-75,79.9c-2.5,2.5-5.9,3.8-9.2,3.8s-6.7-1.3-9.2-3.8c-5.1-5.1-5.1-13.3,0-18.4l75.3-80.2
		c0.7-0.8,0.7-2,0-2.8L51.4,147.3c-1.3-1.3-3.4-0.4-3.4,1.4L48,368c0,17.6,14.4,32,32,32h352c17.6,0,32-14.4,32-32l0-219.3
		C464,146.9,461.8,146.1,460.6,147.3z"/>
	<path d="M256,295.1c14.8,0,28.7-5.8,39.1-16.4L452,119c-5.5-4.4-12.3-7-19.8-7H79.9c-7.5,0-14.4,2.6-19.8,7l156.9,159.7
		C227.3,289.2,241.2,295.1,256,295.1z"/>
</g>
</svg>
