<?xml version="1.0" encoding="utf-8"?>
<!-- Generator: Adobe Illustrator 22.0.1, SVG Export Plug-In . SVG Version: 6.00 Build 0)  -->
<svg version="1.1" id="Layer_1" xmlns="http://www.w3.org/2000/svg" xmlns:xlink="http://www.w3.org/1999/xlink" x="0px" y="0px"
	 viewBox="0 0 512 512" style="enable-background:new 0 0 512 512;" xml:space="preserve">
<g>
	<path d="M109.6,416.7c-1.9-1.9-5.7-0.5-5.6,2.2c1,21.5,1.4,29,5.5,29c4.6,0,50.7,0,55.1,0c4.4,0,3.3-11.5,3.3-22
		C133.6,426,121,428.2,109.6,416.7z"/>
	<path d="M402.4,416.7c1.9-1.9,5.7-0.5,5.6,2.2c-1,21.5-1.4,29-5.5,29c-4.6,0-50.7,0-55.1,0c-4.4,0-3.3-11.5-3.3-22
		C378.4,426,391,428.2,402.4,416.7z"/>
	<path d="M384,64h-8H136h-8c-17.6,0-32,14.4-32,32l0,0l0,276c0,22,18,40,40,40h240c22,0,40-18,40-40V96l0,0
		C416,78.4,401.6,64,384,64z M162,375.9c-14.8,1.2-27-11.1-25.9-25.9c0.9-11.6,10.3-21.1,22-22c14.8-1.2,27,11.1,25.9,25.9
		C183,365.6,173.6,375,162,375.9z M238,298h-97.8c-8.9,0-16.2-7.3-16.2-16.2V166.2c0-8.9,7.3-16.2,16.2-16.2H238c2.2,0,4,1.8,4,4
		v140C242,296.2,240.2,298,238,298z M353.9,375.9c-14.8,1.2-27-11.1-25.9-25.9c0.9-11.6,10.3-21.1,22-22c14.8-1.2,27,11.1,25.9,25.9
		C375,365.6,365.6,375,353.9,375.9z M388,282c0,8.8-7.2,16-16,16h-98c-2.2,0-4-1.8-4-4V154c0-2.2,1.8-4,4-4h98c8.8,0,16,7.2,16,16
		V282z M373,120H139c-8.8,0-15-6.3-15-14c0-7.7,6.2-14,15-14h234c8.8,0,15,6.3,15,14C388,113.7,381.8,120,373,120z"/>
</g>
</svg>
