<?xml version="1.0" encoding="utf-8"?>
<!-- Generator: Adobe Illustrator 18.1.1, SVG Export Plug-In . SVG Version: 6.00 Build 0)  -->
<svg version="1.1" id="Layer_1" xmlns="http://www.w3.org/2000/svg" xmlns:xlink="http://www.w3.org/1999/xlink" x="0px" y="0px"
	 viewBox="0 0 512 512" enable-background="new 0 0 512 512" xml:space="preserve">
<g>
	<path d="M385.1,230.2c-26.7,0-60.1,6.9-86.3,13.5c-0.9-3.2-2.1-6.2-3.7-9.1c23.2-13.8,51.7-32.5,70.5-51.4
		c36.7-36.7,48.3-63.6,37.6-74.3c-2.6-2.6-6-3.8-10.3-3.8c-13.8,0-36,13.4-64,41.4c-18.8,18.8-37.6,47.2-51.4,70.4
		c-2.8-1.6-5.9-2.8-9.1-3.8c6.7-26.2,13.5-59.5,13.5-86.1c0-51.9-10.8-79.1-26-79.1s-26,27.2-26,79.1c0,26.6,6.8,60,13.5,86.1
		c-3.2,0.9-6.2,2.2-9.1,3.8c-13.8-23.2-32.5-51.6-51.4-70.4c-28-28-50.3-41.4-64-41.4c-4.3,0-7.7,1.3-10.3,3.8
		c-10.8,10.8,0.8,37.6,37.6,74.3c18.9,18.9,47.3,37.6,70.5,51.4c-1.5,2.8-2.8,5.9-3.7,9.1c-26.2-6.7-59.6-13.5-86.3-13.5
		C74.9,230.2,48,240.8,48,256s26.9,26.2,78.9,26.2c26.7,0,60.2-6.9,86.4-13.6c0.9,3.1,2.2,6.2,3.8,9c-23.3,13.8-51.8,32.6-70.7,51.5
		c-36.7,36.7-48.3,63.6-37.6,74.3c2.6,2.6,6,3.8,10.3,3.8c13.8,0,36-13.4,64-41.4c18.9-18.9,37.8-47.5,51.6-70.8
		c2.8,1.5,5.8,2.8,9,3.7c-6.7,26.2-13.6,59.8-13.6,86.5c0,51.9,10.8,78.6,26,78.6s26-26.7,26-78.6c0-26.8-6.9-60.3-13.6-86.5
		c3.1-0.9,6.1-2.1,9-3.7c13.8,23.3,32.6,51.9,51.6,70.8c28,28,50.3,41.4,64,41.4c4.3,0,7.7-1.3,10.3-3.8
		c10.8-10.8-0.8-37.6-37.6-74.3c-18.9-18.9-47.5-37.7-70.7-51.5c1.6-2.8,2.8-5.8,3.8-9c26.2,6.7,59.7,13.6,86.4,13.6
		c51.9,0,78.9-10.8,78.9-26S437.1,230.2,385.1,230.2z M339.4,157c32.9-32.9,48.9-36.6,52.8-37c-0.2,2.1-1.2,6.8-5.9,14.8
		c-6.3,10.8-17,23.9-31.1,37.9c-12.6,12.6-31.8,27-56.2,42.2c-0.6-0.6-1.2-1.2-1.8-1.8C312.4,188.9,326.9,169.6,339.4,157z
		 M249.7,78.3c2.4-9,4.9-13.1,6.3-14.7c1.4,1.7,3.9,5.7,6.3,14.7c3.2,12.1,4.9,28.9,4.9,48.8c0,17.8-3.4,41.6-9.9,69.5
		c-0.4,0-0.8,0-1.3,0c-0.4,0-0.8,0-1.3,0c-6.5-27.9-9.9-51.7-9.9-69.5C244.9,107.3,246.5,90.4,249.7,78.3z M213,215
		c-24.3-15.2-43.6-29.6-56.2-42.2c-14-14-24.7-27.1-31.1-37.9c-4.7-8-5.8-12.7-5.9-14.8c3.8,0.4,19.9,4.1,52.8,37
		c12.6,12.6,27,31.8,42.2,56.2C214.2,213.8,213.6,214.4,213,215z M126.9,267.4c-19.8,0-36.7-1.7-48.7-5c-9-2.4-13-5-14.6-6.4
		c1.6-1.3,5.6-3.9,14.7-6.2c12-3.1,28.8-4.7,48.6-4.7c17.8,0,41.7,3.4,69.7,9.9c0,0.3,0,0.7,0,1c0,0.5,0,1,0,1.4
		C168.6,264,144.7,267.4,126.9,267.4z M172.6,355.4c-32.9,32.9-48.9,36.6-52.8,37c0.2-2.1,1.2-6.8,5.9-14.8
		c6.3-10.8,17-23.9,31.1-37.9c12.6-12.6,32-27.1,56.5-42.4c0.5,0.6,1.1,1.1,1.7,1.7C199.7,323.4,185.2,342.8,172.6,355.4z
		 M262.3,433.9c-2.4,9-5,13-6.3,14.5c-1.3-1.6-3.9-5.5-6.3-14.5c-3.2-12-4.8-28.8-4.8-48.6c0-17.9,3.4-41.8,10-69.9
		c0.4,0,0.8,0,1.2,0s0.8,0,1.2,0c6.5,28.1,10,52.1,10,69.9C267.1,405.2,265.5,421.9,262.3,433.9z M256,288c-17.7,0-32-14.3-32-32
		s14.3-32,32-32s32,14.3,32,32S273.7,288,256,288z M298.7,297.3c24.5,15.2,43.9,29.7,56.5,42.4c14,14,24.8,27.1,31.1,37.9
		c4.7,8,5.8,12.7,5.9,14.8c-3.8-0.4-19.9-4.1-52.8-37c-12.6-12.6-27.1-32-42.4-56.5C297.6,298.4,298.2,297.9,298.7,297.3z
		 M433.8,262.5c-12,3.2-28.9,4.8-48.7,4.8c-17.8,0-41.7-3.4-69.7-9.9c0-0.5,0-1,0-1.4c0-0.3,0-0.7,0-1c28-6.5,51.9-9.9,69.7-9.9
		c19.8,0,36.6,1.7,48.7,4.8c9,2.4,13,4.9,14.6,6.3C446.8,257.6,442.8,260.2,433.8,262.5z"/>
	<path d="M318.4,376.4c-8.5-8.5-16.9-18.7-24.8-29.5c2,13.2,3.3,26.4,3.3,38.4c0,11.7-0.5,22.5-1.6,32.1
		c12.3,21.8,24.3,32.7,34,32.7c1.6,0,3.2-0.3,4.7-0.9c11-4.5,13.3-23.3,4.5-54.3C332.1,389.6,325.4,383.4,318.4,376.4z M328.2,434.8
		c-2.5-1.4-8.7-5.9-17.6-20.7c0.6-7.3,1-15.2,1.1-23.5c4.7,4.5,9.2,8.8,13.7,12.6C330.1,421.7,329.3,431.3,328.2,434.8z"/>
	<path d="M193.8,136.1c8.4,8.4,16.7,18.5,24.6,29.2c-2-13.2-3.2-26.3-3.2-38.2c0-11.7,0.5-22.5,1.6-32.1
		c-12.3-21.8-24.3-32.7-34-32.7c-1.6,0-3.2,0.3-4.7,0.9c-11,4.5-13.3,23.3-4.5,54.3C180,122.9,186.8,129.1,193.8,136.1z M183.8,77.7
		c2.5,1.4,8.7,5.9,17.6,20.7c-0.6,7.3-1,15.1-1.1,23.4c-4.6-4.5-9.2-8.7-13.7-12.6C181.9,90.8,182.7,81.2,183.8,77.7z"/>
	<path d="M135.8,318.6c8.5-8.5,18.7-16.9,29.5-24.8c-13.2,2-26.4,3.3-38.4,3.3c-11.7,0-22.5-0.5-32.1-1.6
		c-25.5,14.4-36.1,28.2-31.8,38.7c2.6,6.4,10.1,9.9,22.1,9.9c8.5,0,19.3-1.7,32.2-5.4C122.7,332.3,128.8,325.6,135.8,318.6z
		 M85.1,329.3c-3.8,0-6.3-0.5-7.6-0.9c1.4-2.6,5.9-8.7,20.7-17.6c7.3,0.6,15.2,1,23.5,1.1c-4.5,4.6-8.7,9.2-12.6,13.7
		C99.6,328,91.4,329.3,85.1,329.3z"/>
	<path d="M376.2,193.8c-8.5,8.5-18.7,16.9-29.5,24.8c13.2-2,26.4-3.3,38.4-3.3c11.7,0,22.5,0.5,32.1,1.6
		c25.5-14.4,36.1-28.2,31.8-38.7c-2.6-6.4-10.1-9.9-22.1-9.9c-8.5,0-19.3,1.7-32.2,5.4C389.3,180.2,383.2,186.9,376.2,193.8z
		 M426.9,183.2c3.8,0,6.3,0.5,7.6,0.9c-1.4,2.6-6,8.7-20.7,17.6c-7.3-0.6-15.2-1-23.5-1.1c4.5-4.6,8.7-9.2,12.6-13.7
		C412.4,184.4,420.6,183.2,426.9,183.2z"/>
	<path d="M193.6,376.4c-8.3,8.3-16.3,15.6-23.8,21.6c-7.8,28.2-5.5,45.4,4.9,49.9c1.6,0.7,3.2,1,4.9,1c10.3,0,23.2-12,36.7-36.2
		c-0.7-8.4-1.1-17.5-1.1-27.3c0-12,1.3-25.2,3.3-38.4C210.5,357.7,202.1,367.9,193.6,376.4z M180.8,433.5c-0.8-2.8-2-10.4,2.1-27.1
		c5.6-4.7,11.4-10,17.4-15.8c0.1,6.5,0.3,12.7,0.8,18.6C191.4,425.6,184.1,431.9,180.8,433.5z"/>
	<path d="M318.4,136.2c8.3-8.3,16.2-15.5,23.7-21.5c7.9-28.4,5.7-45.8-4.8-50.2c-1.6-0.7-3.2-1-4.9-1c-10.3,0-23.2,12-36.7,36.2
		c0.7,8.4,1.1,17.5,1.1,27.3c0,12.1-1.3,25.3-3.3,38.7C301.5,155,309.9,144.7,318.4,136.2z M331.2,78.9c0.8,2.8,2,10.4-2.2,27.4
		c-5.6,4.7-11.4,10-17.3,15.7c-0.1-6.6-0.3-12.9-0.8-18.8C320.6,86.8,327.9,80.6,331.2,78.9z"/>
	<path d="M99.6,216.5c8.4-0.7,17.5-1.1,27.3-1.1c12,0,25.1,1.3,38.3,3.3c-10.7-7.9-20.9-16.3-29.4-24.8
		c-8.3-8.3-15.6-16.3-21.7-23.9c-11.3-3.1-20.9-4.6-28.6-4.6c-11.4,0-18.6,3.3-21.2,9.5C59.7,185.8,71.4,200.8,99.6,216.5z
		 M85.6,180.2c5.4,0,12.3,1,20.1,2.9c4.7,5.6,10,11.4,15.8,17.4c-6.5,0.1-12.7,0.3-18.6,0.8c-16.4-9.7-22.6-17-24.3-20.3
		C80,180.6,82.2,180.2,85.6,180.2z"/>
	<path d="M412.4,296c-8.4,0.7-17.5,1.1-27.3,1.1c-12,0-25.2-1.3-38.4-3.3c10.8,7.9,21,16.4,29.5,24.8c8.3,8.3,15.5,16.3,21.6,23.8
		c11.4,3.2,20.9,4.7,28.6,4.7c11.4,0,18.6-3.3,21.2-9.5C452.3,326.6,440.6,311.7,412.4,296z M426.4,332.3c-5.4,0-12.3-1-20.2-3
		c-4.7-5.6-10-11.4-15.8-17.4c6.5-0.1,12.7-0.3,18.6-0.8c16.4,9.7,22.6,17,24.3,20.3C432,331.9,429.8,332.3,426.4,332.3z"/>
</g>
</svg>
