<?xml version="1.0" encoding="utf-8"?>
<!-- Generator: Adobe Illustrator 18.1.1, SVG Export Plug-In . SVG Version: 6.00 Build 0)  -->
<svg version="1.1" id="Layer_1" xmlns="http://www.w3.org/2000/svg" xmlns:xlink="http://www.w3.org/1999/xlink" x="0px" y="0px"
	 viewBox="0 0 512 512" enable-background="new 0 0 512 512" xml:space="preserve">
<g>
	<path d="M207.8,400c0,26,21.6,47.9,48.1,47.9S304,426,304,400H207.8z"/>
	<path d="M373.9,229.2c0-99-49-132.8-94.9-140.5c0-0.6,0.1-1.1,0.1-1.7c0-12.7-10.3-23-23-23s-23,10.3-23,23c0,0.6,0,1.2,0.1,1.8
		c-45.9,7.8-94.9,41.9-94.9,140.7C138.1,345,115.6,352,80,384h352C396.6,352,373.9,344.9,373.9,229.2z"/>
</g>
</svg>
