<?xml version="1.0" encoding="utf-8"?>
<!-- Generator: Adobe Illustrator 22.0.1, SVG Export Plug-In . SVG Version: 6.00 Build 0)  -->
<svg version="1.1" id="Layer_1" xmlns="http://www.w3.org/2000/svg" xmlns:xlink="http://www.w3.org/1999/xlink" x="0px" y="0px"
	 viewBox="0 0 512 512" style="enable-background:new 0 0 512 512;" xml:space="preserve">
<g>
	<path d="M431,320.6c0-4.4,1.2-8.6,3.3-12.2c0.6-1.1,1.4-2.1,2.1-3.1c17.4-26,27.6-57.1,27.6-90.3C464.3,122.8,386.5,48,290.3,48
		c-83.9,0-153.9,57.1-170.3,132.9c-2.4,11.1-3.7,22.4-3.7,34.2c0,92.3,74.8,169.1,171,169.1c15.3,0,35.9-4.6,47.2-7.7
		c11.3-3.1,22.5-7.2,25.4-8.3c2.9-1.1,6.1-1.7,9.3-1.7c3.6,0,7,0.7,10.1,2l56.7,20.1c0,0,2.4,1,3.9,1c4.4,0,8-3.5,8-8
		c0-1-0.5-2.7-0.5-2.7L431,320.6z"/>
	<path d="M318.5,392.5c-3.6,1-8.2,2.1-13.2,3.2c-10.5,2.2-23.9,4.5-34,4.5c-96.2,0-171-76.8-171-169.1c0-6.6,0.7-15,1.5-21.4
		c0.6-4.3,1.3-8.6,2.3-12.8c1-4.5,2.2-9,3.5-13.4l-8,7.1C66.8,219.2,48,260,48,302.5c0,29.3,8.5,57.5,24.8,82c2.3,3.5,3.6,6.2,3.2,8
		c-0.4,1.8-11.9,62-11.9,62c-0.6,2.9,0.5,5.8,2.7,7.7c1.5,1.2,3.3,1.8,5.1,1.8c1,0,2-0.2,2.9-0.6l56.1-22.1c1.8-0.7,3.7-1.1,5.7-1.1
		c0,0,2.4-0.2,6.3,1.3c18.9,7.4,39.8,12,60.7,12c46.6,0,90.4-20.1,120.1-55.1c0,0,3.2-4.4,6.9-9.6
		C326.9,390.1,322.7,391.4,318.5,392.5z"/>
</g>
</svg>
