<?xml version="1.0" encoding="utf-8"?>
<!-- Generator: Adobe Illustrator 22.0.1, SVG Export Plug-In . SVG Version: 6.00 Build 0)  -->
<svg version="1.1" id="Layer_1" xmlns="http://www.w3.org/2000/svg" xmlns:xlink="http://www.w3.org/1999/xlink" x="0px" y="0px"
	 viewBox="0 0 512 512" style="enable-background:new 0 0 512 512;" xml:space="preserve">
<g>
	<g>
		<path d="M448,367.5V129.1c0-9.4-7.9-17.1-17.2-17.1H81.2c-9.3,0-17.2,7.6-17.2,17.1v238.4H15.9l0,0c0,9.9,9.9,18.8,18.9,22.7
			C45.7,394.8,64,400,84,400h344c20,0,38.2-4.5,48.3-8.8c9.5-4,19.8-13.4,19.8-23.7l0,0H448z M256,120c2.2,0,4,1.8,4,4
			c0,2.2-1.8,4-4,4s-4-1.8-4-4C252,121.8,253.8,120,256,120z M82,136.2h348c1.1,0,2,0.9,2,2v211.3c0,1.1-0.9,2-2,2H82
			c-1.1,0-2-0.9-2-2V138.2C80,137,80.9,136.2,82,136.2z M298.3,375.5c0,0-79.3,0-84.6,0c-5.2,0-9.7-6-9.7-7.5h104
			C308,369.5,305,375.5,298.3,375.5z"/>
	</g>
</g>
</svg>
