<?xml version="1.0" encoding="utf-8"?>
<!-- Generator: Adobe Illustrator 22.0.1, SVG Export Plug-In . SVG Version: 6.00 Build 0)  -->
<svg version="1.1" id="Layer_1" xmlns="http://www.w3.org/2000/svg" xmlns:xlink="http://www.w3.org/1999/xlink" x="0px" y="0px"
	 viewBox="0 0 512 512" style="enable-background:new 0 0 512 512;" xml:space="preserve">
<g>
	<g>
		<path d="M88.3,68.1c-5.6-5.5-14.6-5.5-20.1,0.1c-5.5,5.5-5.5,14.5,0,20l355.5,355.7c3.7,3.7,9,4.9,13.7,3.6
			c2.4-0.6,4.6-1.9,6.4-3.7c5.5-5.5,5.5-14.5,0-20L88.3,68.1z"/>
	</g>
	<g>
		<path d="M260.2,345.9c-53,2.4-96.6-41.2-94.1-94.1c0.6-12.2,3.6-23.8,8.6-34.3L121.3,164c-27.7,21.4-55.4,48.9-85.1,81.3
			c-5.5,6.1-5.6,15.2-0.1,21.3C101,338.3,158.2,400,255.8,400c29.7,0,57.1-7.4,82.3-19.2l-43.5-43.5
			C284,342.3,272.4,345.3,260.2,345.9z"/>
		<path d="M475.8,266c5.3-5.8,5.6-14.6,0.5-20.7C424,181.8,351.5,112,255.8,112c-29.1,0-56,6.6-82,19l43.7,43.7
			c10.5-5,22.1-8.1,34.3-8.6c53-2.4,96.6,41.2,94.1,94.1c-0.6,12.2-3.6,23.8-8.6,34.3l53.5,53.5C423.8,322.7,452.1,292.1,475.8,266z
			"/>
		<path d="M192.2,260.9c2.4,31.3,27.6,56.5,58.9,58.9c8.2,0.6,16.1-0.3,23.4-2.6l-79.8-79.8C192.5,244.8,191.6,252.7,192.2,260.9z"
			/>
		<path d="M320,256c0-1.3-0.1-2.6-0.1-3.9c-5.6,2.5-11.7,3.9-18.2,3.9c-1.1,0-2.1,0-3.1-0.1l18.6,18.7C319,268.7,320,262.4,320,256z
			"/>
		<path d="M256,209c0-6,1.1-11.7,3.1-16.9c-1,0-2-0.1-3.1-0.1c-6.4,0-12.6,1-18.5,2.8l18.7,18.7C256.1,212,256,210.5,256,209z"/>
	</g>
</g>
</svg>
