<?xml version="1.0" encoding="utf-8"?>
<!-- Generator: Adobe Illustrator 18.1.1, SVG Export Plug-In . SVG Version: 6.00 Build 0)  -->
<svg version="1.1" id="Layer_1" xmlns="http://www.w3.org/2000/svg" xmlns:xlink="http://www.w3.org/1999/xlink" x="0px" y="0px"
	 viewBox="0 0 512 512" enable-background="new 0 0 512 512" xml:space="preserve">
<g>
	<path d="M223.7,346.3c-3.1-3.1-8.2-3.1-11.3,0c-3.1,3.1-3.1,8.2,0,11.3L264,408H160c-49.2,0-57-42.3-57-88V159.6
		c32.1-3.5,57-30.6,57-63.6c0-35.3-28.7-64-64-64S32,60.7,32,96c0,32.3,23.9,59,55,63.4V320c0,14.3,0,40.9,9,63
		c11,27.2,33.3,41,64,41h104l-49.7,50.4c-3.1,3.1-3.1,8.2,0,11.3c1.6,1.5,3.6,2.3,5.7,2.3c2.1,0,4.1-0.7,5.7-2.3l57.6-57.4
		c6.3-6.3,6.3-16.4,0-22.6L223.7,346.3z M48,96c0-26.5,21.5-48,48-48s48,21.5,48,48s-21.5,48-48,48S48,122.5,48,96z"/>
	<path d="M425,352.6V192c0-14.3,0-40.9-9-63c-11-27.2-33.3-41-64-41H248l49.7-50.4c3.1-3.1,3.1-8.2,0-11.3c-1.6-1.5-3.6-2.3-5.7-2.3
		c-2.1,0-4.1,0.7-5.7,2.3l-57.6,57.4c-6.3,6.3-6.3,16.4,0,22.6l59.6,59.4c3.1,3.1,8.2,3.1,11.3,0c3.1-3.1,3.1-8.2,0-11.3L248,104
		h104c49.2,0,57,42.3,57,88v160.4c-32.1,3.5-57,30.6-57,63.6c0,35.3,28.7,64,64,64s64-28.7,64-64C480,383.7,456.1,357,425,352.6z
		 M416,464c-26.5,0-48-21.5-48-48s21.5-48,48-48s48,21.5,48,48S442.5,464,416,464z"/>
</g>
</svg>
