<?xml version="1.0" encoding="utf-8"?>
<!-- Generator: Adobe Illustrator 22.0.1, SVG Export Plug-In . SVG Version: 6.00 Build 0)  -->
<svg version="1.1" id="Layer_1" xmlns="http://www.w3.org/2000/svg" xmlns:xlink="http://www.w3.org/1999/xlink" x="0px" y="0px"
	 viewBox="0 0 512 512" style="enable-background:new 0 0 512 512;" xml:space="preserve">
<g>
	<path d="M262.3,199.2c-1.6-2.8-5.6-3.2-7.7-0.7l-91.9,122.2c-2.5,2.9-0.6,7.4,3.2,7.7l161.1,14c3.8,0.3,6.4-3.8,4.5-7.1
		L262.3,199.2z"/>
	<path d="M367.2,264.1c-1.6-2.8-5.6-3.2-7.7-0.7l-24.8,25.1c-1.3,1.5-1.5,3.7-0.5,5.4l25.4,49.5c0.8,1.3,2.1,2.2,3.7,2.3l44.9,3.9
		c3.8,0.3,6.4-3.8,4.5-7.1L367.2,264.1z"/>
	<path d="M378.1,224.4c11.2-0.1,20.9-8.3,23-19.2c2.8-14.8-8.6-28.3-23.7-28.1c-11.2,0.1-20.9,8.3-23,19.2
		C351.6,211.1,363,224.6,378.1,224.4z"/>
	<path d="M455.2,129.3l-65.8-5.7l-6.1-67c-1.3-14.9-14.5-25.9-29.5-24.5L56.7,58.9c-14.9,1.3-25.9,14.5-24.6,29.4l26.8,296.5
		c1.3,14.9,14.5,25.9,29.5,24.5l15.7-1.4l-1.5,16.7c-1.3,14.9,9.7,28,24.7,29.3l297.3,25.9c14.9,1.3,28.1-9.7,29.4-24.6l26-296.6
		C481.2,143.8,470.2,130.6,455.2,129.3z M87.6,300.7c-3.7,0.3-7-2.4-7.4-6.1L62.2,94.6c-0.3-3.7,2.4-7,6.1-7.3l279.2-25.1
		c3.7-0.3,7,2.4,7.4,6.1l4.8,52.8L158,103.4c-14.9-1.3-28.1,9.7-29.4,24.6l-14.9,170.3L87.6,300.7z M449.8,165.1l-17.5,200
		c-0.3,3.7-3.6,6.5-7.3,6.2l-18.6-1.6l-260.7-22.7c-3.7-0.3-6.5-3.6-6.2-7.3l3.8-43.9l13.7-156.1c0.3-3.7,3.6-6.5,7.3-6.2l198,17.3
		l29.7,2.6l51.6,4.5C447.4,158.1,450.2,161.4,449.8,165.1z"/>
</g>
</svg>
