<?xml version="1.0" encoding="utf-8"?>
<!-- Generator: Adobe Illustrator 18.1.1, SVG Export Plug-In . SVG Version: 6.00 Build 0)  -->
<svg version="1.1" id="Layer_1" xmlns="http://www.w3.org/2000/svg" xmlns:xlink="http://www.w3.org/1999/xlink" x="0px" y="0px"
	 viewBox="0 0 512 512" enable-background="new 0 0 512 512" xml:space="preserve">
<g>
	<path d="M290.8,213.5C286,205,277,202.2,266,202.2V202c-6,0-14.3,1.3-22.6,2.9c-11.9,2.3-19.7,7.1-19.7,7.1s3.6,27.3,0.1,58.5
		c-3.5,31.2-7.9,42.5-7.9,42.5s5.3,12.1,40,15c3.9,0.3,7.6,0.5,11,0.5c24.5,0,36.4-7.3,36.4-7.3s3.3-5.4,4.3-22.1
		C309.5,266.9,300.6,230.6,290.8,213.5z"/>
	<path d="M211.7,208.8c-22-40.2-92.2-96.8-127.3-96.8C57.9,112,32,180.5,32,256s23,144,51.5,144c33.4,0,116.5-80,116.5-80
		s5.7-12.6,9.9-33.6l1.8-10.4c0.7-4.7,1.3-9.7,1.7-15c0.3-3.5,0.5-6.8,0.6-9.9l0.3-9.8C215,225.3,211.7,208.8,211.7,208.8z M115,224
		c0-1,0.7-1.8,1.7-1.9c0.6-0.1,14.9-2.5,43,3c21,4.1,35.1,9.6,42.7,13.2l-1.3,14.3c-2.6-0.9-5.3-1.8-8.5-3c-4.7-1.7-10.5-3.7-19-6.7
		c-38.1-13.1-56.7-16.9-56.9-16.9C115.7,225.8,115,224.9,115,224z M197.5,289.1c-20.1,4.7-59.4,7.7-61.1,7.8c-1,0.1-2-0.6-2.1-1.7
		c-0.2-1,0.5-2,1.5-2.3c0,0,21-5.5,38-10c11.5-3,21.1-6.5,26.4-8.5L197.5,289.1z"/>
	<path d="M427.6,112c-36.4,0-102.4,56.5-124.3,96.8l-0.8,1.4c0,0,1.4,2.5,1.9,3.4c3.4,6,6.7,14.3,9.4,24l2.9,11.7
		c2.2,10.2,3.7,21.2,4.2,32.2l0.2,9c0,2.9-0.1,5.7-0.3,8.5c-1,16.7-4.6,22.1-4.6,22.1c7.6,10.5,75,78.9,112.2,78.9
		c28.5,0,51.5-68.5,51.5-144S454.1,112,427.6,112z M359.8,223.1c19.9-7,35.2-9.6,35.3-9.6c1-0.2,2,0.4,2.2,1.4c0.3,1-0.2,2-1.1,2.4
		c-0.5,0.2-50.7,22.9-68.2,33.5c0,0,0,0.2,0,0.2h0c0,0,0-0.1,0-0.2l-3.8-15.3l0-0.1C334.2,232.1,347.7,227.3,359.8,223.1z
		 M401.2,303.1c-0.2,0.9-1,1.6-2,1.6c-0.1,0-0.1,0-0.2,0c-2.1-0.2-49.4-4.9-68-11.6c-2-11.6,0.9-12.4,0.9-12.9
		c5.9,2.3,15.8,5.9,27.4,9c18.8,5,40.3,11.5,40.5,11.5C400.8,301.1,401.4,302.1,401.2,303.1z"/>
</g>
</svg>
