<?xml version="1.0" encoding="utf-8"?>
<!-- Generator: Adobe Illustrator 18.1.1, SVG Export Plug-In . SVG Version: 6.00 Build 0)  -->
<svg version="1.1" id="Layer_1" xmlns="http://www.w3.org/2000/svg" xmlns:xlink="http://www.w3.org/1999/xlink" x="0px" y="0px"
	 viewBox="0 0 512 512" enable-background="new 0 0 512 512" xml:space="preserve">
<g>
	<path d="M32,96v320h448V96H32z M430,255.8c0,20.9-1.1,37.2-2.8,61.9l-0.5,7.8c-1.9,27.8-16.4,42.6-44.5,45.2
		c-32.2,3-76.9,3.3-112.3,3.3c-4.7,0-9.3,0-13.9,0h0c-4.6,0-9.2,0-13.9,0c-35.4,0-80.2-0.4-112.3-3.3c-28-2.6-42.6-17.4-44.5-45.2
		l-0.5-7.7c-1.7-24.7-2.8-41-2.8-62c0-23.5,0.1-38.3,3.3-69.4c2.9-28.1,17-42.5,44.6-45.3c31.2-3.2,86.1-3.2,126.1-3.2
		c40.1,0,95,0,126.2,3.2c27.5,2.8,41.7,17.2,44.6,45.3C429.9,217.5,430.1,232.3,430,255.8z"/>
	<g>
		<path d="M337.7,162.4c-10.9,0-20.9,1.4-30,4.3c-9.1,2.9-17,7.9-23.6,15.1c-6.6,7.2-11.7,16.8-15.4,28.9
			c-3.6,12.1-5.5,27.3-5.5,45.7c0,18,1.5,33,4.4,45.1c3,12.1,7.3,21.7,13.1,28.9c5.8,7.2,13.1,12.2,21.8,15
			c8.8,2.8,19.1,4.2,30.9,4.2c25,0,43-6.4,53.8-18.7c10.8-12.3,16.2-30.3,16.2-53.9h-46.1c0,0,0,2.5,0,3.4v0.7
			c0,16.3-10.1,25.9-23.6,25.9c-13.5,0-22.6-10.8-23.9-25.9c0,0-1.2-7.9-1.2-23.9s1.4-26,1.4-26c2.4-17,10.7-25.9,24.2-25.9
			c13.4,0,24.1,11.6,24.1,29.2c0,0.1,0,0.5,0,0.5h45.1c0-21.9-5.5-41.6-16.6-54C376,168.6,359.6,162.4,337.7,162.4L337.7,162.4z"/>
		<path d="M182.8,162.4c-10.9,0-20.9,1.4-30,4.3c-9.1,2.9-17,7.9-23.6,15.1c-6.6,7.2-11.7,16.8-15.4,28.9
			c-3.6,12.1-5.5,27.3-5.5,45.7c0,18,1.5,33,4.4,45.1c3,12.1,7.3,21.7,13.1,28.9c5.8,7.2,13.1,12.2,21.8,15
			c8.8,2.8,19.1,4.2,30.9,4.2c25,0,43-6.4,53.8-18.7c10.8-12.3,16.2-30.3,16.2-53.9h-46.1c0,0,0,2.5,0,3.4v0.7
			c0,16.3-10.1,25.9-23.6,25.9c-13.5,0-22.6-10.8-23.9-25.9c0,0-1.2-7.9-1.2-23.9s1.4-26,1.4-26c2.4-17,10.7-25.9,24.2-25.9
			c13.4,0,24.1,11.6,24.1,29.2c0,0.1,0,0.5,0,0.5h45.1c0-21.9-5.5-41.6-16.6-54C221.1,168.6,204.7,162.4,182.8,162.4L182.8,162.4z"
			/>
	</g>
</g>
</svg>
