<?xml version="1.0" encoding="utf-8"?>
<!-- Generator: Adobe Illustrator 22.0.1, SVG Export Plug-In . SVG Version: 6.00 Build 0)  -->
<svg version="1.1" id="Layer_1" xmlns="http://www.w3.org/2000/svg" xmlns:xlink="http://www.w3.org/1999/xlink" x="0px" y="0px"
	 viewBox="0 0 512 512" style="enable-background:new 0 0 512 512;" xml:space="preserve">
<g>
	<path d="M256,48C141.1,48,48,141.1,48,256c0,114.7,93.3,208,208,208c114.9,0,208-93.1,208-208C464,141.3,370.7,48,256,48z
		 M182.1,200.1c14.8-1.2,27,11.1,25.9,25.9c-0.9,11.6-10.3,21.1-22,22c-14.8,1.2-27-11.1-25.9-25.9C161,210.4,170.4,201,182.1,200.1
		z M181.4,352c-11.5,0-19.3-11.8-14.7-22.4c15-34.5,49.2-58.6,89.3-58.6s74.2,24.1,89.3,58.6c4.6,10.6-3.1,22.4-14.7,22.4
		c0,0-34.7-4-73.1-4C219,348,181.4,352,181.4,352z M329.9,247.9c-14.8,1.2-27-11.1-25.9-25.9c0.9-11.6,10.3-21.1,22-22
		c14.8-1.2,27,11.1,25.9,25.9C351,237.6,341.6,247,329.9,247.9z"/>
</g>
</svg>
