<?xml version="1.0" encoding="utf-8"?>
<!-- Generator: Adobe Illustrator 18.1.1, SVG Export Plug-In . SVG Version: 6.00 Build 0)  -->
<svg version="1.1" id="Layer_1" xmlns="http://www.w3.org/2000/svg" xmlns:xlink="http://www.w3.org/1999/xlink" x="0px" y="0px"
	 viewBox="0 0 512 512" enable-background="new 0 0 512 512" xml:space="preserve">
<g>
	<path d="M374.4,141.9l-13.3-0.1C349.4,88.2,306,48,236,48S108.2,98.4,108.2,169.5l0.3,4.8C66.3,179.9,32,219.6,32,264
		c0,47,37.9,88,84.7,88h96.8l8.6-32h-51h-19.9l4.3-19.5l32-144l2.8-12.5H203h101.7h21.5l-6.2,20.6L302.2,224H341h29l-15.4,24.5
		L289.4,352H367c72,0,113-52,113-110C480,183.4,432.7,141.9,374.4,141.9z"/>
	<polygon points="341,240 280.7,240 304.7,160 203,160 171,304 243,304 200.1,464 	"/>
</g>
</svg>
