<?xml version="1.0" encoding="utf-8"?>
<!-- Generator: Adobe Illustrator 22.0.1, SVG Export Plug-In . SVG Version: 6.00 Build 0)  -->
<svg version="1.1" id="Layer_1" xmlns="http://www.w3.org/2000/svg" xmlns:xlink="http://www.w3.org/1999/xlink" x="0px" y="0px"
	 viewBox="0 0 512 512" style="enable-background:new 0 0 512 512;" xml:space="preserve">
<g>
	<path d="M256,123.8c-24.3,0-46.9,10.1-63.9,28.4c-17,18.3-26.1,33.2-26.1,59.6c0,7.7,5.9,14,13.2,14c7.3,0,13.2-6.3,13.2-14
		c0-17.3,6.6-32.4,19-43.5c11.8-10.6,27.7-16.5,44.7-16.5s32.9,5.8,44.7,16.5c12.4,11.2,19,26.2,19,43.5c0,7.7,5.9,14,13.2,14
		c7.3,0,13.2-6.3,13.2-14c0-26.4-9.2-41.3-26.1-59.6C302.9,133.8,280.3,123.8,256,123.8z"/>
	<path d="M457.1,278.9C442.3,264.1,422.8,256,402,256h-8c-2.2,0-4-1.8-4-4v-37.8c0-35.7-14-69.3-39.4-94.7C325.3,94,291.7,80,256,80
		c-35.7,0-69.3,14-94.6,39.4c-25.4,25.4-39.4,59-39.4,94.7V252c0,2.2-1.8,4-4,4h-8c-20.8,0-40.3,8.1-55.1,22.9
		C40.1,293.7,32,313.2,32,334v11.8c0,20.8,8.1,40.4,22.9,55.2c14.8,14.8,34.4,23,55.1,23h5.6c4,0,8,1.4,10.9,4.1
		c2.5,2.3,5.9,3.8,9.5,3.8c7.7,0,14-6.3,14-14.1V214.1c0-28.2,11.1-54.8,31.2-74.9c20.1-20.1,46.7-31.2,74.8-31.2
		c28.2,0,54.8,11.1,74.8,31.2c20.1,20.1,31.2,46.7,31.2,74.9v203.8c0,7.8,6.3,14.1,14,14.1c3.6,0,7-1.5,9.5-3.8
		c2.9-2.7,6.9-4.1,10.9-4.1h5.6c20.7,0,40.3-8.2,55.1-23c14.8-14.8,22.9-34.4,22.9-55.2V334C480,313.2,471.9,293.7,457.1,278.9z"/>
</g>
</svg>
