<?xml version="1.0" encoding="utf-8"?>
<!-- Generator: Adobe Illustrator 22.0.1, SVG Export Plug-In . SVG Version: 6.00 Build 0)  -->
<svg version="1.1" id="Layer_1" xmlns="http://www.w3.org/2000/svg" xmlns:xlink="http://www.w3.org/1999/xlink" x="0px" y="0px"
	 viewBox="0 0 512 512" style="enable-background:new 0 0 512 512;" xml:space="preserve">
<g>
	<path d="M256,165.8c-49.9,0-90.3,40.4-90.3,90.3c0,49.9,40.4,90.2,90.3,90.2s90.3-40.4,90.3-90.2
		C346.3,206.2,305.9,165.8,256,165.8z M256,296.4c-22.3,0-40.4-18.1-40.4-40.4s18.1-40.4,40.4-40.4s40.4,18.1,40.4,40.4
		S278.3,296.4,256,296.4z"/>
	<path d="M256,48C141.1,48,48,141.1,48,256s93.1,208,208,208s208-93.1,208-208S370.9,48,256,48z M256,370c-63,0-114-51.1-114-114
		c0-63,51.1-114,114-114S370,193,370,256C370,319,319,370,256,370z"/>
</g>
</svg>
