<?xml version="1.0" encoding="utf-8"?>
<!-- Generator: Adobe Illustrator 22.0.1, SVG Export Plug-In . SVG Version: 6.00 Build 0)  -->
<svg version="1.1" id="Layer_1" xmlns="http://www.w3.org/2000/svg" xmlns:xlink="http://www.w3.org/1999/xlink" x="0px" y="0px"
	 viewBox="0 0 512 512" style="enable-background:new 0 0 512 512;" xml:space="preserve">
<g>
	<path d="M250.4,464c1-7.9,1.6-15.9,1.6-23.9c0-48.1-18.7-94.3-52.7-128.3S119,260,70.9,260c-7.7,0-15.4,0.5-22.9,1.4
		C50.8,371.7,140.3,460.7,250.4,464z"/>
	<path d="M230,74c0-8.3,0.5-16.4,1.4-24.5C136.1,61.2,59.7,138.5,49.2,234.2c7.2-0.7,14.4-1.1,21.8-1.1
		c114.9,0,207.1,92.2,207.1,207c0,7.7-0.4,15.3-1.3,22.8c96.6-10.1,174.6-86.2,185.8-182.4c-8.4,1-16.9,0.6-25.5,0.6
		C322.1,281,230,188.9,230,74z"/>
	<path d="M308.7,202.3c34,34,80.2,52.7,128.3,52.7c9.1,0,18.1-0.7,27-2C461.8,141,370.1,49.5,257.9,48c-1.2,8.5-1.9,17.2-1.9,26
		C256,122.1,274.7,168.3,308.7,202.3z"/>
	<path d="M232,49.3C232,49.3,232,49.3,232,49.3C232,49.3,232,49.3,232,49.3C232,49.3,232,49.3,232,49.3z"/>
</g>
</svg>
