<?xml version="1.0" encoding="utf-8"?>
<!-- Generator: Adobe Illustrator 22.0.1, SVG Export Plug-In . SVG Version: 6.00 Build 0)  -->
<svg version="1.1" id="Layer_1" xmlns="http://www.w3.org/2000/svg" xmlns:xlink="http://www.w3.org/1999/xlink" x="0px" y="0px"
	 viewBox="0 0 512 512" style="enable-background:new 0 0 512 512;" xml:space="preserve">
<path d="M309.8,304.6c-4.3-3-6.9-7.9-6.9-13.1V78.5c0-25.7-21-46.5-47-46.5c-26,0-47,20.8-47,46.5v213c0,5.2-2.6,10.2-6.9,13.1
	c-25.2,17.3-42,46.4-42,79.3c0,53,43,96,96,96c53,0,96-43,96-96C352,351,335,321.8,309.8,304.6z M256.1,445
	c-32,0-58.1-26.3-58.1-58.8c0-25.4,15.4-47.1,37.9-55.3c3.2-1.2,5.4-4.1,5.4-7.5V180.2c0-8,6.5-14.5,14.5-14.5h0
	c8,0,14.5,6.5,14.5,14.5v143.2c0,3.4,2.1,6.3,5.3,7.5c21.9,8.2,38.4,29.9,38.4,55.2C314,418.6,288.2,445,256.1,445z"/>
</svg>
