<?xml version="1.0" encoding="utf-8"?>
<!-- Generator: Adobe Illustrator 22.0.1, SVG Export Plug-In . SVG Version: 6.00 Build 0)  -->
<svg version="1.1" id="Layer_1" xmlns="http://www.w3.org/2000/svg" xmlns:xlink="http://www.w3.org/1999/xlink" x="0px" y="0px"
	 viewBox="0 0 512 512" style="enable-background:new 0 0 512 512;" xml:space="preserve">
<path d="M432,128h-84V96c0-17.6-14.4-32-32-32H196c-17.6,0-32,14.4-32,32v32H80c-17.7,0-32,14.3-32,32v256c0,17.7,14.3,32,32,32h352
	c17.7,0,32-14.3,32-32V160C464,142.3,449.7,128,432,128z M192,100c0-4.4,3.6-8,8-8h112c4.4,0,8,3.6,8,8v28H192V100z M320,304h-32
	h-16v16v32c0,8.8-7.2,16-16,16s-16-7.2-16-16v-32v-16h-16h-32c-8.8,0-16-7.2-16-16c0-8.8,7.2-16,16-16h32h16v-16v-32
	c0-8.8,7.2-16,16-16s16,7.2,16,16v32v16h16h32c8.8,0,16,7.2,16,16C336,296.8,328.8,304,320,304z"/>
</svg>
