<?xml version="1.0" encoding="utf-8"?>
<!-- Generator: Adobe Illustrator 22.0.1, SVG Export Plug-In . SVG Version: 6.00 Build 0)  -->
<svg version="1.1" id="Layer_1" xmlns="http://www.w3.org/2000/svg" xmlns:xlink="http://www.w3.org/1999/xlink" x="0px" y="0px"
	 viewBox="0 0 512 512" style="enable-background:new 0 0 512 512;" xml:space="preserve">
<path d="M441.5,265.4l-59.6-59.4c-2.6-2.6-6.1-4.1-9.9-4.1c-3.7,0-7.3,1.4-9.9,4.1c-2.6,2.6-4.1,6.1-4.1,9.9s1.5,7.3,4.1,9.9
	c0,0,0,0,0.1,0.1l41.1,40.1H142c-13.2,0-25.8-5.2-35.3-14.7C97.2,241.8,92,229.3,92,216v-48c0-7.7-6.3-14-14-14c-7.7,0-14,6.3-14,14
	v48c0,20.8,8.1,40.3,22.9,55.1c14.8,14.8,34.3,22.9,55.1,22.9h261.7L364,334.2c-2.6,2.6-4.1,6.1-4.1,9.9c0,3.7,1.4,7.3,4.1,9.9
	c0,0,0.1,0.1,0.1,0.1c2.7,2.5,6.2,3.9,9.8,3.9c3.9,0,7.3-1.4,9.9-4.1l57.6-57.4c4.2-4.2,6.5-9.8,6.5-15.7
	C448,275,445.7,269.5,441.5,265.4z"/>
</svg>
