<?xml version="1.0" encoding="utf-8"?>
<!-- Generator: Adobe Illustrator 18.1.1, SVG Export Plug-In . SVG Version: 6.00 Build 0)  -->
<svg version="1.1" id="Layer_1" xmlns="http://www.w3.org/2000/svg" xmlns:xlink="http://www.w3.org/1999/xlink" x="0px" y="0px"
	 viewBox="0 0 512 512" enable-background="new 0 0 512 512" xml:space="preserve">
<path d="M431.7,348.4l-37.6-21.9c13.1-16.9,32.1-24.8,32.4-24.9c4.3-1.7,6.6-6.7,5.2-11.1c-1.4-4.4-6.1-6.6-10.4-4.8
	c-1.1,0.5-25.1,10.3-41.3,32.5L273.2,256l106.7-62.2c16.1,22.2,40.2,32.1,41.3,32.5c4.3,1.7,9-0.4,10.4-4.8
	c1.4-4.4-0.9-9.4-5.2-11.1c-0.2-0.1-19.3-7.9-32.4-24.9l37.6-21.9c4.1-2.4,5.5-7.7,3.1-11.9c-2.4-4.2-7.6-5.6-11.8-3.2l-37.6,21.9
	c-7.9-19.8-5.2-40.5-5.1-40.7c0.7-4.6-2.4-9.2-6.9-10.1c-4.5-0.9-8.7,2.1-9.3,6.7c-0.2,1.2-3.5,27.1,7.5,52.4L265,240.9V116.9
	c27-3,47.5-19,48.5-19.8c3.7-2.9,4-8,1-11.5c-3.1-3.5-8.4-3.9-12-1c-0.2,0.1-16.4,12.9-37.4,15.8V56.7c0-4.8-4.2-8.7-9-8.7
	s-9,3.9-9,8.7v43.7c-21-3-37.2-15.7-37.4-15.8c-3.7-2.9-9-2.4-12.1,1c-3.1,3.5-2.7,8.6,0.9,11.5c0.9,0.7,21.5,16.8,48.5,19.8v124.1
	l-106.5-62.2c11-25.2,7.5-51.2,7.4-52.4c-0.7-4.6-4.8-7.6-9.3-6.7c-4.5,0.9-7.6,5.5-6.9,10.1c0,0.2,2.8,20.8-5.1,40.7l-37.6-21.9
	c-4.1-2.4-9.4-1-11.8,3.2c-2.4,4.2-1,9.5,3.2,11.9l37.6,21.9c-13,16.8-32.1,24.8-32.3,24.9c-4.3,1.7-6.6,6.7-5.2,11.1
	c1.4,4.4,6.1,6.6,10.4,4.8c1.1-0.4,25.1-10.3,41.3-32.5L238.8,256l-106.7,62.2c-16.1-22.2-40.2-32.1-41.3-32.5
	c-4.3-1.7-9,0.4-10.4,4.8c-1.4,4.4,0.9,9.4,5.2,11.1c0.2,0.1,19.3,8,32.3,24.9l-37.6,21.9c-4.1,2.4-5.5,7.7-3.1,11.9
	c2.4,4.2,7.6,5.6,11.8,3.2l37.6-21.9c8,19.9,5.2,40.5,5.1,40.7c-0.7,4.6,2.4,9.2,6.9,10.1c4.5,0.9,8.7-2.1,9.3-6.7
	c0.2-1.2,3.5-27.1-7.5-52.4L247,271.1v124.1c-27,3-47.5,19-48.5,19.8c-3.7,2.9-4,8-1,11.5c3.1,3.5,8.4,3.9,12,1
	c0.2-0.1,16.4-12.8,37.4-15.8v43.7c0,4.8,4.2,8.7,9,8.7s9-3.9,9-8.7v-43.7c21,3,37.2,15.7,37.4,15.8c3.7,2.9,9,2.4,12.1-1
	c3.1-3.5,2.7-8.6-0.9-11.5c-0.9-0.7-21.5-16.8-48.5-19.8V271.1l106.5,62.2c-11,25.2-7.5,51.2-7.4,52.4c0.7,4.6,4.8,7.6,9.3,6.7
	c4.5-0.9,7.6-5.5,6.9-10.1c0-0.2-2.8-20.9,5.1-40.7l37.6,21.9c4.1,2.4,9.4,1,11.8-3.2C437.2,356.1,435.8,350.8,431.7,348.4z"/>
</svg>
