<?xml version="1.0" encoding="utf-8"?>
<!-- Generator: Adobe Illustrator 22.0.1, SVG Export Plug-In . SVG Version: 6.00 Build 0)  -->
<svg version="1.1" id="Layer_1" xmlns="http://www.w3.org/2000/svg" xmlns:xlink="http://www.w3.org/1999/xlink" x="0px" y="0px"
	 viewBox="0 0 512 512" style="enable-background:new 0 0 512 512;" xml:space="preserve">
<g>
	<path d="M352,115h90c3.3,0,6-2.7,6-6v0c0-8.2-3.7-16-10-21.3l-77.1-64.2c-4.9-4.1-14.2-7.4-20.6-7.4h0c-4.1,0-7.4,3.3-7.4,7.4V96
		C333,106.5,341.5,115,352,115z"/>
	<path d="M307,96V16H176c-17.6,0-32,14.4-32,32v336c0,17.6,14.4,32,32,32h240c17.6,0,32-14.4,32-32V141h-96
		C327.2,141,307,120.8,307,96z"/>
	<path d="M116,412V80H96c-17.6,0-32,14.4-32,32v352c0,17.6,14.4,32,32,32h256c17.6,0,32-14.4,32-32v-20H148
		C130.4,444,116,429.6,116,412z"/>
</g>
</svg>
