<?xml version="1.0" encoding="utf-8"?>
<!-- Generator: Adobe Illustrator 18.1.1, SVG Export Plug-In . SVG Version: 6.00 Build 0)  -->
<svg version="1.1" id="Layer_1" xmlns="http://www.w3.org/2000/svg" xmlns:xlink="http://www.w3.org/1999/xlink" x="0px" y="0px"
	 viewBox="0 0 512 512" enable-background="new 0 0 512 512" xml:space="preserve">
<g>
	<path d="M256,48C141.1,48,48,141.1,48,256c0,114.9,93.1,208,208,208c114.9,0,208-93.1,208-208C464,141.1,370.9,48,256,48z
		 M256,446.7c-105.1,0-190.7-85.5-190.7-190.7c0-105.1,85.5-190.7,190.7-190.7S446.7,150.9,446.7,256
		C446.7,361.1,361.1,446.7,256,446.7z"/>
	<path d="M224,224l-96,160l160-96l96-160L224,224z M174.6,337.4l61-101.7l40.7,40.7L174.6,337.4z"/>
</g>
</svg>
