<?xml version="1.0" encoding="utf-8"?>
<!-- Generator: Adobe Illustrator 22.0.1, SVG Export Plug-In . SVG Version: 6.00 Build 0)  -->
<svg version="1.1" id="Layer_1" xmlns="http://www.w3.org/2000/svg" xmlns:xlink="http://www.w3.org/1999/xlink" x="0px" y="0px"
	 viewBox="0 0 512 512" style="enable-background:new 0 0 512 512;" xml:space="preserve">
<path d="M450.4,48H341.5c-7.5,0-13.6,6.1-13.6,13.6c0,7.5,6.1,13.6,13.6,13.6h75.4L326.7,166c-30.6-26-69.3-40.3-109.6-40.3
	c-22.8,0-45,4.5-65.8,13.3c-20.1,8.5-38.2,20.7-53.8,36.2C82,190.8,69.8,208.9,61.3,229C52.5,249.9,48,272,48,294.9
	s4.5,45,13.3,65.8c8.5,20.1,20.7,38.2,36.2,53.8c15.5,15.5,33.6,27.7,53.8,36.2c20.9,8.8,43,13.3,65.8,13.3c22.8,0,45-4.5,65.8-13.3
	c20.1-8.5,38.2-20.7,53.8-36.2c15.5-15.5,27.7-33.6,36.2-53.8c8.8-20.9,13.3-43,13.3-65.8c0-40.3-14.3-79-40.3-109.6l90.8-90.3v75.4
	c0,7.5,6.1,13.6,13.6,13.6c7.5,0,13.6-6.1,13.6-13.6V61.6C464,54.1,457.9,48,450.4,48z M359,294.9c0,37.9-14.8,73.5-41.6,100.3
	c-26.8,26.8-62.4,41.6-100.3,41.6c-37.9,0-73.5-14.8-100.3-41.6C90,368.4,75.2,332.8,75.2,294.9s14.8-73.5,41.6-100.3
	c26.8-26.8,62.4-41.6,100.3-41.6c37.9,0,73.5,14.8,100.3,41.6C344.3,221.3,359,257,359,294.9z"/>
</svg>
