<?xml version="1.0" encoding="utf-8"?>
<!-- Generator: Adobe Illustrator 22.0.1, SVG Export Plug-In . SVG Version: 6.00 Build 0)  -->
<svg version="1.1" id="Layer_1" xmlns="http://www.w3.org/2000/svg" xmlns:xlink="http://www.w3.org/1999/xlink" x="0px" y="0px"
	 viewBox="0 0 512 512" style="enable-background:new 0 0 512 512;" xml:space="preserve">
<g>
	<path d="M312,155h91c2.8,0,5-2.2,5-5v0c0-8.9-3.9-17.3-10.7-22.9l-76.3-63.6c-5.8-4.8-13-7.4-20.6-7.4l0,0c-4.1,0-7.4,3.3-7.4,7.4
		V136C293,146.5,301.5,155,312,155z"/>
	<path d="M267,136V56H136c-17.6,0-32,14.4-32,32v336c0,17.6,14.4,32,32,32h240c17.6,0,32-14.4,32-32V181h-96
		C287.2,181,267,160.8,267,136z"/>
</g>
</svg>
