<?xml version="1.0" encoding="utf-8"?>
<!-- Generator: Adobe Illustrator 18.1.1, SVG Export Plug-In . SVG Version: 6.00 Build 0)  -->
<svg version="1.1" id="Layer_1" xmlns="http://www.w3.org/2000/svg" xmlns:xlink="http://www.w3.org/1999/xlink" x="0px" y="0px"
	 viewBox="0 0 512 512" enable-background="new 0 0 512 512" xml:space="preserve">
<g>
	<g>
		<path d="M303,300.3V78.5c0-25.7-21-46.5-47-46.5s-47,20.8-47,46.5v221.9c-29,16.5-49,47.8-49,83.6c0,53,42.9,96,95.9,96
			s96.1-43,96.1-96C352,348,332,316.7,303,300.3z M256.2,448c-35.3,0-64-28.6-64-64c0-29.8,19.8-54.9,47.8-62V144
			c0-8.8,7.2-16,16-16c8.8,0,16,7.2,16,16v178c27,7.1,48.1,32.2,48.1,62C320.1,419.3,291.5,448,256.2,448z"/>
	</g>
	<circle cx="255.8" cy="384.2" r="48"/>
</g>
</svg>
