<?xml version="1.0" encoding="utf-8"?>
<!-- Generator: Adobe Illustrator 22.0.1, SVG Export Plug-In . SVG Version: 6.00 Build 0)  -->
<svg version="1.1" id="Layer_1" xmlns="http://www.w3.org/2000/svg" xmlns:xlink="http://www.w3.org/1999/xlink" x="0px" y="0px"
	 viewBox="0 0 512 512" style="enable-background:new 0 0 512 512;" xml:space="preserve">
<g>
	<path d="M466,355.9H46c-7.7,0-14,6.3-14,14s6.3,14,14,14h420c7.7,0,14-6.3,14-14S473.7,355.9,466,355.9z"/>
	<path d="M466,403.9H46c-7.7,0-14,6.3-14,14s6.3,14,14,14h420c7.7,0,14-6.3,14-14S473.7,403.9,466,403.9z"/>
	<path d="M444.9,80.1H67.1C47.8,80.1,32,95.9,32,115.2V293c0,19.3,15.8,35.1,35.1,35.1h377.8c19.3,0,35.1-15.8,35.1-35.1V115.2
		C480,95.9,464.2,80.1,444.9,80.1z M114,296.1H78c-7.7,0-14-6.3-14-14s6.3-14,14-14h36c7.7,0,14,6.3,14,14S121.7,296.1,114,296.1z
		 M114,140.1H78c-7.7,0-14-6.3-14-14s6.3-14,14-14h36c7.7,0,14,6.3,14,14S121.7,140.1,114,140.1z M256,284.1c-44.1,0-80-35.9-80-80
		s35.9-80,80-80c44.1,0,80,35.9,80,80S300.1,284.1,256,284.1z M434,296.1h-36c-7.7,0-14-6.3-14-14s6.3-14,14-14h36
		c7.7,0,14,6.3,14,14S441.7,296.1,434,296.1z M434,140.1h-36c-7.7,0-14-6.3-14-14s6.3-14,14-14h36c7.7,0,14,6.3,14,14
		S441.7,140.1,434,140.1z"/>
	<circle cx="256" cy="206" r="53"/>
</g>
</svg>
