<?xml version="1.0" encoding="utf-8"?>
<!-- Generator: Adobe Illustrator 22.0.1, SVG Export Plug-In . SVG Version: 6.00 Build 0)  -->
<svg version="1.1" id="Layer_1" xmlns="http://www.w3.org/2000/svg" xmlns:xlink="http://www.w3.org/1999/xlink" x="0px" y="0px"
	 viewBox="0 0 512 512" style="enable-background:new 0 0 512 512;" xml:space="preserve">
<g>
	<path d="M376,144H269v179.9l47.9-47.2c5.1-5,13.3-5,18.4,0.1c5,5.1,5,13.3-0.1,18.4l-70,69c-2.5,2.4-5.8,3.7-9.1,3.7
		c-1.7,0-3.4-0.3-5-1c-1.5-0.6-2.9-1.6-4.1-2.7c0,0,0,0,0,0l-70-69c-5.1-5-5.2-13.3-0.1-18.4c5-5.1,13.3-5.2,18.4-0.1l47.9,47.2V144
		H136c-22,0-40,18-40,40v240c0,22,18,40,40,40h240c22,0,40-18,40-40V184C416,162,398,144,376,144z"/>
	<path d="M269,61c0-7.2-5.8-13-13-13s-13,5.8-13,13v83h26V61z"/>
</g>
</svg>
