<?xml version="1.0" encoding="utf-8"?>
<!-- Generator: Adobe Illustrator 22.0.1, SVG Export Plug-In . SVG Version: 6.00 Build 0)  -->
<svg version="1.1" id="Layer_1" xmlns="http://www.w3.org/2000/svg" xmlns:xlink="http://www.w3.org/1999/xlink" x="0px" y="0px"
	 viewBox="0 0 512 512" style="enable-background:new 0 0 512 512;" xml:space="preserve">
<path d="M256,48C141.1,48,48,141.1,48,256s93.1,208,208,208c114.9,0,208-93.1,208-208S370.9,48,256,48z M76,256
	c0-48.1,18.7-93.3,52.7-127.3c34-34,79.2-52.7,127.3-52.7c48.1,0,93.3,18.7,127.3,52.7c32.2,32.2,50.7,74.5,52.6,119.7
	c-8.8-10.3-24.2-24-43.8-24c-27.5,0-41.7,25.7-51,42.7c-1.4,2.5-2.7,4.9-3.9,7c-11.4,19.2-27.3,30-42.5,28.9
	c-13.4-0.9-24.8-11.2-32.2-28.8c-9.2-22.1-29.1-45.8-52.9-49.2c-11.3-1.6-28.1,0.8-44.7,21.4c-3.2,4-6.9,9.4-11.1,15.6
	c-10.4,15.5-26.2,38.8-38.1,40.8c-17.3,2.8-30.9-7.5-36.4-12.3C77.1,279.3,76,267.7,76,256z"/>
</svg>
