<?xml version="1.0" encoding="utf-8"?>
<!-- Generator: Adobe Illustrator 18.1.1, SVG Export Plug-In . SVG Version: 6.00 Build 0)  -->
<svg version="1.1" id="Layer_1" xmlns="http://www.w3.org/2000/svg" xmlns:xlink="http://www.w3.org/1999/xlink" x="0px" y="0px"
	 viewBox="0 0 512 512" enable-background="new 0 0 512 512" xml:space="preserve">
<g>
	<path d="M332.3,163.7l-33.6-33.4c-1.6-1.6-3.6-2.3-5.7-2.3c-2.1,0-4.1,0.8-5.7,2.3c-3.1,3.1-3.1,8.2,0,11.3L314,168H136
		c-39.6,0-72,32.4-72,72v24h16v-24c0-14.9,5.8-28.9,16.5-39.5c10.6-10.6,24.7-16.5,39.5-16.5h176l-26.6,26.4
		c-3.1,3.1-3.1,8.2,0,11.3c3.1,3.1,8.2,3.1,11.3,0l35.6-35.4C338.6,180.1,338.6,170,332.3,163.7z"/>
	<path d="M432.1,248v24c0,14.9-5.8,28.9-16.5,39.5C404.9,322.2,390.9,328,376,328H200l26.6-26.4c3.1-3.1,3.1-8.2,0-11.3
		c-3.1-3.1-8.2-3.1-11.3,0l-35.6,35.4c-6.3,6.2-6.3,16.3,0,22.6l33.6,33.4c1.6,1.6,3.6,2.3,5.7,2.3s4.1-0.8,5.7-2.3
		c3.1-3.1,3.1-8.2,0-11.3L198.1,344h178c39.6,0,72-32.4,72-72v-24H432.1z"/>
</g>
</svg>
