<?xml version="1.0" encoding="utf-8"?>
<!-- Generator: Adobe Illustrator 22.0.1, SVG Export Plug-In . SVG Version: 6.00 Build 0)  -->
<svg version="1.1" id="Layer_1" xmlns="http://www.w3.org/2000/svg" xmlns:xlink="http://www.w3.org/1999/xlink" x="0px" y="0px"
	 viewBox="0 0 512 512" style="enable-background:new 0 0 512 512;" xml:space="preserve">
<g>
	<path d="M256,48C141.1,48,48,141.1,48,256s93.1,208,208,208s208-93.1,208-208S370.9,48,256,48z M256,384.1
		c-70.7,0-128-57.3-128-128.1s57.3-128.1,128-128.1v-37c0-6.4,7.1-10.2,12.4-6.7l72.9,52.6c4.9,3.3,4.7,10.6-0.4,13.6L268,196.7
		c-5.3,3.1-12-0.8-12-6.9v-41.9c-60.3,0-109.2,49.7-108.1,110.2c1.1,59.1,50.3,106.7,109.5,106c55.9-0.7,101.8-43.7,106.3-99
		c0.4-5.2,4.7-9.1,9.9-9.1h0c5.8,0,10.4,4.9,9.9,10.7C378.1,332.7,323.1,384.1,256,384.1z"/>
</g>
</svg>
