<?xml version="1.0" encoding="utf-8"?>
<!-- Generator: Adobe Illustrator 22.0.1, SVG Export Plug-In . SVG Version: 6.00 Build 0)  -->
<svg version="1.1" id="Layer_1" xmlns="http://www.w3.org/2000/svg" xmlns:xlink="http://www.w3.org/1999/xlink" x="0px" y="0px"
	 viewBox="0 0 512 512" style="enable-background:new 0 0 512 512;" xml:space="preserve">
<path d="M288,124c30.3,0,59.3,11.2,81.8,31.5c22.3,20.1,36.3,47.6,39.5,77.3l1.2,11.1c0.6,5.8,5,10.5,10.7,11.5l11,2
	c14,2.5,27,10.4,36.7,22.1c9.8,12,15.2,26.9,15.2,42.1c0,17-6.9,34.1-18.9,46.8C453,381,437.4,388,421.1,388H90.9
	c-16.3,0-31.9-7-43.9-19.7c-12-12.7-18.9-29.7-18.9-46.8c0-14.4,4.6-28.9,13.1-40.9c8.6-12.2,20.2-20.9,33.7-25.1l10.3-3.3
	c5.3-1.7,9-6.6,9.1-12.2l0.2-10.8c0.2-11.8,5.1-23.6,13.5-32.4c8.3-8.7,18.9-13.4,29.9-13.4c5.6,0,11.1,1.1,16.3,3.2l11.1,4.5
	c5.7,2.3,12.2,0.4,15.7-4.7l6.8-9.8C210.4,143.7,248,124,288,124 M288,96c-51.2,0-96.3,25.6-123.4,64.7c-8.3-3.4-17.4-5.3-26.9-5.3
	c-39.1,0-70.8,34.4-71.4,73.4C26.4,241.5,0,280.5,0,321.5C0,371.7,40.7,416,90.9,416h330.3c50.2,0,90.9-44.3,90.9-94.5
	c0-44.7-32.3-84.1-74.9-91.7C429,154.6,365.4,96,288,96L288,96z"/>
</svg>
