<?xml version="1.0" encoding="utf-8"?>
<!-- Generator: Adobe Illustrator 18.1.1, SVG Export Plug-In . SVG Version: 6.00 Build 0)  -->
<svg version="1.1" id="Layer_1" xmlns="http://www.w3.org/2000/svg" xmlns:xlink="http://www.w3.org/1999/xlink" x="0px" y="0px"
	 viewBox="0 0 512 512" enable-background="new 0 0 512 512" xml:space="preserve">
<path d="M472,248h-88c-0.1,0-0.2,0-0.3,0C379.6,181,324,128,256,128s-123.6,53-127.7,120c-0.1,0-0.2,0-0.3,0H40c-4.4,0-8,3.6-8,8
	s3.6,8,8,8h88c0.1,0,0.2,0,0.3,0c4.1,67,59.7,120,127.7,120s123.6-53,127.7-120c0.1,0,0.2,0,0.3,0h88c4.4,0,8-3.6,8-8
	S476.4,248,472,248z M335.2,335.2C314,356.4,285.9,368,256,368s-58-11.6-79.2-32.8C155.7,314,144,285.9,144,256s11.7-58,32.8-79.2
	C198,155.7,226.1,144,256,144s58,11.7,79.2,32.8C356.3,198,368,226.1,368,256S356.3,314,335.2,335.2z"/>
</svg>
