<?xml version="1.0" encoding="utf-8"?>
<!-- Generator: Adobe Illustrator 22.0.1, SVG Export Plug-In . SVG Version: 6.00 Build 0)  -->
<svg version="1.1" id="Layer_1" xmlns="http://www.w3.org/2000/svg" xmlns:xlink="http://www.w3.org/1999/xlink" x="0px" y="0px"
	 viewBox="0 0 512 512" style="enable-background:new 0 0 512 512;" xml:space="preserve">
<g>
	<path d="M437.1,165.8C429,90.6,365.4,32,288,32c-51.2,0-96.3,25.6-123.4,64.7c-8.3-3.4-17.4-5.3-26.9-5.3
		c-39.1,0-70.8,34.4-71.4,73.4C26.4,177.5,0,216.5,0,257.5C0,307.7,40.7,352,90.9,352H243V211c0-7.2,5.8-13,13-13s13,5.8,13,13v141
		h152.1c50.2,0,90.9-44.3,90.9-94.5C512,212.8,479.7,173.4,437.1,165.8z"/>
	<path d="M243,435.9l-47.9-47.2c-5.1-5-13.3-5-18.4,0.1c-5,5.1-5,13.3,0.1,18.4l70,69c2.5,2.4,5.8,3.7,9.1,3.7c1.7,0,3.4-0.3,5-1
		c1.5-0.6,2.9-1.6,4.1-2.7c0,0,0,0,0,0l70-69c5.1-5,5.2-13.3,0.1-18.4c-5-5.1-13.3-5.2-18.4-0.1L269,435.9V352h-26V435.9z"/>
</g>
</svg>
