<?xml version="1.0" encoding="utf-8"?>
<!-- Generator: Adobe Illustrator 22.0.1, SVG Export Plug-In . SVG Version: 6.00 Build 0)  -->
<svg version="1.1" id="Layer_1" xmlns="http://www.w3.org/2000/svg" xmlns:xlink="http://www.w3.org/1999/xlink" x="0px" y="0px"
	 viewBox="0 0 512 512" style="enable-background:new 0 0 512 512;" xml:space="preserve">
<g>
	<path d="M250.2,371.4c-1.8,0-2.7,2.2-1.4,3.4l54.9,54.9l22.3,22.3c42.4-15.2,78.5-43.7,103.1-80.6H250.2z"/>
	<path d="M167,334.6V444c27,12.8,57.1,20,89,20c14.1,0,27.9-1.4,41.2-4.1L170.4,333.2C169.2,331.9,167,332.8,167,334.6z"/>
	<path d="M256,48c-13.9,0-27.4,1.4-40.5,4l126.8,126.8c1.3,1.3,3.4,0.4,3.4-1.4V68.3C318.6,55.3,288.2,48,256,48z"/>
	<path d="M68.1,166.6C55.2,193.7,48,224,48,256c0,14.1,1.4,27.9,4.1,41.2L179.2,170c1.3-1.3,0.4-3.4-1.4-3.4H68.1z"/>
	<path d="M186.7,59.9c-42.7,15.1-79,43.7-103.7,80.8h179.7c1.8,0,2.7-2.2,1.4-3.4L186.7,59.9z"/>
	<path d="M167,220.6v70.7c0,1.1,0.4,2.1,1.2,2.8l50,50c0.8,0.8,1.8,1.2,2.8,1.2h70.7c1.1,0,2.1-0.4,2.8-1.2l50-50
		c0.8-0.8,1.2-1.8,1.2-2.8v-70.7c0-1.1-0.4-2.1-1.2-2.8l-50-50c-0.8-0.8-1.8-1.2-2.8-1.2H221c-1.1,0-2.1,0.4-2.8,1.2l-50,50
		C167.5,218.6,167,219.6,167,220.6z"/>
	<path d="M460,215.5L333.6,342c-1.3,1.3-0.4,3.4,1.4,3.4h108.8C456.8,318.3,464,288,464,256C464,242.1,462.6,228.6,460,215.5z"/>
	<path d="M371.8,83.2v179c0,1.8,2.2,2.7,3.4,1.4l76.9-76.9C437.1,144.1,408.6,107.9,371.8,83.2z"/>
	<path d="M60.1,325.9c15.2,42.6,43.9,78.8,81,103.4V249.8c0-1.8-2.2-2.7-3.4-1.4L60.1,325.9z"/>
</g>
</svg>
