<?xml version="1.0" encoding="utf-8"?>
<!-- Generator: Adobe Illustrator 18.1.1, SVG Export Plug-In . SVG Version: 6.00 Build 0)  -->
<svg version="1.1" id="Layer_1" xmlns="http://www.w3.org/2000/svg" xmlns:xlink="http://www.w3.org/1999/xlink" x="0px" y="0px"
	 viewBox="0 0 512 512" enable-background="new 0 0 512 512" xml:space="preserve">
<path d="M374.4,143.2l-13.3-0.1C349.3,89.6,306,48,236,48S108.2,99.7,108.2,170.8l0.3,4.8C66.2,181.2,32,220.1,32,264.5
	c0,47,37.9,88.5,84.6,88.5h10.6l-37.4,50.7c-2.6,3.6-1.8,8.3,1.8,10.9c1.3,1,2.9,1.4,4.4,1.4c2.3,0,5.1-0.6,6.8-2.9L147,353h61.4
	l-72.3,99c-2.6,3.6-2.2,8,1.4,10.6c1.3,1,3.3,1.4,4.8,1.4c3.7,0,6.1-1.3,7.8-3.6L228.1,353h61.1l-37.3,50.7
	c-2.6,3.6-1.8,8.3,1.8,10.9c1.3,1,2.9,1.4,4.4,1.4c2.3,0,5.1-0.6,6.8-2.9L309,353h61.4l-72.3,99c-2.6,3.6-2.1,7.8,1.5,10.3
	c1.3,1,3.2,1.7,4.7,1.7c2.3,0,5.1-0.8,6.8-3.1l80.1-110.3c50.4-8.4,88.9-53.7,88.9-106.6C480,185.4,432.7,143.2,374.4,143.2z
	 M387.2,335.8c0,0-8.9,1.2-20.2,1.2s-250.4,0-250.4,0c-18,0-35.1-7.9-48.2-21.8c-13-13.7-20.4-32.3-20.4-50.9
	c0-17.5,6.6-34.7,18.5-48.4c11.8-13.5,27.4-22.2,44.1-24.4l14.8-2l-1-14.9l-0.3-4.3c0.1-29.3,11.7-56.3,32.6-75.9
	C177.7,74.8,205.8,64,236,64c29.3,0,55,8.3,74.3,23.9c17.7,14.4,29.9,34.7,35.2,58.7l2.9,13.4c11.5-0.7,26-0.7,26-0.7
	c24.5,0,47.1,8.6,63.7,24.1c16.7,15.6,25.8,37.1,25.8,60.7C464,288.7,430.3,328.6,387.2,335.8z"/>
</svg>
