<?xml version="1.0" encoding="utf-8"?>
<!-- Generator: Adobe Illustrator 22.0.1, SVG Export Plug-In . SVG Version: 6.00 Build 0)  -->
<svg version="1.1" id="Layer_1" xmlns="http://www.w3.org/2000/svg" xmlns:xlink="http://www.w3.org/1999/xlink" x="0px" y="0px"
	 viewBox="0 0 512 512" style="enable-background:new 0 0 512 512;" xml:space="preserve">
<g>
	<path d="M317,32H195c-17.6,0-24,14.4-24,32h170C341,46.4,334.6,32,317,32z"/>
	<path d="M196.1,147.5c7.6,8.8,11.9,20,11.9,31.7v265.9c0,21.9,17.9,34.9,39.9,34.9h16.3c21.9,0,39.9-12.9,39.9-34.9V179.2
		c0-11.7,4.3-22.8,11.9-31.7C331.4,129.6,341,113,341,80H171C171,115,180.6,129.6,196.1,147.5z M228,238.3c0-15.6,12.6-28.3,28-28.3
		s28,12.7,28,28.3v35.4c0,15.6-12.6,28.3-28,28.3s-28-12.7-28-28.3V238.3z"/>
	<circle cx="256" cy="273" r="20"/>
</g>
</svg>
