<?xml version="1.0" encoding="utf-8"?>
<!-- Generator: Adobe Illustrator 22.0.1, SVG Export Plug-In . SVG Version: 6.00 Build 0)  -->
<svg version="1.1" id="Layer_1" xmlns="http://www.w3.org/2000/svg" xmlns:xlink="http://www.w3.org/1999/xlink" x="0px" y="0px"
	 viewBox="0 0 512 512" style="enable-background:new 0 0 512 512;" xml:space="preserve">
<path d="M378.5,333l-88.3-77l88.2-76.1c6.9-6,7.4-16.3,1.1-22.9L262.7,35.6c-2.2-2.3-5.4-3.6-8.6-3.6h0C248,32,243,36.9,243,42.8
	V212l-86.3-73.3c-7.1-6-17.8-5.3-24.1,1.5l0,0c-6.5,7-5.8,17.9,1.6,24.1L243,256l-108.1,90.9c-7.3,6.1-8.1,16.8-1.7,23.9l0.3,0.3
	c6.3,7,17.3,7.7,24.5,1.5L243,299v169.8c0,6.2,5.1,11.2,11.5,11.2l0,0c3.2,0,6.2-1.3,8.4-3.5l116.7-120.5
	C385.9,349.4,385.4,339.1,378.5,333z M279.4,100.9l62.7,65.9c0.8,0.8,0.7,2.1-0.2,2.9l-62.7,53c-1.3,1.1-3.4,0.2-3.4-1.5V102.3
	C275.9,100.4,278.2,99.6,279.4,100.9z M275.9,409.9V291.6c0-1.7,2.1-2.6,3.4-1.5l62.7,53c0.9,0.7,0.9,2,0.2,2.9l-62.7,65.3
	C278.2,412.6,275.9,411.7,275.9,409.9z"/>
</svg>
