<?xml version="1.0" encoding="utf-8"?>
<!-- Generator: Adobe Illustrator 18.1.1, SVG Export Plug-In . SVG Version: 6.00 Build 0)  -->
<svg version="1.1" id="Layer_1" xmlns="http://www.w3.org/2000/svg" xmlns:xlink="http://www.w3.org/1999/xlink" x="0px" y="0px"
	 viewBox="0 0 512 512" enable-background="new 0 0 512 512" xml:space="preserve">
<g>
	<path d="M256,48C141.1,48,48,141.1,48,256s93.1,208,208,208c114.9,0,208-93.1,208-208S370.9,48,256,48z M161.8,363.7
		c-1.6,1.5-3.6,2.3-5.6,2.3c-2.1,0-4.1-0.8-5.7-2.4C122.5,334.9,107,297,107,256.8c0-41.1,16.1-79.7,45.3-108.5
		c3.1-3.1,8.2-3.1,11.3,0.1c3.1,3.2,3.1,8.2-0.1,11.4c-26.1,25.8-40.5,60.3-40.5,97.1c0,35.9,13.8,69.9,38.9,95.5
		C165,355.5,165,360.6,161.8,363.7z M203.8,313.5c3.1,3.2,3.1,8.2-0.1,11.4c-1.6,1.5-3.6,2.3-5.6,2.3c-2.1,0-4.1-0.8-5.7-2.4
		c-17.9-18.3-27.8-42.5-27.8-68.2c0-26.3,10.3-50.9,28.9-69.3c3.1-3.1,8.2-3.1,11.3,0.1c3.1,3.2,3.1,8.2-0.1,11.4
		c-15.6,15.4-24.1,35.9-24.1,57.9C180.6,278,188.8,298.2,203.8,313.5z M256,288.1c-17.7,0-32-14.4-32-32.1c0-17.7,14.3-32.1,32-32.1
		s32,14.4,32,32.1C288,273.7,273.7,288.1,256,288.1z M319.6,324.7c-1.6,1.6-3.6,2.4-5.7,2.4c-2,0-4-0.8-5.6-2.3
		c-3.1-3.1-3.2-8.2-0.1-11.4c15-15.3,23.2-35.5,23.2-56.9c0-21.9-8.6-42.5-24.1-57.9c-3.1-3.1-3.2-8.2-0.1-11.4
		c3.1-3.2,8.2-3.2,11.3-0.1c18.7,18.4,28.9,43.1,28.9,69.3C347.4,282.2,337.5,306.4,319.6,324.7z M361.5,363.6
		c-1.6,1.6-3.6,2.4-5.7,2.4c-2,0-4-0.8-5.6-2.3c-3.1-3.1-3.2-8.2-0.1-11.4c25.1-25.6,38.9-59.6,38.9-95.5
		c0-36.8-14.4-71.3-40.5-97.1c-3.1-3.1-3.2-8.2-0.1-11.4c3.1-3.2,8.2-3.2,11.3-0.1c29.2,28.9,45.3,67.4,45.3,108.5
		C405,297,389.5,334.9,361.5,363.6z"/>
</g>
</svg>
