<?xml version="1.0" encoding="utf-8"?>
<!-- Generator: Adobe Illustrator 22.0.1, SVG Export Plug-In . SVG Version: 6.00 Build 0)  -->
<svg version="1.1" id="Layer_1" xmlns="http://www.w3.org/2000/svg" xmlns:xlink="http://www.w3.org/1999/xlink" x="0px" y="0px"
	 viewBox="0 0 512 512" style="enable-background:new 0 0 512 512;" xml:space="preserve">
<g>
	<path d="M80,448h352c17.7,0,32-14.3,32-32V224H48v192C48,433.7,62.3,448,80,448z"/>
	<path d="M432,128h-8v-8c0-4.4-3.6-8-8-8h-32c-4.4,0-8,3.6-8,8v8h-28V96c0-17.6-14.4-32-32-32H196c-17.6,0-32,14.4-32,32v32h-28v-8
		c0-4.4-3.6-8-8-8H96c-4.4,0-8,3.6-8,8v8h-8c-17.7,0-32,14.3-32,32v40h416v-40C464,142.3,449.7,128,432,128z M320,128H192v-28
		c0-4.4,3.6-8,8-8h112c4.4,0,8,3.6,8,8V128z"/>
</g>
</svg>
