<?xml version="1.0" encoding="utf-8"?>
<!-- Generator: Adobe Illustrator 22.0.1, SVG Export Plug-In . SVG Version: 6.00 Build 0)  -->
<svg version="1.1" id="Layer_1" xmlns="http://www.w3.org/2000/svg" xmlns:xlink="http://www.w3.org/1999/xlink" x="0px" y="0px"
	 viewBox="0 0 512 512" style="enable-background:new 0 0 512 512;" xml:space="preserve">
<g>
	<ellipse cx="256" cy="80" rx="48" ry="48"/>
	<path d="M424,144H88c-13.3,0-24,10.7-24,24s10.7,24,24,24h98.5c5.6,1,13.2,3.8,17.2,14.2c4.7,12.1,2.4,33.6-0.5,51.7l-3.8,21.4
		c0,0.1,0,0.2-0.1,0.3c0,0,0,0,0,0l-30.4,172.2c-2.3,13,6.4,25.5,19.5,27.8c13.1,2.3,25.3-6.4,27.6-19.5l21-119.9v0.2
		c0,0,6.2-32.5,18.5-32.5h1.1c12.5,0,18.5,32.5,18.5,32.5v-0.1l21,119.9c2.3,13,14.7,21.7,27.7,19.4c13.1-2.3,21.7-14.8,19.4-27.8
		l-30.4-172.2c0,0,0,0,0,0c0-0.1,0-0.2-0.1-0.3l-3.8-21.4c-2.9-18.1-5.2-39.6-0.5-51.7c4-10.4,11.6-13.2,17.2-14.2H424
		c13.3,0,24-10.7,24-24S437.3,144,424,144z"/>
</g>
</svg>
