<?xml version="1.0" encoding="utf-8"?>
<!-- Generator: Adobe Illustrator 22.0.1, SVG Export Plug-In . SVG Version: 6.00 Build 0)  -->
<svg version="1.1" id="Layer_1" xmlns="http://www.w3.org/2000/svg" xmlns:xlink="http://www.w3.org/1999/xlink" x="0px" y="0px"
	 viewBox="0 0 512 512" style="enable-background:new 0 0 512 512;" xml:space="preserve">
<g>
	<path d="M112,162c0-13.3,10.7-24,24-24h229.5c4.9,0,9.6,1.5,13.5,4.4l0,0c2,1.5,4.9,0,4.8-2.5c-0.1-5.7-0.2-9.3-0.2-21.6
		c0-20.8-17.2-38.3-38.1-38.3l-0.2,0c-5.7-0.4-10.8-4-12.9-9.3c-9-22.6-32.3-38.6-56.4-38.6c-21,0-34.2,7-44,18.3
		c-4.4,5-11.8,5.9-17.4,2.4c-7.3-4.6-16.1-7.1-25.5-7.1c-14.4,0-27.2,7.1-35.8,17.4c-4,4.9-10.4,7-16.6,5.9
		c-5.2-1-12.6-1.8-22.7-1.8c-25,0-50,16.6-50,42.4v4c0,28.8,16,22.9,16,41.8c0,17.9,0,50.8,0,50.8c0,13.4-11.2,19.3-11.2,35.2
		c0,8.8,8,16.8,16.8,16.8H112V162z"/>
	<path d="M386,452H110c-7.7,0-14,6.3-14,14s6.3,14,14,14h276c7.7,0,14-6.3,14-14S393.7,452,386,452z"/>
	<path d="M400,194h-32v-24c0-8.8-7.2-16-16-16H144c-8.8,0-16,7.2-16,16v213.8c0,12.1-1.1,18.2-3.2,30.1l-0.1,0.5
		c-0.8,4.7,0.2,9.5,2.8,13.5c3.4,5.1,9.1,8.2,15.3,8.2h213.9c4.1,0,8.1-1.4,11.1-4.1c4.7-4.1,6.5-10.3,5.2-16
		c-2.7-11.8-4.5-17.8-4.8-29.9H400c26.4,0,48-21.6,48-48v-96C448,215.6,426.4,194,400,194z M420,338c0,11-9,20-20,20h-32V222h32
		c11,0,20,9,20,20V338z"/>
</g>
</svg>
