<?xml version="1.0" encoding="utf-8"?>
<!-- Generator: Adobe Illustrator 22.0.1, SVG Export Plug-In . SVG Version: 6.00 Build 0)  -->
<svg version="1.1" id="Layer_1" xmlns="http://www.w3.org/2000/svg" xmlns:xlink="http://www.w3.org/1999/xlink" x="0px" y="0px"
	 viewBox="0 0 512 512" style="enable-background:new 0 0 512 512;" xml:space="preserve">
<g>
	<path d="M441.1,131.1l-44.9,45.1c-0.9,0.9-2.3,1.3-3.5,1.1l-46.4-8.4c-1.6-0.3-2.9-1.6-3.2-3.2l-8.3-46.4c-0.2-1.3,0.2-2.6,1.1-3.5
		l44.8-45c3.5-3.5,3-9.3-1-12.1C369.6,51.5,357.6,48,347.9,48c-0.7,0-1.4,0-2,0.1c-12.5,0.7-39.3,7.7-60,29.7
		c-20.1,21.2-41.1,60.6-22.5,104.5c2.2,5.3,4.7,12.3-2.7,19.7C253.1,209.4,61,390.3,61,390.3c-18,15.5-16.7,44.2-0.1,60.9
		c8.5,8.4,20,12.8,31.3,12.8c11.1,0,21.9-4.2,29.6-13.1c0,0,179.4-191.1,188.2-199.8c4-3.9,7.7-5.1,11.1-5.1c3.3,0,6.3,1.2,8.6,2.4
		c9.9,5.1,21,7.4,32.4,7.4c26.8,0,55-12.4,72.2-29.6c24.4-24.4,28.9-48,29.6-60.1c0.6-9.9-2.2-22.6-10.7-34.2
		C450.3,128.1,444.6,127.7,441.1,131.1z M102.5,429.3c-5.5,5.4-14.4,5.4-19.9,0c-5.4-5.5-5.4-14.4,0-19.9c5.5-5.4,14.4-5.4,19.9,0
		C107.9,415,107.9,423.9,102.5,429.3z"/>
</g>
</svg>
