<?xml version="1.0" encoding="utf-8"?>
<!-- Generator: Adobe Illustrator 22.0.1, SVG Export Plug-In . SVG Version: 6.00 Build 0)  -->
<svg version="1.1" id="Layer_1" xmlns="http://www.w3.org/2000/svg" xmlns:xlink="http://www.w3.org/1999/xlink" x="0px" y="0px"
	 viewBox="0 0 512 512" style="enable-background:new 0 0 512 512;" xml:space="preserve">
<g>
	<path d="M272,64h-16c-4.4,0-8,3.6-8,8l0,72c0,4.4,7.6,8,12,8h12c4.4,0,8-3.6,8-8l0-72C280,67.6,276.4,64,272,64z"/>
	<g>
		<path d="M433.9,130.1l-51.9-51.9c-9-9-21.3-14.2-34.1-14.2h-28c-8.8,0-16,7.3-16,16.2v80c0,8.8-7.2,16-16,16H160
			c-8.8,0-16-7.2-16-16v-80c0-8.8-7.2-16.2-16-16.2H96c-17.6,0-32,14.4-32,32v320c0,17.6,14.4,32,32,32h320c17.6,0,32-14.4,32-32
			V164C448,151.3,442.9,139.1,433.9,130.1z M322,400.1c0,8.8-8,16-17.8,16H143.8c-9.8,0-17.8-7.2-17.8-16v-96c0-8.8,8-16,17.8-16
			h160.4c9.8,0,17.8,7.2,17.8,16V400.1z"/>
	</g>
</g>
</svg>
