<?xml version="1.0" encoding="utf-8"?>
<!-- Generator: Adobe Illustrator 22.0.1, SVG Export Plug-In . SVG Version: 6.00 Build 0)  -->
<svg version="1.1" id="Layer_1" xmlns="http://www.w3.org/2000/svg" xmlns:xlink="http://www.w3.org/1999/xlink" x="0px" y="0px"
	 viewBox="0 0 512 512" style="enable-background:new 0 0 512 512;" xml:space="preserve">
<g>
	<circle cx="256" cy="275" r="57.5"/>
	<path d="M417.5,160l-54.5,0c-4.6,0-8.9-2-12-5.4c-28.4-31.8-39.1-42.6-50.7-42.6h-85.5c-11.7,0-23.2,10.8-51.7,42.7
		c-3,3.4-7.4,5.3-11.9,5.3l-4.1,0v-8c0-4.4-3.6-8-8-8h-26c-4.4,0-8,3.6-8,8v8h-7.5C79.9,160,64,173.2,64,190.7v176
		c0,17.5,15.9,33.3,33.5,33.3h320c17.6,0,30.5-15.8,30.5-33.3v-176C448,173.2,435.1,160,417.5,160z M260,360.4
		c-50.3,2.3-91.7-39.1-89.4-89.4c2-43.9,37.5-79.4,81.4-81.4c50.3-2.3,91.7,39.1,89.4,89.4C339.4,322.9,303.9,358.4,260,360.4z
		 M352,218c-7.2,0-13-5.8-13-13s5.8-13,13-13s13,5.8,13,13S359.2,218,352,218z"/>
</g>
</svg>
