<?xml version="1.0" encoding="utf-8"?>
<!-- Generator: Adobe Illustrator 22.0.1, SVG Export Plug-In . SVG Version: 6.00 Build 0)  -->
<svg version="1.1" id="Layer_1" xmlns="http://www.w3.org/2000/svg" xmlns:xlink="http://www.w3.org/1999/xlink" x="0px" y="0px"
	 viewBox="0 0 512 512" style="enable-background:new 0 0 512 512;" xml:space="preserve">
<g>
	<path d="M112.6,312.3h190.7c4.5,0,7.1-5.1,4.5-8.8l-95.4-153.4c-2.2-3.2-6.9-3.2-9.1,0L108,303.5
		C105.4,307.2,108.1,312.3,112.6,312.3z"/>
	<path d="M306.7,254.3l35,55.7c1,1.5,2.7,2.4,4.5,2.4h53.2c4.5,0,7.1-5.1,4.5-8.8l-61.6-87.7c-2.2-3.2-6.9-3.2-9.1,0l-26.6,32.1
		C305.4,249.8,305.4,252.3,306.7,254.3z"/>
	<path d="M351.1,167.9c13.1-1.3,23.7-11.9,25-25c1.8-17.7-13-32.5-30.7-30.7c-13.1,1.3-23.7,11.9-25,25
		C318.7,154.9,333.4,169.7,351.1,167.9z"/>
	<path d="M432,48H80c-17.7,0-32,14.3-32,32v352c0,17.7,14.3,32,32,32h352c17.7,0,32-14.3,32-32V80C464,62.3,449.7,48,432,48z
		 M429.3,328c0,4.4-3.6,8-8,8H90.7c-4.4,0-8-3.6-8-8V90.7c0-4.4,3.6-8,8-8h330.7c4.4,0,8,3.6,8,8V328z"/>
</g>
</svg>
