<?xml version="1.0" encoding="utf-8"?>
<!-- Generator: Adobe Illustrator 22.0.1, SVG Export Plug-In . SVG Version: 6.00 Build 0)  -->
<svg version="1.1" id="Layer_1" xmlns="http://www.w3.org/2000/svg" xmlns:xlink="http://www.w3.org/1999/xlink" x="0px" y="0px"
	 viewBox="0 0 512 512" style="enable-background:new 0 0 512 512;" xml:space="preserve">
<g>
	<path d="M424,96h-40v24c0,4.4-3.6,8-8,8h-16c-4.4,0-8-3.6-8-8V96H160v24c0,4.4-3.6,8-8,8h-16c-4.4,0-8-3.6-8-8V96H88
		c-22,0-40,18-40,40v272c0,22,18,40,40,40h336c22,0,40-18,40-40V136C464,114,446,96,424,96z M432,396c0,11-9,20-20,20H100
		c-11,0-20-9-20-20V216c0-4.4,3.6-8,8-8h336c4.4,0,8,3.6,8,8V396z"/>
	<path d="M160,72c0-4.4-3.6-8-8-8h-16c-4.4,0-8,3.6-8,8v24h32V72z"/>
	<path d="M384,72c0-4.4-3.6-8-8-8h-16c-4.4,0-8,3.6-8,8v24h32V72z"/>
</g>
</svg>
