<?xml version="1.0" encoding="utf-8"?>
<!-- Generator: Adobe Illustrator 22.0.1, SVG Export Plug-In . SVG Version: 6.00 Build 0)  -->
<svg version="1.1" id="Layer_1" xmlns="http://www.w3.org/2000/svg" xmlns:xlink="http://www.w3.org/1999/xlink" x="0px" y="0px"
	 viewBox="0 0 512 512" style="enable-background:new 0 0 512 512;" xml:space="preserve">
<g>
	<path d="M464,144H128c-17.6,0-32,14.4-32,32v240c0,17.6,14.4,32,32,32h336c17.6,0,32-14.4,32-32V176C496,158.4,481.6,144,464,144z"
		/>
	<g>
		<path d="M100,116h332V96c0-17.6-14.4-32-32-32H48c-17.6,0-32,14.4-32,32v256c0,17.6,14.4,32,32,32h20V148
			C68,130.4,82.4,116,100,116z"/>
	</g>
</g>
</svg>
