<?xml version="1.0" encoding="utf-8"?>
<!-- Generator: Adobe Illustrator 22.0.1, SVG Export Plug-In . SVG Version: 6.00 Build 0)  -->
<svg version="1.1" id="Layer_1" xmlns="http://www.w3.org/2000/svg" xmlns:xlink="http://www.w3.org/1999/xlink" x="0px" y="0px"
	 viewBox="0 0 512 512" style="enable-background:new 0 0 512 512;" xml:space="preserve">
<g>
	<path d="M184.3,204.8h-77.7c-7.7,0-13.9,6.2-13.9,13.9v0.2c0,7.7,6.2,13.9,13.9,13.9h112.2c7.7,0,13.9-6.2,13.9-13.9V106.6
		c0-7.7-6.2-13.9-13.9-13.9h-0.2c-7.7,0-13.9,6.2-13.9,13.9v77.7L87.7,68c-2.6-2.6-6.1-4-9.8-4c-3.7,0-7.2,1.4-9.8,4.1
		c-5.4,5.4-5.4,14.2,0,19.6L184.3,204.8z"/>
	<path d="M293.1,232.8h112.2c7.7,0,13.9-6.2,13.9-13.9v-0.2c0-7.7-6.2-13.9-13.9-13.9h-77.7L444,87.7c5.4-5.4,5.4-14.2,0-19.6
		c-2.6-2.6-6.1-4.1-9.8-4.1c-3.7,0-7.2,1.4-9.8,4L307.3,184.3v-77.7c0-7.7-6.2-13.9-13.9-13.9h-0.2c-7.7,0-13.9,6.2-13.9,13.9v112.2
		C279.3,226.5,285.5,232.8,293.1,232.8z"/>
	<path d="M77.9,448c3.7,0,7.2-1.4,9.8-4l117.1-116.3v77.7c0,7.7,6.2,13.9,13.9,13.9h0.2c7.7,0,13.9-6.2,13.9-13.9V293.1
		c0-7.7-6.2-13.9-13.9-13.9H106.6c-7.7,0-13.9,6.2-13.9,13.9v0.2c0,7.7,6.2,13.9,13.9,13.9h77.7L68,424.3c-5.4,5.4-5.4,14.2,0,19.6
		C70.7,446.6,74.2,448,77.9,448z"/>
	<path d="M293.1,419.2h0.2c7.7,0,13.9-6.2,13.9-13.9v-77.7L424.3,444c2.6,2.6,6.1,4,9.8,4c3.7,0,7.2-1.4,9.8-4.1
		c5.4-5.4,5.4-14.2,0-19.6L327.7,307.2h77.7c7.7,0,13.9-6.2,13.9-13.9v-0.2c0-7.7-6.2-13.9-13.9-13.9H293.1
		c-7.7,0-13.9,6.2-13.9,13.9v112.2C279.3,413,285.5,419.2,293.1,419.2z"/>
</g>
</svg>
