<?xml version="1.0" encoding="utf-8"?>
<!-- Generator: Adobe Illustrator 22.0.1, SVG Export Plug-In . SVG Version: 6.00 Build 0)  -->
<svg version="1.1" id="Layer_1" xmlns="http://www.w3.org/2000/svg" xmlns:xlink="http://www.w3.org/1999/xlink" x="0px" y="0px"
	 viewBox="0 0 512 512" style="enable-background:new 0 0 512 512;" xml:space="preserve">
<g>
	<g>
		<path d="M256,456c-110.3,0-200-89.7-200-200c0-54.8,21.7-105.9,61.2-144c6.4-6.2,16.6-6,22.7,0.4c6.2,6.4,6,16.6-0.4,22.7
			C106.4,167.1,88.2,210,88.2,256c0,92.5,75.3,167.8,167.8,167.8S423.8,348.5,423.8,256c0-87.1-66.7-159-151.8-167.1v62.6
			c0,8.9-7.2,16.1-16.1,16.1s-16.1-7.2-16.1-16.1V72.1c0-8.9,7.2-16.1,16.1-16.1c110.3,0,200,89.7,200,200S366.3,456,256,456z"/>
	</g>
	<path d="M175.9,161.9l99.5,71.5c13.5,9.7,16.7,28.5,7,42c-9.7,13.5-28.5,16.7-42,7c-2.8-2-5.2-4.4-7-7l-71.5-99.5
		c-3.2-4.5-2.2-10.8,2.3-14C167.8,159.3,172.5,159.5,175.9,161.9z"/>
</g>
</svg>
