<?xml version="1.0" encoding="utf-8"?>
<!-- Generator: Adobe Illustrator 18.1.1, SVG Export Plug-In . SVG Version: 6.00 Build 0)  -->
<svg version="1.1" id="Layer_1" xmlns="http://www.w3.org/2000/svg" xmlns:xlink="http://www.w3.org/1999/xlink" x="0px" y="0px"
	 viewBox="0 0 512 512" enable-background="new 0 0 512 512" xml:space="preserve">
<g>
	<path d="M256,447.8c-29.6,0-69.9-6.7-96-15.8c0,0-35,22.5-80,32c32.3,0,53.3-9,80-16c23,9,66.7,15.8,96,15.8c29.3,0,74-5.8,96-15.8
		c26.7,7,47,16,80,16c-43.8-9.5-80-32-80-32C325.9,441.1,285.6,447.8,256,447.8z"/>
	<path d="M445.5,263C445.5,263,445.5,263,445.5,263l-30.7-14.1l-23-121.9l0-0.1C386.3,100.3,374.4,80,352,80h-34.6l-8.2-32H202.5
		l-8.1,32H160c-22.9,0-35.1,20.7-39.8,47l-23,121.9L66.5,263c0,0,0,0,0,0c-6.2,2.9-10.5,9.1-10.5,16.4c0,2.4,0.5,4.6,1.3,6.7
		L112,432c27.5,0,56.7-19,56.7-19c19.9,10,60.8,18.8,87.3,18.8c26.5,0,67.4-8.8,87.3-18.8c0,0,29.2,19,56.7,19l54.7-145.9
		c0.8-2.1,1.3-4.3,1.3-6.7C456,272.1,451.7,265.9,445.5,263z M214.9,64h81.8l4.1,16h-90L214.9,64z M135.9,129.9
		C139.7,108.9,147,96,160,96h192c12.8,0,19.7,12.8,24.1,34.1L397,240.7L360.6,224h0.2c8.9,0,16.8-4.6,15.1-16l-15.1-80
		c-3-11-7.2-16-16.1-16H167.4c-8.9,0-13.6,5.3-16.1,16l-15.1,80c-1.3,8,6.2,16,15.1,16h0.2L115,240.7L135.9,129.9z M256,176
		l-69.7,32h-33.8l14.5-76.6c0.4-1.6,0.8-2.7,1.1-3.4h175.8c0.3,0.7,0.8,1.9,1.3,3.7l14.4,76.3h-33.8L256,176z M167.7,394.6l-7.7,5
		c-5.7,3.7-21.2,12-36.7,15.2L72,279.4c0-1.1,0.8-1.6,1.1-1.8L248,195.7v219.8c-24-1.5-56.2-8.8-72.1-16.8L167.7,394.6z
		 M388.7,414.8c-15.5-3.2-31-11.5-36.7-15.2l-7.7-5l-8.2,4.1c-15.9,8-48.2,15.4-72.1,16.8V195.7l174.9,81.9c0.3,0.2,1.1,0.7,1.1,1.8
		L388.7,414.8z"/>
	<ellipse cx="300" cy="266" rx="12" ry="22"/>
	<ellipse cx="212" cy="266" rx="12" ry="22"/>
</g>
</svg>
