<?xml version="1.0" encoding="utf-8"?>
<!-- Generator: Adobe Illustrator 22.0.1, SVG Export Plug-In . SVG Version: 6.00 Build 0)  -->
<svg version="1.1" id="Layer_1" xmlns="http://www.w3.org/2000/svg" xmlns:xlink="http://www.w3.org/1999/xlink" x="0px" y="0px"
	 viewBox="0 0 512 512" style="enable-background:new 0 0 512 512;" xml:space="preserve">
<g>
	<path d="M48,181.4V424c0,22.1,17.9,40,40,40h242.6c22.1,0,40-17.9,40-40V181.4c0-22.1-17.9-40-40-40H88
		C65.9,141.4,48,159.3,48,181.4z"/>
	<path d="M141.4,88v28.4c0,2.2,1.8,4,4,4h198.2c26.4,0,48,21.6,48,48v198.2c0,2.2,1.8,4,4,4H424c22.1,0,40-17.9,40-40V88
		c0-22.1-17.9-40-40-40H181.4C159.3,48,141.4,65.9,141.4,88z"/>
</g>
</svg>
