<?xml version="1.0" encoding="utf-8"?>
<!-- Generator: Adobe Illustrator 22.0.1, SVG Export Plug-In . SVG Version: 6.00 Build 0)  -->
<svg version="1.1" id="Layer_1" xmlns="http://www.w3.org/2000/svg" xmlns:xlink="http://www.w3.org/1999/xlink" x="0px" y="0px"
	 viewBox="0 0 512 512" style="enable-background:new 0 0 512 512;" xml:space="preserve">
<g>
	<path d="M378.6,133.4C338.1,92.9,283.9,71,231.4,59.6L59.6,231.4c11.4,52.6,33.3,106.7,73.8,147.2c40.5,40.5,94.7,62.4,147.2,73.8
		l171.8-171.8C441,228.1,419.1,173.9,378.6,133.4z M344.1,288l-19.2,19.2l14.8,14.8c4.9,4.9,4.9,12.7,0,17.6h0
		c-4.9,4.9-12.7,4.9-17.6,0l-14.8-14.8L288,344.2c-2,2-4.5,3.4-7.3,3.9c-4.2,0.7-8.4-0.7-11.3-3.6l0,0c-1.5-1.5-2.6-3.3-3.2-5.3
		c-1.4-4.9-0.1-9.7,3.2-13.1l19.5-19.5l-15.6-15.6l-19.3,19.3c-2.1,2.1-4.7,3.5-7.6,3.9c-5.5,0.7-10.7-1.9-13.4-7
		c-0.3-0.6-0.6-1.2-0.8-1.9c-1.5-4.9-0.2-9.8,3.2-13.2l19.5-19.5L239.4,257l-19.3,19.3c-2.1,2.1-4.7,3.5-7.6,3.9
		c-5.5,0.7-10.7-1.9-13.4-7c-0.3-0.6-0.6-1.2-0.8-1.9c-1.5-4.9-0.2-9.8,3.2-13.2l19.5-19.5L205.5,223l-19.3,19.3
		c-2.1,2.1-4.7,3.5-7.6,3.9c-5.5,0.7-10.7-1.9-13.4-7c-0.3-0.6-0.6-1.2-0.8-1.9c-1.5-4.9-0.2-9.8,3.2-13.2l19.5-19.5l-14.8-14.8
		c-4.9-4.9-4.9-12.7,0-17.6l0,0c4.9-4.9,12.7-4.9,17.6,0l14.8,14.8l19.3-19.3c2.1-2.1,4.7-3.5,7.6-3.9c5.5-0.7,10.7,1.9,13.4,7
		c0.3,0.6,0.6,1.2,0.8,1.9c1.5,4.9,0.2,9.8-3.2,13.2l-19.5,19.5l15.6,15.6l19.3-19.3c2-2,4.5-3.4,7.3-3.9c4.2-0.7,8.4,0.7,11.3,3.6
		l0,0c1.5,1.4,2.6,3.2,3.2,5.2c1.5,4.9,0.2,9.8-3.2,13.2L257,239.4l15.6,15.6l19.3-19.3c2.1-2.1,4.7-3.5,7.6-3.9
		c5.5-0.7,10.7,1.9,13.4,7c0.3,0.6,0.6,1.2,0.8,1.9c1.5,4.9,0.2,9.8-3.2,13.2L291,273.4l15.6,15.6l19.3-19.3c2.2-2.2,5-3.6,8-4
		c4.4-0.5,8.6,1.2,11.4,4.6C349.4,275.3,348.8,283.4,344.1,288z"/>
	<path d="M395.1,464c27.6,0,48.8-1.8,58.8-2.9c3.7-0.4,6.7-3.4,7.1-7.1c2-18.9,6.8-77.6-3.2-143.7L310.3,457.9
		C341.3,462.6,370.7,464,395.1,464z"/>
	<path d="M116.8,48C89.3,48,68,49.8,58,50.9c-3.7,0.4-6.7,3.4-7.1,7.1c-2,18.9-6.8,77.6,3.2,143.6L201.6,54.1
		C170.6,49.4,141.2,48,116.8,48z"/>
</g>
</svg>
