<?xml version="1.0" encoding="utf-8"?>
<!-- Generator: Adobe Illustrator 22.0.1, SVG Export Plug-In . SVG Version: 6.00 Build 0)  -->
<svg version="1.1" id="Layer_1" xmlns="http://www.w3.org/2000/svg" xmlns:xlink="http://www.w3.org/1999/xlink" x="0px" y="0px"
	 viewBox="0 0 512 512" style="enable-background:new 0 0 512 512;" xml:space="preserve">
<g>
	<path d="M256,48C141.1,48,48,141.1,48,256s93.1,208,208,208c114.9,0,208-93.1,208-208S370.9,48,256,48z M338.6,320H173.4
		c-25.1,0-45.4-21.4-45.4-47.2c0-21,13.2-39.8,33.2-46.2c0.3-20,16.2-36.1,35.7-36.1c5.3,0,10.4,1.2,14.9,3.4
		c13.1-20.5,36.9-33.8,62.5-33.8c37.7,0,67.5,29.3,71.4,66.9c21.7,3.5,38.3,22.7,38.3,45.9C384,298.6,363.7,320,338.6,320z"/>
</g>
</svg>
