<?xml version="1.0" encoding="utf-8"?>
<!-- Generator: Adobe Illustrator 18.1.1, SVG Export Plug-In . SVG Version: 6.00 Build 0)  -->
<svg version="1.1" id="Layer_1" xmlns="http://www.w3.org/2000/svg" xmlns:xlink="http://www.w3.org/1999/xlink" x="0px" y="0px"
	 viewBox="0 0 512 512" enable-background="new 0 0 512 512" xml:space="preserve">
<path d="M374.4,143.2l-13.3-0.1C349.3,89.6,306,48,236,48S108.2,99.7,108.2,170.8l0.3,4.8C66.2,181.2,32,220.1,32,264.5
	c0,47,37.9,88.5,84.6,88.5h10.6l-37.4,50.7c-2.6,3.6-1.8,8.3,1.8,10.9c1.3,1,2.9,1.4,4.4,1.4c2.3,0,5.1-0.6,6.8-2.9L147,353h61.4
	l-72.3,99c-2.6,3.6-2.2,8,1.4,10.6c1.3,1,3.3,1.4,4.8,1.4c3.7,0,6.1-1.3,7.8-3.6L228.1,353h61.1l-37.3,50.7
	c-2.6,3.6-1.8,8.3,1.8,10.9c1.3,1,2.9,1.4,4.4,1.4c2.3,0,5.1-0.6,6.8-2.9L309,353h61.4l-72.3,99c-2.6,3.6-2.1,7.8,1.5,10.3
	c1.3,1,3.2,1.7,4.7,1.7c2.3,0,5.1-0.8,6.8-3.1l80.1-110.3c50.4-8.4,88.9-53.7,88.9-106.6C480,185.4,432.7,143.2,374.4,143.2z"/>
</svg>
