<?xml version="1.0" encoding="utf-8"?>
<!-- Generator: Adobe Illustrator 22.0.1, SVG Export Plug-In . SVG Version: 6.00 Build 0)  -->
<svg version="1.1" id="Layer_1" xmlns="http://www.w3.org/2000/svg" xmlns:xlink="http://www.w3.org/1999/xlink" x="0px" y="0px"
	 viewBox="0 0 512 512" style="enable-background:new 0 0 512 512;" xml:space="preserve">
<g>
	<path d="M324.3,80.3c-1.2-0.2-2.4-0.3-3.6-0.3v0.3v0.1v-0.3c-0.1,0-0.2,0-0.4,0c-22,0-42.9,25.9-47.8,60.3
		c-5.3,36.6,9.4,69,32.7,72.4c1.3,0.2,2.7,0.3,4,0.3c22,0,42.9-25.9,47.8-60.3C362.3,116.1,347.6,83.7,324.3,80.3z"/>
	<path d="M320.6,80L320.6,80L320.6,80z"/>
	<path d="M442.3,169.4c-3.5-1.4-7.1-2.1-10.9-2.1c-0.1,0-0.3,0-0.4,0l0,0l0,0c-19.7,0.3-41.8,19.2-53.4,47.8
		c-13.9,34.2-7.5,69.2,14.4,78.2c3.5,1.4,7.1,2.1,10.9,2.1c19.8,0,42.2-19,53.9-47.8C470.6,213.4,464.1,178.4,442.3,169.4z"/>
	<path d="M327.6,295.4c-27.8-43.6-39.8-60-71.6-60s-43.9,16.5-71.7,60c-23.8,37.2-71.9,40.3-83.9,71.9c-2.4,5.6-3.6,11.7-3.6,18.2
		c0,25.7,20.8,46.5,46.4,46.5c31.8,0,75.1-24,112.9-24s80.9,24,112.7,24c25.6,0,46.3-20.8,46.3-46.5c0-6.5-1.3-12.6-3.7-18.2
		C399.4,335.6,351.4,332.6,327.6,295.4z"/>
	<path d="M202.8,213c1.3,0,2.7-0.1,4-0.3c23.4-3.4,38-35.8,32.7-72.4c-5-34.5-25.9-60.3-47.8-60.3c-1.3,0-2.7,0.1-4,0.3
		c-23.4,3.4-38,35.8-32.7,72.4C160,187.1,180.9,213,202.8,213z"/>
	<path d="M120.1,293.3c21.9-9,28.3-44,14.4-78.2c-11.7-28.8-34.1-47.8-53.9-47.8c-3.8,0-7.4,0.7-10.9,2.1c-21.9,9-28.3,44-14.4,78.2
		c11.7,28.8,34.1,47.8,53.9,47.8C113,295.4,116.6,294.7,120.1,293.3z"/>
</g>
</svg>
