<?xml version="1.0" encoding="utf-8"?>
<!-- Generator: Adobe Illustrator 22.0.1, SVG Export Plug-In . SVG Version: 6.00 Build 0)  -->
<svg version="1.1" id="Layer_1" xmlns="http://www.w3.org/2000/svg" xmlns:xlink="http://www.w3.org/1999/xlink" x="0px" y="0px"
	 viewBox="0 0 512 512" style="enable-background:new 0 0 512 512;" xml:space="preserve">
<path d="M61.6,464c3.6,0,7.1-1.4,9.6-4l44.8-44.8l37,37c2.6,2.6,6,4,9.6,4c3.6,0,7.1-1.4,9.6-4c5.3-5.3,5.3-13.9,0-19.2l-37-37
	l50-50c30.6,26,69.3,40.3,109.6,40.3c22.8,0,45-4.5,65.8-13.3c20.1-8.5,38.2-20.7,53.8-36.2c15.5-15.5,27.7-33.6,36.2-53.8
	c8.8-20.9,13.3-43,13.3-65.8s-4.5-45-13.3-65.8c-8.5-20.1-20.7-38.2-36.2-53.8c-15.5-15.5-33.6-27.7-53.8-36.2
	c-20.9-8.8-43-13.3-65.8-13.3c-22.8,0-45,4.5-65.8,13.3c-20.1,8.5-38.2,20.7-53.8,36.2c-15.5,15.5-27.7,33.6-36.2,53.8
	c-8.8,20.9-13.3,43-13.3,65.8c0,40.3,14.3,79,40.3,109.6l-50,50l-37-37c-2.6-2.6-6-4-9.6-4c-3.6,0-7.1,1.4-9.6,4
	c-5.3,5.3-5.3,13.9,0,19.2l37,37L52,440.8c-5.3,5.3-5.3,13.9,0,19.2C54.6,462.6,58,464,61.6,464z M194.5,116.8
	C221.3,90,257,75.2,294.9,75.2c37.9,0,73.5,14.8,100.3,41.6c26.8,26.8,41.6,62.4,41.6,100.3s-14.8,73.5-41.6,100.3
	c-26.8,26.8-62.4,41.6-100.3,41.6c-37.9,0-73.5-14.8-100.3-41.6C167.7,290.7,153,255,153,217.1S167.7,143.6,194.5,116.8z"/>
</svg>
