<?xml version="1.0" encoding="utf-8"?>
<!-- Generator: Adobe Illustrator 18.1.1, SVG Export Plug-In . SVG Version: 6.00 Build 0)  -->
<svg version="1.1" id="Layer_1" xmlns="http://www.w3.org/2000/svg" xmlns:xlink="http://www.w3.org/1999/xlink" x="0px" y="0px"
	 viewBox="0 0 512 512" enable-background="new 0 0 512 512" xml:space="preserve">
<g>
	<polygon points="246.9,240 237,257.1 245.6,272 266,272 275.1,256.4 265.6,240 	"/>
	<path d="M256,48C141.1,48,48,141.1,48,256s93.1,208,208,208s208-93.1,208-208S370.9,48,256,48z M254.9,288l82.1,142.1
		c-2.1,1-4.1,1.9-6.2,2.8c-2.9,1.2-5.8,2.4-8.7,3.4l-94.2-163.2l-81.2,140.7c-4.4-3.1-8.7-6.3-12.8-9.7l94.7-164H64.7
		c0.4-5.4,1.1-10.7,2-16h189.7L174.5,82.1c2.2-1.1,4.5-2.1,6.8-3c2.7-1.1,5.4-2.2,8.1-3.2l95,164.5l81.8-141.7
		c4.4,3.1,8.7,6.4,12.8,9.8L284.5,272h162.8c-0.4,5.4-1.1,10.7-2,16H254.9z"/>
</g>
</svg>
