<?xml version="1.0" encoding="utf-8"?>
<!-- Generator: Adobe Illustrator 22.0.1, SVG Export Plug-In . SVG Version: 6.00 Build 0)  -->
<svg version="1.1" id="Layer_1" xmlns="http://www.w3.org/2000/svg" xmlns:xlink="http://www.w3.org/1999/xlink" x="0px" y="0px"
	 viewBox="0 0 512 512" style="enable-background:new 0 0 512 512;" xml:space="preserve">
<g>
	<path d="M396,144H64c-26.4,0-48,21.6-48,48v128c0,26.4,21.6,48,48,48h332c26.4,0,48-21.6,48-48V192C444,165.6,422.4,144,396,144z
		 M416,320c0,11-9,20-20,20H64c-11,0-20-9-20-20V192c0-11,9-20,20-20h332c11,0,20,9,20,20V320z"/>
	<path d="M464,204.6v102.8c16,0,32-27.7,32-51.4C496,232.3,480,204.6,464,204.6z"/>
</g>
</svg>
