<?xml version="1.0" encoding="utf-8"?>
<!-- Generator: Adobe Illustrator 18.1.1, SVG Export Plug-In . SVG Version: 6.00 Build 0)  -->
<svg version="1.1" id="Layer_1" xmlns="http://www.w3.org/2000/svg" xmlns:xlink="http://www.w3.org/1999/xlink" x="0px" y="0px"
	 viewBox="0 0 512 512" enable-background="new 0 0 512 512" xml:space="preserve">
<g>
	<path d="M256,64c70.6,0,128,52.8,128,117.7c0,39.5-24,98.7-69.4,171.4c-22.4,35.9-45.1,67-58.6,84.8c-13.5-17.8-36-48.7-58.4-84.5
		C152.1,280.6,128,221.2,128,181.7C128,116.8,185.4,64,256,64 M256,48c-79.5,0-144,59.9-144,133.7c0,104,144,282.3,144,282.3
		s144-178.3,144-282.3C400,107.9,335.5,48,256,48L256,48z"/>
	<path d="M256,128c-35.3,0-64,28.7-64,64s28.7,64,64,64s64-28.7,64-64S291.3,128,256,128z M256,238.9c-25.9,0-46.9-21-46.9-46.9
		s21-46.9,46.9-46.9s46.9,21,46.9,46.9S281.9,238.9,256,238.9z"/>
</g>
</svg>
