<?xml version="1.0" encoding="utf-8"?>
<!-- Generator: Adobe Illustrator 22.0.1, SVG Export Plug-In . SVG Version: 6.00 Build 0)  -->
<svg version="1.1" id="Layer_1" xmlns="http://www.w3.org/2000/svg" xmlns:xlink="http://www.w3.org/1999/xlink" x="0px" y="0px"
	 viewBox="0 0 512 512" style="enable-background:new 0 0 512 512;" xml:space="preserve">
<path d="M394.9,117.3c-11.6,0-21.1,9.3-21.1,20.6v109.4c0,4.8-4,8.7-8.9,8.7c-4.9,0-8.9-3.9-8.9-8.7V85.9c0-11.3-9.5-20.6-21.1-20.6
	c-11.6,0-21.1,9.3-21.1,20.6v126.8c0,4.8-4,8.7-8.9,8.7c-4.9,0-8.9-3.9-8.9-8.7V68.6c0-11.3-9.5-20.6-21.1-20.6
	c-11.6,0-21.1,9.3-21.1,20.6V230c0,4.8-4,8.7-8.9,8.7s-8.9-3.9-8.9-8.7V103.2c0-11.3-9.5-20.6-21.1-20.6c-11.6,0-21.1,9.3-21.1,20.6
	v218.3L166,297.9c-26.1-22.7-48.2-32.4-66.2-15.7c-12.1,11.8,6.9,30.9,26.8,53.2c19.2,21.5,70,91.9,113.3,117.3
	c0,0,16.7,11.4,40.6,11.4c23.9,0,57.2,0,57.2,0c46.1,0,78.4-37.9,78.4-93.2V137.9C416,126.6,406.5,117.3,394.9,117.3z"/>
</svg>
