<?xml version="1.0" encoding="utf-8"?>
<!-- Generator: Adobe Illustrator 22.0.1, SVG Export Plug-In . SVG Version: 6.00 Build 0)  -->
<svg version="1.1" id="Layer_1" xmlns="http://www.w3.org/2000/svg" xmlns:xlink="http://www.w3.org/1999/xlink" x="0px" y="0px"
	 viewBox="0 0 512 512" style="enable-background:new 0 0 512 512;" xml:space="preserve">
<g>
	<g>
		<path d="M403.3,32H285.1c-3.7,0-7.2,1.5-9.8,4.1L40.1,272.2c-10.8,10.8-10.8,28.4,0,39.2l111.5,112.5C162.4,434.7,179,440,195,426
			l231.9-232.3c2.6-2.6,4.1-6.1,4.1-9.8V59.7C431,44.4,418.6,32,403.3,32z M357.4,139.5c-19.6,2.1-36-14.4-33.9-33.9
			c1.5-14.3,13-25.7,27.3-27.3c19.6-2.1,36,14.4,33.9,33.9C383.2,126.5,371.7,138,357.4,139.5z"/>
	</g>
	<path d="M456,80.3v113.7c0,3.7-1.5,7.2-4.1,9.8L192.7,463l8.8,8.8c10.8,10.8,28.4,10.8,39.2,0l235.2-236.2c2.6-2.6,4.1-6.1,4.1-9.8
		V107.7C480,93.7,469.5,82.1,456,80.3z"/>
</g>
</svg>
