<?xml version="1.0" encoding="utf-8"?>
<!-- Generator: Adobe Illustrator 22.0.1, SVG Export Plug-In . SVG Version: 6.00 Build 0)  -->
<svg version="1.1" id="Layer_1" xmlns="http://www.w3.org/2000/svg" xmlns:xlink="http://www.w3.org/1999/xlink" x="0px" y="0px"
	 viewBox="0 0 512 512" style="enable-background:new 0 0 512 512;" xml:space="preserve">
<g>
	<path d="M146,64.1c54.1,0,100,27.9,100,82v16l0,0l0,0l0,0l0,283.9c0,2.2-3.1,2.7-3.8,0.7c0,0,0,0,0-0.1
		c-10.3-34.2-38.2-67.6-82.3-70.5c-34.2-2.2-66.9,12.9-93.1,37.1c-1.6,1.5-4.3,2.9-6.6,2.9h-4.5c-3.7,0-7.6-2.7-7.6-6.1V120.2
		C48,88.1,91.9,64.1,146,64.1z"/>
	<path d="M366,64c-54.1,0-100,27.9-100,82v16v0l0,0l0,0l0,283.9c0,2.2,3.1,2.7,3.8,0.7c0,0,0,0,0-0.1c10.3-34.2,39.4-67.9,82.3-70.5
		c32.9-2,63.9,11,93.1,37.1c1.6,1.4,4.3,2.9,6.6,2.9h4.5c3.7,0,7.6-2.7,7.6-6.1V120C464,88,420.1,64,366,64z"/>
</g>
</svg>
