<?xml version="1.0" encoding="utf-8"?>
<!-- Generator: Adobe Illustrator 22.0.1, SVG Export Plug-In . SVG Version: 6.00 Build 0)  -->
<svg version="1.1" id="Layer_1" xmlns="http://www.w3.org/2000/svg" xmlns:xlink="http://www.w3.org/1999/xlink" x="0px" y="0px"
	 viewBox="0 0 512 512" style="enable-background:new 0 0 512 512;" xml:space="preserve">
<g>
	<circle cx="92" cy="256" r="28"/>
	<circle cx="92" cy="132" r="28"/>
	<circle cx="92" cy="380" r="28"/>
	<path d="M432,240H191.5c-8.8,0-16,7.2-16,16c0,8.8,7.2,16,16,16H432c8.8,0,16-7.2,16-16C448,247.2,440.8,240,432,240z"/>
	<path d="M432,364H191.5c-8.8,0-16,7.2-16,16s7.2,16,16,16H432c8.8,0,16-7.2,16-16S440.8,364,432,364z"/>
	<path d="M191.5,148H432c8.8,0,16-7.2,16-16s-7.2-16-16-16H191.5c-8.8,0-16,7.2-16,16S182.7,148,191.5,148z"/>
</g>
</svg>
