<?xml version="1.0" encoding="utf-8"?>
<!-- Generator: Adobe Illustrator 22.0.1, SVG Export Plug-In . SVG Version: 6.00 Build 0)  -->
<svg version="1.1" id="Layer_1" xmlns="http://www.w3.org/2000/svg" xmlns:xlink="http://www.w3.org/1999/xlink" x="0px" y="0px"
	 viewBox="0 0 512 512" style="enable-background:new 0 0 512 512;" xml:space="preserve">
<g>
	<path d="M388,32H124c-33.1,0-60,26.9-60,60v328c0,33.1,26.9,60,60,60h264c33.1,0,60-26.9,60-60V92C448,58.9,421.1,32,388,32z
		 M420,420c0,17.6-14.4,32-32,32H124c-17.6,0-32-14.4-32-32V92c0-17.6,14.4-32,32-32h264c17.6,0,32,14.4,32,32V420z"/>
	<path d="M360,176H152c-13.2,0-24,10.8-24,24v192c0,13.2,10.8,24,24,24h208c13.2,0,24-10.8,24-24V200C384,186.8,373.2,176,360,176z"
		/>
	<path d="M142,124h100c7.7,0,14-6.3,14-14s-6.3-14-14-14H142c-7.7,0-14,6.3-14,14S134.3,124,142,124z"/>
</g>
</svg>
