<?xml version="1.0" encoding="utf-8"?>
<!-- Generator: Adobe Illustrator 18.1.1, SVG Export Plug-In . SVG Version: 6.00 Build 0)  -->
<svg version="1.1" id="Layer_1" xmlns="http://www.w3.org/2000/svg" xmlns:xlink="http://www.w3.org/1999/xlink" x="0px" y="0px"
	 viewBox="0 0 512 512" enable-background="new 0 0 512 512" xml:space="preserve">
<g>
	<path d="M400,188.8C400,110.9,333.9,48,256,48c-77.9,0-144,62.9-144,140.8c0,31.1,13.2,59.1,30.2,83.1h-0.3
		c10.9,15,21.4,27.7,31.5,45c22,37.8,18.6,74.3,18.7,81.5v1.5h128v-1.5c0-8.9-3.6-43.7,18.4-81.5c10.1-17.3,20.6-30,31.5-45h-0.1
		C386.8,248,400,219.9,400,188.8z M351,270.3c-0.6,0.8-1.1,1.5-1.7,2.3c-8.1,10.9-16.5,22.2-24.7,36.2
		c-17.3,29.7-20.4,58.2-20.8,75.2H288V271.9l32-63.9h-16.6L272,271.9V384h-32V271.9L208.6,208H192l32,63.9V384h-15.9
		c-0.5-17-3.9-45.7-20.9-75c-4.5-7.7-9.1-15-13.7-21h0.2l-18.6-25.6c-15.8-21.6-27.1-47.1-27.1-73.6c0-33.4,16-64.9,39.6-88.5
		c23.6-23.6,55-36.5,88.4-36.5s64.8,12.8,88.4,36.4c23.6,23.6,39.6,55,39.6,88.4c0,26.5-11.3,51.9-27.1,73.6L351,270.3z"/>
	<rect x="224" y="448" width="64" height="16"/>
	<rect x="208" y="416" width="96" height="16"/>
</g>
</svg>
