<?xml version="1.0" encoding="utf-8"?>
<!-- Generator: Adobe Illustrator 22.0.1, SVG Export Plug-In . SVG Version: 6.00 Build 0)  -->
<svg version="1.1" id="Layer_1" xmlns="http://www.w3.org/2000/svg" xmlns:xlink="http://www.w3.org/1999/xlink" x="0px" y="0px"
	 viewBox="0 0 512 512" style="enable-background:new 0 0 512 512;" xml:space="preserve">
<g>
	<path d="M289.7,403c-6.1,0-11.4,4.2-12.7,10.2c-1,4.5-2.7,8.2-5,10.9c-1.3,1.5-5.1,5.9-16.1,5.9c-11,0-14.8-4.5-16.1-5.9
		c-2.3-2.7-4-6.4-5-10.9c-1.3-6-6.6-10.2-12.7-10.2h0c-8.4,0-14.5,7.8-12.7,15.9c5,22.3,21,37.1,46.5,37.1s41.5-14.7,46.5-37.1
		C304.2,410.8,298,403,289.7,403L289.7,403z"/>
	<path d="M412,352.2c-15.4-20.3-45.7-32.2-45.7-123.1c0-93.3-41.2-130.8-79.6-139.8c-3.6-0.9-6.2-2.1-6.2-5.9v-2.9
		c0-13.3-10.8-24.6-24-24.6c-0.1,0-0.2,0-0.3,0c-0.1,0-0.2,0-0.3,0c-13.2,0-24,11.3-24,24.6v2.9c0,3.7-2.6,5-6.2,5.9
		c-38.5,9.1-79.6,46.5-79.6,139.8c0,90.9-30.3,102.7-45.7,123.1c-9.9,13.1-0.5,31.8,15.9,31.8h140.4h139.7
		C412.5,384,421.8,365.2,412,352.2z M373,358H139.8c-3.8,0-5.8-4.4-3.3-7.3c7-8,14.7-18.5,21-33.4c9.6-22.6,14.3-51.5,14.3-88.2
		c0-37.3,7-66.5,20.9-86.8c12.4-18.2,27.9-25.1,38.7-27.6c8.4-2,14.4-5.8,18.6-10.5c3.2-3.6,8.7-3.8,11.9-0.2
		c5.1,5.7,12,9.1,18.8,10.7c10.8,2.5,26.3,9.4,38.7,27.6c13.9,20.3,20.9,49.5,20.9,86.8c0,36.7,4.7,65.6,14.3,88.2
		c6.5,15.2,14.4,25.9,21.5,33.9C378.3,353.9,376.5,358,373,358z"/>
</g>
</svg>
