<?xml version="1.0" encoding="utf-8"?>
<!-- Generator: Adobe Illustrator 22.0.1, SVG Export Plug-In . SVG Version: 6.00 Build 0)  -->
<svg version="1.1" id="Layer_1" xmlns="http://www.w3.org/2000/svg" xmlns:xlink="http://www.w3.org/1999/xlink" x="0px" y="0px"
	 viewBox="0 0 512 512" style="enable-background:new 0 0 512 512;" xml:space="preserve">
<g>
	<path d="M220.8,406.1l4.8,14.8c0.4,1.2,1.9,1.8,3,1.1l6.8-4.2c2.5-1.6,2.5-5.2,0-6.8l-11.5-7.2
		C222.2,402.8,220.3,404.3,220.8,406.1z"/>
	<path d="M286.6,421l4.9-15.2c0.6-1.8-1.4-3.3-3-2.3l-11.9,7.4c-2.5,1.6-2.5,5.2,0,6.8l7,4.4C284.8,422.8,286.2,422.2,286.6,421z"/>
	<path d="M188.6,242.2c-3.9,3.5-9.6,6.4-15.7,8.5c-1,0.4-1.6,1.5-1.2,2.5l9.3,28.9l3.8,11.8c0.4,1.2,1.9,1.8,3,1.1l7-4.3l36.6-22.5
		c3-1.9,2.3-6.5-1.2-7.3c-14.3-3.3-26.5-9.8-36.2-18.5C192.4,241,190.1,240.9,188.6,242.2z"/>
	<path d="M192.6,310.8l-2,1.2l14.6,45.3c0.4,1.2,1.9,1.8,3,1.1l27.2-16.9c2.5-1.6,2.5-5.2,0-6.8l-38.5-23.9
		C195.5,310,193.9,310,192.6,310.8z"/>
	<path d="M258.1,348.9c-1.3-0.8-2.9-0.8-4.2,0L212,374.5l-0.1,0.1c-1,0.8-1,2.4,0,3.2l0.7,0.5l41.3,25.3c1.3,0.8,2.9,0.8,4.2,0
		l41.7-25.5l0.4-0.3c1-0.8,1-2.2,0-3l0,0L258.1,348.9z"/>
	<path d="M296.7,296.6l-38.5-23.9c-1.3-0.8-2.9-0.8-4.2,0l-38.5,23.9c-2.5,1.6-2.5,5.2,0,6.8l38.5,23.9c1.3,0.8,2.9,0.8,4.2,0
		l38.5-23.9C299.2,301.9,299.2,298.2,296.7,296.6z"/>
	<path d="M318.1,242.3c-9.7,8.7-22,15.1-36.2,18.5c-3.5,0.8-4.2,5.4-1.2,7.3l36.6,22.5l7.4,4.6c1.1,0.7,2.6,0.2,3-1.1l4-12.4
		l9.8-30.3c-6.9-2.1-13.6-5.3-18-9.2C321.9,240.9,319.6,241,318.1,242.3z"/>
	<path d="M232.4,442l1.6,5c0,0,7.5,19,22,19c15,0,22.2-19,22.2-19l1.6-4.8c0.6-1.7-0.1-3.7-1.7-4.6l-20-12.4c-1.3-0.8-2.9-0.8-4.2,0
		l-19.8,12.3C232.5,438.3,231.8,440.2,232.4,442z"/>
	<path d="M276.7,341.5l27.5,17.1c1.1,0.7,2.6,0.2,3-1.1l14.2-43.8c0.3-0.9-0.1-1.8-0.8-2.3l-1-0.6c-1.3-0.8-2.9-0.8-4.2,0
		l-38.5,23.9C274.1,336.3,274.1,340,276.7,341.5z"/>
	<path d="M376.1,168.2c-6.2,5.4-13.2,8.7-18,10.5c-1.8,0.7-3.5-1.4-2.3-3l4-5.7c6.1-8.7,8.5-19.4,6.8-29.8
		C357.9,86.8,311.7,46,256,46c-55.7,0-101.9,41.2-110.6,94.7c-1.7,10.5,0.8,21.2,6.9,29.8l4,5.6c1.2,1.6-0.5,3.8-2.4,3
		c-5.4-2.1-13.5-6.2-20.1-12.8c-1.4-1.4-3.6-1.5-5.2-0.4c-10.2,7.3-16.8,19.1-16.8,32.5c0,22.1,17.9,40,40,40
		c11.3,0,28-4.7,36.6-12.3c1.5-1.3,3.8-1.3,5.3,0.1c15.2,13.4,36.6,20.2,62.1,20.2c25.5,0,47-6.8,62.1-20.2c1.5-1.3,3.8-1.4,5.3-0.1
		c8.5,7.6,25.3,12.3,36.6,12.3c22.1,0,40-18,40-40.1c0-11.9-5.2-22.6-13.5-30C383.6,165.7,379.1,165.6,376.1,168.2z"/>
</g>
</svg>
