<?xml version="1.0" encoding="utf-8"?>
<!-- Generator: Adobe Illustrator 18.1.1, SVG Export Plug-In . SVG Version: 6.00 Build 0)  -->
<svg version="1.1" id="Layer_1" xmlns="http://www.w3.org/2000/svg" xmlns:xlink="http://www.w3.org/1999/xlink" x="0px" y="0px"
	 viewBox="0 0 512 512" enable-background="new 0 0 512 512" xml:space="preserve">
<g>
	<path d="M309.2,216l-77,76.9L203,264L192,275l34.6,34.3c1.5,1.5,3.6,2.8,5.5,2.8c1.9,0,3.9-1.2,5.4-2.7l82.5-82.2L309.2,216z"/>
	<path d="M413,226.1C406.1,161.9,354,112,288,112c-44.8,0-86.5,22.8-109.4,57.7c-7.9-3.7-16.8-5.7-26.1-5.7
		c-34.2,0-62,27.5-62.5,61.6c-34.9,11-58,42.6-58,78.4c0,43.9,35.6,80,79.5,80h289c43.9,0,79.5-36.1,79.5-80
		C480,264.4,451,232.1,413,226.1z M400.5,368h-289c-35,0-63.5-28.8-63.5-64c0-14.3,4.4-27,12.8-38.6c8.5-11.6,20.2-20.2,34-24.5
		l11-3.5l0.2-11.6c0.2-12.3,5.1-23.8,13.8-32.4c8.8-8.6,20.3-13.4,32.6-13.4c6.8,0,13.3,1.4,19.4,4.2l12.5,5.8l7.6-11.5
		c20.8-31.8,57.9-50.7,95.8-50.7c27.8,0,52.5,10.3,73.1,28.9c20.5,18.5,33.3,43.7,36.3,71l1.3,12.2l12.1,1.9
		c14.7,2.3,28.3,9.9,38.1,21.4c9.9,11.6,15.4,25.6,15.4,40.8C464,339.2,435.5,368,400.5,368z"/>
</g>
</svg>
