<?xml version="1.0" encoding="utf-8"?>
<!-- Generator: Adobe Illustrator 22.0.1, SVG Export Plug-In . SVG Version: 6.00 Build 0)  -->
<svg version="1.1" id="Layer_1" xmlns="http://www.w3.org/2000/svg" xmlns:xlink="http://www.w3.org/1999/xlink" x="0px" y="0px"
	 viewBox="0 0 512 512" style="enable-background:new 0 0 512 512;" xml:space="preserve">
<path d="M388,96H124c-15.4,0-28,12.6-28,28v264c0,15.4,12.6,28,28,28h264c15.4,0,28-12.6,28-28V124C416,108.6,403.4,96,388,96z
	 M388,380c0,4.4-3.6,8-8,8l-248,0c-4.4,0-8-3.6-8-8l0-248c0-4.4,3.6-8,8-8l248,0c4.4,0,8,3.6,8,8L388,380z"/>
</svg>
