<?xml version="1.0" encoding="utf-8"?>
<!-- Generator: Adobe Illustrator 22.0.1, SVG Export Plug-In . SVG Version: 6.00 Build 0)  -->
<svg version="1.1" id="Layer_1" xmlns="http://www.w3.org/2000/svg" xmlns:xlink="http://www.w3.org/1999/xlink" x="0px" y="0px"
	 viewBox="0 0 512 512" style="enable-background:new 0 0 512 512;" xml:space="preserve">
<g>
	<path d="M435.2,48H312.3c-3.8,0-7.5,1.5-10.2,4.2L56.4,297.9c-11.2,11.2-11.2,29.5,0,40.7l117,117c11.2,11.2,29.5,11.2,40.7,0
		l245.6-245.6c2.7-2.7,4.2-6.4,4.2-10.2V76.8C464,60.9,451.1,48,435.2,48z M387.5,159.8c-20.4,2.2-37.4-14.9-35.3-35.3
		c1.6-14.8,13.5-26.8,28.3-28.3c20.4-2.2,37.4,14.9,35.3,35.3C414.2,146.3,402.3,158.2,387.5,159.8z"/>
</g>
</svg>
