<?xml version="1.0" encoding="utf-8"?>
<!-- Generator: Adobe Illustrator 18.1.1, SVG Export Plug-In . SVG Version: 6.00 Build 0)  -->
<svg version="1.1" id="Layer_1" xmlns="http://www.w3.org/2000/svg" xmlns:xlink="http://www.w3.org/1999/xlink" x="0px" y="0px"
	 viewBox="0 0 512 512" enable-background="new 0 0 512 512" xml:space="preserve">
<g>
	<g>
		<path d="M255,352.1l0.1,0.8l0.2,0.9l15,75l0.1,0.5l0.1,0.5c0.4,1.4,0.6,2.8,0.6,4.2c0,9.6-8.3,14-16,14c-4.7,0-8.9-1.5-11.8-4.2
			c-2.8-2.5-4.2-5.8-4.2-9.8c0-1.2,0.1-2.3,0.4-3.5l0-0.2l0-0.2L255,352.1 M255,336c-7.6,0-14,5.4-15.6,12.5l0,0L223.8,427
			c-0.5,2.3-0.8,4.6-0.8,7c0,17.7,14.3,30,32,30s32-12.3,32-30c0-2.9-0.4-5.7-1.1-8.4l-15-75C270.2,342.4,263.4,336,255,336L255,336
			z"/>
		<rect x="305.9" y="355" width="0" height="0"/>
		<path d="M333,365.1l41.3,30.1l0.7,0.5l0.7,0.4c0.3,0.2,1.1,0.9,1.7,1.4c0.4,0.4,0.9,0.7,1.3,1.1c0.4,0.3,1.1,1.7,1.3,3.8
			c0.1,2.8-0.8,5.6-2.4,7.2c-1.4,1.4-3.8,2.3-6.4,2.3c-2.6,0-4.3-0.9-4.8-1.4c-0.2-0.3-0.5-0.6-0.7-0.9c-0.5-0.5-1.1-1.2-1.2-1.5
			l-0.3-0.4l-0.3-0.4L333,365.1 M315.9,336.1c-3,0-5.9,1.2-8.3,3.6c-4.1,4.1-4.7,10.4-1.7,15.4l45,61.8c0.9,1.5,2.2,2.8,3.4,4.2
			c4,4.6,10.3,7,16.9,7c6.4,0,13-2.3,17.7-7c9.6-9.6,9.4-27,0-34.7c-1.7-1.4-3.3-2.9-5.1-3.9l-59.6-43.5
			C321.4,337,318.6,336.1,315.9,336.1L315.9,336.1z"/>
		<rect x="372.5" y="335" width="0" height="0"/>
		<rect x="139.2" y="335" width="0" height="0"/>
		<path d="M178.9,365.2l-30.6,42l-0.3,0.4l-0.3,0.4c-0.3,0.5-0.7,1-1.2,1.5c-1.6,1.6-3.7,2.5-6,2.5c-2.3,0-4.4-0.9-6-2.5
			c-3.3-3.3-3.3-8.7,0-12c0.5-0.5,1.1-1,1.8-1.4l0.7-0.4l0.7-0.5L178.9,365.2 M195.6,336c-2.8,0-5.5,0.9-7.7,2.8l-59.6,43.4
			c-1.8,1.1-3.6,2.4-5.1,3.9c-9.6,9.6-9.6,25.1,0,34.7c4.8,4.8,11,7.2,17.3,7.2c6.3,0,12.5-2.4,17.3-7.2c1.3-1.3,2.4-2.7,3.4-4.2
			l45-61.6c3-5,2.5-11.2-1.7-15.3C202,337.2,198.8,336,195.6,336L195.6,336z"/>
		<g>
			<path d="M279.3,68c9.3,3.4,20.5,9,30.8,16.6c14.9,10.9,32.6,29.2,32.6,54c0,14.1-2.4,24.7-7.9,34.3c-6.5,11.6-18,22.6-35.2,33.8
				c-7.3,4.8-15.6,9.4-24.4,14.4c-29.8,16.8-66,37.1-84.7,75.5c-2.9-2.2-5.9-5-8.9-8.2c-13.5-14.9-18.6-34-15.2-56.7
				c3.8-24.8,26.2-45.7,49.9-67.8C244.5,138,275.7,109,279.3,68 M262.7,48c12,80.8-101.7,113-112,181.3c-10.3,68.3,48,90.7,48,90.7
				c16.3-56.6,72.4-75.6,109.7-99.8c40.7-26.4,50.3-51.3,50.3-81.5C358.7,81.1,286.4,48,262.7,48L262.7,48z"/>
			<path d="M355.7,196.1c-3.3,6.3-7.3,12.2-12.5,17.9c0,0,1.4,11.1,2,20.4s-0.7,17.1-1.7,20c-6.5,19-15.1,32.1-26.4,39.8
				c-9.8,6.7-22,9.8-38.5,9.8c-6.4,0-16.4-3.9-24.2-10.9s-11.1-11.2-11.1-11.2c-4.1,3.5-7.5,6.5-11.1,10.5
				c11.3,16.4,31.3,27.7,46.3,27.7c36,0,64-13.5,80-60.4C363.8,244.8,360.7,210.3,355.7,196.1z"/>
			<path d="M187.1,77.9c-1.5,0-2.9,0.1-4.3,0.3c2.3,28.6-30,44-32,64.8c-1.2,12.6,5.5,25,11,28.8c3.8-4.8,10.7-11.9,10.7-11.9
				c-4.5-3.7-6.7-12.7-5.5-16.8s6-9.9,10.6-15.5c6.7-8.2,15.2-18.5,19.1-31.6c1.3,0.6,2.6,1.2,3.8,2c2.9,1.7,6.8,3.9,9.7,7.4
				s5.8,6.9,8.4,11.5c0,0,6.3-7.9,8.8-12.6C217.8,86.2,200.5,77.9,187.1,77.9z"/>
		</g>
	</g>
	<path d="M137.7,335.2l-60.5,12.6c-5.8,1.2-11.6-2.3-12.9-7.9c-1.3-5.6,2.4-11.1,8.3-12.3c0.3-0.1,0.7-0.1,1-0.2l61.5-7.3
		c4.4-0.5,8.4,2.5,9,6.7C144.5,330.7,141.7,334.3,137.7,335.2z"/>
	<path d="M374.3,335.2l60.5,12.6c5.8,1.2,11.6-2.3,12.9-7.9c1.3-5.6-2.4-11.1-8.3-12.3c-0.3-0.1-0.7-0.1-1-0.2l-61.5-7.3
		c-4.4-0.5-8.4,2.5-9,6.7C367.5,330.7,370.3,334.3,374.3,335.2z"/>
</g>
</svg>
