<?xml version="1.0" encoding="utf-8"?>
<!-- Generator: Adobe Illustrator 22.0.1, SVG Export Plug-In . SVG Version: 6.00 Build 0)  -->
<svg version="1.1" id="Layer_1" xmlns="http://www.w3.org/2000/svg" xmlns:xlink="http://www.w3.org/1999/xlink" x="0px" y="0px"
	 viewBox="0 0 512 512" style="enable-background:new 0 0 512 512;" xml:space="preserve">
<path d="M48,87.2L48,87.2c0,5.8,2,11.4,5.6,15.7l152.2,179.8c3.6,4.3,5.6,9.9,5.6,15.7v107c0,10,5.9,18.8,14.6,22l55,19.8
	c9.6,3.5,19.6-4.3,19.6-15.3V298.3c0-5.8,2-11.4,5.6-15.7l152.2-179.8c3.6-4.3,5.6-9.9,5.6-15.7v0c0-12.8-9.6-23.2-21.4-23.2H69.4
	C57.6,64,48,74.4,48,87.2z"/>
</svg>
