<?xml version="1.0" encoding="utf-8"?>
<!-- Generator: Adobe Illustrator 18.1.1, SVG Export Plug-In . SVG Version: 6.00 Build 0)  -->
<svg version="1.1" id="Layer_1" xmlns="http://www.w3.org/2000/svg" xmlns:xlink="http://www.w3.org/1999/xlink" x="0px" y="0px"
	 viewBox="0 0 512 512" enable-background="new 0 0 512 512" xml:space="preserve">
<g>
	<path d="M384,368c-8.8,0-16,7.2-16,16s7.2,16,16,16s16-7.2,16-16S392.8,368,384,368z"/>
	<path d="M342.6,218.1c-13.3,0-26.1,0-38.1,4.1C252.9,179.1,116.7,65.3,106.3,54.7c-4.8-4.9-10.1-6.7-15.3-6.7
		c-8.7,0-17,5.2-21.7,9.6c-7,6.6-25.6,26.8-20.5,32c15.3,15.4,27.4,26.5,33.7,32.8c4.8,4.8,13.4-0.8,19.6,3.3
		c5.5,3.6,10,9.9,14.6,14.5c5.3,5.4,9,7.8,8.9,15.7c-0.1,8.3,0.5,13.8,6.3,20c4.7,5,9.1,7.6,15.9,7.7c9.2,0.2,14.9,2.4,20.9,9.9
		c5.7,7.1,2.1,14.2,4.9,22c1.8,5.1,16,18.1,18,20.1c2,2,11,0,13.3,2.3s17.2,15.8,18.2,20.4s-3,9-2,13.6c1.2,5.6,7.2,12.1,10.6,17.4
		c-6.8,15.5-10.6,32.6-10.6,50.7c0,68.5,54.4,124,121.4,124S464,408.5,464,340S409.6,218.1,342.6,218.1z M384,416
		c-17.7,0-32-14.3-32-32c0-17.7,14.3-32,32-32s32,14.3,32,32C416,401.7,401.7,416,384,416z"/>
</g>
</svg>
