<?xml version="1.0" encoding="utf-8"?>
<!-- Generator: Adobe Illustrator 18.1.1, SVG Export Plug-In . SVG Version: 6.00 Build 0)  -->
<svg version="1.1" id="Layer_1" xmlns="http://www.w3.org/2000/svg" xmlns:xlink="http://www.w3.org/1999/xlink" x="0px" y="0px"
	 viewBox="0 0 512 512" enable-background="new 0 0 512 512" xml:space="preserve">
<g>
	<path fill="#231F20" d="M352.1,432c0,10.5-1.1,16,3.3,16c4.4,0,50.4,0,55.1,0s4.1-3.8,5.5-32C407.5,434.7,392,432,352.1,432z"/>
	<path fill="#231F20" d="M96,416c1.5,28.4,0.8,32,5.5,32s50.7,0,55.1,0c4.4,0,3.3-5.5,3.3-16C120,432,109.5,435,96,416z"/>
	<path fill="#231F20" d="M384,64h-8H136h-8c-17.6,0-32,14.4-32,32l0,0l0,280c0,22,18,40,40,40h240c22,0,40-18,40-40V96l0,0
		C416,78.4,401.6,64,384,64z M160,376c-13.3,0-24-10.7-24-24s10.7-24,24-24s24,10.7,24,24S173.3,376,160,376z M248,288H128.2
		c-8.8,0-16.2-7.2-16.2-16V144.2c0-8.8,7.4-16.2,16.2-16.2H248V288z M352,376c-13.3,0-24-10.7-24-24s10.7-24,24-24s24,10.7,24,24
		S365.3,376,352,376z M400,272c0,8.8-7.2,16-16,16H264V128h120c8.8,0,16,7.4,16,16.2V272z M384,112H128c-8.8,0-16-7.2-16-16
		s7.2-16,16-16h256c8.8,0,16,7.2,16,16S392.8,112,384,112z"/>
</g>
</svg>
