<?xml version="1.0" encoding="utf-8"?>
<!-- Generator: Adobe Illustrator 22.0.1, SVG Export Plug-In . SVG Version: 6.00 Build 0)  -->
<svg version="1.1" id="Layer_1" xmlns="http://www.w3.org/2000/svg" xmlns:xlink="http://www.w3.org/1999/xlink" x="0px" y="0px"
	 viewBox="0 0 512 512" style="enable-background:new 0 0 512 512;" xml:space="preserve">
<g>
	<path d="M256,464c114.9,0,208-93.1,208-208c0-114.9-93.1-208-208-208S48,141.1,48,256C48,370.9,141.1,464,256,464z M256,219.5
		l-81.1,81.9c-7.5,7.5-19.8,7.5-27.3,0c-7.5-7.5-7.5-19.8,0-27.3l95.7-95.4c7.3-7.3,19.1-7.5,26.6-0.6l94.3,94
		c3.8,3.8,5.7,8.7,5.7,13.7c0,4.9-1.9,9.9-5.6,13.6c-7.5,7.5-19.7,7.6-27.3,0L256,219.5z"/>
</g>
</svg>
