<?xml version="1.0" encoding="utf-8"?>
<!-- Generator: Adobe Illustrator 22.0.1, SVG Export Plug-In . SVG Version: 6.00 Build 0)  -->
<svg version="1.1" id="Layer_1" xmlns="http://www.w3.org/2000/svg" xmlns:xlink="http://www.w3.org/1999/xlink" x="0px" y="0px"
	 viewBox="0 0 512 512" style="enable-background:new 0 0 512 512;" xml:space="preserve">
<g>
	<path d="M218.6,306.4c14.3-11.8,28.3-24.4,41.4-37.6c2-2,4-4,6.1-6.1c-2.8-2.9-5.6-5.8-8.3-8.5C207.9,204.3,150.1,164.6,86,136.1
		c-18.4,26.1-31,56.6-35.8,89.6c32.2,2.3,63.2,10.5,92.2,24.5C171.2,264.1,196.8,283,218.6,306.4z"/>
	<path d="M326.1,185.6c0.5,0.5,1.1,1.1,1.7,1.6c20.9-30.5,38.8-63.2,53.5-97.4c-33.8-25.5-75.6-41-121-41.9
		c2.4,22.3,8,44.1,16.7,64.7C288.5,140,305.1,164.6,326.1,185.6z"/>
	<path d="M399,234.8c20.7,8.8,42.6,14.4,65,16.7c-1.2-56.3-24.8-107.1-62.2-143.9c-15,33.8-33.3,66.3-54.4,96.8
		C363.2,216.8,380.6,227,399,234.8z"/>
	<path d="M193.9,318.1c-21.1-21.1-45.6-37.6-72.9-49.2c-23.2-9.8-47.7-15.6-72.9-17.4c0,1.5-0.1,3-0.1,4.4
		c0,48.7,16.7,93.5,44.8,128.9c37.3-17,72.7-37.9,105.4-62.4C196.7,321,195.3,319.5,193.9,318.1z"/>
	<path d="M283.8,243.6c10.1-11.3,19.7-23.1,28.8-35.1c-44.5-42.3-72.1-98.6-78.2-159.5c-51.9,5.4-98.1,29.8-131.5,66.2
		c33.4,15.3,65.5,33.8,95.6,55.1C229,192,257.7,216.6,283.8,243.6z"/>
	<path d="M301.4,262.8c38.9,44,70.9,93.2,95.3,146.4c36.4-33.5,60.9-79.8,66.2-131.7c-47.7-4.7-92.8-22.6-130.8-52
		C322.5,238.2,312.1,250.8,301.4,262.8z"/>
	<path d="M235.3,326.2c29.9,39.5,47.5,86.2,51,135.6c33-4.8,63.5-17.4,89.5-35.8c-23.4-52.6-54.3-101-92.2-144.2
		C268.4,297.4,252.2,312.3,235.3,326.2z"/>
	<path d="M214.9,342.3c-32.4,24.4-67.4,45.5-104,62.8c37.5,36.5,88.6,59,145.1,59c1.5,0,3,0,4.5-0.1c-1.8-25.2-7.6-49.7-17.4-72.9
		C235.7,373.6,226.3,357.3,214.9,342.3z"/>
</g>
</svg>
