<?xml version="1.0" encoding="utf-8"?>
<!-- Generator: Adobe Illustrator 18.1.1, SVG Export Plug-In . SVG Version: 6.00 Build 0)  -->
<svg version="1.1" id="Layer_1" xmlns="http://www.w3.org/2000/svg" xmlns:xlink="http://www.w3.org/1999/xlink" x="0px" y="0px"
	 viewBox="0 0 512 512" enable-background="new 0 0 512 512" xml:space="preserve">
<g>
	<path d="M245.5,213c-1.3-0.7-2.8-1-4.2-1c-2.5,0-4.9,0.9-6.3,2.3c0,0-4.4,4.1-46.4,45.8C126.4,321.7,49.6,383.8,49.6,383.8
		c-2.2,2.2-2.2,5.7,0,7.8l55.2,54.8c1.1,1.1,2.5,1.6,3.9,1.6s2.9-0.5,3.9-1.6c0,0,62.6-76.2,124.7-137.8c42-41.7,46.1-46,46.1-46
		c2.2-2.2,3.6-6.6,1.3-10.4l-3.9-6.4L251.1,216L245.5,213z"/>
	<path d="M462.4,216.9L428.2,183c-1.1-1.1-2.5-1.6-3.9-1.6c-1.4,0-2.9,0.5-3.9,1.6l-3.7,3.7c-5.3,0-13.6-0.7-18.1-5.2
		c-6.9-6.8,1.1-20.3-5.1-29c-6.1-8.7-15.9-19.7-22.9-26.7c-7-7-34.6-33.4-81.2-52.5c-16.4-6.7-32.5-9.3-46.8-9.3
		c-26.3,0-46.9,8.5-54.2,15.2c-5.4,5-11.1,14-3.1,14c0.7,0,1.5-0.1,2.4-0.2c4.4-0.7,13.2-1.5,23.2-1.5c15.6,0,34.2,2.1,44.1,10
		c16.2,13,29.5,30.3,30.6,52.7c0.9,18.4-4.3,30.2-23.4,50.7l29.9,29.9c17.5-17.2,26.3-25.2,36.5-28c4-1.1,8.3-1.5,12.7-1.5
		c9.6,0,19,2.2,23.3,4.5c5.1,2.7,9.7,11.3,10.2,18.6l-9.5,9.5c-2.2,2.2-2.2,5.7,0,7.8l34.2,33.9c1.1,1.1,2.5,1.6,3.9,1.6
		s2.9-0.5,3.9-1.6l55.2-54.8C464.5,222.6,464.5,219,462.4,216.9z"/>
</g>
</svg>
