<?xml version="1.0" encoding="utf-8"?>
<!-- Generator: Adobe Illustrator 22.0.1, SVG Export Plug-In . SVG Version: 6.00 Build 0)  -->
<svg version="1.1" id="Layer_1" xmlns="http://www.w3.org/2000/svg" xmlns:xlink="http://www.w3.org/1999/xlink" x="0px" y="0px"
	 viewBox="0 0 512 512" style="enable-background:new 0 0 512 512;" xml:space="preserve">
<g>
	<path d="M184,448h48c4.4,0,8-3.6,8-8V72c0-4.4-3.6-8-8-8h-48c-4.4,0-8,3.6-8,8v368C176,444.4,179.6,448,184,448z"/>
	<path d="M88,448H136c4.4,0,8-3.6,8-8V296c0-4.4-3.6-8-8-8H88c-4.4,0-8,3.6-8,8V440C80,444.4,83.6,448,88,448z"/>
	<path d="M280.1,448h47.8c4.5,0,8.1-3.6,8.1-8.1V232.1c0-4.5-3.6-8.1-8.1-8.1h-47.8c-4.5,0-8.1,3.6-8.1,8.1v207.8
		C272,444.4,275.6,448,280.1,448z"/>
	<path d="M368,136.1v303.8c0,4.5,3.6,8.1,8.1,8.1h47.8c4.5,0,8.1-3.6,8.1-8.1V136.1c0-4.5-3.6-8.1-8.1-8.1h-47.8
		C371.6,128,368,131.6,368,136.1z"/>
</g>
</svg>
