<?xml version="1.0" encoding="utf-8"?>
<!-- Generator: Adobe Illustrator 22.0.1, SVG Export Plug-In . SVG Version: 6.00 Build 0)  -->
<svg version="1.1" id="Layer_1" xmlns="http://www.w3.org/2000/svg" xmlns:xlink="http://www.w3.org/1999/xlink" x="0px" y="0px"
	 viewBox="0 0 512 512" style="enable-background:new 0 0 512 512;" xml:space="preserve">
<g>
	<path d="M256,48C141.1,48,48,141.1,48,256s93.1,208,208,208c114.9,0,208-93.1,208-208S370.9,48,256,48z M167.5,412.8l49.2-85.8
		c1.1-1.9,0.5-4.2-1.3-5.4c-20.2-12.9-34-35-35.2-60.3c-0.1-2.1-1.8-3.8-4-3.8H76c0-0.5,0-1,0-1.5c0-48.1,18.7-93.3,52.7-127.3
		c10.8-10.8,22.7-20,35.4-27.6l50.5,87.9c1.1,1.9,3.5,2.5,5.4,1.5c10.7-5.8,22.9-9,35.9-9c12.5,0,24.4,3.1,34.8,8.5
		c1.9,1,4.2,0.3,5.3-1.5l51.1-87.7c13,7.7,25.1,17,36.1,28c34,34,52.7,79.2,52.7,127.3c0,0.5,0,1,0,1.5H335.9c-2.1,0-3.9,1.7-4,3.8
		c-1.3,25.4-15,47.5-35.2,60.3c-1.8,1.2-2.4,3.5-1.3,5.4l49.2,85.8c-26.7,15.1-57,23.2-88.5,23.2C224.5,436,194.2,427.9,167.5,412.8
		z"/>
	<circle cx="256" cy="256" r="56"/>
</g>
</svg>
