<?xml version="1.0" encoding="utf-8"?>
<!-- Generator: Adobe Illustrator 16.2.1, SVG Export Plug-In . SVG Version: 6.00 Build 0)  -->
<!DOCTYPE svg PUBLIC "-//W3C//DTD SVG 1.1//EN" "http://www.w3.org/Graphics/SVG/1.1/DTD/svg11.dtd">
<svg version="1.1" xmlns="http://www.w3.org/2000/svg" xmlns:xlink="http://www.w3.org/1999/xlink" x="0px" y="0px" width="512px"
	 height="512px" viewBox="0 0 512 512" enable-background="new 0 0 512 512" xml:space="preserve">
<g id="boxes" display="none">
	<rect display="inline" opacity="0.1" width="512" height="512"/>
</g>
<g id="icons">
	<g>
		<g>
			<g>
				<polygon points="177.118,361.93 165.502,373.533 256,464 346.581,373.558 334.965,361.954 264.27,432.588 264.27,208 
					247.84,208 247.84,432.588 				"/>
			</g>
		</g>
		<g>
			<path d="M413.012,162.113C406.146,97.895,354.041,48,288,48c-44.838,0-86.535,22.812-109.396,57.715
				C170.658,102.056,161.821,100,152.5,100c-34.208,0-61.981,27.487-62.477,61.577C55.092,172.613,32,204.158,32,240
				c0,43.906,35.594,80,79.5,80H208v-16h-96.5C76.486,304,48,275.152,48,240c0-14.272,4.443-27.047,12.85-38.6
				c8.471-11.64,20.226-20.154,33.994-24.504l11.01-3.51l0.168-11.562c0.179-12.274,5.093-23.795,13.837-32.425
				c8.751-8.637,20.344-13.396,32.642-13.396c6.76,0,13.29,1.428,19.41,4.246l12.523,5.766l7.555-11.533
				c20.807-31.768,57.857-50.732,95.762-50.732c27.813,0,52.48,10.265,73.09,28.904c20.466,18.51,33.344,43.737,36.263,71.035
				l1.303,12.188l12.107,1.915c14.727,2.329,28.253,9.922,38.087,21.381C458.531,210.744,464,224.76,464,240
				c0,35.152-28.486,64-63.5,64H304v16h96.5c43.906,0,79.5-36.094,79.5-80C480,200.352,450.973,168.116,413.012,162.113z"/>
		</g>
	</g>
</g>
</svg>
