<?xml version="1.0" encoding="utf-8"?>
<!-- Generator: Adobe Illustrator 22.0.1, SVG Export Plug-In . SVG Version: 6.00 Build 0)  -->
<svg version="1.1" id="Layer_1" xmlns="http://www.w3.org/2000/svg" xmlns:xlink="http://www.w3.org/1999/xlink" x="0px" y="0px"
	 viewBox="0 0 512 512" style="enable-background:new 0 0 512 512;" xml:space="preserve">
<path d="M256,48C141.1,48,48,141.1,48,256c0,114.7,93.3,208,208,208c114.9,0,208-93.1,208-208C464,141.3,370.7,48,256,48z
	 M383.3,128.7c8.5,8.5,16.1,17.7,22.6,27.5c0.7,1,0.9,2.4,0.4,3.5L391.9,201c-0.4,1-1.1,1.9-2.1,2.3l-57.5,26.2
	c-1.4,0.6-3,0.4-4.2-0.6l-56.6-47.6c-0.9-0.8-1.4-1.9-1.4-3.1v-63.1c0-1.3,0.7-2.6,1.8-3.3l38.4-26.1c1-0.7,2.3-0.9,3.5-0.5
	C339.6,94.1,363.4,108.8,383.3,128.7z M309.4,426.3c-0.4,1.2-1.4,2.1-2.6,2.4c-16.3,4.8-33.4,7.2-50.8,7.2
	c-17.5,0-34.5-2.5-50.8-7.2c-1.2-0.4-2.2-1.3-2.6-2.4l-16.4-43c-0.4-1.1-0.3-2.3,0.2-3.3l22.3-42.3c0.7-1.3,2.1-2.1,3.5-2.1h87.5
	c1.5,0,2.8,0.8,3.5,2.1l22.3,42.3c0.5,1,0.6,2.2,0.2,3.3L309.4,426.3z M242,115.3v63.1c0,1.2-0.5,2.3-1.4,3.1L183.9,229
	c-1.2,1-2.8,1.2-4.2,0.6l-57.5-26.2c-1-0.5-1.8-1.3-2.1-2.3l-14.4-41.2c-0.4-1.2-0.3-2.5,0.4-3.5c6.5-9.8,14.1-19,22.6-27.5
	c19.9-19.9,43.7-34.6,69.6-43.3c1.2-0.4,2.5-0.2,3.5,0.5l38.4,26.1C241.3,112.7,242,113.9,242,115.3z M77.7,264.1l36.1-31.2
	c1.2-1,2.9-1.3,4.3-0.6l52.4,23.8c1.1,0.5,1.9,1.5,2.2,2.7l14.6,57.3c0.2,1,0.1,2-0.3,2.9l-23.2,43.9c-0.7,1.3-2.1,2.2-3.6,2.1
	l-46-0.6c-1.2,0-2.4-0.6-3.2-1.6c-20.5-27.7-32.5-60.6-34.7-95.4C76.3,266.1,76.8,264.9,77.7,264.1z M348.1,362.8L325,319
	c-0.5-0.9-0.6-1.9-0.3-2.9l14.6-57.3c0.3-1.2,1.1-2.2,2.2-2.7l52.4-23.8c1.4-0.6,3.1-0.4,4.3,0.6l36.1,31.2c0.9,0.8,1.5,2,1.4,3.3
	c-2.1,34.8-14.2,67.6-34.7,95.4c-0.7,1-1.9,1.6-3.2,1.6l-46.1,0.6C350.2,364.9,348.8,364.1,348.1,362.8z"/>
</svg>
