<?xml version="1.0" encoding="utf-8"?>
<!-- Generator: Adobe Illustrator 22.0.1, SVG Export Plug-In . SVG Version: 6.00 Build 0)  -->
<svg version="1.1" id="Layer_1" xmlns="http://www.w3.org/2000/svg" xmlns:xlink="http://www.w3.org/1999/xlink" x="0px" y="0px"
	 viewBox="0 0 512 512" style="enable-background:new 0 0 512 512;" xml:space="preserve">
<g>
	<path d="M277.8,294.8c-0.5,0-1.1-0.1-1.6-0.1c-2.6,0-5.2,0-7.8,0.3c-9.3-40.8-45.9-71.5-89.7-71.5c-50.8,0-91.9,40.9-91.9,91.4
		c0,3.1,0.2,6.1,0.5,9.1c-31,2.7-55.3,30.1-55.3,61.6C32,419,58.8,448,92.3,448h185.5c41.9,0,75.8-34.7,75.8-76.3
		C353.6,330.1,319.7,294.8,277.8,294.8z"/>
	<path d="M452.1,305.4c-2.5,0.1-5,0.2-7.6,0.2c-41.7,0-80.8-15.7-110.3-44.3c-29.5-28.5-45.7-66.5-45.7-106.8
		c0-23,5.3-45.2,15.2-65.3L315.4,70c1.7-2.9-0.8-6.5-4.1-6c-7.6,1.2-15.7,4-23.2,6.3c-59.5,18.2-104.4,68.1-113.7,129.3
		c1.4-0.1,2.9-0.1,4.3-0.1c26.5,0,52.4,9.2,73,25.9c15.1,12.2,26.9,28,34.2,45.7c23.7,2,45.7,12.4,62.7,29.8
		c18.7,19.1,29,44.2,29,70.7c0,2.3-0.1,4.6-0.2,6.8c34.2-8.1,64.3-26.6,86.4-51.8c4.8-5.5,11.3-12.8,15.3-18.5
		c2-2.8-0.3-6.7-3.8-6.3C468.5,302.8,459.4,305,452.1,305.4z"/>
</g>
</svg>
