<?xml version="1.0" encoding="utf-8"?>
<!-- Generator: Adobe Illustrator 22.0.1, SVG Export Plug-In . SVG Version: 6.00 Build 0)  -->
<svg version="1.1" id="Layer_1" xmlns="http://www.w3.org/2000/svg" xmlns:xlink="http://www.w3.org/1999/xlink" x="0px" y="0px"
	 viewBox="0 0 512 512" style="enable-background:new 0 0 512 512;" xml:space="preserve">
<g>
	<g>
		<path d="M256,387c-8.5,0-15.4,6.9-15.4,15.4v46.2c0,8.5,6.9,15.4,15.4,15.4s15.4-6.9,15.4-15.4v-46.2
			C271.4,393.9,264.5,387,256,387z"/>
		<path d="M256,48c-8.5,0-15.4,6.9-15.4,15.4v46.2c0,8.5,6.9,15.4,15.4,15.4s15.4-6.9,15.4-15.4V63.4C271.4,54.9,264.5,48,256,48z"
			/>
		<path d="M125,256c0-8.5-6.9-15.4-15.4-15.4H63.4c-8.5,0-15.4,6.9-15.4,15.4c0,8.5,6.9,15.4,15.4,15.4h46.2
			C118.1,271.4,125,264.5,125,256z"/>
		<path d="M448.6,240.6h-46.2c-8.5,0-15.4,6.9-15.4,15.4c0,8.5,6.9,15.4,15.4,15.4h46.2c8.5,0,15.4-6.9,15.4-15.4
			C464,247.5,457.1,240.6,448.6,240.6z"/>
		<path d="M152.5,344.1c-4.1,0-8,1.6-10.9,4.5l-32.7,32.7c-2.9,2.9-4.5,6.8-4.5,10.9s1.6,8,4.5,10.9c2.9,2.9,6.8,4.5,10.9,4.5
			c4.1,0,8-1.6,10.9-4.5l32.7-32.7c6-6,6-15.8,0-21.8C160.5,345.7,156.6,344.1,152.5,344.1z"/>
		<path d="M359.5,167.9c4.1,0,8-1.6,10.9-4.5l32.7-32.7c2.9-2.9,4.5-6.8,4.5-10.9s-1.6-8-4.5-10.9c-2.9-2.9-6.8-4.5-10.9-4.5
			c-4.1,0-8,1.6-10.9,4.5l-32.7,32.7c-2.9,2.9-4.5,6.8-4.5,10.9s1.6,8,4.5,10.9C351.5,166.3,355.4,167.9,359.5,167.9z"/>
		<path d="M130.7,108.9c-2.9-2.9-6.8-4.5-10.9-4.5c-4.1,0-8,1.6-10.9,4.5c-2.9,2.9-4.5,6.8-4.5,10.9c0,4.1,1.6,8,4.5,10.9l32.7,32.7
			c2.9,2.9,6.8,4.5,10.9,4.5c4.1,0,8-1.6,10.9-4.5c2.9-2.9,4.5-6.8,4.5-10.9s-1.6-8-4.5-10.9L130.7,108.9z"/>
		<path d="M370.4,348.6c-2.9-2.9-6.8-4.5-10.9-4.5c-4.1,0-8,1.6-10.9,4.5c-6,6-6,15.8,0,21.8l32.7,32.7c2.9,2.9,6.8,4.5,10.9,4.5
			c4.1,0,8-1.6,10.9-4.5c2.9-2.9,4.5-6.8,4.5-10.9s-1.6-8-4.5-10.9L370.4,348.6z"/>
	</g>
	<path d="M256,160c-52.9,0-96,43.1-96,96s43.1,96,96,96c52.9,0,96-43.1,96-96S308.9,160,256,160L256,160z"/>
</g>
</svg>
