<?xml version="1.0" encoding="utf-8"?>
<!-- Generator: Adobe Illustrator 18.1.1, SVG Export Plug-In . SVG Version: 6.00 Build 0)  -->
<svg version="1.1" id="Layer_1" xmlns="http://www.w3.org/2000/svg" xmlns:xlink="http://www.w3.org/1999/xlink" x="0px" y="0px"
	 viewBox="0 0 512 512" enable-background="new 0 0 512 512" xml:space="preserve">
<path d="M297.7,464c-38.5,0-80.2-4.1-112.6-8.1c-21.5-2.6-34.1-7.5-46.4-12.1c-15.9-6.1-31-11.8-66.7-11.8c-4.4,0-8-3.6-8-8
	s3.6-8,8-8c38.7,0,55.8,6.5,72.4,12.9c11.8,4.5,23,8.8,42.6,11.2c48.6,6,111.5,11,165.4,4.1c37.4-4.7,56.1-12.5,62.2-27.3
	c2.1-5-0.5-10.9-2.7-16.1c-1.5-3.5-2.9-6.6-2.9-9.8c0-5.5,4.1-8.9,8.9-12.8c6.3-5.1,14.1-11.5,14.1-20.8c0-9.1-4.8-14.8-9.4-20.3
	c-3.7-4.5-7.6-9.1-7.6-15.1c0-5.6,2.9-9.5,5.3-12.6c3.2-4.2,6.7-8.9,6.7-21.4c0-8.8-4.5-12.5-9.6-16.8c-4.6-3.8-14.2-11.8-5.9-23.8
	c7.3-10.5,2.5-22.6-2.4-28.1c-5.3-6-8.2-7.8-33.6-6.3c-17.2,1-54.2,6.8-78.7,10.6c-11.2,1.8-19.3,3-22.4,3.3
	c-4.9,0.5-11.5,1.2-17.8-0.4c-8.3-2.2-13.8-7.9-15.9-16.6c-1.9-7.8,1.5-14.5,6.1-23.9c3.7-7.6,8.9-18,13.5-33.4
	c7.3-24,9.7-60-1.3-79.8c-2.7-4.9-6.9-7.8-12.6-8.7c-6-0.9-11,0.9-12.3,1.9c-1.5,2.5-4,12.5-6,20.5c-3.3,13.1-7.3,32.4-12.9,44.7
	c-8.2,18.1-34.7,42.4-61,65.7c-4,3.5-7.4,6.6-9.8,8.8c-7.4,6.8-15.8,19.1-23.2,30c-6,8.8-11.2,16.5-15.6,20.8
	c-9.4,9.4-22.7,15.6-33.7,15.6c-4.4,0-8-3.6-8-8s3.6-8,8-8c5.7,0,15.2-3.7,22.3-10.9c3.3-3.3,8.4-10.7,13.7-18.5
	c7.9-11.5,16.8-24.6,25.5-32.7c2.5-2.4,6.1-5.5,10.1-9.1c17.3-15.3,49.5-43.8,57-60.4c5-11,8.9-29.5,12-42
	c3.8-15.3,5.8-22.8,9.2-26.8c4.6-5.5,13.4-7.9,24.9-7.9s20.8,7.2,26.3,17.1c11.7,21,12.7,59,2.7,92.2c-5,16.7-10.5,27.7-14.5,35.8
	c-3,6.1-5.4,10.9-4.9,13c1.2,4.8,3.7,6.2,16.4,4.9c2.7-0.3,11.5-1.7,21.6-3.2c24.8-3.9,62.2-9.7,80.2-10.8
	c26.1-1.5,36-0.1,46.4,11.7c10.2,11.5,14.8,31.6,3.7,47.7c0.8,0.7,1.9,1.7,2.9,2.5c5.8,4.8,15.4,12.8,15.4,29.1
	c0,17.9-6,25.8-10,31.1c-0.7,0.9-1.6,2.2-1.9,2.8c0.6,1.1,2.4,3.3,3.8,5c5.2,6.2,13.1,15.7,13.1,30.6c0,16.8-12.5,27.1-19.9,33.2
	c-0.7,0.6-1.6,1.3-2.4,2c0.3,0.6,0.6,1.3,0.8,1.9c2.8,6.5,7.6,17.3,2.8,28.7c-10.9,26.2-44.1,33.4-75.2,37
	C337.6,462,318.1,464,297.7,464z"/>
</svg>
