<?xml version="1.0" encoding="utf-8"?>
<!-- Generator: Adobe Illustrator 22.0.1, SVG Export Plug-In . SVG Version: 6.00 Build 0)  -->
<svg version="1.1" id="Layer_1" xmlns="http://www.w3.org/2000/svg" xmlns:xlink="http://www.w3.org/1999/xlink" x="0px" y="0px"
	 viewBox="0 0 512 512" style="enable-background:new 0 0 512 512;" xml:space="preserve">
<g>
	<g>
		<g>
			<path d="M352,32H160c-35.2,0-64,28.8-64,64v232c0,35.2,28.8,64,64,64h192c35.2,0,64-28.8,64-64V96C416,60.8,387.2,32,352,32z
				 M200,56h112c4.4,0,8,3.6,8,8c0,4.4-3.6,8-8,8H200c-4.4,0-8-3.6-8-8C192,59.6,195.6,56,200,56z M168,360c-15.5,0-28-12.5-28-28
				s12.5-28,28-28c15.5,0,28,12.5,28,28S183.5,360,168,360z M344,360c-15.5,0-28-12.5-28-28s12.5-28,28-28c15.5,0,28,12.5,28,28
				S359.5,360,344,360z M384,208c0,8.8-7.2,16-16,16H144.2c-8.8,0-16.2-7.2-16.2-16v-95.8c0-8.8,7.4-16.2,16.2-16.2H368
				c8.8,0,16,7.4,16,16.2V208z"/>
		</g>
	</g>
	<g>
		<path d="M393.7,455.9l-50-48c-5.6-5.4-14.4-5.2-19.8,0.4c-5.4,5.6-5.2,14.4,0.4,19.8l6.1,5.9H181.5l6.1-5.9
			c5.6-5.4,5.8-14.2,0.4-19.8c-5.4-5.6-14.2-5.8-19.8-0.4l-50,48c-5.6,5.4-5.8,14.2-0.4,19.8c2.7,2.9,6.4,4.3,10.1,4.3
			c3.5,0,7-1.3,9.7-3.9l14.7-14.1h207.2l14.7,14.1c2.7,2.6,6.2,3.9,9.7,3.9c3.7,0,7.4-1.4,10.1-4.3
			C399.5,470.1,399.3,461.3,393.7,455.9z"/>
	</g>
</g>
</svg>
