<?xml version="1.0" encoding="utf-8"?>
<!-- Generator: Adobe Illustrator 22.0.1, SVG Export Plug-In . SVG Version: 6.00 Build 0)  -->
<svg version="1.1" id="Layer_1" xmlns="http://www.w3.org/2000/svg" xmlns:xlink="http://www.w3.org/1999/xlink" x="0px" y="0px"
	 viewBox="0 0 512 512" style="enable-background:new 0 0 512 512;" xml:space="preserve">
<path d="M464.9,128H344.1c-8.3,0-15.1,6.6-15.1,14.8s6.8,14.8,15.1,14.8h83.7l-138,142.2l-85.9-84.1c-2.9-2.8-6.6-4.3-10.7-4.3
	c-4,0-7.8,1.5-10.7,4.3L36.2,358.8c-1.9,1.9-4.2,5.2-4.2,10.7c0,4.1,1.4,7.5,4.2,10.2c2.9,2.8,6.6,4.3,10.7,4.3
	c4,0,7.8-1.5,10.7-4.3l135.6-132.7l85.9,84.1c2.9,2.8,6.6,4.3,10.7,4.3c4,0,7.8-1.5,10.7-4.3l149.4-151.9v81.7
	c0,8.1,6.8,14.8,15.1,14.8c8.3,0,15.1-6.6,15.1-14.8V142.8C480,134.6,473.2,128,464.9,128z"/>
</svg>
