<?xml version="1.0" encoding="utf-8"?>
<!-- Generator: Adobe Illustrator 19.2.0, SVG Export Plug-In . SVG Version: 6.00 Build 0)  -->
<svg version="1.1" id="Layer_1" xmlns="http://www.w3.org/2000/svg" xmlns:xlink="http://www.w3.org/1999/xlink" x="0px" y="0px"
	 viewBox="0 0 512 512" style="enable-background:new 0 0 512 512;" xml:space="preserve">
<g>
	<path d="M447.2,125l-52.5,52.7l-51.2-9.3l-9.2-51.2l52.5-52.7C375.7,53.4,360,48,347.9,48c-0.7,0-1.4,0-2,0.1
		c-12.5,0.7-39.3,7.7-60,29.7c-20.1,21.2-41.1,60.6-22.5,104.5c2.2,5.3,4.7,12.3-2.7,19.7C253.1,209.4,61,390.3,61,390.3
		c-18,15.5-16.7,44.2-0.1,60.9c8.5,8.4,20,12.8,31.3,12.8c11.1,0,21.9-4.2,29.6-13.1c0,0,179.4-191.1,188.2-199.8
		c4-3.9,7.7-5.1,11.1-5.1c3.3,0,6.3,1.2,8.6,2.4c9.9,5.1,21,7.4,32.4,7.4c26.8,0,55-12.4,72.2-29.6c24.4-24.4,28.9-48,29.6-60.1
		C464.7,154.2,460.5,138.3,447.2,125z"/>
</g>
</svg>
