<?xml version="1.0" encoding="utf-8"?>
<!-- Generator: Adobe Illustrator 22.0.1, SVG Export Plug-In . SVG Version: 6.00 Build 0)  -->
<svg version="1.1" id="Layer_1" xmlns="http://www.w3.org/2000/svg" xmlns:xlink="http://www.w3.org/1999/xlink" x="0px" y="0px"
	 viewBox="0 0 512 512" style="enable-background:new 0 0 512 512;" xml:space="preserve">
<path d="M256,48C256,48,256,48,256,48L256,48C148.5,48,60.1,129.5,49.2,234.1c-0.8,7.2-1.2,14.5-1.2,21.9c0,7.4,0.4,14.7,1.2,21.9
	C60.1,382.5,148.5,464,256,464h0c0,0,0,0,0,0c114.9,0,208-93.1,208-208S370.9,48,256,48z M391.8,374.1c-22.7-8.6-59.5-21.2-82.4-28
	c-2.4-0.7-2.7-0.9-2.7-10.7c0-8.1,3.3-16.3,6.6-23.3c3.6-7.5,7.7-20.2,9.2-31.6c4.2-4.9,10-14.5,13.6-32.9
	c3.2-16.2,1.7-22.1-0.4-27.6c-0.2-0.6-0.5-1.2-0.6-1.7c-0.8-3.8,0.3-23.5,3.1-38.8c1.9-10.5-0.5-32.8-14.9-51.3
	c-9.1-11.7-26.6-26-58.5-28l-17.5,0c-31.4,2-48.8,16.3-58,28c-14.5,18.5-16.9,40.8-15,51.3c2.8,15.3,3.9,35,3.1,38.8
	c-0.2,0.7-0.4,1.2-0.6,1.8c-2.1,5.5-3.7,11.4-0.4,27.6c3.7,18.4,9.4,28,13.6,32.9c1.5,11.4,5.7,24,9.2,31.6c2.6,5.5,3.8,13,3.8,23.6
	c0,9.9-0.4,10-2.6,10.7c-23.7,7-58.9,19.4-80,27.8C91.6,341.4,76,299.9,76,256c0-48.1,18.7-93.3,52.7-127.3
	c34-34,79.2-52.7,127.3-52.7c48.1,0,93.3,18.7,127.3,52.7c34,34,52.7,79.2,52.7,127.3C436,299.9,420.4,341.4,391.8,374.1z"/>
</svg>
