<?xml version="1.0" encoding="utf-8"?>
<!-- Generator: Adobe Illustrator 18.1.1, SVG Export Plug-In . SVG Version: 6.00 Build 0)  -->
<svg version="1.1" id="Layer_1" xmlns="http://www.w3.org/2000/svg" xmlns:xlink="http://www.w3.org/1999/xlink" x="0px" y="0px"
	 viewBox="0 0 512 512" enable-background="new 0 0 512 512" xml:space="preserve">
<g>
	<path d="M76.1,187c0-38.1,22.2-71,55.3-85h-7.1c-28.7,0-60.7,30.4-66.3,69.8c-5.6,0.9-9.9,7.3-9.9,14.9c0,8,4.7,14.3,10.8,14.8
		c4.2,30,35.7,59,56.9,65.4l10.1,3.2C98.1,254.3,76.1,221.3,76.1,187z"/>
	<path d="M450.2,102.8c-1-2.7-2.1-5.2-3.2-7.7c-6-13.4-13.4-24.2-21.7-32.2C414.8,53.2,403.9,48,390.5,48s-21.5,5.2-25.8,7.8
		c-43.1,25.9-112.3,46-154,46s-63.4,0.2-63.4,0.2c-31.6,14-54.8,46.9-54.8,85c0,34.2,17.8,64.2,44.4,80
		c12.1,10.1,45.6,8.8,43.1,22.2c-2.5,13.4-20.5,109.5-23,127s-2.9,23.5,4,32c7,8.5,41.5,15.8,60,15.8s21.8-8.7,21.8-43.8
		s-17.3-131.7,8.5-131.7c48.3,0,81.5,17.3,119.3,31.7c9,3.4,14.1,4.7,20.1,4.7c6,0,18.7-1.9,34.7-18.2c9.2-9.4,15.7-18.8,21.7-32.2
		c1.1-2.6,2.2-5.2,3.2-8c8.9-23.2,13.7-51.9,13.7-81.9C464,154.8,459.2,126,450.2,102.8z M431.7,263.3
		c-7.2,16.4-19.9,29.6-30.4,29.6c-10.5,0-20.1-13.1-27.3-29.6c-8.4-19.2-13.8-47.2-13.8-78.2c0-31.3,5.4-59.3,13.9-78.5
		c7.2-16.3,16.8-26.2,27.2-26.2c10.5,0,23,9.9,30.3,26.2c8.5,19.2,16.4,47.2,16.4,78.5C448,216.1,440.2,244.1,431.7,263.3z"/>
</g>
</svg>
