<?xml version="1.0" encoding="utf-8"?>
<!-- Generator: Adobe Illustrator 22.0.1, SVG Export Plug-In . SVG Version: 6.00 Build 0)  -->
<svg version="1.1" id="Layer_1" xmlns="http://www.w3.org/2000/svg" xmlns:xlink="http://www.w3.org/1999/xlink" x="0px" y="0px"
	 viewBox="0 0 512 512" style="enable-background:new 0 0 512 512;" xml:space="preserve">
<path d="M456.8,182.4c-20-19.6-46.8-30.4-75.2-30.4c-28.5,0-55.2,10.8-75.2,30.4l-31.2,30c-1.6,1.6-1.6,4.2,0,5.7l19.4,19.1
	c1.5,1.5,4,1.5,5.6,0l31-30.1c13.5-13.1,31.3-20.3,50.3-20.3c19,0,36.8,7.2,50.3,20.3c13.4,13.1,20.7,30.5,20.7,49
	c0,18.4-7.4,35.8-20.7,48.7c-13.5,13.1-31.3,20.3-50.3,20.3c-19,0-36.8-7.2-50.3-20.3L205.6,182.4c-20.2-19.6-46.9-30.4-75.2-30.4
	c-28.5,0-55.2,10.8-75.2,30.4C35.1,202,24,228.1,24,256c0,27.8,11.1,54,31.2,73.6c20,19.6,46.8,30.4,75.2,30.4
	c28.5,0,55.2-10.8,75.2-30.4l31-30c1.6-1.6,1.6-4.2,0-5.7l-19.4-18.9c-1.5-1.5-4-1.5-5.6,0l-31,29.9c-13.5,13.1-31.3,20.3-50.3,20.3
	c-19,0-36.8-7.2-50.3-20.3c-13.4-13.1-20.7-30.5-20.7-49c0-18.4,7.4-35.7,20.7-48.7c13.5-13.1,31.3-20.3,50.3-20.3
	c19,0,36.8,7.2,50.3,20.3l125.5,122.5c20.2,19.6,46.9,30.4,75.2,30.4c28.5,0,55.2-10.8,75.2-30.4c20.2-19.6,31.3-45.7,31.3-73.6
	C488,228.2,476.9,202,456.8,182.4z"/>
</svg>
