<?xml version="1.0" encoding="utf-8"?>
<!-- Generator: Adobe Illustrator 22.0.1, SVG Export Plug-In . SVG Version: 6.00 Build 0)  -->
<svg version="1.1" id="Layer_1" xmlns="http://www.w3.org/2000/svg" xmlns:xlink="http://www.w3.org/1999/xlink" x="0px" y="0px"
	 viewBox="0 0 512 512" style="enable-background:new 0 0 512 512;" xml:space="preserve">
<path d="M386.2,146C386.2,146,386.2,146,386.2,146c-0.1,0-0.1,0-0.1,0c-60.6,0-109.8,49.2-109.8,110.1c0,30.5,12.3,58,32.3,77.9
	H203.5c19.9-19.9,32.3-47.5,32.3-77.9c0-60.8-49.2-110.1-109.8-110.1c0,0,0,0-0.1,0c0,0,0,0-0.1,0C65.2,146,16,195.2,16,256
	c0,60.8,49.2,110,109.8,110h260.4c60.6,0,109.8-49.2,109.8-110C496,195.2,446.8,146,386.2,146z M464,256c0,43.1-34.9,78.2-77.9,78.2
	s-77.9-35.1-77.9-78.2s34.9-78.2,77.9-78.2S464,212.9,464,256z M125.9,334.2C83,334.2,48,299.1,48,256s34.9-78.2,77.9-78.2
	s77.9,35.1,77.9,78.2S168.9,334.2,125.9,334.2z"/>
</svg>
