<?xml version="1.0" encoding="utf-8"?>
<!-- Generator: Adobe Illustrator 22.0.1, SVG Export Plug-In . SVG Version: 6.00 Build 0)  -->
<svg version="1.1" id="Layer_1" xmlns="http://www.w3.org/2000/svg" xmlns:xlink="http://www.w3.org/1999/xlink" x="0px" y="0px"
	 viewBox="0 0 512 512" style="enable-background:new 0 0 512 512;" xml:space="preserve">
<g>
	<path d="M369.7,404H110.1c-7.6,0-14.1,5.8-14.4,13.4c-0.4,8,6,14.6,14,14.6h259.6c7.6,0,14.1-5.8,14.4-13.4
		C384,410.6,377.6,404,369.7,404z"/>
	<path d="M399.2,118.5c0.1-10.8-4.2-20.9-12.2-28.4c-7.2-6.6-16.7-10.1-26.5-10.1H86.8c-9.9,0-19.7,3.6-26.9,10.4
		c-8.1,7.7-12.4,18.2-11.9,29.3C50.4,172,58.3,218,71.8,256.3c11,31.6,25.8,58.1,43.9,78.9c31.8,36.6,68.8,48.8,77.9,48.8h60.1
		c5.5,0,25-7.2,44.2-19.5c22.4-14.4,42.4-36.7,58.1-64.6c0,0,0,0,0,0c2,0.1,4,0.2,5.9,0.2c27.2,0,52.8-9.7,72.1-27.4
		c19.4-17.8,30.1-41.4,30.1-66.6C464,167.2,438.2,132.6,399.2,118.5C399.2,118.5,399.2,118.5,399.2,118.5z M369.5,271.6
		c14.2-34.5,23.6-76,27.8-123.4c0,0,0-0.1,0.1,0c10.3,5,19.1,12.2,25.8,20.9c8.4,10.9,12.8,23.7,12.8,37
		C436,240.1,406.8,268.2,369.5,271.6C369.5,271.6,369.5,271.6,369.5,271.6z"/>
</g>
</svg>
