<?xml version="1.0" encoding="utf-8"?>
<!-- Generator: Adobe Illustrator 18.1.1, SVG Export Plug-In . SVG Version: 6.00 Build 0)  -->
<svg version="1.1" id="Layer_1" xmlns="http://www.w3.org/2000/svg" xmlns:xlink="http://www.w3.org/1999/xlink" x="0px" y="0px"
	 viewBox="0 0 512 512" enable-background="new 0 0 512 512" xml:space="preserve">
<g>
	<g>
		<g>
			<rect x="248" y="400" width="16" height="64"/>
			<rect x="248" y="48" width="16" height="64"/>
		</g>
		<g>
			<rect x="48" y="248" width="64" height="16"/>
			<rect x="400" y="248" width="64" height="16"/>
		</g>
	</g>
	<g>
		<g>
			<rect x="123.5" y="348.5" transform="matrix(0.7071 0.7071 -0.7071 0.7071 307.5492 18.4121)" width="16" height="64"/>
			<rect x="372.5" y="99.5" transform="matrix(0.7071 0.7071 -0.7071 0.7071 204.4508 -230.4895)" width="16" height="64"/>
		</g>
		<g>
			<rect x="123.5" y="99.5" transform="matrix(-0.7071 0.7071 -0.7071 -0.7071 317.5879 131.5492)" width="16" height="64"/>
			<rect x="372.5" y="348.5" transform="matrix(-0.7071 0.7071 -0.7071 -0.7071 918.4895 380.4508)" width="16" height="64"/>
		</g>
	</g>
	<path d="M256,176c44.1,0,80,35.9,80,80c0,44.1-35.9,80-80,80c-44.1,0-80-35.9-80-80C176,211.9,211.9,176,256,176 M256,160
		c-52.9,0-96,43.1-96,96s43.1,96,96,96c52.9,0,96-43.1,96-96S308.9,160,256,160L256,160z"/>
</g>
</svg>
