<?xml version="1.0" encoding="utf-8"?>
<!-- Generator: Adobe Illustrator 22.0.1, SVG Export Plug-In . SVG Version: 6.00 Build 0)  -->
<svg version="1.1" id="Layer_1" xmlns="http://www.w3.org/2000/svg" xmlns:xlink="http://www.w3.org/1999/xlink" x="0px" y="0px"
	 viewBox="0 0 512 512" style="enable-background:new 0 0 512 512;" xml:space="preserve">
<g>
	<path d="M453.9,378.7c-51.8-8-55.7-11.7-55.7-11.7c15.6-74-22.4-151.1-76.3-195.6C250.1,112.2,141,155.2,56,65.2
		c-19.8-21-8.3,235.5,98.1,332.7c77.8,71,169.4,49.2,194.5,37.6c22.8-10.6,38.7-33.9,38.7-33.9c41.5,13,62,14.2,62,14.2
		C463.9,417.6,471.3,381.4,453.9,378.7z M362.1,386.1c-77.7-23.3-145.3-81-189.1-126.2c-3.6-3.7,1.6-9.2,5.5-6
		c43.1,35.5,108.9,80,193.3,107.9C372,369.9,367.3,381.5,362.1,386.1z"/>
</g>
</svg>
