<?xml version="1.0" encoding="utf-8"?>
<!-- Generator: Adobe Illustrator 22.0.1, SVG Export Plug-In . SVG Version: 6.00 Build 0)  -->
<svg version="1.1" id="Layer_1" xmlns="http://www.w3.org/2000/svg" xmlns:xlink="http://www.w3.org/1999/xlink" x="0px" y="0px"
	 viewBox="0 0 512 512" style="enable-background:new 0 0 512 512;" xml:space="preserve">
<path d="M372,175.2c0-19.5-1-81.7-19.3-115.6C348.2,51.4,343.2,48,324,48H188c-19.3,0-24.2,3.4-28.7,11.6
	C141,93.5,140,156.1,140,175.6c0,91,36,93.1,36,167.8c0,36.7-16,66.7-16,92.7c0,25.1,6,27.8,29,27.8h134c23,0,29-2.9,29-27.9
	c0-26-16-55.7-16-92.4C336,268.9,372,266.2,372,175.2z M188,76h136c2.4,0,4.3,0.1,5.7,0.2c5.4,11.6,9.4,29.3,11.8,50.8h-171
	c2.4-21.6,6.5-39.3,11.8-50.8C183.7,76.1,185.6,76,188,76z"/>
</svg>
