<?xml version="1.0" encoding="utf-8"?>
<!-- Generator: Adobe Illustrator 22.0.1, SVG Export Plug-In . SVG Version: 6.00 Build 0)  -->
<svg version="1.1" id="Layer_1" xmlns="http://www.w3.org/2000/svg" xmlns:xlink="http://www.w3.org/1999/xlink" x="0px" y="0px"
	 viewBox="0 0 512 512" style="enable-background:new 0 0 512 512;" xml:space="preserve">
<path d="M328.9,51.2c-2-5.5-7-9.2-12.9-9.2H196c-6,0-10.9,3.7-13,9.2c-9.3,25-31,87.1-31,124.8v4.1l0,0.7c0,19.2,0,45.4,28.4,74.5
	c6.5,6.7,14.3,12.9,22.5,19.5c19.1,15.3,38.8,31.1,38.8,50.2v115c0,1.1-0.9,2-2,2h-57.1c-7.9,0-14.3,6.3-14.3,14
	c0,7.7,6.4,14,14.3,14h146.8c7.9,0,14.3-6.3,14.3-14c0-7.7-6.4-14-14.3-14h-57.1c-1.1,0-2-0.9-2-2V325c0-19.1,19.7-34.9,38.8-50.2
	c8.2-6.6,15.9-12.8,22.5-19.5C360,226.2,360,200,360,180.8v-0.7V176C360,138.5,338.3,76.2,328.9,51.2z M327.5,153.3
	c-0.2,0.3-0.7,0.7-1.6,0.7H186.1c-0.8,0-1.3-0.5-1.6-0.7c-0.2-0.3-0.6-0.8-0.4-1.7c5.1-26.1,14.8-59.6,21.6-80.2
	c0.3-0.8,1.1-1.4,1.9-1.4h96.8c0.9,0,1.7,0.6,1.9,1.4c6.7,20.7,16.4,54.1,21.6,80.2C328.1,152.4,327.7,153,327.5,153.3z"/>
</svg>
