<?xml version="1.0" encoding="utf-8"?>
<!-- Generator: Adobe Illustrator 18.1.1, SVG Export Plug-In . SVG Version: 6.00 Build 0)  -->
<svg version="1.1" id="Layer_1" xmlns="http://www.w3.org/2000/svg" xmlns:xlink="http://www.w3.org/1999/xlink" x="0px" y="0px"
	 viewBox="0 0 512 512" enable-background="new 0 0 512 512" xml:space="preserve">
<path d="M368,175.2c0-19.5-1-81.7-19.3-115.6C344.2,51.4,336.2,48,317,48H195c-19.3,0-27.2,3.4-31.7,11.6
	C145,93.5,144,156.1,144,175.6c0,91,32,93.1,32,167.8c0,36.7-16,66.7-16,92.7c0,25.1,9,27.8,32,27.8h128c23,0,32-2.9,32-27.9
	c0-26-16-55.7-16-92.4C336,268.9,368,266.2,368,175.2z M177.4,67c0.5-0.9,0.7-1,2-1.5c2-0.8,6.4-1.5,15.6-1.5h122
	c9.1,0,13.5,0.7,15.6,1.5c1.4,0.5,1.6,0.7,2.1,1.6c7.1,13.1,12.2,33.8,15,59.9H162.4C165.2,100.9,170.3,80,177.4,67z M334.8,446.6
	c-1.4,0.6-5.2,1.4-14.8,1.4H192c-9.6,0-13.4-0.8-14.9-1.4c-0.4-0.9-1.1-3.8-1.1-10.5c0-9.8,3-21.2,6.4-34.3
	c4.5-17,9.6-36.3,9.6-58.3c0-38.5-8.1-59.8-15.9-80.4c-8.3-21.9-16.1-42.7-16.1-87.5c0-11.4,0.4-22.3,1-32.5h190
	c0.7,10.2,1,21,1,32.2c0,44.8-7.8,65.7-16.2,87.8c-7.8,20.7-15.8,42.1-15.8,80.6c0,22,5.1,41.2,9.6,58.1c3.5,13.1,6.4,24.5,6.4,34.3
	C336,442.8,335.2,445.7,334.8,446.6z"/>
</svg>
