<?xml version="1.0" encoding="utf-8"?>
<!-- Generator: Adobe Illustrator 22.0.1, SVG Export Plug-In . SVG Version: 6.00 Build 0)  -->
<svg version="1.1" id="Layer_1" xmlns="http://www.w3.org/2000/svg" xmlns:xlink="http://www.w3.org/1999/xlink" x="0px" y="0px"
	 viewBox="0 0 512 512" style="enable-background:new 0 0 512 512;" xml:space="preserve">
<g>
	<g>
		<path d="M276,68.1v219c0,3.7-2.5,6.8-6,7.7L81.1,343.4c-2.3,0.6-3.6,3.1-2.7,5.4C109.1,426,184.9,480.6,273.2,480
			C387.8,479.3,480,386.5,480,272c0-112.1-88.6-203.5-199.8-207.8C277.9,64.1,276,65.9,276,68.1z"/>
	</g>
	<path d="M32,239.3c0,0,0.2,48.8,15.2,81.1c0.8,1.8,2.8,2.7,4.6,2.2l193.8-49.7c3.5-0.9,6.4-4.6,6.4-8.2V36c0-2.2-1.8-4-4-4
		C91,33.9,32,149,32,239.3z"/>
</g>
</svg>
