<?xml version="1.0" encoding="utf-8"?>
<!-- Generator: Adobe Illustrator 22.0.1, SVG Export Plug-In . SVG Version: 6.00 Build 0)  -->
<svg version="1.1" id="Layer_1" xmlns="http://www.w3.org/2000/svg" xmlns:xlink="http://www.w3.org/1999/xlink" x="0px" y="0px"
	 viewBox="0 0 512 512" style="enable-background:new 0 0 512 512;" xml:space="preserve">
<path d="M256,48h-0.3c-0.1,0-0.3,0-0.4,0c-55.4,0.2-107.4,21.9-146.6,61.1C69.6,148.4,48,200.5,48,256c0,55.5,21.6,107.6,60.8,146.9
	c39.1,39.2,91.2,60.9,146.6,61.1c0.2,0,0.3,0,0.5,0h0.2c114.7,0,208-93.3,208-208S370.7,48,256,48z M436.2,242h-77.6
	c-0.9-26.7-4.2-52.2-9.8-76.2c17.1-5.5,33.7-12.5,49.7-21C420.5,173,433.5,206.4,436.2,242z M242,242h-61.8
	c0.8-24.5,3.8-47.7,8.8-69.1c17.4,3.9,35.1,6.3,53,7.1V242z M242,270v61.9c-17.8,0.8-35.6,3.2-53,7.1c-5-21.4-8-44.6-8.8-69H242z
	 M270,270h61.3c-0.8,24.4-3.8,47.6-8.8,68.9c-17.2-3.9-34.8-6.2-52.5-7V270z M270,242v-62c17.8-0.8,35.4-3.2,52.5-7
	c5,21.4,8,44.5,8.8,69H270z M379.4,124.1c-12.3,6.1-25,11.3-38,15.5c-7.1-21.4-16.1-39.9-26.5-54.5
	C338.9,93.4,360.8,106.7,379.4,124.1z M315,146.8c-14.7,3.2-29.8,5.2-45,6V79.4C287,88.6,303.6,113.3,315,146.8z M242,79v73.7
	c-15.4-0.8-30.6-2.8-45.5-6.1C208.1,112.8,224.9,88.1,242,79z M196.4,85.4c-10.3,14.5-19.2,32.9-26.3,54.1
	c-12.8-4.2-25.4-9.4-37.5-15.4C151,106.8,172.7,93.6,196.4,85.4z M113.5,144.9c15.8,8.4,32.3,15.4,49.2,20.8
	c-5.7,23.9-9,49.5-9.8,76.2h-77C78.5,206.5,91.5,173.1,113.5,144.9z M75.8,270h77c0.9,26.7,4.2,52.3,9.8,76.2
	c-16.9,5.5-33.4,12.5-49.2,20.8C91.5,338.9,78.5,305.5,75.8,270z M132.5,387.9c12.1-6,24.7-11.2,37.6-15.4
	c7.1,21.3,16,39.6,26.3,54.2C172.7,418.3,151,405.2,132.5,387.9z M196.5,365.3c14.9-3.3,30.2-5.3,45.5-6.1V433
	C224.8,423.9,208.1,399.1,196.5,365.3z M270,432.6v-73.5c15.2,0.8,30.3,2.8,45,6C303.6,398.7,287,423.4,270,432.6z M315,426.9
	c10.4-14.6,19.4-33.1,26.5-54.5c13,4.2,25.8,9.5,38,15.6C360.9,405.3,338.9,418.6,315,426.9z M398.5,367.1
	c-16-8.5-32.6-15.5-49.7-21c5.6-23.9,8.9-49.4,9.8-76.1h77.6C433.5,305.5,420.6,338.9,398.5,367.1z"/>
</svg>
