<?xml version="1.0" encoding="utf-8"?>
<!-- Generator: Adobe Illustrator 22.0.1, SVG Export Plug-In . SVG Version: 6.00 Build 0)  -->
<svg version="1.1" id="Layer_1" xmlns="http://www.w3.org/2000/svg" xmlns:xlink="http://www.w3.org/1999/xlink" x="0px" y="0px"
	 viewBox="0 0 512 512" style="enable-background:new 0 0 512 512;" xml:space="preserve">
<path d="M364.3,48.2c-4.7,0.9-118,24.1-122.2,24.9c-4.2,0.8-8.1,3.6-8.1,8c0,0,0,0,0,0c0,0,0,0,0,0c0,0,0,253.5,0,255.1
	c0,1.6-0.1,7.2-2.4,11.7c-3.1,5.9-8.5,10.2-16.1,12.7c-3.3,1.1-7.8,2.1-13.1,3.3c-24.1,5.4-64.4,14.6-64.4,51.8
	c0,30.1,21.7,44.5,35,47.1c5,1,11,1,13.8,1c8.2,0,36-3.3,51.2-13.2c11-7.2,24.1-21.4,24.1-47.8V173.1c0-3.8,2.7-7.1,6.4-7.8l92.8-19
	c7.4-1.5,12.8-8.1,12.8-15.7V55.8C374,51.5,370.3,47,364.3,48.2z"/>
</svg>
