<?xml version="1.0" encoding="utf-8"?>
<!-- Generator: Adobe Illustrator 22.0.1, SVG Export Plug-In . SVG Version: 6.00 Build 0)  -->
<svg version="1.1" id="Layer_1" xmlns="http://www.w3.org/2000/svg" xmlns:xlink="http://www.w3.org/1999/xlink" x="0px" y="0px"
	 viewBox="0 0 512 512" style="enable-background:new 0 0 512 512;" xml:space="preserve">
<g>
	<path d="M395,96H230c-46.7,0-73.2,34.7-102,63.5s-72.1,74.7-72.1,74.7c-4.9,5.6-7.9,12.8-7.9,20.9c0,8,3,15.3,7.9,21
		c0,0,34.3,37.6,72.1,75.5c37.8,37.8,56.7,64.5,102,64.5h165c38.5,0,69-32.5,69-71V165C464,126.5,433.5,96,395,96z M377.3,308.7
		c6.2,6.2,6.2,16.4,0,22.6c-6.2,6.2-16.4,6.2-22.6,0L302,278.6l-52.7,52.7c-6.2,6.2-16.3,6.4-22.6,0c-6.4-6.4-6.7-15.9,0-22.6
		c6.7-6.7,52.7-52.7,52.7-52.7s-46.7-46.7-52.7-52.7c-6-6-7.1-15.6,0-22.6c7.1-7.1,16.4-6.2,22.6,0l52.7,52.7l52.7-52.7
		c6.2-6.2,16.4-6.2,22.6,0c6.2,6.2,6.2,16.4,0,22.6L324.6,256L377.3,308.7z"/>
</g>
</svg>
