<?xml version="1.0" encoding="utf-8"?>
<!-- Generator: Adobe Illustrator 22.0.1, SVG Export Plug-In . SVG Version: 6.00 Build 0)  -->
<svg version="1.1" id="Layer_1" xmlns="http://www.w3.org/2000/svg" xmlns:xlink="http://www.w3.org/1999/xlink" x="0px" y="0px"
	 viewBox="0 0 512 512" style="enable-background:new 0 0 512 512;" xml:space="preserve">
<g>
	<path d="M256,48C141.1,48,48,141.1,48,256s93.1,208,208,208c114.9,0,208-93.1,208-208S370.9,48,256,48z M346.5,272H272v74.5
		c0,8.8-7.2,16-16,16c-4.4,0-8.4-1.8-11.3-4.7c-2.9-2.9-4.7-6.9-4.7-11.3V272h-74.5c-4.4,0-8.4-1.8-11.3-4.7
		c-2.9-2.9-4.7-6.9-4.7-11.3c0-8.8,7.2-16,16-16H240v-74.5c0-8.8,7.2-16,16-16c8.8,0,16,7.2,16,16V240h74.5c8.8,0,16,7.2,16,16
		C362.5,264.8,355.3,272,346.5,272z"/>
</g>
</svg>
