<?xml version="1.0" encoding="utf-8"?>
<!-- Generator: Adobe Illustrator 22.0.1, SVG Export Plug-In . SVG Version: 6.00 Build 0)  -->
<svg version="1.1" id="Layer_1" xmlns="http://www.w3.org/2000/svg" xmlns:xlink="http://www.w3.org/1999/xlink" x="0px" y="0px"
	 viewBox="0 0 512 512" style="enable-background:new 0 0 512 512;" xml:space="preserve">
<path d="M466,242h-76.7c-3.3-31.9-17.8-61.3-41.3-83.5C323,135,290.3,122,256,122s-67,13-91.9,36.5c-23.5,22.2-38,51.6-41.3,83.5H46
	c-7.7,0-14,6.3-14,14s6.3,14,14,14h76.7c3.3,31.9,17.8,61.3,41.3,83.5C189,377,221.7,390,256,390c34.3,0,67-13,91.9-36.5
	c23.5-22.2,38-51.6,41.3-83.5H466c7.7,0,14-6.3,14-14S473.7,242,466,242z M331,331c-20,20-46.6,31-75,31c-28.3,0-54.9-11-75-31
	c-20-20-31-46.6-31-75s11-54.9,31-75c20-20,46.6-31,75-31c28.3,0,54.9,11,75,31c20,20,31,46.6,31,75S351,310.9,331,331z"/>
</svg>
