<?xml version="1.0" encoding="utf-8"?>
<!-- Generator: Adobe Illustrator 22.0.1, SVG Export Plug-In . SVG Version: 6.00 Build 0)  -->
<svg version="1.1" id="Layer_1" xmlns="http://www.w3.org/2000/svg" xmlns:xlink="http://www.w3.org/1999/xlink" x="0px" y="0px"
	 viewBox="0 0 512 512" style="enable-background:new 0 0 512 512;" xml:space="preserve">
<g>
	<g>
		<path d="M440.3,161.3c-15-23.9-36.3-43.3-61.4-56.1c-1.9-0.9-3.9-1.4-6-1.4c-5,0-9.5,2.8-11.8,7.2c-1.6,3.1-1.9,6.7-0.8,10
			c1.1,3.3,3.4,6.1,6.6,7.7c20.9,10.7,38.6,26.8,51.1,46.7c12.8,20.4,19.6,44,19.6,68v40.5c0,17.2-3.3,33.4-9.9,48
			c-6.3,14-15.4,26.3-27,36.6c-23.2,20.5-55.1,31.9-89.9,31.9c-34.4,0-43.6-5.2-52.4-10.2c-8.1-4.6-17.3-9.8-37.7-11
			c-31.7-2-56.9-12.4-77.2-31.8c-2.5-2.4-5.7-3.7-9.1-3.7c-3.6,0-7,1.5-9.5,4.1c-2.4,2.5-3.7,5.7-3.7,9.1c0,3.6,1.5,7,4.1,9.5
			c25,23.9,55.7,36.7,93.8,39.1c14.4,0.9,19.4,3.7,26.4,7.7c11.3,6.4,24.1,13.6,65.4,13.6c41.6,0,80-13.9,108.1-39.2
			c14.2-12.8,25.3-28,33-45.2c8-18,12.1-37.6,12.1-58.5v-40.5C464,214.3,455.8,185.9,440.3,161.3z"/>
		<path d="M284,383c8.7,1.4,17.2,2.1,25.4,2.1c16,0,31.2-2.7,45-8c13.9-5.4,26.5-13.4,37.5-23.9c5.3-5,5.4-13.4,0.4-18.6
			c-2.5-2.6-5.9-4.1-9.5-4.1c-3.4,0-6.7,1.3-9.1,3.7c-17.1,16.3-38.8,24.6-64.5,24.6c-6.8,0-13.8-0.6-21-1.8
			c-0.7-0.1-1.4-0.2-2.1-0.2c-6.5,0-12,4.6-13,11c-0.1,0.7-0.2,1.4-0.2,2.1C272.9,376.5,277.6,381.9,284,383z M286.1,361.9
			c0,0,0.1,0,0.1,0c-0.1,0-0.2,0-0.3,0C286,361.9,286.1,361.9,286.1,361.9z"/>
		<path d="M222.9,421.7c-39.9,0-72.8-13.4-102.7-40.3c-29.1-26.2-45.8-60.7-45.8-94.5v-43.6c0-24.1,6.8-47.6,19.6-68
			c12.5-19.9,30.2-36,51.1-46.7c3.1-1.6,5.5-4.3,6.6-7.7c1.1-3.3,0.8-6.9-0.8-10.1c-2.3-4.4-6.8-7.2-11.8-7.2c-2.1,0-4.1,0.5-6,1.4
			c-25.1,12.8-46.4,32.2-61.4,56.1c-15.5,24.6-23.7,53-23.7,82v43.6c0,41.2,19.9,82.8,54.5,114c34.6,31.2,74,47.1,120.4,47.1
			c7.3,0,13.2-5.9,13.2-13.2C236,427.6,230.1,421.7,222.9,421.7z"/>
	</g>
	<g>
		<g>
			<path d="M348.4,115.1c0.8-11.9,10.3-21.6,22.2-22.6c4.3-0.4,8.4,0.4,12,2c2.6,1.1,5.1-1.6,3.9-4.1c-2.7-5.7-6.6-10.9-11.5-15.1
				C366.6,68,355.9,64,344.8,64H167.2c-17.9,0-33.9,10.3-41.5,25.8c-1.2,2.5,1.2,5.2,3.9,4.2c3.3-1.3,7-1.8,10.8-1.5
				c11.9,1,21.4,10.8,22.2,22.7c0.8,13.6-9.5,25-22.8,25.8c-0.9,0.1-1.8,0.7-2.1,1.5l0,0c-0.4,1.1-0.1,2.3,0.8,3
				c8.1,6.2,18.1,9.7,28.7,9.7h177.6c10.9,0,21.2-3.6,29.4-10.2c1.7-1.3,0.7-4-1.4-4c0,0,0,0-0.1,0
				C358.7,141,347.5,129.3,348.4,115.1z M326.8,104.8c3.5,15.8-10.7,30-26.5,26.5c-8.4-1.9-15.2-8.6-17-17
				c-3.5-15.8,10.7-30,26.5-26.5C318.2,89.7,325,96.4,326.8,104.8z"/>
		</g>
	</g>
</g>
</svg>
