<?xml version="1.0" encoding="utf-8"?>
<!-- Generator: Adobe Illustrator 22.0.1, SVG Export Plug-In . SVG Version: 6.00 Build 0)  -->
<svg version="1.1" id="Layer_1" xmlns="http://www.w3.org/2000/svg" xmlns:xlink="http://www.w3.org/1999/xlink" x="0px" y="0px"
	 viewBox="0 0 512 512" style="enable-background:new 0 0 512 512;" xml:space="preserve">
<g>
	<path d="M96.9,270.3V363c0,2.9,1.5,5.5,4,7l132,75.9c5.3,3.1,12-0.8,12-7v-93.8c0-2.9-1.5-5.5-4-7l-132-74.9
		C103.5,260.3,96.9,264.2,96.9,270.3z"/>
	<path d="M280.9,445.9L413,370c2.5-1.4,4-4.1,4-7v-93.7c0-6.2-6.6-10-12-7l-132,75.9c-2.5,1.4-4,4.1-4,7V439
		C268.9,445.1,275.6,449,280.9,445.9z"/>
	<path d="M249,65.1L37,188.9c-5.4,3.1-5.4,10.8,0,13.9l212,117.8c4.9,2.8,11,2.8,15.9,0L453,212.9c5.3-3.1,7,0.8,7,7v153.4
		c0,6.8,3.9,10,11,10l0,0c4.4,0,10-3.2,10-10V201.5c0-2.9-1.5-5.5-4-7L264.9,65.1C260,62.3,253.9,62.3,249,65.1z"/>
</g>
</svg>
