<?xml version="1.0" encoding="utf-8"?>
<!-- Generator: Adobe Illustrator 18.1.1, SVG Export Plug-In . SVG Version: 6.00 Build 0)  -->
<svg version="1.1" id="Layer_1" xmlns="http://www.w3.org/2000/svg" xmlns:xlink="http://www.w3.org/1999/xlink" x="0px" y="0px"
	 viewBox="0 0 512 512" enable-background="new 0 0 512 512" xml:space="preserve">
<path d="M256,48C141.1,48,48,141.1,48,256c0,65.5,30.3,123.9,77.6,162.1l-0.6,1.1l8.3,4.8c34.4,25.2,76.8,40,122.7,40
	c114.9,0,208-93.1,208-208S370.9,48,256,48z M432.9,181.3c10,23.7,15.1,48.8,15.1,74.7c0,5.4-0.2,10.7-0.7,16H284.5l94.4-163.5
	c4.4,3.7,8.7,7.6,12.9,11.7C409.4,137.9,423.2,158.4,432.9,181.3z M237,257.1l9.9-17.1h18.7l9.4,16.4l-9,15.6h-20.4L237,257.1z
	 M330.7,79.1c12.5,5.3,24.3,11.9,35.4,19.6l-81.8,141.7l-95-164.5C210.6,68,233,64,256,64C281.9,64,307.1,69.1,330.7,79.1z
	 M120.2,120.2c15.9-15.9,34.1-28.7,54.2-38.1L256.4,224H66.7c2.5-14.7,6.6-28.9,12.4-42.7C88.8,158.4,102.6,137.9,120.2,120.2z
	 M120.2,391.8c-17.6-17.6-31.5-38.2-41.2-61C69.1,307.1,64,281.9,64,256c0-5.4,0.2-10.7,0.7-16h163.8l-94.7,164
	C129.1,400.2,124.6,396.1,120.2,391.8z M181.3,432.9c-12.3-5.2-23.9-11.6-34.7-19.1l81.2-140.7L322,436.3
	c-21.1,7.7-43.3,11.7-66,11.7C230.1,448,204.9,442.9,181.3,432.9z M391.8,391.8c-16,16-34.4,28.9-54.8,38.4L254.9,288h190.5
	c-2.5,14.7-6.6,28.9-12.4,42.7C423.2,353.6,409.4,374.1,391.8,391.8z"/>
</svg>
