<?xml version="1.0" encoding="utf-8"?>
<!-- Generator: Adobe Illustrator 22.0.1, SVG Export Plug-In . SVG Version: 6.00 Build 0)  -->
<svg version="1.1" id="Layer_1" xmlns="http://www.w3.org/2000/svg" xmlns:xlink="http://www.w3.org/1999/xlink" x="0px" y="0px"
	 viewBox="0 0 512 512" style="enable-background:new 0 0 512 512;" xml:space="preserve">
<g>
	<g>
		<g>
			<path d="M140.5,160v240c0,8.8,7.2,16,16,16h200c8.8,0,16-7.2,16-16V160c0-8.8-7.2-16-16-16h-200C147.7,144,140.5,151.2,140.5,160
				z"/>
			<path d="M321.5,81h-17c0-5.6-1-11-2.7-16c-2.1-6-5.3-11.4-9.4-16c-8.8-9.9-21.6-17-35.9-17s-27.1,7.1-35.9,17
				c-4.1,4.6-7.3,10-9.4,16c-1.7,5-2.7,10.4-2.7,16H194c-9.6,0-17.5,7.9-17.5,17.5V114c0,1.1,0.9,2,2,2h156c1.1,0,2-0.9,2-2V96
				C336.5,87.7,329.8,81,321.5,81z M258.6,96.5c-10.5,1.3-19.3-7.5-17.9-17.9c0.9-7.1,6.7-12.9,13.8-13.8
				c10.5-1.3,19.3,7.5,17.9,17.9C271.5,89.9,265.7,95.6,258.6,96.5z"/>
		</g>
	</g>
	<path d="M400,48h-75.2c-1.7,0-2.6,1.9-1.6,3.2c2.9,3.9,5.3,8.1,7,12.8c0.3,0.8,1,1.3,1.9,1.3h0.5c18.7,0,26.9,14.9,27.5,33.5l0,0
		v1.1V114c0,1.1,0.9,2,2,2h20.3c8.8,0,16,7.2,16,16v297.4c0,8.8-7.2,16-16,16h-253c-8.8,0-16-7.2-16-16V132c0-8.8,7.2-16,16-16h21.3
		c1.1,0,2-0.9,2-2v-8.8c0-19.1,5.6-36.7,27.6-36.7h0.3c0.9,0,1.8-0.6,1.9-1.6c1.5-6.9,4.1-11.7,7.2-15.8c1-1.3,0.1-3.2-1.6-3.2
		l-76.3-0.1C94.3,47.9,80,62.1,80,79.7V424c0,41.7,14.3,56,32,56h288.5c17.4,0,31.5-14.1,31.5-31.5V80C432,62.3,417.7,48,400,48z"/>
</g>
</svg>
