<?xml version="1.0" encoding="utf-8"?>
<!-- Generator: Adobe Illustrator 22.0.1, SVG Export Plug-In . SVG Version: 6.00 Build 0)  -->
<svg version="1.1" id="Layer_1" xmlns="http://www.w3.org/2000/svg" xmlns:xlink="http://www.w3.org/1999/xlink" x="0px" y="0px"
	 viewBox="0 0 512 512" style="enable-background:new 0 0 512 512;" xml:space="preserve">
<g>
	<path d="M315,204h72.6c6.6,0,12.3-5.2,12.4-11.8c0.1-6.7-5.3-12.2-12-12.2h-73c-6.7,0-12.1-5.5-12-12.2c0.1-6.6,5.8-11.8,12.4-11.8
		h76.5c4.5,0,8.2-3.7,8-8.2c-1.7-47.5-31.2-88.1-72.7-106c-5.3-2.3-11.2,1.6-11.2,7.3v35.5c0,6.6-5.2,12.3-11.8,12.4
		c-6.7,0.1-12.2-5.3-12.2-12V44c0-6.6-5.4-12-12-12l0,0c-6.6,0-12,5.4-12,12v56.6c0,6.6-5.2,12.3-11.8,12.4
		c-6.7,0.1-12.2-5.3-12.2-12V44c0-6.6-5.4-12-12-12h0c-6.6,0-12,5.4-12,12v40.6c0,6.6-5.2,12.3-11.8,12.4c-6.7,0.1-12.2-5.3-12.2-12
		V49.1c0-5.8-5.9-9.6-11.2-7.3c-41.5,17.9-71.1,58.6-72.7,106c-0.2,4.5,3.5,8.2,8,8.2h76.5c6.6,0,12.3,5.2,12.4,11.8
		c0.1,6.7-5.3,12.2-12,12.2h-72.6c-6.6,0-12.3,5.2-12.4,11.8c-0.1,6.7,5.3,12.2,12,12.2h72.6c6.6,0,12.3,5.2,12.4,11.8
		c0.1,6.7-5.3,12.2-12,12.2h-72.6c-6.6,0-12.3,5.2-12.4,11.8c-0.1,6.7,5.3,12.2,12,12.2h72.6c6.6,0,12.3,5.2,12.4,11.8
		c0.1,6.7-5.3,12.2-12,12.2h-76.9c-4.5,0-8.2,3.7-8,8.2c0.5,13.6,3.3,26.7,7.9,38.8c1.2,3.1,4.2,5,7.4,5h257.1c3.3,0,6.3-2,7.4-5
		c4.7-12.1,7.5-25.2,7.9-38.8c0.2-4.5-3.5-8.2-8-8.2h-76.5c-6.6,0-12.3-5.2-12.4-11.8c-0.1-6.7,5.3-12.2,12-12.2h72.6
		c6.6,0,12.3-5.2,12.4-11.8c0.1-6.7-5.3-12.2-12-12.2h-72.6c-6.6,0-12.3-5.2-12.4-11.8C302.9,209.5,308.3,204,315,204z"/>
	<path d="M141.5,358.6c19,22,45.2,37.2,75.4,40.8c4,0.5,7.1,3.9,7.1,7.9V448c0,17.7,14.3,32,32,32h0c17.7,0,32-14.3,32-32v-40.7
		c0-4.1,3.1-7.5,7.1-7.9c30.3-3.5,56.4-18.7,75.4-40.8c2.2-2.6,0.3-6.6-3.1-6.6H144.5C141.1,352,139.3,356,141.5,358.6z"/>
</g>
</svg>
