<?xml version="1.0" encoding="utf-8"?>
<!-- Generator: Adobe Illustrator 22.0.1, SVG Export Plug-In . SVG Version: 6.00 Build 0)  -->
<svg version="1.1" id="Layer_1" xmlns="http://www.w3.org/2000/svg" xmlns:xlink="http://www.w3.org/1999/xlink" x="0px" y="0px"
	 viewBox="0 0 512 512" style="enable-background:new 0 0 512 512;" xml:space="preserve">
<path d="M440.5,345.8L408.1,327c11.8-12.3,26-18.2,26.2-18.3c7.5-3,11.4-11.4,8.9-19.1c-1.9-5.9-7.4-9.8-13.5-9.8
	c-1.9,0-3.7,0.4-5.5,1.1c-1,0.4-24.4,10-41.9,31.2l-96.3-56l96.3-56c17.5,21.2,40.8,30.8,41.9,31.2c1.8,0.7,3.6,1.1,5.5,1.1
	c6.1,0,11.6-4,13.5-9.8c2.5-7.7-1.4-16.1-8.9-19.1c-0.1-0.1-14.3-6-26.2-18.3l32.4-18.8c7.2-4.2,9.6-13.4,5.5-20.6
	c-2.7-4.7-7.7-7.6-13.1-7.6c-2.6,0-5.3,0.7-7.6,2l-32.2,18.8c-4.5-16.2-2.7-31.4-2.6-32c1.1-8.1-4.1-15.6-12-17.3
	c-1-0.2-2-0.3-3-0.3c-7.1,0-13,5.2-14.1,12.4c-0.2,1.1-3.6,26,6.1,52.2l-96,56v-99.2c26.9-4.7,46.8-20.2,47.7-20.9
	c3.1-2.5,5.1-6,5.4-10c0.3-4-0.9-7.8-3.6-10.8c-2.9-3.2-7-5.1-11.4-5.1c-3.4,0-6.8,1.2-9.5,3.3c-0.1,0.1-12.2,9.4-28.6,13.6V63.1
	c0-8.2-7.1-15.1-15.5-15.1c-8.4,0-15.5,6.9-15.5,15.1v37.5c-16.3-4.2-28.4-13.5-28.6-13.6c-2.7-2.1-6-3.3-9.5-3.3
	c-4.4,0-8.5,1.9-11.4,5.1c-2.7,3-4,7-3.6,10.9c0.3,3.9,2.3,7.4,5.4,9.9c0.9,0.7,20.8,16.2,47.7,20.9v99.2l-96-56
	c9.6-26,6.2-51.1,6-52.2c-1-7.2-6.9-12.4-14-12.4c-1,0-2,0.1-3,0.3c-7.9,1.6-13.2,9.3-12,17.3c0,0.2,2,15.5-2.6,31.9L86.6,140
	c-2.3-1.3-4.9-2-7.6-2c-5.4,0-10.4,2.9-13.1,7.6c-4.1,7.2-1.7,16.5,5.5,20.6l32.4,18.8c-11.7,12.1-25.7,18.1-26.2,18.3
	c-7.5,3-11.4,11.4-8.9,19.1c1.9,5.9,7.4,9.8,13.5,9.8c1.9,0,3.7-0.4,5.5-1.1c1-0.4,24.4-10,41.9-31.2l96.3,56l-96.3,56
	c-17.5-21.2-40.8-30.8-41.9-31.2c-1.8-0.7-3.6-1.1-5.5-1.1c-6.1,0-11.6,4-13.5,9.8c-2.5,7.7,1.4,16,8.9,19.1
	c0.5,0.2,14.5,6.2,26.2,18.3l-32.4,18.8c-7.2,4.2-9.6,13.4-5.5,20.6c2.7,4.7,7.7,7.6,13.1,7.6c2.6,0,5.3-0.7,7.6-2l32.3-18.8
	c4.6,16.5,2.6,31.8,2.6,32c-1.2,8,4.1,15.7,12,17.3c1,0.2,2,0.3,3,0.3c7.1,0,13-5.2,14.1-12.4c0.2-1.1,3.6-26-6.1-52.2l96-56v99.2
	c-26.9,4.7-46.8,20.2-47.7,20.9c-3.1,2.5-5.1,6-5.4,10c-0.3,4,0.9,7.8,3.6,10.8c2.9,3.2,7,5.1,11.4,5.1c3.4,0,6.8-1.2,9.5-3.3
	c0.1-0.1,12.3-9.4,28.6-13.6v37.5c0,8.2,7.1,15.1,15.5,15.1c8.4,0,15.5-6.9,15.5-15.1v-37.5c16.3,4.2,28.4,13.5,28.6,13.6
	c2.7,2.1,6.1,3.3,9.5,3.3c4.4,0,8.5-1.9,11.4-5.1c2.7-3,4-7,3.6-10.9c-0.3-3.9-2.3-7.4-5.4-9.9c-0.9-0.7-20.8-16.2-47.7-20.9v-99.2
	l96,56c-9.6,26-6.2,51.1-6,52.2c1,7.2,6.9,12.4,14,12.4c1,0,2-0.1,3-0.3c7.9-1.6,13.1-9.2,12-17.3c-0.1-0.5-1.9-15.7,2.6-32
	l32.2,18.8c2.3,1.3,4.9,2,7.6,2c5.4,0,10.4-2.9,13.1-7.6C450.1,359.3,447.7,350,440.5,345.8z"/>
</svg>
