<?xml version="1.0" encoding="utf-8"?>
<!-- Generator: Adobe Illustrator 22.0.1, SVG Export Plug-In . SVG Version: 6.00 Build 0)  -->
<svg version="1.1" id="Layer_1" xmlns="http://www.w3.org/2000/svg" xmlns:xlink="http://www.w3.org/1999/xlink" x="0px" y="0px"
	 viewBox="0 0 512 512" style="enable-background:new 0 0 512 512;" xml:space="preserve">
<path d="M431.3,388.8c7.5-6.3,16.7-16.1,16.7-31.4c0-13.7-5.7-22.8-10.9-29.1c-0.6-1.2-1.1-2.3-1.6-3.4l-0.2-1.1
	c-0.7-3.5,0-7.1,2-10c3.4-5,5.8-12.3,5.8-25.7c0-11.6-4.8-18.4-9.7-23.2c-4.4-4.3-6.1-12.5-4.1-18.3c4.8-13.9,0.2-28.4-8.2-37.8
	c-10.5-11.8-20.3-13.2-46.4-11.7c-18,1.1-55.5,6.9-80.2,10.8c-10.1,1.6-18.9,3-21.6,3.2c-12.7,1.3-15.2,0-16.4-4.9
	c-0.5-2.1,1.9-6.9,4.9-13c4-8.1,9.5-19.2,14.5-35.8c10.1-33.2,9-69.2-2.7-90.2c-5.5-9.9-14.8-19.1-26.3-19.1
	c-11.5,0-23.3,2.4-27.9,7.9c-3.4,4-2.3,11.6-6.2,26.8c-3.1,12.4-7,30.9-12,42c-7.5,16.6-39.7,45.1-57,60.4
	c-4.1,3.6-7.6,6.7-10.1,9.1c-8.7,8.1-17.6,21.1-25.5,32.7c-5.4,7.8-10.4,15.2-13.7,18.5c-7.1,7.1-16.6,10.9-22.3,10.9
	c-4.4,0-8,3.6-8,8l0,159.5c0,4.6,3.7,8.3,8.3,8.3c35.5,0,50.5,5.8,66.4,11.8c12.2,4.7,24.9,9.5,46.4,12.1c32.4,4,74.2,8.1,112.6,8.1
	c20.4,0,39.9-2,56.6-3.9c31-3.6,64.2-10.8,75.2-37c4.1-9.7,2.2-17.6-0.5-23.7c-0.4-0.8-0.7-1.7-0.8-2.6
	C427.8,393.7,429,390.7,431.3,388.8z"/>
</svg>
