<?xml version="1.0" encoding="utf-8"?>
<!-- Generator: Adobe Illustrator 22.0.1, SVG Export Plug-In . SVG Version: 6.00 Build 0)  -->
<svg version="1.1" id="Layer_1" xmlns="http://www.w3.org/2000/svg" xmlns:xlink="http://www.w3.org/1999/xlink" x="0px" y="0px"
	 viewBox="0 0 512 512" style="enable-background:new 0 0 512 512;" xml:space="preserve">
<path d="M436.9,364.8c-14.7-14.7-50-36.8-67.4-45.1c-20.2-9.7-27.6-9.5-41.9,0.8c-11.9,8.6-19.6,16.6-33.3,13.6
	c-13.7-2.9-40.7-23.4-66.9-49.5c-26.2-26.2-46.6-53.2-49.5-66.9c-2.9-13.8,5.1-21.4,13.6-33.3c10.3-14.3,10.6-21.7,0.8-41.9
	C184,125,162,89.8,147.2,75.1c-14.7-14.7-18-11.5-26.1-8.6c0,0-12,4.8-23.9,12.7c-14.7,9.8-22.9,18-28.7,30.3
	c-5.7,12.3-12.3,35.2,21.3,95c27.1,48.3,53.7,84.9,93.2,124.3v0c0,0,0,0,0.1,0.1c0,0,0,0,0.1,0.1l0,0c39.5,39.5,76,66.1,124.3,93.2
	c59.8,33.6,82.7,27,95,21.3c12.3-5.7,20.5-13.9,30.3-28.7c7.9-11.9,12.7-23.9,12.7-23.9C448.4,382.8,451.7,379.5,436.9,364.8z"/>
</svg>
