<?xml version="1.0" encoding="utf-8"?>
<!-- Generator: Adobe Illustrator 18.1.1, SVG Export Plug-In . SVG Version: 6.00 Build 0)  -->
<svg version="1.1" id="Layer_1" xmlns="http://www.w3.org/2000/svg" xmlns:xlink="http://www.w3.org/1999/xlink" x="0px" y="0px"
	 viewBox="0 0 512 512" enable-background="new 0 0 512 512" xml:space="preserve">
<g>
	<polygon points="92,80 192,80 192,64 64,64 64,192 80,192 80,92 212.9,224 224,212.9 	"/>
	<polygon points="420,80 320,80 320,64 448,64 448,192 432,192 432,92 299.1,224 288,212.9 	"/>
	<polygon points="92,432 192,432 192,448 64,448 64,320 80,320 80,420 212.9,288 224,299.1 	"/>
	<polygon points="420,432 320,432 320,448 448,448 448,320 432,320 432,420 299.1,288 288,299.1 	"/>
</g>
</svg>
