<?xml version="1.0" encoding="utf-8"?>
<!-- Generator: Adobe Illustrator 18.1.1, SVG Export Plug-In . SVG Version: 6.00 Build 0)  -->
<svg version="1.1" id="Layer_1" xmlns="http://www.w3.org/2000/svg" xmlns:xlink="http://www.w3.org/1999/xlink" x="0px" y="0px"
	 viewBox="0 0 512 512" enable-background="new 0 0 512 512" xml:space="preserve">
<g id="Dark">
	<g id="iPad_1_">
		<path id="iPad_Air_2_1_" d="M402,32H110c-7.8,0-14,6.1-14,14V466c0,7.9,6.2,14,14,14H402c7.8,0,14-6.1,14-14V46
			C416,38.1,409.7,32,402,32z M255.6,48.7c3.9,0,7,3.1,7,7c0,3.9-3.1,7-7,7c-3.9,0-7-3.1-7-7C248.6,51.9,251.8,48.7,255.6,48.7z
			 M256,470c-7.7,0-14-6.5-14-14.1c0-7.5,6.2-14,14-14c7.7,0,14.1,6.4,14.1,14C270,463.5,263.7,470,256,470z M400,432H112V80h288
			V432z"/>
	</g>
</g>
</svg>
