<?xml version="1.0" encoding="utf-8"?>
<!-- Generator: Adobe Illustrator 22.0.1, SVG Export Plug-In . SVG Version: 6.00 Build 0)  -->
<svg version="1.1" id="Layer_1" xmlns="http://www.w3.org/2000/svg" xmlns:xlink="http://www.w3.org/1999/xlink" x="0px" y="0px"
	 viewBox="0 0 512 512" style="enable-background:new 0 0 512 512;" xml:space="preserve">
<g>
	<path d="M60,256c0-51,18.6-97.9,54-135.6c5.3-5.7,5.2-14.8-0.4-20.3c-2.6-2.6-6.1-4.1-9.7-4.1c-3.8,0-7.4,1.6-10.1,4.4
		C53.3,143.7,32,197.4,32,256c0,58.5,21.3,112.3,61.7,155.5c2.7,2.9,6.3,4.5,10.2,4.5c3.6,0,7.1-1.4,9.7-3.9c2.7-2.6,4.3-6.2,4.4-10
		c0.1-3.9-1.3-7.6-4-10.3C78.6,353.9,60,307,60,256z"/>
	<path d="M418.2,100.4c-2.6-2.8-6.2-4.4-10-4.4h0c-3.6,0-7.1,1.4-9.7,3.9c-2.7,2.6-4.3,6.2-4.4,10c-0.1,3.9,1.3,7.6,4,10.3
		c35.3,37.8,54,84.7,54,135.7s-18.6,97.9-54,135.7c-5.3,5.6-5.2,14.7,0.3,20.2c2.5,2.6,6,4,9.7,4c3.9,0,7.6-1.6,10.2-4.6
		C458.7,368.2,480,314.5,480,256C480,197.5,458.7,143.6,418.2,100.4z"/>
	<path d="M159.2,347.7L159.2,347.7c-24.1-24.3-37.3-56.6-37.3-90.9c0-35,13.8-67.9,38.8-92.4c5.5-5.3,5.6-14.2,0.2-19.8
		c-2.6-2.7-6.2-4.2-10-4.2h0c-3.7,0-7.2,1.4-9.8,4c-30.4,29.8-47.1,69.7-47.1,112.4c0,41.6,16.1,80.9,45.3,110.6l0,0l0,0
		c2.7,2.7,6.2,4.2,9.9,4.2c3.7,0,7.2-1.5,9.8-4.2c2.6-2.6,4.1-6.1,4.1-9.8C163.3,353.9,161.9,350.4,159.2,347.7L159.2,347.7z"/>
	<path d="M371,144.5c-2.6-2.6-6-4-9.8-4h0c-3.8,0-7.3,1.5-10,4.1c-5.4,5.4-5.4,14.3,0.1,19.8l0,0l0,0c25,24.5,38.7,56.5,38.7,91.5
		c0,34.2-13.1,67.4-37.1,91.8c-5.4,5.4-5.3,14.3,0.1,19.7c2.6,2.6,6.2,4.1,9.8,4.1c3.8,0,7.4-1.5,9.9-4.1
		C402,337.7,418,297.6,418,256C418,213.5,401.3,174.5,371,144.5z"/>
	<path d="M207.1,183.4c-2.6-2.7-6.2-4.2-10-4.2h0c-3.7,0-7.2,1.4-9.8,4.1c-19.8,19.5-30.8,45.6-30.8,73.3
		c0,27.1,10.5,52.7,29.5,72.1c2.7,2.7,6.2,4.2,10,4.2c3.7,0,7.2-1.4,9.8-4c2.7-2.6,4.2-6.1,4.2-9.9c0-3.8-1.4-7.3-4.1-10
		c-13.8-14-21.4-32.6-21.4-52.5c0-20.3,8-39.2,22.4-53.4C212.3,197.9,212.4,189,207.1,183.4z"/>
	<path d="M325.7,183.2c-2.6-2.6-6-4-9.8-4h0c-3.8,0-7.3,1.5-10,4.1c-5.4,5.4-5.4,14.3,0.1,19.8c14.5,14.3,22.4,33.3,22.4,53.5
		c0,19.8-7.6,38.5-21.5,52.5c-2.6,2.6-4.1,6.2-4,9.9c0,3.7,1.5,7.2,4.1,9.8c2.6,2.6,6.2,4.1,9.8,4.1c3.7,0,7.3-1.5,9.9-4.2
		c19.1-19.4,29.6-45,29.6-72.1C356.4,228.8,345.5,202.8,325.7,183.2z"/>
	<path d="M256,218c-21,0-38,17-38,38c0,21,17,38,38,38c21,0,38-17,38-38C294,235,276.9,218,256,218z"/>
</g>
</svg>
