<?xml version="1.0" encoding="utf-8"?>
<!-- Generator: Adobe Illustrator 22.0.1, SVG Export Plug-In . SVG Version: 6.00 Build 0)  -->
<svg version="1.1" id="Layer_1" xmlns="http://www.w3.org/2000/svg" xmlns:xlink="http://www.w3.org/1999/xlink" x="0px" y="0px"
	 viewBox="0 0 512 512" style="enable-background:new 0 0 512 512;" xml:space="preserve">
<g>
	<path d="M390.1,464c-4.9,0-9.7-2.5-12.3-7L149.7,69.3c-4-6.7-1.7-15.4,5.1-19.3c6.8-3.9,15.5-1.7,19.5,5.1l228.1,387.7
		c4,6.7,1.7,15.4-5.1,19.3C395.1,463.4,392.6,464,390.1,464z"/>
	<g>
		<path d="M133,200H80c-8.9,0-16,7.2-16,16v80c0,8.8,7.2,16,16,16H133l65.4,52.5c2.9,2.3,6.5,3.5,10.1,3.5c2.4,0,4.7-0.5,6.9-1.6
			c5.6-2.7,9.1-8.3,9.1-14.4V227.9l-40.5-68.8L133,200z"/>
		<path d="M448,256C448,256,448,256,448,256c0-59.3-23.3-114.9-65.5-156.5c-4.7-4.7-12.3-4.6-17,0.1c-4.7,4.7-4.6,12.3,0.1,17
			c37.7,37.1,58.4,86.6,58.4,139.4c0,0,0,0,0,0s0,0,0,0c0,44.4-14.7,86.4-41.7,120.8l13,22C429.4,359.1,448,309,448,256
			C448,256,448,256,448,256z"/>
		<path d="M385.2,256C385.2,256,385.2,256,385.2,256C385.2,256,385.2,256,385.2,256c0-43.5-16.7-84.3-46.9-114.9
			c-4.7-4.7-12.3-4.8-17-0.1c-4.7,4.7-4.8,12.3-0.1,17c25.8,26.1,40,60.9,40,98.1c0,0,0,0,0,0s0,0,0,0c0,21.6-4.8,42.5-13.9,61.2
			l14.2,24.1C376.9,316,385.2,286.7,385.2,256z"/>
		<path d="M317.6,256C317.6,256,317.6,256,317.6,256C317.6,256,317.6,256,317.6,256c0-27.8-10.7-53.9-30-73.4
			c-4.7-4.7-12.3-4.8-17-0.1c-0.6,0.6-1.1,1.2-1.6,1.9l48.1,81.8C317.4,262.8,317.6,259.4,317.6,256z"/>
	</g>
</g>
</svg>
