<?xml version="1.0" encoding="utf-8"?>
<!-- Generator: Adobe Illustrator 22.0.1, SVG Export Plug-In . SVG Version: 6.00 Build 0)  -->
<svg version="1.1" id="Layer_1" xmlns="http://www.w3.org/2000/svg" xmlns:xlink="http://www.w3.org/1999/xlink" x="0px" y="0px"
	 viewBox="0 0 512 512" style="enable-background:new 0 0 512 512;" xml:space="preserve">
<path d="M453.5,209.8c-4-4-158.3-161.4-158.3-161.4C284.8,37.8,270.9,32,256,32c-14.9,0-28.8,5.8-39.2,16.5
	c0,0-153.6,156.5-158.3,161.4C53.9,214.7,48,224.7,48,236c0,8.3,0,212,0,212c0,17.6,14.4,32,32,32h352c17.6,0,32-14.4,32-32
	c0,0,0-206,0-213C464,223.3,457.4,213.9,453.5,209.8z M434.1,252.1L353,336.9c-0.8,0.8-0.8,2,0,2.8l75.3,80.2
	c5.1,5.1,5.1,13.3,0,18.4c-2.5,2.5-5.9,3.8-9.2,3.8s-6.7-1.3-9.2-3.8L258.9,277.1c-1.6-1.7-4.3-1.7-5.8,0L102.2,438.2
	c-2.5,2.5-5.9,3.8-9.2,3.8s-6.7-1.3-9.2-3.8c-5.1-5.1-5.1-13.3,0-18.4l75.3-80.2c0.7-0.8,0.7-2,0-2.8L77.7,252
	c-9.7-9.9-2.4-35.8,16.1-35.8c18.5,0,307.9,0,324.4,0C434.7,216.1,443.8,242.3,434.1,252.1z"/>
</svg>
