<?xml version="1.0" encoding="utf-8"?>
<!-- Generator: Adobe Illustrator 22.0.1, SVG Export Plug-In . SVG Version: 6.00 Build 0)  -->
<svg version="1.1" id="Layer_1" xmlns="http://www.w3.org/2000/svg" xmlns:xlink="http://www.w3.org/1999/xlink" x="0px" y="0px"
	 viewBox="0 0 512 512" style="enable-background:new 0 0 512 512;" xml:space="preserve">
<path d="M442,248.9c-15.7-20.6-37.7-35.9-62.1-43.6c1-6.3,1.4-12.7,1.4-19.1c0-33.7-13-65.4-36.7-89.2C321,73.1,289.5,60,256,60
	s-65,13.1-88.6,37c-23.7,23.8-36.7,55.5-36.7,89.2c0,6.4,0.5,12.8,1.4,19.1c-24.5,7.7-46.4,23.1-62.1,43.6c-17,22.2-26,48.8-26,76.9
	c0,33.7,13,65.4,36.7,89.2c23.7,23.8,55.2,37,88.6,37c32.6,0,63.2-12.4,86.7-35c23.4,22.6,54.1,35,86.7,35c33.5,0,65-13.1,88.6-37
	c23.7-23.8,36.7-55.5,36.7-89.2C468,297.7,459,271.1,442,248.9z M256,85.5c55.1,0,100,45.2,100,100.7c0,4.7-0.3,9.4-1,14.1
	c-4.1-0.4-8.2-0.6-12.4-0.6c-32.6,0-63.2,12.4-86.7,35c-23.4-22.6-54.1-35-86.7-35c-4.1,0-8.3,0.2-12.4,0.6c-0.6-4.6-1-9.4-1-14.1
	C156,130.6,200.9,85.5,256,85.5z M256,286.9c-1.8,0-3.7-0.1-5.5-0.2c1.6-3.8,3.4-7.5,5.5-11.1c2.1,3.6,3.9,7.3,5.5,11.1
	C259.7,286.9,257.8,286.9,256,286.9z M209.4,418.1c-12.7,5.6-26.1,8.4-40.1,8.4c-55.1,0-100-45.2-100-100.7
	c0-22.3,7.1-43.5,20.6-61.2c12.3-16.1,29.4-28.3,48.5-34.6c6.6,17.9,17.3,34.3,31.2,47.6c13.9,13.4,30.9,23.4,49.2,29.1
	c-1,6.3-1.4,12.7-1.4,19.1c0,25.8,7.7,50.6,22.2,71.7C230.8,406.2,220.6,413.1,209.4,418.1z M225.1,282c-27.6-9-50-29.8-61.3-56.7
	c1.8-0.1,3.7-0.2,5.5-0.2c13.9,0,27.4,2.8,40.1,8.4c11.2,5,21.4,11.9,30.1,20.6C233.6,262.8,228.7,272.1,225.1,282z M256,376
	c-8.7-15.2-13.3-32.5-13.3-50.2c0-4.7,0.3-9.4,1-14.1c4.1,0.4,8.2,0.6,12.4,0.6c4.1,0,8.3-0.2,12.4-0.6c0.6,4.6,1,9.4,1,14.1
	C269.3,343.5,264.7,360.8,256,376z M302.6,233.5c12.7-5.6,26.1-8.4,40.1-8.4c1.8,0,3.7,0.1,5.5,0.2c-11.3,26.9-33.7,47.7-61.3,56.7
	c-3.6-9.8-8.5-19.2-14.4-27.9C281.2,245.4,291.4,238.5,302.6,233.5z M342.7,426.5c-13.9,0-27.4-2.8-40.1-8.4
	c-11.2-5-21.4-11.9-30.1-20.6c14.5-21.1,22.2-45.8,22.2-71.7c0-6.4-0.5-12.8-1.4-19.1c18.3-5.7,35.2-15.7,49.2-29.1
	c13.8-13.3,24.5-29.6,31.2-47.6c19.1,6.3,36.2,18.4,48.5,34.6c13.5,17.7,20.6,38.9,20.6,61.2C442.7,381.4,397.8,426.5,342.7,426.5z"
	/>
</svg>
