<?xml version="1.0" encoding="utf-8"?>
<!-- Generator: Adobe Illustrator 18.1.1, SVG Export Plug-In . SVG Version: 6.00 Build 0)  -->
<svg version="1.1" id="Layer_1" xmlns="http://www.w3.org/2000/svg" xmlns:xlink="http://www.w3.org/1999/xlink" x="0px" y="0px"
	 viewBox="0 0 512 512" enable-background="new 0 0 512 512" xml:space="preserve">
<g>
	<g>
		<polygon points="144,416 368,416 368,144 352,144 352,176 160,176 160,144 144,144 		"/>
		<path d="M320.8,96H304c0-5.6-1-11-2.7-16c-2.1-6-5.3-11.4-9.4-16c-8.8-9.9-21.6-16-35.9-16s-27.1,6.1-35.9,16
			c-4.1,4.6-7.3,10-9.4,16c-1.7,5-2.7,10.4-2.7,16h-14.5c-8.8,0-17.5,6.2-17.5,15v49h160v-49C336,102.2,329.6,96,320.8,96z
			 M256,111.7c-8.8,0-16-7.2-16-16c0-8.8,7.2-16,16-16s16,7.2,16,16C272,104.5,264.8,111.7,256,111.7z"/>
	</g>
</g>
<g>
	<path d="M352,111c0,0.3,0,0.7,0,1L352,111L352,111z"/>
	<path d="M400,64h-92.1c4.1,4.6,7.3,10,9.4,16l0.1,0.1c0.8-0.1,1.7-0.1,2.6-0.1c17.3,0,31.4,13.8,32,31l0,0v1v16h32v304H128V128h32
		v-11c0-17.7,11.7-34,32-34c0.4,0,0.9,0,1.3,0c0.5,0,0.9,0,1.4,0c1.7-9,5.3-14.4,9.4-19H112c-8.8,0-16,7.2-16,16v368
		c0,8.8,7.2,16,16,16h288c8.8,0,16-7.2,16-16V80C416,71.2,408.8,64,400,64z"/>
</g>
</svg>
