<?xml version="1.0" encoding="utf-8"?>
<!-- Generator: Adobe Illustrator 18.1.1, SVG Export Plug-In . SVG Version: 6.00 Build 0)  -->
<svg version="1.1" id="Layer_1" xmlns="http://www.w3.org/2000/svg" xmlns:xlink="http://www.w3.org/1999/xlink" x="0px" y="0px"
	 viewBox="0 0 512 512" enable-background="new 0 0 512 512" xml:space="preserve">
<g>
	<path d="M273,340.9l-67.9,67.9c-13.5,13.5-31.6,21-50.9,21c-19.3,0-37.4-7.4-50.9-21c-13.5-13.5-21-31.6-21-50.9
		c0-19.3,7.4-37.4,21-50.9l67.9-67.9c3.4-3.4,7.2-6.5,11.3-9.2c4.6-3,9.5-5.5,14.7-7.4c4.8-1.8,9.8-3,14.9-3.7
		c3.4-0.5,6.8-0.7,10.1-0.7c1.4,0,2.8,0.1,4.6,0.2c17.5,1.1,34,8.5,46.3,20.8c10.8,10.8,17.8,24.8,20.1,39.8
		c2.3-0.1,8.2-0.5,16.2-2.9s13.4-6.3,13.4-6.3c-3.3-21.2-11.6-37.8-27.1-53.2c-15.4-15.4-35.5-25.6-57-29c-1.9-0.3-3.7-0.6-5.6-0.8
		c-3.6-0.4-7.3-0.6-11-0.6c-2.5,0-5.1,0.1-7.7,0.3c-5.4,0.4-10.7,1.2-16,2.4c-1.1,0.2-2.1,0.5-3.2,0.8c-6.7,1.8-13.2,4.2-19.3,7.2
		c-10.1,5-19.4,11.6-27.4,19.6l-67.9,67.9c-19.6,19.6-30.3,45.7-30.3,73.5s10.8,54,30.3,73.5c19.6,19.6,45.7,30.3,73.5,30.3
		c27.9,0,54-10.8,73.5-30.3l67.9-67.9c7.2-7.2,13.2-15.4,18-24.3c0,0-11.2,2.7-23.6,2.7S273,340.9,273,340.9z"/>
	<path d="M431.4,80.6c-19.6-19.6-45.7-30.3-73.5-30.3s-54,10.8-73.5,30.3l-67.9,67.9c-7.2,7.2-13.2,15.4-18,24.3c0,0,0,0,0,0
		c5.2-1.2,15.3-2.4,24-2.4s16.2,1.1,16.2,1.1l68.3-68.1c13.5-13.5,31.6-21,50.9-21s37.4,7.4,50.9,21c13.5,13.5,21,31.6,21,50.9
		c0,19.3-7.4,37.4-21,50.9L340.9,273c-3.4,3.4-7.2,6.5-11.3,9.2c-4.6,3-9.5,5.5-14.7,7.4c-4.8,1.7-9.8,3-14.9,3.7
		c-3.4,0.5-6.8,0.7-10.1,0.7c-1.4,0-2.8-0.1-4.6-0.2c-17.5-1.1-34-8.5-46.3-20.8c-10.6-10.6-17.5-24.2-19.9-38.8
		c0,0-6.6-0.5-15.7,2.3c-5.7,1.7-11.6,4.2-14.2,5.5c3,21.5,11.4,37.7,27.1,53.5l0,0l0.2,0.2c16.7,16.7,39,27.3,62.6,29.8
		c3.6,0.4,7.3,0.6,11,0.6c2.6,0,5.1-0.1,7.7-0.3c6.4-0.5,12.9-1.5,19.1-3.2c6.7-1.8,13.2-4.2,19.3-7.2c10.1-5,19.4-11.6,27.4-19.6
		l67.9-67.9c19.6-19.6,30.3-45.7,30.3-73.5S450.9,100.2,431.4,80.6z"/>
</g>
</svg>
