<?xml version="1.0" encoding="utf-8"?>
<!-- Generator: Adobe Illustrator 22.0.1, SVG Export Plug-In . SVG Version: 6.00 Build 0)  -->
<svg version="1.1" id="Layer_1" xmlns="http://www.w3.org/2000/svg" xmlns:xlink="http://www.w3.org/1999/xlink" x="0px" y="0px"
	 viewBox="0 0 512 512" style="enable-background:new 0 0 512 512;" xml:space="preserve">
<g>
	<g>
		<g>
			<path d="M381.2,64.1c-1.3-0.1-2.6-0.1-3.9-0.1l-0.2,0c-16.2,0-32,5.4-44.6,15.1c-1.6,1.3-2.6,3.2-2.7,5.2c-0.1,2,0.8,4,2.3,5.4
				l89.8,80.5c1.3,1.1,2.9,1.8,4.6,1.8c0.1,0,0.3,0,0.4,0c1.9-0.1,3.6-1,4.8-2.4C440.9,159,448,150.8,448,133
				C448.1,96.6,418.9,66.2,381.2,64.1z"/>
		</g>
		<g>
			<path d="M64,133c0,17.8,7.1,26,16.3,36.6c1.2,1.4,2.9,2.3,4.8,2.4c0.1,0,0.3,0,0.4,0c1.7,0,3.3-0.6,4.6-1.8L180,89.7
				c1.5-1.4,2.4-3.3,2.3-5.4c-0.1-2-1-3.9-2.7-5.2C167,69.4,151.2,64,135,64l-0.2,0c-1.3,0-2.6,0-3.9,0.1
				C93.2,66.2,63.9,96.6,64,133z"/>
		</g>
	</g>
	<g>
		<g>
			<path d="M390,386c26.2-30.7,42-70.5,42-114c0-97.2-78.8-176-176-176S80,174.8,80,272c0,43.5,15.8,83.3,42,114l-34.7,35.5
				c-6.2,6.3-6,15.5,0.3,21.6c3.1,3,7.4,4.8,11.4,4.8c4.2,0,8.1-1.9,11.2-5.1l34.6-34.5c30.3,24.7,69,39.6,111.2,39.6
				s80.9-14.8,111.2-39.6l33.6,34.5c3.1,3.2,7.3,5.1,11.5,5.1c4,0,8.1-1.8,11.2-4.8c6.3-6.2,7.5-15.3,1.3-21.6L390,386z M270,274
				c0,7.7-6.3,14-14,14h-82c-7.7,0-14-6.3-14-14s6.3-14,14-14h68V158c0-7.7,6.3-14,14-14s14,6.3,14,14V274z"/>
		</g>
	</g>
</g>
</svg>
