<?xml version="1.0" encoding="utf-8"?>
<!-- Generator: Adobe Illustrator 22.0.1, SVG Export Plug-In . SVG Version: 6.00 Build 0)  -->
<svg version="1.1" id="Layer_1" xmlns="http://www.w3.org/2000/svg" xmlns:xlink="http://www.w3.org/1999/xlink" x="0px" y="0px"
	 viewBox="0 0 512 512" style="enable-background:new 0 0 512 512;" xml:space="preserve">
<g>
	<path d="M368.5,240H272v-96.5c0-8.8-7.2-16-16-16c-8.8,0-16,7.2-16,16V240h-96.5c-8.8,0-16,7.2-16,16c0,4.4,1.8,8.4,4.7,11.3
		c2.9,2.9,6.9,4.7,11.3,4.7H240v96.5c0,4.4,1.8,8.4,4.7,11.3c2.9,2.9,6.9,4.7,11.3,4.7c8.8,0,16-7.2,16-16V272h96.5
		c8.8,0,16-7.2,16-16C384.5,247.2,377.3,240,368.5,240z"/>
</g>
</svg>
