<?xml version="1.0" encoding="utf-8"?>
<!-- Generator: Adobe Illustrator 22.0.1, SVG Export Plug-In . SVG Version: 6.00 Build 0)  -->
<svg version="1.1" id="Layer_1" xmlns="http://www.w3.org/2000/svg" xmlns:xlink="http://www.w3.org/1999/xlink" x="0px" y="0px"
	 viewBox="0 0 512 512" style="enable-background:new 0 0 512 512;" xml:space="preserve">
<path d="M407.7,224c-3.4,0-14.8,0.1-18,0.3l-64.9,1.7c-0.7,0-1.4-0.3-1.7-0.9L225.8,79.4c-2.9-4.6-8.1-7.4-13.5-7.4h-23.7
	c-5.6,0-7.5,5.6-5.5,10.8l50.1,142.8c0.5,1.3-0.4,2.7-1.8,2.7l-122.4,1.8c-2.6,0.1-5-1.1-6.6-3.1l-37-45c-3-3.9-7.7-6.1-12.6-6.1H36
	c-2.8,0-4.7,2.7-3.8,5.3l19.9,68.7c1.5,3.8,1.5,8.1,0,11.9l-19.9,68.7c-0.9,2.6,1,5.3,3.8,5.3h16.7c4.9,0,9.6-2.3,12.6-6.1L103,284
	c1.6-2,4.1-3.2,6.6-3.1l121.7,2.7c1.4,0.1,2.3,1.4,1.8,2.7L183,429.2c-2,5.2-0.1,10.8,5.5,10.8h23.7c5.5,0,10.6-2.8,13.5-7.4
	L323.1,287c0.4-0.6,1-0.9,1.7-0.9l64.9,1.7c3.3,0.2,14.6,0.3,18,0.3c44.3,0,72.3-14.3,72.3-32S452.1,224,407.7,224z"/>
</svg>
