<?xml version="1.0" encoding="utf-8"?>
<!-- Generator: Adobe Illustrator 22.0.1, SVG Export Plug-In . SVG Version: 6.00 Build 0)  -->
<svg version="1.1" id="Layer_1" xmlns="http://www.w3.org/2000/svg" xmlns:xlink="http://www.w3.org/1999/xlink" x="0px" y="0px"
	 viewBox="0 0 512 512" style="enable-background:new 0 0 512 512;" xml:space="preserve">
<g>
	<path d="M423.8,426.8L56.3,65.1c-5.6-5.5-14.6-5.5-20.1,0.1c-5.5,5.5-5.5,14.5,0,20l367.5,361.7c3.7,3.7,9,4.9,13.7,3.6
		c2.4-0.6,4.6-1.9,6.4-3.7C429.4,441.3,429.4,432.3,423.8,426.8z"/>
	<g>
		<path d="M64,169c0,37,15.2,89.5,46.8,132.7C171,384,272,456,272,456s29.3-20.3,65.7-51.6L68,139C65.4,148.6,64,158.6,64,169z"/>
		<path d="M434.2,301.7C465.8,258.5,480,206,480,169c0-62.1-50.1-112.4-112-113c0,0,0,0,0,0c0,0,0,0,0,0c-0.3,0-0.7,0-1,0
			c-39.7,0-74.8,21-95,52c-20.2-31-55.3-52-95-52c-0.3,0-0.7,0-1,0c0,0,0,0,0,0c0,0,0,0,0,0c-29.2,0.3-55.8,11.6-75.7,30
			l281.9,277.4C401.5,344.3,418.4,323.4,434.2,301.7z"/>
	</g>
</g>
</svg>
