<?xml version="1.0" encoding="utf-8"?>
<!-- Generator: Adobe Illustrator 18.1.1, SVG Export Plug-In . SVG Version: 6.00 Build 0)  -->
<svg version="1.1" id="Layer_1" xmlns="http://www.w3.org/2000/svg" xmlns:xlink="http://www.w3.org/1999/xlink" x="0px" y="0px"
	 viewBox="0 0 512 512" enable-background="new 0 0 512 512" xml:space="preserve">
<g>
	<polygon points="196,208 96,208 96,224 224,224 224,96 208,96 208,196 75.1,64 64,75.1 	"/>
	<polygon points="316,208 416,208 416,224 288,224 288,96 304,96 304,196 436.9,64 448,75.1 	"/>
	<polygon points="196,304 96,304 96,288 224,288 224,416 208,416 208,316 75.1,448 64,436.9 	"/>
	<polygon points="316,304 416,304 416,288 288,288 288,416 304,416 304,316 436.9,448 448,436.9 	"/>
</g>
</svg>
