<?xml version="1.0" encoding="utf-8"?>
<!-- Generator: Adobe Illustrator 22.0.1, SVG Export Plug-In . SVG Version: 6.00 Build 0)  -->
<svg version="1.1" id="Layer_1" xmlns="http://www.w3.org/2000/svg" xmlns:xlink="http://www.w3.org/1999/xlink" x="0px" y="0px"
	 viewBox="0 0 512 512" style="enable-background:new 0 0 512 512;" xml:space="preserve">
<g>
	<g>
		<path d="M404,160H108c-33.1,0-60,26.9-60,60v168c0,33.1,26.9,60,60,60h296c33.1,0,60-26.9,60-60V220C464,186.9,437.1,160,404,160z
			"/>
	</g>
	<path d="M342.9,65L108,110.9c-18,4-44,22.1-44,44.1c0,0,15-19,49-19l287,0v-20.5c0-12.6-5-28.7-13.9-37.6l0,0
		C374.8,66.6,358.6,61.7,342.9,65z"/>
</g>
</svg>
