<?xml version="1.0" encoding="utf-8"?>
<!-- Generator: Adobe Illustrator 22.0.1, SVG Export Plug-In . SVG Version: 6.00 Build 0)  -->
<svg version="1.1" id="Layer_1" xmlns="http://www.w3.org/2000/svg" xmlns:xlink="http://www.w3.org/1999/xlink" x="0px" y="0px"
	 viewBox="0 0 512 512" style="enable-background:new 0 0 512 512;" xml:space="preserve">
<path d="M433,288.8c-7.7,0-14.3,5.9-14.9,13.6c-6.9,83.1-76.8,147.9-161.8,147.9c-89.5,0-162.4-72.4-162.4-161.4
	c0-87.6,70.6-159.2,158.2-161.4c2.3-0.1,4.1,1.7,4.1,4v50.3c0,12.6,13.9,20.2,24.6,13.5L377,128c10-6.3,10-20.8,0-27.1l-96.1-66.4
	c-10.7-6.7-24.6,0.9-24.6,13.5v45.7c0,2.2-1.7,4-3.9,4C148,99.8,64,184.6,64,288.9C64,394.5,150.1,480,256.3,480
	c100.8,0,183.4-76.7,191.6-175.1C448.7,296.2,441.7,288.8,433,288.8L433,288.8z"/>
</svg>
