<?xml version="1.0" encoding="utf-8"?>
<!-- Generator: Adobe Illustrator 18.1.1, SVG Export Plug-In . SVG Version: 6.00 Build 0)  -->
<svg version="1.1" id="Layer_1" xmlns="http://www.w3.org/2000/svg" xmlns:xlink="http://www.w3.org/1999/xlink" x="0px" y="0px"
	 viewBox="0 0 512 512" enable-background="new 0 0 512 512" xml:space="preserve">
<g>
	<path d="M267.2,202C267.2,202,267.2,202,267.2,202c-7,0-14.9,1.3-23.3,2.9c-11.9,2.3-20,7.1-20,7.1s3.5,27.3,0,58.5
		c-3.5,31.2-8,42.5-8,42.5s5.2,12.1,40,15c3.9,0.3,7.6,0.5,11,0.5c24.5,0,36.4-7.3,36.4-7.3s3.6-5.4,4.6-22.2
		c1.9-32.1-6.7-68.4-16.5-85.5C286.6,204.9,278,202,267.2,202z M291.9,298c-0.3,5.1-0.9,8.7-1.4,11.1c-4.5,1.5-12.3,3.3-23.6,3.3
		c-3.1,0-6.4-0.1-9.7-0.4c-11.9-1-19-3.1-23.1-4.8c1.7-7.4,3.9-18.8,5.7-34.9c2.2-20.1,1.8-38.5,1.1-50c1.8-0.6,3.9-1.1,6.1-1.5
		c6.1-1.2,13.8-2.5,20.2-2.5v0l0,0h0c8.4,0,9.7,2.2,10.3,3.3c4.1,7.1,8.1,19.3,10.9,32.4C291.5,268.9,292.7,284.6,291.9,298z"/>
	<path d="M84.4,112C57.9,112,32,180.5,32,256s23,144,51.5,144c33.4,0,116.5-80,116.5-80s5.7-12.6,9.9-33.6l1.8-10.4
		c0.7-4.7,1.3-9.7,1.7-15c0.3-3.5,0.5-6.8,0.6-9.9l0.3-9.8c0.8-16-2.5-32.6-2.5-32.6C189.7,168.5,119.5,112,84.4,112z M144.2,347.5
		C100.9,382.2,86.1,384,83.5,384c-3.2,0-12.6-8.1-21.3-33c-9-25.7-14.2-60.3-14.2-95c0-33,5.3-66.9,14.6-92.9
		c9.9-27.7,19.8-34.8,21.8-35.1c3.3,0,11,1,24.5,7.8c10.6,5.3,22.4,12.9,34.3,22.2c23.1,17.9,43.3,39.3,53.2,56.3
		c0.7,4.1,1.9,13.1,1.9,22.2c-8.1-3.5-20.9-7.9-38.7-11.4c-28-5.5-42.4-3.1-43-3c-0.9,0.2-1.6,1-1.7,1.9c0,1,0.7,1.8,1.6,2
		c0.2,0,18.8,3.8,56.9,16.9c8.5,2.9,14.3,5,19,6.7c2,0.7,3.7,1.3,5.4,1.9c-0.1,2.8-0.3,5.5-0.5,8.3c-0.4,4.5-0.9,9.2-1.5,13.7
		l-0.5,2.8c-5.5,2-13.1,4.5-21.7,6.8c-17,4.5-38,10-38,10c-1,0.3-1.6,1.2-1.5,2.3c0.2,1,1.1,1.7,2.1,1.7c1.6-0.1,35.4-2.7,56.3-6.8
		c-2.3,9.8-4.8,17-6.2,20.6C180.4,316.5,163.5,332.1,144.2,347.5z"/>
	<path d="M427.6,112c-36.4,0-102.4,56.5-124.3,96.8l-0.8,1.4c0,0,1.4,2.5,1.9,3.4c3.4,6,6.7,14.3,9.4,24l2.9,11.7
		c2.2,10.2,3.7,21.2,4.2,32.2l0.2,9c0,2.9-0.1,5.7-0.3,8.5c-1,16.7-4.6,22.1-4.6,22.1c7.6,10.5,75,78.9,112.2,78.9
		c28.5,0,51.5-68.5,51.5-144S454.1,112,427.6,112z M428.5,384c-11.4,0-32.7-11.9-57.1-31.9c-16.2-13.3-29.8-26.8-37-34.5
		c1.1-4.5,1.9-10.3,2.4-17.7c0.1-1.6,0.2-3.3,0.2-5c21.1,5.7,60.2,9.6,62.1,9.8c0.1,0,0.1,0,0.2,0c0.9,0,1.8-0.7,2-1.6
		c0.2-1-0.4-2-1.4-2.3c-0.2-0.1-21.7-6.6-40.5-11.5c-8.8-2.3-16.6-4.9-22.4-7.1l0-1.1l0.1-0.2v-0.2c-0.9-10.7-2-22-4.2-32.8
		c20.4-11.3,63-30.5,63.5-30.7c0.9-0.4,1.4-1.4,1.1-2.4c-0.3-1-1.2-1.6-2.2-1.4c-0.2,0-15.4,2.6-35.3,9.6
		c-10.1,3.5-21.3,7.4-30.5,10.6l-0.1-0.3l-0.1-0.3c-2.4-8.6-5.3-16.4-8.4-22.7c10.6-16.7,28.9-36.3,49.2-52.7
		c27.2-21.9,47.5-29.7,57.5-29.7c2,0.3,11.9,7.3,21.8,35.1c9.3,26.1,14.6,60,14.6,92.9c0,34.7-5.2,69.3-14.2,95
		C441.1,375.9,431.7,384,428.5,384z"/>
</g>
</svg>
