<?xml version="1.0" encoding="utf-8"?>
<!-- Generator: Adobe Illustrator 18.1.1, SVG Export Plug-In . SVG Version: 6.00 Build 0)  -->
<svg version="1.1" id="Layer_1" xmlns="http://www.w3.org/2000/svg" xmlns:xlink="http://www.w3.org/1999/xlink" x="0px" y="0px"
	 viewBox="0 0 512 512" enable-background="new 0 0 512 512" xml:space="preserve">
<g>
	<path d="M367.5,272h-223C91.2,272,48,315.2,48,368.5S91.2,464,144.5,464h223c53.3,0,96.5-42.2,96.5-95.5S420.8,272,367.5,272z
		 M144,432c-35.3,0-64-28.7-64-64c0-35.3,28.7-64,64-64s64,28.7,64,64C208,403.3,179.3,432,144,432z"/>
	<path d="M144.5,240h223c53.3,0,96.5-42.2,96.5-95.5S420.8,48,367.5,48h-223C91.2,48,48,91.2,48,144.5S91.2,240,144.5,240z M368,80
		c35.3,0,64,28.7,64,64c0,35.3-28.7,64-64,64s-64-28.7-64-64C304,108.7,332.7,80,368,80z"/>
</g>
</svg>
