<?xml version="1.0" encoding="utf-8"?>
<!-- Generator: Adobe Illustrator 22.0.1, SVG Export Plug-In . SVG Version: 6.00 Build 0)  -->
<svg version="1.1" id="Layer_1" xmlns="http://www.w3.org/2000/svg" xmlns:xlink="http://www.w3.org/1999/xlink" x="0px" y="0px"
	 viewBox="0 0 512 512" style="enable-background:new 0 0 512 512;" xml:space="preserve">
<g>
	<path d="M405.9,288.1c-2.6-2.6-6.2-4.1-9.9-4.1c-3.7,0-7.2,1.4-9.9,4.1c-2.7,2.6-4.1,6.2-4.1,9.9c0,3.7,1.5,7.2,4.1,9.9l16.3,16.2
		h-75.5L202.9,169.1c0,0-0.1-0.1-0.1-0.1c-2.6-3.1-6.7-5-10.8-5H78c-7.7,0-14,6.3-14,14c0,7.7,6.3,14,14,14h107.4l52.5,66l-52.5,66
		H78c-7.7,0-14,6.3-14,14s6.3,14,14,14h114c4.1,0,8-1.8,10.7-5c0,0,0.1-0.1,0.1-0.1l53.2-66.8l53.2,66.8c0,0,0.1,0.1,0.1,0.1
		c2.7,3.2,6.6,5,10.7,5h84.4l-16.3,16.2c-2.7,2.6-4.1,6.1-4.1,9.9c0,3.7,1.5,7.2,4.1,9.9c2.6,2.6,6.2,4.1,9.9,4.1
		c3.7,0,7.2-1.4,9.9-4.1l33.6-33.4c4.2-4.1,6.5-9.6,6.5-15.5c0-5.9-2.3-11.4-6.5-15.5L405.9,288.1z"/>
	<path d="M279.4,235.4c1.1,1.4,2.8,2.1,4.6,2.1c0,0,0,0,0.1,0c1.8,0,3.5-0.8,4.6-2.2l37.9-47.3h75.8l-16.3,16.2
		c-2.7,2.6-4.1,6.1-4.1,9.9c0,3.7,1.5,7.2,4.1,9.9c2.6,2.6,6.2,4.1,9.9,4.1c3.7,0,7.2-1.4,9.9-4.1l35.6-35.4
		c4.2-4.1,6.5-9.7,6.5-15.5c0-5.9-2.3-11.4-6.5-15.5l-33.6-33.4c-2.6-2.6-6.2-4.1-9.9-4.1c-3.7,0-7.2,1.4-9.9,4.1
		c-2.7,2.6-4.1,6.2-4.1,9.9c0,3.7,1.5,7.2,4.1,9.9l16.3,16.2H320c-4.1,0-8,1.8-10.7,5c0,0-0.1,0.1-0.1,0.1l-40.3,50.2
		c-1.8,2.2-1.8,5.4,0.1,7.6L279.4,235.4z"/>
</g>
</svg>
