<?xml version="1.0" encoding="utf-8"?>
<!-- Generator: Adobe Illustrator 18.1.1, SVG Export Plug-In . SVG Version: 6.00 Build 0)  -->
<svg version="1.1" id="Layer_1" xmlns="http://www.w3.org/2000/svg" xmlns:xlink="http://www.w3.org/1999/xlink" x="0px" y="0px"
	 viewBox="0 0 512 512" enable-background="new 0 0 512 512" xml:space="preserve">
<g>
	<g>
		<path d="M344,48H168c-35.2,0-64,28.8-64,64v224c0,35.2,28.8,64,64,64h176c35.2,0,64-28.8,64-64V112C408,76.8,379.2,48,344,48z
			 M200,72h112c4.4,0,8,3.6,8,8c0,4.4-3.6,8-8,8H200c-4.4,0-8-3.6-8-8C192,75.6,195.6,72,200,72z M168,376c-15.5,0-28-12.5-28-28
			s12.5-28,28-28c15.5,0,28,12.5,28,28S183.5,376,168,376z M344,376c-15.5,0-28-12.5-28-28s12.5-28,28-28c15.5,0,28,12.5,28,28
			S359.5,376,344,376z M384,224c0,8.8-7.2,16-16,16H144.2c-8.8,0-16.2-7.2-16.2-16v-95.8c0-8.8,7.4-16.2,16.2-16.2H368
			c8.8,0,16,7.4,16,16.2V224z"/>
	</g>
	<polygon points="369.2,464 392,464 342.7,416 319.9,416 336,432 176,432 192.1,416 169.3,416 120,464 142.8,464 159.9,448 
		352.1,448 	"/>
</g>
</svg>
