<?xml version="1.0" encoding="utf-8"?>
<!-- Generator: Adobe Illustrator 18.1.1, SVG Export Plug-In . SVG Version: 6.00 Build 0)  -->
<svg version="1.1" id="Layer_1" xmlns="http://www.w3.org/2000/svg" xmlns:xlink="http://www.w3.org/1999/xlink" x="0px" y="0px"
	 viewBox="0 0 512 512" enable-background="new 0 0 512 512" xml:space="preserve">
<g>
	<polygon points="162.8,304 150,290.2 256,176 362,290.2 349.2,304 256,203.6 	"/>
	<g>
		<path d="M256,464c114.9,0,208-93.1,208-208c0-114.9-93.1-208-208-208S48,141.1,48,256C48,370.9,141.1,464,256,464z M256,446.7
			c-105.1,0-190.7-85.5-190.7-190.7c0-105.1,85.5-190.7,190.7-190.7c105.1,0,190.7,85.5,190.7,190.7
			C446.7,361.1,361.1,446.7,256,446.7z"/>
	</g>
</g>
</svg>
