<?xml version="1.0" encoding="utf-8"?>
<!-- Generator: Adobe Illustrator 22.0.1, SVG Export Plug-In . SVG Version: 6.00 Build 0)  -->
<svg version="1.1" id="Layer_1" xmlns="http://www.w3.org/2000/svg" xmlns:xlink="http://www.w3.org/1999/xlink" x="0px" y="0px"
	 viewBox="0 0 512 512" style="enable-background:new 0 0 512 512;" xml:space="preserve">
<g id="Dark">
	<g id="iPad_1_">
		<path id="iPad_Air_2_1_" d="M39,103c-4.5,4.5-7,10.6-7,16.9v272.1c0,6.4,2.5,12.4,7,16.9l0,0c4.5,4.5,10.6,7,16.9,7h400.1
			c6.4,0,12.4-2.5,16.9-7l0,0c4.5-4.5,7-10.6,7-16.9V119.9c0-6.4-2.5-12.4-7-16.9l0,0c-4.5-4.5-10.6-7-16.9-7H55.9
			C49.6,96,43.5,98.5,39,103L39,103z M48.7,256.4c0-3.9,3.1-7,7-7c3.9,0,7,3.1,7,7c0,3.9-3.1,7-7,7
			C51.9,263.4,48.7,260.2,48.7,256.4z M470,256c0,7.7-6.5,14-14.1,14c-7.5,0-14-6.2-14-14c0-7.7,6.4-14.1,14-14.1
			C463.5,242,470,248.3,470,256z M432,112v288H80V112H432z"/>
	</g>
</g>
</svg>
