<?xml version="1.0" encoding="utf-8"?>
<!-- Generator: Adobe Illustrator 18.1.1, SVG Export Plug-In . SVG Version: 6.00 Build 0)  -->
<svg version="1.1" id="Layer_1" xmlns="http://www.w3.org/2000/svg" xmlns:xlink="http://www.w3.org/1999/xlink" x="0px" y="0px"
	 viewBox="0 0 512 512" enable-background="new 0 0 512 512" xml:space="preserve">
<g>
	<path d="M371.4,64H140.6C75.5,103,32,174.5,32,256s43.5,152,108.6,192h230.9C436.5,408,480,337.5,480,256S436.5,103,371.4,64z
		 M366.8,432H145.2c-28.7-19-52.6-43.7-69.5-72.7C57.6,328,48,292,48,255.6c0-36.5,9.6-72.3,27.7-103.7
		C92.7,122.6,116.6,97,145.1,80h221.8c30.8,20,52.4,42.5,69.3,71.8c18.2,31.5,27.7,67.3,27.7,103.8c0,36.4-9.6,72.4-27.7,103.7
		C419.4,388.4,395.5,413,366.8,432z"/>
	<rect x="320" y="160" width="32" height="96"/>
	<rect x="160" y="144" width="32" height="128"/>
	<path d="M256,320L256,320c-17.6,0-32,14.4-32,32v48h64v-48C288,334.4,273.6,320,256,320z"/>
</g>
</svg>
