<?xml version="1.0" encoding="utf-8"?>
<!-- Generator: Adobe Illustrator 22.0.1, SVG Export Plug-In . SVG Version: 6.00 Build 0)  -->
<svg version="1.1" id="Layer_1" xmlns="http://www.w3.org/2000/svg" xmlns:xlink="http://www.w3.org/1999/xlink" x="0px" y="0px"
	 viewBox="0 0 512 512" style="enable-background:new 0 0 512 512;" xml:space="preserve">
<g>
	<path d="M199.9,416h-63.8c-4.5,0-8.1-3.6-8.1-8V104c0-4.4,3.6-8,8.1-8h63.8c4.5,0,8.1,3.6,8.1,8v304C208,412.4,204.4,416,199.9,416
		z"/>
	<path d="M375.9,416h-63.8c-4.5,0-8.1-3.6-8.1-8V104c0-4.4,3.6-8,8.1-8h63.8c4.5,0,8.1,3.6,8.1,8v304C384,412.4,380.4,416,375.9,416
		z"/>
</g>
</svg>
