<?xml version="1.0" encoding="utf-8"?>
<!-- Generator: Adobe Illustrator 22.0.1, SVG Export Plug-In . SVG Version: 6.00 Build 0)  -->
<svg version="1.1" id="Layer_1" xmlns="http://www.w3.org/2000/svg" xmlns:xlink="http://www.w3.org/1999/xlink" x="0px" y="0px"
	 viewBox="0 0 512 512" style="enable-background:new 0 0 512 512;" xml:space="preserve">
<g>
	<path d="M308,277.2c25.5-33,80.5-111.5,90.2-135.4c7.2-17.6,10.6-32.8,10.4-46.2c-0.2-17.9-6-29.3-18.3-40.6
		c-5.2-4.8-13.5-6.9-20-6.9L255.9,201.7l-10,13.4L243,219c0,0-0.1,0.1-0.1,0.1l-14.5,19.7c-0.1,0.1-0.2,0.3-0.3,0.4
		c-0.5,0.8-7.5,10.9-15.2,22.7c-3,4.6-6.1,9.5-9,14.1c-3.5,5.6-6.6,11-8.8,15.2c-3.6,7.1-7.3,14.4-10.7,21.5
		c-3.7,7.5-7.2,14.6-10.4,20.7c-10.2-7.3-22-11.1-34.3-11.1c-17.5,0-33.7,7.7-45.8,21.6C82.4,357.1,76,374.6,76,393.1
		c0,18.5,6.4,36,17.9,49.3c12.1,13.9,28.4,21.6,45.8,21.6c14.4,0,28-5.2,39.2-15c10.5-9.1,18-21.3,21.8-35.4
		c1-3.1,11.6-34.7,26.1-57.3c9.2-14.4,22.2-23.4,29.6-27.8l13.5-9.7C269.9,318.9,282.6,310.1,308,277.2z M139.9,421.1
		c-13.3,0-24-12.6-24-28c0-15.4,10.7-28,24-28c13.3,0,24,12.6,24,28C163.9,408.6,153.1,421.1,139.9,421.1z M256.1,288.2
		c-8.8,0-16-7.2-16-16c0-8.8,7.2-16,16-16c8.8,0,16,7.2,16,16C272.1,281,264.9,288.2,256.1,288.2z"/>
	<path d="M191.5,260.4c0.7,1,1.6,1.9,2.5,2.7c1.7-2.8,3.6-5.7,5.4-8.6l46.5-65.8L140.9,48c-8.9,0-14.4,0.9-18.5,3.9
		c-11.9,8.9-19.1,25.6-19.3,43.6c-0.2,13.5,3.3,28.6,10.4,46.2C122.1,162.7,156.1,211.9,191.5,260.4z"/>
	<path d="M372,322.3c-12.3,0-24.1,3.8-34.3,11.1c-3.2-6.1-6.7-13.2-10.4-20.7c-3.4-6.9-6.9-14-10.4-20.8L306,305.8l-36.4,33.1
		c5.2,4.6,10.7,10.4,15.3,17.5c14.5,22.6,25,54.2,26,57.3c3.8,14.1,11.3,26.3,21.8,35.4c11.3,9.8,24.9,15,39.2,15
		c35.3,0,64-31.8,64-70.9S407.3,322.3,372,322.3z M372.1,421.1c-13.3,0-24-12.6-24-28c0-15.4,10.7-28,24-28c13.3,0,24,12.6,24,28
		C396.1,408.6,385.4,421.1,372.1,421.1z"/>
</g>
</svg>
