<?xml version="1.0" encoding="utf-8"?>
<!-- Generator: Adobe Illustrator 22.0.1, SVG Export Plug-In . SVG Version: 6.00 Build 0)  -->
<svg version="1.1" id="Layer_1" xmlns="http://www.w3.org/2000/svg" xmlns:xlink="http://www.w3.org/1999/xlink" x="0px" y="0px"
	 viewBox="0 0 512 512" style="enable-background:new 0 0 512 512;" xml:space="preserve">
<g>
	<path d="M256,48C141.1,48,48,141.1,48,256s93.1,208,208,208c114.9,0,208-93.1,208-208S370.9,48,256,48z M251.7,352
		c-11.8,0-21.4-9-21.4-20.6c0-11.5,9.6-20.6,21.4-20.6c11.9,0,21.5,9,21.5,20.6C273.2,343,263.7,352,251.7,352z M291.9,255.1
		c-17.4,10.1-23.3,17.5-23.3,30.3v7.9h-34.7l-0.3-8.6c-1.7-20.6,5.5-33.4,23.6-44c16.9-10.1,24-16.5,24-28.9s-12-21.5-26.9-21.5
		c-15.1,0-26,9.8-26.8,24.6H192c0.7-32.2,24.5-55,64.7-55c37.5,0,63.3,20.8,63.3,50.7C320,230.5,310.4,244.2,291.9,255.1z"/>
</g>
</svg>
