<?xml version="1.0" encoding="utf-8"?>
<!-- Generator: Adobe Illustrator 22.0.1, SVG Export Plug-In . SVG Version: 6.00 Build 0)  -->
<svg version="1.1" id="Layer_1" xmlns="http://www.w3.org/2000/svg" xmlns:xlink="http://www.w3.org/1999/xlink" x="0px" y="0px"
	 viewBox="0 0 512 512" style="enable-background:new 0 0 512 512;" xml:space="preserve">
<g>
	<g>
		<path d="M450.6,153.6c-3.3,0-6.5,0.9-9.3,2.7l-86.5,54.6c-2.5,1.6-4,4.3-4,7.2v76c0,2.9,1.5,5.6,4,7.2l86.5,54.6
			c2.8,1.7,6,2.7,9.3,2.7h20.8c4.8,0,8.6-3.8,8.6-8.5V162.1c0-4.7-3.9-8.5-8.6-8.5H450.6z"/>
	</g>
	<path d="M273.5,384h-190C55.2,384,32,360.8,32,332.6V179.4c0-28.3,23.2-51.4,51.4-51.4h190c28.3,0,51.4,23.2,51.4,51.4v153.1
		C324.9,360.8,301.8,384,273.5,384z"/>
</g>
</svg>
