<?xml version="1.0" encoding="utf-8"?>
<!-- Generator: Adobe Illustrator 18.1.1, SVG Export Plug-In . SVG Version: 6.00 Build 0)  -->
<svg version="1.1" id="Layer_1" xmlns="http://www.w3.org/2000/svg" xmlns:xlink="http://www.w3.org/1999/xlink" x="0px" y="0px"
	 viewBox="0 0 512 512" enable-background="new 0 0 512 512" xml:space="preserve">
<g>
	<path d="M256,48C141.1,48,48,141.1,48,256c0,114.9,93.1,208,208,208s208-93.1,208-208C464,141.1,370.9,48,256,48z M184,200
		c13.3,0,24,10.7,24,24s-10.7,24-24,24s-24-10.7-24-24S170.7,200,184,200z M160,352c8-46,47.7-81,96-81s88,35,96,81H160z M328,248
		c-13.3,0-24-10.7-24-24s10.7-24,24-24s24,10.7,24,24S341.3,248,328,248z"/>
</g>
</svg>
