<?xml version="1.0" encoding="utf-8"?>
<!-- Generator: Adobe Illustrator 22.0.1, SVG Export Plug-In . SVG Version: 6.00 Build 0)  -->
<svg version="1.1" id="Layer_1" xmlns="http://www.w3.org/2000/svg" xmlns:xlink="http://www.w3.org/1999/xlink" x="0px" y="0px"
	 viewBox="0 0 512 512" style="enable-background:new 0 0 512 512;" xml:space="preserve">
<g>
	<path d="M280,341.1l-1.2,0.1c-3.6,0.4-7,2-9.6,4.5l-64.6,64.6c-13.7,13.7-32,21.2-51.5,21.2c-19.5,0-37.8-7.5-51.5-21.2
		c-13.7-13.7-21.2-32-21.2-51.5c0-19.5,7.5-37.8,21.2-51.5l68.6-68.6c3.5-3.5,7.3-6.6,11.4-9.3c4.6-3,9.6-5.6,14.8-7.5
		c4.8-1.8,9.9-3,15-3.7c3.4-0.5,6.9-0.7,10.2-0.7c1.4,0,2.8,0.1,4.6,0.2c17.7,1.1,34.4,8.6,46.8,21c7.7,7.7,13.6,17.1,17.1,27.3
		c2.8,8,11.2,12.5,19.3,10.1c0.1,0,0.2-0.1,0.3-0.1c0.1,0,0.2,0,0.2-0.1c8.1-2.5,12.8-11,10.5-19.1c-4.4-15.6-12.2-28.7-24.6-41
		c-15.6-15.6-35.9-25.8-57.6-29.3c-1.9-0.3-3.8-0.6-5.7-0.8c-3.7-0.4-7.4-0.6-11.1-0.6c-2.6,0-5.2,0.1-7.7,0.3
		c-5.4,0.4-10.8,1.2-16.2,2.5c-1.1,0.2-2.1,0.5-3.2,0.8c-6.7,1.8-13.3,4.2-19.5,7.3c-10.3,5.1-19.6,11.7-27.7,19.9l-68.6,68.6
		C58.9,304.4,48,330.8,48,359c0,28.2,10.9,54.6,30.7,74.4C98.5,453.1,124.9,464,153,464c28.2,0,54.6-10.9,74.4-30.7l65.3-65.3
		C303.1,357.5,294.7,339.7,280,341.1z"/>
	<path d="M433.3,78.7C413.5,58.9,387.1,48,359,48s-54.6,10.9-74.4,30.7l-63.7,63.7c-9.7,9.7-3.6,26.3,10.1,27.4
		c4.7,0.4,9.3-1.3,12.7-4.6l63.8-63.6c13.7-13.7,32-21.2,51.5-21.2s37.8,7.5,51.5,21.2c13.7,13.7,21.2,32,21.2,51.5
		c0,19.5-7.5,37.8-21.2,51.5l-68.6,68.6c-3.5,3.5-7.3,6.6-11.4,9.3c-4.6,3-9.6,5.6-14.8,7.5c-4.8,1.8-9.9,3-15,3.7
		c-3.4,0.5-6.9,0.7-10.2,0.7c-1.4,0-2.9-0.1-4.6-0.2c-17.7-1.1-34.4-8.6-46.8-21c-7.3-7.3-12.8-16-16.4-25.5
		c-2.9-7.7-11.1-11.9-19.1-9.8c-8.9,2.3-14.1,11.7-11.3,20.5c4.5,14,12.1,25.9,23.7,37.5l0,0l0.2,0.2c16.9,16.9,39.4,27.6,63.3,30.1
		c3.7,0.4,7.4,0.6,11.1,0.6c2.6,0,5.2-0.1,7.8-0.3c6.5-0.5,13-1.6,19.3-3.2c6.7-1.8,13.3-4.2,19.5-7.3c10.3-5.1,19.6-11.7,27.7-19.9
		l68.6-68.6c19.8-19.8,30.7-46.2,30.7-74.4S453.1,98.5,433.3,78.7z"/>
</g>
</svg>
