<?xml version="1.0" encoding="utf-8"?>
<!-- Generator: Adobe Illustrator 22.0.1, SVG Export Plug-In . SVG Version: 6.00 Build 0)  -->
<svg version="1.1" id="Layer_1" xmlns="http://www.w3.org/2000/svg" xmlns:xlink="http://www.w3.org/1999/xlink" x="0px" y="0px"
	 viewBox="0 0 512 512" style="enable-background:new 0 0 512 512;" xml:space="preserve">
<path d="M393,341.6V206c0-14.7,0-42.1-9.4-65.3C371.7,111.5,347.6,96,314,96h-77.7L276,55.8c5.4-5.4,5.4-14.3,0-19.8
	c0,0-0.1-0.1-0.1-0.1c-2.7-2.5-6.2-3.9-9.8-3.9c-3.8,0-7.3,1.4-9.9,4.1l-54.8,54.6C192.9,61.5,165.9,40,134,40
	c-38.6,0-70,31.4-70,70c0,17,6.2,33.3,17.3,46.1c9.9,11.3,23.1,19.1,37.7,22.3v163.3c-14.5,3.2-27.8,11-37.7,22.3
	C70.2,376.7,64,393,64,410c0,38.6,31.4,70,70,70s70-31.4,70-70c0-17.4-6.4-34-18-46.9c-10.3-11.4-24-19.1-39-21.9V178.8
	c15-2.8,28.7-10.5,39-21.9c7.6-8.4,12.9-18.4,15.7-29.1l56.4,56.2c2.6,2.6,6.1,4.1,9.9,4.1c3.7,0,7.3-1.4,9.9-4.1
	c2.6-2.6,4.1-6.1,4.1-9.9c0-3.7-1.4-7.3-4.1-9.9c0,0,0,0-0.1-0.1L236.7,124H314c20.4,0,33.6,7.5,41.6,23.5c8.4,17,9.4,41.5,9.4,58.5
	v135.2c-15,2.8-28.7,10.5-39,21.9c-11.6,12.9-18,29.5-18,46.9c0,38.6,31.4,70,70,70s70-31.4,70-70c0-17-6.2-33.3-17.3-46.1
	C420.8,352.6,407.5,344.8,393,341.6z M176,410c0,23.2-18.8,42-42,42s-42-18.8-42-42s18.8-42,42-42S176,386.8,176,410z M134,152
	c-23.2,0-42-18.8-42-42s18.8-42,42-42s42,18.8,42,42S157.2,152,134,152z M378,452c-23.2,0-42-18.8-42-42s18.8-42,42-42
	s42,18.8,42,42S401.2,452,378,452z"/>
</svg>
