<?xml version="1.0" encoding="utf-8"?>
<!-- Generator: Adobe Illustrator 18.1.1, SVG Export Plug-In . SVG Version: 6.00 Build 0)  -->
<svg version="1.1" id="Layer_1" xmlns="http://www.w3.org/2000/svg" xmlns:xlink="http://www.w3.org/1999/xlink" x="0px" y="0px"
	 viewBox="0 0 512 512" enable-background="new 0 0 512 512" xml:space="preserve">
<path d="M395,117c-11.6,0-21,9.2-21,20.5v109c0,4.8-4.6,8.6-9.5,8.6s-9.5-3.9-9.5-8.6V85.8c0-11.3-9.4-20.5-21-20.5s-21,9.2-21,20.5
	V212c0,4.8-3.6,8.6-8.5,8.6s-8.5-3.9-8.5-8.6V68.5c0-11.3-9.4-20.5-21-20.5s-21,9.2-21,20.5v160.8c0,4.8-4.1,8.6-9,8.6s-9-3.9-9-8.6
	V103c0-11.3-10.4-20.5-22-20.5s-22,9.2-22,20.5v217.4l-25.9-23.6c-26.1-22.6-48.3-32.3-66.3-15.6c-12.1,11.7,6.9,30.8,26.7,53
	c19.2,21.4,70,92.3,113.2,117.6c0,0,16.7,12.2,40.6,12.2s57.2,0,57.2,0c46.1,0,78.4-39.5,78.4-94.5v-232
	C416,126.3,406.6,117,395,117z"/>
</svg>
