<?xml version="1.0" encoding="utf-8"?>
<!-- Generator: Adobe Illustrator 22.0.1, SVG Export Plug-In . SVG Version: 6.00 Build 0)  -->
<svg version="1.1" id="Layer_1" xmlns="http://www.w3.org/2000/svg" xmlns:xlink="http://www.w3.org/1999/xlink" x="0px" y="0px"
	 viewBox="0 0 512 512" style="enable-background:new 0 0 512 512;" xml:space="preserve">
<g>
	<path d="M382.1,442.7L154.5,55c-4-6.7-12.7-9-19.5-5.1c-6.8,3.9-9.1,12.6-5.1,19.3L357.5,457c2.6,4.5,7.4,7,12.3,7
		c2.4,0,4.9-0.6,7.2-1.9C383.7,458.1,386,449.5,382.1,442.7z"/>
	<path d="M324.6,313.3l57.9-75.8c3.8-5.6,0.2-13.4-6.3-13.4H272.2L324.6,313.3z"/>
	<path d="M320.4,37.1c0.9-4.5-4.6-7.1-7.2-3.4L227,146.9l42.4,72.3L320.4,37.1z"/>
	<path d="M187.4,198.7l-57.9,75.8c-3.8,5.6-0.2,13.4,6.3,13.4h103.9L187.4,198.7z"/>
	<path d="M191.6,474.9c-0.9,4.5,4.6,7.1,7.2,3.4L285,365.1l-42.4-72.3L191.6,474.9z"/>
</g>
</svg>
