<?xml version="1.0" encoding="utf-8"?>
<!-- Generator: Adobe Illustrator 22.0.1, SVG Export Plug-In . SVG Version: 6.00 Build 0)  -->
<svg version="1.1" id="Layer_1" xmlns="http://www.w3.org/2000/svg" xmlns:xlink="http://www.w3.org/1999/xlink" x="0px" y="0px"
	 viewBox="0 0 512 512" style="enable-background:new 0 0 512 512;" xml:space="preserve">
<path d="M372,48H140c-17.7,0-32,14.3-32,32v352c0,17.7,14.3,32,32,32h232c17.7,0,32-14.3,32-32V80C404,62.3,389.7,48,372,48z
	 M360,320v80c0,13.3-10.7,24-24,24h0c-13.3,0-24-10.7-24-24v-80c0-13.3,10.7-24,24-24h0C349.3,296,360,306.7,360,320z M360,240
	L360,240c0,13.3-10.7,24-24,24h0c-13.3,0-24-10.7-24-24v0c0-13.3,10.7-24,24-24h0C349.3,216,360,226.7,360,240z M280,400L280,400
	c0,13.3-10.7,24-24,24h0c-13.3,0-24-10.7-24-24v0c0-13.3,10.7-24,24-24h0C269.3,376,280,386.7,280,400z M280,320L280,320
	c0,13.3-10.7,24-24,24h0c-13.3,0-24-10.7-24-24v0c0-13.3,10.7-24,24-24h0C269.3,296,280,306.7,280,320z M280,240L280,240
	c0,13.3-10.7,24-24,24h0c-13.3,0-24-10.7-24-24v0c0-13.3,10.7-24,24-24h0C269.3,216,280,226.7,280,240z M200,400L200,400
	c0,13.3-10.7,24-24,24h0c-13.3,0-24-10.7-24-24v0c0-13.3,10.7-24,24-24h0C189.3,376,200,386.7,200,400z M200,320L200,320
	c0,13.3-10.7,24-24,24h0c-13.3,0-24-10.7-24-24v0c0-13.3,10.7-24,24-24h0C189.3,296,200,306.7,200,320z M200,240L200,240
	c0,13.3-10.7,24-24,24h0c-13.3,0-24-10.7-24-24v0c0-13.3,10.7-24,24-24h0C189.3,216,200,226.7,200,240z M152,160v-48
	c0-8.8,7.2-16,16-16h176c8.8,0,16,7.2,16,16v48c0,8.8-7.2,16-16,16H168C159.2,176,152,168.8,152,160z"/>
</svg>
