<?xml version="1.0" encoding="utf-8"?>
<!-- Generator: Adobe Illustrator 22.0.1, SVG Export Plug-In . SVG Version: 6.00 Build 0)  -->
<svg version="1.1" id="Layer_1" xmlns="http://www.w3.org/2000/svg" xmlns:xlink="http://www.w3.org/1999/xlink" x="0px" y="0px"
	 viewBox="0 0 512 512" style="enable-background:new 0 0 512 512;" xml:space="preserve">
<g>
	<path d="M256.3,74.2l9.7-3.1c4.7-1.5,9.7,1.1,11.2,5.7l0.1,0.4c1.5,4.7-1.1,9.7-5.7,11.2L260.1,92c-2.1,0.7-3.2,2.9-2.6,4.9
		c2.1,6.9,4.5,13.7,7.2,20.5c1.9,4.6,3.9,9.2,6.1,13.7c1.1,2.2,3.8,3,5.9,1.6l8.5-5.8c4.1-2.7,9.6-1.7,12.3,2.4l0.2,0.3
		c2.7,4.1,1.7,9.6-2.4,12.3l-10.4,7.1c-1.8,1.2-2.3,3.6-1.2,5.4c7,11,14.9,21.5,23.7,31.3c1.5,1.7,4.2,1.8,5.8,0.2l7.5-7.5
		c3.5-3.5,9.1-3.5,12.5,0l0.3,0.3c3.5,3.5,3.5,9.1,0,12.5l-7.5,7.5c-1.6,1.6-1.5,4.3,0.2,5.8c10.2,9.1,21,17.3,32.5,24.4
		c1.8,1.1,4.2,0.6,5.4-1.2l6.9-10.2c2.7-4.1,8.3-5.1,12.3-2.4l0.3,0.2c4.1,2.7,5.1,8.3,2.4,12.3l-5.5,8.1c-1.4,2-0.6,4.8,1.6,5.9
		c4.1,1.9,8.2,3.8,12.4,5.5c7.1,2.9,14.3,5.4,21.7,7.6c2.1,0.6,4.3-0.5,5-2.6l3.5-10.8c1.5-4.7,6.5-7.2,11.2-5.7l0.4,0.1
		c4.7,1.5,7.2,6.5,5.7,11.2l-2.8,8.8c-0.7,2.3,0.7,4.7,3.1,5.2c7.1,1.3,14.3,2.3,21.5,2.9c0,0,0,0,0,0c0.1-2.6,0.2-5.3,0.2-7.9
		c0-114.9-93.1-208-208-208c-2.7,0-5.3,0.1-8,0.2c0.7,7.7,1.7,15.3,3.1,22.9C251.5,73.5,254,74.9,256.3,74.2z"/>
	<path d="M258,447.2c-0.4-2.4-2.8-3.9-5.2-3.2l-11.6,3.7c-4.7,1.5-9.7-1.1-11.2-5.7l-0.1-0.4c-1.5-4.7,1.1-9.7,5.7-11.2l13.8-4.4
		c2-0.7,3.2-2.8,2.6-4.9c-2.3-7.9-5-15.6-8.1-23.3c-1.6-4-3.3-7.9-5.2-11.8c-1-2.2-3.8-3-5.9-1.6l-10.9,7.4
		c-4.1,2.7-9.6,1.7-12.3-2.4l-0.2-0.3c-2.7-4.1-1.7-9.6,2.4-12.3l13-8.8c1.8-1.2,2.3-3.6,1.2-5.4c-7.2-11.7-15.5-22.7-24.8-33.1
		c-1.5-1.7-4.2-1.8-5.8-0.2l-9.9,9.9c-3.5,3.5-9.1,3.5-12.5,0l-0.3-0.3c-3.5-3.5-3.5-9.1,0-12.5l9.9-9.9c1.6-1.6,1.5-4.3-0.2-5.8
		c-10-9-20.6-17-31.9-24c-1.8-1.1-4.2-0.6-5.4,1.2l-9,13.3c-2.7,4.1-8.3,5.1-12.3,2.4l-0.3-0.2c-4.1-2.7-5.1-8.3-2.4-12.3l7.6-11.3
		c1.4-2,0.6-4.8-1.6-5.9c-4.3-2.1-8.6-4-13.1-5.8c-7.3-2.9-14.6-5.5-22.1-7.7c-2-0.6-4.3,0.6-4.9,2.6l-4.6,14.4
		c-1.5,4.7-6.5,7.2-11.2,5.7l-0.4-0.1c-4.7-1.5-7.2-6.5-5.7-11.2l4-12.4c0.7-2.3-0.7-4.8-3.1-5.2c-5.8-1-11.7-1.8-17.6-2.4
		c-0.1,0-0.3,0-0.4-0.1c0,1.4,0,2.8,0,4.2c0,114.9,93.1,208,208,208c1.4,0,2.8,0,4.2,0c0-0.1-0.1-0.3-0.1-0.4
		C259.6,458.1,258.9,452.6,258,447.2z"/>
	<path d="M431.1,280.9l-5.9,18.4c-1.5,4.7-6.5,7.2-11.2,5.7l-0.4-0.1c-4.7-1.5-7.2-6.5-5.7-11.2l5.3-16.6c0.7-2.1-0.5-4.4-2.7-5.1
		c-13.5-4-26.8-9.2-39.7-15.6c-1.8-0.9-4-0.3-5.1,1.3l-10.5,15.4c-2.7,4.1-8.3,5.1-12.3,2.4l-0.3-0.2c-4.1-2.7-5.1-8.3-2.4-12.3
		l9.2-13.6c1.3-1.9,0.7-4.4-1.2-5.6c-12.3-7.7-24.1-16.6-35.2-26.7c-1.6-1.4-4-1.4-5.5,0.1l-12.8,12.8c-3.5,3.5-9.1,3.5-12.5,0
		l-0.3-0.3c-3.5-3.5-3.5-9.1,0-12.5l12.8-12.8c1.5-1.5,1.6-3.9,0.1-5.5c-9.7-10.8-18.4-22.2-26-34c-1.2-1.9-3.8-2.5-5.6-1.2l-13.3,9
		c-4.1,2.7-9.6,1.7-12.3-2.4l-0.2-0.3c-2.7-4.1-1.7-9.6,2.4-12.3l15.1-10.2c1.7-1.1,2.2-3.3,1.3-5.1c-6.4-12.9-11.7-26.2-15.8-39.7
		c-0.7-2.1-2.9-3.4-5.1-2.7l-15.9,5.1c-4.7,1.5-9.7-1.1-11.2-5.7l-0.1-0.4c-1.5-4.7,1.1-9.7,5.7-11.2l17.6-5.6
		c1.9-0.6,3.1-2.6,2.7-4.6c-1.8-9.2-3.1-18.6-3.9-27.9c-95.4,11.8-170.8,88.2-181,184.1c0.3,0,0.7,0,1,0c7.5,0.7,15,1.8,22.4,3.2
		c2,0.4,4-0.8,4.6-2.7l4.7-14.8c1.5-4.7,6.5-7.2,11.2-5.7l0.4,0.1c4.7,1.5,7.2,6.5,5.7,11.2l-4.2,13c-0.7,2.2,0.5,4.4,2.7,5.1
		c13.9,4.1,27.5,9.4,40.7,16c1.8,0.9,4,0.3,5.1-1.3l8.3-12.3c2.7-4.1,8.3-5.1,12.3-2.4l0.3,0.2c4.1,2.7,5.1,8.3,2.4,12.3l-7.1,10.5
		c-1.3,1.9-0.7,4.4,1.2,5.6c12.1,7.7,23.7,16.4,34.6,26.3c1.6,1.4,4,1.4,5.5-0.1l10.4-10.4c3.5-3.5,9.1-3.5,12.5,0l0.3,0.3
		c3.5,3.5,3.5,9.1,0,12.5L214,310.8c-1.5,1.5-1.6,3.9-0.1,5.5c10.2,11.3,19.2,23.3,27,35.8c1.2,2,3.7,2.5,5.7,1.2l10.8-7.3
		c4.1-2.7,9.6-1.7,12.3,2.4l0.2,0.3c2.7,4.1,1.7,9.6-2.4,12.3l-12.7,8.6c-1.7,1.1-2.2,3.3-1.3,5.1c6.4,13.2,11.7,26.7,15.7,40.6
		c0.6,2.2,2.9,3.4,5.1,2.7l13.6-4.4c4.7-1.5,9.7,1.1,11.2,5.7l0.1,0.4c1.5,4.7-1.1,9.7-5.7,11.2l-15.6,5c-1.9,0.6-3.1,2.6-2.7,4.6
		c1.3,7,2.3,14.1,3,21.2c0,0.3,0,0.7,0,1c95.9-10.2,172.3-85.6,184.1-181c-8.9-0.7-17.9-1.9-26.7-3.6
		C433.7,277.8,431.7,279,431.1,280.9z"/>
</g>
</svg>
