<?xml version="1.0" encoding="utf-8"?>
<!-- Generator: Adobe Illustrator 22.0.1, SVG Export Plug-In . SVG Version: 6.00 Build 0)  -->
<svg version="1.1" id="Layer_1" xmlns="http://www.w3.org/2000/svg" xmlns:xlink="http://www.w3.org/1999/xlink" x="0px" y="0px"
	 viewBox="0 0 512 512" style="enable-background:new 0 0 512 512;" xml:space="preserve">
<g>
	<g>
		<path d="M416,196.2c-13.8-30.8-49-92.2-100-92.2H196c-51,0-84.8,59.4-100,92.2c-24,23-48,45.7-48,84.8v76c0,3.7,2.6,7,6.2,7.8
			C69.1,368.2,116.4,375,256,375s186.9-6.8,201.8-10.2c3.6-0.8,6.2-4.1,6.2-7.8v-76C464,242,441.7,217.9,416,196.2z M190,128
			c35,0,91.5,0,132,0s62,60,62,70H128C128,188,155,128,190,128z M112,331.7c-17.7,0-32-14.3-32-32c0-17.7,14.3-32,32-32
			c17.7,0,32,14.3,32,32C144,317.3,129.7,331.7,112,331.7z M328,300c0,8.8-7.2,16-16,16H200c-8.8,0-16-7.2-16-16l0,0
			c0-8.8,7.2-16,16-16h112C320.8,284,328,291.2,328,300L328,300z M400,332c-17.7,0-32-14.3-32-32c0-17.7,14.3-32,32-32
			s32,14.3,32,32C432,317.7,417.7,332,400,332z"/>
		<path d="M160,384c-47.9,0-96-5-96-5c0,17-0.3,29,6,29s78.7,0,85,0S160,394.8,160,384z"/>
	</g>
	<path d="M352,384c48,0,96-5,96-5c0,16,2,29-5,29s-79.3,0-86,0S352,394.5,352,384z"/>
</g>
</svg>
