<?xml version="1.0" encoding="utf-8"?>
<!-- Generator: Adobe Illustrator 22.0.1, SVG Export Plug-In . SVG Version: 6.00 Build 0)  -->
<svg version="1.1" id="Layer_1" xmlns="http://www.w3.org/2000/svg" xmlns:xlink="http://www.w3.org/1999/xlink" x="0px" y="0px"
	 viewBox="0 0 512 512" style="enable-background:new 0 0 512 512;" xml:space="preserve">
<path d="M378,218c-33.5,0-62.1,23.8-68.6,56.1c-10.3-0.5-18.4-2.7-39.2-10.8c-30.5-11.9-71.8-33.2-111.5-95.8
	c27.1-10.1,45.4-36,45.4-65.5c0-38.6-31.4-70-70-70s-70,31.4-70,70c0,17,6.2,33.3,17.3,46.1c9.9,11.3,23.1,19.1,37.7,22.3v171.3
	c-14.5,3.2-27.8,11-37.7,22.3C70.2,376.7,64,393,64,410c0,38.6,31.4,70,70,70s70-31.4,70-70c0-17.4-6.4-34-18-46.9
	c-10.3-11.4-24-19.1-39-21.9V200.3c40.8,56.8,82,77,113,89.1c25.2,9.8,37.1,12.3,49.5,12.8c6.6,32.2,35.2,55.8,68.5,55.8
	c38.6,0,70-31.4,70-70S416.6,218,378,218z M176,410c0,23.2-18.8,42-42,42s-42-18.8-42-42s18.8-42,42-42S176,386.8,176,410z M134,144
	c-23.2,0-42-18.8-42-42s18.8-42,42-42s42,18.8,42,42S157.2,144,134,144z M378,330c-23.2,0-42-18.8-42-42c0-23.2,18.8-42,42-42
	s42,18.8,42,42C420,311.2,401.2,330,378,330z"/>
</svg>
