<?xml version="1.0" encoding="utf-8"?>
<!-- Generator: Adobe Illustrator 22.0.1, SVG Export Plug-In . SVG Version: 6.00 Build 0)  -->
<svg version="1.1" id="Layer_1" xmlns="http://www.w3.org/2000/svg" xmlns:xlink="http://www.w3.org/1999/xlink" x="0px" y="0px"
	 viewBox="0 0 512 512" style="enable-background:new 0 0 512 512;" xml:space="preserve">
<path d="M70.5,265.4l59.6-59.4c2.6-2.6,6.1-4.1,9.9-4.1c3.7,0,7.3,1.4,9.9,4.1c2.6,2.6,4.1,6.1,4.1,9.9s-1.5,7.3-4.1,9.9
	c0,0,0,0-0.1,0.1L108.7,266H370c13.2,0,25.8-5.2,35.3-14.7c9.5-9.4,14.7-21.9,14.7-35.3v-48c0-7.7,6.3-14,14-14c7.7,0,14,6.3,14,14
	v48c0,20.8-8.1,40.3-22.9,55.1C410.3,285.9,390.8,294,370,294H108.3l39.6,40.2c2.6,2.6,4.1,6.1,4.1,9.9c0,3.7-1.4,7.3-4.1,9.9
	c0,0-0.1,0.1-0.1,0.1c-2.7,2.5-6.2,3.9-9.8,3.9c-3.9,0-7.3-1.4-9.9-4.1l-57.6-57.4c-4.2-4.2-6.5-9.8-6.5-15.7
	C64,275,66.3,269.5,70.5,265.4z"/>
</svg>
