<?xml version="1.0" encoding="utf-8"?>
<!-- Generator: Adobe Illustrator 22.0.1, SVG Export Plug-In . SVG Version: 6.00 Build 0)  -->
<svg version="1.1" id="Layer_1" xmlns="http://www.w3.org/2000/svg" xmlns:xlink="http://www.w3.org/1999/xlink" x="0px" y="0px"
	 viewBox="0 0 512 512" style="enable-background:new 0 0 512 512;" xml:space="preserve">
<g>
	<path d="M437.1,165.8C429,90.6,365.4,32,288,32c-51.2,0-96.3,25.6-123.4,64.7c-8.3-3.4-17.4-5.3-26.9-5.3
		c-39.1,0-70.8,34.4-71.4,73.4C26.4,177.5,0,216.5,0,257.5C0,307.7,40.7,352,90.9,352H243V210.1l-47.9,47.2c-5.1,5-13.3,5-18.4-0.1
		c-5-5.1-5-13.3,0.1-18.4l70-69c0,0,0,0,0,0c1.2-1.1,2.5-2.1,4.1-2.7c1.6-0.7,3.3-1,5-1c3.4,0,6.6,1.3,9.1,3.7l70,69
		c5.1,5,5.2,13.3,0.1,18.4c-5,5.1-13.3,5.2-18.4,0.1L269,210.1V352h152.1c50.2,0,90.9-44.3,90.9-94.5
		C512,212.8,479.7,173.4,437.1,165.8z"/>
	<path d="M243,467c0,7.2,5.8,13,13,13s13-5.8,13-13V352h-26V467z"/>
</g>
</svg>
