<?xml version="1.0" encoding="utf-8"?>
<!-- Generator: Adobe Illustrator 18.1.1, SVG Export Plug-In . SVG Version: 6.00 Build 0)  -->
<svg version="1.1" id="Layer_1" xmlns="http://www.w3.org/2000/svg" xmlns:xlink="http://www.w3.org/1999/xlink" x="0px" y="0px"
	 viewBox="0 0 512 512" enable-background="new 0 0 512 512" xml:space="preserve">
<g>
	<path d="M271,64.8c0-0.3,0-0.5,0-0.8c0-8.8-6.8-16-15-16c-8.2,0-15,7.2-15,16c0,0.2,0,0.5,0,0.7c-108,8-192.8,103.7-192.8,222
		c0,0.4-0.2,0.8-0.2,1.3h3.2c6.4-23,26.2-39.8,49.6-39.8c23.3,0,43,16.9,49.5,39.8h4.9c6.4-23,26.4-39.8,49.8-39.8
		c18.4,0,35,10.5,44,26.3V424c0,13.2-11,24-24.2,24c-13.2,0-24.1-10.8-24.1-24c0-4.4-3.6-8-8.1-8c-4.4,0-8,3.6-8,8
		c0,22.1,18.2,40,40.2,40s40.2-17.9,40.2-40V275.2c9-16.2,25.3-27,44-27c23.3,0,42.8,16.9,49.3,39.8h4.9c6.4-23,26.2-40,49.6-40
		c23.5,0,43.4,16.9,49.7,40h1.6C462.1,171.4,378,73.2,271,64.8z"/>
</g>
</svg>
