<?xml version="1.0" encoding="utf-8"?>
<!-- Generator: Adobe Illustrator 22.0.1, SVG Export Plug-In . SVG Version: 6.00 Build 0)  -->
<svg version="1.1" id="Layer_1" xmlns="http://www.w3.org/2000/svg" xmlns:xlink="http://www.w3.org/1999/xlink" x="0px" y="0px"
	 viewBox="0 0 512 512" style="enable-background:new 0 0 512 512;" xml:space="preserve">
<g>
	<path d="M142,64L142,64c-7.7,0-14,6.3-14,14v20c0,7.7,6.3,14,14,14l0,0c7.7,0,14-6.3,14-14V78C156,70.3,149.7,64,142,64z"/>
	<path d="M156,342V190c0-7.7-6.3-14-14-14l0,0c-7.7,0-14,6.3-14,14v166c0,15.5,12.5,28,28,28h166c7.7,0,14-6.3,14-14l0,0
		c0-7.7-6.3-14-14-14H170C162.3,356,156,349.7,156,342z"/>
	<path d="M434,356h-20c-7.7,0-14,6.3-14,14l0,0c0,7.7,6.3,14,14,14h20c7.7,0,14-6.3,14-14l0,0C448,362.3,441.7,356,434,356z"/>
	<path d="M64,142L64,142c0,7.7,6.3,14,14,14h264c7.7,0,14,6.3,14,14v264c0,7.7,6.3,14,14,14l0,0c7.7,0,14-6.3,14-14V156
		c0-15.5-12.5-28-28-28H78C70.3,128,64,134.3,64,142z"/>
</g>
</svg>
