<?xml version="1.0" encoding="utf-8"?>
<!-- Generator: Adobe Illustrator 22.0.1, SVG Export Plug-In . SVG Version: 6.00 Build 0)  -->
<svg version="1.1" id="Layer_1" xmlns="http://www.w3.org/2000/svg" xmlns:xlink="http://www.w3.org/1999/xlink" x="0px" y="0px"
	 viewBox="0 0 512 512" style="enable-background:new 0 0 512 512;" xml:space="preserve">
<path d="M446.6,109.8c-2.7-7.3-14.2-14-25-18.7C394.6,79.5,348.1,64,256.7,64c-94,0-137.5,14.5-165,27.1
	c-12.3,5.7-24.2,12.5-26.7,19.5c-2.9,8,0.8,15.3,4.1,21.8c0.5,1,1,2,1.5,3c3.1,6.4,12.9,12.8,22.8,13.8l157.9,295.8
	c1,1.9,3.1,3.1,5.3,3.1c0,0,0,0,0,0c2.2,0,4.3-1.2,5.3-3.1l157.6-295.1c5.6-0.6,17.2-2.6,23.1-14.3
	C446.5,127.9,450,118.9,446.6,109.8z M180.6,222.6c-1.2,3.5-2.9,6.6-5.1,9.5c-1.8,2.3-5.3,2-6.7-0.6c-8.8-16.6-17.3-32.4-24.8-46.5
	c-1.4-2.6,0.5-5.8,3.4-5.9c0.3,0,0.7,0,1,0c3.7,0,7.3,0.6,10.9,1.7c8.6,2.8,15.5,8.7,19.6,16.6C182.8,205.3,183.5,214.2,180.6,222.6
	z M297.2,320.1c-0.8,1.4-2.3,2.3-3.9,2.1c-17-1.8-30.2-15.8-30.2-32.8c0-18.2,15.2-33,33.9-33c9.9,0,19,4,25.3,11
	c1.1,1.2,1.3,3.1,0.5,4.5L297.2,320.1z M332.4,143.3c-5.7,4.1-12.4,6.3-19.5,6.3c-1.6,0-3.3-0.1-4.9-0.3
	c-8.7-1.2-16.3-5.7-21.5-12.5c-2-2.6-3.6-5.5-4.6-8.4c-1-2.7,1.2-5.5,4-5.3c18.3,1,35.3,2.9,51.4,5.9c3.1,0.6,4.5,4.1,2.7,6.7
	C338,138.5,335.4,141.1,332.4,143.3z"/>
</svg>
