<?xml version="1.0" encoding="utf-8"?>
<!-- Generator: Adobe Illustrator 18.1.1, SVG Export Plug-In . SVG Version: 6.00 Build 0)  -->
<svg version="1.1" id="Layer_1" xmlns="http://www.w3.org/2000/svg" xmlns:xlink="http://www.w3.org/1999/xlink" x="0px" y="0px"
	 viewBox="0 0 512 512" enable-background="new 0 0 512 512" xml:space="preserve">
<g>
	<path d="M480,416H32V96h448V416z M48,400h416V112H48V400z M270,390c-4.7,0-9.4,0-14,0c-4.6,0-9.2,0-13.9,0
		c-35.7,0-81-0.4-113.8-3.4c-36.1-3.3-56.5-24.1-59-60l-0.5-7.7c-1.7-25-2.8-41.5-2.8-63.1c0-24,0.1-39.1,3.4-71
		c3.6-35.4,24-56,58.9-59.6c32-3.2,87.3-3.2,127.8-3.2c40.4,0,95.8,0,127.8,3.2c34.9,3.5,55.2,24.1,58.9,59.6
		c3.3,31.9,3.4,47,3.4,71c0,21.5-1.1,38-2.8,63l-0.5,7.8c-2.4,35.9-22.8,56.7-59,60C350.9,389.6,305.7,390,270,390z M256,374
		L256,374c4.6,0,9.3,0,14,0c35.4,0,80.1-0.4,112.3-3.3c28-2.6,42.6-17.4,44.5-45.2l0.5-7.8c1.7-24.6,2.8-40.9,2.8-61.9
		c0-23.5-0.1-38.3-3.3-69.4c-2.9-28.1-17-42.5-44.6-45.3C351,138,296.1,138,256,138c-40.1,0-95,0-126.1,3.2
		c-27.5,2.8-41.7,17.2-44.6,45.3c-3.2,31.1-3.3,45.9-3.3,69.4c0,21,1.1,37.3,2.8,62l0.5,7.7c1.9,27.8,16.4,42.6,44.5,45.2
		c32.2,3,76.9,3.3,112.3,3.3C246.8,374,251.5,374,256,374z"/>
	<g>
		<path d="M337.7,178.4c17.2,0,29.4,4.3,37.4,13.2c5.6,6.2,9.4,15.8,11.3,27.4h-14.1c-5.4-17.7-19.9-29.8-37.9-29.8
			c-11.2,0-20.8,4-27.9,11.6c-6.4,6.8-10.4,16.2-12.1,28l0,0l0,0c-0.1,0.5-1.5,11.3-1.5,28.2c0,14.9,1,23.4,1.3,25.7
			c2.2,23.6,18.5,40.1,39.8,40.1c11.1,0,21.2-4.2,28.5-11.8c4.8-5,8-11.1,9.8-18.1h14.4c-1.7,11.7-5.4,20.8-11.2,27.3
			c-7.7,8.8-21.7,13.2-41.7,13.2c-10.1,0-18.9-1.1-26.1-3.4c-5.7-1.8-10.4-5-14.2-9.7c-4.3-5.3-7.7-13-10.1-22.7
			c-2.6-10.8-4-24.6-4-41.2c0-16.7,1.6-30.6,4.8-41.1c2.9-9.7,6.9-17.3,11.8-22.7c4.7-5.2,10.1-8.6,16.6-10.7
			C320,179.6,328.5,178.4,337.7,178.4 M337.7,162.4c-10.9,0-20.9,1.4-30,4.3c-9.1,2.9-17,7.9-23.6,15.1
			c-6.6,7.2-11.7,16.8-15.4,28.9c-3.6,12.1-5.5,27.3-5.5,45.7c0,18,1.5,33,4.4,45.1c3,12.1,7.3,21.7,13.1,28.9
			c5.8,7.2,13.1,12.2,21.8,15c8.8,2.8,19.1,4.2,30.9,4.2c25,0,43-6.4,53.8-18.7c10.8-12.3,16.2-30.3,16.2-53.9h-46.1
			c0,0,0,2.5,0,3.4v0.7c0,16.3-10.1,25.9-23.6,25.9c-13.5,0-22.6-10.8-23.9-25.9c0,0-1.2-7.9-1.2-23.9s1.4-26,1.4-26
			c2.4-17,10.7-25.9,24.2-25.9c13.4,0,24.1,11.6,24.1,29.2c0,0.1,0,0.5,0,0.5h45.1c0-21.9-5.5-41.6-16.6-54
			C376,168.6,359.6,162.4,337.7,162.4L337.7,162.4z"/>
		<path d="M182.8,178.4c17.2,0,29.4,4.3,37.4,13.2c5.6,6.2,9.4,15.8,11.3,27.4h-14.1c-5.4-17.7-19.9-29.8-37.9-29.8
			c-11.2,0-20.8,4-27.9,11.6c-6.4,6.8-10.4,16.2-12.1,28l0,0l0,0c-0.1,0.5-1.5,11.3-1.5,28.2c0,14.9,1,23.4,1.3,25.7
			c2.2,23.6,18.5,40.1,39.8,40.1c11.1,0,21.2-4.2,28.5-11.8c4.8-5,8-11.1,9.8-18.1h14.4c-1.7,11.7-5.4,20.8-11.2,27.3
			c-7.7,8.8-21.7,13.2-41.7,13.2c-10.1,0-18.9-1.1-26.1-3.4c-5.7-1.8-10.4-5-14.2-9.7c-4.3-5.3-7.7-13-10.1-22.7
			c-2.6-10.8-4-24.6-4-41.2c0-16.7,1.6-30.6,4.8-41.1c2.9-9.7,6.9-17.3,11.8-22.7c4.7-5.2,10.1-8.6,16.6-10.7
			C165.1,179.6,173.6,178.4,182.8,178.4 M182.8,162.4c-10.9,0-20.9,1.4-30,4.3c-9.1,2.9-17,7.9-23.6,15.1
			c-6.6,7.2-11.7,16.8-15.4,28.9c-3.6,12.1-5.5,27.3-5.5,45.7c0,18,1.5,33,4.4,45.1c3,12.1,7.3,21.7,13.1,28.9
			c5.8,7.2,13.1,12.2,21.8,15c8.8,2.8,19.1,4.2,30.9,4.2c25,0,43-6.4,53.8-18.7c10.8-12.3,16.2-30.3,16.2-53.9h-46.1
			c0,0,0,2.5,0,3.4v0.7c0,16.3-10.1,25.9-23.6,25.9c-13.5,0-22.6-10.8-23.9-25.9c0,0-1.2-7.9-1.2-23.9s1.4-26,1.4-26
			c2.4-17,10.7-25.9,24.2-25.9c13.4,0,24.1,11.6,24.1,29.2c0,0.1,0,0.5,0,0.5h45.1c0-21.9-5.5-41.6-16.6-54
			C221.1,168.6,204.7,162.4,182.8,162.4L182.8,162.4z"/>
	</g>
</g>
</svg>
