<?xml version="1.0" encoding="utf-8"?>
<!-- Generator: Adobe Illustrator 22.0.1, SVG Export Plug-In . SVG Version: 6.00 Build 0)  -->
<svg version="1.1" id="Layer_1" xmlns="http://www.w3.org/2000/svg" xmlns:xlink="http://www.w3.org/1999/xlink" x="0px" y="0px"
	 viewBox="0 0 512 512" style="enable-background:new 0 0 512 512;" xml:space="preserve">
<path d="M437.4,354.4L320.7,159.9c-0.4-0.6-0.6-1.3-0.6-2.1V80c0-2.2,1.8-4,4-4c6.6,0,12-5.4,12-12v-4c0-6.6-5.4-12-12-12H187.8
	c-6.6,0-12,5.4-12,12v4c0,6.6,5.4,12,12,12c2.2,0,4,1.8,4,4v77.9c0,0.7-0.2,1.4-0.6,2L75.7,354.4c-8.4,15.8-12.5,31.4-12.1,45.6
	c1.1,36.5,28.8,64,65.2,64h256.6c36.4,0,62.3-27.6,63.2-64C448.8,385.8,445.9,370.3,437.4,354.4z M161.8,288
	c-6.2,0-10.1-6.8-6.9-12.1l60.5-101.7c2.9-4.9,4.5-10.6,4.5-16.3V80c0-1.4-0.1-2.7-0.2-4h72.7c-0.2,1.3-0.2,2.6-0.2,4v77.9
	c0,5.8,1.6,11.5,4.6,16.4l60.4,101.6c3.2,5.3-0.7,12.1-6.9,12.1H161.8z"/>
</svg>
