<?xml version="1.0" encoding="utf-8"?>
<!-- Generator: Adobe Illustrator 22.0.1, SVG Export Plug-In . SVG Version: 6.00 Build 0)  -->
<svg version="1.1" id="Layer_1" xmlns="http://www.w3.org/2000/svg" xmlns:xlink="http://www.w3.org/1999/xlink" x="0px" y="0px"
	 viewBox="0 0 512 512" style="enable-background:new 0 0 512 512;" xml:space="preserve">
<path d="M480,369.2V251.1c0-8.1-6.8-14.8-15.1-14.8c-8.3,0-15.1,6.6-15.1,14.8v81.7L300.5,181c-2.8-2.8-6.6-4.3-10.7-4.3
	c-4,0-7.8,1.5-10.7,4.3l-85.9,84.1L57.5,132.3c-2.9-2.8-6.6-4.3-10.7-4.3c-4,0-7.8,1.5-10.7,4.3c-2.8,2.7-4.2,6.2-4.2,10.2
	c0,5.4,2.3,8.8,4.2,10.7l146.3,143.2c2.9,2.8,6.6,4.3,10.7,4.3c4,0,7.8-1.5,10.7-4.3l85.9-84.1l138,142.2h-83.7
	c-8.3,0-15.1,6.6-15.1,14.8c0,8.1,6.8,14.8,15.1,14.8h120.8C473.2,384,480,377.4,480,369.2z"/>
</svg>
