<?xml version="1.0" encoding="utf-8"?>
<!-- Generator: Adobe Illustrator 22.0.1, SVG Export Plug-In . SVG Version: 6.00 Build 0)  -->
<svg version="1.1" id="Layer_1" xmlns="http://www.w3.org/2000/svg" xmlns:xlink="http://www.w3.org/1999/xlink" x="0px" y="0px"
	 viewBox="0 0 512 512" style="enable-background:new 0 0 512 512;" xml:space="preserve">
<path d="M456.9,242.2l-26.1-4.2c-3.5-0.6-6.1-3.3-6.6-6.8c-0.5-3.2-1-6.4-1.7-9.5c-0.7-3.4,0.9-6.9,3.9-8.6l23.1-12.8
	c3.6-1.8,5.3-6.1,3.9-9.9l-4-11c-1.4-3.8-5.4-6-9.4-5l-25.9,5c-3.4,0.7-6.9-1-8.6-4.1c-1.5-2.8-3.1-5.6-4.8-8.4
	c-1.8-3-1.6-6.8,0.7-9.5l17.3-19.9c2.8-3,2.9-7.5,0.3-10.6l-7.5-9c-2.6-3.1-7.1-3.8-10.5-1.5l-22.7,13.6c-3,1.8-6.8,1.4-9.4-0.9
	c-2.4-2.1-4.9-4.2-7.4-6.2c-2.7-2.2-3.8-5.9-2.5-9.1l9.4-24.7c1.6-3.7,0.2-8.1-3.3-10.1l-10.2-5.9c-3.5-2-8-1.1-10.4,2.2l-16.6,20.8
	c-2,2.5-4.9,3.8-8.5,2.5c0,0-5.6-2.3-9.8-3.7c-3.3-1.1-5.6-4.2-5.5-7.7l0.4-26.4c0.2-4.1-2.6-7.7-6.6-8.4l-11.6-2
	c-4-0.7-7.9,1.7-9.1,5.6l-8.6,25c-1.1,3.3-4.3,5.5-7.8,5.4c-1.6,0-3.3-0.1-4.9-0.1s-3.3,0-4.9,0.1c-3.5,0.1-6.6-2.1-7.8-5.4l-8.6-25
	c-1.2-3.9-5.1-6.3-9.1-5.6l-11.6,2c-4,0.7-6.8,4.3-6.6,8.4l0.4,26.4c0.1,3.5-2.1,6.4-5.5,7.7c-2.3,0.9-7.3,2.8-9.7,3.7
	c-2.8,1-6.1,0.2-8.8-2.9l-16.5-20.3c-2.4-3.3-6.9-4.2-10.4-2.2l-10.2,5.9c-3.5,2-5,6.4-3.3,10.1l9.4,24.7c1.2,3.3,0.2,7-2.5,9.1
	c-2.5,2-5,4.1-7.4,6.2c-2.6,2.3-6.4,2.7-9.4,0.9L111,116.3c-3.4-2.2-7.9-1.6-10.5,1.5l-7.5,9c-2.6,3.1-2.5,7.7,0.3,10.6l17.3,19.9
	c2.3,2.6,2.6,6.5,0.7,9.5c-1.7,2.7-3.3,5.5-4.8,8.4c-1.7,3.1-5.1,4.7-8.6,4.1l-25.9-5c-4-0.9-8,1.2-9.4,5l-4,11
	c-1.4,3.8,0.3,8.1,3.9,9.9l23.1,12.8c3.1,1.7,4.6,5.2,3.9,8.6c-0.6,3.2-1.2,6.3-1.7,9.5c-0.5,3.5-3.2,6.2-6.6,6.8l-26.1,4.2
	c-4,0.5-7.1,3.9-7.1,7.9v11.7c0,4.1,3,7.5,7.1,7.9l26.1,4.2c3.5,0.6,6.1,3.3,6.6,6.8c0.5,3.2,1,6.4,1.7,9.5c0.7,3.4-0.9,6.9-3.9,8.6
	l-23.1,12.8c-3.6,1.8-5.3,6.1-3.9,9.9l4,11c1.4,3.8,5.4,6,9.4,5l25.9-5c3.4-0.7,6.9,1,8.6,4.1c1.5,2.8,3.1,5.6,4.8,8.4
	c1.8,3,1.6,6.8-0.7,9.5l-17.3,19.9c-2.8,3-2.9,7.5-0.3,10.6l7.5,9c2.6,3.1,7.1,3.8,10.5,1.5l22.7-13.6c3-1.8,6.8-1.4,9.4,0.9
	c2.4,2.1,4.9,4.2,7.4,6.2c2.7,2.2,3.8,5.9,2.5,9.1l-9.4,24.7c-1.6,3.7-0.2,8.1,3.3,10.1l10.2,5.9c3.5,2,8,1.1,10.4-2.2l16.8-20.6
	c2.1-2.6,5.5-3.7,8.2-2.6c3.4,1.4,5.7,2.2,9.9,3.6c3.3,1.1,5.6,4.2,5.5,7.7l-0.4,26.4c-0.2,4.1,2.6,7.7,6.6,8.4l11.6,2
	c4,0.7,7.9-1.7,9.1-5.6l8.6-25c1.1-3.3,4.3-5.5,7.8-5.4c1.6,0,3.3,0.1,4.9,0.1s3.3,0,4.9-0.1c3.5-0.1,6.6,2.1,7.8,5.4l8.6,25
	c1.2,3.9,5.1,6.3,9.1,5.6l11.6-2c4-0.7,6.8-4.3,6.6-8.4l-0.4-26.4c-0.1-3.5,2.2-6.6,5.5-7.7c4.2-1.4,7-2.5,9.6-3.5
	c2.6-0.9,5.8-1,8.3,2.1l17,20.9c2.4,3.3,6.9,4.2,10.4,2.2l10.2-5.9c3.5-2,5-6.4,3.3-10.1l-9.4-24.7c-1.2-3.3-0.2-7,2.5-9.1
	c2.5-2,5-4.1,7.4-6.2c2.6-2.3,6.4-2.7,9.4-0.9l22.7,13.6c3.4,2.2,7.9,1.6,10.5-1.5l7.5-9c2.6-3.1,2.5-7.7-0.3-10.6l-17.3-19.9
	c-2.3-2.6-2.6-6.5-0.7-9.5c1.7-2.7,3.3-5.5,4.8-8.4c1.7-3.1,5.1-4.7,8.6-4.1l25.9,5c4,0.9,8-1.2,9.4-5l4-11c1.4-3.8-0.3-8.1-3.9-9.9
	l-23.1-12.8c-3.1-1.7-4.6-5.2-3.9-8.6c0.6-3.2,1.2-6.3,1.7-9.5c0.5-3.5,3.2-6.2,6.6-6.8l26.1-4.2c4-0.5,7.1-3.9,7.1-7.9v-11.7
	C464,246.1,461,242.6,456.9,242.2z M181.8,356.9c-5.2,9-17.4,10.7-25,3.6C129.2,334.2,112,297.1,112,256
	c0-40.9,17.1-77.9,44.5-104.1c7.5-7.2,19.8-5.5,25,3.5l56,96.6c1.4,2.5,1.4,5.5,0,8L181.8,356.9z M396,289.7
	C380.9,353,323.9,400,256,400c-14.1,0-27.8-2-40.6-5.8c-9.9-2.9-14.5-14.4-9.3-23.3l55.7-96.9c1.4-2.5,4.1-4,6.9-4h111.7
	C390.8,270,398.4,279.6,396,289.7z M380.5,242H268.7c-2.9,0-5.5-1.5-6.9-4l-56.1-96.7c-5.2-8.9-0.7-20.4,9.2-23.4
	c13-3.9,26.8-5.9,41.1-5.9c67.9,0,124.9,47,140,110.3C398.4,232.4,390.8,242,380.5,242z"/>
</svg>
