<?xml version="1.0" encoding="utf-8"?>
<!-- Generator: Adobe Illustrator 22.0.1, SVG Export Plug-In . SVG Version: 6.00 Build 0)  -->
<svg version="1.1" id="Layer_1" xmlns="http://www.w3.org/2000/svg" xmlns:xlink="http://www.w3.org/1999/xlink" x="0px" y="0px"
	 viewBox="0 0 512 512" style="enable-background:new 0 0 512 512;" xml:space="preserve">
<path d="M376,192H188v-48c0-18.1,7.1-35.1,20-48s29.9-20,48-20s35.1,7.1,48,20s20,29.9,20,48h0l0,0c0,7.7,6.3,14,14,14s14-6.3,14-14
	l0,0h0c0-53.2-43.9-96.7-97.3-96C202,48.7,160,92.5,160,145.3V192h-24c-22,0-40,18-40,40v192c0,22,18,40,40,40h240c22,0,40-18,40-40
	V232C416,210,398,192,376,192z M270,316.8v68.8c0,7.5-5.8,14-13.3,14.4c-8,0.4-14.7-6-14.7-14v-69.2c-11.5-5.6-19.1-17.8-17.9-31.7
	c1.4-15.5,14.1-27.9,29.6-29c18.7-1.3,34.3,13.5,34.3,31.9C288,300.7,280.7,311.6,270,316.8z"/>
</svg>
