<?xml version="1.0" encoding="utf-8"?>
<!-- Generator: Adobe Illustrator 22.0.1, SVG Export Plug-In . SVG Version: 6.00 Build 0)  -->
<svg version="1.1" id="Layer_1" xmlns="http://www.w3.org/2000/svg" xmlns:xlink="http://www.w3.org/1999/xlink" x="0px" y="0px"
	 viewBox="0 0 512 512" style="enable-background:new 0 0 512 512;" xml:space="preserve">
<g>
	<g>
		<path d="M416,64H96c-17.7,0-32,14.3-32,32v320c0,17.7,14.3,32,32,32h320c17.7,0,32-14.3,32-32V96C448,78.3,433.7,64,416,64z
			 M420,412c0,4.4-3.6,8-8,8H100c-4.4,0-8-3.6-8-8V100c0-4.4,3.6-8,8-8h312c4.4,0,8,3.6,8,8V412z"/>
	</g>
	<path d="M363.6,192.9L346,174.8c-0.7-0.8-1.8-1.2-2.8-1.2c0,0,0,0,0,0c-1.1,0-2.1,0.4-2.8,1.2l-122,122.9L174,253.3
		c-0.8-0.8-1.8-1.2-2.8-1.2c-1,0-2,0.4-2.8,1.2l-17.8,17.8c-1.6,1.6-1.6,4.1,0,5.7l56,56c3.6,3.6,8,5.7,11.7,5.7
		c5.3,0,9.9-3.9,11.6-5.5c0,0,0,0,0.1,0l133.7-134.4C365.1,196.9,365.1,194.4,363.6,192.9z"/>
</g>
</svg>
