<?xml version="1.0" encoding="utf-8"?>
<!-- Generator: Adobe Illustrator 18.1.1, SVG Export Plug-In . SVG Version: 6.00 Build 0)  -->
<svg version="1.1" id="Layer_1" xmlns="http://www.w3.org/2000/svg" xmlns:xlink="http://www.w3.org/1999/xlink" x="0px" y="0px"
	 viewBox="0 0 512 512" enable-background="new 0 0 512 512" xml:space="preserve">
<path d="M223.9,48c25.7,134.6-96.7,131.9-95.9,267.4c0.7,111,105,148.6,128.1,148.6c23.2,0,113.9-24.1,126.9-148.6
	C393.7,214,310.6,107.4,223.9,48z M256.1,456.6c0,0-40.7-33.3-40.7-74.3c0-41,40.6-74.3,40.6-74.3s40.3,33.3,40.3,74.3
	C296.3,423.3,256.1,456.6,256.1,456.6z M367.2,314c-2.8,26.9-9.7,50.6-20.5,70.5c-8.7,16.2-20.1,29.8-33.7,40.6
	c-6.5,5.2-13.3,9.4-19.8,12.8c10-14.8,19.1-34.1,19.1-55.6c0-47.2-43.8-83.9-45.7-85.4l-10.6-8.7l-10.6,8.7
	c-1.9,1.5-46,38.2-46,85.4c0,20.3,8.2,38.6,17.6,53.1c-7.4-4-15.2-9.1-23-15.3c-14.7-11.8-26.4-25.6-34.7-41.2
	c-10.1-18.8-15.2-40.2-15.4-63.5c-0.4-59.4,24.1-88.9,50-120.1c24.6-29.6,49.8-60.1,49.5-113.4c32.5,26.8,61.3,58.5,82.8,91.8
	C357.6,222,371.7,270.5,367.2,314z"/>
</svg>
