<?xml version="1.0" encoding="utf-8"?>
<!-- Generator: Adobe Illustrator 22.0.1, SVG Export Plug-In . SVG Version: 6.00 Build 0)  -->
<svg version="1.1" id="Layer_1" xmlns="http://www.w3.org/2000/svg" xmlns:xlink="http://www.w3.org/1999/xlink" x="0px" y="0px"
	 viewBox="0 0 512 512" style="enable-background:new 0 0 512 512;" xml:space="preserve">
<path d="M463,192l-147.1,0L271.2,58.6C269,52.1,262.9,48,256,48s-13,4.1-15.2,10.6L196.1,192H48h0c-8.8,0-16,7.2-16,16
	c0,0.9,0.1,1.9,0.3,2.7c0.2,3.5,1.8,7.4,6.7,11.3l120.9,85.2l-46.4,134.9c-2.3,6.5,0,13.8,5.5,18c2.9,2.1,5.6,3.9,9,3.9
	c3.3,0,7.2-1.7,10-3.6l118-84.1l118,84.1c2.8,2,6.7,3.6,10,3.6c3.4,0,6.1-1.7,8.9-3.9c5.6-4.2,7.8-11.4,5.5-18l-46.4-134.9l119.9-86
	l2.9-2.5c2.6-2.8,5.2-6.6,5.2-10.7C480,199.2,471.8,192,463,192z"/>
</svg>
