<?xml version="1.0" encoding="utf-8"?>
<!-- Generator: Adobe Illustrator 22.0.1, SVG Export Plug-In . SVG Version: 6.00 Build 0)  -->
<svg version="1.1" id="Layer_1" xmlns="http://www.w3.org/2000/svg" xmlns:xlink="http://www.w3.org/1999/xlink" x="0px" y="0px"
	 viewBox="0 0 512 512" style="enable-background:new 0 0 512 512;" xml:space="preserve">
<g>
	<g>
		<g>
			<path d="M50,124c-1.1,0-2,0.9-2,2v59.9c0,14.4,9.6,27,23.4,30.8l104,29.4c1.3,0.4,2.5-0.6,2.5-1.9V126c0-1.1-0.9-2-2-2H50z"/>
			<path d="M256,282.2"/>
			<path d="M204,126v126.2c0,0.9,0.6,1.7,1.5,1.9l50,13.9c0.4,0.1,0.7,0.1,1.1,0l56-15.6c0.9-0.2,1.5-1,1.5-1.9V126c0-1.1-0.9-2-2-2
				H206C204.9,124,204,124.9,204,126z"/>
			<path d="M334,126v119.2c0,1.3,1.3,2.3,2.6,1.9l104-30.4c13.8-3.9,23.4-16.5,23.4-30.8V126c0-1.1-0.9-2-2-2H336
				C334.9,124,334,124.9,334,126z"/>
			<path d="M48,64v38c0,1.1,0.9,2,2,2h412c1.1,0,2-0.9,2-2V64c0-17.7-14.3-32-32-32H80C62.3,32,48,46.3,48,64z"/>
		</g>
		<g>
			<path d="M256,308.2"/>
		</g>
	</g>
	<g>
		<circle cx="256" cy="352" r="56"/>
		<path d="M351.3,266.6l-51.5,13.8c24,14.8,40.1,41.3,40.1,71.6c0,46.3-37.7,84-84,84s-84-37.7-84-84c0-30.4,16.2-57,40.4-71.8
			l-51.3-14.1C140.5,288.8,128,318.9,128,352c0,70.7,57.3,128,128,128s128-57.3,128-128C384,319.2,371.6,289.3,351.3,266.6z"/>
		<path d="M256,296c30.9,0,56,25.1,56,56s-25.1,56-56,56s-56-25.1-56-56S225.1,296,256,296z"/>
	</g>
</g>
</svg>
