<?xml version="1.0" encoding="utf-8"?>
<!-- Generator: Adobe Illustrator 18.1.1, SVG Export Plug-In . SVG Version: 6.00 Build 0)  -->
<svg version="1.1" id="Layer_1" xmlns="http://www.w3.org/2000/svg" xmlns:xlink="http://www.w3.org/1999/xlink" x="0px" y="0px"
	 viewBox="0 0 512 512" enable-background="new 0 0 512 512" xml:space="preserve">
<g>
	<path d="M261.1,80l5.6,22.4l2.5,9.9l10,1.9l12.3,2.4l9.7,1.9l6-7.9L321.4,92l6.6,2.7l-3.4,22.7l-1.5,9.9l8.3,5.7l10.7,7.3l8.3,5.7
		l8.7-5l19.6-11.3l5.1,5.1l-11.3,19l-5.3,8.9l6,8.5l7.5,10.6l5.6,8l9.7-1.3l22.1-3.1l2.8,6.7l-17.8,13.5l-7.9,6l1.8,9.7l2.5,13.2
		l1.9,9.9l9.8,2.6l21.1,5.6v7.3l-21.1,5.5l-9.9,2.6l-1.8,10.1l-2.5,13.5l-1.8,9.7l7.9,5.9l17.3,13l-2.8,6.6l-21.5-3.1l-9.8-1.4
		l-5.6,8.1l-7.9,11.4l-5.8,8.4l5.1,8.8l10.6,18.3l-5.2,5.2L359,371.8l-9-5.3l-8.4,6.1l-10.2,7.4l-7.8,5.7l1.4,9.6l3.2,21.4l-6.7,2.8
		l-13.2-17.3l-6.1-7.9l-9.8,2l-13.6,2.7l-9.9,2l-2.4,9.8L261,432h-7.2l-5.7-21.4l-2.5-9.6l-9.7-2l-13.4-2.8l-10-2.1l-6.1,8.2
		l-13.2,17.8l-6.7-2.8l2.9-22.1l1.3-10l-8.4-5.5l-11.2-7.3l-8.4-5.5l-8.6,5.2l-19.5,11.7l-5-5l11.7-20l4.9-8.4l-5.2-8.2l-7.1-11.3
		l-5.5-8.8l-10.3,1.5L95.5,327l-2.8-6.6l18.4-13.8l8.1-6.1l-2-9.9l-2.5-12.5l-2-9.9l-9.7-2.5L80,259.9v-7.1l23-5.8l9.6-2.4l2.1-9.7
		l2.6-12.2l2.2-10l-8.2-6.2l-19-14.3l2.8-6.7l23.2,3.3l10.2,1.4l5.5-8.7l6.7-10.5l5.3-8.3l-5.1-8.5l-12.4-20.8l5-5l20.6,12.3l8.3,5
		l8.3-5.1l11.7-7.2l8.9-5.5l-1.4-10.3l-3.2-23.5l6.7-2.8l14.1,19l6,8.1l9.9-1.9l12.1-2.3l9.9-1.9l2.6-9.8l6-22.8H261.1 M273.5,64
		h-32l-9.2,34.7l-12.1,2.3l-21.5-29.1l-29.6,12.3l4.8,35.7l-11.7,7.2L131,108.3l-22.6,22.6l18.8,31.5l-6.7,10.5l-35.5-5l-12.2,29.6
		l28.9,21.7L99,231.4l-35,8.9v32l34.9,8.9l2.5,12.5l-28.3,21.3l12.3,29.5l35-5l7.1,11.3l-17.9,30.6l22.6,22.6l30.2-18.2l11.2,7.3
		l-4.5,34.3l29.6,12.2l20.6-27.8l13.4,2.8l8.8,33.4h32l8.3-33.4l13.6-2.7l20.7,27l29.6-12.2l-5-33.7l10.2-7.4l29,16.9l22.6-22.6
		L385.7,351l7.9-11.4l33.8,4.8l12.3-29.5l-27.2-20.5l2.5-13.5l33-8.6v-32l-33-8.7l-2.5-13.2l27.7-20.9L428,167.8l-34.4,4.8
		l-7.5-10.6l17.7-29.7l-22.6-22.6L351,127.1l-10.7-7.3l5.3-35l-29.5-12.3l-21.6,28.3l-12.3-2.4L273.5,64L273.5,64z"/>
	<g>
		<path d="M256,128c-70.7,0-128,57.3-128,128s57.3,128,128,128s128-57.3,128-128S326.7,128,256,128z M145.4,273.5
			c-0.9-5.8-1.4-11.6-1.4-17.5c0-29.9,11.7-58,32.8-79.2C198,155.7,226.1,144,256,144c6,0,11.9,0.5,17.8,1.4
			c1.4,0.2,2.9,0.5,4.3,0.8l-27.8,103.9L146.1,278C145.9,276.5,145.6,275,145.4,273.5z M325.7,343.7C306,359.4,281.6,368,256,368
			c-29.9,0-58-11.7-79.2-32.8c-11.1-11.1-19.5-24-25.1-38.2c-0.4-1.1-0.9-2.2-1.2-3.3l103.4-27.5l74.9,74.9
			C327.8,342,326.8,342.8,325.7,343.7z M342.9,326.6c-0.9,1.1-1.8,2.2-2.8,3.3l-75-75l28-104.6c1.1,0.4,2.2,0.8,3.3,1.2
			c14.3,5.6,27.4,14.1,38.6,25.2C356.3,198,368,226.1,368,256C368,282,359.2,306.7,342.9,326.6z"/>
	</g>
</g>
</svg>
