<?xml version="1.0" encoding="utf-8"?>
<!-- Generator: Adobe Illustrator 18.1.1, SVG Export Plug-In . SVG Version: 6.00 Build 0)  -->
<svg version="1.1" id="Layer_1" xmlns="http://www.w3.org/2000/svg" xmlns:xlink="http://www.w3.org/1999/xlink" x="0px" y="0px"
	 viewBox="0 0 512 512" enable-background="new 0 0 512 512" xml:space="preserve">
<g>
	<polygon points="380.1,64.1 380.1,64.1 380.1,64.1 	"/>
	<path d="M275.1,57.3c-9.4-6-23.3-9.6-37.9-9.6c-14.3,0-30.4,2.5-46.8,9.3c-46.5,19-74.1,45.5-81.2,52.5c-7,7-16.8,18-22.9,26.7
		c-6.1,8.7,1.9,21-6.1,29s-24.8,0-24.8,0c-1.4,0-2.9,0.5-3.9,1.6l-34.2,33.9c-2.2,2.2-2.2,5.7,0,7.8l63.6,63.2
		c1.1,1.1,2.5,1.6,3.9,1.6s2.9-0.5,3.9-1.6l33.2-34.8c2.2-2.2,2.2-5.7,0-7.8c0,0-5.3-5.2-12.1-12c-6.8-6.8,0.8-19.4,5.3-23.4
		c4.5-4.1,11.6-6.8,21.2-6.8c4.3,0,7.4,0.7,11.4,1.8c12.2,3.4,25.8,15.9,50.9,40.8l-3.9,6.5c-2.3,3.8-0.9,8.3,1.3,10.4
		c0,0-5-4.9,13.1,13.2l50.1-47.2c-19.2-18.9-14.5-14.2-14.5-14.2c-1.4-1.4-3.8-2.3-6.3-2.3c-1.4,0-2.9,0.3-4.2,1l-5.7,3
		c-28.1-27.8-35.4-40.3-34.3-61.8c1.1-22.4,12.3-37.2,30.6-52.7c24.8-21.1,60.7-15.3,60.7-15.3C293.5,69.8,281.4,61.3,275.1,57.3z"
		/>
	<path d="M462.7,400.1c0,0-69-57.3-130.4-115.8l-47.8,50.7c58.6,60.7,115.1,127.8,115.1,127.8c1.1,1.1,2.5,1.6,3.9,1.6
		s2.9-0.5,3.9-1.6l55.2-54.8C464.9,405.8,464.9,402.3,462.7,400.1z"/>
	<g>
		<path d="M479.5,125.1L427,177.8l-51.2-9.3l-9.2-51.2l52.5-52.7c-11.2-11.2-26.8-16.6-39-16.6c-0.7,0-1.4,0-2,0.1
			c-12.5,0.7-39.3,7.7-60,29.7C298.1,99,277,138.5,295.6,182.3c2.2,5.3,4.7,12.3-2.7,19.7c-1.5,1.4-9.9,9.4-22.5,21.3
			c-3.6,3.4-7.5,7-11.6,11c-8.1,7.6-17.1,16.2-26.8,25.3c-3.8,3.6-7.7,7.3-11.6,11C163.3,324.5,93.3,390.3,93.3,390.3
			c-18,15.5-16.7,44.2-0.1,60.9c8.5,8.4,20,12.8,31.3,12.8c11.1,0,21.9-4.2,29.6-13.1c0,0,65.6-69.9,119.4-127.1
			c3.7-4,7.4-7.9,11-11.7c9.3-9.9,18-19.1,25.8-27.3c3.9-4.2,7.6-8.1,11-11.6c11.5-12.2,19.4-20.4,21-22c4-3.9,7.7-5.1,11.1-5.1
			c3.3,0,6.3,1.2,8.6,2.4c9.9,5.1,21,7.4,32.4,7.4c26.8,0,55-12.4,72.2-29.6c24.4-24.4,28.9-48,29.6-60.1
			C496.9,154.3,492.8,138.4,479.5,125.1z M137.3,426.4c-5.5,5.4-14.4,5.4-19.9,0c-5.4-5.5-5.4-14.4,0-19.9c5.5-5.4,14.4-5.4,19.9,0
			C142.7,412,142.7,421,137.3,426.4z"/>
	</g>
</g>
</svg>
