<?xml version="1.0" encoding="utf-8"?>
<!-- Generator: Adobe Illustrator 22.0.1, SVG Export Plug-In . SVG Version: 6.00 Build 0)  -->
<svg version="1.1" id="Layer_1" xmlns="http://www.w3.org/2000/svg" xmlns:xlink="http://www.w3.org/1999/xlink" x="0px" y="0px"
	 viewBox="0 0 512 512" style="enable-background:new 0 0 512 512;" xml:space="preserve">
<path d="M352,56C352,56,352,56,352,56C352,56,352,56,352,56c-0.3,0-0.7,0-1,0c-39.7,0-74.8,21-95,52c-20.2-31-55.3-52-95-52
	c-0.3,0-0.7,0-1,0c0,0,0,0,0,0c0,0,0,0,0,0C98.1,56.6,48,106.9,48,169c0,37,16.2,89.5,47.8,132.7C156,384,256,456,256,456
	s100-72,160.2-154.3C447.8,258.5,464,206,464,169C464,106.9,413.9,56.6,352,56z M393.6,285.2C356.4,336,302.2,383.6,269,410.5
	c-5.2,4.2-13,0.5-13-6.2l0-205.7c0-26.8,8.5-52.7,23.3-75c0.1-0.1,0.1-0.2,0.2-0.2c7.7-11.8,18.2-21.6,30.4-28.5
	c12.6-7.1,26.8-10.8,41.1-10.8l0.2,0c0.2,0,0.4,0,0.6,0c0,0,0,0,0.1,0c22.5,0.2,43.7,9.1,59.6,25.1c15.9,16,24.6,37.3,24.6,59.8
	C436,198,422.9,245.1,393.6,285.2z"/>
</svg>
