<?xml version="1.0" encoding="utf-8"?>
<!-- Generator: Adobe Illustrator 18.1.1, SVG Export Plug-In . SVG Version: 6.00 Build 0)  -->
<svg version="1.1" id="Layer_1" xmlns="http://www.w3.org/2000/svg" xmlns:xlink="http://www.w3.org/1999/xlink" x="0px" y="0px"
	 viewBox="0 0 512 512" enable-background="new 0 0 512 512" xml:space="preserve">
<g>
	<polygon points="120.4,40 377.8,480 391.6,472 134.2,32 	"/>
	<path d="M256,144c-12.3,0-24,1.3-35.5,3.8l6.6,11.3c9.4-1.8,19-2.7,28.9-2.7c74,0,131,51.1,174,99.6c-26.9,27.3-59.2,60.6-99,80.7
		l6.3,10.8c45.8-23.3,82.4-62.9,110.7-91.5C403.6,204.6,340.6,144,256,144z"/>
	<path d="M256,355.6c-76.1,0-121.6-45.8-174-99.6c35.8-36.3,67-63.7,99.2-80.5l-6.3-10.8C138.4,183.9,103.3,215.4,64,256
		c57.8,59.2,106.3,112,192,112c12.3,0,24.1-1.4,35.5-3.9l-6.6-11.3C275.5,354.6,265.9,355.6,256,355.6z"/>
	<path d="M313,306c12.3-13.2,19.8-30.8,19.8-50c0-41.2-34.4-74.7-76.8-74.7c-5.1,0-10.2,0.5-15,1.4l6.7,11.5
		c2.7-0.3,5.5-0.5,8.3-0.5c35.3,0,64,27.9,64,62.2c0,14.5-5.1,27.9-13.7,38.5L313,306z"/>
	<path d="M199,206c-12.3,13.2-19.8,30.8-19.8,50c0,41.2,34.4,74.7,76.8,74.7c5.2,0,10.2-0.5,15.1-1.4l-6.7-11.5
		c-2.7,0.3-5.5,0.5-8.3,0.5c-35.3,0-64-27.9-64-62.2c0-14.5,5.1-27.9,13.7-38.5L199,206z"/>
	<path d="M216.4,235.7c-3.3,6.1-5.2,13-5.2,20.3c0,23.3,18.8,42.3,42.5,43.5l-8.3-14.1c-12.4-4.3-21.4-15.8-21.4-29.3
		c0-2.1,0.2-4.2,0.6-6.2L216.4,235.7z"/>
	<path d="M295.6,276.3c3.3-6.1,5.2-13,5.2-20.3H288c0,2.1-0.2,4.2-0.6,6.2L295.6,276.3z"/>
</g>
</svg>
