<?xml version="1.0" encoding="utf-8"?>
<!-- Generator: Adobe Illustrator 22.0.1, SVG Export Plug-In . SVG Version: 6.00 Build 0)  -->
<svg version="1.1" id="Layer_1" xmlns="http://www.w3.org/2000/svg" xmlns:xlink="http://www.w3.org/1999/xlink" x="0px" y="0px"
	 viewBox="0 0 512 512" style="enable-background:new 0 0 512 512;" xml:space="preserve">
<g>
	<path d="M425.9,170.4H204.3c-21,0-38.1,17.1-38.1,38.1v154.3c0,21,17.1,38,38.1,38h126.8c2.8,0,5.6,1.2,7.6,3.2l63,58.1
		c3.5,3.4,9.3,2,9.3-2.9l0-50.6c0-6,3.8-7.9,9.8-7.9h1c21,0,42.1-16.9,42.1-38V208.5C464,187.4,446.9,170.4,425.9,170.4z"/>
	<g>
		<path d="M174.4,145.9h177.4V80.6c0-18-14.6-32.6-32.6-32.6H80.6C62.6,48,48,62.6,48,80.6v165.2c0,18,14.6,32.6,32.6,32.6h61.1
			v-99.9C141.8,160.5,156.4,145.9,174.4,145.9z"/>
	</g>
</g>
</svg>
