<?xml version="1.0" encoding="utf-8"?>
<!-- Generator: Adobe Illustrator 22.0.1, SVG Export Plug-In . SVG Version: 6.00 Build 0)  -->
<svg version="1.1" id="Layer_1" xmlns="http://www.w3.org/2000/svg" xmlns:xlink="http://www.w3.org/1999/xlink" x="0px" y="0px"
	 viewBox="0 0 512 512" style="enable-background:new 0 0 512 512;" xml:space="preserve">
<g>
	<path d="M146,80h220c9.9,0,18-8.1,18-18l0,0c0-9.9-8.1-18-18-18H146c-9.9,0-18,8.1-18,18l0,0C128,71.9,136.1,80,146,80z"/>
	<path d="M398,100H114c-9.9,0-18,8.1-18,18c0,9.3,6.9,17.1,16,18v300c0,13.2,10.8,24,24,24h88c4.4,0,8-3.6,8-8v-40c0-4.4,3.6-8,8-8
		h32c4.4,0,8,3.6,8,8v40c0,4.4,3.6,8,8,8h88c13.2,0,24-10.8,24-24V136c9.1-0.9,16-8.7,16-18C416,108.1,407.9,100,398,100z M192,364
		c0,4.4-3.6,8-8,8h-16c-4.4,0-8-3.6-8-8v-16c0-4.4,3.6-8,8-8h16c4.4,0,8,3.6,8,8V364z M192,300c0,4.4-3.6,8-8,8h-16
		c-4.4,0-8-3.6-8-8v-16c0-4.4,3.6-8,8-8h16c4.4,0,8,3.6,8,8V300z M192,236c0,4.4-3.6,8-8,8h-16c-4.4,0-8-3.6-8-8v-16
		c0-4.4,3.6-8,8-8h16c4.4,0,8,3.6,8,8V236z M192,172c0,4.4-3.6,8-8,8h-16c-4.4,0-8-3.6-8-8v-16c0-4.4,3.6-8,8-8h16c4.4,0,8,3.6,8,8
		V172z M272,364c0,4.4-3.6,8-8,8h-16c-4.4,0-8-3.6-8-8v-16c0-4.4,3.6-8,8-8h16c4.4,0,8,3.6,8,8V364z M272,300c0,4.4-3.6,8-8,8h-16
		c-4.4,0-8-3.6-8-8v-16c0-4.4,3.6-8,8-8h16c4.4,0,8,3.6,8,8V300z M272,236c0,4.4-3.6,8-8,8h-16c-4.4,0-8-3.6-8-8v-16
		c0-4.4,3.6-8,8-8h16c4.4,0,8,3.6,8,8V236z M272,172c0,4.4-3.6,8-8,8h-16c-4.4,0-8-3.6-8-8v-16c0-4.4,3.6-8,8-8h16c4.4,0,8,3.6,8,8
		V172z M352,364c0,4.4-3.6,8-8,8h-16c-4.4,0-8-3.6-8-8v-16c0-4.4,3.6-8,8-8h16c4.4,0,8,3.6,8,8V364z M352,300c0,4.4-3.6,8-8,8h-16
		c-4.4,0-8-3.6-8-8v-16c0-4.4,3.6-8,8-8h16c4.4,0,8,3.6,8,8V300z M352,236c0,4.4-3.6,8-8,8h-16c-4.4,0-8-3.6-8-8v-16
		c0-4.4,3.6-8,8-8h16c4.4,0,8,3.6,8,8V236z M352,172c0,4.4-3.6,8-8,8h-16c-4.4,0-8-3.6-8-8v-16c0-4.4,3.6-8,8-8h16c4.4,0,8,3.6,8,8
		V172z"/>
</g>
</svg>
