<?xml version="1.0" encoding="utf-8"?>
<!-- Generator: Adobe Illustrator 22.0.1, SVG Export Plug-In . SVG Version: 6.00 Build 0)  -->
<svg version="1.1" id="Layer_1" xmlns="http://www.w3.org/2000/svg" xmlns:xlink="http://www.w3.org/1999/xlink" x="0px" y="0px"
	 viewBox="0 0 512 512" style="enable-background:new 0 0 512 512;" xml:space="preserve">
<g>
	<path d="M254.9,293.4c73,0.6,132.3-58.7,131.7-131.8C386,91.7,326.9,32.6,257.1,32c-73-0.6-132.3,58.7-131.7,131.8
		C126,233.7,185.1,292.8,254.9,293.4z M251.2,89.3c44.3-2.8,80.9,33.8,78.1,78.2c-2.3,36.6-31.9,66.2-68.5,68.6
		c-44.3,2.8-80.9-33.8-78.1-78.2C185,121.3,214.6,91.7,251.2,89.3z"/>
	<path d="M256,308.4c-42.8,0-81.4-18.1-108.5-47c-1.9-2-5.2-1.7-6.6,0.7L65.1,394.8c-3.1,5.5,0.8,12.3,7.2,12.3h80.1
		c2.9,0,5.6,1.5,7.1,4l39,64.9c3.4,5.7,11.8,5.2,14.6-0.8l43-94.6l31.3-68.9c1.4-3-1.2-6.3-4.5-5.7
		C274.1,307.5,265.2,308.4,256,308.4z"/>
	<path d="M364.5,261.3c-14.6,15.5-32.4,28-52.5,36.1c-1,0.4-1.8,1.1-2.2,2.1l-44.7,97.7c-0.5,1.1-0.5,2.3,0,3.4l33.9,74.5
		c2.7,6,11.2,6.5,14.6,0.8l39-64.9c1.5-2.5,4.2-4,7.1-4h80.1c6.3,0,10.3-6.8,7.2-12.3l-75.8-132.8
		C369.7,259.7,366.4,259.3,364.5,261.3z"/>
</g>
</svg>
