<?xml version="1.0" encoding="utf-8"?>
<!-- Generator: Adobe Illustrator 18.1.1, SVG Export Plug-In . SVG Version: 6.00 Build 0)  -->
<svg version="1.1" id="Layer_1" xmlns="http://www.w3.org/2000/svg" xmlns:xlink="http://www.w3.org/1999/xlink" x="0px" y="0px"
	 viewBox="0 0 512 512" enable-background="new 0 0 512 512" xml:space="preserve">
<path d="M462.4,216.9L428.2,183c-1.1-1.1-2.5-1.6-3.9-1.6c-1.4,0-2.9,0.5-3.9,1.6l-3.7,3.7c-5.3,0-13.6-0.7-18.1-5.2
	c-6.9-6.8,1.1-20.3-5.1-29c-6.1-8.7-15.9-19.7-22.9-26.7c-7-7-34.6-33.4-81.2-52.5c-16.4-6.7-32.5-9.3-46.8-9.3
	c-26.3,0-46.9,8.5-54.2,15.2c-5.4,5-11.1,14-3.1,14c0.7,0,1.5-0.1,2.4-0.2c4.4-0.7,13.2-1.5,23.2-1.5c15.6,0,34.2,2.1,44.1,10
	c16.2,13,29.5,30.3,30.6,52.7c1.1,21.5-6.2,34-34.3,61.8l-5.7-3c-1.3-0.7-2.8-1-4.2-1c-2.5,0-4.9,0.9-6.3,2.3c0,0-4.4,4.1-46.4,45.8
	C126.4,321.7,49.6,383.8,49.6,383.8c-2.2,2.2-2.2,5.7,0,7.8l55.2,54.8c1.1,1.1,2.5,1.6,3.9,1.6s2.9-0.5,3.9-1.6
	c0,0,62.6-76.2,124.7-137.8c42-41.7,46.1-46,46.1-46c2.2-2.2,3.6-6.6,1.3-10.4l-3.9-6.5c25.1-24.9,35.2-35.5,47.5-38.9
	c4-1.1,8.3-1.5,12.7-1.5c9.6,0,19,2.2,23.3,4.5c5.1,2.7,9.7,11.3,10.2,18.6l-9.5,9.5c-2.2,2.2-2.2,5.7,0,7.8l34.2,33.9
	c1.1,1.1,2.5,1.6,3.9,1.6s2.9-0.5,3.9-1.6l55.2-54.8C464.5,222.6,464.5,219,462.4,216.9z M226.2,297.2
	c-49.4,49-99.4,107.5-118.2,129.8l-38.9-38.6c22.6-18.7,81.5-68.2,130.7-117.1c23.4-23.2,35.1-34.7,40.8-40.3l25.9,25.9
	C260.8,262.8,249.2,274.4,226.2,297.2z M403.2,260.9l-19.3-19.2l2-2l3.2-5.2l1.5-7.3c-0.8-11.2-7.5-25.6-18.6-31.5
	c-7.3-3.9-19.4-6.4-30.9-6.4c-6.1,0-11.8,0.7-17,2.1c-15.6,4.3-26.5,15.2-50.4,38.9l-4,4l-1.7,1.6l-7.1-7.1l1.4-1.4
	c28.7-28.4,40.4-45,39-73.9c-1.1-24.1-13.4-45.8-36.5-64.5l0,0l0,0c-4.6-3.7-10.4-6.6-17.3-8.8c12.2,0.6,24.2,3.2,35.7,7.9
	c39.3,16.1,64.5,37.6,76,49c6.2,6.1,15.1,16.2,20.7,23.9c0.1,1.2-0.1,3.5-0.2,5.2c-0.5,6.7-1.2,18.2,7.5,26.8
	c6.6,6.5,16.5,10,29.4,10l7.6-1.2l19.3,19.1L403.2,260.9z"/>
</svg>
