<?xml version="1.0" encoding="utf-8"?>
<!-- Generator: Adobe Illustrator 22.0.1, SVG Export Plug-In . SVG Version: 6.00 Build 0)  -->
<svg version="1.1" id="Layer_1" xmlns="http://www.w3.org/2000/svg" xmlns:xlink="http://www.w3.org/1999/xlink" x="0px" y="0px"
	 viewBox="0 0 512 512" style="enable-background:new 0 0 512 512;" xml:space="preserve">
<g>
	<path d="M256,64C132.3,64,32,164.2,32,287.9c0,57,21.3,109,56.3,148.5c1.1,1.2,2.1,2.4,3.2,3.5c4.8,5.1,11.5,8.1,18.5,8.1
		c7.1,0,13.8-3,18.6-8.2c31.6-34.4,77-55.9,127.4-55.9s95.8,21.6,127.4,55.9c4.8,5.2,11.5,8.2,18.6,8.2c7,0,13.7-2.9,18.5-8.1
		c1.1-1.2,2.1-2.3,3.2-3.5c35-39.5,56.3-91.5,56.3-148.5C480,164.2,379.7,64,256,64z M242,109.9c0-7.7,6.3-14,14-14s14,6.3,14,14v36
		c0,7.7-6.3,14-14,14s-14-6.3-14-14V109.9z M114,301.9H78c-7.7,0-14-6.3-14-14s6.3-14,14-14h36c7.7,0,14,6.3,14,14
		S121.7,301.9,114,301.9z M165.5,197.4L165.5,197.4c-5.4,5.4-14.4,5.4-19.8,0L120.2,172c-5.4-5.4-5.4-14.4,0-19.8h0
		c5.4-5.4,14.4-5.4,19.8,0l25.5,25.5C170.9,183.1,170.9,192,165.5,197.4z M326.1,231.9l-47.5,75.5c-1.9,2.6-4.3,5.1-7,7
		c-13.5,9.7-32.3,6.5-42-7s-6.5-32.3,7-42l75.5-47.5c3.4-2.4,8.1-2.5,11.7,0C328.3,221.1,329.3,227.4,326.1,231.9z M366.3,197.4
		c-5.4,5.4-14.4,5.4-19.8,0l0,0c-5.4-5.4-5.4-14.4,0-19.8l25.5-25.5c5.4-5.4,14.4-5.4,19.8,0h0c5.4,5.4,5.4,14.4,0,19.8L366.3,197.4
		z M434,301.9h-36c-7.7,0-14-6.3-14-14s6.3-14,14-14h36c7.7,0,14,6.3,14,14S441.7,301.9,434,301.9z"/>
</g>
</svg>
