<?xml version="1.0" encoding="utf-8"?>
<!-- Generator: Adobe Illustrator 18.1.1, SVG Export Plug-In . SVG Version: 6.00 Build 0)  -->
<svg version="1.1" id="Layer_1" xmlns="http://www.w3.org/2000/svg" xmlns:xlink="http://www.w3.org/1999/xlink" x="0px" y="0px"
	 viewBox="0 0 512 512" enable-background="new 0 0 512 512" xml:space="preserve">
<g>
	<path d="M391,367l-0.2-0.1L323.7,256H188.6L122,366.9l-0.2,0l-0.2,0.3c-5.5,8.3-8.3,18.8-8.3,24.7c0,12.9,4.5,16.8,6,18.1
		c4.5,3.8,12.7,6,23.7,6H369c10.3,0,18.2-2.5,23-6.8c4.2-3.8,6.5-10,6.7-17.8c0.2-5.9-2.1-16-7.5-24.2L391,367z"/>
	<path d="M436.9,354.4L320,159V64h16V48H176v16h16v95L76.1,354.4C67.7,370.3,63.6,385.8,64,400c1.1,36.5,28.7,64,65.1,64H385
		c36.3,0,62.1-27.6,63-64C448.3,385.8,445.4,370.3,436.9,354.4z M216,96h24v16h-24V96z M216,144h40v16h-40V144z M199.3,192H240v16
		h-50.2L199.3,192z M414.6,392c-0.7,24.2-15.9,40-45.7,40H143c-29.9,0-45.7-12.2-45.7-39.8c0-9.5,4-23,10.9-33.5L179.5,240h153.2
		l71.8,118.7C411.5,369.3,414.9,382.6,414.6,392z"/>
</g>
</svg>
