<?xml version="1.0" encoding="utf-8"?>
<!-- Generator: Adobe Illustrator 18.1.1, SVG Export Plug-In . SVG Version: 6.00 Build 0)  -->
<svg version="1.1" id="Layer_1" xmlns="http://www.w3.org/2000/svg" xmlns:xlink="http://www.w3.org/1999/xlink" x="0px" y="0px"
	 viewBox="0 0 512 512" enable-background="new 0 0 512 512" xml:space="preserve">
<g>
	<rect x="360" y="256" width="16" height="48"/>
	<polygon points="128,288 128,272 222.4,272 245,272 229,256 112,256 112,304 277,304 261,288 	"/>
	<polygon points="300,272 336,272 336,285 313,285 332,304 352,304 352,256 284,256 	"/>
	<rect x="384" y="256" width="16" height="48"/>
	<path d="M256,48C141.1,48,48,141.1,48,256s93.1,208,208,208s208-93.1,208-208S370.9,48,256,48z M256,448
		c-25.9,0-51.1-5.1-74.7-15.1c-22.9-9.7-43.4-23.5-61-41.2c-17.6-17.6-31.5-38.2-41.2-61C69.1,307.1,64,281.9,64,256
		s5.1-51.1,15.1-74.7c8.6-20.4,20.6-39,35.6-55.3L386,397.3c-16.3,15-34.8,27-55.3,35.6C307.1,442.9,281.9,448,256,448z M397.3,386
		L126,114.7c16.3-15,34.8-27,55.3-35.6C204.9,69.1,230.1,64,256,64s51.1,5.1,74.7,15.1c22.9,9.7,43.4,23.5,61,41.2
		c17.6,17.6,31.5,38.2,41.2,61c10,23.7,15.1,48.8,15.1,74.7s-5.1,51.1-15.1,74.7C424.3,351.1,412.3,369.7,397.3,386z"/>
	<path d="M360.2,212.7c-8.8-4.1-22.1-4.7-45.7-4.7c-1.2,0-2.4,0-3.6,0c-12.7,0.1-15.9-1.1-20-7.1c-2.8-4.2-1-14.8,3.7-21.9
		c1.6-2.4,1.8-5.6,0.4-8.2c-1.4-2.6-4.1-4.2-7-4.3c-0.1,0-9.4-0.1-18.3-3.9c-10.6-4.5-15.6-12.1-15.6-23.1
		c0-25.8,16.9-27.5,17.9-27.5c4.4,0,8-3.6,8-8s-3.6-8-8-8c-12,0-33.9,10.8-33.9,43.5c0,17.5,9,31,25.7,38c4.2,1.7,8.4,2.9,12,3.6
		c-3.3,9.8-3.6,21.9,1.7,29.7c9,13.3,20.3,13.1,33.3,13.1c1.1,0,2.3,0,3.5,0c26.3,0,34.7,1.2,39,3.2c5.7,2.6,6.7,7.5,6.7,15.7
		c0,0.7,0,0.1,0,1.1h16c0,0,0-0.5,0-1.1C376,235.8,376.2,220.1,360.2,212.7z"/>
	<path d="M400,244c0-26-3-39.2-9.1-49.5C382.3,180,368.5,176,352,176h-17.4c2.9-8.3,5.4-23.8,3.5-34.9
		c-3.2-18.8-15.4-29.1-34.1-29.1c-4.4,0-8,3.6-8,8s3.6,8,8,8c16,0,17.1,8.2,18.4,15.8c2.5,14.5-6.8,36.1-6.9,36.3
		c-1.4,2.5-1.3,5.5,0.1,7.9c1.4,2.4,4.1,4,6.9,4H352c10.9,0,19.4,0.9,25.1,10.6c3.1,5.3,6.9,13.4,6.9,41.4H400z"/>
	<path d="M400,244L400,244L400,244C400,243.9,400,244,400,244z"/>
</g>
</svg>
