<?xml version="1.0" encoding="utf-8"?>
<!-- Generator: Adobe Illustrator 22.0.1, SVG Export Plug-In . SVG Version: 6.00 Build 0)  -->
<svg version="1.1" id="Layer_1" xmlns="http://www.w3.org/2000/svg" xmlns:xlink="http://www.w3.org/1999/xlink" x="0px" y="0px"
	 viewBox="0 0 512 512" style="enable-background:new 0 0 512 512;" xml:space="preserve">
<path d="M407.1,137.9c-34.9-41.6-81.3-67.3-131.2-72.6c-2-9.9-10.2-17.3-19.9-17.3c-9.7,0-17.9,7.3-19.9,17.2
	c-50.6,5.2-97.4,30.3-132.1,71.2c-35.8,42.2-55.6,85.5-55.8,143.7c-0.1,0.5-0.2,1.2-0.2,2.1c0.1,3.2,2.7,5.8,5.8,5.8h3.1
	c2.6,0,4.9-1.8,5.6-4.4c2.7-10.1,8.4-19.1,16-25.5c7.7-6.5,16.9-9.9,26.6-9.9c9.6,0,18.8,3.4,26.5,10c7.6,6.4,13.2,15.4,16,25.5
	c0.7,2.6,3,4.4,5.6,4.4h4.8c2.6,0,4.9-1.8,5.6-4.4c5.7-20.9,23.3-35.4,42.8-35.4c14.8,0,28.8,8.4,36.9,21.9V418c0,9.9-8,18-17.7,18
	c-9.7,0-17.6-8.1-17.6-18c0-7.7-6.1-14-13.7-14c-7.5,0-13.6,6.3-13.6,14c0,25.4,20.2,46,44.9,46c24.8,0,44.9-20.6,44.9-46V270.8
	c8.2-14.2,21.9-22.6,36.9-22.6c9.6,0,18.7,3.4,26.4,9.9c7.5,6.4,13.1,15.4,15.9,25.5c0.7,2.6,3,4.4,5.6,4.4h4.8
	c2.6,0,4.9-1.8,5.6-4.4c2.7-10.1,8.4-19.2,16-25.6c7.7-6.5,16.9-10,26.6-10c9.7,0,19,3.4,26.7,10c7.6,6.4,13.2,15.5,15.9,25.6
	c0.7,2.6,3,4.4,5.6,4.4h1.5c1.6,0,3.1-0.6,4.2-1.8s1.7-2.7,1.7-4.3C463.1,224,442.9,180.6,407.1,137.9z"/>
</svg>
