<?xml version="1.0" encoding="utf-8"?>
<!-- Generator: Adobe Illustrator 22.0.1, SVG Export Plug-In . SVG Version: 6.00 Build 0)  -->
<svg version="1.1" id="Layer_1" xmlns="http://www.w3.org/2000/svg" xmlns:xlink="http://www.w3.org/1999/xlink" x="0px" y="0px"
	 viewBox="0 0 512 512" style="enable-background:new 0 0 512 512;" xml:space="preserve">
<g>
	<path d="M444.7,230.4l-141.1-132c-1.7-1.6-3.3-2.5-5.6-2.4c-4.4,0.2-10,3.3-10,8v66.2c0,2-1.6,3.8-3.6,4.1
		C144.1,195.8,85,300.8,64.1,409.8c-0.8,4.3,5,8.3,7.7,4.9c51.2-64.5,113.5-106.6,212-107.4c2.2,0,4.2,2.6,4.2,4.8v65
		c0,7,9.3,10.1,14.5,5.3l142.1-134.3c2.6-2.4,3.4-5.2,3.5-8.4C448,236.5,447.2,232.8,444.7,230.4z"/>
</g>
</svg>
