<?xml version="1.0" encoding="utf-8"?>
<!-- Generator: Adobe Illustrator 18.1.1, SVG Export Plug-In . SVG Version: 6.00 Build 0)  -->
<svg version="1.1" id="Layer_1" xmlns="http://www.w3.org/2000/svg" xmlns:xlink="http://www.w3.org/1999/xlink" x="0px" y="0px"
	 viewBox="0 0 512 512" enable-background="new 0 0 512 512" xml:space="preserve">
<g>
	<g>
		<path d="M400,188.9C400,111,333.9,48,256,48c-77.9,0-144,63.1-144,140.9c0,31,13.2,59.1,30.2,83.1h-0.3c10.9,15,21.4,27.7,31.5,45
			c22,37.8,18.6,74.3,18.7,81.5v1.5h32V271.9L192,208h16.6l31.4,63.9V400h32V271.9l31.4-63.9H320l-32,63.9V400h32v-1.5
			c0-8.9-3.6-43.7,18.4-81.5c10.1-17.3,20.6-30,31.5-45h-0.1C386.8,248,400,219.9,400,188.9z"/>
	</g>
	<rect x="224" y="448" width="64" height="16"/>
	<rect x="208" y="416" width="96" height="16"/>
</g>
</svg>
