<?xml version="1.0" encoding="utf-8"?>
<!-- Generator: Adobe Illustrator 22.0.1, SVG Export Plug-In . SVG Version: 6.00 Build 0)  -->
<svg version="1.1" id="Layer_1" xmlns="http://www.w3.org/2000/svg" xmlns:xlink="http://www.w3.org/1999/xlink" x="0px" y="0px"
	 viewBox="0 0 512 512" style="enable-background:new 0 0 512 512;" xml:space="preserve">
<g>
	<path d="M349.1,334.7c-11.2-4-29.5-4.2-37.6-7.3c-5.6-2.2-14.5-4.6-17.4-8.1c-2.9-3.5-2.9-28.5-2.9-28.5s7-6.6,9.9-14
		c2.9-7.3,4.8-27.5,4.8-27.5s6.6,2.8,9.2-10.4c2.2-11.4,6.4-17.4,5.3-25.8c-1.2-8.4-5.8-6.4-5.8-6.4s5.8-8.5,5.8-37.4
		c0-29.8-22.5-59.1-64.6-59.1c-42,0-64.7,29.4-64.7,59.1c0,28.9,5.7,37.4,5.7,37.4s-4.7-2-5.8,6.4c-1.2,8.4,3,14.4,5.3,25.8
		c2.6,13.3,9.2,10.4,9.2,10.4s1.9,20.1,4.8,27.5c2.9,7.4,9.9,14,9.9,14s0,25-2.9,28.5c-2.9,3.5-11.8,5.9-17.4,8
		c-8,3.1-26.3,3.5-37.6,7.5c-11.2,4-45.8,22.2-45.8,67.2h139.3h139C394.9,356.9,360.3,338.7,349.1,334.7z"/>
	<path d="M140,286c0,0,23.9-0.8,33.4-9.3c-15.5-23.5-7.1-50.9-10.3-76.5c-3.2-25.5-17.7-40.8-46.7-40.8c-0.1,0,0.6,0-0.4,0v0
		c-28,0-43.1,15.2-46.3,40.8c-3.2,25.5,5.7,56-10.2,76.5C69,285.3,93,285,93,285c0,0,0,0,0,0s1,14.4-1,16.8c-2,2.4-7.9,4.7-12,5.5
		c-8.8,1.9-18.1,4.5-25.9,7.2c-7.8,2.7-22.6,17.2-22.6,37.2h80.3c2.2-8,17.3-22.3,32-29.8c9-4.6,17.9-4.3,24.7-5.2
		c0,0,3.8-6-8.7-8.3c0,0-17.2-4.3-19.2-6.7C138.7,299.5,140,286,140,286z"/>
	<path d="M372,286c0,0-23.9-0.8-33.4-9.3c15.5-23.5,7.1-50.9,10.3-76.5c3.2-25.5,17.7-40.8,46.7-40.8c0.1,0-0.6,0,0.4,0v0
		c28,0,43.1,15.2,46.3,40.8c3.2,25.5-5.7,56,10.2,76.5C443,285.3,419,285,419,285l0,0c0,0-1,14.4,1,16.8c2,2.4,7.9,4.7,12,5.5
		c8.8,1.9,18.1,4.5,25.9,7.2c7.8,2.7,22.6,17.2,22.6,37.2h-80.3c-2.2-8-17.3-22.3-32-29.8c-9-4.6-17.9-4.3-24.7-5.2
		c0,0-3.8-6,8.7-8.3c0,0,17.2-4.3,19.2-6.7C373.3,299.5,372,286,372,286z"/>
</g>
</svg>
