<?xml version="1.0" encoding="utf-8"?>
<!-- Generator: Adobe Illustrator 22.0.1, SVG Export Plug-In . SVG Version: 6.00 Build 0)  -->
<svg version="1.1" id="Layer_1" xmlns="http://www.w3.org/2000/svg" xmlns:xlink="http://www.w3.org/1999/xlink" x="0px" y="0px"
	 viewBox="0 0 512 512" style="enable-background:new 0 0 512 512;" xml:space="preserve">
<g>
	<path d="M437.1,229.8C429,154.6,365.4,96,288,96c-51.2,0-96.3,25.6-123.4,64.7c-8.3-3.4-17.4-5.3-26.9-5.3
		c-39.1,0-70.8,34.4-71.4,73.4C26.4,241.5,0,280.5,0,321.5C0,371.7,40.7,416,90.9,416h330.3c50.2,0,90.9-44.3,90.9-94.5
		C512,276.8,479.7,237.4,437.1,229.8z M362.5,212.5L228.8,346.8c0,0,0,0-0.1,0c-1.7,1.7-6.3,5.5-11.6,5.5c-3.8,0-8.1-2.1-11.7-5.7
		l-56-56c-1.6-1.6-1.6-4.1,0-5.7l17.8-17.8c0.8-0.8,1.8-1.2,2.8-1.2c1,0,2,0.4,2.8,1.2l44.4,44.4l122-122.9c0.8-0.8,1.8-1.2,2.8-1.2
		c0,0,0,0,0,0c1.1,0,2.1,0.4,2.8,1.2l17.5,18.1C364.1,208.4,364.1,210.9,362.5,212.5z"/>
</g>
</svg>
