<?xml version="1.0" encoding="utf-8"?>
<!-- Generator: Adobe Illustrator 22.0.1, SVG Export Plug-In . SVG Version: 6.00 Build 0)  -->
<svg version="1.1" id="Layer_1" xmlns="http://www.w3.org/2000/svg" xmlns:xlink="http://www.w3.org/1999/xlink" x="0px" y="0px"
	 viewBox="0 0 512 512" style="enable-background:new 0 0 512 512;" xml:space="preserve">
<g>
	<path d="M112.4,92h77.7c7.7,0,13.9-6.2,13.9-13.9v-0.2c0-7.7-6.2-13.9-13.9-13.9H77.9C70.2,64,64,70.2,64,77.9v112.2
		c0,7.7,6.2,13.9,13.9,13.9h0.2c7.7,0,13.9-6.2,13.9-13.9v-77.7l117.1,116.3c2.6,2.6,6.1,4,9.8,4c3.7,0,7.2-1.4,9.8-4.1
		c5.4-5.4,5.4-14.2,0-19.6L112.4,92z"/>
	<path d="M434.1,64H321.9c-7.7,0-13.9,6.2-13.9,13.9v0.2c0,7.7,6.2,13.9,13.9,13.9h77.7L283.3,209.1c-5.4,5.4-5.4,14.2,0,19.6
		c2.6,2.6,6.1,4.1,9.8,4.1c3.7,0,7.2-1.4,9.8-4L420,112.4v77.7c0,7.7,6.2,13.9,13.9,13.9h0.2c7.7,0,13.9-6.2,13.9-13.9V77.9
		C448,70.2,441.8,64,434.1,64z"/>
	<path d="M218.9,279.2c-3.7,0-7.2,1.4-9.8,4L92,399.6v-77.7c0-7.7-6.2-13.9-13.9-13.9h-0.2c-7.7,0-13.9,6.2-13.9,13.9v112.2
		c0,7.7,6.2,13.9,13.9,13.9h112.2c7.7,0,13.9-6.2,13.9-13.9v-0.2c0-7.7-6.2-13.9-13.9-13.9h-77.7l116.3-117.1
		c5.4-5.4,5.4-14.2,0-19.6C226.1,280.7,222.6,279.2,218.9,279.2z"/>
	<path d="M434.1,308h-0.2c-7.7,0-13.9,6.2-13.9,13.9v77.7L302.9,283.3c-2.6-2.6-6.1-4-9.8-4c-3.7,0-7.2,1.4-9.8,4.1
		c-5.4,5.4-5.4,14.2,0,19.6L399.6,420h-77.7c-7.7,0-13.9,6.2-13.9,13.9v0.2c0,7.7,6.2,13.9,13.9,13.9h112.2
		c7.7,0,13.9-6.2,13.9-13.9V321.9C448,314.2,441.8,308,434.1,308z"/>
</g>
</svg>
