<?xml version="1.0" encoding="utf-8"?>
<!-- Generator: Adobe Illustrator 22.0.1, SVG Export Plug-In . SVG Version: 6.00 Build 0)  -->
<svg version="1.1" id="Layer_1" xmlns="http://www.w3.org/2000/svg" xmlns:xlink="http://www.w3.org/1999/xlink" x="0px" y="0px"
	 viewBox="0 0 512 512" style="enable-background:new 0 0 512 512;" xml:space="preserve">
<g>
	<g>
		<path d="M393.7,455.9l-50-48c-5.6-5.4-14.4-5.2-19.8,0.4c-5.4,5.6-5.2,14.4,0.4,19.8l6.1,5.9H181.5l6.1-5.9
			c5.6-5.4,5.8-14.2,0.4-19.8c-5.4-5.6-14.2-5.8-19.8-0.4l-50,48c-5.6,5.4-5.8,14.2-0.4,19.8c2.7,2.9,6.4,4.3,10.1,4.3
			c3.5,0,7-1.3,9.7-3.9l14.7-14.1h207.2l14.7,14.1c2.7,2.6,6.2,3.9,9.7,3.9c3.7,0,7.4-1.4,10.1-4.3
			C399.5,470.1,399.3,461.3,393.7,455.9z"/>
	</g>
	<g>
		<g>
			<path d="M337,48h-17c0-8.8-7.2-16-16-16h-96c-8.8,0-16,7.2-16,16h-15c-35.3,0-65,27.7-65,63v236c0,35.3,144,65,144,65
				s144-29.7,144-65V111C400,75.7,372.3,48,337,48z M256,352c-26.5,0-48-21.5-48-48s21.5-48,48-48s48,21.5,48,48S282.5,352,256,352z
				 M352,192c0,8.8-7.2,16-16,16H176c-8.8,0-16-7.2-16-16v-64c0-8.8,7.2-16,16-16h160c8.8,0,16,7.2,16,16V192z"/>
			<circle cx="256" cy="304" r="30.5"/>
		</g>
	</g>
</g>
</svg>
