<?xml version="1.0" encoding="utf-8"?>
<!-- Generator: Adobe Illustrator 22.0.1, SVG Export Plug-In . SVG Version: 6.00 Build 0)  -->
<svg version="1.1" id="Layer_1" xmlns="http://www.w3.org/2000/svg" xmlns:xlink="http://www.w3.org/1999/xlink" x="0px" y="0px"
	 viewBox="0 0 512 512" style="enable-background:new 0 0 512 512;" xml:space="preserve">
<g>
	<path d="M48,256c0,114.9,93.1,208,208,208s208-93.1,208-208c0-114.9-93.1-208-208-208S48,141.1,48,256z M337.1,212.6
		c7.5-7.5,19.8-7.5,27.3,0c3.8,3.8,5.6,8.7,5.6,13.6c0,4.9-1.9,9.9-5.7,13.7l-94.3,94c-7.6,6.9-19.3,6.7-26.6-0.6l-95.7-95.4
		c-7.5-7.5-7.6-19.7,0-27.3c7.5-7.5,19.7-7.6,27.3,0l81.1,81.9L337.1,212.6z"/>
</g>
</svg>
