<?xml version="1.0" encoding="utf-8"?>
<!-- Generator: Adobe Illustrator 18.1.1, SVG Export Plug-In . SVG Version: 6.00 Build 0)  -->
<svg version="1.1" id="Layer_1" xmlns="http://www.w3.org/2000/svg" xmlns:xlink="http://www.w3.org/1999/xlink" x="0px" y="0px"
	 viewBox="0 0 512 512" enable-background="new 0 0 512 512" xml:space="preserve">
<path d="M396.2,288.9c-1.1,4.5-2.3,9-3.9,13.4c5.8,4.5,11.4,8.9,16.8,13.3c36,29.1,59,57.2,53.2,57.2c-7.9,0.5-27.6-1.1-71.1-17.1
	c-12.2-4.5-25.2-9.7-38.8-15.6c19.7-22.5,31.6-52,31.6-84.2c0-70.7-57.3-128-128-128c-57,0-105.2,37.2-121.8,88.6
	c-12-8.6-23.2-17.1-33.3-25.2c-36-29.1-47.6-45.2-51.2-52.2c-4.3-7,32.6-0.9,76.1,15.1c6.8,2.5,13.9,5.2,21.1,8
	c2.8-3.3,5.8-6.5,8.9-9.5c-65.9-27.5-114.2-37.7-122.5-22.9c-9,15.9,30.8,56.7,96.8,103.4c-1.3,7.4-2,14.9-2,22.7
	c0,70.7,57.3,128,128,128c32.3,0,61.8-11.9,84.3-31.7c74,32.6,129.5,45.7,138.5,29.8C487.1,367.3,453.6,331.3,396.2,288.9z
	 M176.8,176.8C198,155.6,226.1,144,256,144s58,11.7,79.2,32.8C356.3,198,368,226.1,368,256c0,29.1-11,56.4-31,77.3
	c-30.7-13.9-63.7-30.8-96.8-49.5c-33-18.7-64.5-38.3-92.3-57.5C153,207.8,162.8,190.8,176.8,176.8z M256,368
	c-29.9,0-58-11.7-79.2-32.8C155.7,314,144,285.9,144,256c0-4.2,0.2-8.4,0.7-12.5c26.2,17.8,55.8,36.2,87.7,54.3
	c31.9,18.1,62.9,34,91.7,47.2C304.6,359.9,280.9,368,256,368z"/>
</svg>
