<?xml version="1.0" encoding="utf-8"?>
<!-- Generator: Adobe Illustrator 22.0.1, SVG Export Plug-In . SVG Version: 6.00 Build 0)  -->
<svg version="1.1" id="Layer_1" xmlns="http://www.w3.org/2000/svg" xmlns:xlink="http://www.w3.org/1999/xlink" x="0px" y="0px"
	 viewBox="0 0 512 512" style="enable-background:new 0 0 512 512;" xml:space="preserve">
<g>
	<path d="M374.4,141.9l-13.3-0.1C349.4,88.2,306,48,236,48S108.2,98.4,108.2,169.5l0.3,4.8C66.3,179.9,32,219.6,32,264
		c0,47,37.9,88,84.7,88H236l13.8-50.6H183c-2.6,0-4.5-2.4-3.9-4.9l23.2-113c0.4-1.8,2-3.1,3.9-3.1h86.1c2.7,0,4.6,2.6,3.8,5.2
		l-22.5,74.9h60.1c3.1,0,5.1,3.5,3.4,6.1L283.4,352H367c72,0,113-52,113-110C480,183.4,432.7,141.9,374.4,141.9z"/>
	<path d="M206.8,458.9c-1.2,4.4,4.8,7,7.2,3.2L283.4,352H236L206.8,458.9z"/>
</g>
</svg>
