<?xml version="1.0" encoding="utf-8"?>
<!-- Generator: Adobe Illustrator 22.0.1, SVG Export Plug-In . SVG Version: 6.00 Build 0)  -->
<svg version="1.1" id="Layer_1" xmlns="http://www.w3.org/2000/svg" xmlns:xlink="http://www.w3.org/1999/xlink" x="0px" y="0px"
	 viewBox="0 0 512 512" style="enable-background:new 0 0 512 512;" xml:space="preserve">
<g>
	<path d="M92.1,32C76.6,32,64,44.6,64,60.1v391.9c0,15.5,12.6,28.1,28.1,28.1H432c8.8,0,16-7.2,16-16l0,0c0-8.8-7.2-16-16-16H112.5
		c-8.2,0-15.4-6-16.4-14.1C95,424.3,102.6,416,112,416h208V32H92.1z"/>
	<path d="M432,416c8.8,0,16-7.2,16-16V60.1c0-15.5-12.6-28.1-28.1-28.1H368v384H432z"/>
</g>
</svg>
