<?xml version="1.0" encoding="utf-8"?>
<!-- Generator: Adobe Illustrator 18.1.1, SVG Export Plug-In . SVG Version: 6.00 Build 0)  -->
<svg version="1.1" id="Layer_1" xmlns="http://www.w3.org/2000/svg" xmlns:xlink="http://www.w3.org/1999/xlink" x="0px" y="0px"
	 viewBox="0 0 512 512" enable-background="new 0 0 512 512" xml:space="preserve">
<g>
	<path d="M283.2,176l-17.8,59.4l-6.2,20.6h21.5H312l-69.2,109.8l15.5-57.7l5.4-20.2h-20.9h-51.9l24.9-112H283.2 M304.7,160H203
		l-32,144h71.8L200,464l141-224h-60.3L304.7,160L304.7,160z"/>
	<g>
		<path d="M374.4,141.9l-13.3-0.1C349.4,88.2,306,48,236,48S108.2,98.4,108.2,169.5l0.3,4.8C66.3,179.9,32,219.6,32,264
			c0,47,37.9,88,84.7,88h97.3l4.2-16c-63,0-101.5,0-101.5,0c-18,0-35.1-8.1-48.2-21.9c-13-13.7-20.4-32.4-20.4-51
			c0-17.5,6.6-34.8,18.5-48.5c11.8-13.5,27.4-22.2,44.1-24.5l14.8-2l-1-14.9l-0.3-4.3c0.1-29.3,11.7-56.3,32.6-75.9
			c20.9-19.6,49-29.4,79.2-29.4c29.3,0,55,7.3,74.3,22.9c17.7,14.4,29.9,34.7,35.2,58.7l2.9,13.4c11.5-0.7,26-0.7,26-0.7
			c24.5,0,47.1,8.6,63.7,24.1c16.7,15.6,25.8,37.2,25.8,60.8c0,44.7-33.7,84.7-76.8,91.8c0,0-8.9,1.4-20.2,1.4c-3.7,0-70.4,0-70.4,0
			l-10.2,16H367c72,0,113-52,113-110C480,183.4,432.7,141.9,374.4,141.9z"/>
	</g>
</g>
</svg>
