<?xml version="1.0" encoding="utf-8"?>
<!-- Generator: Adobe Illustrator 22.0.1, SVG Export Plug-In . SVG Version: 6.00 Build 0)  -->
<svg version="1.1" id="Layer_1" xmlns="http://www.w3.org/2000/svg" xmlns:xlink="http://www.w3.org/1999/xlink" x="0px" y="0px"
	 viewBox="0 0 512 512" style="enable-background:new 0 0 512 512;" xml:space="preserve">
<g>
	<path d="M396,144H64c-26.4,0-48,21.6-48,48v128c0,26.4,21.6,48,48,48h332c26.4,0,48-21.6,48-48V192C444,165.6,422.4,144,396,144z
		 M416,320c0,11-9,20-20,20H64c-11,0-20-9-20-20V192c0-11,9-20,20-20h332c11,0,20,9,20,20V320z"/>
	<path d="M464,204.6v102.8c16,0,32-27.7,32-51.4C496,232.3,480,204.6,464,204.6z"/>
	<path d="M384,192H76c-6.6,0-12,5.4-12,12v104c0,6.6,5.4,12,12,12h308c6.6,0,12-5.4,12-12V204C396,197.4,390.6,192,384,192z
		 M218.8,308l8.4-43H200l45.2-61l-8.4,43H264L218.8,308z"/>
</g>
</svg>
