<?xml version="1.0" encoding="utf-8"?>
<!-- Generator: Adobe Illustrator 22.0.1, SVG Export Plug-In . SVG Version: 6.00 Build 0)  -->
<svg version="1.1" id="Layer_1" xmlns="http://www.w3.org/2000/svg" xmlns:xlink="http://www.w3.org/1999/xlink" x="0px" y="0px"
	 viewBox="0 0 512 512" style="enable-background:new 0 0 512 512;" xml:space="preserve">
<g>
	<ellipse transform="matrix(0.9998 -1.842767e-02 1.842767e-02 0.9998 -7.7858 3.0205)" cx="160" cy="424" rx="24" ry="24"/>
	<ellipse transform="matrix(2.381651e-02 -0.9997 0.9997 2.381651e-02 -48.5107 798.282)" cx="384.5" cy="424" rx="24" ry="24"/>
	<path d="M463.8,132.2c-0.7-2.4-2.8-4-5.2-4.2L132.9,96.5c-2.8-0.3-6.2-2.1-7.5-4.7c-3.8-7.1-6.2-11.1-12.2-18.6
		c-7.7-9.4-22.2-9.1-48.8-9.3c-9-0.1-16.3,5.2-16.3,14.1c0,8.7,6.9,14.1,15.6,14.1c8.7,0,21.3,0.5,26,1.9c4.7,1.4,8.5,9.1,9.9,15.8
		c0,0.1,0,0.2,0.1,0.3c0.2,1.2,2,10.2,2,10.3l40,211.6c2.4,14.5,7.3,26.5,14.5,35.7c8.4,10.8,19.5,16.2,32.9,16.2h236.6
		c7.6,0,14.1-5.8,14.4-13.4c0.4-8-6-14.6-14-14.6H189h-0.1c-2,0-4.9,0-8.3-2.8c-3.5-3-8.3-9.9-11.5-26l-4.3-23.7
		c0-0.3,0.1-0.5,0.4-0.6l277.7-47c2.6-0.4,4.6-2.5,4.9-5.2l16-115.8C464,134,464,133.1,463.8,132.2z"/>
</g>
</svg>
