<?xml version="1.0" encoding="utf-8"?>
<!-- Generator: Adobe Illustrator 18.1.1, SVG Export Plug-In . SVG Version: 6.00 Build 0)  -->
<svg version="1.1" id="Layer_1" xmlns="http://www.w3.org/2000/svg" xmlns:xlink="http://www.w3.org/1999/xlink" x="0px" y="0px"
	 viewBox="0 0 512 512" enable-background="new 0 0 512 512" xml:space="preserve">
<g>
	<g>
		<path d="M214.1,87.3c0,0,0,0.1-0.1,0.1c-12.8,26.7-19.3,55.5-19.3,85.4c0,52.8,20.5,102.5,57.8,139.8
			c37.3,37.4,86.8,57.9,139.6,57.9c3.2,0,6.4-0.1,9.6-0.2c0.1,0,0.1,0,0.2,0c-33.6,39.2-82.2,61.6-133.7,61.6
			c-47.1,0-91.3-18.4-124.6-51.7C110.3,346.9,92,302.6,92,255.4c0-38.3,12-74.7,34.8-105.4c11-14.7,24.1-27.6,39-38.3
			C180.6,101.1,196.9,92.9,214.1,87.3 M246.9,64c-12.6,1.4-24.9,4-36.6,7.7C132.4,96.4,76,169.3,76,255.4
			C76,361.8,162,448,268.2,448c58.7,0,111.2-26.4,146.5-67.9c8.1-9.5,15.2-19.8,21.4-30.8c-11.4,2.8-23.1,4.5-35,5.1
			c-2.9,0.1-5.9,0.2-8.8,0.2c-48.4,0-94-18.9-128.2-53.2c-34.3-34.3-53.1-80-53.1-128.5c0-27.6,6.1-54.3,17.7-78.5
			C233.6,83.7,239.7,73.5,246.9,64L246.9,64z"/>
	</g>
</g>
</svg>
