<?xml version="1.0" encoding="utf-8"?>
<!-- Generator: Adobe Illustrator 18.1.1, SVG Export Plug-In . SVG Version: 6.00 Build 0)  -->
<svg version="1.1" id="Layer_1" xmlns="http://www.w3.org/2000/svg" xmlns:xlink="http://www.w3.org/1999/xlink" x="0px" y="0px"
	 viewBox="0 0 512 512" enable-background="new 0 0 512 512" xml:space="preserve">
<g>
	<path d="M154,80c3.3,0,6,2.7,6,6v52c0,3.3-2.7,6-6,6h-52c-3.3,0-6-2.7-6-6V86c0-3.3,2.7-6,6-6H154 M154,64h-52
		c-12.1,0-22,9.9-22,22v52c0,12.1,9.9,22,22,22h52c12.1,0,22-9.9,22-22V86C176,73.9,166.1,64,154,64L154,64z"/>
	<path d="M282,80c3.3,0,6,2.7,6,6v52c0,3.3-2.7,6-6,6h-52c-3.3,0-6-2.7-6-6V86c0-3.3,2.7-6,6-6H282 M282,64h-52
		c-12.1,0-22,9.9-22,22v52c0,12.1,9.9,22,22,22h52c12.1,0,22-9.9,22-22V86C304,73.9,294.1,64,282,64L282,64z"/>
	<path d="M410,80c3.3,0,6,2.7,6,6v52c0,3.3-2.7,6-6,6h-52c-3.3,0-6-2.7-6-6V86c0-3.3,2.7-6,6-6H410 M410,64h-52
		c-12.1,0-22,9.9-22,22v52c0,12.1,9.9,22,22,22h52c12.1,0,22-9.9,22-22V86C432,73.9,422.1,64,410,64L410,64z"/>
	<path d="M154,224c3.3,0,6,2.7,6,6v52c0,3.3-2.7,6-6,6h-52c-3.3,0-6-2.7-6-6v-52c0-3.3,2.7-6,6-6H154 M154,208h-52
		c-12.1,0-22,9.9-22,22v52c0,12.1,9.9,22,22,22h52c12.1,0,22-9.9,22-22v-52C176,217.9,166.1,208,154,208L154,208z"/>
	<path d="M282,224c3.3,0,6,2.7,6,6v52c0,3.3-2.7,6-6,6h-52c-3.3,0-6-2.7-6-6v-52c0-3.3,2.7-6,6-6H282 M282,208h-52
		c-12.1,0-22,9.9-22,22v52c0,12.1,9.9,22,22,22h52c12.1,0,22-9.9,22-22v-52C304,217.9,294.1,208,282,208L282,208z"/>
	<path d="M410,224c3.3,0,6,2.7,6,6v52c0,3.3-2.7,6-6,6h-52c-3.3,0-6-2.7-6-6v-52c0-3.3,2.7-6,6-6H410 M410,208h-52
		c-12.1,0-22,9.9-22,22v52c0,12.1,9.9,22,22,22h52c12.1,0,22-9.9,22-22v-52C432,217.9,422.1,208,410,208L410,208z"/>
	<path d="M154,368c3.3,0,6,2.7,6,6v52c0,3.3-2.7,6-6,6h-52c-3.3,0-6-2.7-6-6v-52c0-3.3,2.7-6,6-6H154 M154,352h-52
		c-12.1,0-22,9.9-22,22v52c0,12.1,9.9,22,22,22h52c12.1,0,22-9.9,22-22v-52C176,361.9,166.1,352,154,352L154,352z"/>
	<path d="M282,368c3.3,0,6,2.7,6,6v52c0,3.3-2.7,6-6,6h-52c-3.3,0-6-2.7-6-6v-52c0-3.3,2.7-6,6-6H282 M282,352h-52
		c-12.1,0-22,9.9-22,22v52c0,12.1,9.9,22,22,22h52c12.1,0,22-9.9,22-22v-52C304,361.9,294.1,352,282,352L282,352z"/>
	<path d="M410,368c3.3,0,6,2.7,6,6v52c0,3.3-2.7,6-6,6h-52c-3.3,0-6-2.7-6-6v-52c0-3.3,2.7-6,6-6H410 M410,352h-52
		c-12.1,0-22,9.9-22,22v52c0,12.1,9.9,22,22,22h52c12.1,0,22-9.9,22-22v-52C432,361.9,422.1,352,410,352L410,352z"/>
</g>
</svg>
