<?xml version="1.0" encoding="utf-8"?>
<!-- Generator: Adobe Illustrator 22.0.1, SVG Export Plug-In . SVG Version: 6.00 Build 0)  -->
<svg version="1.1" id="Layer_1" xmlns="http://www.w3.org/2000/svg" xmlns:xlink="http://www.w3.org/1999/xlink" x="0px" y="0px"
	 viewBox="0 0 512 512" style="enable-background:new 0 0 512 512;" xml:space="preserve">
<g>
	<g>
		<path d="M480,128c0-17.6-14.4-32-32-32H64c-17.6,0-32,14.4-32,32v48h448V128z"/>
		<path d="M32,384c0,17.6,14.4,32,32,32h384c17.6,0,32-14.4,32-32V224H32V384z M174,336h164c7.7,0,14,6.3,14,14l0,0
			c0,7.7-6.3,14-14,14H174c-7.7,0-14-6.3-14-14l0,0C160,342.3,166.3,336,174,336z M102,336h12c7.7,0,14,6.3,14,14l0,0
			c0,7.7-6.3,14-14,14h-12c-7.7,0-14-6.3-14-14l0,0C88,342.3,94.3,336,102,336z"/>
	</g>
</g>
</svg>
