<?xml version="1.0" encoding="utf-8"?>
<!-- Generator: Adobe Illustrator 22.0.1, SVG Export Plug-In . SVG Version: 6.00 Build 0)  -->
<svg version="1.1" id="Layer_1" xmlns="http://www.w3.org/2000/svg" xmlns:xlink="http://www.w3.org/1999/xlink" x="0px" y="0px"
	 viewBox="0 0 512 512" style="enable-background:new 0 0 512 512;" xml:space="preserve">
<g>
	<g>
		<path d="M125.3,289.3c17.3,0,33.7,6.8,46.1,19.2c12.4,12.4,19.2,28.8,19.2,46.1c0,17.3-6.8,33.7-19.2,46.1
			c-12.4,12.4-28.8,19.2-46.1,19.2c-17.3,0-33.7-6.8-46.1-19.2C66.8,388.4,60,372,60,354.7c0-17.3,6.8-33.7,19.2-46.1
			C91.6,296.2,108,289.3,125.3,289.3 M125.3,261.3c-51.3,0-93.3,42-93.3,93.3C32,406,74,448,125.3,448c51.3,0,93.3-42,93.3-93.3
			C218.7,303.3,176.7,261.3,125.3,261.3L125.3,261.3z"/>
		<path d="M319.8,127.8c17.8,0,32-14.2,32-32C351.8,78,337.8,64,320,64c-17.8,0-32.2,14-32.2,31.8
			C287.8,113.5,302.1,127.8,319.8,127.8z"/>
		<path d="M386.7,289.3c17.3,0,33.7,6.8,46.1,19.2c12.4,12.4,19.2,28.8,19.2,46.1c0,17.3-6.8,33.7-19.2,46.1
			C420.4,413.2,404,420,386.7,420c-17.3,0-33.7-6.8-46.1-19.2c-12.4-12.4-19.2-28.8-19.2-46.1c0-17.3,6.8-33.7,19.2-46.1
			C352.9,296.2,369.3,289.3,386.7,289.3 M386.7,261.3c-51.3,0-93.3,42-93.3,93.3c0,51.3,42,93.3,93.3,93.3c51.3,0,93.3-42,93.3-93.3
			C480,303.3,438,261.3,386.7,261.3L386.7,261.3z"/>
	</g>
	<path d="M368,192h-48l-29.5-60.1c-5.6-9.3-15.9-15.9-27.1-15.9c-8.4,0-16.8,3.7-22.4,9.3l-71.7,69.1c-5.6,5.6-9.3,14-9.3,22.4
		c0,17.4,12.6,23.6,18.5,27.1C224,270.1,240,273,240,286.1c0,13.1,0,65.9,0,65.9c0,8.8,7.2,16,16,16c8.8,0,16-7.2,16-16
		c0,0,0-76.8,0-90s-30.4-24-48.3-38l48.9-51.5c18.7,28.5,27.3,51.5,38,51.5c10.7,0,57.4,0,57.4,0c8.8,0,16-7.2,16-16
		S376.8,192,368,192z"/>
</g>
</svg>
