<?xml version="1.0" encoding="utf-8"?>
<!-- Generator: Adobe Illustrator 18.1.1, SVG Export Plug-In . SVG Version: 6.00 Build 0)  -->
<svg version="1.1" id="Layer_1" xmlns="http://www.w3.org/2000/svg" xmlns:xlink="http://www.w3.org/1999/xlink" x="0px" y="0px"
	 viewBox="0 0 512 512" enable-background="new 0 0 512 512" xml:space="preserve">
<g>
	<path d="M378.6,162.1c-28.5,51.1-16.4,91.7-5.4,128.3c5.5,18.6,10.8,36.1,10.8,54.6c0,29-11.5,54.2-33.2,72.7
		c-23.2,19.8-56,30.2-94.8,30.2s-71.5-10.5-94.8-30.2C139.5,399.2,128,374.1,128,345c0-28.9,6.8-51.2,21.4-70
		c13-16.8,32.6-31.6,63.4-47.9l6.5-3.5c20.2-10.7,27-14.4,44-21.9c31.9-14.2,66.6-26.4,103.2-36.3
		C370.5,164.3,374.6,163.2,378.6,162.1 M416,137.1c-18.9,3.9-36.8,8.2-53.7,12.8c-40.5,11-75.5,23.9-105.4,37.2
		c-19.3,8.6-26.2,12.4-51.5,25.9C147,243.9,112,277.3,112,345c0,67.8,55.6,119,144,119s144-51.2,144-119
		C400,277.3,339,226.3,416,137.1L416,137.1z"/>
	<path d="M134.5,134c21.3,6.5,47.3,15.7,69.2,27.6c5.5,3,10.5,6,15,9c-4.8,2.4-9.5,4.8-14.1,7.2c-7.2,3.8-14.4,7.8-21.2,11.8
		c-10.7,6.2-20.8,12.6-30.3,19C152.5,185.2,147.6,159.3,134.5,134 M96,107.4c41.5,43.7,44.6,96.5,39.4,134.4
		c12.8-10.5,31.2-23.9,56.1-38.4c6.4-3.8,13.3-7.6,20.6-11.4c11.6-6.1,23.5-11.9,35.8-17.4c-9.1-10.1-22.1-19.1-36.6-27
		C162.6,121.1,96,107.4,96,107.4L96,107.4z"/>
	<path d="M344.9,94.3c4.9,6.2,11.4,15.1,16.5,23.8c-29.8,7.9-65.6,19.6-94.3,31c-5.6-5.5-12.2-10.8-19.6-16
		c21.1-17.1,44.7-26.6,62.2-31.7C324.6,97.1,337.3,95.1,344.9,94.3 M352,77.7c0,0-78.6,2.2-130.7,58c16.6,9.2,29.7,19,39,29.3l2.7,3
		c37.2-15.6,88.1-31.7,121-39C377.6,107.3,352,77.7,352,77.7L352,77.7z"/>
	<path d="M181.1,68.9c9,5.5,22.1,14.7,35.3,28.6c-4.5,3.7-8.8,7.5-12.9,11.5c-14.2-6.7-25.1-11.4-36.4-15.3
		C170.7,86.2,175.4,77.7,181.1,68.9 M176,48c-15.3,20.8-25.7,42.1-30.3,55.7c21.1,5.9,35.5,12.3,61.4,24.7
		c9.5-10.6,20.4-20.1,32.6-28.4C210.3,62.5,176,48,176,48L176,48z"/>
</g>
</svg>
