<?xml version="1.0" encoding="utf-8"?>
<!-- Generator: Adobe Illustrator 22.0.1, SVG Export Plug-In . SVG Version: 6.00 Build 0)  -->
<svg version="1.1" id="Layer_1" xmlns="http://www.w3.org/2000/svg" xmlns:xlink="http://www.w3.org/1999/xlink" x="0px" y="0px"
	 viewBox="0 0 512 512" style="enable-background:new 0 0 512 512;" xml:space="preserve">
<g>
	<path d="M32,432h2.9c1.8,0,3.5-1.1,4.1-2.8c2.2-5.7,8.3-19.8,21.4-39.7c21.5-32.7,58.4-67.4,94.5-83.5c27.6-12.4,53-21.5,97.1-23.2
		c2.3-0.1,4.2,1.7,4.2,4v81.6c0,3.2,3.6,5.1,6.2,3.4l215.9-142.2c2.4-1.6,2.4-5.1,0-6.7L262.3,80.7c-2.7-1.8-6.2,0.1-6.2,3.4v82.6
		c0,2.2-1.7,3.9-3.8,4c-71.6,3.8-123.1,24.8-163.4,65.5c-61,61.6-56.8,139.1-56.8,158.7C32.1,405.2,32,420.2,32,432z"/>
</g>
</svg>
