<?xml version="1.0" encoding="utf-8"?>
<!-- Generator: Adobe Illustrator 22.0.1, SVG Export Plug-In . SVG Version: 6.00 Build 0)  -->
<svg version="1.1" id="Layer_1" xmlns="http://www.w3.org/2000/svg" xmlns:xlink="http://www.w3.org/1999/xlink" x="0px" y="0px"
	 viewBox="0 0 512 512" style="enable-background:new 0 0 512 512;" xml:space="preserve">
<g>
	<path d="M450.8,182c-8.6-24.4-20.3-44.9-33-57.5c-2.6-2.6-6-4-9.7-4h0c-3.7,0-7.1,1.4-9.7,4c-5.3,5.3-5.3,14,0,19.4
		c9.9,9.9,19.6,27.4,26.8,48.1c7.3,21.2,11.4,43.6,11.4,63.1c0,3-0.1,7.6-0.2,10.1c-0.2,3.7,1.1,7.1,3.6,9.8
		c2.5,2.7,5.8,4.3,9.5,4.4c0.2,0,0.4,0,0.6,0c7.3,0,13.3-5.7,13.7-13.1c0.1-3.1,0.2-8.1,0.2-11.3C464,232.2,459.3,206.2,450.8,182z"
		/>
	<path d="M143,110.6c2.9,0,5.6-0.9,8-2.6c29.9-21.4,66.2-32.7,105-32.7c40.8,0,80.1,14.8,113.7,42.8c2.5,2,5.6,3.2,8.8,3.2
		c4.1,0,7.9-1.8,10.5-4.9c4.8-5.8,4-14.4-1.7-19.3C348.6,65,303.3,48,256,48c-44.6,0-86.4,13.1-121,37.8c-3,2.1-4.9,5.3-5.5,8.9
		c-0.6,3.6,0.2,7.2,2.4,10.2C134.4,108.5,138.6,110.6,143,110.6z"/>
	<path d="M75.4,255c0-43.7,15.8-85.8,44.5-118.7c2.4-2.8,3.6-6.3,3.3-9.9c-0.2-3.6-1.9-7-4.7-9.4c-2.5-2.2-5.7-3.4-9-3.4h0
		c-4,0-7.7,1.7-10.3,4.7C66.2,156.2,48,204.7,48,255c0,32.8,5.9,58.8,15.4,90.2c1.8,5.8,7,9.7,13.1,9.7c1.3,0,2.7-0.2,4-0.6
		c3.5-1.1,6.4-3.4,8.1-6.6c1.7-3.2,2.1-6.9,1-10.4C80.8,308.3,75.4,284.5,75.4,255z"/>
	<path d="M355.7,129.8c-27.3-23.7-60.7-36.2-96.7-36.2c-48.3,0-91.4,17.8-121.5,50.1c-28.7,30.8-42.8,71.7-39.7,115.1
		c2.3,32.7,6,50.7,9.3,66.6c4.3,21.1,7.7,37.8,5.1,84.1c-0.4,6.7,3.7,12.7,10,14.6c1.2,0.4,2.3,0.5,3.6,0.5
		c7.2,0,13.2-5.7,13.7-12.9c2.9-50.4-0.8-68.7-5.5-91.9c-3.1-15.1-6.6-32.2-8.8-63.1c-2.6-35.7,9-69.3,32.4-94.5
		c24.8-26.7,60.9-41.4,101.4-41.4c29.3,0,56.5,10.2,78.7,29.5c22.3,19.3,39.2,47.4,49,81.1c11.4,39.3,14.5,89.3,9.1,144.5
		c-0.7,7.5,4.8,14.2,12.3,15c0.4,0,0.9,0.1,1.3,0.1c7.1,0,12.9-5.3,13.6-12.4c5.8-58.7,2.3-112.2-10.1-154.8
		C401.8,185.2,382,152.6,355.7,129.8z"/>
	<path d="M373.5,267.5c-5.9-37.5-19.9-68.8-40.6-90.6c-20.8-22-47.4-33.7-76.9-33.7c-19,0-37.7,4.1-54.1,12
		c-3.7,1.8-6.4,5.1-7.4,9.1c-1,4.1-0.1,8.3,2.5,11.6c2.6,3.4,6.5,5.3,10.8,5.3c2.1,0,4-0.5,5.9-1.3c12.6-6,27.2-9.2,42.2-9.2
		c22.4,0,42.5,9.2,58.3,26.6c16.1,17.8,27.3,43.6,32.1,74.6c4.7,29.6,7,53.5,7.1,73.1c0.2,39.7-4.8,72.7-4.8,73.1
		c-0.6,3.6,0.3,7.2,2.5,10.2c2.2,3,5.3,4.9,8.9,5.5c0.7,0.1,1.4,0.2,2.1,0.2c6.8,0,12.5-4.9,13.5-11.6c0.2-1.4,5.4-35.2,5.2-77.5
		C380.8,323.6,378.4,298.4,373.5,267.5z"/>
	<path d="M185.3,203.5c4-5.8,2.9-13.6-2.5-18.2c-2.5-2.1-5.6-3.2-8.8-3.2c-4.5,0-8.7,2.2-11.3,5.9c-14.7,21.5-19.7,49.1-14.4,79.8
		c8.9,51.3,16.9,111.1,9.4,165c-0.5,3.8,0.5,7.7,2.9,10.7c2.3,3,5.7,4.8,9.4,5.1c0.4,0,0.8,0.1,1.2,0.1c6.8,0,12.6-5.1,13.5-11.8
		c8.2-57.7-0.2-120.2-9.5-173.8C171.1,239.3,174.5,219.2,185.3,203.5z"/>
	<path d="M317.5,388c-0.2,0-0.3,0-0.5,0c-7.6,0.3-13.5,6.6-13.2,14.2c0,0.2,0.6,17.9-2.6,34.7c-1.3,6.9,2.6,13.7,9.1,15.8
		c1.4,0.4,2.8,0.7,4.3,0.7c6.6,0,12.2-4.7,13.4-11.1c3.8-20.1,3.1-40.2,3.1-41.1C330.9,393.7,324.9,388,317.5,388z"/>
	<path d="M294.6,205.9c-11.2-10.5-25.2-16.1-40.5-16.1c-19.8,0-36.7,7.3-47.6,20.5c-8.3,10.1-17,28.8-10.9,60
		c12.3,62.5,15,121.6,8.1,175.6c-1,7.5,4.4,14.4,11.8,15.3c0.6,0.1,1.2,0.1,1.7,0.1c6.9,0,12.7-5.1,13.6-12
		c7.3-57,4.5-119-8.3-184.4c-3.2-16.4-1.4-29.3,5.1-37.3c5.6-6.8,15-10.5,26.4-10.5c25,0,35.1,27.6,38.3,39.4
		c6.9,25.7,10.9,63,11.5,107.7c0.1,7.4,6.2,13.5,13.7,13.5c0.1,0,0.1,0,0.2,0c3.6-0.1,7-1.5,9.6-4.1c2.5-2.6,3.9-6.1,3.9-9.7
		c-0.7-47-5-86.5-12.5-114.4C313.8,231,305.6,216.3,294.6,205.9z"/>
	<path d="M265.2,245.9c-2.1-5.1-7.1-8.5-12.7-8.5h0c-1.8,0-3.6,0.4-5.2,1c-7,2.9-10.3,10.9-7.4,17.9c6.6,16,11.8,46.2,14.1,82.8
		c2.4,36.9,1.7,76.9-2,109.6c-0.4,3.6,0.6,7.2,2.9,10.1c2.3,2.9,5.5,4.6,9.2,5c0.5,0.1,1,0.1,1.5,0.1c7,0,12.8-5.2,13.6-12.2
		c3.9-35.5,4.6-76.6,2-115.8C278.7,296.6,273,264.6,265.2,245.9z"/>
</g>
</svg>
