<?xml version="1.0" encoding="utf-8"?>
<!-- Generator: Adobe Illustrator 22.0.1, SVG Export Plug-In . SVG Version: 6.00 Build 0)  -->
<svg version="1.1" id="Layer_1" xmlns="http://www.w3.org/2000/svg" xmlns:xlink="http://www.w3.org/1999/xlink" x="0px" y="0px"
	 viewBox="0 0 512 512" style="enable-background:new 0 0 512 512;" xml:space="preserve">
<g>
	<path d="M215.4,145.5c-2.2-1.1-4.6-1.6-6.9-1.6c-3.6,0-7.1,1.2-10,3.5L133.3,200H80.5c-8.8,0-16,7.2-16,16v80c0,8.8,7.2,16,16,16
		h52.8l65.2,52.5c2.9,2.3,6.5,3.5,10,3.5c2.3,0,4.7-0.5,6.9-1.6c5.6-2.7,9.1-8.3,9.1-14.4V160C224.5,153.8,221,148.2,215.4,145.5z"
		/>
	<path d="M447.5,256c0-59.3-23.2-114.8-65.4-156.5c-4.7-4.7-12.3-4.6-17,0.1c-4.7,4.7-4.6,12.3,0.1,17
		c37.6,37.1,58.2,86.6,58.2,139.4c0,0,0,0,0,0c0,0,0,0,0,0c0,52.8-20.7,102.3-58.2,139.4c-4.7,4.7-4.8,12.3-0.1,17
		c2.3,2.4,5.4,3.6,8.5,3.6c3,0,6.1-1.2,8.4-3.5C424.3,370.9,447.5,315.3,447.5,256C447.5,256,447.5,256,447.5,256
		C447.5,256,447.5,256,447.5,256z"/>
	<path d="M384.9,256C384.9,256,384.9,256,384.9,256c0-43.5-16.6-84.3-46.8-114.9c-4.7-4.7-12.3-4.8-17-0.1c-4.7,4.7-4.8,12.3-0.1,17
		c25.7,26.1,39.9,60.9,39.9,98.1c0,0,0,0,0,0s0,0,0,0c0,37.2-14.2,72-39.9,98.1c-4.7,4.7-4.6,12.3,0.1,17c2.3,2.3,5.4,3.5,8.4,3.5
		c3.1,0,6.2-1.2,8.5-3.6C368.2,340.3,384.9,299.5,384.9,256C384.9,256,384.9,256,384.9,256z"/>
	<path d="M287.5,182.5c-4.7-4.7-12.3-4.8-17-0.1c-4.7,4.7-4.8,12.3-0.1,17c14.8,15,23,35.1,23,56.6c0,0,0,0,0,0s0,0,0,0
		c0,21.4-8.2,41.5-23,56.6c-4.7,4.7-4.6,12.3,0.1,17c2.3,2.3,5.4,3.5,8.4,3.5c3.1,0,6.2-1.2,8.5-3.6c19.3-19.6,29.9-45.6,29.9-73.4
		c0,0,0,0,0,0s0,0,0,0C317.4,228.2,306.8,202.1,287.5,182.5z"/>
</g>
</svg>
