<?xml version="1.0" encoding="utf-8"?>
<!-- Generator: Adobe Illustrator 18.1.1, SVG Export Plug-In . SVG Version: 6.00 Build 0)  -->
<svg version="1.1" id="Layer_1" xmlns="http://www.w3.org/2000/svg" xmlns:xlink="http://www.w3.org/1999/xlink" x="0px" y="0px"
	 viewBox="0 0 512 512" enable-background="new 0 0 512 512" xml:space="preserve">
<g>
	<path d="M256,64c25.9,0,51.1,5.1,74.7,15.1c22.9,9.7,43.4,23.5,61,41.2c17.6,17.6,31.5,38.2,41.2,61c10,23.7,15.1,48.8,15.1,74.7
		s-5.1,51.1-15.1,74.7c-9.7,22.9-23.5,43.4-41.2,61c-17.6,17.6-38.2,31.5-61,41.2c-23.7,10-48.8,15.1-74.7,15.1s-51.1-5.1-74.7-15.1
		c-22.9-9.7-43.4-23.5-61-41.2c-17.6-17.6-31.5-38.2-41.2-61C69.1,307.1,64,281.9,64,256s5.1-51.1,15.1-74.7
		c9.7-22.9,23.5-43.4,41.2-61c17.6-17.6,38.2-31.5,61-41.2C204.9,69.1,230.1,64,256,64 M256,48C141.1,48,48,141.1,48,256
		s93.1,208,208,208s208-93.1,208-208S370.9,48,256,48L256,48z"/>
	<g>
		<circle cx="328" cy="224" r="24"/>
		<circle cx="184" cy="224" r="24"/>
		<g>
			<path d="M256,369c48.3,0,88.5-35,96.5-81H159.5C167.5,334,207.7,369,256,369z"/>
		</g>
	</g>
</g>
</svg>
