<?xml version="1.0" encoding="utf-8"?>
<!-- Generator: Adobe Illustrator 18.1.1, SVG Export Plug-In . SVG Version: 6.00 Build 0)  -->
<svg version="1.1" id="Layer_1" xmlns="http://www.w3.org/2000/svg" xmlns:xlink="http://www.w3.org/1999/xlink" x="0px" y="0px"
	 viewBox="0 0 512 512" enable-background="new 0 0 512 512" xml:space="preserve">
<g>
	<g>
		<path d="M76.1,187c0-38.1,22.2-71,55.3-85h-7.1c-28.7,0-60.7,30.4-66.3,69.8c-5.6,0.9-9.9,7.3-9.9,14.9c0,8,4.7,14.3,10.8,14.8
			c4.2,30,35.7,59,56.9,65.4l10.1,3.2C98.1,254.3,76.1,221.3,76.1,187z"/>
		<path d="M390.5,64c8.7,0,15.8,3.2,23.7,10.6c6.9,6.6,13,15.7,18.1,27.1c1,2.4,2,4.6,2.9,6.9l0,0.1l0,0.1
			c8.2,21.2,12.8,48.3,12.8,76.2c0,27.8-4.5,54.8-12.7,76.1l0,0.1l0,0.1c-0.9,2.3-1.8,4.6-2.9,7.1c-5.1,11.2-10.4,19.2-18.5,27.4
			C402,307.7,393.6,309,390.5,309c-3.2,0-6.1-0.6-14.4-3.7c-6.2-2.4-12.4-4.9-18.5-7.3c-31.1-12.5-63.2-25.4-106.5-25.4
			c-7.1,0-13.7,2.9-18.6,8.3c-14.7,16-12.7,51.7-8.2,104.4c1.2,13.7,2.3,26.7,2.3,35c0,9.9-0.3,16.4-0.9,21.3
			c-0.4,3.4-0.9,5.3-1.3,6.2c-0.7,0.1-1.8,0.2-3.6,0.2c-7.4,0-18.3-1.4-28.4-3.7c-12.2-2.8-18-5.6-19.6-6.7c-2.1-2.6-2.3-4-0.2-19.1
			c2-14.3,15-84.1,20.6-113.9c1.1-5.9,1.9-10.3,2.3-12.5c2-10.6-3.3-20.2-14.1-25.8c-5.6-2.9-12.3-4.6-18.8-6.3
			c-5-1.3-13.5-3.5-15.7-5.3l-1-0.8l-1.1-0.7c-22.6-13.4-36.6-38.8-36.6-66.2c0-15.2,4.5-29.9,12.9-42.7
			c7.5-11.4,17.7-20.4,29.5-26.3c7.7-0.1,28-0.2,59.8-0.2c21.9,0,50.6-4.9,81-13.9c30.6-9.1,59.5-21.3,81.2-34.3l0.6-0.4
			C377.1,67,382,64,390.5,64 M390.5,48c-13.5,0-21.5,5.2-25.8,7.8c-43.1,25.9-112.3,46-154,46s-63.4,0.2-63.4,0.2
			c-31.6,14-54.8,46.9-54.8,85c0,34.2,17.8,64.2,44.4,80c12.1,10.1,45.6,8.8,43.1,22.2c-2.5,13.4-20.5,109.5-23,127s-2.9,23.5,4,32
			c7,8.5,41.5,15.8,60,15.8s21.8-8.7,21.8-43.8s-17.3-131.7,8.5-131.7c48.3,0,81.5,17.3,119.3,31.7c9,3.4,14.1,4.7,20.1,4.7
			c6,0,18.7-1.9,34.7-18.2c9.2-9.4,15.7-18.8,21.7-32.2c1.1-2.6,2.2-5.2,3.2-8c8.9-23.2,13.7-51.9,13.7-81.9
			c0-29.9-4.8-58.7-13.8-82c-1-2.7-2.1-5.2-3.2-7.7c-6-13.4-13.4-24.2-21.7-32.2C414.8,53.2,403.9,48,390.5,48L390.5,48z"/>
	</g>
	<path d="M385.3,96.3c2.1,0,10,4.1,15.7,16.7c4.5,10.2,15,37.4,15,72c0,34.2-10.4,61.6-14.9,71.8c-5.3,12-12.5,18.5-15.5,19.8
		c-2-1.4-7.1-6.7-12.9-19.8c-7.9-18-12.5-44.2-12.5-71.8c0-27.9,4.6-54.1,12.6-72C378.9,99.2,384.5,96.3,385.3,96.3 M385.3,80.3
		c-10.4,0-20,9.9-27.2,26.2c-8.5,19.2-13.9,47.2-13.9,78.5c0,31.1,5.4,59.1,13.8,78.2c7.2,16.5,16.8,29.6,27.3,29.6
		c10.5,0,23.1-13.1,30.4-29.6c8.4-19.2,16.3-47.2,16.3-78.2c0-31.3-7.8-59.3-16.4-78.5C408.3,90.3,395.8,80.3,385.3,80.3L385.3,80.3
		z"/>
</g>
</svg>
