<?xml version="1.0" encoding="utf-8"?>
<!-- Generator: Adobe Illustrator 22.0.1, SVG Export Plug-In . SVG Version: 6.00 Build 0)  -->
<svg version="1.1" id="Layer_1" xmlns="http://www.w3.org/2000/svg" xmlns:xlink="http://www.w3.org/1999/xlink" x="0px" y="0px"
	 viewBox="0 0 512 512" style="enable-background:new 0 0 512 512;" xml:space="preserve">
<path d="M430.3,174.3l-16.5-28.6c-4.3-7.4-13.8-10-21.2-5.7l-98.6,57c-2.7,1.5-6-0.4-6-3.5V79.5c0-8.6-6.9-15.5-15.5-15.5h-33
	c-8.6,0-15.5,6.9-15.5,15.5v114.1c0,3.1-3.3,5-6,3.5l-98.6-57c-7.4-4.3-16.9-1.7-21.2,5.7l-16.5,28.6c-4.3,7.4-1.7,16.9,5.7,21.1
	l98.7,57.1c2.7,1.5,2.7,5.4,0,6.9l-98.7,57.1c-7.4,4.3-9.9,13.7-5.7,21.1l16.5,28.6c4.3,7.4,13.8,10,21.2,5.7l98.6-57
	c2.7-1.5,6,0.4,6,3.5v114.1c0,8.6,6.9,15.5,15.5,15.5h33c8.6,0,15.5-6.9,15.5-15.5V318.4c0-3.1,3.4-5,6-3.5l98.6,57
	c7.4,4.3,16.9,1.7,21.2-5.7l16.5-28.6c4.3-7.4,1.7-16.9-5.7-21.1l-98.7-57.1c-2.7-1.5-2.7-5.4,0-6.9l98.7-57.1
	C432,191.2,434.5,181.7,430.3,174.3z"/>
</svg>
