<?xml version="1.0" encoding="utf-8"?>
<!-- Generator: Adobe Illustrator 22.0.1, SVG Export Plug-In . SVG Version: 6.00 Build 0)  -->
<svg version="1.1" id="Layer_1" xmlns="http://www.w3.org/2000/svg" xmlns:xlink="http://www.w3.org/1999/xlink" x="0px" y="0px"
	 viewBox="0 0 512 512" style="enable-background:new 0 0 512 512;" xml:space="preserve">
<g>
	<path d="M415.9,143.7c3.1,3.1,8.2,3.1,11.3,0l11.3-11.3c3.1-3.1,3.1-8.2,0-11.3l-25.5-25.5c-3.1-3.1-8.2-3.1-11.3,0l-11.3,11.3
		c-3.1,3.1-3.1,8.2,0,11.3L415.9,143.7z"/>
	<path d="M84.8,143.7c3.1,3.1,8.2,3.1,11.3,0l25.5-25.5c3.1-3.1,3.1-8.2,0-11.3l-11.3-11.3c-3.1-3.1-8.2-3.1-11.3,0L73.5,121
		c-3.1,3.1-3.1,8.2,0,11.3L84.8,143.7z"/>
	<path d="M280,81.5V64c0-8.8-7.2-16-16-16h-16c-8.8,0-16,7.2-16,16v17.5C137.3,93.3,64,174.1,64,272c0,106,86,192,192,192
		s192-86,192-192C448,174.1,374.7,93.3,280,81.5z M270,300.8V320c0,7.7-6.3,14-14,14s-14-6.3-14-14v-19.2c-10.7-5.2-18-16.1-18-28.8
		c0-12.7,7.3-23.6,18-28.8V144c0-7.7,6.3-14,14-14s14,6.3,14,14v99.2c10.7,5.2,18,16.1,18,28.8C288,284.7,280.7,295.6,270,300.8z"/>
</g>
</svg>
