<?xml version="1.0" encoding="utf-8"?>
<!-- Generator: Adobe Illustrator 18.1.1, SVG Export Plug-In . SVG Version: 6.00 Build 0)  -->
<svg version="1.1" id="Layer_1" xmlns="http://www.w3.org/2000/svg" xmlns:xlink="http://www.w3.org/1999/xlink" x="0px" y="0px"
	 viewBox="0 0 512 512" enable-background="new 0 0 512 512" xml:space="preserve">
<g>
	<path d="M137.3,426.4c-5.5,5.4-14.4,5.4-19.9,0c-5.4-5.5-5.4-14.4,0-19.9c5.5-5.4,14.4-5.4,19.9,0C142.7,412,142.7,421,137.3,426.4
		z"/>
	<g>
		<polygon points="380.1,64.1 380.1,64.1 380.1,64.1 		"/>
		<path d="M213.1,240.7l25.9-25.9c3.1,3-1-1.1,8.6,8.3c4.2-3.9,8.1-7.6,11.6-11c-19.2-18.9-14.5-14.2-14.5-14.2
			c-1.4-1.4-3.8-2.3-6.3-2.3c-1.4,0-2.9,0.3-4.2,1l-5.7,3c-28.1-27.8-35.4-40.3-34.3-61.8c1.1-22.4,12.3-37.2,30.6-52.7
			c24.8-21.1,60.7-15.3,60.7-15.3c8,0-4.1-8.5-10.4-12.5c-9.4-6-23.3-9.6-37.9-9.6c-14.3,0-30.4,2.5-46.8,9.3
			c-46.5,19-74.1,45.5-81.2,52.5c-7,7-16.8,18-22.9,26.7c-6.1,8.7,1.9,21-6.1,29s-24.8,0-24.8,0c-1.4,0-2.9,0.5-3.9,1.6l-34.2,33.9
			c-2.2,2.2-2.2,5.7,0,7.8l63.6,63.2c1.1,1.1,2.5,1.6,3.9,1.6s2.9-0.5,3.9-1.6l33.2-34.8c2.2-2.2,2.2-5.7,0-7.8c0,0-5.3-5.2-12.1-12
			c-6.8-6.8,0.8-19.4,5.3-23.4c4.5-4.1,11.6-6.8,21.2-6.8c4.3,0,7.4,0.7,11.4,1.8c12.2,3.4,25.8,15.9,50.9,40.8l-3.9,6.5
			c-2.3,3.8-0.9,8.3,1.3,10.4c0,0-5-4.9,13.1,13.2c4-3.7,7.8-7.4,11.6-11C211.7,239.3,216.1,243.7,213.1,240.7z M210,217.9l-4-4
			c-23.9-23.8-38.3-36.6-53.9-40.9c-5.1-1.4-9.5-2.4-15.7-2.4c-11.5,0-19.7,2.7-28.7,8.7c-10.5,7-18.6,22.1-18.6,31.5
			c0,9.5,6.7,14.5,12.3,20.2l-19.4,19.2l-46-45.6l19.3-19.1l7.6,1.2c12.9,0,22.8-3.5,29.4-10c8.7-8.7,8-20.1,7.5-26.8
			c-0.1-1.6-0.3-4-0.2-5.2c5.5-7.7,14.5-17.8,20.7-23.9c11.5-11.4,36.7-33,76-49c11.5-4.7,23.5-7.4,35.7-7.9
			c-6.9,2.2-12.7,5.1-17.3,8.8l0,0l0,0c-23.1,18.6-35.4,40.3-36.5,64.5c-1.4,28.9,10.3,45.5,39,73.9l1.4,1.4l-7.1,7.1L210,217.9z"/>
		<path d="M443.2,404.8l-38.9,38.6c-16-19.1-61.8-71.5-108.7-120.1c-3.6,3.8-7.3,7.7-11,11.7c58.6,60.7,115.1,127.8,115.1,127.8
			c1.1,1.1,2.5,1.6,3.9,1.6s2.9-0.5,3.9-1.6l55.2-54.8c2.2-2.2,2.2-5.7,0-7.8c0,0-69-57.3-130.4-115.8c-3.4,3.6-7.1,7.5-11,11.6
			C370.3,342.6,423.7,388.7,443.2,404.8z"/>
		<path d="M479.5,125.1L427,177.8l-51.2-9.3l-9.2-51.2l52.5-52.7c-11.2-11.2-26.8-16.6-39-16.6c-0.7,0-1.4,0-2,0.1
			c-12.5,0.7-39.3,7.7-60,29.7C298.1,99,277,138.5,295.6,182.3c2.2,5.3,4.7,12.3-2.7,19.7c-1.5,1.4-9.9,9.4-22.5,21.3
			c-3.6,3.4-7.5,7-11.6,11c-8.1,7.6-17.1,16.2-26.8,25.3c-3.8,3.6-7.7,7.3-11.6,11C163.3,324.5,93.3,390.3,93.3,390.3
			c-18,15.5-16.7,44.2-0.1,60.9c8.5,8.4,20,12.8,31.3,12.8c11.1,0,21.9-4.2,29.6-13.1c0,0,65.6-69.9,119.4-127.1
			c3.7-4,7.4-7.9,11-11.7c9.3-9.9,18-19.1,25.8-27.3c3.9-4.2,7.6-8.1,11-11.6c11.5-12.2,19.4-20.4,21-22c4-3.9,7.7-5.1,11.1-5.1
			c3.3,0,6.3,1.2,8.6,2.4c9.9,5.1,21,7.4,32.4,7.4c26.8,0,55-12.4,72.2-29.6c24.4-24.4,28.9-48,29.6-60.1
			C496.9,154.3,492.8,138.4,479.5,125.1z M480.2,165.3c-0.7,12-5.7,30.5-25,49.8c-14.9,14.9-39.3,24.9-60.8,24.9
			c-9.5,0-17.9-1.9-25-5.6l0,0l0,0c-3.5-1.8-9-4.2-15.9-4.2c-5.6,0-14,1.7-22.3,9.7c-9,8.8-181.3,192.4-188.7,200.2l-0.2,0.2
			l-0.2,0.2c-5.7,6.6-13.4,7.6-17.5,7.6c-7.4,0-14.7-3-20.1-8.2c-5.4-5.5-8.5-13.4-8.2-21.2c0.2-4.6,1.6-11.2,7.5-16.2l0.3-0.2
			l0.3-0.2c7.8-7.4,192.3-181.1,199.9-188.6l0,0l0,0c7.9-7.9,9.6-16.2,9.7-21.8c0-6.9-2.4-12.6-3.5-15.4l0,0l0,0
			c-18.2-42.7,10.2-77.6,19.4-87.2l0,0l0,0c17.3-18.4,39.7-24.2,49.2-24.7c0.4,0,0.8,0,1.2,0c4,0,9,1,14,3l-38.8,39l-5.9,5.9
			l1.5,8.2l9.2,51.2l2,10.9l10.9,2l51.2,9.3l8.3,1.5l5.9-5.9l39-39.2C480.4,157,480.4,163,480.2,165.3z"/>
	</g>
</g>
</svg>
