<?xml version="1.0" encoding="utf-8"?>
<!-- Generator: Adobe Illustrator 22.0.1, SVG Export Plug-In . SVG Version: 6.00 Build 0)  -->
<svg version="1.1" id="Layer_1" xmlns="http://www.w3.org/2000/svg" xmlns:xlink="http://www.w3.org/1999/xlink" x="0px" y="0px"
	 viewBox="0 0 512 512" style="enable-background:new 0 0 512 512;" xml:space="preserve">
<g>
	<path d="M448,119c0-13.3-9.4-23-22.8-23H230.9c-2.8,0-4.3-0.6-6.1-2.4l-22.5-22.5l-0.2-0.2c-4.9-4.6-8.9-6.9-17.3-6.9H88.7
		C74.9,64,64,74.3,64,87v73h384V119z"/>
	<path d="M64,188c-4,0-7.1,0-8.3,0c-12.8,0-25.3,5.1-23.5,24.3C34,231.5,55.7,423,55.7,423c2.7,17.8,11.7,25,25,25h352.5
		c12.7,0,21-7.8,23-25c0,0,22.2-184.9,23.6-205.5c1.4-20.5-8.9-29.5-23.6-29.5c-1.1,0-4.3,0-8.3,0H64z"/>
</g>
</svg>
