<?xml version="1.0" encoding="utf-8"?>
<!-- Generator: Adobe Illustrator 22.0.1, SVG Export Plug-In . SVG Version: 6.00 Build 0)  -->
<svg version="1.1" id="Layer_1" xmlns="http://www.w3.org/2000/svg" xmlns:xlink="http://www.w3.org/1999/xlink" x="0px" y="0px"
	 viewBox="0 0 512 512" style="enable-background:new 0 0 512 512;" xml:space="preserve">
<g>
	<path d="M416,141.1c-18.9,3.9-36.8,8.2-53.7,12.8c-40.5,11-75.5,24.9-105.4,38.2c-19.3,8.6-26.2,12.4-51.5,25.9
		C147,248.9,112,289,112,349c0,67.8,55.6,115,144,115s144-51.2,144-119C400,277.3,339,230.3,416,141.1z"/>
	<path d="M135.4,241.8c12.8-10.5,31.2-23.9,56.1-38.4c6.4-3.8,13.3-7.6,20.6-11.4c11.6-6.1,23.5-11.9,35.8-17.4
		c-9.1-10.1-22.1-19.1-36.6-27C162.6,121.1,96,107.4,96,107.4C137.5,151.1,140.6,203.9,135.4,241.8z"/>
	<path d="M352,77.7c0,0-73.8-0.9-125.8,55c0,0,27.7,17.3,42.7,32.3c37.2-15.6,82.3-28.6,115.2-36C377.6,107.3,352,77.7,352,77.7z"/>
	<path d="M239.7,97C210.3,59.5,176,48,176,48c-15.3,20.8-24.3,38-29,51.7c21.1,5.9,36.5,12.3,62.4,24.7
		C218.9,113.8,227.5,105.3,239.7,97z"/>
</g>
</svg>
