<?xml version="1.0" encoding="utf-8"?>
<!-- Generator: Adobe Illustrator 22.0.1, SVG Export Plug-In . SVG Version: 6.00 Build 0)  -->
<svg version="1.1" id="Layer_1" xmlns="http://www.w3.org/2000/svg" xmlns:xlink="http://www.w3.org/1999/xlink" x="0px" y="0px"
	 viewBox="0 0 512 512" style="enable-background:new 0 0 512 512;" xml:space="preserve">
<g>
	<path d="M447.9,80H64.1C46.5,80,32,94.5,32,112.1v287.7c0,17.7,14.5,32.1,32.1,32.1h383.7c17.7,0,32.1-14.5,32.1-32.1V112.1
		C480,94.5,465.5,80,447.9,80z M120,400c0,4.4-3.6,8-8,8H64c-4.4,0-8-3.6-8-8v-48c0-4.4,3.6-8,8-8h48c4.4,0,8,3.6,8,8V400z M120,320
		c0,4.4-3.6,8-8,8H64c-4.4,0-8-3.6-8-8v-48c0-4.4,3.6-8,8-8h48c4.4,0,8,3.6,8,8V320z M120,240c0,4.4-3.6,8-8,8H64c-4.4,0-8-3.6-8-8
		v-48c0-4.4,3.6-8,8-8h48c4.4,0,8,3.6,8,8V240z M120,160c0,4.4-3.6,8-8,8H64c-4.4,0-8-3.6-8-8v-48c0-4.4,3.6-8,8-8h48
		c4.4,0,8,3.6,8,8V160z M352,268H160c-6.6,0-12-5.4-12-12s5.4-12,12-12h192c6.6,0,12,5.4,12,12S358.6,268,352,268z M456,400
		c0,4.4-3.6,8-8,8h-48c-4.4,0-8-3.6-8-8v-48c0-4.4,3.6-8,8-8h48c4.4,0,8,3.6,8,8V400z M456,320c0,4.4-3.6,8-8,8h-48
		c-4.4,0-8-3.6-8-8v-48c0-4.4,3.6-8,8-8h48c4.4,0,8,3.6,8,8V320z M456,240c0,4.4-3.6,8-8,8h-48c-4.4,0-8-3.6-8-8v-48
		c0-4.4,3.6-8,8-8h48c4.4,0,8,3.6,8,8V240z M456,160c0,4.4-3.6,8-8,8h-48c-4.4,0-8-3.6-8-8v-48c0-4.4,3.6-8,8-8h48c4.4,0,8,3.6,8,8
		V160z"/>
</g>
</svg>
