<?xml version="1.0" encoding="utf-8"?>
<!-- Generator: Adobe Illustrator 22.0.1, SVG Export Plug-In . SVG Version: 6.00 Build 0)  -->
<svg version="1.1" id="Layer_1" xmlns="http://www.w3.org/2000/svg" xmlns:xlink="http://www.w3.org/1999/xlink" x="0px" y="0px"
	 viewBox="0 0 512 512" style="enable-background:new 0 0 512 512;" xml:space="preserve">
<g>
	<path d="M201.1,361.2l-67.8,48.9c-3.7,3.6-5.2,9.1-5.3,13.9c-0.1,4.8,1.2,8.8,4.7,12.5c3.6,3.9,8.8,6.2,13.6,6.2
		c4.5,0,12.5-4.9,16-8.4l69.7-51.6c3.6-3.5,5.7-8.4,5.7-13.5l9.1-52.5L201.1,270V361.2z"/>
	<g>
		<ellipse transform="matrix(0.1602 -0.9871 0.9871 0.1602 162.2356 329.3518)" cx="274.7" cy="69.3" rx="37.3" ry="37.3"/>
		<g>
			<path d="M350.7,459.2l-15.2-117.4c-0.5-3.5-1.9-6.8-4.2-9.5l-57-68.8V143.9c0-11.3-6.3-15.9-18.3-15.9h-37c-2.8,0-5.2,1-7.7,2.3
				l-68,31.7c-10,5.3-15.3,15.4-15.3,28.7V256c0,10.3,8.2,18.7,18.3,18.7c10.1,0,18.3-8.4,18.3-18.7v-58.2c0-3,1.7-5.8,4.4-7.1
				l32.2-16.4v75.3c0,4.2,1.6,8.2,4.6,11.2l92.4,94.4c1.2,1.2,2,2.8,2.2,4.5l14.2,104.7c1.3,9.3,9.1,15.7,18.1,15.7h2
				C344.6,478.6,352.1,469.4,350.7,459.2z"/>
			<path d="M378.4,232.4l-95-96.2v52.6l69.2,70.1c7.2,7.3,18.7,7.2,25.9-0.1c3.5-3.6,5.5-7.5,5.5-12.2
				C384,241.8,382,236.1,378.4,232.4z"/>
		</g>
	</g>
</g>
</svg>
