<?xml version="1.0" encoding="utf-8"?>
<!-- Generator: Adobe Illustrator 22.0.1, SVG Export Plug-In . SVG Version: 6.00 Build 0)  -->
<svg version="1.1" id="Layer_1" xmlns="http://www.w3.org/2000/svg" xmlns:xlink="http://www.w3.org/1999/xlink" x="0px" y="0px"
	 viewBox="0 0 512 512" style="enable-background:new 0 0 512 512;" xml:space="preserve">
<g>
	<path d="M174,64h-58.8C78.1,64,48,94.1,48,131.2V190c0,7.7,6.3,14,14,14s14-6.3,14-14v-59.8c0-9.1,4.3-18.7,11.7-26.2
		c7.5-7.6,17.2-12,26.5-12H174c7.7,0,14-6.3,14-14S181.7,64,174,64z"/>
	<path d="M397.8,64H338c-7.7,0-14,6.3-14,14s6.3,14,14,14h59.8c9.3,0,19,4.4,26.5,12c7.4,7.5,11.7,17.1,11.7,26.2V190
		c0,7.7,6.3,14,14,14s14-6.3,14-14v-59.8C464,93.7,434.3,64,397.8,64z"/>
	<path d="M174,420h-59.8c-9.3,0-19-4.4-26.5-12c-7.4-7.5-11.7-17.1-11.7-26.2V322c0-7.7-6.3-14-14-14s-14,6.3-14,14v59.8
		c0,36.5,29.7,66.2,66.2,66.2H174c7.7,0,14-6.3,14-14S181.7,420,174,420z"/>
	<path d="M450,308c-7.7,0-14,6.3-14,14v59.8c0,9.1-4.3,18.7-11.7,26.2c-7.5,7.6-17.2,12-26.5,12H338c-7.7,0-14,6.3-14,14
		s6.3,14,14,14h58.8c37,0,67.2-30.1,67.2-67.2V322C464,314.3,457.7,308,450,308z"/>
</g>
</svg>
