<?xml version="1.0" encoding="utf-8"?>
<!-- Generator: Adobe Illustrator 22.0.1, SVG Export Plug-In . SVG Version: 6.00 Build 0)  -->
<svg version="1.1" id="Layer_1" xmlns="http://www.w3.org/2000/svg" xmlns:xlink="http://www.w3.org/1999/xlink" x="0px" y="0px"
	 viewBox="0 0 512 512" style="enable-background:new 0 0 512 512;" xml:space="preserve">
<g>
	<path d="M255.9,456c31.1,0,48.1-22,48.1-53h-96.3C207.7,434,224.7,456,255.9,456z"/>
	<path d="M412,352.2c-15.4-20.3-45.7-32.2-45.7-123.1c0-93.3-41.2-130.8-79.6-139.8c-3.6-0.9-6.2-2.1-6.2-5.9v-2.9
		c0-13.4-11-24.7-24.4-24.6c-13.4-0.2-24.4,11.2-24.4,24.6v2.9c0,3.7-2.6,5-6.2,5.9c-38.5,9.1-79.6,46.5-79.6,139.8
		c0,90.9-30.3,102.7-45.7,123.1c-9.9,13.1-0.5,31.8,15.9,31.8l140.4,0l139.7,0C412.5,384,421.9,365.2,412,352.2z"/>
</g>
</svg>
