<?xml version="1.0" encoding="utf-8"?>
<!-- Generator: Adobe Illustrator 18.1.1, SVG Export Plug-In . SVG Version: 6.00 Build 0)  -->
<svg version="1.1" id="Layer_1" xmlns="http://www.w3.org/2000/svg" xmlns:xlink="http://www.w3.org/1999/xlink" x="0px" y="0px"
	 viewBox="0 0 512 512" enable-background="new 0 0 512 512" xml:space="preserve">
<g>
	<rect x="32" y="400" width="448" height="16"/>
	<path d="M200,384c15,0,65.7,0,80,0c8.8,0,58-12,94.7-80.4c3.1,0.3,6.2,0.4,9.3,0.4c53,0,96-39.4,96-88c0-38.6-27.1-71.4-64.9-83.3
		c0.6-11.7,0.9-23.9,0.9-36.7H64C64,352,185,384,200,384z M464,216c0,39.7-35.9,72-80,72c-0.5,0-1.1,0-1.6,0
		c15.2-33.6,27.2-78.6,31.7-138.7C443.3,160,464,185.9,464,216z M80.2,112h319.6c-1.1,49.2-7.3,92.9-18.4,130.1
		c-9.7,32.4-23.2,59.9-40.1,81.7c-24.5,31.7-50.8,44.2-60.7,44.2s-68.3,0-80.1,0s-37.2-12.6-61.7-44.2
		c-16.9-21.8-30.4-49.3-40.1-81.7C87.5,204.9,81.3,161.2,80.2,112z"/>
</g>
</svg>
