<?xml version="1.0" encoding="utf-8"?>
<!-- Generator: Adobe Illustrator 22.0.1, SVG Export Plug-In . SVG Version: 6.00 Build 0)  -->
<svg version="1.1" id="Layer_1" xmlns="http://www.w3.org/2000/svg" xmlns:xlink="http://www.w3.org/1999/xlink" x="0px" y="0px"
	 viewBox="0 0 512 512" style="enable-background:new 0 0 512 512;" xml:space="preserve">
<path d="M462.2,261.9L289.6,89.3C263,62.7,227.4,48,189.5,48C151.5,48,116,62.7,89.3,89.3C62.7,116,48,151.5,48,189.5
	S62.7,263,89.3,289.6l172.6,172.6c1.1,1.1,2.7,1.8,4.3,1.8c1.6,0,3.1-0.6,4.3-1.8l57.5-57.5c2.4-2.4,2.4-6.2,0-8.5L165.2,233.3
	c-13-13-21.2-27.8-22.9-41.7c-1.8-13.6,2.7-25.8,13.1-36.3c9.9-9.9,22.4-14.3,36-12.6c14.3,1.7,29.2,9.7,42,22.5L396.2,328
	c2.4,2.4,6.2,2.4,8.5,0l57.5-57.5C464.6,268.1,464.6,264.3,462.2,261.9z M275.8,380.2l20.2,20.2l-29.8,29.8L245.9,410L275.8,380.2z
	 M400.4,296l-20.2-20.2l29.8-29.8l20.2,20.2L400.4,296z"/>
</svg>
