<?xml version="1.0" encoding="utf-8"?>
<!-- Generator: Adobe Illustrator 18.1.1, SVG Export Plug-In . SVG Version: 6.00 Build 0)  -->
<svg version="1.1" id="Layer_1" xmlns="http://www.w3.org/2000/svg" xmlns:xlink="http://www.w3.org/1999/xlink" x="0px" y="0px"
	 viewBox="0 0 512 512" enable-background="new 0 0 512 512" xml:space="preserve">
<g>
	<g>
		<g>
			<rect x="160" y="64" width="16" height="54"/>
			<rect x="16" y="208" width="55" height="16"/>
			<polygon points="59.5,117.4 70.5,106.3 101.9,137.8 90.9,148.9 			"/>
			<polygon points="239.4,147.9 228.4,136.8 259.7,105.3 270.8,116.4 			"/>
			<polygon points="72.5,320.7 61.5,309.6 92.9,278.1 103.9,289.2 			"/>
		</g>
		<path d="M165,138.3c-40.5,0-73.3,32.8-73.3,73.3c0,36.8,27.1,67.3,62.5,72.5c0,0-1.2-42.9,18.9-72.9s51.8-42,51.8-42
			C211.5,150.5,189.7,138.3,165,138.3z"/>
	</g>
	<path d="M403.3,259.2c-0.8,0-1.6,0-2.4,0c-3.1,0-6.1,0-9,0.4c-11.3-50.3-56.1-88.2-109.7-88.2c-14.6,0-28.6,2.8-41.4,7.9
		c-5.1,2-10,4.4-14.7,7.1c-32,18.5-54.1,52.4-56.2,91.6c-0.1,2.1-0.2,4.1-0.2,6.2c0,3.4,0.2,6.8,0.5,10.1c0,0.4,0.1,0.8,0.1,1.1
		c-37.9,3.4-67.6,37.1-67.6,76c0,41.1,33.3,76.7,74.3,76.7h226.4c51.2,0,92.7-43.4,92.7-94.8C496,301.9,454.5,259.2,403.3,259.2z"/>
</g>
</svg>
