<?xml version="1.0" encoding="utf-8"?>
<!-- Generator: Adobe Illustrator 18.1.1, SVG Export Plug-In . SVG Version: 6.00 Build 0)  -->
<svg version="1.1" id="Layer_1" xmlns="http://www.w3.org/2000/svg" xmlns:xlink="http://www.w3.org/1999/xlink" x="0px" y="0px"
	 viewBox="0 0 512 512" enable-background="new 0 0 512 512" xml:space="preserve">
<g>
	<path d="M296.6,151.6c-1.1-0.4-2.2-0.8-3.3-1.2l-28,104.6l75,75c1-1.1,1.9-2.2,2.8-3.3C359.2,306.7,368,282,368,256
		c0-29.9-11.7-58-32.8-79.2C324,165.6,310.9,157.1,296.6,151.6z"/>
	<path d="M278.1,146.2c-1.4-0.3-2.9-0.5-4.3-0.8c-5.8-0.9-11.8-1.4-17.8-1.4c-29.9,0-58,11.7-79.2,32.8C155.7,198,144,226.1,144,256
		c0,5.9,0.5,11.8,1.4,17.5c0.2,1.5,0.5,3,0.8,4.4l104.2-27.9L278.1,146.2z"/>
	<path d="M150.5,293.7c0.4,1.1,0.8,2.2,1.2,3.3c5.6,14.1,14,27.1,25.1,38.2C198,356.3,226.1,368,256,368c25.6,0,50-8.6,69.7-24.3
		c1.1-0.8,2.1-1.7,3.1-2.6l-74.9-74.9L150.5,293.7z"/>
	<path d="M448,272.8v-32l-33.3-8.7l-2.6-13.2l27.6-20.9l-12.2-29.6l-34.4,4.8l-7.5-10.6l17.7-29.7l-22.6-22.6l-30.2,17.4l-10.7-7.3
		l5.3-35L315.6,73L294,101.3l-12.3-2.6L273,64h-32l-9.2,34.9l-12.1,2.4l-21.5-29l-29.6,12.3l4.8,35.7l-11.7,7.2l-31.3-18.7
		l-22.6,22.6l18.8,31.5l-6.7,10.5l-35.5-5L72.3,198l28.9,21.7l-2.4,12.2L64,240.8v32l34.7,8.9l2.4,12.5l-28.4,21.3L85,345.1l35-5
		l7.1,11.3L109.2,382l22.6,22.6l30.2-18.2l11.2,7.3l-4.5,34.3l29.6,12.2l20.6-27.8l13.4,2.5l8.8,33.1h32l8.3-33.1l13.6-2.6
		l20.7,27.1l29.6-12.2l-5-33.7l10.2-7.4l29,16.9l22.6-22.6l-16.8-28.9l7.9-11.4l33.8,4.8l12.3-29.5L412,294.9l2.7-13.5L448,272.8z
		 M256,384c-70.7,0-128-57.3-128-128s57.3-128,128-128s128,57.3,128,128S326.7,384,256,384z"/>
</g>
</svg>
