<?xml version="1.0" encoding="utf-8"?>
<!-- Generator: Adobe Illustrator 18.1.1, SVG Export Plug-In . SVG Version: 6.00 Build 0)  -->
<svg version="1.1" id="Layer_1" xmlns="http://www.w3.org/2000/svg" xmlns:xlink="http://www.w3.org/1999/xlink" x="0px" y="0px"
	 viewBox="0 0 512 512" enable-background="new 0 0 512 512" xml:space="preserve">
<g>
	<g>
		<path d="M448,367.5V129.1c0-9.4-7.9-17.1-17.2-17.1H81.2c-9.3,0-17.2,7.6-17.2,17.1v238.4H15.9v15.6c0,3.1,31,16.9,52.1,16.9h376
			c24.3,0,52-14.1,52.1-16.5v-16H448z M256,120c2.2,0,4,1.8,4,4c0,2.2-1.8,4-4,4s-4-1.8-4-4C252,121.8,253.8,120,256,120z M80,136.2
			h352v215.3H80V136.2z M298.3,375.5c0,0-79.3,0-84.6,0s-9.7-6-9.7-7.5h104C308,369.5,305,375.5,298.3,375.5z"/>
	</g>
</g>
</svg>
