<?xml version="1.0" encoding="utf-8"?>
<!-- Generator: Adobe Illustrator 22.0.1, SVG Export Plug-In . SVG Version: 6.00 Build 0)  -->
<svg version="1.1" id="Layer_1" xmlns="http://www.w3.org/2000/svg" xmlns:xlink="http://www.w3.org/1999/xlink" x="0px" y="0px"
	 viewBox="0 0 512 512" style="enable-background:new 0 0 512 512;" xml:space="preserve">
<path d="M406.7,80.8c-3.1,0.5-6.4,1-9.9,1.4c-13.2,1.7-42.8,5.2-60.6,5.2c-27.7,0-52.8-6.8-78.2-12.2C232.2,69.7,205.6,64,177.4,64
	c-56.2,0-75.3,12.1-77.3,13.4L96,80.3v353.3c0,7.2,5.2,13.4,12.3,14.3c8.5,1,15.7-5.6,15.7-13.9V279.6c0-3.8,2.7-7.1,6.4-7.9
	c10.5-2.1,25.8-3.9,47-3.9c26.2,0,50.7,10,76.6,15.5c26.4,5.6,48.6,11.5,83.4,11.5s71.8-6.6,71.8-6.6c3.9-0.6,6.9-3.9,6.9-7.9V88.7
	C416,83.8,411.6,80,406.7,80.8z"/>
</svg>
