<?xml version="1.0" encoding="utf-8"?>
<!-- Generator: Adobe Illustrator 18.1.1, SVG Export Plug-In . SVG Version: 6.00 Build 0)  -->
<svg version="1.1" id="Layer_1" xmlns="http://www.w3.org/2000/svg" xmlns:xlink="http://www.w3.org/1999/xlink" x="0px" y="0px"
	 viewBox="0 0 512 512" enable-background="new 0 0 512 512" xml:space="preserve">
<g>
	<path d="M64,124.2C64,102,85,80,108.2,80c19.8,0,67.8,0,67.8,0V64h-66.8C75.7,64,48,90.7,48,124.2V192h16C64,192,64,146.3,64,124.2
		z"/>
	<path d="M448,192h16v-67.8c0-33.5-27.7-60.2-61.2-60.2H336v16c0,0,48,0,67.8,0c23.2,0,44.2,22,44.2,44.2S448,192,448,192z"/>
	<path d="M64,320H48v67.8c0,33.5,27.7,60.2,61.2,60.2H176v-16c0,0-48,0-67.8,0C85,432,64,410,64,387.8S64,320,64,320z"/>
	<path d="M448,387.8c0,22.2-21,44.2-44.2,44.2c-19.8,0-67.8,0-67.8,0v16h66.8c33.5,0,61.2-26.7,61.2-60.2V320h-16
		C448,320,448,365.7,448,387.8z"/>
</g>
</svg>
