<?xml version="1.0" encoding="utf-8"?>
<!-- Generator: Adobe Illustrator 22.0.1, SVG Export Plug-In . SVG Version: 6.00 Build 0)  -->
<svg version="1.1" id="Layer_1" xmlns="http://www.w3.org/2000/svg" xmlns:xlink="http://www.w3.org/1999/xlink" x="0px" y="0px"
	 viewBox="0 0 512 512" style="enable-background:new 0 0 512 512;" xml:space="preserve">
<g>
	<path d="M332,142.7c-1.2-1.1-2.7-1.7-4.1-1.7s-3,0.6-4.1,1.7l-13.8,13.2c-1.2,1.1-1.9,2.7-1.9,4.3c0,1.6,0.7,3.2,1.9,4.3l95.8,91.5
		l-95.8,91.5c-1.2,1.1-1.9,2.7-1.9,4.3c0,1.6,0.7,3.2,1.9,4.3l13.8,13.2c1.2,1.1,2.6,1.7,4.1,1.7c1.5,0,3-0.6,4.1-1.7l114.2-109
		c1.2-1.1,1.9-2.7,1.9-4.3c0-1.6-0.7-3.2-1.9-4.3L332,142.7z"/>
	<path d="M204,160.2c0-1.6-0.7-3.2-1.9-4.3l-13.8-13.2c-1.2-1.1-2.7-1.7-4.1-1.7s-3,0.6-4.1,1.7l-114.2,109
		c-1.2,1.1-1.9,2.7-1.9,4.3c0,1.6,0.7,3.2,1.9,4.3l114.2,109c1.2,1.1,2.7,1.7,4.1,1.7c1.5,0,3-0.6,4.1-1.7l13.8-13.2
		c1.2-1.1,1.9-2.7,1.9-4.3c0-1.6-0.7-3.2-1.9-4.3L106.3,256l95.8-91.5C203.3,163.4,204,161.8,204,160.2z"/>
</g>
</svg>
