<?xml version="1.0" encoding="utf-8"?>
<!-- Generator: Adobe Illustrator 22.0.1, SVG Export Plug-In . SVG Version: 6.00 Build 0)  -->
<svg version="1.1" id="Layer_1" xmlns="http://www.w3.org/2000/svg" xmlns:xlink="http://www.w3.org/1999/xlink" x="0px" y="0px"
	 viewBox="0 0 512 512" style="enable-background:new 0 0 512 512;" xml:space="preserve">
<g>
	<path d="M256,48C141.1,48,48,141.1,48,256s93.1,208,208,208s208-93.1,208-208S370.9,48,256,48z M328,200c13.3,0,24,10.7,24,24
		s-10.7,24-24,24s-24-10.7-24-24S314.7,200,328,200z M184,200c13.3,0,24,10.7,24,24s-10.7,24-24,24s-24-10.7-24-24
		S170.7,200,184,200z M256,369c-44.7,0-82.3-29.9-94.2-70.7c-1.5-5.1,2.3-10.3,7.7-10.3h172.9c5.3,0,9.2,5.1,7.7,10.3
		C338.3,339.1,300.7,369,256,369z"/>
</g>
</svg>
