<?xml version="1.0" encoding="utf-8"?>
<!-- Generator: Adobe Illustrator 22.0.1, SVG Export Plug-In . SVG Version: 6.00 Build 0)  -->
<svg version="1.1" id="Layer_1" xmlns="http://www.w3.org/2000/svg" xmlns:xlink="http://www.w3.org/1999/xlink" x="0px" y="0px"
	 viewBox="0 0 512 512" style="enable-background:new 0 0 512 512;" xml:space="preserve">
<g>
	<path d="M278.9,145.6c-2.2-1.1-4.6-1.6-6.9-1.6c-3.6,0-7.1,1.2-10,3.5L196.8,200H144c-8.8,0-16,7.2-16,16v80c0,8.8,7.2,16,16,16
		h52.8l65.2,52.5c2.9,2.3,6.5,3.5,10,3.5c2.3,0,4.7-0.5,6.9-1.6c5.6-2.7,9.1-8.3,9.1-14.4V160C288,153.8,284.5,148.2,278.9,145.6z"
		/>
	<path d="M354.4,182.6c-4.6-4.7-12.1-4.8-16.8-0.1c-4.7,4.7-4.7,12.3-0.1,17c14.7,15,22.8,35.1,22.8,56.6c0,0,0,0,0,0s0,0,0,0
		c0,21.4-8.1,41.5-22.8,56.6c-4.6,4.7-4.6,12.3,0.1,17c2.3,2.3,5.3,3.5,8.3,3.5c3.1,0,6.1-1.2,8.5-3.6
		c19.1-19.6,29.6-45.6,29.6-73.4c0,0-0.2,0-0.2,0s0,0,0,0C383.8,228.2,373.5,202.1,354.4,182.6z"/>
</g>
</svg>
