<?xml version="1.0" encoding="utf-8"?>
<!-- Generator: Adobe Illustrator 22.0.1, SVG Export Plug-In . SVG Version: 6.00 Build 0)  -->
<svg version="1.1" id="Layer_1" xmlns="http://www.w3.org/2000/svg" xmlns:xlink="http://www.w3.org/1999/xlink" x="0px" y="0px"
	 viewBox="0 0 512 512" style="enable-background:new 0 0 512 512;" xml:space="preserve">
<path d="M445.2,48h-47.2H128.5C74.1,48,64,75.9,64,88.2c30.3,4.2,32,4.2,32,36.2c0,16,0,275.5,0,275.5c0,35.3,28.9,64,64.2,64H368
	c35.4,0,63-29.2,63-64.5V89.2c2-17.5,12.5-31.6,13.6-33.3c1.2-1.9,3.4-4.4,3.4-5.5C448,49.2,447.7,48,445.2,48z M112.2,77.3
	C112.2,77.2,112.2,77.2,112.2,77.3c6-1,12-1.3,16.3-1.3h269.6h6.9c-0.9,3.7-1.5,7.1-1.8,10c-0.1,1.1-0.2,2.1-0.2,3.2v70.9l0-0.1H124
	v-35.5C124,106.9,124,90.3,112.2,77.3z"/>
</svg>
