<?xml version="1.0" encoding="utf-8"?>
<!-- Generator: Adobe Illustrator 18.1.1, SVG Export Plug-In . SVG Version: 6.00 Build 0)  -->
<svg version="1.1" id="Layer_1" xmlns="http://www.w3.org/2000/svg" xmlns:xlink="http://www.w3.org/1999/xlink" x="0px" y="0px"
	 viewBox="0 0 512 512" enable-background="new 0 0 512 512" xml:space="preserve">
<g>
	<path d="M127.9,376c0-2,0.7-4,2.2-5.5c3.1-3.2,8.1-3.3,11.3-0.2c20.9,20,46.8,30.8,79.3,32.8c19,1.2,27.1,5.8,35,10.3
		c9.3,5.3,18.9,10.7,54.2,10.7c71.7,0,122-59.2,122-132v-56c0-24.7-3-48.9-16.1-69.8c-12.8-20.4-26.9-37-48.3-47.9
		c-3.9-2-5.5-6.8-3.5-10.8c2-3.9,6.8-5.5,10.8-3.5c24,12.2,40.2,30.8,54.6,53.6c14.8,23.5,18.5,50.6,18.5,78.3v56
		c0,81.6-57.5,148-138,148c-39.4,0-51.4-6.8-62-12.8c-7.2-4.1-12.8-7.3-28.2-8.2c-36.4-2.3-65.6-14.4-89.3-37.2
		C128.8,380.2,127.9,378.1,127.9,376z"/>
	<path d="M272.7,402c0-0.4,0-0.9,0.1-1.3c0.7-4.4,4.8-7.3,9.2-6.6c35.5,5.8,66.1-2.4,88.5-23.9c3.2-3.1,8.3-2.9,11.3,0.2
		c3.1,3.2,2.9,8.3-0.2,11.3c-26.2,25.1-61.5,34.8-102.1,28.1C275.5,409.2,272.7,405.8,272.7,402z"/>
	<path d="M64,292v-56c0-27.7,3.8-54.8,18.5-78.3c14.3-22.8,30.6-41.4,54.6-53.6c3.9-2,8.8-0.4,10.8,3.5s0.4,8.8-3.5,10.8
		c-21.4,10.9-35.5,27.5-48.3,47.9c-13.2,20.8-16.2,45-16.2,69.7v56c0,34.8,9,70.1,38.8,96.9c30.3,27.4,71,43.1,111.6,43.1
		c4.4,0,8,3.6,8,8s-3.6,8-8,8c-44.5,0-89-17.2-122.3-47.2C74.9,370.9,64,331.3,64,292z"/>
	<g>
		<circle cx="304.2" cy="104" r="19"/>
		<path d="M375.3,129c-1.9,0.6-3.9,1-6.1,1c-10.5,0-19-8.5-19-19s8.5-19,19-19c5.7,0,10.7,2.4,14.2,6.3c-3-19.4-19.8-34.3-40-34.3
			h-175c-19.6,0-36.1,14-39.8,32.7c3.4-3,7.8-4.7,12.6-4.7c10.5,0,19,8.5,19,19s-8.5,19-19,19c-1.5,0-2.9-0.2-4.3-0.5
			c7.4,8.9,18.8,14.5,31.5,14.5h175C356.3,144,368,138.2,375.3,129z M277.2,104c0-14.9,12.1-27,27-27c14.9,0,27,12.1,27,27
			s-12.1,27-27,27C289.5,131,277.2,118.9,277.2,104z"/>
	</g>
</g>
</svg>
