<?xml version="1.0" encoding="utf-8"?>
<!-- Generator: Adobe Illustrator 22.0.1, SVG Export Plug-In . SVG Version: 6.00 Build 0)  -->
<svg version="1.1" id="Layer_1" xmlns="http://www.w3.org/2000/svg" xmlns:xlink="http://www.w3.org/1999/xlink" x="0px" y="0px"
	 viewBox="0 0 512 512" style="enable-background:new 0 0 512 512;" xml:space="preserve">
<g>
	<path d="M317.5,210.3c1.7-1.8,1.8-4.7,0-6.5l-19.8-21c-0.8-0.9-2-1.4-3.2-1.4c0,0,0,0,0,0c-1.2,0-2.4,0.5-3.2,1.4l-66.5,69.1
		l26.4,27.1L317.5,210.3z"/>
	<g>
		<path d="M123.8,253.1c-0.9-0.9-2-1.4-3.2-1.4c-1.2,0-2.3,0.5-3.2,1.4l-20.1,20.7c-1.8,1.8-1.8,4.8,0,6.6l63.2,65
			c4,4.2,9,6.6,13.2,6.6c6,0,11.1-4.5,13.1-6.4c0,0,0,0,0.1-0.1l13.4-13.8L123.8,253.1z"/>
	</g>
	<path d="M414.7,182.4l-19.8-21c-0.8-0.9-2-1.4-3.2-1.4c0,0,0,0,0,0c-1.2,0-2.4,0.5-3.2,1.4L250.7,304.1l-50.1-51.6
		c-0.9-0.9-2-1.4-3.2-1.4c-1.2,0-2.3,0.5-3.2,1.4l-20.1,20.7c-1.8,1.8-1.8,4.8,0,6.6l63.2,65c4,4.2,9,6.6,13.2,6.6
		c6,0,11.1-4.5,13.1-6.4c0,0,0,0,0.1-0.1l151-156.1C416.4,187.1,416.4,184.2,414.7,182.4z"/>
</g>
</svg>
