<?xml version="1.0" encoding="utf-8"?>
<!-- Generator: Adobe Illustrator 22.0.1, SVG Export Plug-In . SVG Version: 6.00 Build 0)  -->
<svg version="1.1" id="Layer_1" xmlns="http://www.w3.org/2000/svg" xmlns:xlink="http://www.w3.org/1999/xlink" x="0px" y="0px"
	 viewBox="0 0 512 512" style="enable-background:new 0 0 512 512;" xml:space="preserve">
<g>
	<path d="M384,64c-24.8,0-48,77.3-48,160c0,57,32,80,32,80v128c0,8.8,7.2,16,16,16s16-7.2,16-16V75C400,64,389,64,384,64z"/>
	<g>
		<path d="M288,64l10,104c0,4.4-3.6,8-8,8s-8-3.6-8-8l-6-104h-8l-6,104c0,4.4-3.6,8-8,8s-8-3.6-8-8l10-104h-8c0,0-24,107.2-24,128
			s13.4,38.6,32,45.2V432c0,8.8,7.2,16,16,16s16-7.2,16-16V237.2c18.6-6.6,32-24.2,32-45.2S296,64,296,64H288z"/>
	</g>
	<path d="M160,64c-26.5,0-48,64-48,128c0,20.8,13.4,38.6,32,45.2V432c0,8.8,7.2,16,16,16s16-7.2,16-16V237.2
		c18.6-6.6,32-24.2,32-45.2C208,128,186.5,64,160,64z"/>
</g>
</svg>
