<?xml version="1.0" encoding="utf-8"?>
<!-- Generator: Adobe Illustrator 22.0.1, SVG Export Plug-In . SVG Version: 6.00 Build 0)  -->
<svg version="1.1" id="Layer_1" xmlns="http://www.w3.org/2000/svg" xmlns:xlink="http://www.w3.org/1999/xlink" x="0px" y="0px"
	 viewBox="0 0 512 512" style="enable-background:new 0 0 512 512;" xml:space="preserve">
<path d="M124,80v322c0,7.7-6.3,14-14,14h0c-7.7,0-14-6.3-14-14V112H80c-17.7,0-32,14.3-32,32v288c0,17.7,14.3,32,32,32h353.1
	c17,0,30.9-13.8,30.9-30.9V80c0-17.7-14.3-32-32-32l-278,2C136.3,50,124,62.3,124,80z M190,112h84c7.7,0,14,6.3,14,14v0
	c0,7.7-6.3,14-14,14h-84c-7.7,0-14-6.3-14-14v0C176,118.3,182.3,112,190,112z M190,272h148c7.7,0,14,6.3,14,14l0,0
	c0,7.7-6.3,14-14,14H190c-7.7,0-14-6.3-14-14l0,0C176,278.3,182.3,272,190,272z M386,380H190c-7.7,0-14-6.3-14-14l0,0
	c0-7.7,6.3-14,14-14h196c7.7,0,14,6.3,14,14l0,0C400,373.7,393.7,380,386,380z M386,220H190c-7.7,0-14-6.3-14-14v0
	c0-7.7,6.3-14,14-14h196c7.7,0,14,6.3,14,14v0C400,213.7,393.7,220,386,220z"/>
</svg>
