<?xml version="1.0" encoding="utf-8"?>
<!-- Generator: Adobe Illustrator 22.0.1, SVG Export Plug-In . SVG Version: 6.00 Build 0)  -->
<svg version="1.1" id="Layer_1" xmlns="http://www.w3.org/2000/svg" xmlns:xlink="http://www.w3.org/1999/xlink" x="0px" y="0px"
	 viewBox="0 0 512 512" style="enable-background:new 0 0 512 512;" xml:space="preserve">
<g>
	<path d="M255.9,456c31.1,0,48.1-22,48.1-53h-96.3C207.7,434,224.7,456,255.9,456z"/>
	<path d="M154.5,55c-2.5-4.3-7-6.8-11.6-7c0.1,0,0.2,0,0.3,0c-0.3,0-0.6,0-0.9,0c-0.1,0-0.2,0-0.3,0c-2.3,0-4.7,0.7-6.9,1.9
		c-6.8,3.9-9.1,12.6-5.1,19.3L357.5,457c2.6,4.5,7.4,7,12.3,7c2.4,0,4.9-0.6,7.2-1.9c6.8-3.9,9.1-12.6,5.1-19.3L154.5,55z"/>
	<path d="M296.1,384L159,150.5c-8.2,20.2-13.3,46-13.3,78.6c0,90.9-30.3,102.7-45.7,123.1c-9.9,13.1-0.5,31.8,15.9,31.8l140.4,0
		H296.1z"/>
	<path d="M412,352.2c-15.4-20.3-45.7-32.2-45.7-123.1c0-93.3-41.2-130.8-79.6-139.8c-3.6-0.9-6.2-2.1-6.2-5.9v-2.9
		c0-13.4-11-24.7-24.4-24.6c-13.4-0.2-24.4,11.2-24.4,24.6v2.9c0,3.7-2.6,5-6.2,5.9c-8.7,2-17.5,5.5-25.9,10.8L366.1,384h29.9
		C412.5,384,421.9,365.2,412,352.2z"/>
</g>
</svg>
