<?xml version="1.0" encoding="utf-8"?>
<!-- Generator: Adobe Illustrator 22.0.1, SVG Export Plug-In . SVG Version: 6.00 Build 0)  -->
<svg version="1.1" id="Layer_1" xmlns="http://www.w3.org/2000/svg" xmlns:xlink="http://www.w3.org/1999/xlink" x="0px" y="0px"
	 viewBox="0 0 512 512" style="enable-background:new 0 0 512 512;" xml:space="preserve">
<path d="M352,56C352,56,352,56,352,56C352,56,352,56,352,56c-0.3,0-0.7,0-1,0c-39.7,0-74.8,21-95,52c-20.2-31-55.3-52-95-52
	c-0.3,0-0.7,0-1,0c0,0,0,0,0,0c0,0,0,0,0,0C98.1,56.6,48,106.9,48,169c0,37,16.2,89.5,47.8,132.7C156,384,256,456,256,456
	s100-72,160.2-154.3C447.8,258.5,464,206,464,169C464,106.9,413.9,56.6,352,56z M393.6,285.2C351,343.5,286.1,397.3,256,420.8
	c-30.1-23.5-95-77.4-137.6-135.7C89.1,245.1,76,198,76,169c0-22.6,8.8-43.8,24.6-59.8c15.9-16,37-24.9,59.6-25.1c0,0,0,0,0.1,0
	c0.2,0,0.4,0,0.6,0l0.2,0c14.3,0,28.5,3.7,41.1,10.8c12.2,6.9,22.8,16.7,30.4,28.5c5.2,7.9,14,12.7,23.5,12.7s18.3-4.8,23.5-12.7
	c7.7-11.8,18.2-21.6,30.4-28.5c12.6-7.1,26.8-10.8,41.1-10.8l0.2,0c0.2,0,0.4,0,0.6,0c0,0,0,0,0.1,0c22.5,0.2,43.7,9.1,59.6,25.1
	c15.9,16,24.6,37.3,24.6,59.8C436,198,422.9,245.1,393.6,285.2z"/>
</svg>
