<?xml version="1.0" encoding="utf-8"?>
<!-- Generator: Adobe Illustrator 22.0.1, SVG Export Plug-In . SVG Version: 6.00 Build 0)  -->
<svg version="1.1" id="Layer_1" xmlns="http://www.w3.org/2000/svg" xmlns:xlink="http://www.w3.org/1999/xlink" x="0px" y="0px"
	 viewBox="0 0 512 512" style="enable-background:new 0 0 512 512;" xml:space="preserve">
<g>
	<path d="M445.7,405.6L201.3,160.4c-3.1-3.1-8.2-3.1-11.3,0l-28.7,28.8c-3.1,3.1-3.1,8.2,0,11.3l244.4,245.2c3.1,3.1,8.2,3.1,11.3,0
		l28.6-28.8C448.8,413.8,448.8,408.7,445.7,405.6z M420.2,419.9l-0.1,0.1c-3.1,3.1-8.2,3.1-11.3,0L218.9,229.5
		c-3.1-3.1-3.1-8.2,0-11.3l0.1-0.1c3.1-3.1,8.2-3.1,11.3,0l189.9,190.5C423.3,411.7,423.3,416.8,420.2,419.9z"/>
	<path d="M192.8,120.1c6.6,0,12-5.4,12-12V76c0-6.6-5.4-12-12-12c-6.6,0-12,5.4-12,12v32.1C180.8,114.7,186.2,120.1,192.8,120.1z"/>
	<path d="M192.8,263.3c-6.6,0-12,5.4-12,12v32.1c0,6.6,5.4,12,12,12c6.6,0,12-5.4,12-12v-32.1C204.8,268.7,199.4,263.3,192.8,263.3z
		"/>
	<path d="M270.7,190.2c0,6.6,5.4,12,12,12h32c6.6,0,12-5.4,12-12c0-6.6-5.4-12-12-12h-32C276.1,178.2,270.7,183.6,270.7,190.2z"/>
	<path d="M119.9,190.2c0-6.6-5.4-12-12-12H76c-6.6,0-12,5.4-12,12c0,6.6,5.4,12,12,12h32C114.5,202.2,119.9,196.8,119.9,190.2z"/>
	<path d="M124.8,141c2.3,2.3,5.3,3.5,8.5,3.5c3.2,0,6.2-1.3,8.5-3.5c4.7-4.7,4.7-12.3,0-17l-20.9-21c-2.3-2.3-5.3-3.5-8.5-3.5
		c-3.2,0-6.2,1.3-8.5,3.5c-4.7,4.7-4.7,12.3,0,17L124.8,141z"/>
	<path d="M133.3,239.9L133.3,239.9c-3.2,0-6.2,1.3-8.5,3.5l-20.9,21c-2.3,2.3-3.5,5.3-3.5,8.5s1.2,6.2,3.5,8.5
		c2.3,2.3,5.3,3.5,8.5,3.5c3.2,0,6.2-1.3,8.5-3.5l20.9-21c4.7-4.7,4.7-12.3,0-17C139.5,241.2,136.5,239.9,133.3,239.9z"/>
	<path d="M252.4,144.5c3.2,0,6.2-1.3,8.5-3.5l20.9-21c4.7-4.7,4.7-12.3,0-17c-2.3-2.3-5.3-3.5-8.5-3.5c-3.2,0-6.2,1.3-8.5,3.5
		l-20.9,21c-2.3,2.3-3.5,5.3-3.5,8.5c0,3.2,1.2,6.2,3.5,8.5C246.2,143.2,249.2,144.5,252.4,144.5z"/>
</g>
</svg>
