<?xml version="1.0" encoding="utf-8"?>
<!-- Generator: Adobe Illustrator 22.0.1, SVG Export Plug-In . SVG Version: 6.00 Build 0)  -->
<svg version="1.1" id="Layer_1" xmlns="http://www.w3.org/2000/svg" xmlns:xlink="http://www.w3.org/1999/xlink" x="0px" y="0px"
	 viewBox="0 0 512 512" style="enable-background:new 0 0 512 512;" xml:space="preserve">
<g>
	<path d="M332,142.7c-1.2-1.1-2.7-1.7-4.1-1.7s-3,0.6-4.1,1.7l-13.8,13.2c-1.2,1.1-1.9,2.7-1.9,4.3c0,1.6,0.7,3.2,1.9,4.3l95.8,91.5
		l-95.8,91.5c-1.2,1.1-1.9,2.7-1.9,4.3c0,1.6,0.7,3.2,1.9,4.3l13.8,13.2c1.2,1.1,2.6,1.7,4.1,1.7c1.5,0,3-0.6,4.1-1.7l114.2-109
		c1.2-1.1,1.9-2.7,1.9-4.3c0-1.6-0.7-3.2-1.9-4.3L332,142.7z"/>
	<path d="M106.3,256l95.8-91.5c1.2-1.1,1.9-2.7,1.9-4.3c0-1.6-0.7-3.2-1.9-4.3l-13.8-13.2c-1.2-1.1-2.7-1.7-4.1-1.7s-3,0.6-4.1,1.7
		l-114.2,109c-1.2,1.1-1.9,2.7-1.9,4.3c0,1.6,0.7,3.2,1.9,4.3l114.2,109c1.2,1.1,2.7,1.7,4.1,1.7c1.5,0,3-0.6,4.1-1.7l13.8-13.2
		c1.2-1.1,1.9-2.7,1.9-4.3c0-1.6-0.7-3.2-1.9-4.3L106.3,256z"/>
	<path d="M332.8,267.2c0.1-3.9-1.4-7.6-4.2-10.4l-0.1-0.1c-2.7-2.7-6.2-4.2-10-4.2c-3.5,0-6.8,1.3-9.4,3.6l-38.9,34.6V184.6
		c0-7.8-6.4-14.2-14.2-14.2c-7.8,0-14.2,6.4-14.2,14.2v106.2l-38.9-34.6c-2.6-2.3-6-3.6-9.4-3.6c-3.8,0-7.4,1.5-10.1,4.2l-0.1,0.1
		c-2.8,2.8-4.2,6.4-4.2,10.4c0.1,3.9,1.7,7.5,4.6,10.2l62.8,57.7c2.6,2.4,6,3.7,9.5,3.7c3.5,0,6.9-1.3,9.5-3.7l62.8-57.7
		C331.1,274.7,332.8,271.1,332.8,267.2z"/>
</g>
</svg>
