<?xml version="1.0" encoding="utf-8"?>
<!-- Generator: Adobe Illustrator 18.1.1, SVG Export Plug-In . SVG Version: 6.00 Build 0)  -->
<svg version="1.1" id="Layer_1" xmlns="http://www.w3.org/2000/svg" xmlns:xlink="http://www.w3.org/1999/xlink" x="0px" y="0px"
	 viewBox="0 0 512 512" enable-background="new 0 0 512 512" xml:space="preserve">
<g>
	<path d="M255.7,106.6L255.7,106.6h-0.2c-25,0-45.5-20.3-45.5-45.3S230.4,16,255.5,16S301,36.3,301,61.3c0,12.1-4.7,23.5-13.3,32
		C279.2,101.9,267.8,106.6,255.7,106.6z"/>
	<g>
		<path d="M221.2,496c-14.4,0-29-10.5-29-30.4l1-277.6h-6v105c0,9.3-4,15.1-7.4,18.3c-4.3,4.1-10.1,6.4-16.2,6.4s-11.9-2.3-16.2-6.4
			c-3.4-3.2-7.4-8.9-7.4-18.3V171.4c0-13.8,5.4-27.8,14.8-38.4c10.4-11.6,24.6-18,40-18h122.3c15.4,0,29.6,6.4,40,18.1
			c9.4,10.6,14.8,24.5,14.8,38.3V293c0,7.3-2.7,13.8-7.6,18.3c-4.4,4-10.3,6.2-16.5,6.2s-12.1-2.2-16.5-6.2
			c-4.9-4.5-7.6-11-7.6-18.3V188h-5v277.6c0,19.7-15.4,30.4-29.8,30.4c-13.4,0-28.3-9.3-29.4-29.8c0-0.1,0-0.3,0-0.4V325h-8v140.6
			c0,0.1,0,0.2,0,0.3C250.8,485.6,235.7,496,221.2,496z"/>
	</g>
</g>
</svg>
