<?xml version="1.0" encoding="utf-8"?>
<!-- Generator: Adobe Illustrator 18.1.1, SVG Export Plug-In . SVG Version: 6.00 Build 0)  -->
<svg version="1.1" id="Layer_1" xmlns="http://www.w3.org/2000/svg" xmlns:xlink="http://www.w3.org/1999/xlink" x="0px" y="0px"
	 viewBox="0 0 512 512" enable-background="new 0 0 512 512" xml:space="preserve">
<path d="M456,256c-4.6,0-9,1.3-12.6,3.6c-5.4-2.4-14.4-5.3-27.4-6.1c-0.3-27.7-5.5-54-14.6-77.7c8.5-6.3,15.8-14.4,21.3-23.8
	c0.4,0,0.9,0,1.3,0c13.2,0,24-10.7,24-24c0-13.3-10.7-24-24-24c-13.2,0-24,10.7-24,24c0,7,3,13.3,7.8,17.7c-3,4.8-7.3,10.1-13,14.9
	C367.3,102.9,315.4,64,256,64c-59.4,0-111.3,38.9-138.9,96.5c-5.7-4.8-9.9-10.1-12.9-14.9c4.8-4.4,7.8-10.7,7.8-17.7
	c0-13.3-10.7-24-24-24s-24,10.7-24,24c0,13.3,10.7,24,24,24c0.4,0,0.9,0,1.3,0c5.6,9.4,12.8,17.5,21.3,23.8
	c-9.1,23.7-14.3,50-14.6,77.8c-13.1,0.8-22,3.7-27.4,6.1c-3.7-2.3-8-3.6-12.6-3.6c-13.3,0-24,10.7-24,24s10.7,24,24,24
	s24-10.7,24-24c0-2.5-0.4-4.9-1.1-7.2c4-1.3,9.8-2.7,17.5-3.3c2.3,39,14.2,74.8,33,103.9c-6,4.5-14.6,13-19.9,26.7
	C97.4,401.4,88,411.6,88,424c0,13.3,10.7,24,24,24s24-10.7,24-24c0-8.4-4.3-15.7-10.8-20c3.9-9,9.5-14.5,13.4-17.5
	c27.5,35.7,66.2,58.7,109.4,61.3c1.2,0.1,2.2,0.1,3.2,0.1c0.3,0,0.7,0,1,0c1.2,0,2.4,0.1,3.7,0.1c0,0,0,0,0,0c0,0,0,0,0,0
	c0,0,0,0,0,0c1.3,0,2.5,0,3.7-0.1c0.3,0,0.7,0,1,0c1,0,2.1-0.1,3.3-0.1l0,0c43.2-2.6,81.9-25.7,109.4-61.3c3.9,3,9.5,8.5,13.5,17.6
	c-6.5,4.3-10.8,11.7-10.8,20c0,13.3,10.7,24,24,24c13.2,0,24-10.7,24-24c0-12.4-9.4-22.6-21.5-23.9c-5.4-13.8-13.9-22.2-19.9-26.8
	c18.8-29.1,30.7-64.9,33-103.8c7.7,0.5,13.5,1.9,17.5,3.3c-0.7,2.3-1.1,4.7-1.1,7.2c0,13.3,10.7,24,24,24s24-10.7,24-24
	S469.3,256,456,256z M424.1,120c4.4,0,8,3.6,8,8c0,4.4-3.6,8-8,8c-4.4,0-8-3.6-8-8C416.1,123.6,419.6,120,424.1,120z M88,136
	c-4.4,0-8-3.6-8-8c0-4.4,3.6-8,8-8s8,3.6,8,8C96,132.4,92.4,136,88,136z M56,288c-4.4,0-8-3.6-8-8c0-4.4,3.6-8,8-8s8,3.6,8,8
	C64,284.4,60.4,288,56,288z M112,432c-4.4,0-8-3.6-8-8c0-4.4,3.6-8,8-8s8,3.6,8,8C120,428.4,116.4,432,112,432z M400.1,416
	c4.4,0,8,3.6,8,8c0,4.4-3.6,8-8,8c-4.4,0-8-3.6-8-8C392.1,419.6,395.7,416,400.1,416z M256,80c44.4,0,84.2,24.7,110.7,63.5
	c-5.5,9.4-12.2,18.2-20.2,26.1c-24.2,24.2-56.3,37.5-90.5,37.5c-34.2,0-66.3-13.3-90.5-37.5c-7.9-7.9-14.7-16.7-20.2-26.1
	C171.8,104.7,211.6,80,256,80z M112,256c0-35.9,8.9-69.4,24-97.2c24.5,36.7,65.4,61.6,112,64.1v208.9C172.3,426.6,112,349.8,112,256
	z M264,431.7V222.9c46.5-2.6,87.5-27.4,112-64.1c15.2,27.9,24,61.3,24,97.3C400,349.8,339.7,426.6,264,431.7z M456,288
	c-4.4,0-8-3.6-8-8c0-4.4,3.6-8,8-8s8,3.6,8,8C464,284.4,460.4,288,456,288z"/>
</svg>
