<?xml version="1.0" encoding="utf-8"?>
<!-- Generator: Adobe Illustrator 22.0.1, SVG Export Plug-In . SVG Version: 6.00 Build 0)  -->
<svg version="1.1" id="Layer_1" xmlns="http://www.w3.org/2000/svg" xmlns:xlink="http://www.w3.org/1999/xlink" x="0px" y="0px"
	 viewBox="0 0 512 512" style="enable-background:new 0 0 512 512;" xml:space="preserve">
<g>
	<path d="M344.8,218.1c-13,0-25.6,0-37.4,4.1C256.8,179.1,123.1,65.3,112.9,54.7c-4.7-4.9-9.9-6.7-15-6.7c-8.5,0-16.7,5.2-21.3,9.6
		c-6.9,6.6-33,34.8-28,40c15,15.4,19,18.5,25.2,24.8c9.3,9.5,28.3-1,36,2.3c7.6,3.3,9.2,6.8,10.4,12.5s-2.9,15.8-3,23.7
		c-0.1,8.3,3.4,12.8,9.2,19c4.6,5,8.9,8.6,15.6,8.7c9,0.2,20.9-12.8,30.4-3.1s-6.2,23.7-5,34s15.5,22.8,21.6,24.1
		c6.1,1.3,21.8-11.7,30.7-9.7c3,0.7,10,6.8,11,11.4s-6.9,25-5.9,29.6c1.2,5.6,7.1,12.1,10.4,17.4c-6.7,15.5-9.4,29.6-9.4,47.7
		c0,68.5,53.4,124,119.2,124S464,408.5,464,340C464,271.5,410.6,218.1,344.8,218.1z M368,400c-17.7,0-32-14.3-32-32
		c0-17.7,14.3-32,32-32s32,14.3,32,32C400,385.7,385.7,400,368,400z"/>
</g>
</svg>
