<?xml version="1.0" encoding="utf-8"?>
<!-- Generator: Adobe Illustrator 22.0.1, SVG Export Plug-In . SVG Version: 6.00 Build 0)  -->
<svg version="1.1" id="Layer_1" xmlns="http://www.w3.org/2000/svg" xmlns:xlink="http://www.w3.org/1999/xlink" x="0px" y="0px"
	 viewBox="0 0 512 512" style="enable-background:new 0 0 512 512;" xml:space="preserve">
<g>
	<path d="M408.4,51.8c-2.6-2.5-6.1-3.8-9.7-3.8c-3.7,0-7.2,1.4-9.9,3.9c-2.7,2.6-4.1,6-4.1,9.6c0,3.6,1.5,7,4.2,9.6
		c30.4,28.5,47.1,66.5,47.1,107.1v0c0,40.5-16.7,78.5-47.1,107.1c-2.7,2.5-4.2,5.9-4.2,9.6c0,3.6,1.4,7,4.1,9.6
		c2.6,2.5,6.1,3.9,9.9,3.9c3.7,0,7.1-1.4,9.7-3.8c35.9-33.6,55.6-78.5,55.6-126.4v0v-0.1v0C464,130.2,444.2,85.4,408.4,51.8z"/>
	<path d="M351,96.8c-2.4-2.3-5.6-3.5-9-3.5c-3.3,0-6.5,1.2-8.9,3.4c-2.5,2.3-3.9,5.4-3.9,8.7c0,3.3,1.3,6.4,3.8,8.7
		c18,17,27.8,39.8,27.8,64v0c0,24.2-9.9,47-27.8,64c-2.5,2.3-3.8,5.4-3.8,8.7c0,3.3,1.4,6.4,3.9,8.7c2.4,2.2,5.5,3.4,8.9,3.4
		c3.4,0,6.6-1.3,9-3.5c22.8-21.7,35.4-50.5,35.4-81.3v0v-0.1v0C386.4,147.3,373.8,118.5,351,96.8z"/>
	<path d="M123.1,71.1c2.7-2.5,4.2-5.9,4.2-9.6c0-3.6-1.4-7-4.1-9.6c-2.6-2.5-6.1-3.9-9.9-3.9h0c-3.7,0-7.1,1.4-9.7,3.8
		C67.7,85.4,48,130.3,48,178.2v0.2v0c0,47.8,19.8,92.6,55.6,126.2c2.6,2.5,6.1,3.8,9.7,3.8c3.7,0,7.2-1.4,9.9-3.9
		c2.7-2.6,4.1-6,4.1-9.6c0-3.6-1.5-7-4.2-9.6c-30.4-28.5-47.1-66.5-47.1-107.1v0C75.9,137.6,92.7,99.6,123.1,71.1z"/>
	<path d="M179,114.1c2.5-2.3,3.8-5.4,3.8-8.7c0-3.3-1.4-6.4-3.9-8.7c-2.4-2.2-5.5-3.4-8.9-3.4c-3.4,0-6.6,1.3-9,3.5
		c-22.8,21.7-35.4,50.5-35.4,81.3v0.1v0c0,30.8,12.6,59.6,35.4,81.2c2.4,2.3,5.6,3.5,9,3.5c3.3,0,6.5-1.2,8.9-3.4
		c2.5-2.3,3.9-5.4,3.9-8.7c0-3.3-1.3-6.4-3.8-8.7c-18-17-27.8-39.8-27.8-64v0C151.1,153.9,161,131.2,179,114.1z"/>
	<path d="M256,123.2c-26.5,0-48,21.5-48,48c0,21.6,14.3,39.9,34,45.9v233c0,7.7,6.3,13.9,14,13.9s14-6.2,14-13.9v-233
		c19.7-6,34-24.3,34-45.9C304,144.7,282.5,123.2,256,123.2z"/>
</g>
</svg>
