<?xml version="1.0" encoding="utf-8"?>
<!-- Generator: Adobe Illustrator 18.1.1, SVG Export Plug-In . SVG Version: 6.00 Build 0)  -->
<svg version="1.1" id="Layer_1" xmlns="http://www.w3.org/2000/svg" xmlns:xlink="http://www.w3.org/1999/xlink" x="0px" y="0px"
	 viewBox="0 0 512 512" enable-background="new 0 0 512 512" xml:space="preserve">
<g>
	<g>
		<g>
			<path d="M128.4,135.7c-11.4-28-14.8-54.9,4.5-71.7l103,138l10-13.4L140.9,48c-8.9,0-14.4,0.9-18.5,3.9
				c-11.9,8.9-19.1,25.6-19.3,43.6c-0.2,13.5,3.3,28.6,10.4,46.2c8.5,21,42.5,70.2,77.9,118.6c0.7,1,1.6,1.9,2.5,2.7
				c2.9-4.7,6-9.5,9-14.1C176.8,213.1,136.7,156.3,128.4,135.7z"/>
			<g>
				<path d="M390.4,54.9c-5.2-4.8-13.5-6.9-20-6.9L255.9,201.7l-10,13.4L243,219c0,0-0.1,0.1-0.1,0.1l-14.5,19.7
					c-0.1,0.1-0.2,0.3-0.3,0.4c-0.5,0.8-7.5,10.9-15.2,22.7c-3,4.6-6.1,9.5-9,14.1c-3.5,5.6-6.6,11-8.8,15.2
					c-3.6,7.1-7.3,14.4-10.7,21.5c-3.7,7.5-7.2,14.6-10.4,20.7c-10.2-7.3-22-11.1-34.3-11.1c-17.5,0-33.7,7.7-45.8,21.6
					C82.4,357.1,76,374.6,76,393.1s6.4,36,17.9,49.3c12.1,13.9,28.4,21.6,45.8,21.6c14.4,0,28-5.2,39.2-15
					c10.5-9.1,18-21.3,21.8-35.4c1-3.1,11.6-34.7,26.1-57.3c9.2-14.4,22.2-23.4,29.6-27.8l13.5-9.7c0,0,12.6-8.7,38.1-41.7
					s80.5-111.5,90.2-135.4c7.2-17.6,10.6-32.8,10.4-46.2C408.5,77.6,402.7,66.2,390.4,54.9z M383.4,135.7
					c-11.4,28-86.8,131.9-100.4,147.7s-27.3,27.4-27.3,27.4s-25.9,11.1-42.4,36.9c-16.5,25.7-27.9,61.3-27.9,61.3l0,0
					c-5.9,22.6-24.1,39.1-45.7,39.1c-26.4,0-47.8-24.6-47.8-54.9s21.4-54.9,47.8-54.9c10.8,0,20.7,4.1,28.7,11c1.6,1.3,3,2.6,4,3.8
					c0,0,0.1,0.1,0.1,0.1c0.5,0.5,0.9,1,1.3,1.5c0.9,0.9,1.8,1.3,2.7,1.3c2.4,0,5.2-3.3,9.5-11.2c6.8-12.6,15.1-30.3,23.3-46.3
					c8.2-16,31.8-50.3,31.8-50.3l14.5-19.7L378.9,64C398.2,80.9,394.8,107.7,383.4,135.7z"/>
			</g>
			<path d="M372,322.3c-12.3,0-24.1,3.8-34.3,11.1c-3.2-6.1-6.7-13.2-10.4-20.7c-3.4-6.9-6.9-14-10.4-20.8L306,305.8
				c7,13.9,13.8,28.3,19.6,39c4.3,8,7.1,11.2,9.5,11.2c0.9,0,1.8-0.5,2.7-1.3c0.4-0.5,0.9-1,1.3-1.5c0,0,0.1-0.1,0.1-0.1
				c1-1.3,2.3-2.6,4-3.8c8-6.9,17.9-11,28.7-11c26.4,0,48,24.6,48,54.9S398.4,448,372,448c-21.6,0-39.8-16.5-45.7-39.1l0,0
				c0,0-11.4-35.6-27.9-61.3c-4.7-7.4-10.3-13.6-15.7-18.7l-13,9.8c5.2,4.6,10.7,10.4,15.3,17.5c14.5,22.6,25,54.2,26.1,57.3
				c3.8,14.1,11.3,26.3,21.8,35.4c11.3,9.8,24.9,15,39.2,15c35.3,0,64-31.8,64-70.9S407.3,322.3,372,322.3z"/>
		</g>
	</g>
	<g>
		<path d="M139.9,421.1c-13.3,0-24-12.6-24-28s10.7-28,24-28c13.3,0,24,12.6,24,28S153.1,421.1,139.9,421.1z"/>
		<circle cx="256.1" cy="272.2" r="16"/>
		<path d="M372.1,421.1c-13.3,0-24-12.6-24-28s10.7-28,24-28c13.3,0,24,12.6,24,28S385.4,421.1,372.1,421.1z"/>
	</g>
</g>
</svg>
