<?xml version="1.0" encoding="utf-8"?>
<!-- Generator: Adobe Illustrator 22.0.1, SVG Export Plug-In . SVG Version: 6.00 Build 0)  -->
<svg version="1.1" id="Layer_1" xmlns="http://www.w3.org/2000/svg" xmlns:xlink="http://www.w3.org/1999/xlink" x="0px" y="0px"
	 viewBox="0 0 512 512" style="enable-background:new 0 0 512 512;" xml:space="preserve">
<g>
	<path d="M256,336L256,336c35.2,0,64-28.8,64-64V112c0-35.2-28.8-64-64-64h0c-35.2,0-64,28.8-64,64v160C192,307.2,220.8,336,256,336
		z"/>
	<path d="M352,192c-7.7,0-14,6.3-14,14v69c0,45.2-36.8,82-82,82s-82-36.8-82-82v-69c0-7.7-6.3-14-14-14s-14,6.3-14,14v69
		c0,55.9,41.9,102.2,96,109.1V436h-36c-7.7,0-14,6.3-14,14s6.3,14,14,14h100c7.7,0,14-6.3,14-14s-6.3-14-14-14h-36v-51.9
		c54.1-6.9,96-53.2,96-109.1v-69C366,198.3,359.7,192,352,192z"/>
</g>
</svg>
