<?xml version="1.0" encoding="utf-8"?>
<!-- Generator: Adobe Illustrator 22.0.1, SVG Export Plug-In . SVG Version: 6.00 Build 0)  -->
<svg version="1.1" id="Layer_1" xmlns="http://www.w3.org/2000/svg" xmlns:xlink="http://www.w3.org/1999/xlink" x="0px" y="0px"
	 viewBox="0 0 512 512" style="enable-background:new 0 0 512 512;" xml:space="preserve">
<g>
	<path d="M290.8,213.5C286,205,277,202.2,266,202.2V202c-6,0-14.3,1.3-22.6,2.9c-11.9,2.3-19.7,7.1-19.7,7.1s3.6,27.3,0.1,58.5
		c-3.5,31.2-7.9,42.5-7.9,42.5s5.3,12.1,40,15c3.9,0.3,7.6,0.5,11,0.5c24.5,0,36.4-7.3,36.4-7.3s3.3-5.4,4.3-22.1
		C309.5,266.9,300.6,230.6,290.8,213.5z"/>
	<path d="M205.7,208.8c-22-40.2-86.2-96.8-121.3-96.8C57.9,112,32,180.5,32,256s23,144,51.5,144c33.4,0,110.5-80,110.5-80
		s5.7-12.6,9.9-33.6l1.8-10.4c0.7-4.7,1.3-9.7,1.7-15c0.3-3.5,0.5-6.8,0.6-9.9l0.3-9.8C209,225.3,205.7,208.8,205.7,208.8z"/>
	<path d="M427.6,112c-36.4,0-96.4,56.5-118.3,96.8l-0.8,1.4c0,0,1.4,2.5,1.9,3.4c3.4,6,6.7,14.3,9.4,24l2.9,11.7
		c2.2,10.2,3.7,21.2,4.2,32.2l0.2,9c0,2.9-0.1,5.7-0.3,8.5c-1,16.7-4.6,22.1-4.6,22.1c7.6,10.5,69,78.9,106.2,78.9
		c28.5,0,51.5-68.5,51.5-144S454.1,112,427.6,112z"/>
</g>
</svg>
