<?xml version="1.0" encoding="utf-8"?>
<!-- Generator: Adobe Illustrator 18.1.1, SVG Export Plug-In . SVG Version: 6.00 Build 0)  -->
<svg version="1.1" id="Layer_1" xmlns="http://www.w3.org/2000/svg" xmlns:xlink="http://www.w3.org/1999/xlink" x="0px" y="0px"
	 viewBox="0 0 512 512" enable-background="new 0 0 512 512" xml:space="preserve">
<g>
	<path d="M395,96H230c-46.7,0-73.2,34.7-102,63.5s-72.1,74.7-72.1,74.7c-4.9,5.6-7.9,12.8-7.9,20.9c0,8,3,15.3,7.9,21
		c0,0,34.3,37.6,72.1,75.5c37.8,37.8,56.7,64.5,102,64.5h165c38.5,0,69-32.5,69-71V165C464,126.5,433.5,96,395,96z M448,345
		c0,14.5-5.3,28.4-15.5,38.7C422.4,394.1,409.2,400,395,400H230c-32.6,0-48.2-16.3-76.5-45.4l-85.7-89.2c-1.8-2.1-3.8-5.6-3.8-10.4
		c0-4.7,2-8.2,3.8-10.3l83.1-86.1c12.2-12.7,23.8-24.5,36.9-33.3c13.8-9.3,27.2-13.4,42.2-13.4h165c14.3,0,27.5,5.3,37.6,15.4
		c10.1,10.1,15.4,23.3,15.4,37.6V345z"/>
	<polygon points="316.4,256 380,192.6 365.4,178 301.8,241.5 238.6,178.3 224,192.9 287.3,256 224,319.2 238.6,333.7 301.8,270.6 
		365.4,334 380,319.5 	"/>
</g>
</svg>
