<?xml version="1.0" encoding="utf-8"?>
<!-- Generator: Adobe Illustrator 22.0.1, SVG Export Plug-In . SVG Version: 6.00 Build 0)  -->
<svg version="1.1" id="Layer_1" xmlns="http://www.w3.org/2000/svg" xmlns:xlink="http://www.w3.org/1999/xlink" x="0px" y="0px"
	 viewBox="0 0 512 512" style="enable-background:new 0 0 512 512;" xml:space="preserve">
<g>
	<path d="M331.3,308.7L278.6,256l52.7-52.7c6.2-6.2,6.2-16.4,0-22.6c-6.2-6.2-16.4-6.2-22.6,0L256,233.4l-52.7-52.7
		c-6.2-6.2-15.6-7.1-22.6,0c-7.1,7.1-6,16.6,0,22.6c6,6,52.7,52.7,52.7,52.7s-46,46-52.7,52.7c-6.7,6.7-6.4,16.3,0,22.6
		c6.4,6.4,16.4,6.2,22.6,0l52.7-52.7l52.7,52.7c6.2,6.2,16.4,6.2,22.6,0C337.6,325.1,337.6,314.9,331.3,308.7z"/>
	<g>
		<g>
			<path d="M256,76c48.1,0,93.3,18.7,127.3,52.7S436,207.9,436,256s-18.7,93.3-52.7,127.3S304.1,436,256,436
				c-48.1,0-93.3-18.7-127.3-52.7C94.7,349.3,76,304.1,76,256s18.7-93.3,52.7-127.3C162.7,94.7,207.9,76,256,76 M256,48
				C141.1,48,48,141.1,48,256s93.1,208,208,208c114.9,0,208-93.1,208-208S370.9,48,256,48L256,48z"/>
		</g>
	</g>
</g>
</svg>
