<?xml version="1.0" encoding="utf-8"?>
<!-- Generator: Adobe Illustrator 22.0.1, SVG Export Plug-In . SVG Version: 6.00 Build 0)  -->
<svg version="1.1" id="Layer_1" xmlns="http://www.w3.org/2000/svg" xmlns:xlink="http://www.w3.org/1999/xlink" x="0px" y="0px"
	 viewBox="0 0 512 512" style="enable-background:new 0 0 512 512;" xml:space="preserve">
<g>
	<path d="M480,119c0-13.3-9.4-23-22.8-23H198.9c-2.8,0-4.3-0.6-6.1-2.4l-22.5-22.5l-0.2-0.2c-4.9-4.6-8.9-6.9-17.3-6.9H56.7
		C42.9,64,32,74.3,32,87v73.7c0,1.6,1.7,1.5,3,0.7c1.3-0.8,5-1.4,7-1.4c5,0,423,0,428,0c2,0,5.7,0.6,7,1.4c1.3,0.8,3,0.9,3-0.7V119z
		"/>
	<g>
		<path d="M32,416.4c0,17.5,14.2,31.6,31.6,31.6H448c17.6,0,32-14.4,32-32V204c0-8.8-7.2-16-16-16H48c-8.8,0-16,7.2-16,16V416.4z"/>
	</g>
</g>
</svg>
