<?xml version="1.0" encoding="utf-8"?>
<!-- Generator: Adobe Illustrator 22.0.1, SVG Export Plug-In . SVG Version: 6.00 Build 0)  -->
<svg version="1.1" id="Layer_1" xmlns="http://www.w3.org/2000/svg" xmlns:xlink="http://www.w3.org/1999/xlink" x="0px" y="0px"
	 viewBox="0 0 512 512" style="enable-background:new 0 0 512 512;" xml:space="preserve">
<path d="M434.6,272.1c-22.4-1.2-41.6,13.2-48.2,32.9h-38.9l-28.4-85.4c-2.2-6.6-8.3-11-15.2-11c-0.1,0-0.2,0-0.3,0
	c-7,0.1-13.1,4.8-15,11.6l-44.5,155.3L191.8,61.4c-1.2-7.5-7.6-13.1-15.2-13.4c-7.6-0.3-14.3,4.8-16.2,12.1l-53,244.9H48
	c-8.8,0-16,7.2-16,16v0c0,8.8,7.2,16,16,16h72c7.3,0,13.8-5,15.5-12.1l37.4-182.2l51.3,307.9c1.2,7.4,7.4,12.9,14.9,13.3
	c0.3,0,0.6,0,0.9,0c7.1,0,13.4-4.7,15.4-11.6l49.7-173.6l15.7,47.3c2.2,6.5,8.3,11,15.2,11h51.1c6.9,18,24.4,31,44.9,31
	c27,0,48.8-22.3,48-49.5C479.2,293.7,459.3,273.4,434.6,272.1z"/>
</svg>
