<?xml version="1.0" encoding="utf-8"?>
<!-- Generator: Adobe Illustrator 22.0.1, SVG Export Plug-In . SVG Version: 6.00 Build 0)  -->
<svg version="1.1" id="Layer_1" xmlns="http://www.w3.org/2000/svg" xmlns:xlink="http://www.w3.org/1999/xlink" x="0px" y="0px"
	 viewBox="0 0 512 512" style="enable-background:new 0 0 512 512;" xml:space="preserve">
<g>
	<path d="M404,188.9C404,111,333.9,48,256,48c-77.9,0-148,63.1-148,140.9c0,31,13.2,56.1,30.2,80.1h-0.3c10.9,15,21.4,17.7,31.5,35
		c14.7,25.2,18.1,40.7,18.7,55.7c0.4,8.6,7.5,15.3,16,15.3h8.9c2.2,0,4-1.8,4-4v-94.5c0-5-1.2-9.8-3.4-14.3l-21-42
		c-3.5-7,1.6-15.2,9.4-15.2h0c4,0,7.7,2.3,9.4,5.9l25.3,51.4c2.2,4.4,3.3,9.2,3.3,14.1V371c0,2.2,1.8,4,4,4h24c2.2,0,4-1.8,4-4
		v-94.6c0-4.9,1.1-9.7,3.3-14.1l25.4-51.6c1.7-3.4,5.2-5.6,9-5.6h0c7.5,0,12.4,7.9,9,14.6l-21.3,42.6c-2.2,4.5-3.4,9.4-3.4,14.3V371
		c0,2.2,1.8,4,4,4h10c8.5,0,15.5-6.6,16-15c0.9-15.4,4.7-32.3,18.4-56c10.1-17.3,20.6-20,31.5-35h-0.1
		C390.8,245,404,219.9,404,188.9z"/>
	<path d="M238,464h36c7.7,0,14-6.3,14-14l0,0c0-7.7-6.3-14-14-14h-36c-7.7,0-14,6.3-14,14l0,0C224,457.7,230.3,464,238,464z"/>
	<path d="M218,420h76c7.7,0,14-6.3,14-14l0,0c0-7.7-6.3-14-14-14h-76c-7.7,0-14,6.3-14,14l0,0C204,413.7,210.3,420,218,420z"/>
</g>
</svg>
