<?xml version="1.0" encoding="utf-8"?>
<!-- Generator: Adobe Illustrator 22.0.1, SVG Export Plug-In . SVG Version: 6.00 Build 0)  -->
<svg version="1.1" id="Layer_1" xmlns="http://www.w3.org/2000/svg" xmlns:xlink="http://www.w3.org/1999/xlink" x="0px" y="0px"
	 viewBox="0 0 512 512" style="enable-background:new 0 0 512 512;" xml:space="preserve">
<g>
	<path d="M256,96c-81.5,0-163,33.6-221.5,88.3c-3.3,3-3.4,8.1-0.3,11.4l26.7,27.9c3.1,3.3,8.3,3.4,11.6,0.3
		c23.3-21.6,49.9-38.8,79.3-51c33-13.8,68.1-20.7,104.3-20.7s71.3,7,104.3,20.7c29.4,12.3,56,29.4,79.3,51c3.3,3.1,8.5,3,11.6-0.3
		l26.7-27.9c3.1-3.2,3-8.3-0.3-11.4C419,129.6,337.5,96,256,96z"/>
	<path d="M113.2,277.5l28.6,28.3c3.1,3,8,3.2,11.2,0.3c28.3-25.1,64.6-38.9,102.9-38.9s74.6,13.7,102.9,38.9
		c3.2,2.9,8.1,2.7,11.2-0.3l28.6-28.3c3.3-3.3,3.2-8.6-0.3-11.7c-37.5-33.9-87.6-54.6-142.5-54.6s-105,20.7-142.5,54.6
		C110,268.9,109.9,274.2,113.2,277.5z"/>
	<path d="M256,324.2c-23.4,0-44.6,9.8-59.4,25.5c-3,3.2-2.9,8.1,0.2,11.2l53.4,52.7c3.2,3.2,8.4,3.2,11.6,0l53.4-52.7
		c3.1-3.1,3.2-8,0.2-11.2C300.6,334.1,279.4,324.2,256,324.2z"/>
</g>
</svg>
