<?xml version="1.0" encoding="utf-8"?>
<!-- Generator: Adobe Illustrator 22.0.1, SVG Export Plug-In . SVG Version: 6.00 Build 0)  -->
<svg version="1.1" id="Layer_1" xmlns="http://www.w3.org/2000/svg" xmlns:xlink="http://www.w3.org/1999/xlink" x="0px" y="0px"
	 viewBox="0 0 512 512" style="enable-background:new 0 0 512 512;" xml:space="preserve">
<g>
	<path d="M90.1,187c0-33.4,17.1-62.8,43.5-78.9c2.8-1.7,1.6-6-1.7-6h0c-38.2,0-68.5,30.4-74.1,69.8c-5.6,0.9-9.9,7.3-9.9,14.9
		c0,8,4.7,14.3,10.8,14.8c6.7,33.8,33.8,55.4,61.2,64.5h0c4.3,0.9,7.1-4.5,3.8-7.5C104.1,240.9,90.1,214.3,90.1,187z"/>
	<path d="M450.2,102.8c-1-2.7-2.1-5.2-3.2-7.7c-6-13.4-13.4-24.2-21.7-32.2C414.8,53.2,403.9,48,390.5,48c-13.5,0-21.5,5.2-25.8,7.8
		c-43.1,25.9-112.3,46-154,46c-41.7,0-39.4,0.2-39.4,0.2c-31.6,14-54.8,46.9-54.8,85c0,34.2,17.8,64.2,44.4,80
		c12.1,10.1,23.6,8.8,21.1,22.2c-2.5,13.4-22.5,97.5-25,115c-2.5,17.5-2.9,27.5,4,36c7,8.5,49.5,23.8,68,23.8s13.8-8.7,13.8-43.8
		s-9.3-131.7,16.5-131.7c48.3,0,73.5,17.3,111.3,31.7c9,3.4,14.1,4.7,20.1,4.7c6,0,18.7-1.9,34.7-18.2c9.2-9.4,15.7-18.8,21.7-32.2
		c1.1-2.6,2.2-5.2,3.3-8c8.9-23.2,13.7-51.9,13.7-81.9C464,154.8,459.2,126,450.2,102.8z M423.6,259.8
		c-6.4,15.7-17.6,28.2-26.9,28.2c-9.3,0-17.8-12.5-24.2-28.2c-7.5-18.3-12.3-45-12.3-74.7c0-29.8,4.8-56.6,12.3-74.9
		c6.4-15.6,14.9-25,24.1-25c9.3,0,20.3,9.5,26.8,25c7.6,18.3,14.5,45.1,14.5,74.9C438,214.8,431.1,241.5,423.6,259.8z"/>
</g>
</svg>
