<?xml version="1.0" encoding="utf-8"?>
<!-- Generator: Adobe Illustrator 18.1.1, SVG Export Plug-In . SVG Version: 6.00 Build 0)  -->
<svg version="1.1" id="Layer_1" xmlns="http://www.w3.org/2000/svg" xmlns:xlink="http://www.w3.org/1999/xlink" x="0px" y="0px"
	 viewBox="0 0 512 512" enable-background="new 0 0 512 512" xml:space="preserve">
<g>
	<path d="M395,96H230c-46.7,0-73.2,34.7-102,63.5s-72.1,74.7-72.1,74.7c-4.9,5.6-7.9,12.8-7.9,20.9c0,8,3,15.3,7.9,21
		c0,0,34.3,37.6,72.1,75.5c37.8,37.8,56.7,64.5,102,64.5h165c38.5,0,69-32.5,69-71V165C464,126.5,433.5,96,395,96z M365.4,334
		l-63.6-63.4l-63.3,63.1L224,319.2l63.3-63.2L224,192.9l14.6-14.6l63.3,63.2l63.6-63.5l14.6,14.6L316.4,256l63.6,63.5L365.4,334z"/>
</g>
</svg>
