<?xml version="1.0" encoding="utf-8"?>
<!-- Generator: Adobe Illustrator 18.1.1, SVG Export Plug-In . SVG Version: 6.00 Build 0)  -->
<svg version="1.1" id="Layer_1" xmlns="http://www.w3.org/2000/svg" xmlns:xlink="http://www.w3.org/1999/xlink" x="0px" y="0px"
	 viewBox="0 0 512 512" enable-background="new 0 0 512 512" xml:space="preserve">
<g>
	<path d="M467.7,269.2c-4.5-32-15.2-59.2-35.9-57.3c6.4,14.6,13.5,35.2,11.7,72c-1.4-25.9-6.3-50.2-17.1-72
		c-32-64.6-100.5-107.4-177.2-103.1c-85.8,4.8-154.7,66.7-171.7,146.8l-11.4,1.6c-17.2,2.4-26.9,34.9-21.6,72.5
		c5.3,37.7,23.5,66.2,40.7,63.8l15.7-2.2c34.6,56.3,98.3,92.3,169,88.4c85.2-4.7,153.8-65.9,171.4-145.2l7.4-0.4
		C463.8,331.6,472.4,302.7,467.7,269.2z M90.2,264c10.7,8.2,22.3,28.3,26.1,55.1c3.9,27.7-1.8,54.1-10.4,64.3
		c6-14.8,8-37.3,4.7-61.9C107.3,297.5,99.6,276.8,90.2,264z M273.8,380.2c-8.5,0.5-15.8-6-16.2-14.5c-0.5-8.5,6-15.7,14.5-16.2
		c8.5-0.5,15.8,6,16.2,14.5C288.8,372.5,282.3,379.7,273.8,380.2z M354.6,375.5c-8.5,0.5-15.8-6-16.2-14.5
		c-0.5-8.5,6-15.7,14.5-16.2c8.5-0.5,15.8,6,16.2,14.5C369.6,367.8,363.1,375.1,354.6,375.5z"/>
	<path d="M165.3,70C165.3,70,165.3,70.1,165.3,70c0.1,0.1,0.1,0.2,0.1,0.2c0,0,0,0,0,0c0.1,0.2,0.2,0.3,0.3,0.5c0,0,0,0.1,0,0.1
		c0.4,1,1.1,1.9,2.3,2.7c2,1.5,5,2.4,8.6,3c3.4,0.5,7.5,0.7,11.9,0.5c1,0,1.9-0.1,2.9-0.2c-0.4-0.4-0.8-0.9-1.2-1.3
		c-0.4,0-0.9,0-1.3,0c-4.3,0.1-8.2-0.2-11.6-0.9c-3.5-0.7-6.4-1.8-8.4-3.4c-0.6-0.5-1-0.9-1.3-1.4c-0.2-0.7-0.2-1.5,0-2.3
		c0.5-2.3,2.4-4.8,5.4-7.4c2.7-2.3,6.4-4.7,10.8-7c0.8-0.4,1.7-0.9,2.6-1.3c0.1-0.1,0.3-0.1,0.5-0.2c-0.8,3.3-0.9,6.9-0.2,10.5
		c2.3,11.9,12.5,20.3,24.2,20.6l5,26.3l10.7-2l-5-26.3c10.8-4.6,17.3-16.1,15-28c-0.7-3.5-2-6.7-3.9-9.5c-5.3-0.8-15.6-0.8-29.2,2.1
		c1.1-0.3,2.1-0.7,3.2-1c7.6-2.1,14.9-3.5,21.5-4.2c0.6-0.1,1.2-0.1,1.8-0.2c1.2-0.1,2.3-0.2,3.5-0.3c0.2,0,0.4,0,0.6,0
		c4-0.2,7.7-0.1,10.8,0.3c2.4,0.3,4.4,0.8,6.1,1.4c-0.6,0.9-0.9,2-0.9,3.2c0,2.7,1.8,5,4.3,5.8c0,0,0,0,0,0
		c-0.6,0.9-1.3,1.9-2.1,2.8c-0.8,0.9-1.8,1.9-2.9,2.8c-1.1,0.9-2.2,1.8-3.5,2.7l-6.5,3.8c-0.1,0.5-0.2,1-0.3,1.5
		c0.1,0,0.2-0.1,0.2-0.1l8.3-4.7c1.2-0.8,2.4-1.6,3.4-2.4c1.2-0.9,2.2-1.8,3.1-2.8c0.9-0.9,1.7-1.9,2.4-2.8c0.1-0.2,0.2-0.4,0.3-0.6
		c3-0.4,5.4-2.9,5.4-6c0-3.4-2.7-6.1-6.1-6.1c-1,0-1.9,0.3-2.7,0.7c-2-1.2-4.8-2.1-8.2-2.7c-4.3-0.8-9.5-1-15.5-0.6
		c-0.7,0-1.4,0.1-2.1,0.2c-0.7,0.1-1.3,0.2-2,0.2c-5.3-3.5-11.9-5-18.6-3.7c-7.9,1.5-14.2,6.5-17.7,13c-1.3,0.5-2.6,1.1-3.8,1.7
		c-0.7,0.3-1.3,0.6-2,0.9c-5.9,2.9-10.6,6.1-13.9,9.1c-3.1,2.9-4.9,5.7-5.3,8.3c-0.2,1.4,0,2.8,0.7,4
		C165.1,69.6,165.2,69.8,165.3,70z"/>
</g>
</svg>
