<?xml version="1.0" encoding="utf-8"?>
<!-- Generator: Adobe Illustrator 22.0.1, SVG Export Plug-In . SVG Version: 6.00 Build 0)  -->
<svg version="1.1" id="Layer_1" xmlns="http://www.w3.org/2000/svg" xmlns:xlink="http://www.w3.org/1999/xlink" x="0px" y="0px"
	 viewBox="0 0 512 512" style="enable-background:new 0 0 512 512;" xml:space="preserve">
<g>
	<path d="M206,308h100c1.1,0,2-0.9,2-2V206c0-1.1-0.9-2-2-2H206c-1.1,0-2,0.9-2,2v100C204,307.1,204.9,308,206,308z"/>
	<path d="M64,96v320c0,17.7,14.3,32,32,32h320c17.7,0,32-14.3,32-32V96c0-17.7-14.3-32-32-32H96C78.3,64,64,78.3,64,96z M394,204
		h-56c-1.1,0-2,0.9-2,2v100c0,1.1,0.9,2,2,2h56c7.7,0,14,6.3,14,14l0,0c0,7.7-6.3,14-14,14h-56c-1.1,0-2,0.9-2,2v56
		c0,7.7-6.3,14-14,14l0,0c-7.7,0-14-6.3-14-14v-56c0-1.1-0.9-2-2-2H206c-1.1,0-2,0.9-2,2v56c0,7.7-6.3,14-14,14l0,0
		c-7.7,0-14-6.3-14-14v-56c0-1.1-0.9-2-2-2h-56c-7.7,0-14-6.3-14-14l0,0c0-7.7,6.3-14,14-14h56c1.1,0,2-0.9,2-2V206c0-1.1-0.9-2-2-2
		h-56c-7.7,0-14-6.3-14-14l0,0c0-7.7,6.3-14,14-14h56c1.1,0,2-0.9,2-2v-56c0-7.7,6.3-14,14-14l0,0c7.7,0,14,6.3,14,14v56
		c0,1.1,0.9,2,2,2h100c1.1,0,2-0.9,2-2v-56c0-7.7,6.3-14,14-14l0,0c7.7,0,14,6.3,14,14v56c0,1.1,0.9,2,2,2h56c7.7,0,14,6.3,14,14
		l0,0C408,197.7,401.7,204,394,204z"/>
</g>
</svg>
