<?xml version="1.0" encoding="utf-8"?>
<!-- Generator: Adobe Illustrator 22.0.1, SVG Export Plug-In . SVG Version: 6.00 Build 0)  -->
<svg version="1.1" id="Layer_1" xmlns="http://www.w3.org/2000/svg" xmlns:xlink="http://www.w3.org/1999/xlink" x="0px" y="0px"
	 viewBox="0 0 512 512" style="enable-background:new 0 0 512 512;" xml:space="preserve">
<g>
	<path d="M144,136v107h179.9l-47.2-47.9c-5-5.1-5-13.3,0.1-18.4c5.1-5,13.3-5,18.4,0.1l69,70c2.4,2.5,3.7,5.8,3.7,9.1
		c0,1.7-0.3,3.4-1,5c-0.6,1.5-1.6,2.9-2.7,4.1c0,0,0,0,0,0l-69,70c-5,5.1-13.3,5.2-18.4,0.1c-5.1-5-5.2-13.3-0.1-18.4l47.2-47.9H144
		v107c0,22,18,40,40,40h240c22,0,40-18,40-40V136c0-22-18-40-40-40H184C162,96,144,114,144,136z"/>
	<path d="M61,243c-7.2,0-13,5.8-13,13c0,7.2,5.8,13,13,13h83v-26H61z"/>
</g>
</svg>
