<?xml version="1.0" encoding="utf-8"?>
<!-- Generator: Adobe Illustrator 22.0.1, SVG Export Plug-In . SVG Version: 6.00 Build 0)  -->
<svg version="1.1" id="Layer_1" xmlns="http://www.w3.org/2000/svg" xmlns:xlink="http://www.w3.org/1999/xlink" x="0px" y="0px"
	 viewBox="0 0 512 512" style="enable-background:new 0 0 512 512;" xml:space="preserve">
<g>
	<path d="M64,199.9v208.2c0,4.4,3.5,7.9,7.9,7.9h96.2c4.4,0,7.9-3.5,7.9-7.9V199.9c0-4.4-3.5-7.9-7.9-7.9H71.9
		C67.5,192,64,195.5,64,199.9z"/>
	<path d="M199.9,96c-4.4,0-7.9,3.5-7.9,7.9V416h1h119.1c4.4,0,7.9-3.5,7.9-7.9V103.9c0-4.4-3.5-7.9-7.9-7.9H199.9z"/>
	<path d="M440.1,256h-96.2c-4.4,0-7.9,3.5-7.9,7.9v144.2c0,4.4,3.5,7.9,7.9,7.9h96.2c4.4,0,7.9-3.5,7.9-7.9V263.9
		C448,259.5,444.5,256,440.1,256z"/>
</g>
</svg>
