<?xml version="1.0" encoding="utf-8"?>
<!-- Generator: Adobe Illustrator 22.0.1, SVG Export Plug-In . SVG Version: 6.00 Build 0)  -->
<svg version="1.1" id="Layer_1" xmlns="http://www.w3.org/2000/svg" xmlns:xlink="http://www.w3.org/1999/xlink" x="0px" y="0px"
	 viewBox="0 0 512 512" style="enable-background:new 0 0 512 512;" xml:space="preserve">
<g>
	<path d="M255.8,218c-21,0-38,17-38,38s17,38,38,38c21,0,38-17,38-38S276.8,218,255.8,218L255.8,218z"/>
	<path d="M102,218c-21,0-38,17-38,38s17,38,38,38c21,0,38-17,38-38S123,218,102,218L102,218z"/>
	<path d="M410,218c-21,0-38,17-38,38s17,38,38,38c21,0,38-17,38-38S431,218,410,218L410,218z"/>
</g>
</svg>
