<?xml version="1.0" encoding="utf-8"?>
<!-- Generator: Adobe Illustrator 22.0.1, SVG Export Plug-In . SVG Version: 6.00 Build 0)  -->
<svg version="1.1" id="Layer_1" xmlns="http://www.w3.org/2000/svg" xmlns:xlink="http://www.w3.org/1999/xlink" x="0px" y="0px"
	 viewBox="0 0 512 512" style="enable-background:new 0 0 512 512;" xml:space="preserve">
<g>
	<path d="M352,442.2c-0.3-2.2-2-3.9-4.2-4.3l-22.3-1.9c-11.8-3.1-20.5-16.2-22.3-28.3L302,400h-92l-1.2,7.6
		c-1.9,12.1-10.5,25.2-22.3,28.3l-22.3,1.9c-2.1,0.5-3.9,2.2-4.2,4.3c-0.4,3.1,2,5.8,5.1,5.8h181.8C349.9,448,352.4,445.3,352,442.2
		z"/>
	<g>
		<path d="M472.9,71c-4.5-4.5-10.7-7-17-7H56.2c-6.4,0-12.5,2.5-17,7S32,81.7,32,88v272c0,6.4,2.7,12.5,7.2,17s10.5,7,16.8,7h400
			c6.4,0,12.3-2.5,16.8-7s7.2-10.7,7.2-17V88C480.1,81.7,477.4,75.5,472.9,71z M256,360c-4.4,0-8-3.6-8-8s3.6-8,8-8s8,3.6,8,8
			S260.4,360,256,360z M459.9,320H52.2c-2.2,0-4-1.8-4-4V92c0-6.6,5.4-12,12-12h391.7c6.6,0,12,5.4,12,12v224
			C463.9,318.2,462.1,320,459.9,320z"/>
	</g>
</g>
</svg>
