<?xml version="1.0" encoding="utf-8"?>
<!-- Generator: Adobe Illustrator 18.1.1, SVG Export Plug-In . SVG Version: 6.00 Build 0)  -->
<svg version="1.1" id="Layer_1" xmlns="http://www.w3.org/2000/svg" xmlns:xlink="http://www.w3.org/1999/xlink" x="0px" y="0px"
	 viewBox="0 0 512 512" enable-background="new 0 0 512 512" xml:space="preserve">
<g>
	<path d="M192,149.7l-34,34l256.1,256.1l33.9-34L192,149.7z M212.6,215.7l11.4-11.4l201.5,201.5l-11.4,11.4L212.6,215.7z"/>
	<rect x="184" y="64" width="16" height="40"/>
	<rect x="184" y="268" width="16" height="40"/>
	<rect x="280" y="176" width="40" height="16"/>
	<rect x="64" y="176" width="40" height="16"/>
	<rect x="111.9" y="94.1" transform="matrix(0.7071 -0.7071 0.7071 0.7071 -45.5509 118.1767)" width="16" height="40"/>
	<rect x="111.9" y="238.3" transform="matrix(0.7071 0.7071 -0.7071 0.7071 217.7773 -9.1013)" width="16" height="40"/>
	<rect x="256.1" y="94.1" transform="matrix(0.7071 0.7071 -0.7071 0.7071 158.0268 -153.3523)" width="16" height="40"/>
</g>
</svg>
