<?xml version="1.0" encoding="utf-8"?>
<!-- Generator: Adobe Illustrator 18.1.1, SVG Export Plug-In . SVG Version: 6.00 Build 0)  -->
<svg version="1.1" id="Layer_1" xmlns="http://www.w3.org/2000/svg" xmlns:xlink="http://www.w3.org/1999/xlink" x="0px" y="0px"
	 viewBox="0 0 512 512" enable-background="new 0 0 512 512" xml:space="preserve">
<g>
	<path d="M347.9,64L347.9,64c4,0,9,1,14,3l-38.8,39l-5.9,5.9l1.5,8.2l9.2,51.2l2,10.9l10.9,2l51.2,9.3l8.3,1.5l5.9-5.9l39-39.2
		c3,7.1,3,13,2.9,15.4c-0.7,12-5.7,30.5-25,49.8c-14.9,14.9-39.3,24.9-60.8,24.9c-9.5,0-17.9-1.9-25-5.6l0,0l0,0
		c-3.5-1.8-9-4.2-15.9-4.2c-5.6,0-14,1.7-22.3,9.7c-9,8.8-181.3,192.4-188.7,200.2l-0.2,0.2l-0.2,0.2c-5.7,6.6-13.4,7.6-17.5,7.6
		c-7.4,0-14.7-3-20.1-8.2c-5.4-5.5-8.5-13.4-8.2-21.2c0.2-4.6,1.6-11.2,7.5-16.2l0.3-0.2l0.3-0.2c7.8-7.4,192.3-181.1,199.9-188.6
		l0,0l0,0c7.9-7.9,9.6-16.2,9.7-21.8c0-6.9-2.4-12.6-3.5-15.4l0,0l0,0c-18.2-42.7,10.2-77.6,19.4-87.2l0,0l0,0
		c17.3-18.4,39.7-24.2,49.2-24.7C347,64,347.4,64,347.9,64 M347.9,48c-0.7,0-1.4,0-2,0.1c-12.5,0.7-39.3,7.7-60,29.7
		c-20.1,21.2-41.1,60.6-22.5,104.5c2.2,5.3,4.7,12.3-2.7,19.7C253.1,209.4,61,390.3,61,390.3c-18,15.5-16.7,44.2-0.1,60.9
		c8.5,8.4,20,12.8,31.3,12.8c11.1,0,21.9-4.2,29.6-13.1c0,0,179.4-191.1,188.2-199.8c4-3.9,7.7-5.1,11.1-5.1c3.3,0,6.3,1.2,8.6,2.4
		c9.9,5.1,21,7.4,32.4,7.4c26.8,0,55-12.4,72.2-29.6c24.4-24.4,28.9-48,29.6-60.1c0.7-12-3.4-27.9-16.7-41.1l-52.5,52.7l-51.2-9.3
		l-9.2-51.2l52.5-52.7C375.7,53.4,360,48,347.9,48L347.9,48z"/>
	<path d="M102.5,429.3c-5.5,5.4-14.4,5.4-19.9,0c-5.4-5.5-5.4-14.4,0-19.9c5.5-5.4,14.4-5.4,19.9,0
		C107.9,415,107.9,423.9,102.5,429.3z"/>
</g>
</svg>
