<?xml version="1.0" encoding="utf-8"?>
<!-- Generator: Adobe Illustrator 22.0.1, SVG Export Plug-In . SVG Version: 6.00 Build 0)  -->
<svg version="1.1" id="Layer_1" xmlns="http://www.w3.org/2000/svg" xmlns:xlink="http://www.w3.org/1999/xlink" x="0px" y="0px"
	 viewBox="0 0 512 512" style="enable-background:new 0 0 512 512;" xml:space="preserve">
<g>
	<circle cx="416" cy="152" r="48"/>
	<g>
		<path d="M416,218.5c-5.4,0-10.6-0.7-15.6-1.9L353,264.9c-0.8,0.8-0.8,2,0,2.8l75.3,80.2c5.1,5.1,5.1,13.3,0,18.4
			c-2.5,2.5-5.9,3.8-9.2,3.8s-6.7-1.3-9.2-3.8l-75-79.9c-0.8-0.8-2.1-0.8-2.9,0l-18.3,18.6c-15.3,15.5-35.6,24.1-57.4,24.2
			c-22.1,0.1-43.1-9.2-58.6-24.9l-17.6-17.9c-0.8-0.8-2.1-0.8-2.9,0l-75,79.9c-2.5,2.5-5.9,3.8-9.2,3.8s-6.7-1.3-9.2-3.8
			c-5.1-5.1-5.1-13.3,0-18.4l75.3-80.2c0.7-0.8,0.7-2,0-2.8L51.4,155.3c-1.3-1.3-3.4-0.4-3.4,1.4L48,376c0,17.6,14.4,32,32,32h352
			c17.6,0,32-14.4,32-32l0-178C451.9,210.6,434.9,218.5,416,218.5z"/>
		<path d="M349.5,152c0-11.6,3-22.5,8.2-32H79.9c-7.5,0-14.4,2.6-19.8,7l156.9,159.7c10.4,10.6,24.3,16.4,39.1,16.4
			s28.7-5.8,39.1-16.4l80.5-81.9C359.7,192.6,349.5,173.5,349.5,152z"/>
	</g>
</g>
</svg>
