<?xml version="1.0" encoding="utf-8"?>
<!-- Generator: Adobe Illustrator 22.0.1, SVG Export Plug-In . SVG Version: 6.00 Build 0)  -->
<svg version="1.1" id="Layer_1" xmlns="http://www.w3.org/2000/svg" xmlns:xlink="http://www.w3.org/1999/xlink" x="0px" y="0px"
	 viewBox="0 0 512 512" style="enable-background:new 0 0 512 512;" xml:space="preserve">
<g>
	<path d="M416,64H96c-17.7,0-32,14.3-32,32v320c0,17.7,14.3,32,32,32h320c17.7,0,32-14.3,32-32V96C448,78.3,433.7,64,416,64z
		 M363.5,198.5L229.8,332.8c0,0,0,0-0.1,0c-1.7,1.7-6.3,5.5-11.6,5.5c-3.8,0-8.1-2.1-11.7-5.7l-56-56c-1.6-1.6-1.6-4.1,0-5.7
		l17.8-17.8c0.8-0.8,1.8-1.2,2.8-1.2c1,0,2,0.4,2.8,1.2l44.4,44.4l122-122.9c0.8-0.8,1.8-1.2,2.8-1.2c0,0,0,0,0,0
		c1.1,0,2.1,0.4,2.8,1.2l17.5,18.1C365.1,194.4,365.1,196.9,363.5,198.5z"/>
</g>
</svg>
