<?xml version="1.0" encoding="utf-8"?>
<!-- Generator: Adobe Illustrator 22.0.1, SVG Export Plug-In . SVG Version: 6.00 Build 0)  -->
<svg version="1.1" id="Layer_1" xmlns="http://www.w3.org/2000/svg" xmlns:xlink="http://www.w3.org/1999/xlink" x="0px" y="0px"
	 viewBox="0 0 512 512" style="enable-background:new 0 0 512 512;" xml:space="preserve">
<g>
	<path d="M352,146.4c-34.4-48.6-67.5-78.5-90.8-96.6c-3.1-2.4-7.3-2.4-10.4-0.1c-23,17.1-56.1,48.4-90.5,96.5
		C123,198.2,97.3,254.6,96.1,317.1c0,1.2-0.1,2.5-0.1,3.7c0,18.4,3.9,35.9,10.9,52.1c4.1,9.3,9.2,18.1,15.2,26.3
		c28.5,39,77.8,64.8,133.8,64.8c88.4,0,160.1-64.1,160.1-143.2C416,257.1,389,198.6,352,146.4z M266,410.7c-0.2,0-0.3,0-0.5,0
		c-9.9,0-12-14.1-2.6-17.1c45.1-14.2,69.6-38.5,86.4-80.8c3.5-8.9,16.7-6.5,16.8,3.1c0,0.5,0,0.9,0,1.4
		C366,368.9,321.2,410.7,266,410.7z"/>
</g>
</svg>
