<?xml version="1.0" encoding="utf-8"?>
<!-- Generator: Adobe Illustrator 22.0.1, SVG Export Plug-In . SVG Version: 6.00 Build 0)  -->
<svg version="1.1" id="Layer_1" xmlns="http://www.w3.org/2000/svg" xmlns:xlink="http://www.w3.org/1999/xlink" x="0px" y="0px"
	 viewBox="0 0 512 512" style="enable-background:new 0 0 512 512;" xml:space="preserve">
<g>
	<path d="M209,96h-65c-26.4,0-48,21.6-48,48v128c0,26.4,21.6,48,48,48h38.7c4.6,0,8.3,3.9,8,8.6c-2.3,35.5-18.8,60.2-31.3,74.1
		c-4.7,5.2-1,13.4,5.9,13.4h39.9c2.5,0,4.8-1.1,6.3-3.1c7.4-9.6,28.5-41.6,28.5-93.9c0-45.7,0-141.8,0-192
		C240,109.3,226.7,96,209,96L209,96z"/>
	<path d="M385,96h-65c-26.4,0-48,21.6-48,48v128c0,26.4,21.6,48,48,48h38.7c4.6,0,8.3,3.9,8,8.6c-2.3,35.5-18.8,60.2-31.3,74.1
		c-4.7,5.2-1,13.4,5.9,13.4h39.9c2.5,0,4.8-1.1,6.3-3.1c7.4-9.6,28.5-41.6,28.5-93.9c0-45.7,0-141.8,0-192
		C416,109.3,402.7,96,385,96L385,96z"/>
</g>
</svg>
