<?xml version="1.0" encoding="utf-8"?>
<!-- Generator: Adobe Illustrator 22.0.1, SVG Export Plug-In . SVG Version: 6.00 Build 0)  -->
<svg version="1.1" id="Layer_1" xmlns="http://www.w3.org/2000/svg" xmlns:xlink="http://www.w3.org/1999/xlink" x="0px" y="0px"
	 viewBox="0 0 512 512" style="enable-background:new 0 0 512 512;" xml:space="preserve">
<path d="M352,56C352,56,352,56,352,56C352,56,352,56,352,56c-0.3,0-0.7,0-1,0c-39.7,0-74.8,21-95,52c-20.2-31-55.3-52-95-52
	c-0.3,0-0.7,0-1,0c0,0,0,0,0,0c0,0,0,0,0,0C98.1,56.6,48,106.9,48,169c0,37,16.2,89.5,47.8,132.7C156,384,256,456,256,456
	s100-72,160.2-154.3C447.8,258.5,464,206,464,169C464,106.9,413.9,56.6,352,56z"/>
</svg>
