<?xml version="1.0" encoding="utf-8"?>
<!-- Generator: Adobe Illustrator 22.0.1, SVG Export Plug-In . SVG Version: 6.00 Build 0)  -->
<svg version="1.1" id="Layer_1" xmlns="http://www.w3.org/2000/svg" xmlns:xlink="http://www.w3.org/1999/xlink" x="0px" y="0px"
	 viewBox="0 0 512 512" style="enable-background:new 0 0 512 512;" xml:space="preserve">
<g>
	<path d="M440.8,129.5L261.7,49.2c-3.6-1.6-7.7-1.6-11.3,0L71.2,129.5c-6,2.7-6.2,11.8-0.4,14.8l178.7,94.1c4.1,2.2,8.9,2.2,13,0
		l178.7-94.1C447,141.3,446.8,132.2,440.8,129.5z"/>
	<path d="M280.2,462.9l180.1-95.3c2.2-1.4,3.6-4,3.6-6.8V175.9c0-5.9-5.8-9.7-10.7-7.1l-180.1,92.8c-2.6,1.3-4.2,4.1-4.2,7.1v187.3
		C269,462.2,275.3,466,280.2,462.9z"/>
	<path d="M48,175.9v184.8c0,2.8,1.4,5.4,3.6,6.8l180.1,95.3c5,3.2,11.2-0.6,11.2-6.8V268.7c0-3-1.6-5.8-4.2-7.1L58.7,168.8
		C53.8,166.2,48,170.1,48,175.9z"/>
</g>
</svg>
