<?xml version="1.0" encoding="utf-8"?>
<!-- Generator: Adobe Illustrator 22.0.1, SVG Export Plug-In . SVG Version: 6.00 Build 0)  -->
<svg version="1.1" id="Layer_1" xmlns="http://www.w3.org/2000/svg" xmlns:xlink="http://www.w3.org/1999/xlink" x="0px" y="0px"
	 viewBox="0 0 512 512" style="enable-background:new 0 0 512 512;" xml:space="preserve">
<g>
	<path d="M233.9,328.1c-2.6-2.6-6.1-4.1-9.9-4.1c-3.7,0-7.3,1.4-9.9,4.1c-2.6,2.6-4.1,6.1-4.1,9.9c0,3.7,1.4,7.3,4.1,9.9
		c0,0,0,0,0.1,0.1l41.1,40.1H166c-20.4,0-33.6-7.5-41.6-23.5c-8.4-17-9.4-41.5-9.4-58.5V170.8c15-2.8,28.7-10.5,39-21.9
		c11.6-12.9,18-29.5,18-46.9c0-38.6-31.4-70-70-70s-70,31.4-70,70c0,17,6.2,33.3,17.3,46.1c9.9,11.3,23.1,19.1,37.7,22.3V306
		c0,14.7,0,42.1,9.4,65.3c11.9,29.3,36,44.7,69.6,44.7h89.7L216,456.2c-5.4,5.4-5.4,14.3,0,19.8c0,0,0.1,0.1,0.1,0.1
		c2.7,2.5,6.2,3.9,9.8,3.9c3.8,0,7.3-1.4,9.9-4.1l57.6-57.4c4.2-4.2,6.5-9.8,6.5-15.7c0-5.9-2.3-11.3-6.5-15.5L233.9,328.1z
		 M102,144c-23.2,0-42-18.8-42-42s18.8-42,42-42s42,18.8,42,42S125.2,144,102,144z"/>
	<path d="M425,341.6V206c0-14.7,0-42.1-9.4-65.3C403.7,111.5,379.6,96,346,96h-89.7L296,55.8c5.4-5.4,5.4-14.3,0-19.8
		c0,0-0.1-0.1-0.1-0.1c-2.7-2.5-6.2-3.9-9.8-3.9c-3.8,0-7.3,1.4-9.9,4.1l-57.6,57.4c-4.2,4.2-6.5,9.8-6.5,15.7
		c0,5.9,2.3,11.3,6.5,15.5l59.6,59.4c2.6,2.6,6.1,4.1,9.9,4.1c3.7,0,7.3-1.4,9.9-4.1c2.6-2.6,4.1-6.1,4.1-9.9c0-3.7-1.4-7.3-4.1-9.9
		c0,0,0,0-0.1-0.1L256.7,124H346c20.4,0,33.6,7.5,41.6,23.5c8.4,17,9.4,41.5,9.4,58.5v135.2c-15,2.8-28.7,10.5-39,21.9
		c-11.6,12.9-18,29.5-18,46.9c0,38.6,31.4,70,70,70s70-31.4,70-70c0-17-6.2-33.3-17.3-46.1C452.8,352.6,439.5,344.8,425,341.6z
		 M410,452c-23.2,0-42-18.8-42-42s18.8-42,42-42s42,18.8,42,42S433.2,452,410,452z"/>
</g>
</svg>
