<?xml version="1.0" encoding="utf-8"?>
<!-- Generator: Adobe Illustrator 22.0.1, SVG Export Plug-In . SVG Version: 6.00 Build 0)  -->
<svg version="1.1" id="Layer_1" xmlns="http://www.w3.org/2000/svg" xmlns:xlink="http://www.w3.org/1999/xlink" x="0px" y="0px"
	 viewBox="0 0 512 512" style="enable-background:new 0 0 512 512;" xml:space="preserve">
<g>
	<path d="M369.8,464c-4.9,0-9.7-2.5-12.3-7L129.9,69.3c-4-6.7-1.7-15.4,5.1-19.3c6.8-3.9,15.5-1.7,19.5,5.1l227.6,387.7
		c4,6.7,1.7,15.4-5.1,19.3C374.7,463.4,372.2,464,369.8,464z"/>
	<g>
		<path d="M320,272V112c0-35.2-28.8-64-64-64h0c-28.4,0-52.6,18.8-60.9,44.5L315,296.8C318.2,289.2,320,280.8,320,272z"/>
		<path d="M192,272c0,35.2,28.8,64,64,64h0c3.9,0,7.6-0.4,11.3-1L192,206.6V272z"/>
		<path d="M366,275v-69c0-7.7-6.3-14-14-14s-14,6.3-14,14v69c0,15.2-4.2,29.4-11.4,41.6l15.6,26.6C357.1,324.5,366,300.8,366,275z"
			/>
		<path d="M256,357c-45.2,0-82-36.8-82-82v-69c0-7.7-6.3-14-14-14s-14,6.3-14,14v69c0,55.9,41.9,102.2,96,109.1V436h-36
			c-7.7,0-14,6.3-14,14s6.3,14,14,14h100c7.7,0,14-6.3,14-14s-6.3-14-14-14h-36v-51.9c7.9-1,15.6-2.9,22.9-5.5l-14.5-24.8
			C271.3,355.9,263.8,357,256,357z"/>
	</g>
</g>
</svg>
