<?xml version="1.0" encoding="utf-8"?>
<!-- Generator: Adobe Illustrator 22.0.1, SVG Export Plug-In . SVG Version: 6.00 Build 0)  -->
<svg version="1.1" id="Layer_1" xmlns="http://www.w3.org/2000/svg" xmlns:xlink="http://www.w3.org/1999/xlink" x="0px" y="0px"
	 viewBox="0 0 512 512" style="enable-background:new 0 0 512 512;" xml:space="preserve">
<path d="M450.4,168.5c7.5,0,13.6-6.1,13.6-13.6V61.6c0-7.5-6.1-13.6-13.6-13.6h-93.3c-7.5,0-13.6,6.1-13.6,13.6
	c0,7.5,6.1,13.6,13.6,13.6h59.9L342,150.6c-25.7-16.3-55.4-24.8-86-24.8c-30.7,0-60.3,8.6-86,24.8l-19-19.1l28.2-28.2
	c5.3-5.3,5.3-13.9,0-19.2c-2.6-2.6-6-4-9.6-4c-3.6,0-7.1,1.4-9.6,4l-28.1,28.1L95.1,75.2h59.9c7.5,0,13.6-6.1,13.6-13.6
	c0-7.5-6.1-13.6-13.6-13.6H61.6C54.1,48,48,54.1,48,61.6v93.3c0,7.5,6.1,13.6,13.6,13.6c7.5,0,13.6-6.1,13.6-13.6V95.1l36.9,36.7
	l-30,30c-5.3,5.3-5.3,13.9,0,19.2c2.6,2.6,6,4,9.6,4c3.6,0,7.1-1.4,9.6-4l30.1-30.1l16.5,16.4c-33.9,30.6-53.3,73.9-53.3,119.8
	c0,43.1,16.8,83.6,47.3,114.1c30.5,30.5,71,47.3,114.1,47.3c45.9,0,89.2-19.4,119.9-53.3l16.4,16.4L363,440.8
	c-5.3,5.3-5.3,13.9,0,19.2c2.6,2.6,6,4,9.6,4c3.6,0,7.1-1.4,9.6-4l29.3-29.3l29.3,29.3c2.6,2.6,6,4,9.6,4c3.6,0,7.1-1.4,9.6-4
	c5.3-5.3,5.3-13.9,0-19.2l-29.3-29.3l29.3-29.3c5.3-5.3,5.3-13.9,0-19.2c-2.6-2.6-6-4-9.6-4c-3.6,0-7.1,1.4-9.6,4l-29.3,29.3l-19-19
	c16.3-25.8,24.9-55.4,24.9-86.1c0-45.9-19.3-89.2-53.3-119.8l72.7-72.2v59.9C436.8,162.4,442.9,168.5,450.4,168.5z M390.1,287.1
	c0,35.8-14,69.5-39.3,94.8c-25.3,25.3-59,39.3-94.8,39.3s-69.5-14-94.8-39.3c-25.3-25.3-39.3-59-39.3-94.8c0-35.8,14-69.5,39.3-94.8
	c25.3-25.3,59-39.3,94.8-39.3s69.5,14,94.8,39.3C376.2,217.6,390.1,251.3,390.1,287.1z"/>
</svg>
