<?xml version="1.0" encoding="utf-8"?>
<!-- Generator: Adobe Illustrator 22.0.1, SVG Export Plug-In . SVG Version: 6.00 Build 0)  -->
<svg version="1.1" id="Layer_1" xmlns="http://www.w3.org/2000/svg" xmlns:xlink="http://www.w3.org/1999/xlink" x="0px" y="0px"
	 viewBox="0 0 512 512" style="enable-background:new 0 0 512 512;" xml:space="preserve">
<g>
	<path d="M352,280H160c-4.4,0-8-3.6-8-8v-32c0-4.4,3.6-8,8-8h192c4.4,0,8,3.6,8,8v32C360,276.4,356.4,280,352,280z"/>
	<path d="M378,362V150c0-12.1,9.9-22,22-22h0c12.1,0,22,9.9,22,22v212c0,12.1-9.9,22-22,22h0C387.9,384,378,374.1,378,362z"/>
	<path d="M460,192h-12c-4.4,0-8,3.6-8,8v112c0,4.4,3.6,8,8,8h12c11,0,20-9,20-20v-88C480,201,471,192,460,192z"/>
	<path d="M134,362V150c0-12.1-9.9-22-22-22h0c-12.1,0-22,9.9-22,22v212c0,12.1,9.9,22,22,22h0C124.1,384,134,374.1,134,362z"/>
	<path d="M64,192H52c-11,0-20,9-20,20v88c0,11,9,20,20,20h12c4.4,0,8-3.6,8-8V200C72,195.6,68.4,192,64,192z"/>
</g>
</svg>
