<?xml version="1.0" encoding="utf-8"?>
<!-- Generator: Adobe Illustrator 22.0.1, SVG Export Plug-In . SVG Version: 6.00 Build 0)  -->
<svg version="1.1" id="Layer_1" xmlns="http://www.w3.org/2000/svg" xmlns:xlink="http://www.w3.org/1999/xlink" x="0px" y="0px"
	 viewBox="0 0 512 512" style="enable-background:new 0 0 512 512;" xml:space="preserve">
<g>
	<g>
		<g>
			<path d="M434,461.5l-26.6-69.1c-2.1-5.1-7-8.4-12.4-8.4c-4.5,0-8.6,2.2-11.1,5.9c-2.5,3.7-3,8.4-1.4,12.5l26,69.1
				c2.1,5.1,7,8.5,12.5,8.5h0.5c4.5,0,8.7-2.2,11.2-5.9C435.2,470.3,435.7,465.6,434,461.5z"/>
			<path d="M117.6,384c-5.5,0-10.4,3.3-12.4,8.4l-26.6,69.1c-1.7,4.2-1.2,8.9,1.3,12.6c2.5,3.7,6.7,5.9,11.2,5.9h0.5
				c5.5,0,10.4-3.3,12.5-8.5l26-69.1c1.7-4.1,1.2-8.8-1.4-12.5C126.3,386.2,122.1,384,117.6,384z"/>
			<path d="M256.6,384h-1.1c-7.4,0-13.4,6-13.4,13.4v36.1c0,7.4,6,14.4,13.4,14.4h1.1c7.4,0,13.4-7,13.4-14.4v-36.1
				C270,390,264,384,256.6,384z"/>
		</g>
		<g>
			<path d="M424,128H88c-4.4,0-8,3.6-8,8v176c0,4.4,3.6,8,8,8h336c4.4,0,8-3.6,8-8V136C432,131.6,428.4,128,424,128z"/>
			<path d="M448,80H63.9C46.3,80,32,94.3,32,111.9v224.2c0,17.6,14.3,31.9,31.9,31.9H448c17.7,0,32-14.3,32-32V112
				C480,94.3,465.7,80,448,80z M452,324c0,8.8-7.2,16-16,16H76c-8.8,0-16-7.2-16-16V124c0-8.8,7.2-16,16-16h364.6c3,0,5.9,1.2,8,3.3
				l0,0c2.1,2.1,3.3,5,3.3,8V324z"/>
		</g>
	</g>
	<path d="M256,32c-13.4-0.2-24.4,12.2-24.4,25.6h48.7C280.4,44.2,269.4,31.8,256,32z"/>
</g>
</svg>
