<?xml version="1.0" encoding="utf-8"?>
<!-- Generator: Adobe Illustrator 22.0.1, SVG Export Plug-In . SVG Version: 6.00 Build 0)  -->
<svg version="1.1" id="Layer_1" xmlns="http://www.w3.org/2000/svg" xmlns:xlink="http://www.w3.org/1999/xlink" x="0px" y="0px"
	 viewBox="0 0 512 512" style="enable-background:new 0 0 512 512;" xml:space="preserve">
<path d="M416,32v127.9l-22.9-14.5L384,139l-9.1,6.4L352,159.9V32h-40.9c-0.2,0-0.3,0-0.5,0C288.1,32.2,270,50.8,270,73.4v313.2
	c0,7.5-5.8,14-13.3,14.4c-8,0.4-14.7-6-14.7-14V73.4c0-22.6-18.1-41.2-40.6-41.4c-0.2,0-0.3,0-0.5,0H95.1C64.8,32,40,56.8,40,87.1
	v289.8c0,30.3,24.8,55.1,55.1,55.1l108-0.1c4.2,0.1,8.3,0.6,12.2,1.4c15.3,3.1,26.8,16.6,26.6,32.2c-0.1,7.2,5.2,13.6,12.4,14.4
	c8.5,0.9,15.7-5.7,15.6-14.1c-0.2-15.8,11.4-29.4,26.9-32.5c3.8-0.8,7.9-1.2,12-1.3l108,0.1c30.3,0,55.1-24.8,55.1-55.1V87.1
	C472,56.8,446.3,32,416,32z"/>
</svg>
