<?xml version="1.0" encoding="utf-8"?>
<!-- Generator: Adobe Illustrator 22.0.1, SVG Export Plug-In . SVG Version: 6.00 Build 0)  -->
<svg version="1.1" id="Layer_1" xmlns="http://www.w3.org/2000/svg" xmlns:xlink="http://www.w3.org/1999/xlink" x="0px" y="0px"
	 viewBox="0 0 512 512" style="enable-background:new 0 0 512 512;" xml:space="preserve">
<g>
	<path d="M256,48C141.1,48,48,141.1,48,256c0,114.9,93.1,208,208,208c114.9,0,208-93.1,208-208C464,141.1,370.9,48,256,48z
		 M177.1,344.9c-2.7,4.6-7.5,7.1-12.5,7.1c-2.5,0-5-0.6-7.3-2c-6.9-4-9.2-12.8-5.2-19.7l14.2-23.6c1.5-2.5,4.1-4,7-4h2.1
		c10.3,0,17.5,6.2,19.6,12.2L177.1,344.9z M297.3,298.5l-93,0.1h-33.5h-28.3c-8.2,0-14.8-6.8-14.4-15c0.3-7.8,7.1-13.7,14.9-13.7
		h44.8c0,0,0,0,0,0l53.1-90.4c0,0,0,0,0,0l-17.2-29.3c-3.9-6.7-2.2-15.5,4.4-19.7c7-4.5,16.2-2.2,20.3,4.8l9.2,15.7c0,0,0,0,0.1,0
		l9.2-15.7c4.1-7,13.4-9.3,20.3-4.8c6.6,4.2,8.3,13,4.4,19.7l-17.2,29.3l-16.7,28.5l-36.3,61.9c0,0,0,0,0,0.1h53.5
		c6.7,0,15.1,3.6,18.5,9.4l0.3,0.6c3,5.1,4.7,8.6,4.7,13.7C298.3,296.5,297.3,298.5,297.3,298.5z M369.5,298.6h-25.2c0,0,0,0,0,0.1
		l18.4,31.3c4,6.8,2.1,15.8-4.8,20c-2.3,1.4-4.9,2.1-7.5,2.1c-5,0-9.8-2.6-12.5-7.1l-27.2-46.3l-16.9-28.8L272,232.6
		c-6.4-10.9-6.7-24.5-0.6-35.3c4.3-7.6,7.6-9.6,7.6-9.6l48.5,82.1c0,0,0,0,0,0h41.7c7.8,0,14.5,6,14.9,13.7
		C384.4,291.8,377.8,298.6,369.5,298.6z"/>
</g>
</svg>
