<?xml version="1.0" encoding="utf-8"?>
<!-- Generator: Adobe Illustrator 22.0.1, SVG Export Plug-In . SVG Version: 6.00 Build 0)  -->
<svg version="1.1" id="Layer_1" xmlns="http://www.w3.org/2000/svg" xmlns:xlink="http://www.w3.org/1999/xlink" x="0px" y="0px"
	 viewBox="0 0 512 512" style="enable-background:new 0 0 512 512;" xml:space="preserve">
<g>
	<path d="M461.8,53.6c-0.4-1.7-1.6-3-3.3-3.4c-54.4-13.3-180.1,34.1-248.2,102.2c-13.3,13.3-24.2,26.4-33.1,39.1
		c-21-1.9-42-0.3-59.9,7.5c-50.5,22.2-65.2,80.2-69.3,105.1c-1,5.9,3.9,11,9.8,10.4l81.1-8.9c0.1,7.8,0.6,14,1.1,18.3
		c0.4,4.2,2.3,8.1,5.3,11.1l31.4,31.4c3,3,6.9,4.9,11.1,5.3c4.3,0.5,10.5,1,18.2,1.1l-8.9,81c-0.6,5.9,4.5,10.8,10.4,9.8
		c24.9-4,83-18.7,105.1-69.2c7.8-17.9,9.4-38.8,7.6-59.7c12.7-8.9,25.9-19.8,39.2-33.1C427.8,233.6,474.9,110.7,461.8,53.6z
		 M298.6,213.5c-16.7-16.7-16.7-43.7,0-60.4c16.7-16.7,43.7-16.7,60.4,0c16.7,16.7,16.7,43.7,0,60.4
		C342.3,230.2,315.3,230.2,298.6,213.5z"/>
	<path d="M174.5,380.5L174.5,380.5c-4.2,4.2-11.7,6.6-19.8,8c-18.2,3.1-34.1-12.8-31-31c1.4-8.1,3.7-15.6,7.9-19.7l0.1-0.1
		c2.3-2.3,0.4-6.1-2.8-5.7c-9.8,1.2-19.4,5.6-26.9,13.1c-18,18-19.7,84.8-19.7,84.8s66.9-1.7,84.9-19.7c7.6-7.6,11.9-17.1,13.1-26.9
		C180.6,380.1,176.7,378.2,174.5,380.5z"/>
</g>
</svg>
