<?xml version="1.0" encoding="utf-8"?>
<!-- Generator: Adobe Illustrator 22.0.1, SVG Export Plug-In . SVG Version: 6.00 Build 0)  -->
<svg version="1.1" id="Layer_1" xmlns="http://www.w3.org/2000/svg" xmlns:xlink="http://www.w3.org/1999/xlink" x="0px" y="0px"
	 viewBox="0 0 512 512" style="enable-background:new 0 0 512 512;" xml:space="preserve">
<g>
	<path d="M64,72.5v316.3c0,2.8,1.3,5.5,3.5,7l69.8,50.2c5.2,3.7,12.1-0.3,12.1-7V122.7c0-2.8-1.3-5.5-3.5-7L76.1,65.4
		C70.9,61.7,64,65.7,64,72.5z"/>
	<path d="M168.7,123.3v316.3c0,6.7,6.9,10.8,12.1,7l62-36.7c2.2-1.6,3.5-4.2,3.5-7V86.6c0-6.7-6.9-10.8-12.1-7l-62,36.7
		C170,117.8,168.7,120.4,168.7,123.3z"/>
	<path d="M435.9,65.5l-69.8,50.7c-2.2,1.6-3.5,4.2-3.5,7v316.2c0,6.8,6.9,10.8,12.1,7l69.8-50.7c2.2-1.6,3.5-4.2,3.5-7V72.5
		C448,65.8,441.1,61.8,435.9,65.5z"/>
	<path d="M265.7,85.6v316.2c0,2.8,1.3,5.5,3.5,7l62,37c5.2,3.8,12.1-0.3,12.1-7V122.6c0-2.8-1.3-5.5-3.5-7l-62-37
		C272.6,74.9,265.7,78.9,265.7,85.6z"/>
</g>
</svg>
