<?xml version="1.0" encoding="utf-8"?>
<!-- Generator: Adobe Illustrator 18.1.1, SVG Export Plug-In . SVG Version: 6.00 Build 0)  -->
<svg version="1.1" id="Layer_1" xmlns="http://www.w3.org/2000/svg" xmlns:xlink="http://www.w3.org/1999/xlink" x="0px" y="0px"
	 viewBox="0 0 512 512" enable-background="new 0 0 512 512" xml:space="preserve">
<g>
	<path d="M411.4,300.3l-183.8-182c0,0,0,0,0,0L171.4,62c-9.3-9.3-21.6-14-33.9-14c-12.3,0-24.6,4.7-33.9,14h0
		c-18.7,18.7-18.7,49.2,0,67.9l49.3,49.3L48,283.4L219.3,448c0,0,135.1-130.7,146.1-141.7c5.8-5.8,18.2-7.1,28.6-7.1
		C403.5,299.2,411.4,300.3,411.4,300.3z M114.8,118.6c-6-6-9.3-14-9.3-22.6c0-8.6,3.3-16.6,9.3-22.6c6-6,14-9.3,22.6-9.3
		c8.6,0,16.6,3.3,22.6,9.3l49.5,49.5l-45.4,45.1L114.8,118.6z"/>
	<path d="M416,336c0,0-48,53.3-48,79.9c0,26.6,21.5,48.1,48,48.1c0,0,0,0,0,0c26.5,0,48-21.6,48-48.1C464,389.3,416,336,416,336z"/>
</g>
</svg>
