<?xml version="1.0" encoding="utf-8"?>
<!-- Generator: Adobe Illustrator 18.1.1, SVG Export Plug-In . SVG Version: 6.00 Build 0)  -->
<svg version="1.1" id="Layer_1" xmlns="http://www.w3.org/2000/svg" xmlns:xlink="http://www.w3.org/1999/xlink" x="0px" y="0px"
	 viewBox="0 0 512 512" enable-background="new 0 0 512 512" xml:space="preserve">
<g>
	<path d="M207.8,400c0,27,21.6,48,48.1,48c26.5,0,48.1-21,48.1-48H207.8z"/>
	<polygon points="133.8,32 120,40.1 378.2,480 392,471.9 	"/>
	<g>
		<path d="M373.9,229c0-99.1-49-132.9-94.9-140.6c0-0.6,0.1-1.1,0.1-1.7c0-12.7-10.3-23-23-23s-23,10.3-23,23c0,0.6,0,1.2,0.1,1.8
			c-13.1,2.2-26.5,6.6-38.9,14L359,383.9h73C396.6,351.9,373.9,344.9,373.9,229z"/>
		<path d="M138.1,229.2C138.1,345.1,115.6,352,80,384h222.9L159,138C146.2,159.4,138.1,188.9,138.1,229.2z"/>
	</g>
</g>
</svg>
