<?xml version="1.0" encoding="utf-8"?>
<!-- Generator: Adobe Illustrator 22.0.1, SVG Export Plug-In . SVG Version: 6.00 Build 0)  -->
<svg version="1.1" id="Layer_1" xmlns="http://www.w3.org/2000/svg" xmlns:xlink="http://www.w3.org/1999/xlink" x="0px" y="0px"
	 viewBox="0 0 512 512" style="enable-background:new 0 0 512 512;" xml:space="preserve">
<g>
	<path d="M434.8,137.6L285.4,69.5c-16.2-7.4-42.7-7.4-58.9,0L77.2,137.6c-17.6,8-17.6,21.1,0,29.1l148,67.5
		c16.9,7.7,44.7,7.7,61.6,0l148-67.5C452.4,158.7,452.4,145.6,434.8,137.6z"/>
	<g>
		<path d="M225.2,375.2l-99.8-45.5c-4.2-1.9-9.1-1.9-13.3,0l-34.9,15.9c-17.6,8-17.6,21.1,0,29.1l148,67.5c16.9,7.7,44.7,7.7,61.6,0
			l148-67.5c17.6-8,17.6-21.1,0-29.1l-34.9-15.9c-4.2-1.9-9.1-1.9-13.3,0l-99.8,45.5C269.9,382.9,242.1,382.9,225.2,375.2z"/>
		<path d="M434.8,241.6l-31.7-14.4c-4.2-1.9-9-1.9-13.2,0l-108,48.9c-15.3,5.2-36.6,5.2-51.9,0l-108-48.9c-4.2-1.9-9-1.9-13.2,0
			l-31.7,14.4c-17.6,8-17.6,21.1,0,29.1l148,67.5c16.9,7.7,44.7,7.7,61.6,0l148-67.5C452.4,262.7,452.4,249.6,434.8,241.6z"/>
	</g>
</g>
</svg>
