<?xml version="1.0" encoding="utf-8"?>
<!-- Generator: Adobe Illustrator 22.0.1, SVG Export Plug-In . SVG Version: 6.00 Build 0)  -->
<svg version="1.1" id="Layer_1" xmlns="http://www.w3.org/2000/svg" xmlns:xlink="http://www.w3.org/1999/xlink" x="0px" y="0px"
	 viewBox="0 0 512 512" style="enable-background:new 0 0 512 512;" xml:space="preserve">
<g>
	<path d="M256,48C141.1,48,48,141.1,48,256s93.1,208,208,208c114.9,0,208-93.1,208-208S370.9,48,256,48z M308.7,331.3L256,278.6
		l-52.7,52.7c-6.2,6.2-16.4,6.2-22.6,0c-3.1-3.1-4.7-7.2-4.7-11.3c0-4.1,1.6-8.2,4.7-11.3l52.7-52.7l-52.7-52.7
		c-3.1-3.1-4.7-7.2-4.7-11.3c0-4.1,1.6-8.2,4.7-11.3c6.2-6.2,16.4-6.2,22.6,0l52.7,52.7l52.7-52.7c6.2-6.2,16.4-6.2,22.6,0
		c6.2,6.2,6.2,16.4,0,22.6L278.6,256l52.7,52.7c6.2,6.2,6.2,16.4,0,22.6C325.1,337.6,314.9,337.6,308.7,331.3z"/>
</g>
</svg>
