<?xml version="1.0" encoding="utf-8"?>
<!-- Generator: Adobe Illustrator 22.0.1, SVG Export Plug-In . SVG Version: 6.00 Build 0)  -->
<svg version="1.1" id="Layer_1" xmlns="http://www.w3.org/2000/svg" xmlns:xlink="http://www.w3.org/1999/xlink" x="0px" y="0px"
	 viewBox="0 0 512 512" style="enable-background:new 0 0 512 512;" xml:space="preserve">
<g>
	<path d="M231.5,118.3C231.6,118.3,231.6,118.2,231.5,118.3L175.3,62c-9.3-9.3-21.6-14-33.9-14c-12.3,0-24.6,4.7-33.9,14h0
		c-18.7,18.7-18.7,49.2,0,67.9l49.3,49.3l-84.5,84c-11.1,11.1-11,29.2,0.3,40l131.2,126c10.9,10.4,28,10.4,38.9-0.1
		c37.8-36.6,118.3-114.5,126.7-122.9c5.8-5.8,18.2-7.1,28.7-7.1c0.1,0,0.2,0,0.3,0c5.9,0,8.8-7.1,4.6-11.2L231.5,118.3z
		 M127.6,110.4c-7.2-7.2-8.3-18.8-2-26.8c3.8-4.9,9.6-7.6,15.8-7.6c5.4,0,10.4,2.1,14.1,5.8l49.3,49.3l-28.3,28.3L127.6,110.4z"/>
	<path d="M403,339.5c-1.6-1.9-4.5-1.9-6.1,0c-10.5,12.2-45,53.9-45,76.4c0,26.6,21.5,48.1,48,48.1c0,0,0,0,0,0
		c26.5,0,48-21.6,48-48.1C448,393.3,413.6,351.7,403,339.5z"/>
</g>
</svg>
