<?xml version="1.0" encoding="utf-8"?>
<!-- Generator: Adobe Illustrator 22.0.1, SVG Export Plug-In . SVG Version: 6.00 Build 0)  -->
<svg version="1.1" id="Layer_1" xmlns="http://www.w3.org/2000/svg" xmlns:xlink="http://www.w3.org/1999/xlink" x="0px" y="0px"
	 viewBox="0 0 512 512" style="enable-background:new 0 0 512 512;" xml:space="preserve">
<g>
	<path d="M417,80H137c-25.4,0-46,20.6-46,46c0,7.7,6.3,14,14,14s14-6.3,14-14c0-9.9,8.1-18,18-18h280c9.9,0,18,8.1,18,18v260
		c0,9.9-8.1,18-18,18H137c-9.9,0-18-8.1-18-18c0-7.7-6.3-14-14-14s-14,6.3-14,14c0,25.4,20.6,46,46,46h280c25.4,0,46-20.6,46-46V126
		C463,100.6,442.4,80,417,80z"/>
	<path d="M224,334.2c-5.4,5.4-5.4,14.3,0,19.8c0,0,0.1,0.1,0.1,0.1c2.7,2.5,6.2,3.9,9.8,3.9c3.8,0,7.3-1.4,9.9-4.1l82.6-82.4
		c4.3-4.3,6.5-9.3,6.5-14.7c0-5.3-2.3-10.3-6.5-14.5l-84.6-84.4c-2.6-2.6-6.1-4.1-9.9-4.1c-3.7,0-7.3,1.4-9.9,4.1
		c-5.5,5.5-5.5,14.3,0,19.8l65.2,64.2H63c-7.7,0-14,6.3-14,14s6.3,14,14,14h224.6L224,334.2z"/>
</g>
</svg>
