<?xml version="1.0" encoding="utf-8"?>
<!-- Generator: Adobe Illustrator 18.1.1, SVG Export Plug-In . SVG Version: 6.00 Build 0)  -->
<svg version="1.1" id="Layer_1" xmlns="http://www.w3.org/2000/svg" xmlns:xlink="http://www.w3.org/1999/xlink" x="0px" y="0px"
	 viewBox="0 0 512 512" enable-background="new 0 0 512 512" xml:space="preserve">
<g>
	<path d="M32,176.3v158.5c0,18.3,14.6,33.1,32.9,33.1h381c18.4,0,34.1-14.8,34.1-33.1V176.3c0-18.3-15.7-32.3-34.1-32.3h-381
		C46.6,144,32,158,32,176.3z M55,271v-30c0-2.2,1.8-4,4-4c2.2,0,4,1.8,4,4v30c0,2.2-1.8,4-4,4C56.8,275,55,273.2,55,271z M469,255.5
		c0,9.6-7.8,17.4-17.4,17.4c-9.6,0-17.4-7.8-17.4-17.4c0-9.6,7.8-17.4,17.4-17.4C461.2,238.1,469,245.9,469,255.5z M424,160v192H83
		V160H424z"/>
	<path d="M441.6,255.5c0,5.5,4.5,10,9.9,10c5.5,0,10-4.5,10-10s-4.5-10-10-10C446.1,245.6,441.6,250,441.6,255.5z"/>
</g>
</svg>
