<?xml version="1.0" encoding="utf-8"?>
<!-- Generator: Adobe Illustrator 22.0.1, SVG Export Plug-In . SVG Version: 6.00 Build 0)  -->
<svg version="1.1" id="Layer_1" xmlns="http://www.w3.org/2000/svg" xmlns:xlink="http://www.w3.org/1999/xlink" x="0px" y="0px"
	 viewBox="0 0 512 512" style="enable-background:new 0 0 512 512;" xml:space="preserve">
<g>
	<path d="M255.7,106.6C255.7,106.6,255.7,106.6,255.7,106.6l-0.2,0c-25,0-45.5-20.3-45.5-45.3c0-25,20.4-45.3,45.5-45.3
		c25.1,0,45.5,20.3,45.5,45.3c0,12.1-4.7,23.5-13.3,32C279.2,101.9,267.8,106.6,255.7,106.6z"/>
	<g>
		<path d="M221.2,496c-14.4,0-27-10.5-27-30.4l1-277.6h-10v105c0,9.3-3,15.1-6.4,18.3c-4.3,4.1-9.1,6.4-15.2,6.4
			c-6.2,0-10.9-2.3-15.2-6.4c-3.4-3.2-6.4-8.9-6.4-18.3V171.4c0-13.8,4.4-27.8,13.8-38.4c10.4-11.6,23.6-18,39-18h122.3
			c15.4,0,28.6,6.4,39,18.1c9.4,10.6,13.8,24.5,13.8,38.3V293c0,7.3-1.7,13.8-6.6,18.3c-4.4,4-9.3,6.2-15.5,6.2s-11.1-2.2-15.5-6.2
			c-4.9-4.5-6.6-11-6.6-18.3V188h-9v277.6c0,19.7-13.4,30.4-27.8,30.4c-13.4,0-26.3-9.3-27.4-29.8c0-0.1,0-0.3,0-0.4V325h-12v140.6
			c0,0.1,0,0.2,0,0.3C248.8,485.6,235.7,496,221.2,496z"/>
	</g>
</g>
</svg>
