<?xml version="1.0" encoding="utf-8"?>
<!-- Generator: Adobe Illustrator 22.0.1, SVG Export Plug-In . SVG Version: 6.00 Build 0)  -->
<svg version="1.1" id="Layer_1" xmlns="http://www.w3.org/2000/svg" xmlns:xlink="http://www.w3.org/1999/xlink" x="0px" y="0px"
	 viewBox="0 0 512 512" style="enable-background:new 0 0 512 512;" xml:space="preserve">
<path d="M377.4,32c-38.9,0-70.6,31.7-70.6,70.7c0,17.1,6.2,33.7,17.5,46.6c10,11.5,23.5,19.4,38.2,22.5v43.1L256,270.3l-106.4-55.4
	v-43.1c32.2-6.9,55.7-35.6,55.7-69.1c0-39-31.7-70.7-70.6-70.7S64,63.7,64,102.7c0,17.1,6.2,33.7,17.5,46.6
	c10,11.5,23.5,19.4,38.2,22.5v57.4c0,2.7,1.5,5.1,3.9,6.3l117.5,60.8v43.9c-32.2,6.9-55.7,35.6-55.7,69.1c0,39,31.7,70.7,70.6,70.7
	s70.6-31.7,70.6-70.7c0-17.1-6.2-33.7-17.5-46.6c-10-11.5-23.5-19.4-38.2-22.5v-43.9l117.5-60.8c2.4-1.2,3.9-3.6,3.9-6.3v-57.4
	c32.2-6.9,55.7-35.6,55.7-69.1C448,63.7,416.3,32,377.4,32z M93.8,102.7c0-22.5,18.3-40.8,40.8-40.8s40.8,18.3,40.8,40.8
	c0,22.5-18.3,40.8-40.8,40.8S93.8,125.2,93.8,102.7z M296.8,409.3c0,22.5-18.3,40.8-40.8,40.8s-40.8-18.3-40.8-40.8
	c0-22.5,18.3-40.8,40.8-40.8S296.8,386.8,296.8,409.3z M377.4,143.6c-22.5,0-40.8-18.3-40.8-40.8c0-22.5,18.3-40.8,40.8-40.8
	c22.5,0,40.8,18.3,40.8,40.8C418.2,125.2,399.9,143.6,377.4,143.6z"/>
</svg>
