<?xml version="1.0" encoding="utf-8"?>
<!-- Generator: Adobe Illustrator 18.1.1, SVG Export Plug-In . SVG Version: 6.00 Build 0)  -->
<svg version="1.1" id="Layer_1" xmlns="http://www.w3.org/2000/svg" xmlns:xlink="http://www.w3.org/1999/xlink" x="0px" y="0px"
	 viewBox="0 0 512 512" enable-background="new 0 0 512 512" xml:space="preserve">
<g>
	<path d="M256,63.9c34.7,0,63,30.3,63,67.6v136.9c0,37.3-28.3,67.6-63,67.6c-34.7,0-63-30.3-63-67.6V131.5
		C193,94.2,221.3,63.9,256,63.9 M256,48c-43.7,0-79,37.4-79,83.5v136.9c0,46.1,35.3,83.6,79,83.6c43.7,0,79-37.5,79-83.6V131.5
		C335,85.4,299.7,48,256,48L256,48z"/>
	<path d="M368,208v63.8c0,28.4-10.2,55.5-29.3,76.3c-19,20.7-46.7,33.2-74.5,35.2l-8.2,0.6l-8.4-0.6c-28.5-2.1-53.2-14.6-72.9-35.4
		c-19.7-20.8-30.7-47.8-30.7-76.1V208h-16v63.8c0,67.2,54,122.6,121,127.5V448h-74v16h161v-16h-72v-48.7c66-4.9,120-60.3,120-127.5
		V208H368z"/>
</g>
</svg>
