<?xml version="1.0" encoding="utf-8"?>
<!-- Generator: Adobe Illustrator 22.0.1, SVG Export Plug-In . SVG Version: 6.00 Build 0)  -->
<svg version="1.1" id="Layer_1" xmlns="http://www.w3.org/2000/svg" xmlns:xlink="http://www.w3.org/1999/xlink" x="0px" y="0px"
	 viewBox="0 0 512 512" style="enable-background:new 0 0 512 512;" xml:space="preserve">
<g>
	<path d="M359,78H153c-2.8,0-5.6,0.8-8,2.3C86.7,116.9,48,182,48,256c0,73.9,38.7,138.1,97,175.6c2.4,1.6,5.2,2.4,8.1,2.4h205.8
		c2.9,0,5.7-0.8,8.1-2.4c58.3-37.5,97-101.7,97-175.6c0-74-38.7-139.1-97-175.7C364.6,78.8,361.8,78,359,78z M192.9,270.8h-22.3
		c-2.1,0-3.7-1.7-3.7-3.7V155.9c0-2,1.7-3.7,3.7-3.7h22.3c2.1,0,3.7,1.7,3.7,3.7v111.2C196.6,269.2,194.9,270.8,192.9,270.8z
		 M282,389.5h-52c-2.1,0-3.7-1.7-3.7-3.7l0-40.2c0-16.5,13.6-30.5,30.1-30.3c16.2,0.2,29.3,13.5,29.3,29.7v40.8
		C285.7,387.8,284.1,389.5,282,389.5z M341.4,256h-22.3c-2.1,0-3.7-1.7-3.7-3.7v-81.6c0-2,1.7-3.7,3.7-3.7h22.3
		c2.1,0,3.7,1.7,3.7,3.7v81.6C345.1,254.3,343.5,256,341.4,256z"/>
</g>
</svg>
