<?xml version="1.0" encoding="utf-8"?>
<!-- Generator: Adobe Illustrator 18.1.1, SVG Export Plug-In . SVG Version: 6.00 Build 0)  -->
<svg version="1.1" id="Layer_1" xmlns="http://www.w3.org/2000/svg" xmlns:xlink="http://www.w3.org/1999/xlink" x="0px" y="0px"
	 viewBox="0 0 512 512" enable-background="new 0 0 512 512" xml:space="preserve">
<g>
	<circle cx="256" cy="256" r="64"/>
	<path d="M472,248h-24.2C443.7,148.3,363.7,68.3,264,64.2V40c0-4.4-3.6-8-8-8s-8,3.6-8,8v24.2C148.3,68.3,68.3,148.3,64.2,248H40
		c-4.4,0-8,3.6-8,8s3.6,8,8,8h24.2c4.1,99.7,84.2,179.7,183.8,183.8V472c0,4.4,3.6,8,8,8s8-3.6,8-8v-24.2
		c99.7-4.1,179.7-84.2,183.8-183.8H472c4.4,0,8-3.6,8-8S476.4,248,472,248z M380.4,380.4c-31.4,31.4-72.4,49.4-116.4,51.4V392
		c0-4.4-3.6-8-8-8s-8,3.6-8,8v39.8c-44-2-85.1-20-116.4-51.4C100.2,349.1,82.1,308,80.2,264H120c4.4,0,8-3.6,8-8s-3.6-8-8-8H80.2
		c2-44,20-85.1,51.4-116.4S204,82.1,248,80.2V120c0,4.4,3.6,8,8,8s8-3.6,8-8V80.2c44,2,85.1,20,116.4,51.4S429.9,204,431.8,248H392
		c-4.4,0-8,3.6-8,8s3.6,8,8,8h39.8C429.9,308,411.8,349.1,380.4,380.4z"/>
</g>
</svg>
