<?xml version="1.0" encoding="utf-8"?>
<!-- Generator: Adobe Illustrator 22.0.1, SVG Export Plug-In . SVG Version: 6.00 Build 0)  -->
<svg version="1.1" id="Layer_1" xmlns="http://www.w3.org/2000/svg" xmlns:xlink="http://www.w3.org/1999/xlink" x="0px" y="0px"
	 viewBox="0 0 512 512" style="enable-background:new 0 0 512 512;" xml:space="preserve">
<g>
	<path d="M312,372c-7.7,0-14,6.3-14,14c0,9.9-8.1,18-18,18H94c-9.9,0-18-8.1-18-18V126c0-9.9,8.1-18,18-18h186c9.9,0,18,8.1,18,18
		c0,7.7,6.3,14,14,14c7.7,0,14-6.3,14-14c0-25.4-20.6-46-46-46H94c-25.4,0-46,20.6-46,46v260c0,25.4,20.6,46,46,46h186
		c25.4,0,46-20.6,46-46C326,378.3,319.7,372,312,372z"/>
	<path d="M372.9,158.1c-2.6-2.6-6.1-4.1-9.9-4.1c-3.7,0-7.3,1.4-9.9,4.1c-5.5,5.5-5.5,14.3,0,19.8l65.2,64.2H162
		c-7.7,0-14,6.3-14,14s6.3,14,14,14h256.6L355,334.2c-5.4,5.4-5.4,14.3,0,19.8c0,0,0.1,0.1,0.1,0.1c2.7,2.5,6.2,3.9,9.8,3.9
		c3.8,0,7.3-1.4,9.9-4.1l82.6-82.4c4.3-4.3,6.5-9.3,6.5-14.7c0-5.3-2.3-10.3-6.5-14.5L372.9,158.1z"/>
</g>
</svg>
