<?xml version="1.0" encoding="utf-8"?>
<!-- Generator: Adobe Illustrator 22.0.1, SVG Export Plug-In . SVG Version: 6.00 Build 0)  -->
<svg version="1.1" id="Layer_1" xmlns="http://www.w3.org/2000/svg" xmlns:xlink="http://www.w3.org/1999/xlink" x="0px" y="0px"
	 viewBox="0 0 512 512" style="enable-background:new 0 0 512 512;" xml:space="preserve">
<path d="M326.9,145.6c-2.2-1.1-4.6-1.6-6.9-1.6c-3.6,0-7.1,1.2-10,3.5L244.8,200H192c-8.8,0-16,7.2-16,16v80c0,8.8,7.2,16,16,16
	h52.8l65.2,52.5c2.9,2.3,6.5,3.5,10,3.5c2.3,0,4.7-0.5,6.9-1.6c5.6-2.7,9.1-8.3,9.1-14.4V160C336,153.8,332.5,148.2,326.9,145.6z"/>
</svg>
