<?xml version="1.0" encoding="utf-8"?>
<!-- Generator: Adobe Illustrator 22.0.1, SVG Export Plug-In . SVG Version: 6.00 Build 0)  -->
<svg version="1.1" id="Layer_1" xmlns="http://www.w3.org/2000/svg" xmlns:xlink="http://www.w3.org/1999/xlink" x="0px" y="0px"
	 viewBox="0 0 512 512" style="enable-background:new 0 0 512 512;" xml:space="preserve">
<path d="M256,48C141.1,48,48,141.1,48,256s93.1,208,208,208c114.9,0,208-93.1,208-208S370.9,48,256,48z M310.6,84.4
	c27.1,8.6,52,23.6,72.7,44.3c20.7,20.7,35.7,45.6,44.3,72.7l-88.8,6c-8.2-14-19.9-25.7-33.9-34L310.6,84.4z M128.7,128.7
	c20.7-20.7,45.5-35.7,72.7-44.3l5.7,89c-13.9,8.3-25.6,20-33.9,33.9l-88.9-5.9C93,174.3,108,149.4,128.7,128.7z M201.4,427.6
	c-27.1-8.6-52-23.6-72.7-44.3C108,362.6,93,337.7,84.4,310.6l89-5.7c8.2,13.9,19.9,25.5,33.8,33.8L201.4,427.6z M256,324
	c-37.5,0-68-30.5-68-68c0-37.5,30.5-68,68-68c37.5,0,68,30.5,68,68C324,293.5,293.5,324,256,324z M383.3,383.3
	c-20.7,20.7-45.6,35.7-72.7,44.3l-5.9-88.9c14.1-8.3,25.8-20.1,34.1-34.2l88.8,6C419,337.7,404,362.6,383.3,383.3z"/>
</svg>
