<?xml version="1.0" encoding="utf-8"?>
<!-- Generator: Adobe Illustrator 22.0.1, SVG Export Plug-In . SVG Version: 6.00 Build 0)  -->
<svg version="1.1" id="Layer_1" xmlns="http://www.w3.org/2000/svg" xmlns:xlink="http://www.w3.org/1999/xlink" x="0px" y="0px"
	 viewBox="0 0 512 512" style="enable-background:new 0 0 512 512;" xml:space="preserve">
<path d="M464.5,240.9h-6.2c-3.3-21.1-13.3-40.5-28.5-55.2c-17.3-16.6-39.8-25.8-63.4-25.8c-20.5,0-40,6.7-56.2,19.4
	c-13.8,10.8-24.2,25.1-30.5,41.7c-7-4.6-15.4-7.3-23.7-7.3c-8.3,0-16.7,2.6-23.7,7.3c-6.2-16.6-16.6-30.9-30.5-41.7
	c-16.2-12.7-35.7-19.4-56.2-19.4c-23.6,0-46.1,9.1-63.4,25.6C67,200.4,57,219.9,53.7,241h-6.2c-8,0-14.5,6.7-14.5,15
	c0,8.3,6.5,15,14.5,15h6.2c3.3,21.2,13.3,40.6,28.5,55.3c17.3,16.6,39.8,25.8,63.4,25.8c51.3,0,93.1-43,93.1-95.9V256
	c0-5.9,6.9-14.9,17.3-14.9c10.4,0,17.3,9,17.3,14.9v0.1c0,52.9,41.8,95.9,93.1,95.9c23.7,0,46.2-9.1,63.4-25.8
	c15.2-14.7,25.2-34.2,28.5-55.4h6.2c8,0,14.5-6.7,14.5-15C479,247.7,472.5,240.9,464.5,240.9z"/>
</svg>
