<?xml version="1.0" encoding="utf-8"?>
<!-- Generator: Adobe Illustrator 22.0.1, SVG Export Plug-In . SVG Version: 6.00 Build 0)  -->
<svg version="1.1" id="Layer_1" xmlns="http://www.w3.org/2000/svg" xmlns:xlink="http://www.w3.org/1999/xlink" x="0px" y="0px"
	 viewBox="0 0 512 512" style="enable-background:new 0 0 512 512;" xml:space="preserve">
<path d="M401.4,354.2c-2.9,0.1-5.8,0.2-8.7,0.2c-47.9,0-93-18.9-126.8-53.4c-33.9-34.4-52.5-80.1-52.5-128.8
	c0-27.7,6.1-54.5,17.5-78.7c3.1-6.6,9.3-16.6,13.6-23.4c1.9-2.9-0.5-6.7-3.9-6.1c-6,0.9-15.2,2.9-27.7,6.8
	C135.1,95.5,80,168.7,80,255c0,106.6,85.1,193,190.1,193c58,0,110-26.4,144.9-68.1c6-7.2,11.5-13.8,16.4-21.8c1.8-3-0.7-6.7-4.1-6.1
	C418.8,353.7,410.2,353.8,401.4,354.2z"/>
</svg>
