<?xml version="1.0" encoding="utf-8"?>
<!-- Generator: Adobe Illustrator 22.0.1, SVG Export Plug-In . SVG Version: 6.00 Build 0)  -->
<svg version="1.1" id="Layer_1" xmlns="http://www.w3.org/2000/svg" xmlns:xlink="http://www.w3.org/1999/xlink" x="0px" y="0px"
	 viewBox="0 0 512 512" style="enable-background:new 0 0 512 512;" xml:space="preserve">
<g>
	<path d="M395.3,259c-0.3-1.2-0.4-2.4-0.3-3.6c0-0.8,0.2-1.6,0.3-2.4c-0.4,0.9-0.6,2-0.6,3C394.8,257.1,395,258.1,395.3,259z"/>
	<path d="M459.4,270H409c-6.7,0-12.3-4.7-13.7-11c-0.3-0.9-0.5-1.9-0.5-3c0-1.1,0.2-2.1,0.6-3c1.4-6.4,7.3-11,14.1-11h49.9
		c2.4,0,4.2-2,4-4.4c-8.8-100.3-88.7-180.2-189-189c-2.3-0.2-4.4,1.6-4.4,4V103c0,7.9-6.6,14.3-14.6,14c-7.6-0.3-13.4-6.9-13.4-14.4
		V52.6c0-2.4-2-4.2-4.4-4c-100.3,8.8-180.2,88.7-189,189c-0.2,2.3,1.6,4.4,4,4.4H103c7.9,0,14.3,6.6,14,14.6
		c-0.3,7.6-6.9,13.4-14.4,13.4H52.6c-2.4,0-4.2,2-4,4.4c8.8,100.3,88.7,180.2,189,189c2.3,0.2,4.4-1.6,4.4-4V409
		c0-7.9,6.6-14.3,14.6-14c7.6,0.3,13.4,6.9,13.4,14.4v49.9c0,2.4,2,4.2,4.4,4c100.3-8.8,180.2-88.7,189-189
		C463.6,272,461.7,270,459.4,270z M256,326c-38.7,0-70-31.3-70-70s31.3-70,70-70s70,31.3,70,70S294.7,326,256,326z"/>
</g>
</svg>
