<?xml version="1.0" encoding="utf-8"?>
<!-- Generator: Adobe Illustrator 18.1.1, SVG Export Plug-In . SVG Version: 6.00 Build 0)  -->
<svg version="1.1" id="Layer_1" xmlns="http://www.w3.org/2000/svg" xmlns:xlink="http://www.w3.org/1999/xlink" x="0px" y="0px"
	 viewBox="0 0 512 512" enable-background="new 0 0 512 512" xml:space="preserve">
<path d="M273,63.9c10.5,0,19,8.5,19,18.9v132.6c0,4.4,3.6,8,8,8c4.4,0,8-3.6,8-8V98.8c0-10.4,8.5-18.9,19-18.9
	c10.5,0,19,8.5,19,18.9v148.5c0,4.4,3.6,8,8,8c4.4,0,8-3.6,8-8V146.7c0-10.4,8.5-18.9,19-18.9c10.5,0,19,8.5,19,18.9V361
	c0,50.8-28.6,87-70.2,87c0,0-30,0-51.5,0c-21.5,0-36.6-11.1-36.6-11.1c-38.9-23.4-84.8-88.6-102-108.4c-17.9-20.5-35.1-38.2-24.2-49
	c5.6-5.3,11.7-7.8,18.1-7.8c12.2,0,26.2,8.5,41.5,22.2l24.9,21.7V114.8c0-10.4,8.5-18.9,19-18.9c10.5,0,19,8.5,19,18.9v116.6
	c0,4.4,3.6,8,8,8c4.4,0,8-3.6,8-8V82.9C254,72.5,262.5,63.9,273,63.9 M272.9,48C253.6,48,238,63.6,238,82.9v2.6
	c-5-3.5-12-5.6-19-5.6c-19.3,0-35,15.7-35,34.9v165.5c-19-16.9-35.2-24.5-50.3-24.5c-10.9,0-20.8,4.1-29.3,12.1l-0.2,0.1l-0.2,0.1
	c-5.7,5.7-13.7,18.2-2.5,38.1c5.1,8.9,13.2,18.2,21.8,28c1.3,1.5,2.7,3.1,4.1,4.6c3.5,4,8.6,10.5,14.6,18
	c23.1,29.2,58.1,73.6,90.9,93.5c3.8,2.6,21.1,13.7,45.3,13.7h51.5c25,0,47.4-11,63.1-30.4C408,415.1,416,389.7,416,361V146.7
	c0-19.2-15.7-34.9-35-34.9c-7,0-13,2.1-19,5.6V98.8c0-19.2-15.8-34.9-35.1-34.9c-7.9,0-15.2,2.6-21.1,7.1
	C300.9,57.6,288,48,272.9,48L272.9,48z"/>
</svg>
