<?xml version="1.0" encoding="utf-8"?>
<!-- Generator: Adobe Illustrator 18.1.1, SVG Export Plug-In . SVG Version: 6.00 Build 0)  -->
<svg version="1.1" id="Layer_1" xmlns="http://www.w3.org/2000/svg" xmlns:xlink="http://www.w3.org/1999/xlink" x="0px" y="0px"
	 viewBox="0 0 512 512" enable-background="new 0 0 512 512" xml:space="preserve">
<g>
	<path d="M344,211.8c-4.4,0-8-3.6-8-8c0-40-38.7-72-80-72s-80,32-80,72c0,4.4-3.6,8-8,8s-8-3.6-8-8c0-25,11.8-44.3,29.6-61.6
		c17.6-17.1,41.2-26.4,66.4-26.4s48.8,9.4,66.4,26.4c17.8,17.2,29.6,36.5,29.6,61.6C352,208.2,348.4,211.8,344,211.8z"/>
	<g>
		<path d="M408,260h-24v-47.8c0-70.4-57.6-128-128-128h0h0c-70.4,0-128,57.6-128,128V260h-24c-39.6,0-72,32.4-72,72v15.8
			c0,39.6,32.4,72.2,72,72.2h24c0,4,3.6,7.9,8,7.9s8-3.7,8-8.1v-16v-128v-16v-47.6c0-29.8,11.7-57.9,32.9-79.1
			c21.2-21.2,49.3-32.9,79.1-32.9c30,0,57.9,11.7,79.1,32.9c21.2,21.2,32.9,49.3,32.9,79.1v47.6v16v128v16c0,4.4,3.6,8.1,8,8.1
			s8-3.9,8-7.9h24c39.6,0,72-32.6,72-72.2V332C480,292.4,447.6,260,408,260z M128,404h-24c-14.9,0-28.9-5.9-39.5-16.6
			S48,362.7,48,347.8V332c0-14.9,5.8-28.9,16.5-39.5S89.1,276,104,276h24V404z M464,347.8c0,14.9-5.8,29-16.5,39.6
			S422.9,404,408,404h-24V276h24c14.9,0,28.9,5.8,39.5,16.5S464,317.1,464,332V347.8z"/>
	</g>
</g>
</svg>
