<?xml version="1.0" encoding="utf-8"?>
<!-- Generator: Adobe Illustrator 22.0.1, SVG Export Plug-In . SVG Version: 6.00 Build 0)  -->
<svg version="1.1" id="Layer_1" xmlns="http://www.w3.org/2000/svg" xmlns:xlink="http://www.w3.org/1999/xlink" x="0px" y="0px"
	 viewBox="0 0 512 512" style="enable-background:new 0 0 512 512;" xml:space="preserve">
<g>
	<path d="M121.6,388H80.8c-2.2,0-4-1.8-4-4V128c0-2.2,1.8-4,4-4h40.5c7.9,0,14.5-6.4,14.7-14c0.1-3.9-1.3-7.2-4.1-10
		c-2.7-2.8-8-4-11.9-4H66c-10,0-18,6-18,16v288c0,10,7,16,17,16h56.3c7.9,0,14.5-5.2,14.7-12.8c0.1-3.9-1.3-7.5-4.1-10.3
		C129.2,390.1,125.5,388,121.6,388z"/>
	<path d="M447,96h-56.3c-9.5,0-17.1,8.3-14,18.3c0.2,0.7,0.5,1.3,0.8,1.9c2.7,5.2,7.6,7.8,12.9,7.8h40.8c2.2,0,4,1.8,4,4v255.9
		c0,2.2-1.8,4-4,4h-40.5c-7.9,0-14.5,6.2-14.7,13.9c-0.1,3.9,1.3,7.6,4.1,10.4c2.7,2.8,6.4,3.8,10.3,3.8H447c10,0,17-6,17-16.4V112
		C464,102,457,96,447,96z"/>
	<path d="M122.5,176c-7.7,0-14,6.3-14,13.9v132.1c0,7.7,6.3,13.9,14,13.9s14-6.3,14-13.9V189.9C136.5,182.3,130.2,176,122.5,176z"/>
	<path d="M389.5,336c7.7,0,14-6.3,14-13.9V189.9c0-7.7-6.3-13.9-14-13.9s-14,6.3-14,13.9v132.1C375.5,329.7,381.8,336,389.5,336z"/>
	<path d="M326.5,144c-7.7,0-14,6.5-14,14.4v195.1c0,8,6.3,14.4,14,14.4s14-6.5,14-14.4V158.4C340.5,150.5,334.2,144,326.5,144z"/>
	<path d="M185.5,144c-7.7,0-14,6.5-14,14.4v195.1c0,8,6.3,14.4,14,14.4s14-6.5,14-14.4V158.4C199.5,150.5,193.3,144,185.5,144z"/>
	<path d="M256,160c-7.7,0-14,6.4-14,14.2v163.5c0,7.8,6.3,14.2,14,14.2c7.7,0,14-6.4,14-14.2V174.2C270,166.4,263.7,160,256,160z"/>
</g>
</svg>
