<?xml version="1.0" encoding="utf-8"?>
<!-- Generator: Adobe Illustrator 22.0.1, SVG Export Plug-In . SVG Version: 6.00 Build 0)  -->
<svg version="1.1" id="Layer_1" xmlns="http://www.w3.org/2000/svg" xmlns:xlink="http://www.w3.org/1999/xlink" x="0px" y="0px"
	 viewBox="0 0 512 512" style="enable-background:new 0 0 512 512;" xml:space="preserve">
<g>
	<g>
		<path d="M460,120H52c-2.2,0-4-1.8-4-4V96c0-17.7,14.3-32,32-32h352c17.7,0,32,14.3,32,32v20C464,118.2,462.2,120,460,120z"/>
	</g>
	<g>
		<path d="M440,146H72c-4.4,0-8,3.6-8,8v262c0,17.6,14.4,32,32,32h320c17.6,0,32-14.4,32-32V154C448,149.6,444.4,146,440,146z
			 M306,288h-99.6c-7.1,0-13.4-5.2-14.3-12.3c-1-8.5,5.6-15.7,13.9-15.7h99.6c7.1,0,13.4,5.2,14.3,12.3
			C320.9,280.7,314.3,288,306,288z"/>
	</g>
</g>
</svg>
