<?xml version="1.0" encoding="utf-8"?>
<!-- Generator: Adobe Illustrator 18.1.1, SVG Export Plug-In . SVG Version: 6.00 Build 0)  -->
<svg version="1.1" id="Layer_1" xmlns="http://www.w3.org/2000/svg" xmlns:xlink="http://www.w3.org/1999/xlink" x="0px" y="0px"
	 viewBox="0 0 512 512" enable-background="new 0 0 512 512" xml:space="preserve">
<g>
	<path d="M445.2,48H398H128.4C74.1,48,64,75.9,64,88.2c30.3,4.2,32,4.2,32,36.2c0,16,0,275.5,0,275.5c0,35.3,28.8,64,64.2,64H368
		c35.4,0,63-29.2,63-64.5V89.2c2-17.5,12.5-31.6,13.6-33.3c1.2-1.9,3.4-4.4,3.4-5.5C448,49.2,447.7,48,445.2,48z M415,89.3v310.2
		c0,13-4.7,24.4-13.7,33.7c-9,9.3-20.5,14.8-33.2,14.8H160.1c-26.4,0-48.1-21.9-48.1-48.5v-275c0-16.7,0.3-30.8-8.3-40.4
		c-4.3-4.8-10.6-6.3-17.3-8.2c5.7-5,17.7-12,42.1-12h293.6C422.1,64,415,70.3,415,89.3z"/>
	<path d="M383,176v208c0,10.2-1.8,18-5.5,21.9c-5.7,5.8-13.8,10.2-20.1,10.2h-187c-8.8,0-15.4-2.7-19.5-7.9
		c-4.4-5.4-6.9-14.3-6.9-25.1V176H383 M399,160H128v223c0,28.3,13.7,49,42.4,49h187c11.4,0,23.4-6.7,31.5-15
		c8.1-8.4,10.1-21.3,10.1-33V160L399,160z"/>
</g>
</svg>
