<?xml version="1.0" encoding="utf-8"?>
<!-- Generator: Adobe Illustrator 22.0.1, SVG Export Plug-In . SVG Version: 6.00 Build 0)  -->
<svg version="1.1" id="Layer_1" xmlns="http://www.w3.org/2000/svg" xmlns:xlink="http://www.w3.org/1999/xlink" x="0px" y="0px"
	 viewBox="0 0 512 512" style="enable-background:new 0 0 512 512;" xml:space="preserve">
<g>
	<path d="M255.8,112c-80.4,0-143.8,50.6-219.6,133.3c-5.5,6.1-5.6,15.2-0.1,21.3C101,338.3,158.2,400,255.8,400
		c96.4,0,168.7-77.7,220.1-134c5.3-5.8,5.6-14.6,0.5-20.7C424,181.8,351.5,112,255.8,112z M260.2,345.9c-53,2.4-96.6-41.2-94.1-94.1
		c2.1-46.2,39.5-83.6,85.7-85.7c53-2.4,96.6,41.2,94.1,94.1C343.8,306.4,306.4,343.8,260.2,345.9z"/>
	<g>
		<path d="M256,209c0-6,1.1-11.7,3.1-16.9c-1,0-2-0.1-3.1-0.1c-36.9,0-66.6,31.4-63.8,68.9c2.4,31.3,27.6,56.5,58.9,58.9
			c37.5,2.8,68.9-26.9,68.9-63.8c0-1.3-0.1-2.6-0.1-3.9c-5.6,2.5-11.7,3.9-18.2,3.9C276.5,256,256,234.9,256,209z"/>
	</g>
</g>
</svg>
