<?xml version="1.0" encoding="utf-8"?>
<!-- Generator: Adobe Illustrator 22.0.1, SVG Export Plug-In . SVG Version: 6.00 Build 0)  -->
<svg version="1.1" id="Layer_1" xmlns="http://www.w3.org/2000/svg" xmlns:xlink="http://www.w3.org/1999/xlink" x="0px" y="0px"
	 viewBox="0 0 512 512" style="enable-background:new 0 0 512 512;" xml:space="preserve">
<path d="M452.1,49L52.3,265.3c-6,3.3-5.6,12.1,0.6,14.9l68.2,25.7c4,1.5,7.2,4.5,9,8.4l53,109.1c1,4.8,9.9,6.1,10,1.2l-8.1-90.2
	c0.5-6.7,3-13,7.3-18.2l207.3-203.1c1.2-1.2,2.9-1.6,4.5-1.3c3.4,0.8,4.8,4.9,2.6,7.6L228,338c-4,6-6,11-7,18l-10.7,77.9
	c0.9,6.8,6.2,9.4,10.5,3.3l38.5-45.2c2.6-3.7,7.7-4.5,11.3-1.9l99.2,72.3c4.7,3.5,11.4,0.9,12.6-4.9L463.8,58
	C465.3,51.2,458.2,45.7,452.1,49z"/>
</svg>
