<?xml version="1.0" encoding="UTF-8"?>
<svg id="Layer_1" data-name="Layer 1" xmlns="http://www.w3.org/2000/svg" viewBox="0 0 141.73 141.73">
  <defs>
    <style>
      .cls-1 {
        fill: #53575a;
      }

      .cls-2 {
        fill: #54575a;
      }
    </style>
  </defs>
  <g>
    <path class="cls-2" d="M127.32,66.94v-7.15c-.01-7.51-5.47-12.96-12.99-12.96h-.39s-6.08-.01-6.08-.01c-2.03,0-4.08,0-6.14,.01-.46-.79-.95-1.55-1.44-2.3-.36-.55-.72-1.1-1.06-1.65-.17-.3-.47-.8-.53-1.13-.96-6.18-6.11-10.69-12.26-10.75h-.76c-6.08-.06-12.38-.1-18.58,.02-5.46,.12-9.57,2.97-11.26,7.82-.87,2.48-2.03,4.85-3.69,7.47-.08,.13-.2,.3-.3,.53-5.27-.03-10.54-.02-15.82-.01-2.22,0-3.41,1.18-3.42,3.41,0,.64,.01,1.26,.01,1.88,0,1.14,.01,2.29-.02,3.43-.03,1.25,.4,2.31,1.35,3.24,2.02,2.01,4.03,4.02,6.05,6.03,1.56,1.56,3.11,3.12,4.68,4.66,.1,.1,.13,.15,.09,.17-.81,4.57-1.44,9.17-1.87,13.76-.14,1.32-.24,2.63-.33,3.94h6.07c.09-1.33,.2-2.64,.32-3.94,.73-7.71,1.96-14.84,3.72-21.55,1.41-5.36,2.89-9.29,4.8-12.76,.72-1.29,1.19-2.15,1.55-2.36,.37-.22,1.32-.22,2.79-.22h6.29c8.66,0,17.31,0,25.97-.01h.01c.36,0,.42,.03,.6,.3,2.48,3.5,3.96,7.54,5.07,11.04,2.09,6.52,3.52,13.59,4.54,22.26,.74,6.39,1.13,13.07,1.15,19.87,0,2.09-.65,3.86-1.88,5.1-1.24,1.24-2.99,1.89-5.09,1.89H55.21c-.29,0-.57-.01-.83-.03-.05,4.7-3.89,8.51-8.6,8.51h-3.01c-.13,.39-.23,.81-.31,1.26-.17,.9-.25,1.79-.3,2.68h5.99c-.01-.08,0-.16,0-.23,.08-1.27,.53-2.52,1.32-3.57,.03-.05,.07-.09,.12-.14,1.14-1.42,2.79-2.27,4.66-2.41,.17-.01,.36-.01,.59-.01h11.34c10.87,0,21.73,0,32.6,.01,2.03,0,3.84,.8,5.08,2.24,1.03,1.18,1.57,2.69,1.58,4.32h-4.16c-1.69,0-3.05,1.36-3.05,3.05,0,.84,.35,1.6,.89,2.16,.55,.54,1.32,.89,2.16,.89h6.58s.21,.01,.21,.01c.14,0,.27,0,.38-.01,1.82-.1,2.98-1.28,3.04-3.09,.02-1.17,.02-2.23,0-3.24-.12-3.79-1.59-6.93-4.4-9.35,3.05-2.62,4.53-6.1,4.4-10.33-.03-1-.06-2.02-.09-3.03-.07-2.82-.15-5.72-.32-8.58-.53-8.8-1.52-16.06-3.15-22.85-.79-3.29-1.72-6.59-2.64-9.78-.24-.85-.48-1.72-.73-2.57h1.5c2.71,0,5.48-.01,8.28,0,4.21,0,6.94,2.72,6.94,6.92,.01,4.58,.01,9.17,0,13.75,0,.44,.03,.89,.07,1.34,.06,.83,.12,1.69-.1,2.22-.22,.52-.83,1.05-1.49,1.62-.35,.3-.7,.6-1.02,.92l-4.4,4.41c-1.07,1.06-1.3,2.42-.62,3.56,.36,.59,1.28,1.59,2.44,1.62,1.04-.01,2.1-.59,2.66-1.12,1.43-1.39,2.84-2.79,4.25-4.2,.99-1,1.99-2,2.99-2.98,.88-.88,1.3-1.89,1.3-3.14-.01-3.61-.01-7.23-.01-10.85Zm-81.11-4.45l-.36-.35c-2.34-2.34-4.7-4.69-7.02-7.07-.06-.06-.15-.27-.16-.45-.05-.54-.05-1.11-.05-1.71h10.48l-2.9,9.57Zm15.37-22.02c1.09-2.07,3.22-3.41,5.58-3.42,6.79-.03,13.09-.03,19.27,0,2.37,.02,4.51,1.4,5.55,3.42h-30.4Zm23.57,79.15h-22.31c-.32,1.32-1.5,2.29-2.92,2.29h-17.82c-.02,1.05,.06,2.11,.83,2.91,.77,.8,1.89,.9,3,.9h39.21c1.69,0,3.05-1.36,3.05-3.05,0-.84-.33-1.6-.89-2.16-.55-.54-1.32-.89-2.16-.89Z"/>
    <path class="cls-2" d="M76.8,56.34h-.02c-2.11,0-4.09,.82-5.53,2.31-1.44,1.48-2.24,3.5-2.24,5.68-.01,9.36-.01,18.73,.01,28.09,0,.88,.13,1.76,.38,2.55,1,3.24,4.04,5.44,7.33,5.44,.36,0,.72-.03,1.09-.08,3.87-.58,6.7-3.76,6.73-7.57,.02-3.36,.02-6.73,.01-10.09v-18.31c-.02-4.56-3.35-8.01-7.76-8.01Zm1.71,9.5c-1.13,.07-3.14,.47-3.12,3.06,.03,2.49,1.88,2.91,3.06,2.98v3.46c-.76,.03-1.63,.18-2.3,.88-.53,.55-.79,1.33-.75,2.27,.08,2.41,1.89,2.82,3.06,2.89v3.46c-1.17,.08-2.96,.51-3.09,2.99-.13,2.16,1.54,2.76,3.09,2.98,.02,.8,.05,1.56-.06,2.27-.12,.82-1,1.3-1.78,1.24-.88-.07-1.55-.8-1.56-1.69-.02-2.48-.02-4.96-.01-7.45v-7.71c0-4.45,0-8.88,.01-13.31,0-1,.7-1.76,1.66-1.78h.05c.89,0,1.64,.67,1.7,1.52,.05,.61,.05,1.26,.03,1.93Z"/>
    <path class="cls-2" d="M33.37,25.63c.84,2.39,.23,4.81-.26,7.22-.55,2.72-.93,5.58,.09,8.24,.39,1.01,1.35,1.71,2.47,1.4,.97-.27,1.79-1.45,1.4-2.47-.91-2.39-.35-4.81,.14-7.23,.55-2.71,.97-5.55,.03-8.23-.36-1.02-1.37-1.7-2.47-1.4-.99,.27-1.76,1.44-1.4,2.47h0Z"/>
    <path class="cls-1" d="M41.34,18.42c.84,2.39,.23,4.81-.26,7.22-.55,2.72-.93,5.58,.09,8.24,.39,1.01,1.35,1.71,2.47,1.4,.97-.27,1.79-1.45,1.4-2.47-.91-2.39-.35-4.81,.14-7.23,.55-2.71,.97-5.55,.03-8.23-.36-1.02-1.37-1.7-2.47-1.4-.99,.27-1.76,1.44-1.4,2.47h0Z"/>
    <path class="cls-1" d="M48.36,26.39c.84,2.39,.23,4.81-.26,7.22-.55,2.72-.93,5.58,.09,8.24,.39,1.01,1.35,1.71,2.47,1.4,.97-.27,1.79-1.45,1.4-2.47-.91-2.39-.35-4.81,.14-7.23,.55-2.71,.97-5.55,.03-8.23-.36-1.02-1.37-1.7-2.47-1.4-.99,.27-1.76,1.44-1.4,2.47h0Z"/>
  </g>
  <g>
    <g>
      <path class="cls-2" d="M22.05,126.1c-3.99,0-7.23-3.24-7.23-7.22,0-2.01,1.64-3.65,3.65-3.65H63.5c2.01,0,3.64,1.64,3.64,3.65,0,.26-.01,.51-.03,.77-.35,3.13-2.75,5.73-5.83,6.32-.48,.09-.92,.13-1.36,.13H22.05Zm-2.68-6.43c.36,1.17,1.44,1.99,2.68,1.99H59.92c1.24,0,2.32-.81,2.65-1.99H19.36Z"/>
      <path class="cls-2" d="M63.5,115.48c1.87,0,3.39,1.53,3.39,3.4,0,.25-.01,.5-.03,.75-.34,3.05-2.65,5.52-5.63,6.09-.42,.08-.86,.13-1.31,.13H22.05c-3.85,0-6.98-3.13-6.98-6.97,0-1.87,1.53-3.4,3.4-3.4H63.5m-41.45,6.43H59.92c1.42,0,2.6-.97,2.92-2.28,.03-.07,.04-.14,.06-.21H19.05c.27,1.42,1.51,2.49,3,2.49m41.45-6.93H18.47c-2.15,0-3.9,1.75-3.9,3.9,0,4.12,3.36,7.47,7.48,7.47H59.92c.45,0,.92-.05,1.4-.14,3.19-.61,5.67-3.29,6.03-6.53,.02-.28,.03-.54,.03-.81,0-2.15-1.74-3.9-3.89-3.9h0Zm-43.77,4.94H62.21c-.39,.89-1.28,1.49-2.3,1.49H22.05c-1.01,0-1.91-.6-2.32-1.49h0Z"/>
    </g>
    <g>
      <path class="cls-2" d="M45.78,115.73v-.5c4.56,0,8.31-3.71,8.36-8.26v-19.35H21.63v19.26c0,4.6,3.75,8.35,8.35,8.35v.5h-9.23l-.07-.08c-2.25-2.39-3.49-5.5-3.49-8.77v-19.94c0-2.07,1.69-3.76,3.77-3.76H54.81c2.07,0,3.76,1.69,3.76,3.76v.77h1.73c4.05,0,7.34,3.29,7.34,7.34v5.13c0,4.04-3.29,7.33-7.34,7.33h-1.75c-.09,1.99-.66,3.94-1.63,5.67-.52,.91-1.14,1.74-1.83,2.47l-.07,.08h-9.24Zm14.52-13.66c1.05,0,1.9-.85,1.9-1.89v-5.13c0-1.05-.85-1.9-1.9-1.9h-1.73v8.92h1.73Z"/>
      <path class="cls-2" d="M54.81,83.43c1.93,0,3.51,1.57,3.51,3.51v1.02h1.98c3.91,0,7.09,3.18,7.09,7.09v5.13c0,3.9-3.18,7.08-7.09,7.08h-1.99c-.06,2.1-.64,4.08-1.61,5.8-.5,.87-1.1,1.69-1.79,2.42h-9.13c4.72,0,8.56-3.81,8.61-8.51v-19.6H21.38v19.51c0,4.75,3.85,8.6,8.6,8.6h-9.12c-2.12-2.25-3.42-5.26-3.42-8.6v-19.94c0-1.94,1.58-3.51,3.52-3.51H54.81m3.51,18.89h1.98c1.19,0,2.15-.96,2.15-2.14v-5.13c0-1.19-.96-2.15-2.15-2.15h-1.98v9.42m-3.51-19.39H20.96c-2.22,0-4.02,1.8-4.02,4.01v19.94c0,3.33,1.26,6.51,3.56,8.94l.15,.16h9.34v-1c-4.47,0-8.1-3.63-8.1-8.1v-19.01H53.89v19.1c-.05,4.41-3.69,8.01-8.11,8.01v1h9.35l.15-.16c.7-.74,1.33-1.59,1.86-2.51,.96-1.7,1.52-3.61,1.65-5.55h1.51c4.19,0,7.59-3.4,7.59-7.58v-5.13c0-4.19-3.4-7.59-7.59-7.59h-1.48v-.52c0-2.21-1.8-4.01-4.01-4.01h0Zm4.01,10.47h1.48c.91,0,1.65,.74,1.65,1.65v5.13c0,.9-.74,1.64-1.65,1.64h-1.48v-8.42h0Z"/>
    </g>
  </g>
  <path class="cls-2" d="M30.87,87.37h-6.92l-.54-.94-1.73-3-6.88-11.91c-.82-1.43-.33-3.27,1.1-4.09,.47-.27,.98-.4,1.49-.4,1.03,0,2.05,.54,2.6,1.49l8.61,14.91,1.73,3,.54,.94Z"/>
</svg>