<svg width="512" height="512" viewBox="0 0 512 512" version="1.1" xmlns="http://www.w3.org/2000/svg"><path d="M451.001 108L62.9989 108C48.6398 108 36.3835 113.077 26.2301 123.23C16.0766 133.384 10.9999 145.64 10.9999 159.999L10.9999 352.001C10.9999 366.36 16.0766 378.616 26.2301 388.77C36.3835 398.923 48.6398 404 62.9989 404L451.001 404C465.36 404 477.616 398.923 487.77 388.77C497.923 378.616 503 366.36 503 352.001L503 159.999C503 145.64 497.923 133.384 487.77 123.23C477.616 113.077 465.36 108 451.001 108L451.001 108ZM466.947 368.064C461.578 373.355 455.098 376 447.505 376L66.4945 376C58.9021 376 52.4216 373.355 47.0529 368.064C41.6842 362.773 38.9999 356.387 38.9999 348.904L38.9999 163.096C39 155.614 41.6842 149.227 47.0529 143.936C52.4216 138.645 58.9021 136 66.4945 136L447.505 136C455.098 136 461.578 138.645 466.947 143.936C472.316 149.227 475 155.614 475 163.096L475 348.904C475 356.387 472.316 362.773 466.947 368.064L466.947 368.064Z" id="Vektor" stroke="none" /><path d="M115.999 315L396.001 315Q396.246 315 396.492 315.012Q396.737 315.024 396.981 315.048Q397.225 315.072 397.468 315.108Q397.711 315.144 397.952 315.192Q398.192 315.24 398.431 315.3Q398.669 315.359 398.904 315.431Q399.138 315.502 399.37 315.584Q399.601 315.667 399.827 315.761Q400.054 315.855 400.276 315.96Q400.498 316.065 400.715 316.181Q400.931 316.296 401.141 316.423Q401.352 316.549 401.556 316.685Q401.76 316.821 401.957 316.968Q402.155 317.114 402.344 317.27Q402.534 317.425 402.716 317.59Q402.898 317.755 403.071 317.929Q403.245 318.102 403.41 318.284Q403.575 318.466 403.73 318.656Q403.886 318.845 404.032 319.043Q404.178 319.24 404.315 319.444Q404.451 319.648 404.577 319.858Q404.704 320.069 404.819 320.285Q404.935 320.502 405.04 320.724Q405.145 320.946 405.239 321.173Q405.333 321.399 405.415 321.63Q405.498 321.862 405.569 322.096Q405.641 322.331 405.7 322.569Q405.76 322.807 405.808 323.048Q405.856 323.289 405.892 323.532Q405.928 323.775 405.952 324.019Q405.976 324.263 405.988 324.508Q406 324.754 406 324.999L406 345.001Q406 345.246 405.988 345.492Q405.976 345.737 405.952 345.981Q405.928 346.225 405.892 346.468Q405.856 346.711 405.808 346.952Q405.76 347.192 405.7 347.43Q405.641 347.669 405.569 347.904Q405.498 348.138 405.415 348.369Q405.333 348.601 405.239 348.827Q405.145 349.054 405.04 349.276Q404.935 349.498 404.819 349.714Q404.704 349.931 404.577 350.141Q404.451 350.352 404.315 350.556Q404.178 350.76 404.032 350.957Q403.886 351.155 403.73 351.344Q403.575 351.534 403.41 351.716Q403.245 351.898 403.071 352.071Q402.898 352.245 402.716 352.41Q402.534 352.575 402.344 352.73Q402.155 352.886 401.957 353.032Q401.76 353.178 401.556 353.315Q401.352 353.451 401.141 353.577Q400.931 353.704 400.714 353.819Q400.498 353.935 400.276 354.04Q400.054 354.145 399.827 354.239Q399.601 354.333 399.37 354.415Q399.138 354.498 398.904 354.569Q398.669 354.641 398.431 354.7Q398.192 354.76 397.952 354.808Q397.711 354.856 397.468 354.892Q397.225 354.928 396.981 354.952Q396.737 354.976 396.492 354.988Q396.246 355 396.001 355L115.999 355Q115.754 355 115.508 354.988Q115.263 354.976 115.019 354.952Q114.775 354.928 114.532 354.892Q114.289 354.856 114.048 354.808Q113.808 354.76 113.569 354.7Q113.331 354.641 113.096 354.569Q112.862 354.498 112.63 354.415Q112.399 354.333 112.173 354.239Q111.946 354.145 111.724 354.04Q111.502 353.935 111.285 353.819Q111.069 353.704 110.858 353.577Q110.648 353.451 110.444 353.315Q110.24 353.178 110.043 353.032Q109.845 352.886 109.656 352.73Q109.466 352.575 109.284 352.41Q109.102 352.245 108.929 352.071Q108.755 351.898 108.59 351.716Q108.425 351.534 108.27 351.344Q108.114 351.155 107.968 350.957Q107.821 350.76 107.685 350.556Q107.549 350.352 107.423 350.141Q107.296 349.931 107.181 349.714Q107.065 349.498 106.96 349.276Q106.855 349.054 106.761 348.827Q106.667 348.601 106.584 348.369Q106.502 348.138 106.431 347.904Q106.359 347.669 106.3 347.43Q106.24 347.192 106.192 346.952Q106.144 346.711 106.108 346.468Q106.072 346.225 106.048 345.981Q106.024 345.737 106.012 345.492Q106 345.246 106 345.001L106 324.999Q106 324.754 106.012 324.508Q106.024 324.263 106.048 324.019Q106.072 323.775 106.108 323.532Q106.144 323.289 106.192 323.048Q106.24 322.807 106.3 322.569Q106.359 322.331 106.431 322.096Q106.502 321.862 106.584 321.63Q106.667 321.399 106.761 321.172Q106.855 320.946 106.96 320.724Q107.065 320.502 107.181 320.285Q107.296 320.069 107.423 319.858Q107.549 319.648 107.685 319.444Q107.821 319.24 107.968 319.043Q108.114 318.845 108.27 318.656Q108.425 318.466 108.59 318.284Q108.755 318.102 108.929 317.929Q109.102 317.755 109.284 317.59Q109.466 317.425 109.656 317.27Q109.845 317.114 110.043 316.968Q110.24 316.821 110.444 316.685Q110.648 316.549 110.858 316.423Q111.069 316.296 111.285 316.181Q111.502 316.065 111.724 315.96Q111.946 315.855 112.173 315.761Q112.399 315.667 112.63 315.584Q112.862 315.502 113.096 315.431Q113.331 315.359 113.569 315.3Q113.808 315.24 114.048 315.192Q114.289 315.144 114.532 315.108Q114.775 315.072 115.019 315.048Q115.263 315.024 115.508 315.012Q115.754 315 115.999 315Z" stroke="none" /><path d="M90.999 232L121.001 232Q121.246 232 121.492 232.012Q121.737 232.024 121.981 232.048Q122.225 232.072 122.468 232.108Q122.711 232.144 122.952 232.192Q123.192 232.24 123.431 232.3Q123.669 232.359 123.904 232.431Q124.138 232.502 124.37 232.584Q124.601 232.667 124.827 232.761Q125.054 232.855 125.276 232.96Q125.498 233.065 125.714 233.181Q125.931 233.296 126.141 233.423Q126.352 233.549 126.556 233.685Q126.76 233.821 126.957 233.968Q127.155 234.114 127.344 234.27Q127.534 234.425 127.716 234.59Q127.898 234.755 128.071 234.929Q128.245 235.102 128.41 235.284Q128.575 235.466 128.73 235.656Q128.886 235.845 129.032 236.043Q129.178 236.24 129.315 236.444Q129.451 236.648 129.577 236.858Q129.704 237.069 129.819 237.285Q129.935 237.502 130.04 237.724Q130.145 237.946 130.239 238.173Q130.333 238.399 130.415 238.63Q130.498 238.862 130.569 239.096Q130.641 239.331 130.7 239.569Q130.76 239.808 130.808 240.048Q130.856 240.289 130.892 240.532Q130.928 240.775 130.952 241.019Q130.976 241.263 130.988 241.508Q131 241.754 131 241.999L131 272.001Q131 272.246 130.988 272.492Q130.976 272.737 130.952 272.981Q130.928 273.225 130.892 273.468Q130.856 273.711 130.808 273.952Q130.76 274.192 130.7 274.431Q130.641 274.669 130.569 274.904Q130.498 275.138 130.415 275.37Q130.333 275.601 130.239 275.827Q130.145 276.054 130.04 276.276Q129.935 276.498 129.819 276.715Q129.704 276.931 129.577 277.142Q129.451 277.352 129.315 277.556Q129.178 277.76 129.032 277.957Q128.886 278.155 128.73 278.344Q128.575 278.534 128.41 278.716Q128.245 278.898 128.071 279.071Q127.898 279.245 127.716 279.41Q127.534 279.575 127.344 279.73Q127.155 279.886 126.957 280.032Q126.76 280.178 126.556 280.315Q126.352 280.451 126.141 280.577Q125.931 280.704 125.714 280.819Q125.498 280.935 125.276 281.04Q125.054 281.145 124.827 281.239Q124.601 281.333 124.37 281.415Q124.138 281.498 123.904 281.569Q123.669 281.641 123.431 281.7Q123.192 281.76 122.952 281.808Q122.711 281.856 122.468 281.892Q122.225 281.928 121.981 281.952Q121.737 281.976 121.492 281.988Q121.246 282 121.001 282L90.999 282Q90.7535 282 90.5084 281.988Q90.2632 281.976 90.0189 281.952Q89.7747 281.928 89.5318 281.892Q89.289 281.856 89.0483 281.808Q88.8075 281.76 88.5694 281.7Q88.3313 281.641 88.0964 281.569Q87.8615 281.498 87.6304 281.415Q87.3993 281.333 87.1725 281.239Q86.9458 281.145 86.7239 281.04Q86.502 280.935 86.2855 280.819Q86.069 280.704 85.8585 280.577Q85.6479 280.451 85.4438 280.315Q85.2398 280.178 85.0426 280.032Q84.8454 279.886 84.6557 279.73Q84.466 279.575 84.2841 279.41Q84.1022 279.245 83.9286 279.071Q83.7551 278.898 83.5902 278.716Q83.4254 278.534 83.2697 278.344Q83.1139 278.155 82.9677 277.957Q82.8215 277.76 82.6851 277.556Q82.5488 277.352 82.4226 277.141Q82.2964 276.931 82.1807 276.714Q82.065 276.498 81.96 276.276Q81.855 276.054 81.7611 275.827Q81.6672 275.601 81.5845 275.37Q81.5018 275.138 81.4305 274.904Q81.3593 274.669 81.2996 274.431Q81.24 274.192 81.1921 273.952Q81.1442 273.711 81.1082 273.468Q81.0722 273.225 81.0481 272.981Q81.0241 272.737 81.012 272.492Q81 272.246 81 272.001L81 241.999Q81 241.754 81.012 241.508Q81.0241 241.263 81.0481 241.019Q81.0722 240.775 81.1082 240.532Q81.1442 240.289 81.1921 240.048Q81.24 239.808 81.2996 239.569Q81.3593 239.331 81.4305 239.096Q81.5018 238.862 81.5845 238.63Q81.6672 238.399 81.7611 238.173Q81.855 237.946 81.96 237.724Q82.065 237.502 82.1807 237.285Q82.2964 237.069 82.4226 236.858Q82.5488 236.648 82.6851 236.444Q82.8215 236.24 82.9677 236.043Q83.1139 235.845 83.2697 235.656Q83.4254 235.466 83.5902 235.284Q83.7551 235.102 83.9286 234.929Q84.1022 234.755 84.2841 234.59Q84.466 234.425 84.6557 234.27Q84.8454 234.114 85.0426 233.968Q85.2398 233.821 85.4438 233.685Q85.6479 233.549 85.8585 233.423Q86.069 233.296 86.2855 233.181Q86.502 233.065 86.7239 232.96Q86.9458 232.855 87.1725 232.761Q87.3993 232.667 87.6304 232.584Q87.8615 232.502 88.0964 232.431Q88.3313 232.359 88.5694 232.3Q88.8075 232.24 89.0483 232.192Q89.289 232.144 89.5318 232.108Q89.7747 232.072 90.0189 232.048Q90.2632 232.024 90.5084 232.012Q90.7535 232 90.999 232Z" stroke="none" /><path d="M190.999 232L221.001 232Q221.246 232 221.492 232.012Q221.737 232.024 221.981 232.048Q222.225 232.072 222.468 232.108Q222.711 232.144 222.952 232.192Q223.192 232.24 223.431 232.3Q223.669 232.359 223.904 232.431Q224.138 232.502 224.37 232.584Q224.601 232.667 224.827 232.761Q225.054 232.855 225.276 232.96Q225.498 233.065 225.714 233.181Q225.931 233.296 226.141 233.423Q226.352 233.549 226.556 233.685Q226.76 233.821 226.957 233.968Q227.155 234.114 227.344 234.27Q227.534 234.425 227.716 234.59Q227.898 234.755 228.071 234.929Q228.245 235.102 228.41 235.284Q228.575 235.466 228.73 235.656Q228.886 235.845 229.032 236.043Q229.178 236.24 229.315 236.444Q229.451 236.648 229.577 236.858Q229.704 237.069 229.819 237.285Q229.935 237.502 230.04 237.724Q230.145 237.946 230.239 238.173Q230.333 238.399 230.415 238.63Q230.498 238.862 230.569 239.096Q230.641 239.331 230.7 239.569Q230.76 239.808 230.808 240.048Q230.856 240.289 230.892 240.532Q230.928 240.775 230.952 241.019Q230.976 241.263 230.988 241.508Q231 241.754 231 241.999L231 272.001Q231 272.246 230.988 272.492Q230.976 272.737 230.952 272.981Q230.928 273.225 230.892 273.468Q230.856 273.711 230.808 273.952Q230.76 274.192 230.7 274.431Q230.641 274.669 230.569 274.904Q230.498 275.138 230.415 275.37Q230.333 275.601 230.239 275.827Q230.145 276.054 230.04 276.276Q229.935 276.498 229.819 276.715Q229.704 276.931 229.577 277.142Q229.451 277.352 229.315 277.556Q229.178 277.76 229.032 277.957Q228.886 278.155 228.73 278.344Q228.575 278.534 228.41 278.716Q228.245 278.898 228.071 279.071Q227.898 279.245 227.716 279.41Q227.534 279.575 227.344 279.73Q227.155 279.886 226.957 280.032Q226.76 280.178 226.556 280.315Q226.352 280.451 226.141 280.577Q225.931 280.704 225.714 280.819Q225.498 280.935 225.276 281.04Q225.054 281.145 224.827 281.239Q224.601 281.333 224.37 281.415Q224.138 281.498 223.904 281.569Q223.669 281.641 223.431 281.7Q223.192 281.76 222.952 281.808Q222.711 281.856 222.468 281.892Q222.225 281.928 221.981 281.952Q221.737 281.976 221.492 281.988Q221.246 282 221.001 282L190.999 282Q190.754 282 190.508 281.988Q190.263 281.976 190.019 281.952Q189.775 281.928 189.532 281.892Q189.289 281.856 189.048 281.808Q188.808 281.76 188.569 281.7Q188.331 281.641 188.096 281.569Q187.862 281.498 187.63 281.415Q187.399 281.333 187.173 281.239Q186.946 281.145 186.724 281.04Q186.502 280.935 186.285 280.819Q186.069 280.704 185.858 280.577Q185.648 280.451 185.444 280.315Q185.24 280.178 185.043 280.032Q184.845 279.886 184.656 279.73Q184.466 279.575 184.284 279.41Q184.102 279.245 183.929 279.071Q183.755 278.898 183.59 278.716Q183.425 278.534 183.27 278.344Q183.114 278.155 182.968 277.957Q182.821 277.76 182.685 277.556Q182.549 277.352 182.423 277.141Q182.296 276.931 182.181 276.714Q182.065 276.498 181.96 276.276Q181.855 276.054 181.761 275.827Q181.667 275.601 181.584 275.37Q181.502 275.138 181.431 274.904Q181.359 274.669 181.3 274.431Q181.24 274.192 181.192 273.952Q181.144 273.711 181.108 273.468Q181.072 273.225 181.048 272.981Q181.024 272.737 181.012 272.492Q181 272.246 181 272.001L181 241.999Q181 241.754 181.012 241.508Q181.024 241.263 181.048 241.019Q181.072 240.775 181.108 240.532Q181.144 240.289 181.192 240.048Q181.24 239.808 181.3 239.569Q181.359 239.331 181.431 239.096Q181.502 238.862 181.584 238.63Q181.667 238.399 181.761 238.173Q181.855 237.946 181.96 237.724Q182.065 237.502 182.181 237.285Q182.296 237.069 182.423 236.858Q182.549 236.648 182.685 236.444Q182.822 236.24 182.968 236.043Q183.114 235.845 183.27 235.656Q183.425 235.466 183.59 235.284Q183.755 235.102 183.929 234.929Q184.102 234.755 184.284 234.59Q184.466 234.425 184.656 234.27Q184.845 234.114 185.043 233.968Q185.24 233.821 185.444 233.685Q185.648 233.549 185.858 233.423Q186.069 233.296 186.285 233.181Q186.502 233.065 186.724 232.96Q186.946 232.855 187.173 232.761Q187.399 232.667 187.63 232.584Q187.862 232.502 188.096 232.431Q188.331 232.359 188.569 232.3Q188.808 232.24 189.048 232.192Q189.289 232.144 189.532 232.108Q189.775 232.072 190.019 232.048Q190.263 232.024 190.508 232.012Q190.754 232 190.999 232Z" stroke="none" /><path d="M290.999 232L321.001 232Q321.246 232 321.492 232.012Q321.737 232.024 321.981 232.048Q322.225 232.072 322.468 232.108Q322.711 232.144 322.952 232.192Q323.192 232.24 323.431 232.3Q323.669 232.359 323.904 232.431Q324.138 232.502 324.37 232.584Q324.601 232.667 324.827 232.761Q325.054 232.855 325.276 232.96Q325.498 233.065 325.714 233.181Q325.931 233.296 326.141 233.423Q326.352 233.549 326.556 233.685Q326.76 233.821 326.957 233.968Q327.155 234.114 327.344 234.27Q327.534 234.425 327.716 234.59Q327.898 234.755 328.071 234.929Q328.245 235.102 328.41 235.284Q328.575 235.466 328.73 235.656Q328.886 235.845 329.032 236.043Q329.178 236.24 329.315 236.444Q329.451 236.648 329.577 236.858Q329.704 237.069 329.819 237.285Q329.935 237.502 330.04 237.724Q330.145 237.946 330.239 238.173Q330.333 238.399 330.415 238.63Q330.498 238.862 330.569 239.096Q330.641 239.331 330.7 239.569Q330.76 239.808 330.808 240.048Q330.856 240.289 330.892 240.532Q330.928 240.775 330.952 241.019Q330.976 241.263 330.988 241.508Q331 241.754 331 241.999L331 272.001Q331 272.246 330.988 272.492Q330.976 272.737 330.952 272.981Q330.928 273.225 330.892 273.468Q330.856 273.711 330.808 273.952Q330.76 274.192 330.7 274.431Q330.641 274.669 330.569 274.904Q330.498 275.138 330.415 275.37Q330.333 275.601 330.239 275.827Q330.145 276.054 330.04 276.276Q329.935 276.498 329.819 276.715Q329.704 276.931 329.577 277.142Q329.451 277.352 329.315 277.556Q329.178 277.76 329.032 277.957Q328.886 278.155 328.73 278.344Q328.575 278.534 328.41 278.716Q328.245 278.898 328.071 279.071Q327.898 279.245 327.716 279.41Q327.534 279.575 327.344 279.73Q327.155 279.886 326.957 280.032Q326.76 280.178 326.556 280.315Q326.352 280.451 326.141 280.577Q325.931 280.704 325.714 280.819Q325.498 280.935 325.276 281.04Q325.054 281.145 324.827 281.239Q324.601 281.333 324.37 281.415Q324.138 281.498 323.904 281.569Q323.669 281.641 323.431 281.7Q323.192 281.76 322.952 281.808Q322.711 281.856 322.468 281.892Q322.225 281.928 321.981 281.952Q321.737 281.976 321.492 281.988Q321.246 282 321.001 282L290.999 282Q290.754 282 290.508 281.988Q290.263 281.976 290.019 281.952Q289.775 281.928 289.532 281.892Q289.289 281.856 289.048 281.808Q288.807 281.76 288.569 281.7Q288.331 281.641 288.096 281.569Q287.862 281.498 287.63 281.415Q287.399 281.333 287.173 281.239Q286.946 281.145 286.724 281.04Q286.502 280.935 286.285 280.819Q286.069 280.704 285.858 280.577Q285.648 280.451 285.444 280.315Q285.24 280.178 285.043 280.032Q284.845 279.886 284.656 279.73Q284.466 279.575 284.284 279.41Q284.102 279.245 283.929 279.071Q283.755 278.898 283.59 278.716Q283.425 278.534 283.27 278.344Q283.114 278.155 282.968 277.957Q282.821 277.76 282.685 277.556Q282.549 277.352 282.423 277.141Q282.296 276.931 282.181 276.714Q282.065 276.498 281.96 276.276Q281.855 276.054 281.761 275.827Q281.667 275.601 281.585 275.37Q281.502 275.138 281.431 274.904Q281.359 274.669 281.3 274.431Q281.24 274.192 281.192 273.952Q281.144 273.711 281.108 273.468Q281.072 273.225 281.048 272.981Q281.024 272.737 281.012 272.492Q281 272.246 281 272.001L281 241.999Q281 241.754 281.012 241.508Q281.024 241.263 281.048 241.019Q281.072 240.775 281.108 240.532Q281.144 240.289 281.192 240.048Q281.24 239.808 281.3 239.569Q281.359 239.331 281.431 239.096Q281.502 238.862 281.585 238.63Q281.667 238.399 281.761 238.173Q281.855 237.946 281.96 237.724Q282.065 237.502 282.181 237.285Q282.296 237.069 282.423 236.858Q282.549 236.648 282.685 236.444Q282.822 236.24 282.968 236.043Q283.114 235.845 283.27 235.656Q283.425 235.466 283.59 235.284Q283.755 235.102 283.929 234.929Q284.102 234.755 284.284 234.59Q284.466 234.425 284.656 234.27Q284.845 234.114 285.043 233.968Q285.24 233.821 285.444 233.685Q285.648 233.549 285.858 233.423Q286.069 233.296 286.285 233.181Q286.502 233.065 286.724 232.96Q286.946 232.855 287.173 232.761Q287.399 232.667 287.63 232.584Q287.862 232.502 288.096 232.431Q288.331 232.359 288.569 232.3Q288.807 232.24 289.048 232.192Q289.289 232.144 289.532 232.108Q289.775 232.072 290.019 232.048Q290.263 232.024 290.508 232.012Q290.754 232 290.999 232Z" stroke="none" /><path d="M390.999 232L421.001 232Q421.246 232 421.492 232.012Q421.737 232.024 421.981 232.048Q422.225 232.072 422.468 232.108Q422.711 232.144 422.952 232.192Q423.192 232.24 423.43 232.3Q423.669 232.359 423.904 232.431Q424.138 232.502 424.37 232.584Q424.601 232.667 424.827 232.761Q425.054 232.855 425.276 232.96Q425.498 233.065 425.714 233.181Q425.931 233.296 426.141 233.423Q426.352 233.549 426.556 233.685Q426.76 233.821 426.957 233.968Q427.155 234.114 427.344 234.27Q427.534 234.425 427.716 234.59Q427.898 234.755 428.071 234.929Q428.245 235.102 428.41 235.284Q428.575 235.466 428.73 235.656Q428.886 235.845 429.032 236.043Q429.178 236.24 429.315 236.444Q429.451 236.648 429.577 236.858Q429.704 237.069 429.819 237.285Q429.935 237.502 430.04 237.724Q430.145 237.946 430.239 238.173Q430.333 238.399 430.415 238.63Q430.498 238.862 430.569 239.096Q430.641 239.331 430.7 239.569Q430.76 239.808 430.808 240.048Q430.856 240.289 430.892 240.532Q430.928 240.775 430.952 241.019Q430.976 241.263 430.988 241.508Q431 241.754 431 241.999L431 272.001Q431 272.246 430.988 272.492Q430.976 272.737 430.952 272.981Q430.928 273.225 430.892 273.468Q430.856 273.711 430.808 273.952Q430.76 274.192 430.7 274.431Q430.641 274.669 430.569 274.904Q430.498 275.138 430.415 275.37Q430.333 275.601 430.239 275.827Q430.145 276.054 430.04 276.276Q429.935 276.498 429.819 276.715Q429.704 276.931 429.577 277.142Q429.451 277.352 429.315 277.556Q429.178 277.76 429.032 277.957Q428.886 278.155 428.73 278.344Q428.575 278.534 428.41 278.716Q428.245 278.898 428.071 279.071Q427.898 279.245 427.716 279.41Q427.534 279.575 427.344 279.73Q427.155 279.886 426.957 280.032Q426.76 280.178 426.556 280.315Q426.352 280.451 426.141 280.577Q425.931 280.704 425.714 280.819Q425.498 280.935 425.276 281.04Q425.054 281.145 424.827 281.239Q424.601 281.333 424.37 281.415Q424.138 281.498 423.904 281.569Q423.669 281.641 423.43 281.7Q423.192 281.76 422.952 281.808Q422.711 281.856 422.468 281.892Q422.225 281.928 421.981 281.952Q421.737 281.976 421.492 281.988Q421.246 282 421.001 282L390.999 282Q390.754 282 390.508 281.988Q390.263 281.976 390.019 281.952Q389.775 281.928 389.532 281.892Q389.289 281.856 389.048 281.808Q388.807 281.76 388.569 281.7Q388.331 281.641 388.096 281.569Q387.862 281.498 387.63 281.415Q387.399 281.333 387.172 281.239Q386.946 281.145 386.724 281.04Q386.502 280.935 386.285 280.819Q386.069 280.704 385.858 280.577Q385.648 280.451 385.444 280.315Q385.24 280.178 385.043 280.032Q384.845 279.886 384.656 279.73Q384.466 279.575 384.284 279.41Q384.102 279.245 383.929 279.071Q383.755 278.898 383.59 278.716Q383.425 278.534 383.27 278.344Q383.114 278.155 382.968 277.957Q382.822 277.76 382.685 277.556Q382.549 277.352 382.423 277.141Q382.296 276.931 382.181 276.714Q382.065 276.498 381.96 276.276Q381.855 276.054 381.761 275.827Q381.667 275.601 381.584 275.37Q381.502 275.138 381.431 274.904Q381.359 274.669 381.3 274.431Q381.24 274.192 381.192 273.952Q381.144 273.711 381.108 273.468Q381.072 273.225 381.048 272.981Q381.024 272.737 381.012 272.492Q381 272.246 381 272.001L381 241.999Q381 241.754 381.012 241.508Q381.024 241.263 381.048 241.019Q381.072 240.775 381.108 240.532Q381.144 240.289 381.192 240.048Q381.24 239.808 381.3 239.569Q381.359 239.331 381.431 239.096Q381.502 238.862 381.584 238.63Q381.667 238.399 381.761 238.173Q381.855 237.946 381.96 237.724Q382.065 237.502 382.181 237.285Q382.296 237.069 382.423 236.858Q382.549 236.648 382.685 236.444Q382.822 236.24 382.968 236.043Q383.114 235.845 383.27 235.656Q383.425 235.466 383.59 235.284Q383.755 235.102 383.929 234.929Q384.102 234.755 384.284 234.59Q384.466 234.425 384.656 234.27Q384.845 234.114 385.043 233.968Q385.24 233.821 385.444 233.685Q385.648 233.549 385.858 233.423Q386.069 233.296 386.285 233.181Q386.502 233.065 386.724 232.96Q386.946 232.855 387.172 232.761Q387.399 232.667 387.63 232.584Q387.862 232.502 388.096 232.431Q388.331 232.359 388.569 232.3Q388.808 232.24 389.048 232.192Q389.289 232.144 389.532 232.108Q389.775 232.072 390.019 232.048Q390.263 232.024 390.508 232.012Q390.754 232 390.999 232Z" stroke="none" /><path d="M90.999 160L121.001 160Q121.246 160 121.492 160.012Q121.737 160.024 121.981 160.048Q122.225 160.072 122.468 160.108Q122.711 160.144 122.952 160.192Q123.192 160.24 123.431 160.3Q123.669 160.359 123.904 160.431Q124.138 160.502 124.37 160.584Q124.601 160.667 124.827 160.761Q125.054 160.855 125.276 160.96Q125.498 161.065 125.714 161.181Q125.931 161.296 126.141 161.423Q126.352 161.549 126.556 161.685Q126.76 161.822 126.957 161.968Q127.155 162.114 127.344 162.27Q127.534 162.425 127.716 162.59Q127.898 162.755 128.071 162.929Q128.245 163.102 128.41 163.284Q128.575 163.466 128.73 163.656Q128.886 163.845 129.032 164.043Q129.178 164.24 129.315 164.444Q129.451 164.648 129.577 164.858Q129.704 165.069 129.819 165.286Q129.935 165.502 130.04 165.724Q130.145 165.946 130.239 166.173Q130.333 166.399 130.415 166.63Q130.498 166.862 130.569 167.096Q130.641 167.331 130.7 167.569Q130.76 167.808 130.808 168.048Q130.856 168.289 130.892 168.532Q130.928 168.775 130.952 169.019Q130.976 169.263 130.988 169.508Q131 169.754 131 169.999L131 200.001Q131 200.246 130.988 200.492Q130.976 200.737 130.952 200.981Q130.928 201.225 130.892 201.468Q130.856 201.711 130.808 201.952Q130.76 202.192 130.7 202.431Q130.641 202.669 130.569 202.904Q130.498 203.138 130.415 203.37Q130.333 203.601 130.239 203.827Q130.145 204.054 130.04 204.276Q129.935 204.498 129.819 204.714Q129.704 204.931 129.577 205.141Q129.451 205.352 129.315 205.556Q129.178 205.76 129.032 205.957Q128.886 206.155 128.73 206.344Q128.575 206.534 128.41 206.716Q128.245 206.898 128.071 207.071Q127.898 207.245 127.716 207.41Q127.534 207.575 127.344 207.73Q127.155 207.886 126.957 208.032Q126.76 208.178 126.556 208.315Q126.352 208.451 126.141 208.577Q125.931 208.704 125.714 208.819Q125.498 208.935 125.276 209.04Q125.054 209.145 124.827 209.239Q124.601 209.333 124.37 209.415Q124.138 209.498 123.904 209.569Q123.669 209.641 123.431 209.7Q123.192 209.76 122.952 209.808Q122.711 209.856 122.468 209.892Q122.225 209.928 121.981 209.952Q121.737 209.976 121.492 209.988Q121.246 210 121.001 210L90.999 210Q90.7535 210 90.5084 209.988Q90.2632 209.976 90.0189 209.952Q89.7747 209.928 89.5318 209.892Q89.289 209.856 89.0483 209.808Q88.8075 209.76 88.5694 209.7Q88.3313 209.641 88.0964 209.569Q87.8615 209.498 87.6304 209.416Q87.3993 209.333 87.1725 209.239Q86.9458 209.145 86.7239 209.04Q86.502 208.935 86.2855 208.819Q86.069 208.704 85.8585 208.577Q85.6479 208.451 85.4438 208.315Q85.2398 208.178 85.0426 208.032Q84.8454 207.886 84.6557 207.73Q84.466 207.575 84.2841 207.41Q84.1022 207.245 83.9286 207.071Q83.7551 206.898 83.5902 206.716Q83.4254 206.534 83.2697 206.344Q83.1139 206.155 82.9677 205.957Q82.8215 205.76 82.6851 205.556Q82.5488 205.352 82.4226 205.141Q82.2964 204.931 82.1807 204.714Q82.065 204.498 81.96 204.276Q81.855 204.054 81.7611 203.827Q81.6672 203.601 81.5845 203.37Q81.5018 203.138 81.4305 202.904Q81.3593 202.669 81.2996 202.431Q81.24 202.192 81.1921 201.952Q81.1442 201.711 81.1082 201.468Q81.0722 201.225 81.0481 200.981Q81.0241 200.737 81.012 200.492Q81 200.246 81 200.001L81 169.999Q81 169.754 81.012 169.508Q81.0241 169.263 81.0481 169.019Q81.0722 168.775 81.1082 168.532Q81.1442 168.289 81.1921 168.048Q81.24 167.808 81.2996 167.569Q81.3593 167.331 81.4305 167.096Q81.5018 166.862 81.5845 166.63Q81.6672 166.399 81.7611 166.173Q81.855 165.946 81.96 165.724Q82.065 165.502 82.1807 165.286Q82.2964 165.069 82.4226 164.858Q82.5488 164.648 82.6851 164.444Q82.8215 164.24 82.9677 164.043Q83.1139 163.845 83.2697 163.656Q83.4254 163.466 83.5902 163.284Q83.7551 163.102 83.9286 162.929Q84.1022 162.755 84.2841 162.59Q84.466 162.425 84.6557 162.27Q84.8454 162.114 85.0426 161.968Q85.2398 161.822 85.4438 161.685Q85.6479 161.549 85.8585 161.423Q86.069 161.296 86.2855 161.181Q86.502 161.065 86.7239 160.96Q86.9458 160.855 87.1725 160.761Q87.3993 160.667 87.6304 160.584Q87.8615 160.502 88.0964 160.431Q88.3313 160.359 88.5694 160.3Q88.8075 160.24 89.0483 160.192Q89.289 160.144 89.5318 160.108Q89.7747 160.072 90.0189 160.048Q90.2632 160.024 90.5084 160.012Q90.7535 160 90.999 160Z" stroke="none" /><path d="M190.999 160L221.001 160Q221.246 160 221.492 160.012Q221.737 160.024 221.981 160.048Q222.225 160.072 222.468 160.108Q222.711 160.144 222.952 160.192Q223.192 160.24 223.431 160.3Q223.669 160.359 223.904 160.431Q224.138 160.502 224.37 160.584Q224.601 160.667 224.827 160.761Q225.054 160.855 225.276 160.96Q225.498 161.065 225.714 161.181Q225.931 161.296 226.141 161.423Q226.352 161.549 226.556 161.685Q226.76 161.822 226.957 161.968Q227.155 162.114 227.344 162.27Q227.534 162.425 227.716 162.59Q227.898 162.755 228.071 162.929Q228.245 163.102 228.41 163.284Q228.575 163.466 228.73 163.656Q228.886 163.845 229.032 164.043Q229.178 164.24 229.315 164.444Q229.451 164.648 229.577 164.858Q229.704 165.069 229.819 165.286Q229.935 165.502 230.04 165.724Q230.145 165.946 230.239 166.173Q230.333 166.399 230.415 166.63Q230.498 166.862 230.569 167.096Q230.641 167.331 230.7 167.569Q230.76 167.808 230.808 168.048Q230.856 168.289 230.892 168.532Q230.928 168.775 230.952 169.019Q230.976 169.263 230.988 169.508Q231 169.754 231 169.999L231 200.001Q231 200.246 230.988 200.492Q230.976 200.737 230.952 200.981Q230.928 201.225 230.892 201.468Q230.856 201.711 230.808 201.952Q230.76 202.192 230.7 202.431Q230.641 202.669 230.569 202.904Q230.498 203.138 230.415 203.37Q230.333 203.601 230.239 203.827Q230.145 204.054 230.04 204.276Q229.935 204.498 229.819 204.714Q229.704 204.931 229.577 205.141Q229.451 205.352 229.315 205.556Q229.178 205.76 229.032 205.957Q228.886 206.155 228.73 206.344Q228.575 206.534 228.41 206.716Q228.245 206.898 228.071 207.071Q227.898 207.245 227.716 207.41Q227.534 207.575 227.344 207.73Q227.155 207.886 226.957 208.032Q226.76 208.178 226.556 208.315Q226.352 208.451 226.141 208.577Q225.931 208.704 225.714 208.819Q225.498 208.935 225.276 209.04Q225.054 209.145 224.827 209.239Q224.601 209.333 224.37 209.415Q224.138 209.498 223.904 209.569Q223.669 209.641 223.431 209.7Q223.192 209.76 222.952 209.808Q222.711 209.856 222.468 209.892Q222.225 209.928 221.981 209.952Q221.737 209.976 221.492 209.988Q221.246 210 221.001 210L190.999 210Q190.754 210 190.508 209.988Q190.263 209.976 190.019 209.952Q189.775 209.928 189.532 209.892Q189.289 209.856 189.048 209.808Q188.808 209.76 188.569 209.7Q188.331 209.641 188.096 209.569Q187.862 209.498 187.63 209.416Q187.399 209.333 187.173 209.239Q186.946 209.145 186.724 209.04Q186.502 208.935 186.285 208.819Q186.069 208.704 185.858 208.577Q185.648 208.451 185.444 208.315Q185.24 208.178 185.043 208.032Q184.845 207.886 184.656 207.73Q184.466 207.575 184.284 207.41Q184.102 207.245 183.929 207.071Q183.755 206.898 183.59 206.716Q183.425 206.534 183.27 206.344Q183.114 206.155 182.968 205.957Q182.821 205.76 182.685 205.556Q182.549 205.352 182.423 205.141Q182.296 204.931 182.181 204.714Q182.065 204.498 181.96 204.276Q181.855 204.054 181.761 203.827Q181.667 203.601 181.584 203.37Q181.502 203.138 181.431 202.904Q181.359 202.669 181.3 202.431Q181.24 202.192 181.192 201.952Q181.144 201.711 181.108 201.468Q181.072 201.225 181.048 200.981Q181.024 200.737 181.012 200.492Q181 200.246 181 200.001L181 169.999Q181 169.754 181.012 169.508Q181.024 169.263 181.048 169.019Q181.072 168.775 181.108 168.532Q181.144 168.289 181.192 168.048Q181.24 167.808 181.3 167.569Q181.359 167.331 181.431 167.096Q181.502 166.862 181.584 166.63Q181.667 166.399 181.761 166.173Q181.855 165.946 181.96 165.724Q182.065 165.502 182.181 165.286Q182.296 165.069 182.423 164.858Q182.549 164.648 182.685 164.444Q182.822 164.24 182.968 164.043Q183.114 163.845 183.27 163.656Q183.425 163.466 183.59 163.284Q183.755 163.102 183.929 162.929Q184.102 162.755 184.284 162.59Q184.466 162.425 184.656 162.27Q184.845 162.114 185.043 161.968Q185.24 161.822 185.444 161.685Q185.648 161.549 185.858 161.423Q186.069 161.296 186.285 161.181Q186.502 161.065 186.724 160.96Q186.946 160.855 187.173 160.761Q187.399 160.667 187.63 160.584Q187.862 160.502 188.096 160.431Q188.331 160.359 188.569 160.3Q188.808 160.24 189.048 160.192Q189.289 160.144 189.532 160.108Q189.775 160.072 190.019 160.048Q190.263 160.024 190.508 160.012Q190.754 160 190.999 160Z" stroke="none" /><path d="M290.999 160L321.001 160Q321.246 160 321.492 160.012Q321.737 160.024 321.981 160.048Q322.225 160.072 322.468 160.108Q322.711 160.144 322.952 160.192Q323.192 160.24 323.431 160.3Q323.669 160.359 323.904 160.431Q324.138 160.502 324.37 160.584Q324.601 160.667 324.827 160.761Q325.054 160.855 325.276 160.96Q325.498 161.065 325.714 161.181Q325.931 161.296 326.141 161.423Q326.352 161.549 326.556 161.685Q326.76 161.822 326.957 161.968Q327.155 162.114 327.344 162.27Q327.534 162.425 327.716 162.59Q327.898 162.755 328.071 162.929Q328.245 163.102 328.41 163.284Q328.575 163.466 328.73 163.656Q328.886 163.845 329.032 164.043Q329.178 164.24 329.315 164.444Q329.451 164.648 329.577 164.858Q329.704 165.069 329.819 165.286Q329.935 165.502 330.04 165.724Q330.145 165.946 330.239 166.173Q330.333 166.399 330.415 166.63Q330.498 166.862 330.569 167.096Q330.641 167.331 330.7 167.569Q330.76 167.808 330.808 168.048Q330.856 168.289 330.892 168.532Q330.928 168.775 330.952 169.019Q330.976 169.263 330.988 169.508Q331 169.754 331 169.999L331 200.001Q331 200.246 330.988 200.492Q330.976 200.737 330.952 200.981Q330.928 201.225 330.892 201.468Q330.856 201.711 330.808 201.952Q330.76 202.192 330.7 202.431Q330.641 202.669 330.569 202.904Q330.498 203.138 330.415 203.37Q330.333 203.601 330.239 203.827Q330.145 204.054 330.04 204.276Q329.935 204.498 329.819 204.714Q329.704 204.931 329.577 205.141Q329.451 205.352 329.315 205.556Q329.178 205.76 329.032 205.957Q328.886 206.155 328.73 206.344Q328.575 206.534 328.41 206.716Q328.245 206.898 328.071 207.071Q327.898 207.245 327.716 207.41Q327.534 207.575 327.344 207.73Q327.155 207.886 326.957 208.032Q326.76 208.178 326.556 208.315Q326.352 208.451 326.141 208.577Q325.931 208.704 325.714 208.819Q325.498 208.935 325.276 209.04Q325.054 209.145 324.827 209.239Q324.601 209.333 324.37 209.415Q324.138 209.498 323.904 209.569Q323.669 209.641 323.431 209.7Q323.192 209.76 322.952 209.808Q322.711 209.856 322.468 209.892Q322.225 209.928 321.981 209.952Q321.737 209.976 321.492 209.988Q321.246 210 321.001 210L290.999 210Q290.754 210 290.508 209.988Q290.263 209.976 290.019 209.952Q289.775 209.928 289.532 209.892Q289.289 209.856 289.048 209.808Q288.807 209.76 288.569 209.7Q288.331 209.641 288.096 209.569Q287.862 209.498 287.63 209.416Q287.399 209.333 287.173 209.239Q286.946 209.145 286.724 209.04Q286.502 208.935 286.285 208.819Q286.069 208.704 285.858 208.577Q285.648 208.451 285.444 208.315Q285.24 208.178 285.043 208.032Q284.845 207.886 284.656 207.73Q284.466 207.575 284.284 207.41Q284.102 207.245 283.929 207.071Q283.755 206.898 283.59 206.716Q283.425 206.534 283.27 206.344Q283.114 206.155 282.968 205.957Q282.821 205.76 282.685 205.556Q282.549 205.352 282.423 205.141Q282.296 204.931 282.181 204.714Q282.065 204.498 281.96 204.276Q281.855 204.054 281.761 203.827Q281.667 203.601 281.585 203.37Q281.502 203.138 281.431 202.904Q281.359 202.669 281.3 202.431Q281.24 202.192 281.192 201.952Q281.144 201.711 281.108 201.468Q281.072 201.225 281.048 200.981Q281.024 200.737 281.012 200.492Q281 200.246 281 200.001L281 169.999Q281 169.754 281.012 169.508Q281.024 169.263 281.048 169.019Q281.072 168.775 281.108 168.532Q281.144 168.289 281.192 168.048Q281.24 167.808 281.3 167.569Q281.359 167.331 281.431 167.096Q281.502 166.862 281.585 166.63Q281.667 166.399 281.761 166.173Q281.855 165.946 281.96 165.724Q282.065 165.502 282.181 165.286Q282.296 165.069 282.423 164.858Q282.549 164.648 282.685 164.444Q282.822 164.24 282.968 164.043Q283.114 163.845 283.27 163.656Q283.425 163.466 283.59 163.284Q283.755 163.102 283.929 162.929Q284.102 162.755 284.284 162.59Q284.466 162.425 284.656 162.27Q284.845 162.114 285.043 161.968Q285.24 161.822 285.444 161.685Q285.648 161.549 285.858 161.423Q286.069 161.296 286.285 161.181Q286.502 161.065 286.724 160.96Q286.946 160.855 287.173 160.761Q287.399 160.667 287.63 160.584Q287.862 160.502 288.096 160.431Q288.331 160.359 288.569 160.3Q288.807 160.24 289.048 160.192Q289.289 160.144 289.532 160.108Q289.775 160.072 290.019 160.048Q290.263 160.024 290.508 160.012Q290.754 160 290.999 160Z" stroke="none" /><path d="M390.999 160L421.001 160Q421.246 160 421.492 160.012Q421.737 160.024 421.981 160.048Q422.225 160.072 422.468 160.108Q422.711 160.144 422.952 160.192Q423.192 160.24 423.43 160.3Q423.669 160.359 423.904 160.431Q424.138 160.502 424.37 160.584Q424.601 160.667 424.827 160.761Q425.054 160.855 425.276 160.96Q425.498 161.065 425.714 161.181Q425.931 161.296 426.141 161.423Q426.352 161.549 426.556 161.685Q426.76 161.822 426.957 161.968Q427.155 162.114 427.344 162.27Q427.534 162.425 427.716 162.59Q427.898 162.755 428.071 162.929Q428.245 163.102 428.41 163.284Q428.575 163.466 428.73 163.656Q428.886 163.845 429.032 164.043Q429.178 164.24 429.315 164.444Q429.451 164.648 429.577 164.858Q429.704 165.069 429.819 165.286Q429.935 165.502 430.04 165.724Q430.145 165.946 430.239 166.173Q430.333 166.399 430.415 166.63Q430.498 166.862 430.569 167.096Q430.641 167.331 430.7 167.569Q430.76 167.808 430.808 168.048Q430.856 168.289 430.892 168.532Q430.928 168.775 430.952 169.019Q430.976 169.263 430.988 169.508Q431 169.754 431 169.999L431 200.001Q431 200.246 430.988 200.492Q430.976 200.737 430.952 200.981Q430.928 201.225 430.892 201.468Q430.856 201.711 430.808 201.952Q430.76 202.192 430.7 202.431Q430.641 202.669 430.569 202.904Q430.498 203.138 430.415 203.37Q430.333 203.601 430.239 203.827Q430.145 204.054 430.04 204.276Q429.935 204.498 429.819 204.714Q429.704 204.931 429.577 205.141Q429.451 205.352 429.315 205.556Q429.178 205.76 429.032 205.957Q428.886 206.155 428.73 206.344Q428.575 206.534 428.41 206.716Q428.245 206.898 428.071 207.071Q427.898 207.245 427.716 207.41Q427.534 207.575 427.344 207.73Q427.155 207.886 426.957 208.032Q426.76 208.178 426.556 208.315Q426.352 208.451 426.141 208.577Q425.931 208.704 425.714 208.819Q425.498 208.935 425.276 209.04Q425.054 209.145 424.827 209.239Q424.601 209.333 424.37 209.415Q424.138 209.498 423.904 209.569Q423.669 209.641 423.43 209.7Q423.192 209.76 422.952 209.808Q422.711 209.856 422.468 209.892Q422.225 209.928 421.981 209.952Q421.737 209.976 421.492 209.988Q421.246 210 421.001 210L390.999 210Q390.754 210 390.508 209.988Q390.263 209.976 390.019 209.952Q389.775 209.928 389.532 209.892Q389.289 209.856 389.048 209.808Q388.807 209.76 388.569 209.7Q388.331 209.641 388.096 209.569Q387.862 209.498 387.63 209.416Q387.399 209.333 387.172 209.239Q386.946 209.145 386.724 209.04Q386.502 208.935 386.285 208.819Q386.069 208.704 385.858 208.577Q385.648 208.451 385.444 208.315Q385.24 208.178 385.043 208.032Q384.845 207.886 384.656 207.73Q384.466 207.575 384.284 207.41Q384.102 207.245 383.929 207.071Q383.755 206.898 383.59 206.716Q383.425 206.534 383.27 206.344Q383.114 206.155 382.968 205.957Q382.822 205.76 382.685 205.556Q382.549 205.352 382.423 205.141Q382.296 204.931 382.181 204.714Q382.065 204.498 381.96 204.276Q381.855 204.054 381.761 203.827Q381.667 203.601 381.584 203.37Q381.502 203.138 381.431 202.904Q381.359 202.669 381.3 202.431Q381.24 202.192 381.192 201.952Q381.144 201.711 381.108 201.468Q381.072 201.225 381.048 200.981Q381.024 200.737 381.012 200.492Q381 200.246 381 200.001L381 169.999Q381 169.754 381.012 169.508Q381.024 169.263 381.048 169.019Q381.072 168.775 381.108 168.532Q381.144 168.289 381.192 168.048Q381.24 167.808 381.3 167.569Q381.359 167.331 381.431 167.096Q381.502 166.862 381.584 166.63Q381.667 166.399 381.761 166.173Q381.855 165.946 381.96 165.724Q382.065 165.502 382.181 165.286Q382.296 165.069 382.423 164.858Q382.549 164.648 382.685 164.444Q382.822 164.24 382.968 164.043Q383.114 163.845 383.27 163.656Q383.425 163.466 383.59 163.284Q383.755 163.102 383.929 162.929Q384.102 162.755 384.284 162.59Q384.466 162.425 384.656 162.27Q384.845 162.114 385.043 161.968Q385.24 161.822 385.444 161.685Q385.648 161.549 385.858 161.423Q386.069 161.296 386.285 161.181Q386.502 161.065 386.724 160.96Q386.946 160.855 387.172 160.761Q387.399 160.667 387.63 160.584Q387.862 160.502 388.096 160.431Q388.331 160.359 388.569 160.3Q388.808 160.24 389.048 160.192Q389.289 160.144 389.532 160.108Q389.775 160.072 390.019 160.048Q390.263 160.024 390.508 160.012Q390.754 160 390.999 160Z" stroke="none" /></svg>
