<svg width="512.0001px" height="512.0001px" viewBox="0 0 512.0001 512.0001" version="1.1" xmlns="http://www.w3.org/2000/svg"><path d="M503 108L11 108L11 404L503 404L503 108L503 108ZM39 376L39 136L475 136L475 376L39 376L39 376Z" id="Vektor" stroke="none" /><path d="M106 315L406 315L406 355L106 355L106 315Z" stroke="none" /><path d="M81 232L131 232L131 282L81 282L81 232Z" stroke="none" /><path d="M181 232L231 232L231 282L181 282L181 232Z" stroke="none" /><path d="M281 232L331 232L331 282L281 282L281 232Z" stroke="none" /><path d="M381 232L431 232L431 282L381 282L381 232Z" stroke="none" /><path d="M81 160L131 160L131 210L81 210L81 160Z" stroke="none" /><path d="M181 160L231 160L231 210L181 210L181 160Z" stroke="none" /><path d="M281 160L331 160L331 210L281 210L281 160Z" stroke="none" /><path d="M381 160L431 160L431 210L381 210L381 160Z" stroke="none" /></svg>
