<?xml version="1.0" encoding="utf-8"?>
<!-- Generator: Adobe Illustrator 19.2.0, SVG Export Plug-In . SVG Version: 6.00 Build 0)  -->
<svg version="1.1" id="Layer_1" xmlns="http://www.w3.org/2000/svg" xmlns:xlink="http://www.w3.org/1999/xlink" x="0px" y="0px"
	 viewBox="0 0 512 512" style="enable-background:new 0 0 512 512;" xml:space="preserve">
<g>
	<g>
		<path d="M313.8,303.9L469,32H365L209.4,303.8c-0.4,0.7-0.4,1.1,0,1.7l98.9,173.8c0.4,0.7,0.8,0.7,1.6,0.7H413l-99.3-174.7
			C313.5,305,313.6,304.3,313.8,303.9z"/>
		<path d="M221.9,216.2L163,113c-0.5-0.8-1-1-2-1H65l58.9,104.4c0.1,0.2,0.2,0.6,0.1,0.8L43,352h96.8c0.8,0,1.2-0.2,1.6-0.9
			l80.5-133.7C222,217.1,222,216.5,221.9,216.2z"/>
	</g>
</g>
</svg>
