<svg xmlns="http://www.w3.org/2000/svg" viewBox="0 0 512 512"><path id="path80319" d="M380.91,199l42.47-73.57a8.63,8.63,0,0,0-3.12-11.76,8.52,8.52,0,0,0-11.71,3.12l-43,74.52c-32.83-15-69.78-23.35-109.52-23.35s-76.69,8.36-109.52,23.35l-43-74.52a8.6,8.6,0,1,0-14.88,8.64L131,199C57.8,238.64,8.19,312.77,0,399.55H512C503.81,312.77,454.2,238.64,380.91,199ZM138.45,327.65a21.46,21.46,0,1,1,21.46-21.46A21.47,21.47,0,0,1,138.45,327.65Zm235,0A21.46,21.46,0,1,1,395,306.19,21.47,21.47,0,0,1,373.49,327.65Z"/></svg>