<?xml version="1.0" encoding="utf-8"?>
<!-- Generator: Adobe Illustrator 19.2.0, SVG Export Plug-In . SVG Version: 6.00 Build 0)  -->
<svg version="1.1" id="Layer_1" xmlns="http://www.w3.org/2000/svg" xmlns:xlink="http://www.w3.org/1999/xlink" x="0px" y="0px"
	 viewBox="0 0 512 512" style="enable-background:new 0 0 512 512;" xml:space="preserve">
<g>
	<path d="M352,64H160c-52.8,0-96,43.2-96,96v192c0,52.8,43.2,96,96,96h192c52.8,0,96-43.2,96-96V160C448,107.2,404.8,64,352,64z
		 M184,304c-26.5,0-48-21.5-48-48s21.5-48,48-48s48,21.5,48,48S210.5,304,184,304z M328,304c-26.5,0-48-21.5-48-48s21.5-48,48-48
		s48,21.5,48,48S354.5,304,328,304z"/>
</g>
</svg>
