<?xml version="1.0" encoding="utf-8"?>
<!-- Generator: Adobe Illustrator 22.0.1, SVG Export Plug-In . SVG Version: 6.00 Build 0)  -->
<svg version="1.1" id="Layer_1" xmlns="http://www.w3.org/2000/svg" xmlns:xlink="http://www.w3.org/1999/xlink" x="0px" y="0px"
	 viewBox="0 0 512 512" style="enable-background:new 0 0 512 512;" xml:space="preserve">
<path d="M452.9,64.2c-0.7-0.1-1.5-0.2-2.2-0.2H61.5c-7.4-0.1-13.4,5.9-13.5,13.5c0,0.8,0,1.6,0.2,2.4l56.6,352.5
	c0.7,4.3,2.9,8.2,6.1,11.1l0,0c3.2,2.9,7.4,4.5,11.7,4.5H394c6.6,0.1,12.3-4.8,13.3-11.5L441,224H316l-16,96h-88l-22.3-126.9h256.2
	l18-113.1C465,72.5,460.1,65.4,452.9,64.2z"/>
</svg>
