<?xml version="1.0" encoding="utf-8"?>
<!-- Generator: Adobe Illustrator 24.1.0, SVG Export Plug-In . SVG Version: 6.00 Build 0)  -->
<svg version="1.1" id="Layer_1" xmlns="http://www.w3.org/2000/svg" xmlns:xlink="http://www.w3.org/1999/xlink" x="0px" y="0px"
	 viewBox="0 0 512 512" style="enable-background:new 0 0 512 512;" xml:space="preserve">
<g>
	<path style="fill:#010101;" d="M424.81,148.79c-0.43,2.76-0.93,5.58-1.49,8.48c-19.17,97.96-84.76,131.8-168.54,131.8h-42.65
		c-10.24,0-18.88,7.4-20.47,17.46l-21.84,137.84l-6.18,39.07c-0.94,5.92,3.12,11.49,9.07,12.42c0.56,0.09,1.13,0.13,1.7,0.13h75.65
		c8.96,0,16.57-6.48,17.98-15.27l0.74-3.83l14.24-89.96l0.91-4.94c1.39-8.82,9.02-15.3,17.98-15.3h11.31
		c73.3,0,130.67-29.62,147.44-115.32c7.01-35.8,3.38-65.69-15.16-86.72C439.64,158.17,432.63,152.79,424.81,148.79z"/>
	<path style="fill:#010101;" d="M385.52,51.09C363.84,26.52,324.71,16,274.63,16H129.25c-10.23,0-18.96,7.4-20.54,17.48
		L48.16,415.47c-1.08,6.78,3.57,13.15,10.39,14.22c0.64,0.1,1.29,0.15,1.94,0.15h89.76l22.54-142.29l-0.7,4.46
		c1.56-10.05,10.26-17.47,20.47-17.46h42.65c83.77,0,149.36-33.86,168.54-131.8c0.57-2.9,1.05-5.72,1.49-8.48h0.02
		C410.94,98.06,405.19,73.41,385.52,51.09z"/>
</g>
</svg>
