<?xml version="1.0" encoding="utf-8"?>
<!-- Generator: Adobe Illustrator 22.0.1, SVG Export Plug-In . SVG Version: 6.00 Build 0)  -->
<svg version="1.1" id="Layer_1" xmlns="http://www.w3.org/2000/svg" xmlns:xlink="http://www.w3.org/1999/xlink" x="0px" y="0px"
	 viewBox="0 0 512 512" style="enable-background:new 0 0 512 512;" xml:space="preserve">
<path d="M443.6,208.4c-3.1-1.9-2.2-6.6,1.3-7.3l5.3-1.1h0c7.1,0,22.4-2.3,25.6-5.4c3.1-3.2,4.2-5.4,4.2-8.2s-1.7-7.7-4.8-11.1
	c-3-3.4-16-5.2-23.7-6.2s-8.7,0-10.7,1.2c-2,1.3-2.8,9.5-3.1,15c-0.1,1.2-0.9,2.2-2.1,2.5l-0.4,0.1c-3.3,0.7-6.6-1.1-7.8-4.3
	c-4.6-13-10.7-32.5-19.4-48.4c-11.5-20.8-23.5-27.4-28.5-29c-4.9-1.5-9.4-2.6-43-6.1C302.7,96.5,273.4,96,256,96s-46.7,0.5-80.6,4.1
	c-33.6,3.4-38.1,4.5-43,6.1c-5,1.6-17,8.2-28.5,29c-9.4,17.1-15.7,38.3-20.4,51.3c-0.6,1.5-2.2,2.4-3.8,2.1
	c-3.1-0.7-5.4-3.3-5.6-6.5c-0.4-5-1.2-10.7-2.9-11.7c-2-1.3-3-2.2-10.7-1.2s-20.6,2.8-23.7,6.2c-3,3.4-4.7,8.3-4.7,11.1
	s1.1,5.1,4.2,8.3c3.1,3.2,18.5,5.4,25.6,5.4l0,0l5.3,1.1c3.5,0.7,4.4,5.4,1.3,7.3c-9.1,5.7-23.2,15.3-32.3,25.6
	c0,0-4.1,28.7-4.1,62.1c0,48,5.8,92.4,5.8,92.4c1.8,0.3,3.6,0.6,5.3,0.9c0,1.2,0.7,13.1,2,21.2c0.3,2,1.3,5.5,6.2,5.5
	c3.5,0,64.7,0,64.7,0c1.9,0,5.1-1.6,5.1-3.7l1-17c7.2,0.1,3.2,0.1,10.9,0c24.8-0.3,15.6-7.5,27.1-7.3c11.3,0.2,55,3,96,3
	c41,0,84.7-2.8,96-3c11.5-0.2,2.3,7.1,27.1,7.3c7.7,0.1,4.7,0.1,11.9,0l1,17c0,2.1,3.2,3.7,5.1,3.7c0,0,60,0,63.5,0
	c4.9,0,5.9-3.5,6.2-5.5c1.3-8.1,1.9-19.9,2-21.2c1.8-0.3,3.6-0.6,5.4-0.9c0,0,5.8-44.3,5.8-92.4c0-33.5-4.1-62.1-4.1-62.1
	C466.8,223.7,452.7,214.1,443.6,208.4z M123.4,154.8c2.2-5.1,5.9-11.6,10-17.2c5-6.7,12.4-11.2,20.6-12.5
	c16.7-2.7,52.6-7.3,101.9-7.3c49.3,0,85.2,4.6,101.9,7.3c8.2,1.3,15.6,5.8,20.6,12.5c4.2,5.6,7.9,12.1,10.1,17.2
	c3.9,9.2,10.4,30.7,9.4,33.2c-1,2.5,1,3.7-12.2,2.6c-13.1-1-90.6-2.1-129.7-2.1c-39.2,0-116.7,1.1-129.7,2.1
	c-13.2,1.1-11.3-0.2-12.2-2.6S119.5,164,123.4,154.8z M131.8,270.8c-9.9,0-29.8-1-34.5-1.2c-4.7-0.1-8.8,3.8-11.2,3.8
	s-25.5-3.6-28-14.9c-1.7-7.5-1.1-15.2-0.6-19.5c0.3-1.9,1.9-3.4,3.8-3.5c14.4-0.5,29.2,0.5,55.3,7.9c17.3,4.9,29.8,12.6,36.9,17.8
	c2.8,2.1,1.8,6.5-1.7,7.2C145.7,269.5,137.4,270.8,131.8,270.8z M342.2,343.8c-12.7,1.7-58.5,2.2-86.2,2.2s-73.5-0.5-86.2-2.2
	c-13.1-1.7-29.8-17.3-18.4-30.2c7.6-8.5,20.8-13.6,48.9-17.3c29.8-3.8,48.6-4.3,55.6-4.3c7,0,25.8,0.5,55.6,4.3
	c28.1,3.7,43.2,9.6,48.9,17.3C370.8,327.4,355.3,342,342.2,343.8z M453.9,258.6c-2.5,11.2-25.6,14.9-28,14.9s-6.5-3.9-11.2-3.8
	c-4.7,0.2-24.6,1.2-34.5,1.2c-5.5,0-13.8-1.3-20-2.4c-3.5-0.6-4.5-5.1-1.7-7.2c7.1-5.2,19.6-12.9,36.9-17.8
	c26.1-7.4,40.8-8.4,55.3-7.9c2,0.1,3.6,1.5,3.8,3.5C455,243.4,455.6,251.1,453.9,258.6z"/>
</svg>
