<?xml version="1.0" encoding="utf-8"?>
<!-- Generator: Adobe Illustrator 24.1.0, SVG Export Plug-In . SVG Version: 6.00 Build 0)  -->
<svg version="1.1" id="Layer_1" xmlns="http://www.w3.org/2000/svg" xmlns:xlink="http://www.w3.org/1999/xlink" x="0px" y="0px"
	 viewBox="0 0 512 512" style="enable-background:new 0 0 512 512;" xml:space="preserve">
<g>
	<path style="fill:#010101;" d="M507.01,211.16c-1.42-1.19-14.25-10.94-41.79-10.94c-7.12,0-14.49,0.71-21.61,1.9
		c-5.22-36.4-35.38-54-36.57-54.95l-7.36-4.28l-4.75,6.9c-5.94,9.28-10.45,19.74-13.06,30.45c-4.99,20.7-1.9,40.2,8.55,56.85
		c-12.59,7.14-33.01,8.8-37.28,9.04H15.94c-8.79,0-15.91,7.14-15.91,15.94c-0.47,29.5,4.51,58.99,14.72,86.83
		c11.64,30.45,28.97,53.05,51.29,66.84C91.22,431.2,132.3,440,178.6,440c20.9,0,41.79-1.9,62.45-5.71
		c28.73-5.23,56.28-15.22,81.69-29.73c20.9-12.13,39.66-27.59,55.57-45.67c26.83-30.21,42.74-63.99,54.38-93.96
		c1.66,0,3.09,0,4.75,0c29.21,0,47.26-11.66,57.23-21.65c6.65-6.18,11.64-13.8,15.2-22.36l2.14-6.18L507.01,211.16z"/>
	<path style="fill:#010101;" d="M47.29,236.37H92.4c2.14,0,4.04-1.67,4.04-4.04l0,0v-40.44c0-2.14-1.66-4.04-4.04-4.04l0,0H47.29
		c-2.14,0-4.04,1.67-4.04,4.04l0,0v40.44C43.49,234.71,45.15,236.37,47.29,236.37L47.29,236.37"/>
	<path style="fill:#010101;" d="M109.5,236.37h45.12c2.14,0,4.04-1.67,4.04-4.04l0,0v-40.44c0-2.14-1.66-4.04-4.04-4.04l0,0H109.5
		c-2.14,0-4.04,1.67-4.04,4.04v40.44C105.7,234.71,107.36,236.37,109.5,236.37"/>
	<path style="fill:#010101;" d="M172.9,236.37h45.12c2.14,0,4.04-1.67,4.04-4.04l0,0v-40.44c0-2.14-1.66-4.04-4.04-4.04l0,0H172.9
		c-2.14,0-4.04,1.67-4.04,4.04l0,0v40.44C168.87,234.71,170.53,236.37,172.9,236.37L172.9,236.37"/>
	<path style="fill:#010101;" d="M235.36,236.37h45.12c2.14,0,4.04-1.67,4.04-4.04v-40.44c0-2.14-1.66-4.04-4.04-4.04l0,0h-45.12
		c-2.14,0-4.04,1.67-4.04,4.04l0,0v40.44C231.32,234.71,233.22,236.37,235.36,236.37L235.36,236.37"/>
	<path style="fill:#010101;" d="M109.5,178.57h45.12c2.14,0,4.04-1.9,4.04-4.04v-40.44c0-2.14-1.66-4.04-4.04-4.04l0,0H109.5
		c-2.14,0-4.04,1.67-4.04,4.04v40.44C105.7,176.67,107.36,178.57,109.5,178.57"/>
	<path style="fill:#010101;" d="M172.9,178.57h45.12c2.14,0,4.04-1.9,4.04-4.04v-40.44c0-2.14-1.66-4.04-4.04-4.04l0,0H172.9
		c-2.14,0-4.04,1.67-4.04,4.04l0,0v40.44C168.87,176.67,170.53,178.57,172.9,178.57"/>
	<path style="fill:#010101;" d="M235.36,178.57h45.12c2.14,0,4.04-1.9,4.04-4.04v-40.44c0-2.14-1.9-4.04-4.04-4.04h-45.12
		c-2.14,0-4.04,1.67-4.04,4.04l0,0v40.44C231.32,176.67,233.22,178.57,235.36,178.57"/>
	<path style="fill:#010101;" d="M235.36,120.53h45.12c2.14,0,4.04-1.67,4.04-4.04V76.04c0-2.14-1.9-4.04-4.04-4.04h-45.12
		c-2.14,0-4.04,1.67-4.04,4.04l0,0v40.44C231.32,118.62,233.22,120.53,235.36,120.53"/>
	<path style="fill:#010101;" d="M298.28,236.37h45.12c2.14,0,4.04-1.67,4.04-4.04v-40.44c0-2.14-1.66-4.04-4.04-4.04l0,0h-45.12
		c-2.14,0-4.04,1.67-4.04,4.04l0,0v40.44C294.48,234.71,296.15,236.37,298.28,236.37"/>
</g>
</svg>
