<?xml version="1.0" encoding="utf-8"?>
<!-- Generator: Adobe Illustrator 24.1.0, SVG Export Plug-In . SVG Version: 6.00 Build 0)  -->
<svg version="1.1" id="Layer_1" xmlns="http://www.w3.org/2000/svg" xmlns:xlink="http://www.w3.org/1999/xlink" x="0px" y="0px"
	 viewBox="0 0 512 512" style="enable-background:new 0 0 512 512;" xml:space="preserve">
<path style="fill:#010101;" d="M444.17,32H70.28C49.85,32,32,46.7,32,66.89v374.71C32,461.91,49.85,480,70.28,480h373.78
	c20.54,0,35.94-18.2,35.94-38.39V66.89C480.12,46.7,464.6,32,444.17,32z M277.96,387H174.32l-41.57-248.56l90.75-8.62l21.98,176.87
	c20.53-33.45,45.88-86.03,45.88-121.87c0-19.62-3.36-32.98-8.61-43.99l82.65-16.73c9.56,15.78,13.86,32.04,13.86,52.57
	C379.25,242.17,323.34,327.26,277.96,387z"/>
</svg>
