<?xml version="1.0" encoding="utf-8"?>
<!-- Generator: Adobe Illustrator 21.1.0, SVG Export Plug-In . SVG Version: 6.00 Build 0)  -->
<svg version="1.1" id="Layer_1" xmlns="http://www.w3.org/2000/svg" xmlns:xlink="http://www.w3.org/1999/xlink" x="0px" y="0px"
	 viewBox="0 0 512 512" style="enable-background:new 0 0 512 512;" xml:space="preserve">
<g id="Layer_2">
	<g>
		<rect x="222.2" y="223.8" transform="matrix(0.9482 -0.3176 0.3176 0.9482 -68.1694 94.5795)" width="67.5" height="65.2"/>
		<g>
			<rect x="222.2" y="223.8" transform="matrix(0.9482 -0.3176 0.3176 0.9482 -68.1694 94.5795)" width="67.5" height="65.2"/>
			<path d="M475.9,190C426.4,25,355-13.4,190,36.1S-13.4,157,36.1,322S157,525.4,322,475.9S525.4,355,475.9,190z M392.6,297.1
				l-31.1,10.4l10.7,32.2c4.2,13-2.7,27.2-15.7,31.5c-2.7,0.8-5.8,1.5-8.4,1.2c-10-0.4-19.6-6.9-23-16.9l-10.7-32.2l-64.1,21.5
				l10.7,32.2c4.2,13-2.7,27.2-15.7,31.5c-2.7,0.8-5.8,1.5-8.4,1.2c-10-0.4-19.6-6.9-23-16.9L203,360.4L172,370.7
				c-2.7,0.8-5.8,1.5-8.4,1.2c-10-0.4-19.6-6.9-23-16.9c-4.2-13,2.7-27.2,15.7-31.5l31.1-10.4l-20.7-61.8l-31.1,10.4
				c-2.7,0.8-5.8,1.5-8.4,1.2c-10-0.4-19.6-6.9-23-16.9c-4.2-13,2.7-27.2,15.7-31.5l31.1-10.4L140.1,172c-4.2-13,2.7-27.2,15.7-31.5
				c13-4.2,27.2,2.7,31.5,15.7l10.7,32.2l64.1-21.5l-10.7-32.2c-4.2-13,2.7-27.2,15.7-31.5c13-4.2,27.2,2.7,31.5,15.7l10.7,32.2
				l31.1-10.4c13-4.2,27.2,2.7,31.5,15.7c4.2,13-2.7,27.2-15.7,31.5l-31.1,10.4l20.7,61.8l31.1-10.4c13-4.2,27.2,2.7,31.5,15.7
				C412.6,278.6,405.7,292.8,392.6,297.1z"/>
		</g>
	</g>
</g>
</svg>
