<?xml version="1.0" encoding="utf-8"?>
<!-- Generator: Adobe Illustrator 22.0.1, SVG Export Plug-In . SVG Version: 6.00 Build 0)  -->
<svg version="1.1" id="Layer_1" xmlns="http://www.w3.org/2000/svg" xmlns:xlink="http://www.w3.org/1999/xlink" x="0px" y="0px"
	 viewBox="0 0 512 512" style="enable-background:new 0 0 512 512;" xml:space="preserve">
<g>
	<path d="M256,161.2c-52.3,0-94.8,42.5-94.8,94.8c0,52.3,42.5,94.8,94.8,94.8s94.8-42.5,94.8-94.8
		C350.8,203.7,308.3,161.2,256,161.2z"/>
	<g>
		<circle cx="392.1" cy="126.4" r="43.2"/>
	</g>
	<path d="M445.3,169.8l-1.8-4l-2.9,3.3c-7.1,8-16.1,14.2-26.1,17.9l-2.8,1l1.1,2.7c8.6,20.7,13,42.7,13,65.2
		c0,93.7-76.2,169.9-169.9,169.9S86.1,349.7,86.1,256S162.3,86.1,256,86.1c25.4,0,49.9,5.5,72.8,16.4l2.7,1.3l1.2-2.7
		c4.2-9.8,10.8-18.5,19.2-25.2l3.4-2.7l-3.9-2C321.6,55.8,289.5,48,256,48C141.3,48,48,141.3,48,256c0,114.7,93.3,208,208,208
		s208-93.3,208-208C464,226,457.7,197,445.3,169.8z"/>
</g>
</svg>
