<?xml version="1.0" encoding="UTF-8"?>
<svg xmlns="http://www.w3.org/2000/svg" version="1.1" viewBox="0 0 512 512"><g><g id="Layer_1"><path d="M363.2,239.6c-1.9-.9-3.9-1.8-5.9-2.7-3.5-63.7-38.3-100.2-96.7-100.6-.3,0-.5,0-.8,0-35,0-64,14.9-81.9,42.1l32.2,22.1c13.4-20.3,34.4-24.6,49.8-24.6s.4,0,.5,0c19.2.1,33.8,5.7,43.2,16.6,6.8,7.9,11.4,18.9,13.7,32.8-17.1-2.9-35.5-3.8-55.3-2.7-55.6,3.2-91.3,35.6-88.9,80.7,1.2,22.8,12.6,42.5,32,55.3,16.4,10.9,37.6,16.2,59.6,15,29.1-1.6,51.9-12.7,67.8-33,12.1-15.4,19.7-35.4,23.1-60.5,13.9,8.4,24.1,19.4,29.8,32.6,9.6,22.5,10.2,59.4-19.9,89.5-26.4,26.4-58.2,37.8-106.1,38.2-53.2-.4-93.5-17.5-119.6-50.7-24.5-31.2-37.2-76.1-37.6-133.7.5-57.6,13.1-102.6,37.6-133.7,26.2-33.3,66.4-50.3,119.6-50.7,53.6.4,94.6,17.5,121.7,51,13.3,16.4,23.4,37,30,61l37.7-10.1c-8-29.6-20.7-55.1-37.8-76.2-34.8-42.9-85.8-64.8-151.4-65.3h-.3c-65.5.5-115.9,22.5-149.7,65.5-30.1,38.3-45.6,91.6-46.2,158.3v.2s0,.2,0,.2c.5,66.8,16.1,120,46.2,158.3,33.8,43,84.2,65.1,149.7,65.5h.3c58.2-.4,99.3-15.7,133.1-49.4,44.2-44.2,42.9-99.6,28.3-133.6-10.5-24.4-30.4-44.2-57.7-57.3ZM262.6,334.2c-24.4,1.4-49.7-9.6-50.9-33-.9-17.4,12.4-36.7,52.4-39,4.6-.3,9.1-.4,13.5-.4,14.5,0,28.2,1.4,40.5,4.1-4.6,57.6-31.7,67-55.5,68.3Z"/></g></g></svg>