<svg xmlns="http://www.w3.org/2000/svg" class="ionicon" width="512" height="512" viewBox="0 0 512 512"><title>Logo Nuxt</title><path d="M491.67,357.61l-119.83-201.33c-2.83-4.76-6.91-8.71-11.81-11.46-4.91-2.75-10.47-4.2-16.14-4.2s-11.23,1.45-16.14,4.2c-4.91,2.75-8.98,6.7-11.81,11.46l-30.64,51.51-59.91-100.73c-2.83-4.76-6.91-8.71-11.82-11.46-4.91-2.75-10.48-4.19-16.14-4.19s-11.23,1.45-16.14,4.19c-4.91,2.75-8.98,6.7-11.82,11.46L20.33,357.61c-2.84,4.76-4.33,10.16-4.33,15.66,0,5.5,1.49,10.9,4.32,15.66,2.83,4.76,6.91,8.72,11.82,11.46,4.91,2.75,10.48,4.2,16.14,4.2h112.01c44.38,0,77.11-18.91,99.63-55.8l54.67-91.84,29.28-49.15,87.89,147.64h-117.17l-29.3,49.15h178.44c5.67,0,11.24-1.45,16.14-4.2,4.91-2.75,8.98-6.7,11.82-11.46,2.83-4.76,4.32-10.16,4.32-15.66,0-5.5-1.5-10.9-4.33-15.66Zm-274.88-34.88c-14.96,23.94-31.94,32.66-58.32,32.66l-78.17-.02,117.17-196.84,58.46,98.42-39.14,65.78Z"/></svg>
