<svg xmlns="http://www.w3.org/2000/svg" class="ionicon" viewBox="0 0 512 512"><title>Logo Matrix</title><g transform="matrix(1.93 0 0 2 -30.9 -49.4)"><path d="m16 68v169h45v-19h-21v-131h21v-19zm219 0v19h21v131h-21v19h46v-169zm-118 35.8c-2.2 1-6.15 4.15-8.75 6.95l-4.75 5.1v-12.9h-25v98h26v-30.8c0-40.9 1.85-46.2 16-46.2 13 0 13.4 1.1 13.8 42.2l0.3 34.8h26.8l0.35-32.2c0.4-41.1 1.8-44.9 16.3-44.9 12.4 0 13.5 3.6 13.5 44.1v33h27l0.1-34.2c0.15-47.4-0.1-48.9-9.75-58-11.8-11.1-38-9-47.8 3.8l-3.35 4.45-2.35-4.25c-5.5-9.9-26-14.7-38.4-8.95z"/></g></svg>
