<?xml version="1.0" encoding="utf-8"?>
<!-- Generator: Adobe Illustrator 24.1.0, SVG Export Plug-In . SVG Version: 6.00 Build 0)  -->
<svg version="1.1" id="Layer_1" xmlns="http://www.w3.org/2000/svg" xmlns:xlink="http://www.w3.org/1999/xlink" x="0px" y="0px"
	 viewBox="0 0 512 512" style="enable-background:new 0 0 512 512;" xml:space="preserve">
<g>
	<path style="fill:#010101;" d="M344.09,233.55c-28.87,0-32.88,28.82-32.88,28.82h61.39C372.59,262.37,372.99,233.55,344.09,233.55z
		"/>
	<path style="fill:#010101;" d="M204.82,262.37H150.4v49.96h48.18c0.82,0,2.05,0.02,3.48,0c7.75-0.18,22.44-2.44,22.44-24.29
		C224.51,262.1,204.82,262.37,204.82,262.37z"/>
	<path style="fill:#010101;" d="M256.01,32C132.29,32,32,132.27,32,255.99S132.29,480,256.01,480C379.71,480,480,379.71,480,255.99
		C480,132.28,379.7,32,256.01,32z M303.16,169.63h77.11v23.01h-77.11V169.63z M264.18,290.37c0,57.05-59.36,55.16-59.36,55.16H150.4
		h-1.59h-41.25v-186.9h41.25h1.59h54.42c29.55,0,52.87,16.32,52.87,49.76s-28.52,35.57-28.52,35.57
		C266.77,243.96,264.18,290.37,264.18,290.37z M408.44,287.31h-96.85c0,34.71,32.89,32.53,32.89,32.53
		c31.06,0,29.97-20.11,29.97-20.11h32.9c0,53.37-63.98,49.71-63.98,49.71c-76.74,0-71.8-71.46-71.8-71.46s-0.07-71.8,71.8-71.8
		C419.02,206.19,408.44,287.31,408.44,287.31z"/>
	<path style="fill:#010101;" d="M218.04,211.29c0-19.44-13.22-19.44-13.22-19.44h-7H150.4v41.7h51.04
		C210.25,233.55,218.04,230.72,218.04,211.29z"/>
</g>
</svg>
