<?xml version="1.0" encoding="utf-8"?>
<!-- Generator: Adobe Illustrator 22.0.1, SVG Export Plug-In . SVG Version: 6.00 Build 0)  -->
<svg version="1.1" id="Layer_1" xmlns="http://www.w3.org/2000/svg" xmlns:xlink="http://www.w3.org/1999/xlink" x="0px" y="0px"
	 viewBox="0 0 512 512" style="enable-background:new 0 0 512 512;" xml:space="preserve">
<g>
	<path d="M369.3,146H142.7C81.5,146,32,191.5,32,255.4c0,64,49.5,110.6,110.7,110.6h226.5c61.2,0,110.7-46.6,110.7-110.6
		C480,191.5,430.5,146,369.3,146z M200,266.7c0,2.7-2.4,5.3-5.2,5.3H160v35.1c0,2.8-3.1,4.9-5.8,4.9h-21.4c-2.6,0-4.8-1.9-4.8-4.5
		V272H92.9c-2.8,0-4.9-3.1-4.9-5.8v-21.4c0-2.6,1.9-4.8,4.5-4.8H128v-34.8c0-2.8,1.9-5.2,4.6-5.2h22.1c2.7,0,5.3,2.4,5.3,5.2V240
		h34.8c2.8,0,5.2,1.9,5.2,4.6V266.7z M319.8,275.5c-10.7,0-19.5-8.6-19.5-19.2c0-10.6,8.7-19.2,19.5-19.2c10.8,0,19.5,8.6,19.5,19.2
		C339.3,266.9,330.5,275.5,319.8,275.5z M362.3,317.3c-10.7,0-19.5-8.5-19.5-19.1c0-10.6,8.7-19.2,19.5-19.2
		c10.8,0,19.5,8.5,19.5,19.2C381.8,308.8,373.1,317.3,362.3,317.3z M362.3,233.6c-10.7,0-19.5-8.6-19.5-19.1
		c0-10.6,8.7-19.2,19.5-19.2c10.8,0,19.5,8.6,19.5,19.2C381.8,225,373.1,233.6,362.3,233.6z M404.9,275.5
		c-10.7,0-19.4-8.6-19.4-19.2c0-10.6,8.7-19.2,19.4-19.2c10.7,0,19.5,8.6,19.5,19.2C424.3,266.9,415.6,275.5,404.9,275.5z"/>
</g>
</svg>
