<svg xmlns="http://www.w3.org/2000/svg" width="512" height="512" viewBox="0 0 512 512">
<path d="M256,0.7C114.9,0.7,0.7,115,0.7,256C0.7,397.1,115,511.3,256,511.3c141.1,0,255.3-114.4,255.3-255.3S397.1,0.7,256,0.7
	L256,0.7z M373.1,369c-4.6,7.5-14.4,9.8-21.9,5.3c-59.9-36.6-135.4-44.9-224.3-24.6c-8.5,1.9-17.1-3.4-19.1-11.9
	c-2-8.5,3.4-17.1,11.9-19.1c97.3-22.2,180.7-12.7,248,28.5C375.4,351.7,377.7,361.4,373.1,369z M404.4,299.4
	c-5.7,9.3-18,12.3-27.4,6.5c-68.7-42.2-173.3-54.4-254.4-29.8c-10.5,3.2-21.7-2.7-24.8-13.3c-3.2-10.5,2.8-21.6,13.3-24.8
	c92.8-28.1,208-14.6,286.8,33.9C407.2,277.8,410.1,290,404.4,299.4L404.4,299.4z M407,227c-82.3-48.9-218.1-53.4-296.7-29.5
	c-12.7,3.8-26-3.3-29.8-16c-3.8-12.7,3.3-26,16-29.8c90.2-27.4,240.2-22.1,334.9,34.1c11.3,6.7,15.1,21.4,8.3,32.7
	C433.1,230,418.4,233.7,407,227L407,227z"/>
</svg>
