<svg xmlns="http://www.w3.org/2000/svg" viewBox="0 0 1024 1024"><defs><style>.facebook-logo-background{fill:currentColor;}.facebook-logo{fill:transparent;}</style></defs><title>Facebook Logo</title><g id="Background-layer" data-name="Background-layer"><g id="Logo-layer" data-name="Logo-layer"><path class="facebook-logo-background" d="M1024,512C1024,229.23,794.77,0,512,0S0,229.23,0,512c0,255.55,187.23,467.37,432,505.78V660H302V512H432V399.2C432,270.88,508.44,200,625.39,200c56,0,114.61,10,114.61,10V336H675.44c-63.6,0-83.44,39.47-83.44,80v96H734L711.3,660H592v357.78C836.77,979.37,1024,767.55,1024,512Z"/><path class="facebook-logo" d="M711.3,660,734,512H592V416c0-40.49,19.84-80,83.44-80H740V210s-58.59-10-114.61-10C508.44,200,432,270.88,432,399.2V512H302V660H432v357.78a517.58,517.58,0,0,0,160,0V660Z"/></g></g></svg>
