<?xml version="1.0" encoding="utf-8"?>
<!-- Generator: Adobe Illustrator 18.1.1, SVG Export Plug-In . SVG Version: 6.00 Build 0)  -->
<svg version="1.1" id="Layer_1" xmlns="http://www.w3.org/2000/svg" xmlns:xlink="http://www.w3.org/1999/xlink" x="0px" y="0px"
	 viewBox="0 0 512 512" enable-background="new 0 0 512 512" xml:space="preserve">
<g>
	<path d="M318.2,230.9l-1.6-7l-156.6,0V288h90.7c-9.4,45-48.4,63.6-84.1,63.6c-26,0-50.2-7.8-68.3-25.3
		c-18.6-18.1-28.9-43.1-28.9-70.4c0-27.1,9.8-51.8,27.6-69.6c17.7-17.7,42-25.4,68.7-25.4c30.5,0,49.9,13.8,58.1,21.1l48-47.7
		C258.3,122.6,221.5,93,164.1,93c0,0,0,0,0,0c-44.3,0-86.7,16.8-117.7,47.8C15.9,171.3,0,215.2,0,256s15,82.6,44.6,113.3
		C76.3,402,121.2,419,167.5,419c42.1,0,81.9-16.5,110.3-46.3c28-29.4,42.4-70.1,42.4-112.7C320.1,242,318.3,231.3,318.2,230.9z"/>
	<polygon points="512,224 455,224 455,167 414,167 414,224 357,224 357,265 414,265 414,322 455,322 455,265 512,265 	"/>
</g>
</svg>
