<svg xmlns="http://www.w3.org/2000/svg" class="ionicon" viewBox="0 0 512 512" fill="none" stroke="#000" stroke-linecap="round" stroke-linejoin="round" stroke-width="32"><title>Logo GitLab</title><path d="M434.97,329.88c-.08,.06-.16,.11-.25,.16l-93.44,60.18-45.93,29.92-27.96,18.19c-6.73,4.39-16.05,4.39-22.78,0l-27.96-18.19-45.94-29.92-92.89-59.83-.54-.35c-.08-.05-.14-.1-.22-.14-40.24-26.19-55.64-72.03-37.57-112.59l.61-1.37L101.09,79.05c1.22-2.68,3.41-4.94,6.26-6.5,2.84-1.57,6.18-2.31,9.56-2.15,3.36,.15,6.59,1.21,9.23,3.02,2.62,1.82,4.51,4.28,5.39,7.06l41.17,108.42h166.58l41.17-108.42c.89-2.78,2.78-5.24,5.39-7.06,2.64-1.8,5.87-2.86,9.23-3.02,3.38-.15,6.72,.59,9.56,2.15,2.85,1.56,5.04,3.82,6.26,6.5l60.98,136.89,.61,1.38c18.06,40.55,2.67,86.38-37.54,112.56Zm37.54-112.56l-.61-1.38c-30.25,5.35-58.12,16.36-81.98,31.72-.39,.24-72.51,47.17-133.91,87.11,45.59,29.66,85.29,55.45,85.29,55.45l93.44-60.18c.09-.06,.16-.11,.25-.16,40.21-26.19,55.6-72.01,37.54-112.56ZM170.71,390.23l45.94,29.92,27.96,18.19c6.73,4.39,16.05,4.39,22.78,0l27.96-18.19,45.93-29.92s-39.69-25.79-85.29-55.45c-45.6,29.66-85.29,55.45-85.29,55.45Zm-48.63-142.57c-23.85-15.35-51.71-26.37-81.97-31.71l-.61,1.37c-18.07,40.55-2.67,86.4,37.57,112.59,.08,.04,.14,.09,.22,.14l.54,.35,92.89,59.83s39.69-25.79,85.29-55.45c-61.41-39.94-133.53-86.87-133.92-87.11Z"/></svg>
