<svg xmlns="http://www.w3.org/2000/svg" class="ionicon" viewBox="0 0 512 512"><title>Logo OWASP</title><g><g transform="matrix(0.25, 0, 0, -0.25, 32, 468.218)"><path fill="currentColor" d="m892.44941,-138.92005c-541.586,0 -980.629,439.051 -980.629,980.637c0,541.583 439.043,980.633 980.629,980.633c541.571,0 980.621,-439.05 980.621,-980.633c0,-541.586 -439.05,-980.637 -980.621,-980.637m-0.008,1810.35c-458.226,0 -829.707,-371.48 -829.707,-829.705c0,-458.235 371.481,-829.715 829.707,-829.715c458.219,0 829.699,371.48 829.699,829.715c0,458.225 -371.48,829.705 -829.699,829.705"/><path fill="currentColor" d="m1210.92041,146.82995c-31.36,0.02 -145.64,203.41 -161,261.398c-32.11,121.411 -25.2,172.704 -23.28,189.102c5.88,50.07 54.46,75.09 57.4,142.801c0.91,20.91 11.47,125.449 19.9,207.109c-20.8,4.07 -41.52,13.45 -59.94,28c55.3,-74.17 -26.09,-163.058 -144.352,-281.332c-125.523,-125.519 -404.133,-242.019 -404.133,-242.019c0,0 116.508,278.613 242.024,404.132c92.269,92.259 166.636,162.079 230.101,162.079c17.89,0 34.92,-5.55 51.23,-17.7c-14.56,18.41 -23.93,39.12 -28.01,59.92c-81.661,-8.45 -186.208,-18.99 -207.106,-19.91c-67.719,-2.94 -92.743,-51.52 -142.782,-57.39c-5.761,-0.68 -15.828,-1.98 -31.722,-1.98c-29.367,0 -78.629,4.42 -157.387,25.27c-63.07,16.68 -298.078,150.37 -256.512,167.17c21.196,8.58 88.75,14.38 177.715,14.38c85.559,0 190.922,-5.36 293.844,-18.77c128.328,-16.72 246,-37.87 326.19,-53.6c1.3,4.31 2.86,8.5 4.73,12.57l-81.98,39.29c0,0 -65.479,75.14 -58.487,80.32c0.27,0.2 0.613,0.3 1.023,0.3c10.27,0 62.654,-59.89 67.694,-66.71c3.88,-1.29 26.09,-8.7 49.45,-16.47l-23.19,20.28c0,0 -31.74,117.55 -23.47,120.32c0.1,0.03 0.21,0.05 0.33,0.05c8.71,0 37.51,-102.22 39.98,-109.56c5.66,-4.96 24.78,-12.41 48.67,-26.19l-25.12,64.62c0,0 11.37,106.61 19.88,106.61c0.07,0 0.13,-0.01 0.2,-0.02c8.57,-1.71 -1.68,-88.92 -3.85,-99.78c3.11,-4.77 22.38,-34.33 41.7,-63.97c11.89,4.48 24.68,6.69 37.81,6.69c15.07,0 30.57,-2.92 45.61,-8.67c-19.26,41.01 -17.8,83.75 7.74,109.27c8.08,8.1 17.9,13.75 28.84,17.1c1.32,7.46 4.78,14.54 10.45,20.22c7.39,7.38 17.12,11.05 26.97,11.05c10.31,0 20.76,-4.03 28.76,-12.04c7.67,-7.65 11.65,-17.54 11.99,-27.39c12.33,25.41 26.88,59.7 25.86,70.81c-2.37,25.14 -31.53,69.64 -31.8,70.09c-1.9,2.87 -1.11,6.75 1.78,8.66c1.05,0.69 2.24,1.02 3.42,1.02c2.03,0 4.02,-0.99 5.21,-2.82c1.29,-1.92 31.17,-47.54 33.83,-75.79c1.48,-16.16 -17.07,-56.88 -27.18,-77.68c14.2,-7.77 28.04,-18.03 40.68,-30.67c12.63,-12.63 22.89,-26.47 30.67,-40.68c20.01,9.73 58.4,27.26 75.71,27.26c0.69,0 1.35,-0.02 1.97,-0.08c28.24,-2.66 73.87,-32.54 75.78,-33.81c2.88,-1.89 3.68,-5.77 1.78,-8.65c-1.2,-1.82 -3.19,-2.81 -5.22,-2.81c-1.17,0 -2.36,0.33 -3.41,1.03c-0.45,0.29 -44.94,29.44 -70.09,31.79c-0.38,0.04 -0.79,0.05 -1.22,0.05c-12.23,0 -45.07,-13.97 -69.61,-25.89c9.87,-0.33 19.76,-4.33 27.4,-12c15.67,-15.65 16.1,-40.59 0.99,-55.7c-5.67,-5.68 -12.74,-9.17 -20.2,-10.47c-3.37,-10.95 -9.03,-20.77 -17.11,-28.85c-14.08,-14.09 -33.38,-20.84 -54.76,-20.84c-17.38,0 -36.13,4.47 -54.52,13.1c10.77,-28.12 11.59,-57.89 1.99,-83.41c29.62,-19.32 59.22,-38.6 63.96,-41.71c7.78,1.55 54.5,7.22 81.17,7.22c10.66,0 18.13,-0.9 18.61,-3.34c1.73,-8.56 -106.57,-20.12 -106.57,-20.12l-64.63,25.15c13.79,-23.91 21.21,-43.02 26.18,-48.69c7.47,-2.5 112.26,-32.04 109.5,-40.31c-0.31,-0.96 -2.15,-1.37 -5.16,-1.37c-23.1,0 -115.14,24.85 -115.14,24.85l-20.3,23.19c7.79,-23.37 15.18,-45.56 16.49,-49.45c7.1,-5.25 71.57,-61.7 66.4,-68.708c-0.27,-0.363 -0.71,-0.524 -1.32,-0.524c-11.31,0 -78.99,58.992 -78.99,58.992l-39.3,81.99c-4.06,-1.88 -8.26,-3.42 -12.58,-4.73c15.73,-80.19 36.89,-197.861 53.63,-326.181c27.34,-209.949 21.19,-429.969 4.39,-471.571c-1.35,-3.347 -3.46,-4.898 -6.2,-4.898"/></g></g></svg>