<?xml version="1.0" encoding="utf-8"?>
<!-- Generator: Adobe Illustrator 24.1.0, SVG Export Plug-In . SVG Version: 6.00 Build 0)  -->
<svg version="1.1" id="Layer_1" xmlns="http://www.w3.org/2000/svg" xmlns:xlink="http://www.w3.org/1999/xlink" x="0px" y="0px"
	 viewBox="0 0 512 512" style="enable-background:new 0 0 512 512;" xml:space="preserve">
<g>
	<path style="fill:#010101;" d="M5.8,277.97c-1.07,0-1.92,0.83-2.05,2.02L0,308.64l3.74,28.16c0.14,1.19,0.99,2.01,2.05,2.01
		c1.03,0,1.88-0.82,2.04-2v-0.01v0.01l4.44-28.17l-4.44-28.65C7.68,278.8,6.83,277.97,5.8,277.97L5.8,277.97z"/>
	<path style="fill:#010101;" d="M26.85,262.32c-0.18-1.23-1.05-2.08-2.13-2.08c-1.08,0-1.98,0.88-2.13,2.08
		c0,0.01-5.03,46.32-5.03,46.32l5.03,45.3c0.14,1.21,1.04,2.09,2.13,2.09c1.07,0,1.95-0.85,2.13-2.08l5.73-45.31L26.85,262.32
		L26.85,262.32z"/>
	<path style="fill:#010101;" d="M106.17,219.59c-2.06,0-3.77,1.7-3.87,3.87l-4.01,85.22l4.01,55.08c0.1,2.15,1.81,3.85,3.87,3.85
		c2.05,0,3.76-1.7,3.88-3.86v0.02l4.53-55.08l-4.53-85.22C109.92,221.29,108.22,219.59,106.17,219.59z"/>
	<path style="fill:#010101;" d="M65.12,249.21c-1.59,0-2.88,1.28-3.01,2.98l-4.51,56.47l4.51,54.63c0.12,1.69,1.42,2.97,3.01,2.97
		c1.57,0,2.86-1.28,3-2.97l5.13-54.63l-5.13-56.48C67.98,250.48,66.69,249.21,65.12,249.21z"/>
	<path style="fill:#010101;" d="M147.88,367.6c2.56,0,4.64-2.08,4.75-4.74l3.93-54.15l-3.93-113.46c-0.1-2.66-2.19-4.74-4.75-4.74
		c-2.58,0-4.67,2.09-4.75,4.75l-3.49,113.45l3.49,54.17C143.22,365.51,145.3,367.6,147.88,367.6z"/>
	<path style="fill:#010101;" d="M233.28,367.85c3.52,0,6.43-2.92,6.5-6.52v0.04v-0.04l2.74-52.6l-2.74-131.04
		c-0.06-3.59-2.97-6.52-6.5-6.52c-3.53,0-6.44,2.92-6.5,6.52l-2.45,130.99c0,0.08,2.45,52.67,2.45,52.67
		C226.84,364.93,229.76,367.85,233.28,367.85z"/>
	<path style="fill:#010101;" d="M190.26,367.65c3.07,0,5.54-2.48,5.62-5.64v0.04l3.34-53.33l-3.34-114.28
		c-0.08-3.16-2.55-5.64-5.62-5.64c-3.09,0-5.56,2.47-5.63,5.64l-2.97,114.29l2.97,53.32C184.7,365.17,187.17,367.65,190.26,367.65
		L190.26,367.65z"/>
	<path style="fill:#010101;" d="M85.56,367.15c1.82,0,3.3-1.47,3.44-3.41l4.83-55.09L89,256.25c-0.13-1.94-1.61-3.39-3.44-3.39
		c-1.85,0-3.33,1.47-3.44,3.42l-4.26,52.38l4.26,55.08C82.24,365.68,83.71,367.15,85.56,367.15z"/>
	<path style="fill:#010101;" d="M44.84,364.13c1.33,0,2.41-1.06,2.57-2.52l5.43-52.96l-5.42-54.96c-0.16-1.47-1.24-2.53-2.57-2.53
		c-1.35,0-2.43,1.07-2.57,2.53l-4.78,54.96l4.78,52.95C42.4,363.06,43.48,364.13,44.84,364.13L44.84,364.13z"/>
	<path style="fill:#010101;" d="M211.69,192.53c-3.33,0-6,2.67-6.07,6.09l-2.71,110.11l2.71,52.98c0.07,3.37,2.73,6.04,6.07,6.04
		c3.33,0,5.98-2.66,6.06-6.08v0.04l3.04-52.98l-3.04-110.13C217.67,195.2,215.01,192.53,211.69,192.53L211.69,192.53z"/>
	<path style="fill:#010101;" d="M126.95,367.71c2.3,0,4.2-1.89,4.31-4.3l4.23-54.71l-4.23-104.71c-0.12-2.42-2.01-4.3-4.31-4.3
		c-2.32,0-4.22,1.89-4.32,4.3l-3.74,104.71l3.75,54.73C122.73,365.81,124.62,367.71,126.95,367.71z"/>
	<path style="fill:#010101;" d="M174.17,362.54v-0.03l3.63-53.8l-3.63-117.28c-0.09-2.91-2.37-5.2-5.18-5.2
		c-2.83,0-5.11,2.28-5.19,5.2l-3.23,117.28l3.23,53.83c0.08,2.88,2.36,5.16,5.18,5.16c2.82,0,5.09-2.28,5.18-5.18L174.17,362.54
		L174.17,362.54z"/>
	<path style="fill:#010101;" d="M449.03,241.1c-8.63,0-16.86,1.76-24.36,4.93C419.66,188.85,372.06,144,314.01,144
		c-14.21,0-28.05,2.82-40.28,7.58c-4.75,1.85-6.02,3.76-6.06,7.46V360.4c0.05,3.88,3.04,7.12,6.8,7.5
		c0.16,0.02,173.44,0.11,174.56,0.11c34.78,0,62.98-28.41,62.98-63.45C512,269.51,483.81,241.1,449.03,241.1L449.03,241.1z"/>
	<path style="fill:#010101;" d="M254.79,158.87c-3.78,0-6.89,3.13-6.94,6.97L245,308.75l2.85,51.87c0.05,3.79,3.16,6.91,6.94,6.91
		c3.77,0,6.88-3.12,6.93-6.97v0.06l3.09-51.87l-3.09-142.93C261.66,161.99,258.56,158.87,254.79,158.87L254.79,158.87z"/>
</g>
</svg>
