<?xml version="1.0" encoding="utf-8"?>
<!-- Generator: Adobe Illustrator 24.1.0, SVG Export Plug-In . SVG Version: 6.00 Build 0)  -->
<svg version="1.1" id="Layer_1" xmlns="http://www.w3.org/2000/svg" xmlns:xlink="http://www.w3.org/1999/xlink" x="0px" y="0px"
	 viewBox="0 0 512 512" style="enable-background:new 0 0 512 512;" xml:space="preserve">
<path style="fill:#010101;" d="M412.19,118.66c-3.28-1.7-6.36-3.5-9.45-5.5c-8.85-5.8-17.01-12.81-24.27-20.61
	c-18.1-20.71-24.86-41.72-27.35-56.43h0.1C349.14,23.9,350.03,16,350.13,16h-82.44v318.78c0,4.28,0.01,8.5-0.18,12.69
	c-0.02,0.52-0.05,1.04-0.08,1.55c-0.02,0.24-0.03,0.48-0.05,0.72c0,0.06-0.01,0.12-0.01,0.18c-1.81,23.88-15.54,44.4-35.22,55.56
	c-10.08,5.72-21.72,8.99-34.11,8.99c-38.4,0-69.54-31.32-69.54-69.96c0-38.64,31.13-69.96,69.54-69.96c7.47,0,14.67,1.19,21.41,3.39
	l0.1-83.94c-15.41-2.2-31.03-2-46.34,0.7c-10.14,1.9-20.09,4.8-29.64,8.8c-15.22,5.9-29.44,14.41-41.97,25.01
	c-14.22,12.31-26.16,27.12-35.3,43.52c-3.48,6-16.61,30.12-18.2,69.24c-0.99,22.21,5.67,45.23,8.85,54.73v0.2
	c1.99,5.6,9.75,24.71,22.38,40.82c10.24,12.91,22.18,24.21,35.7,33.62v-0.2l0.2,0.2c39.88,27.12,84.13,25.31,84.13,25.31
	c7.66-0.3,33.32,0,62.45-13.81c32.32-15.31,50.72-38.12,50.72-38.12c2.78-3.4,17.9-20.31,27.65-45.93
	c7.46-19.61,9.95-43.12,9.95-52.53v-169.1c0.99,0.6,14.32,9.41,14.32,9.41s19.19,12.31,49.13,20.31c21.48,5.7,50.42,6.9,50.42,6.9
	v-81.85C453.86,132.37,433.27,129.17,412.19,118.66z"/>
</svg>
