<svg xmlns="http://www.w3.org/2000/svg" class="ionicon" width="512" height="512" viewBox="0 0 512 512"><title>Logo GitLab</title><path d="M487.12,210.81l-61.6-138.28-.05-.1c-2.66-5.86-7.21-10.67-13.1-13.9-5.42-2.99-11.65-4.41-18.02-4.13-6.36,.29-12.42,2.3-17.53,5.8-.03,.02-.07,.05-.1,.07-5.41,3.76-9.32,8.88-11.34,14.84l-37.13,97.78H183.75l-37.13-97.78c-2.02-5.96-5.93-11.08-11.34-14.84-.03-.02-.07-.05-.1-.07-5.11-3.5-11.18-5.5-17.54-5.8-6.37-.3-12.6,1.14-17.97,4.1-5.94,3.25-10.49,8.07-13.15,13.92-.02,.04-.03,.07-.05,.11L25.5,209.42l-.62,1.39c-21.2,47.57-3.33,102.06,43.45,132.51,.09,.06,.18,.11,.27,.17l93.37,60.15,45.95,29.93,27.95,18.18c6.02,3.92,13.08,5.88,20.13,5.88s14.1-1.96,20.11-5.88l27.97-18.19,45.87-29.88,93.44-60.18s.15-.1,.2-.13l.13-.09c46.74-30.45,64.58-84.91,43.4-132.47Z"/></svg>
