<svg xmlns="http://www.w3.org/2000/svg" width="512" height="512" viewBox="0 0 512 512"><title>ionicons-v5_logos</title><path d="M449.38,138.16l-63.23-34.49L322.92,69.18c-28.75-17.25-69-5.75-86.23,23-5.75,11.5-5.75,17.25-5.75,28.74v5.75c0,5.75,0,5.75,5.75,11.5l28.74,17.24c5.75,5.75,11.5,0,17.25-5.74h0v-23c0-5.75,5.75-11.49,11.49-11.49h5.75l57.48,34.49,57.49,34.49c5.75,5.74,5.75,11.49,5.75,17.24l-5.75,5.75L357.4,241.63l-57.48,34.49c-5.75,5.75-11.49,0-17.24-5.75h0V253.13c0-34.49-28.74-63.24-63.23-63.24-11.5,0-23,0-28.75,5.75l-63.23,34.49L64.24,264.62c-28.74,17.25-40.24,51.74-23,86.23,5.75,11.49,11.49,17.24,23,23l63.23,34.49,63.23,34.49c28.75,17.25,69,5.75,86.23-23,5.75-11.5,5.75-17.25,5.75-28.74v-5.75c0-5.75,0-5.75-5.75-11.5L248.19,356.6c-5.75-5.75-11.5,0-17.25,5.74h0v23c0,5.75-5.75,11.49-11.49,11.49H213.7l-57.49-34.49L98.73,327.85c-5.75,0-11.5-11.49-5.75-17.24l5.75-5.75,57.48-34.49,57.49-34.49c5.75-5.75,11.49,0,17.24,5.75h0v17.24c0,34.49,28.74,63.24,63.23,63.24,11.5,0,23,0,28.75-5.75l63.23-34.49,63.23-34.49c28.74-17.25,40.24-57.49,17.24-86.23h0C460.87,149.66,455.13,143.91,449.38,138.16Z"/></svg>