<svg xmlns="http://www.w3.org/2000/svg" width="512" height="512"><path d="M126.12 315.1A47.06 47.06 0 1179.06 268h47.06zm23.72 0a47.06 47.06 0 0194.12 0v117.84a47.06 47.06 0 11-94.12 0zm47.06-188.98A47.06 47.06 0 11244 79.06v47.06zm0 23.72a47.06 47.06 0 010 94.12H79.06a47.06 47.06 0 010-94.12zm188.98 47.06a47.06 47.06 0 1147.06 47.1h-47.06zm-23.72 0a47.06 47.06 0 01-94.12 0V79.06a47.06 47.06 0 1194.12 0zM315.1 385.88a47.06 47.06 0 11-47.1 47.06v-47.06zm0-23.72a47.06 47.06 0 010-94.12h117.84a47.06 47.06 0 110 94.12z"/></svg>