<svg xmlns="http://www.w3.org/2000/svg" width="512" height="512"><path d="M178.12 298a76.8 76.8 0 0018.73 52.64 85.81 85.81 0 0020.54 17.5 121.64 121.64 0 0025 12.11 153.67 153.67 0 0027.6 7.14 176.67 176.67 0 0028.3 2.31 187.63 187.63 0 0033.41-2.8 241.17 241.17 0 0030.74-7.84A271 271 0 00392 367.37c9.79-4.48 19.71-9.38 29.91-14.84v94.92a336 336 0 01-33.75 14.35 344.76 344.76 0 01-33.75 10.08 261.17 261.17 0 01-34.78 6.12 342.52 342.52 0 01-36.48 2 201.93 201.93 0 01-48.57-5.81 190.1 190.1 0 01-43.88-16.66 183.83 183.83 0 01-37.6-26.46 167.26 167.26 0 01-29.35-35 170 170 0 01-19-42.42 175.07 175.07 0 01-6.64-48.72 181.62 181.62 0 017.55-52.64 168.22 168.22 0 0121.8-46.06 166.49 166.49 0 0134.6-37.31 182.82 182.82 0 0146-26.6 97.26 97.26 0 00-21.67 33.11 143.52 143.52 0 00-10 38.36h159.17c0-16.1-1.61-30.1-4.89-42.14s-8.53-22.05-15.87-30-16.63-14-28.16-17.92-25.43-6-41.72-6a198.2 198.2 0 00-57.65 8.61 242.5 242.5 0 00-54.78 23.8 265.35 265.35 0 00-47.8 36.26A225.8 225.8 0 0048 231.78a262 262 0 0112.09-54.39 231.91 231.91 0 0122.71-48.3 216.38 216.38 0 0132.43-40.18 193.06 193.06 0 0141.22-30.8 208.57 208.57 0 0148.71-19.74A249.32 249.32 0 01260.79 32 194.63 194.63 0 01295 35.08a242.27 242.27 0 0133.33 8.54 196.08 196.08 0 01100.28 76.65 205.05 205.05 0 0126.28 57.19 232.52 232.52 0 019.11 64.89V298z"/></svg>