<svg xmlns="http://www.w3.org/2000/svg" width="512" height="512"><path d="M421.83 293.82A144 144 0 00218.18 90.17m135.76 135.77a48 48 0 00-67.88-67.88" fill="none" stroke="#000" stroke-miterlimit="10" stroke-width="32"/><path stroke="#000" stroke-linecap="round" stroke-miterlimit="10" stroke-width="32" d="M192 464v-48m-101.82 5.82l33.94-33.94M48 320h48"/><path d="M286.06 158.06L172.92 271.19a32 32 0 01-45.25 0L105 248.57a32 32 0 010-45.26L218.18 90.17m203.65 203.65L308.69 407a32 32 0 01-45.26 0l-22.62-22.63a32 32 0 010-45.26l113.13-113.17M139.6 169.98l67.88 67.89m67.88 67.88l67.89 67.88" fill="none" stroke="#000" stroke-linejoin="round" stroke-width="32"/></svg>