<svg xmlns="http://www.w3.org/2000/svg" width="512" height="512"><path d="M441.6 171.61L266.87 85.37a24.57 24.57 0 00-21.74 0L70.4 171.61A40 40 0 0048 207.39V392c0 22.09 18.14 40 40.52 40h335c22.38 0 40.52-17.91 40.52-40V207.39a40 40 0 00-22.44-35.78z" fill="none" stroke="#000" stroke-linecap="round" stroke-linejoin="round" stroke-width="32"/><path d="M397.33 368L268.07 267.46a24 24 0 00-29.47 0L109.33 368m200-73l136-103m-384 0l139 105" fill="none" stroke="#000" stroke-linecap="round" stroke-linejoin="round" stroke-width="32"/></svg>