<?xml version="1.0" encoding="utf-8"?>
<!-- Generator: Adobe Illustrator 18.1.1, SVG Export Plug-In . SVG Version: 6.00 Build 0)  -->
<svg version="1.1" id="Layer_1" xmlns="http://www.w3.org/2000/svg" xmlns:xlink="http://www.w3.org/1999/xlink" x="0px" y="0px"
	 viewBox="0 0 512 512" enable-background="new 0 0 512 512" xml:space="preserve">
<path d="M99.4,284.9l134,138.1c5.8,6,13.7,9,22.4,9h0.4c8.7,0,16.6-3,22.4-9l134-138.1c12.5-12,12.5-31.3,0-43.2
	c-12.5-11.9-32.7-11.9-45.2,0l-79.4,83v-214c0-16.9-14.3-30.6-32-30.6c-18,0-32,13.7-32,30.6v214l-79.4-83
	c-12.5-11.9-32.7-11.9-45.2,0C86.9,253.6,86.9,272.9,99.4,284.9z"/>
</svg>
