<?xml version="1.0" encoding="utf-8"?>
<!-- Generator: Adobe Illustrator 18.1.1, SVG Export Plug-In . SVG Version: 6.00 Build 0)  -->
<svg version="1.1" id="Layer_1" xmlns="http://www.w3.org/2000/svg" xmlns:xlink="http://www.w3.org/1999/xlink" x="0px" y="0px"
	 viewBox="0 0 512 512" enable-background="new 0 0 512 512" xml:space="preserve">
<path d="M284.9,412.6l138.1-134c6-5.8,9-13.7,9-22.4v-0.4c0-8.7-3-16.6-9-22.4l-138.1-134c-12-12.5-31.3-12.5-43.2,0
	c-11.9,12.5-11.9,32.7,0,45.2l83,79.4h-214C93.7,224,80,238.3,80,256c0,18,13.7,32,30.6,32h214l-83,79.4
	c-11.9,12.5-11.9,32.7,0,45.2C253.6,425.1,272.9,425.1,284.9,412.6z"/>
</svg>
