<?xml version="1.0" encoding="utf-8"?>
<!-- Generator: Adobe Illustrator 22.0.1, SVG Export Plug-In . SVG Version: 6.00 Build 0)  -->
<svg version="1.1" id="Layer_1" xmlns="http://www.w3.org/2000/svg" xmlns:xlink="http://www.w3.org/1999/xlink" x="0px" y="0px"
	 viewBox="0 0 512 512" style="enable-background:new 0 0 512 512;" xml:space="preserve">
<g>
	<g>
		<g>
			<path d="M363,277h-86v86h-42v-86h-86v-42h86v-86h42v86h86V277z"/>
		</g>
	</g>
	<path d="M256,90c44.3,0,86,17.3,117.4,48.6C404.7,170,422,211.7,422,256s-17.3,86-48.6,117.4C342,404.7,300.3,422,256,422
		c-44.3,0-86-17.3-117.4-48.6C107.3,342,90,300.3,90,256c0-44.3,17.3-86,48.6-117.4C170,107.3,211.7,90,256,90 M256,48
		C141.1,48,48,141.1,48,256c0,114.9,93.1,208,208,208c114.9,0,208-93.1,208-208C464,141.1,370.9,48,256,48L256,48z"/>
</g>
</svg>
