<?xml version="1.0" encoding="utf-8"?>
<!-- Generator: Adobe Illustrator 18.1.1, SVG Export Plug-In . SVG Version: 6.00 Build 0)  -->
<svg version="1.1" id="Layer_1" xmlns="http://www.w3.org/2000/svg" xmlns:xlink="http://www.w3.org/1999/xlink" x="0px" y="0px"
	 viewBox="0 0 512 512" enable-background="new 0 0 512 512" xml:space="preserve">
<g>
	<path d="M32,256c14.1,35,36.2,66,64,90.6V165.4C68.2,190,46.1,221,32,256z"/>
	<path d="M480,256c-14.1-35-36.2-66-64-90.6v181.2C443.8,322,465.9,291,480,256z"/>
</g>
<g>
	<path d="M256,105c-47.1,0-91,13.4-128,36.5v77.3V240v32v27.5v70.9c37,23.1,80.9,36.5,128,36.5s91-13.4,128-36.5v-70.9V272v-32
		v-21.2v-77.3C347,118.4,303.1,105,256,105z M352,240v32v32h-32v-32h-48v32h-32v-32h-48v32h-32v-32v-32v-32h32v32h48v-32h32v32h48
		v-32h32V240z"/>
</g>
</svg>
