<?xml version="1.0" encoding="utf-8"?>
<!-- Generator: Adobe Illustrator 18.1.1, SVG Export Plug-In . SVG Version: 6.00 Build 0)  -->
<svg version="1.1" id="Layer_1" xmlns="http://www.w3.org/2000/svg" xmlns:xlink="http://www.w3.org/1999/xlink" x="0px" y="0px"
	 viewBox="0 0 512 512" enable-background="new 0 0 512 512" xml:space="preserve">
<g>
	<g>
		<rect x="88" y="128" width="48" height="256"/>
		<rect x="232" y="128" width="48" height="256"/>
		<rect x="160" y="144" width="48" height="224"/>
		<rect x="304" y="144" width="48" height="224"/>
		<rect x="376" y="128" width="48" height="256"/>
	</g>
	<polygon points="104,104 104,56 16,56 16,64 16,104 16,408 16,448 16,456 104,456 104,408 64,408 64,104 	"/>
	<polygon points="408,56 408,104 448,104 448,408 408,408 408,456 496,456 496,448 496,408 496,104 496,64 496,56 	"/>
</g>
</svg>
