<?xml version="1.0" encoding="utf-8"?>
<!-- Generator: Adobe Illustrator 18.1.1, SVG Export Plug-In . SVG Version: 6.00 Build 0)  -->
<svg version="1.1" id="Layer_1" xmlns="http://www.w3.org/2000/svg" xmlns:xlink="http://www.w3.org/1999/xlink" x="0px" y="0px"
	 viewBox="0 0 512 512" enable-background="new 0 0 512 512" xml:space="preserve">
<g>
	<g>
		<path d="M272.2,350.6c-0.8-8.2-8.2-14.6-17.3-14.6c-8.3,0-15.2,5.4-16.9,12.5l0,0L221.1,441c-0.5,2.3-0.8,4.6-0.8,7
			c0,17.7,15.5,32,34.7,32s34.7-14.3,34.7-32c0-2.9-0.4-5.7-1.2-8.4L272.2,350.6z"/>
		<polygon points="310.1,355 310.1,355 310.1,355 		"/>
		<path d="M404.3,390.3c-1.9-1.4-3.6-2.9-5.6-3.9l-68.9-47.5c-6.3-3.8-13-3.7-17.9,0.9c-4.5,4.1-5.1,10.4-1.8,15.4l53,65.8
			c1,1.5,2.3,2.8,3.6,4.2c8.5,9.1,27.2,9.6,37.5,0C414.6,415.4,414.5,398,404.3,390.3z"/>
		<polygon points="382.2,335 382.2,335 382.2,335 		"/>
		<path d="M450.4,322.5l-64.5-2.3c-4.2-0.6-8,2.1-8.7,6c-0.7,3.6,1.5,7.1,5.1,8.8l0,0c0,0,0.1,0,0.1,0l62.5,17.8
			c9,1.9,19.1-2.3,19.1-11.6C464,329.3,460.7,323.7,450.4,322.5z"/>
		<polygon points="129.5,335 129.5,335 129.5,335 		"/>
		<path d="M129.5,335L129.5,335c3.6-1.6,5.7-5.2,5.1-8.8c-0.7-4-4.5-6.6-8.7-6l-64.5,2.3C51,323.7,48,329.3,48,341.1
			c0,9.3,9.9,13.6,18.8,11.6l62.5-17.8C129.4,335,129.4,335,129.5,335z"/>
		<path d="M182.2,338.8l-68.9,47.4c-2,1.1-3.9,2.4-5.6,3.9c-10.4,9.6-10.4,25.1,0,34.6c10.4,9.6,27.1,9.6,37.5,0
			c1.4-1.3,2.6-2.7,3.6-4.2l53-65.6c3.3-5,2.7-11.2-1.8-15.3C195.2,335.1,187.4,334.8,182.2,338.8z"/>
	</g>
	<path d="M256,32c0,0,30.2,35.4,30.2,64.4c0,27.8-18.2,50.3-45.9,50.3c-27.9,0-48.9-22.5-48.9-50.3l0.4-6.9
		c-27.2,32.3-43.5,76.2-43.5,121.8c0,59.6,48.2,107.8,107.8,107.8s107.8-48.2,107.8-107.8C363.8,138.7,328,53.7,256,32z
		 M252.1,278.7c-24,0-43.4-18.9-43.4-42.3c0-21.8,14.1-37.2,37.9-42c23.8-4.9,48.5-16.3,62.3-34.8c5.3,17.4,7.9,35.7,7.9,54.4
		C316.8,249.7,287.8,278.7,252.1,278.7z"/>
</g>
</svg>
