<?xml version="1.0" encoding="utf-8"?>
<!-- Generator: Adobe Illustrator 22.0.1, SVG Export Plug-In . SVG Version: 6.00 Build 0)  -->
<svg version="1.1" id="Layer_1" xmlns="http://www.w3.org/2000/svg" xmlns:xlink="http://www.w3.org/1999/xlink" x="0px" y="0px"
	 viewBox="0 0 512 512" style="enable-background:new 0 0 512 512;" xml:space="preserve">
<g>
	<path d="M192,428c0,10.6,8.6,20,20,20h88c11.4,0,20-9.4,20-20v-18H192V428z M256,64c-79.7,0-144,59.9-144,134
		c0,45.7,24.1,86.2,61.4,110.6V352c0,10.6,9.3,19.2,20.6,19.2h123.9c11.4,0,20.6-8.6,20.6-19.2v-43.4C375.9,284.2,400,243.7,400,198
		C400,123.9,335.7,64,256,64z"/>
</g>
</svg>
