<?xml version="1.0" encoding="utf-8"?>
<!-- Generator: Adobe Illustrator 18.1.1, SVG Export Plug-In . SVG Version: 6.00 Build 0)  -->
<svg version="1.1" id="Layer_1" xmlns="http://www.w3.org/2000/svg" xmlns:xlink="http://www.w3.org/1999/xlink" x="0px" y="0px"
	 viewBox="0 0 512 512" enable-background="new 0 0 512 512" xml:space="preserve">
<g>
	<path d="M448.1,34.9c0-1.2-0.4-2.9-2.9-2.9H398H128.5c-54.3,0-64.4,27.4-64.4,39.8C94.4,76,96,76.5,96,108.5c0,16,0,307,0,307
		c0,35.3,28.9,64.5,64.3,64.5H368c35.3,0,64-29.2,64-64.5c0,0,0-3.7,0-10.2V405V73.3c2.2-17.5,12-31.8,13.1-33.5
		C446.3,37.9,448.1,36,448.1,34.9z M354.2,432H176.3c-15.9,0-29.7-11.9-32.3-27.1V80h240v319.7C384,417.7,371.6,432,354.2,432z"/>
	<path d="M182,160v226c0,4.4,3.6,8,8,8h148c4.4,0,8-3.6,8-8V160H182z"/>
</g>
</svg>
