<?xml version="1.0" encoding="utf-8"?>
<!-- Generator: Adobe Illustrator 18.1.1, SVG Export Plug-In . SVG Version: 6.00 Build 0)  -->
<svg version="1.1" id="Layer_1" xmlns="http://www.w3.org/2000/svg" xmlns:xlink="http://www.w3.org/1999/xlink" x="0px" y="0px"
	 viewBox="0 0 512 512" enable-background="new 0 0 512 512" xml:space="preserve">
<g>
	<path d="M191.6,272c-3.8,55-26.4,107.1-64.5,147.7c31.6,25,70.9,41,112.9,44.3V272H191.6z"/>
	<path d="M272,464c42-3.3,81.5-19.4,113.1-44.5c-38-40.6-60.5-92.5-64.3-147.5H272V464z"/>
	<path d="M240,48c-42,3.2-80.5,19-111.9,43.6c38,40.9,60.3,93.4,63.7,148.4H240V48z"/>
	<path d="M320.7,240c3.4-55,25.6-107.4,63.5-148.3C352.7,67.1,314,51.2,272,48v192H320.7z"/>
	<g>
		<path d="M408.6,114.2c-17.2,18.5-30.7,39.7-40.1,62.9c-8.2,20.2-13.1,40.9-14.6,62.9H464C460.3,192,439.9,147.8,408.6,114.2z"/>
		<path d="M368.5,333.1c9.6,23.7,23.3,45.1,40.9,63.8C440.3,363.4,460.3,320,464,272H354.1C355.7,293,360.6,313.5,368.5,333.1z"/>
		<path d="M143.9,177.1c-9.5-23.3-23-44.5-40.3-63.1C72.2,147.6,51.7,192,48,240h110.5C156.9,218,152,197.2,143.9,177.1z"/>
		<path d="M102.7,397.1c17.7-18.8,31.5-40.3,41.1-64c8-19.6,12.8-40.1,14.5-61.1H48C51.7,320,71.8,363.6,102.7,397.1z"/>
	</g>
</g>
</svg>
