<?xml version="1.0" encoding="utf-8"?>
<!-- Generator: Adobe Illustrator 18.1.1, SVG Export Plug-In . SVG Version: 6.00 Build 0)  -->
<svg version="1.1" id="Layer_1" xmlns="http://www.w3.org/2000/svg" xmlns:xlink="http://www.w3.org/1999/xlink" x="0px" y="0px"
	 viewBox="0 0 512 512" enable-background="new 0 0 512 512" xml:space="preserve">
<path d="M433.5,96H167.2c-12.2,0-21.8,6.2-28.2,15.6L43,256l96,144.2c6.4,9.4,16,15.8,28.2,15.8h266.2c19.5,0,35.5-16,35.5-35.6
	V131.6C469,112,453,96,433.5,96z M380.2,319.8l-25,25.1l-63.7-63.8l-63.7,63.8l-25-25.1l63.7-63.8l-63.7-63.8l25-25.1l63.7,63.8
	l63.7-63.8l25,25.1L316.5,256L380.2,319.8z"/>
</svg>
