<?xml version="1.0" encoding="utf-8"?>
<!-- Generator: Adobe Illustrator 18.1.1, SVG Export Plug-In . SVG Version: 6.00 Build 0)  -->
<svg version="1.1" id="Layer_1" xmlns="http://www.w3.org/2000/svg" xmlns:xlink="http://www.w3.org/1999/xlink" x="0px" y="0px"
	 viewBox="0 0 512 512" enable-background="new 0 0 512 512" xml:space="preserve">
<g>
	<path d="M276,304h-40c-15.4,0-28-12.6-28-28v-40c0-15.4,12.6-28,28-28h40c15.4,0,28,12.6,28,28v40C304,291.4,291.4,304,276,304z"/>
	<g>
		<path d="M176,280v-48c0-18.2,8.7-34.4,22.2-44.6C192,160,96,96,64,96c-17.6,0-32,14.4-32,32v256c0,17.6,14.3,32,32,32
			c32,0,128-64,134.2-91.4C184.7,314.4,176,298.2,176,280z"/>
		<path d="M448,96c-32,0-128,64-134.2,91.4c13.5,10.2,22.2,26.4,22.2,44.6v48c0,18.2-8.7,34.4-22.2,44.6C320,352,416,416,448,416
			c17.7,0,32-14.4,32-32V128C480,110.4,465.6,96,448,96z"/>
	</g>
</g>
</svg>
