<?xml version="1.0" encoding="utf-8"?>
<!-- Generator: Adobe Illustrator 18.1.1, SVG Export Plug-In . SVG Version: 6.00 Build 0)  -->
<svg version="1.1" id="Layer_1" xmlns="http://www.w3.org/2000/svg" xmlns:xlink="http://www.w3.org/1999/xlink" x="0px" y="0px"
	 viewBox="0 0 512 512" enable-background="new 0 0 512 512" xml:space="preserve">
<g>
	<path d="M405.2,64h-21c15,5.7,22.8,20.6,22.8,42.7v298.7c0,22.1-7,37.3-22.8,42.7h21c23.7,0,42.8-19.2,42.8-42.7V106.7
		C448,83.2,428.9,64,405.2,64z"/>
	<path d="M345.5,64.2c-1.4-0.1-2.8-0.2-4.2-0.2H106.7C83.2,64,64,83.2,64,106.7v298.7c0,23.5,19.2,42.7,42.7,42.7h234.7
		c1.4,0,2.8-0.1,4.2-0.2c21.5-2.1,38.5-20.4,38.5-42.5V106.7C384,84.6,367,66.3,345.5,64.2z M208,256l-56-32l-56,32V96h112V256z"/>
</g>
</svg>
