<?xml version="1.0" encoding="utf-8"?>
<!-- Generator: Adobe Illustrator 18.1.1, SVG Export Plug-In . SVG Version: 6.00 Build 0)  -->
<svg version="1.1" id="Layer_1" xmlns="http://www.w3.org/2000/svg" xmlns:xlink="http://www.w3.org/1999/xlink" x="0px" y="0px"
	 viewBox="0 0 512 512" enable-background="new 0 0 512 512" xml:space="preserve">
<path d="M362.1,205.2L272.9,72.5C269,66.8,262.5,64,256,64c-6.5,0-13,2.8-16.9,8.7l-89.2,132.5H52.4c-11.2,0-20.4,9.1-20.4,20.2
	c0,1.8,0.2,3.6,0.8,5.5l51.7,187.5c4.7,17,20.4,29.5,39.1,29.5h264.7c18.7,0,34.4-12.5,39.3-29.5l51.7-187.5l0.6-5.5
	c0-11.1-9.2-20.2-20.4-20.2H362.1z M194.9,205.2l61.1-89l61.1,89H194.9z M256,367.1c-22.4,0-40.7-18.2-40.7-40.5
	c0-22.3,18.3-40.5,40.7-40.5s40.7,18.2,40.7,40.5C296.7,348.9,278.4,367.1,256,367.1z"/>
</svg>
