<?xml version="1.0" encoding="utf-8"?>
<!-- Generator: Adobe Illustrator 22.0.1, SVG Export Plug-In . SVG Version: 6.00 Build 0)  -->
<svg version="1.1" id="Layer_1" xmlns="http://www.w3.org/2000/svg" xmlns:xlink="http://www.w3.org/1999/xlink" x="0px" y="0px"
	 viewBox="0 0 512 512" style="enable-background:new 0 0 512 512;" xml:space="preserve">
<path d="M261,149.3V64H48v384h416V149.3H261z M133.2,405.3H90.6v-42.7h42.6V405.3z M133.2,320H90.6v-42.7h42.6V320z M133.2,234.7
	H90.6V192h42.6V234.7z M133.2,149.3H90.6v-42.7h42.6V149.3z M218.4,405.3h-42.6v-42.7h42.6V405.3z M218.4,320h-42.6v-42.7h42.6V320z
	 M218.4,234.7h-42.6V192h42.6V234.7z M218.4,149.3h-42.6v-42.7h42.6V149.3z M421.4,405.3H261v-42.7h42.6V320H261v-42.7h42.6v-42.7
	H261V192h160.4V405.3z M383.8,234.7h-42.6v42.7h42.6V234.7z M383.8,320h-42.6v42.7h42.6V320z"/>
</svg>
