<?xml version="1.0" encoding="utf-8"?>
<!-- Generator: Adobe Illustrator 18.1.1, SVG Export Plug-In . SVG Version: 6.00 Build 0)  -->
<svg version="1.1" id="Layer_1" xmlns="http://www.w3.org/2000/svg" xmlns:xlink="http://www.w3.org/1999/xlink" x="0px" y="0px"
	 viewBox="0 0 512 512" enable-background="new 0 0 512 512" xml:space="preserve">
<g>
	<path d="M480,288v-64h-34.7c-2-12.1-5.2-23.8-9.3-35l30-17.3l-32-55.4l-30,17.3c-7.7-9.3-16.3-17.9-25.6-25.6l17.3-30l-55.4-32
		L323,76c-11.2-4.2-22.9-7.3-35-9.3V32h-64v34.7c-12.1,2-23.8,5.2-35,9.3l-17.3-30l-55.4,32l17.3,30c-9.3,7.7-17.9,16.3-25.6,25.6
		l-30-17.3l-32,55.4L76,189c-4.2,11.2-7.3,22.9-9.3,35H32v64h34.7c2,12.1,5.2,23.8,9.3,35l-30,17.3l32,55.4l30-17.3
		c7.7,9.3,16.3,17.9,25.6,25.6l-17.3,30l55.4,32l17.3-30c11.2,4.2,22.9,7.3,35,9.3V480h64v-34.7c12.1-2,23.8-5.2,35-9.3l17.3,30
		l55.4-32l-17.3-30c9.3-7.7,17.9-16.3,25.6-25.6l30,17.3l32-55.4L436,323c4.2-11.2,7.3-22.9,9.3-35H480z M256,224
		c17.7,0,32,14.3,32,32s-14.3,32-32,32s-32-14.3-32-32S238.3,224,256,224z M141.2,343c-18.3-24.2-29.2-54.3-29.2-87
		c0-6.1,0.4-12.1,1.1-18l46.9,17.1c0,0.3,0,0.6,0,0.9c0,17.8,4.9,34.5,13.3,48.8L141.2,343z M181.9,195L135,177.9
		c20.1-31.1,51.8-53.9,89-62.3v49.9C207.4,171.4,192.9,181.7,181.9,195z M256,400c-23.7,0-46-5.7-65.8-15.9l32.1-38.2
		c10.5,3.9,21.8,6.1,33.7,6.1s23.2-2.2,33.7-6.1l32.1,38.2C302,394.3,279.7,400,256,400z M288,165.5v-49.9
		c37.2,8.4,68.9,31.2,89,62.3L330.1,195C319.1,181.7,304.6,171.4,288,165.5z M370.8,343l-32.1-38.2c8.4-14.3,13.3-31,13.3-48.8
		c0-0.3,0-0.6,0-0.9l46.9-17.1c0.7,5.9,1.1,11.9,1.1,18C400,288.7,389.1,318.8,370.8,343z"/>
</g>
</svg>
