<?xml version="1.0" encoding="utf-8"?>
<!-- Generator: Adobe Illustrator 18.1.1, SVG Export Plug-In . SVG Version: 6.00 Build 0)  -->
<svg version="1.1" id="Layer_1" xmlns="http://www.w3.org/2000/svg" xmlns:xlink="http://www.w3.org/1999/xlink" x="0px" y="0px"
	 viewBox="0 0 512 512" enable-background="new 0 0 512 512" xml:space="preserve">
<g>
	<path d="M123.4,183c0.4-0.1,0.8-0.1,1.2-0.2C124.1,182.9,123.8,183,123.4,183z"/>
</g>
<path d="M393.2,219.2C380.5,154.6,323.9,106,256,106c-39.7,0-76,14-100.9,45.4c34.3,2.6,66.1,15.2,90.7,39.8
	c18.2,18.2,31,40.5,37.4,64.8h-33.5c-15.3-43.7-56-75-105.7-75c-6,0-14.3,0.7-20.6,2C70,194,32,238.4,32,293.5
	C32,355.6,82.2,406,144,406h242.7c51.5,0,93.3-42,93.3-93.8C480,262.8,441.7,222.6,393.2,219.2z"/>
</svg>
