<?xml version="1.0" encoding="utf-8"?>
<!-- Generator: Adobe Illustrator 18.1.1, SVG Export Plug-In . SVG Version: 6.00 Build 0)  -->
<svg version="1.1" id="Layer_1" xmlns="http://www.w3.org/2000/svg" xmlns:xlink="http://www.w3.org/1999/xlink" x="0px" y="0px"
	 viewBox="0 0 512 512" enable-background="new 0 0 512 512" xml:space="preserve">
<g>
	<path d="M430.9,393.4L311.3,274.4l0,0l-58.1-57.9l0,0l-13.4-13.3c15.9-40.6,7.1-88.2-26.6-121.7c-35.4-35.3-88.5-42.3-131-22.9
		l76.1,75.8l-53.1,52.9l-77.9-75.8C6.2,153.8,15,206.7,50.4,242c33.6,33.5,81.4,42.3,122.1,26.5l14.4,14.3L81.7,388
		c-7.6,5.7-7.6,19,1.9,26.6l43.8,43.7c7.6,7.6,19.1,7.6,26.7,0l96.1-112.4l113.4,112.9c7.1,7.1,17.7,7.1,24.8,0l40.7-40.6
		C438,411.1,438,398.7,430.9,393.4z"/>
	<path d="M494.4,216.6l-34.5-34.1c-2.2-2.2-5.8-2.2-8,0l-3.7,3.7l-18.5-15.8c0,0,1.2-10-4.9-18.7c-6.2-8.7-16.1-19.8-23.2-26.9
		c-7.1-7-34.1-33.9-69.7-51.4C296.2,55.7,271,48,241,48v29.7c0,0,28.7,16.6,45.1,29.7c16.3,13.1,16.8,59.5,16.8,59.5l-28.5,28.5
		l56.5,56.1l31-36.3c12.9-3.5,23.8-3.8,30.2-0.3l13.7,13.3l-9.6,9.5c-2.2,2.2-2.2,5.7,0,7.9l34.5,34.1c2.2,2.2,5.8,2.2,8,0
		l55.7-55.2C496.5,222.3,496.5,218.7,494.4,216.6z"/>
</g>
</svg>
