<?xml version="1.0" encoding="utf-8"?>
<!-- Generator: Adobe Illustrator 18.1.1, SVG Export Plug-In . SVG Version: 6.00 Build 0)  -->
<svg version="1.1" id="Layer_1" xmlns="http://www.w3.org/2000/svg" xmlns:xlink="http://www.w3.org/1999/xlink" x="0px" y="0px"
	 viewBox="0 0 512 512" enable-background="new 0 0 512 512" xml:space="preserve">
<g>
	<path d="M467.3,168.1c-1.8,0-3.5,0.3-5.1,1l-177.6,92.1c0,0-0.1,0-0.1,0c-7.6,4.7-12.5,12.5-12.5,21.4v185.9
		c0,6.4,5.6,11.5,12.7,11.5c2.2,0,4.3-0.5,6.1-1.4c0.2-0.1,0.4-0.2,0.5-0.3L466,385.6l0.3-0.1c8.2-4.5,13.7-12.7,13.7-22.1V179.6
		C480,173.2,474.3,168.1,467.3,168.1z"/>
	<path d="M454.3,118.5L272.6,36.8c0,0-10.7-4.8-16.6-4.8c-5.9,0-16.5,4.8-16.5,4.8L57.6,118.5c0,0-8,3.3-8,9.5
		c0,6.6,8.3,11.5,8.3,11.5l185.5,97.8c3.8,1.7,8.1,2.6,12.6,2.6c4.6,0,8.9-1,12.7-2.7l185.4-97.9c0,0,7.5-4,7.5-11.5
		C461.7,121.5,454.3,118.5,454.3,118.5z"/>
	<path d="M227.5,261.2L49.8,169c-1.5-0.6-3.3-1-5.1-1c-7,0-12.7,5.1-12.7,11.5v183.8c0,9.4,5.5,17.6,13.7,22.1l0.2,0.1l174.7,92.7
		c1.9,1.1,4.2,1.7,6.6,1.7c7,0,12.7-5.2,12.7-11.5V282.6C240,273.7,235,265.8,227.5,261.2z"/>
</g>
</svg>
