<?xml version="1.0" encoding="utf-8"?>
<!-- Generator: Adobe Illustrator 18.1.1, SVG Export Plug-In . SVG Version: 6.00 Build 0)  -->
<svg version="1.1" id="Layer_1" xmlns="http://www.w3.org/2000/svg" xmlns:xlink="http://www.w3.org/1999/xlink" x="0px" y="0px"
	 viewBox="0 0 512 512" enable-background="new 0 0 512 512" xml:space="preserve">
<path d="M256,48C141.2,48,48,141.2,48,256s93.2,208,208,208s208-93.2,208-208S370.8,48,256,48z M256,349.6
	c-51.8,0-93.6-41.8-93.6-93.6s41.8-93.6,93.6-93.6s93.6,41.8,93.6,93.6S307.8,349.6,256,349.6z M256,235.2
	c-11.4,0-20.8,9.4-20.8,20.8s9.4,20.8,20.8,20.8s20.8-9.4,20.8-20.8S267.4,235.2,256,235.2z"/>
</svg>
