<?xml version="1.0" encoding="utf-8"?>
<!-- Generator: Adobe Illustrator 18.1.1, SVG Export Plug-In . SVG Version: 6.00 Build 0)  -->
<svg version="1.1" id="Layer_1" xmlns="http://www.w3.org/2000/svg" xmlns:xlink="http://www.w3.org/1999/xlink" x="0px" y="0px"
	 viewBox="0 0 512 512" enable-background="new 0 0 512 512" xml:space="preserve">
<path d="M396,83.2c-13.8,1.7-31.1,4.2-49.6,4.2c-28.8,0-55-6.8-81.5-12.2C238,69.7,210.2,64,180.8,64c-58.6,0-78.5,12.1-80.6,13.4
	L96,80.3v3.1V224v53.4V448h20h28V269.8c9.7-1.2,21.9-2,36.9-2c27.3,0,52.8,10,79.8,15.5c27.6,5.6,56,11.5,86.9,11.5
	c18.4,0,34.6-2.4,48.4-4c7.5-0.9,14-1.7,20-2.7V100V80.2C411,81.2,403.5,82.3,396,83.2z"/>
</svg>
