<?xml version="1.0" encoding="utf-8"?>
<!-- Generator: Adobe Illustrator 22.0.1, SVG Export Plug-In . SVG Version: 6.00 Build 0)  -->
<svg version="1.1" id="Layer_1" xmlns="http://www.w3.org/2000/svg" xmlns:xlink="http://www.w3.org/1999/xlink" x="0px" y="0px"
	 viewBox="0 0 512 512" style="enable-background:new 0 0 512 512;" xml:space="preserve">
<path d="M434.3,315.5l29.7-29.7L434.3,256L360,330.3L181.7,152L256,77.7L226.3,48l-29.7,29.7L166.8,48l-44.5,44.5L92.5,62.8
	L62.8,92.5l29.7,29.7L48,166.8l29.7,29.7L48,226.3L77.7,256l74.3-74.3L330.3,360L256,434.3l29.7,29.7l29.7-29.7l29.7,29.7l44.5-44.5
	l29.7,29.7l29.7-29.7l-29.7-29.7l44.5-44.5L434.3,315.5z"/>
</svg>
