<?xml version="1.0" encoding="utf-8"?>
<!-- Generator: Adobe Illustrator 18.1.1, SVG Export Plug-In . SVG Version: 6.00 Build 0)  -->
<svg version="1.1" id="Layer_1" xmlns="http://www.w3.org/2000/svg" xmlns:xlink="http://www.w3.org/1999/xlink" x="0px" y="0px"
	 viewBox="0 0 512 512" enable-background="new 0 0 512 512" xml:space="preserve">
<path d="M449.2,208H423v-32l-14.4-48H383V96l-15-48H144l-15,48v32h-25.6L89,176v32H62.8L48,256v165.3c0,23.5,35.2,42.7,58.7,42.7
	h314.7c21.8,0,42.7-19.7,42.7-41V256L449.2,208z M176,96h160v32H176V96z M135,176h242v32H135V176z M417,288h-82.6
	c-7.4,36.5-39.7,64-78.4,64s-71-27.5-78.4-64H95v-32h322V288z"/>
</svg>
