<?xml version="1.0" encoding="utf-8"?>
<!-- Generator: Adobe Illustrator 18.1.1, SVG Export Plug-In . SVG Version: 6.00 Build 0)  -->
<svg version="1.1" id="Layer_1" xmlns="http://www.w3.org/2000/svg" xmlns:xlink="http://www.w3.org/1999/xlink" x="0px" y="0px"
	 viewBox="0 0 512 512" enable-background="new 0 0 512 512" xml:space="preserve">
<g>
	<path d="M405.1,256c25.2-11.9,42.9-37.1,42.9-66.9c0-41-33.6-74.3-75-74.3c-15.9,0-30.3,4.8-42.6,13.1l0.6-5.6
		c0-41-33.6-74.3-75-74.3s-75,33.3-75,74.3l0.6,5.6c-12-8.3-26.7-13.1-42.6-13.1c-41.4,0-75,33.3-75,74.3c0,29.7,17.7,55,42.9,66.9
		C81.7,267.9,64,293.1,64,322.9c0,41,33.6,74.3,75,74.3c15.9,0,30.3-4.8,42.6-13.1l-0.6,5.6c0,41,33.6,74.3,75,74.3s75-33.3,75-74.3
		l-0.6-5.6c12,8.3,26.7,13.1,42.6,13.1c41.4,0,75-33.3,75-74.3C448,293.1,430.3,267.9,405.1,256z M256,330.3
		c-41.4,0-75-33.3-75-74.3c0-41,33.6-74.3,75-74.3s75,33.3,75,74.3C331,297,297.4,330.3,256,330.3z"/>
</g>
</svg>
