<?xml version="1.0" encoding="utf-8"?>
<!-- Generator: Adobe Illustrator 18.1.1, SVG Export Plug-In . SVG Version: 6.00 Build 0)  -->
<svg version="1.1" id="Layer_1" xmlns="http://www.w3.org/2000/svg" xmlns:xlink="http://www.w3.org/1999/xlink" x="0px" y="0px"
	 viewBox="0 0 512 512" enable-background="new 0 0 512 512" xml:space="preserve">
<path d="M393.3,222.1l-0.2,10.4c-0.8,11.7-7.9,43.4-22.1,54.7c7-15.2,17.3-47.2,10.2-82.7C361.6,107,287.5,65.6,193,50l-17.2-2.2
	c39.5,47.2,56.1,81.7,49.7,116.8c-2.3,12.6-10,23.4-14,31.6c0,0,2.4-12.9,2-28.7c-0.3-14.2-6.6-31-18-39.6
	c3.5,18.4-0.8,33.5-9.1,47.7C161.7,217.8,101,233.4,96,311.4v3.8c0,53.7,25.6,99,68.7,125c-6.8-12.3-12-35.2-5.7-60.2
	c4,23.7,14,36,24.9,51.8c8.2,11.7,19.1,19.3,33.1,24.9s31,7.2,47.9,7.2c55.8,0,91.4-18.1,119.1-50.5s32.1-68,32.1-106.4
	S407.6,246.1,393.3,222.1z"/>
</svg>
