<?xml version="1.0" encoding="utf-8"?>
<!-- Generator: Adobe Illustrator 18.1.1, SVG Export Plug-In . SVG Version: 6.00 Build 0)  -->
<svg version="1.1" id="Layer_1" xmlns="http://www.w3.org/2000/svg" xmlns:xlink="http://www.w3.org/1999/xlink" x="0px" y="0px"
	 viewBox="0 0 512 512" enable-background="new 0 0 512 512" xml:space="preserve">
<path d="M256,48C141.3,48,48,141.3,48,256s93.3,208,208,208s208-93.3,208-208S370.7,48,256,48z M127,238.2l39.2,17.9l17.1,66.9
	l-15.6,29.3l-57.2-0.7c-14.9-22.6-24.3-48.5-27.5-75.3L127,238.2z M344.3,352.3L328.7,323l17.1-67l39.1-17.8l44,38.1
	c-3.1,26.8-12.6,52.7-27.5,75.3L344.3,352.3z M376.7,206.1l-43.6,19.6L272,174.1v-47.2l47.9-32.6c29.8,11.9,56.4,32.3,75.6,57.8
	L376.7,206.1z M191.3,94.4l47.7,32.5v47.2l-61,51.5L135,206l-18.7-53.6C135.6,126.3,161.4,106.4,191.3,94.4z M218.4,426
	c-0.7-0.2-1.3-0.3-2-0.5l-20.5-55.1l14.7-29.4h90.8l15,30.3l-19.8,53.9c-1,0.2-2,0.5-3,0.7c-11.5,2.3-27,3.8-40.4,4.1
	C241.5,429.9,229.8,428.5,218.4,426z"/>
</svg>
