<?xml version="1.0" encoding="utf-8"?>
<!-- Generator: Adobe Illustrator 18.1.1, SVG Export Plug-In . SVG Version: 6.00 Build 0)  -->
<svg version="1.1" id="Layer_1" xmlns="http://www.w3.org/2000/svg" xmlns:xlink="http://www.w3.org/1999/xlink" x="0px" y="0px"
	 viewBox="0 0 512 512" enable-background="new 0 0 512 512" xml:space="preserve">
<g>
	<polygon points="163,160 139,160 139,191 108,191 108,215 139,215 139,245 163,245 163,215 193,215 193,191 163,191 	"/>
	<path d="M467.1,204.1C461.9,141,419.4,96,360,96H152C92.6,96,50.2,141,45,204.1c0,0-13,134.7-13,163.9s21.5,48,48,48
		c13.1,0,25-5.3,34-13.9v0l-0.3,0L192,321h128l78.3,81l-0.3,0.1v0c9,8.6,20.9,13.9,34,13.9c26.5,0,48-20.3,48-48
		S467.1,204.1,467.1,204.1z M151,262c-33.1,0-60-27.1-60-60.5c0-33.4,26.9-60.5,60-60.5s60,27.1,60,60.5
		C211,234.9,184.1,262,151,262z M338.1,214.6c-7.2,7.2-19,7.2-26.2,0s-7.2-19,0-26.2c7.2-7.2,19-7.2,26.2,0
		C345.3,195.6,345.3,207.4,338.1,214.6z M375.6,252.1c-7.2,7.2-19,7.2-26.2,0c-7.2-7.2-7.2-19,0-26.2c7.2-7.2,19-7.2,26.2,0
		C382.8,233.1,382.8,244.9,375.6,252.1z M375.6,177.1c-7.2,7.2-19,7.2-26.2,0c-7.2-7.2-7.2-19,0-26.2c7.2-7.2,19-7.2,26.2,0
		C382.8,158.1,382.8,169.9,375.6,177.1z M413.1,214.6c-7.2,7.2-19,7.2-26.2,0c-7.2-7.2-7.2-19,0-26.2c7.2-7.2,19-7.2,26.2,0
		C420.3,195.6,420.3,207.4,413.1,214.6z"/>
</g>
</svg>
