<?xml version="1.0" encoding="utf-8"?>
<!-- Generator: Adobe Illustrator 22.0.1, SVG Export Plug-In . SVG Version: 6.00 Build 0)  -->
<svg version="1.1" id="Layer_1" xmlns="http://www.w3.org/2000/svg" xmlns:xlink="http://www.w3.org/1999/xlink" x="0px" y="0px"
	 viewBox="0 0 512 512" style="enable-background:new 0 0 512 512;" xml:space="preserve">
<path d="M424,134.5h-45.8c2.3-6.6,3.8-13.9,3.8-21.3c0-35.4-28.1-63.2-63-63.2c-22.1,0-41.2,10.7-52.5,28L256,92.3
	l-10.5-14.5C234.2,60.7,215.1,48,193,48c-34.9,0-63,29.8-63,65.2c0,7.5,1.5,14.7,3.8,21.3H88c-23.3,0-41.8,19-41.8,42.7L46,421.8
	c0,23.7,17.4,42.2,40.7,42.2h336.7c23.3,0,42.7-18.5,42.7-42.2V177.2C466,153.5,447.3,134.5,424,134.5z M320,91c11.6,0,21,9.5,21,21
	c0,11.6-9.4,21-21,21s-21-9.5-21-21C299,100.5,308.4,91,320,91z M192,91c11.6,0,21,9.5,21,21c0,11.6-9.4,21-21,21s-21-9.5-21-21
	C171,100.5,180.4,91,192,91z M88,177.2h106.7L151,237.5l34,25l50-69.1l0.2-0.2L235,421.8H88V177.2z M424,421.8H277V193.4l50,69.1
	l34-25l-43.7-60.4H424V421.8z"/>
</svg>
