<?xml version="1.0" encoding="utf-8"?>
<!-- Generator: Adobe Illustrator 18.1.1, SVG Export Plug-In . SVG Version: 6.00 Build 0)  -->
<svg version="1.1" id="Layer_1" xmlns="http://www.w3.org/2000/svg" xmlns:xlink="http://www.w3.org/1999/xlink" x="0px" y="0px"
	 viewBox="0 0 512 512" enable-background="new 0 0 512 512" xml:space="preserve">
<g>
	<path d="M416,376.6V206.8c0-46.4-3.7-70.8-22.1-94C374,87.7,348.9,77,310,77h-22V16l-96,96l96,96v-65h22c24.6,0,29,3.6,33.8,9.6
		c5.5,6.9,8.2,19.1,8.2,54.2v169.8c-19.1,11.1-32,31.7-32,55.4c0,35.3,28.7,64,64,64s64-28.7,64-64C448,408.3,435.1,387.7,416,376.6
		z M384,472c-22.1,0-40-17.9-40-40s17.9-40,40-40s40,17.9,40,40S406.1,472,384,472z"/>
	<path d="M128,48c-35.3,0-64,28.7-64,64c0,23.7,12.9,44.3,32,55.4v209.2c-19.1,11.1-32,31.7-32,55.4c0,35.3,28.7,64,64,64
		s64-28.7,64-64c0-23.7-12.9-44.3-32-55.4V167.4c19.1-11.1,32-31.7,32-55.4C192,76.7,163.3,48,128,48z M128,472
		c-22.1,0-40-17.9-40-40s17.9-40,40-40s40,17.9,40,40S150.1,472,128,472z M128,152c-22.1,0-40-17.9-40-40s17.9-40,40-40
		s40,17.9,40,40S150.1,152,128,152z"/>
</g>
</svg>
