<?xml version="1.0" encoding="utf-8"?>
<!-- Generator: Adobe Illustrator 18.1.1, SVG Export Plug-In . SVG Version: 6.00 Build 0)  -->
<svg version="1.1" id="Layer_1" xmlns="http://www.w3.org/2000/svg" xmlns:xlink="http://www.w3.org/1999/xlink" x="0px" y="0px"
	 viewBox="0 0 512 512" enable-background="new 0 0 512 512" xml:space="preserve">
<g>
	<path d="M192,382h-22c-24.6,0-29-3.6-33.8-9.6c-5.5-6.9-8.2-19.1-8.2-54.2V151.4c19.1-11.1,32-31.7,32-55.4c0-35.3-28.7-64-64-64
		S32,60.7,32,96c0,23.7,12.9,44.3,32,55.4v166.8c0,46.4,3.7,70.8,22.1,94c19.9,25.1,45,35.8,83.9,35.8h22v64l96-96l-96-96V382z
		 M96,56c22.1,0,40,17.9,40,40s-17.9,40-40,40s-40-17.9-40-40S73.9,56,96,56z"/>
	<path d="M448,360.6V190.8c0-46.4-3.7-70.8-22.1-94C406,71.7,380.9,62,342,62h-22V0l-96,96l96,96v-64h22c24.6,0,29,2.6,33.8,8.6
		c5.5,6.9,8.2,19.1,8.2,54.2v169.8c-19.1,11.1-32,31.7-32,55.4c0,35.3,28.7,64,64,64s64-28.7,64-64C480,392.3,467.1,371.7,448,360.6
		z M416,456c-22.1,0-40-17.9-40-40s17.9-40,40-40s40,17.9,40,40S438.1,456,416,456z"/>
</g>
</svg>
