<?xml version="1.0" encoding="utf-8"?>
<!-- Generator: Adobe Illustrator 18.1.1, SVG Export Plug-In . SVG Version: 6.00 Build 0)  -->
<svg version="1.1" id="Layer_1" xmlns="http://www.w3.org/2000/svg" xmlns:xlink="http://www.w3.org/1999/xlink" x="0px" y="0px"
	 viewBox="0 0 512 512" enable-background="new 0 0 512 512" xml:space="preserve">
<path d="M256,48C141.1,48,48,141.1,48,256s93.1,208,208,208s208-93.1,208-208S370.9,48,256,48z M317,404l-12.2-39.6
	c13-5.8,24.9-14,35.3-24.4c10.4-10.4,18.6-22.3,24.4-35.3l39.5,12.1c-7.9,19.3-19.7,37-34.9,52.2C354,384.3,336.3,396.1,317,404z
	 M195,108l12.2,39.6c-13,5.8-24.9,14-35.3,24.4c-10.4,10.4-18.6,22.3-24.4,35.3l-39.5-12.1c7.9-19.3,19.7-37,34.9-52.2
	C158,127.7,175.7,115.9,195,108z M256,192c35.3,0,64,28.7,64,64c0,35.3-28.7,64-64,64s-64-28.7-64-64C192,220.7,220.7,192,256,192z
	 M369.1,142.9c15.2,15.2,26.9,32.9,34.9,52.1l-39.5,12.2c-5.9-13-14-24.9-24.4-35.3c-10.4-10.4-22.3-18.6-35.3-24.4l12.1-39.5
	C336.2,115.9,353.9,127.7,369.1,142.9z M142.9,369.1C127.7,354,115.9,336.3,108,317l39.5-12.2c5.9,13,14,24.9,24.4,35.3
	c10.4,10.4,22.3,18.6,35.3,24.4l-12.1,39.5C175.8,396.1,158.1,384.3,142.9,369.1z"/>
</svg>
