<?xml version="1.0" encoding="utf-8"?>
<!-- Generator: Adobe Illustrator 18.1.1, SVG Export Plug-In . SVG Version: 6.00 Build 0)  -->
<svg version="1.1" id="Layer_1" xmlns="http://www.w3.org/2000/svg" xmlns:xlink="http://www.w3.org/1999/xlink" x="0px" y="0px"
	 viewBox="0 0 512 512" enable-background="new 0 0 512 512" xml:space="preserve">
<g>
	<path d="M256,48C141.2,48,48,141.2,48,256s93.2,208,208,208s208-93.2,208-208S370.8,48,256,48z M277,381h-42v-42h42V381z
		 M276.8,318h-41.6c0-67,62.4-62.2,62.4-103.8c0-22.9-18.7-41.7-41.6-41.7S214.4,192,214.4,214h-41.6c0-46,37.2-83,83.2-83
		c46,0,83.2,37.1,83.2,83.1C339.2,266.1,276.8,272,276.8,318z"/>
</g>
</svg>
