<?xml version="1.0" encoding="utf-8"?>
<!-- Generator: Adobe Illustrator 22.0.1, SVG Export Plug-In . SVG Version: 6.00 Build 0)  -->
<svg version="1.1" id="Layer_1" xmlns="http://www.w3.org/2000/svg" xmlns:xlink="http://www.w3.org/1999/xlink" x="0px" y="0px"
	 viewBox="0 0 512 512" style="enable-background:new 0 0 512 512;" xml:space="preserve">
<g>
	<path d="M51.9,76.6l25,25c-18.1,20.3-29,47.3-29,77.6c0,79.5,70.7,143.3,177.8,241.7L256,448l30.2-27.2
		c20.6-18.9,39.9-36.6,57.5-53.3l92.2,92l24-24L76.1,52.5L51.9,76.6z"/>
	<path d="M464,179.1C464,114.2,414.1,64,349.6,64c-36.4,0-70.7,16.7-93.6,43.9C233.1,80.7,198.8,64,162.4,64
		c-8.4,0-16.5,0.9-24.3,2.5l253.7,253.1C437.3,270.9,464,228,464,179.1z"/>
</g>
</svg>
