<?xml version="1.0" encoding="utf-8"?>
<!-- Generator: Adobe Illustrator 22.0.1, SVG Export Plug-In . SVG Version: 6.00 Build 0)  -->
<svg version="1.1" id="Layer_1" xmlns="http://www.w3.org/2000/svg" xmlns:xlink="http://www.w3.org/1999/xlink" x="0px" y="0px"
	 viewBox="0 0 512 512" style="enable-background:new 0 0 512 512;" xml:space="preserve">
<path d="M349.6,64c-36.4,0-70.7,16.7-93.6,43.9C233.1,80.7,198.8,64,162.4,64C97.9,64,48,114.2,48,179.1
	c0,79.5,70.7,143.3,177.8,241.7L256,448l30.2-27.2C393.3,322.4,464,258.6,464,179.1C464,114.2,414.1,64,349.6,64z M256,406l0-248.3
	l24.5-29.1c17.1-20.4,43-32.5,69.1-32.5c22.6,0,43.4,8.4,58.7,23.8c15.3,15.4,23.7,36.5,23.7,59.3c0,29-12.5,57.5-40.4,92.2
	C362.8,307,306.4,359.7,256,406z"/>
</svg>
