<?xml version="1.0" encoding="utf-8"?>
<!-- Generator: Adobe Illustrator 18.1.1, SVG Export Plug-In . SVG Version: 6.00 Build 0)  -->
<svg version="1.1" id="Layer_1" xmlns="http://www.w3.org/2000/svg" xmlns:xlink="http://www.w3.org/1999/xlink" x="0px" y="0px"
	 viewBox="0 0 512 512" enable-background="new 0 0 512 512" xml:space="preserve">
<path d="M474.1,398.2L229.8,167.8c0,0,8.8-57.7,26.2-71.8C273.5,81.8,304,64,304,64V32c-32,0-58.8,8.3-96.9,27.3
	c-38,18.9-66.8,47.8-74.4,55.4c-7.6,7.6-18.1,19.5-24.7,28.9s-5.3,20.1-5.3,20.1l-19.7,17l-4-4c-2.3-2.3-6.2-2.3-8.5,0l-36.8,36.8
	c-2.3,2.3-2.3,6.2,0,8.5l59.4,59.4c2.3,2.3,6.2,2.3,8.5,0l36.8-36.8c2.3-2.3,2.3-6.2,0-8.5l-10.3-10.3l14.6-14.3
	c6.8-3.7,25.4-8.9,39.1-5.1l214.9,267.3c8.1,8.2,20.3,8.2,28.5,0l46.8-47.1C482.3,418.6,482.3,404.3,474.1,398.2z"/>
</svg>
