<?xml version="1.0" encoding="utf-8"?>
<!-- Generator: Adobe Illustrator 19.2.0, SVG Export Plug-In . SVG Version: 6.00 Build 0)  -->
<svg version="1.1" id="Layer_1" xmlns="http://www.w3.org/2000/svg" xmlns:xlink="http://www.w3.org/1999/xlink" x="0px" y="0px"
	 viewBox="0 0 512 512" style="enable-background:new 0 0 512 512;" xml:space="preserve">
<g>
	<g>
		<path d="M256,164.3c-50.6,0-91.7,41.1-91.7,91.7c0,50.6,41.1,91.7,91.7,91.7s91.7-41.1,91.7-91.7
			C347.7,205.4,306.6,164.3,256,164.3z"/>
		<g>
			<circle cx="394" cy="124.6" r="43.8"/>
		</g>
		<g>
			<path d="M445.3,169.8c-7.4,8.4-16.9,15-27.6,19c8.6,20.7,13.4,43.4,13.4,67.2c0,96.6-78.6,175.2-175.2,175.2
				c-96.6,0-175.2-78.6-175.2-175.2c0-96.6,78.6-175.2,175.2-175.2c26.9,0,52.3,6.1,75.1,16.9c4.5-10.5,11.5-19.6,20.3-26.6
				C322.8,56.4,290.4,48,256,48C141.1,48,48,141.1,48,256c0,114.9,93.1,208,208,208s208-93.1,208-208
				C464,225.3,457.3,196.1,445.3,169.8z"/>
		</g>
	</g>
</g>
</svg>
