<?xml version="1.0" encoding="utf-8"?>
<!-- Generator: Adobe Illustrator 18.1.1, SVG Export Plug-In . SVG Version: 6.00 Build 0)  -->
<svg version="1.1" id="Layer_1" xmlns="http://www.w3.org/2000/svg" xmlns:xlink="http://www.w3.org/1999/xlink" x="0px" y="0px"
	 viewBox="0 0 512 512" enable-background="new 0 0 512 512" xml:space="preserve">
<g>
	<path d="M478.7,269.8c-4.7-33.4-18.7-61.8-35.7-59.8c6.8,15.3,12.1,36.8,10.3,75.3c-1.5-27-6.6-52.4-18-75.3
		c-33.7-67.5-105.7-112.2-186.3-107.7c-90.2,5-162.7,69.7-180.6,153.3l-12,1.7c-18.1,2.5-28.3,36.4-22.8,75.7
		c5.5,39.3,24.7,69.2,42.8,66.7l16.6-2.3c36.4,58.8,103.4,96.5,177.8,92.4c89.6-4.9,161.7-68.9,180.2-151.7l7.7-0.5
		C474.6,335,483.6,304.8,478.7,269.8z M81.6,264.4c7.1,5.6,26.5,18.5,31.4,57.6c4.9,39.1-8.9,58.9-15,67.1c6.3-15.5,6.5-39,3-64.7
		C97.6,299.4,91.5,277.7,81.6,264.4z M274.7,385.7c-8.9,0.5-16.6-6.3-17.1-15.2c-0.5-8.9,6.3-16.4,15.3-16.9
		c8.9-0.5,16.6,6.3,17.1,15.2C290.5,377.7,283.6,385.3,274.7,385.7z M359.7,380.9c-8.9,0.5-16.6-6.3-17.1-15.2
		c-0.5-8.9,6.3-16.4,15.3-16.9c8.9-0.5,16.6,6.3,17.1,15.2C375.5,372.8,368.6,380.4,359.7,380.9z"/>
	<path d="M160.6,61.7C160.6,61.7,160.7,61.7,160.6,61.7c0.1,0.1,0.1,0.2,0.1,0.2c0,0,0,0,0,0c0.1,0.2,0.2,0.4,0.3,0.5
		c0,0,0,0.1,0,0.1c0.4,1.1,1.2,2,2.4,2.9c2.1,1.5,5.2,2.5,9,3.1c3.6,0.6,7.9,0.7,12.5,0.5c1,0,2-0.1,3.1-0.2
		c-0.4-0.5-0.9-0.9-1.3-1.4c-0.5,0-0.9,0-1.4,0c-4.5,0.1-8.7-0.2-12.2-0.9c-3.7-0.7-6.8-1.9-8.8-3.6c-0.6-0.5-1-1-1.4-1.5
		c-0.2-0.7-0.2-1.5,0-2.4c0.5-2.4,2.5-5,5.7-7.8c2.9-2.4,6.7-4.9,11.4-7.3c0.9-0.5,1.8-0.9,2.8-1.4c0.2-0.1,0.3-0.1,0.5-0.2
		c-0.8,3.5-1,7.2-0.3,10.9c2.4,12.5,13.2,21.2,25.5,21.6l5.2,27.5l11.3-2.1l-5.2-27.5c11.3-4.8,18.2-16.8,15.8-29.3
		c-0.7-3.7-2.1-7-4.1-9.9c-5.6-0.8-16.4-0.8-30.7,2.2c1.1-0.3,2.2-0.7,3.4-1c8-2.2,15.7-3.7,22.6-4.4c0.6-0.1,1.3-0.1,1.9-0.2
		c1.2-0.1,2.5-0.2,3.7-0.3c0.2,0,0.4,0,0.6,0c4.3-0.2,8.1-0.1,11.3,0.4c2.5,0.3,4.7,0.8,6.4,1.5c-0.6,1-1,2.1-1,3.3
		c0,2.9,1.9,5.3,4.5,6.1c0,0,0,0,0,0c-0.6,1-1.3,2-2.2,3c-0.9,1-1.9,1.9-3,2.9c-1.1,0.9-2.4,1.9-3.7,2.8l-6.8,3.9
		c-0.1,0.5-0.2,1.1-0.3,1.6c0.1,0,0.2-0.1,0.3-0.1l8.8-4.9c1.3-0.8,2.5-1.7,3.6-2.5c1.2-1,2.3-1.9,3.3-2.9c1-1,1.8-2,2.5-2.9
		c0.1-0.2,0.2-0.4,0.3-0.6c3.2-0.4,5.6-3,5.6-6.3c0-3.5-2.9-6.4-6.4-6.4c-1,0-2,0.3-2.9,0.7c-2.1-1.3-5-2.2-8.6-2.9
		c-4.5-0.8-10-1-16.3-0.7c-0.7,0-1.5,0.1-2.2,0.2c-0.7,0.1-1.4,0.2-2.1,0.2c-5.6-3.6-12.5-5.2-19.6-3.9c-8.3,1.5-15,6.8-18.6,13.6
		c-1.4,0.6-2.7,1.1-4,1.7c-0.7,0.3-1.4,0.6-2.1,1c-6.2,3.1-11.2,6.3-14.6,9.5c-3.3,3-5.2,6-5.6,8.7c-0.2,1.5,0,2.9,0.8,4.1
		C160.4,61.3,160.5,61.5,160.6,61.7z"/>
</g>
</svg>
