<?xml version="1.0" encoding="utf-8"?>
<!-- Generator: Adobe Illustrator 18.1.1, SVG Export Plug-In . SVG Version: 6.00 Build 0)  -->
<svg version="1.1" id="Layer_1" xmlns="http://www.w3.org/2000/svg" xmlns:xlink="http://www.w3.org/1999/xlink" x="0px" y="0px"
	 viewBox="0 0 512 512" enable-background="new 0 0 512 512" xml:space="preserve">
<path d="M480,32c0,0-23.4-0.7-59.3,27.1C404,72,244.9,186.8,244.9,186.8l-168.8-4.2L32,222l109.8,55.2l-8.6,10.8
	l-87.9,0.1l-7.2,40.5l63.1,48.7l-26.6,59.8l60-26.4l48.7,63.1l40.5-7.2l0.1-87.8l10.9-8.5L290.1,480l39.3-44.1l-4.2-168.7
	c0,0,114.9-159,127.8-175.6C480.7,55.5,480,32,480,32z"/>
</svg>
