<?xml version="1.0" encoding="utf-8"?>
<!-- Generator: Adobe Illustrator 18.1.1, SVG Export Plug-In . SVG Version: 6.00 Build 0)  -->
<svg version="1.1" id="Layer_1" xmlns="http://www.w3.org/2000/svg" xmlns:xlink="http://www.w3.org/1999/xlink" x="0px" y="0px"
	 viewBox="0 0 512 512" enable-background="new 0 0 512 512" xml:space="preserve">
<path d="M160,64v257.6c-8.2-2.7-17.2-4.1-26.6-4.1c-38.3,0-69.4,27.1-69.4,65.4c0,38.3,31.1,65.1,69.4,65.1
	c38.3,0,69.6-28.2,69.6-69.1V200h202v121.6c-8.2-2.7-17.2-4.1-26.6-4.1c-38.3,0-69.4,27.1-69.4,65.4c0,38.3,31.1,65.1,69.4,65.1
	c38.3,0,69.6-28.2,69.6-69.1V64H160z M405,160H203v-53h202V160z"/>
</svg>
