<?xml version="1.0" encoding="utf-8"?>
<!-- Generator: Adobe Illustrator 22.0.1, SVG Export Plug-In . SVG Version: 6.00 Build 0)  -->
<svg version="1.1" id="Layer_1" xmlns="http://www.w3.org/2000/svg" xmlns:xlink="http://www.w3.org/1999/xlink" x="0px" y="0px"
	 viewBox="0 0 512 512" style="enable-background:new 0 0 512 512;" xml:space="preserve">
<g>
	<circle cx="432" cy="128" r="64"/>
	<path d="M382.9,203.4L256,288L80,170.7V128l176,117.3l101.1-67.4c-9.5-14.3-15.1-31.5-15.1-49.9c0-17.6,5.1-34.1,13.9-48H74.7
		C51.2,80,32,99.2,32,122.7v266.7c0,23.5,19.2,42.7,42.7,42.7h362.7c23.5,0,42.7-19.2,42.7-42.7V204.1c-13.9,8.8-30.4,13.9-48,13.9
		C413.9,218,397,212.6,382.9,203.4z"/>
</g>
</svg>
