<?xml version="1.0" encoding="utf-8"?>
<!-- Generator: Adobe Illustrator 18.1.1, SVG Export Plug-In . SVG Version: 6.00 Build 0)  -->
<svg version="1.1" id="Layer_1" xmlns="http://www.w3.org/2000/svg" xmlns:xlink="http://www.w3.org/1999/xlink" x="0px" y="0px"
	 viewBox="0 0 512 512" enable-background="new 0 0 512 512" xml:space="preserve">
<g>
	<path d="M382.1,143.4L359,166.4c14.7,14.7,23.9,35.2,23.9,57.6c0,22.4-9.2,42.9-23.9,57.6l23.1,23.1c20.6-20.6,33.4-49.2,33.4-80.6
		S402.7,164,382.1,143.4z"/>
	<path d="M428.2,99l-22.7,22.7c26.1,26.1,42.3,62.4,42.3,102.3c0,39.8-16.1,76.1-42.3,102.3l22.7,22.7c31.9-32.1,51.8-76.3,51.8-125
		S460.2,131.1,428.2,99z"/>
	<path d="M320,184.1V80h-32l-96,80H64l-32,16v112l32,16l80,128h48l-30-128h30l96,64h32V263.9c18.4-1.7,32-18.9,32-39.9
		C352,203,338.4,185.8,320,184.1z"/>
</g>
</svg>
