<?xml version="1.0" encoding="utf-8"?>
<!-- Generator: Adobe Illustrator 18.1.1, SVG Export Plug-In . SVG Version: 6.00 Build 0)  -->
<svg version="1.1" id="Layer_1" xmlns="http://www.w3.org/2000/svg" xmlns:xlink="http://www.w3.org/1999/xlink" x="0px" y="0px"
	 viewBox="0 0 512 512" enable-background="new 0 0 512 512" xml:space="preserve">
<path d="M384,112V84.4c0-29-24.5-52.4-54.8-52.4H182.9C152.5,32,128,55.4,128,84.4V112h152v37H128v43h152v37H128v43h152v37H128v41.8
	c0,29,24.5,52.2,54.9,52.2H213v77h86v-77h30.2c30.3,0,54.8-23.2,54.8-52.2V309h-56v-37h56v-43h-56v-37h56v-43h-56v-37H384z"/>
</svg>
