<?xml version="1.0" encoding="utf-8"?>
<!-- Generator: Adobe Illustrator 18.1.1, SVG Export Plug-In . SVG Version: 6.00 Build 0)  -->
<svg version="1.1" id="Layer_1" xmlns="http://www.w3.org/2000/svg" xmlns:xlink="http://www.w3.org/1999/xlink" x="0px" y="0px"
	 viewBox="0 0 512 512" enable-background="new 0 0 512 512" xml:space="preserve">
<path d="M416,48H288v48h94.1L275.4,202.6C251.9,185.9,223.1,176,192,176c-79.5,0-144,64.5-144,144s64.5,144,144,144
	s144-64.5,144-144c0-31.1-9.9-59.9-26.6-83.4L416,129.9V224h48V96V48H416z M192,416c-52.9,0-96-43.1-96-96s43.1-96,96-96
	s96,43.1,96,96S244.9,416,192,416z"/>
</svg>
