<?xml version="1.0" encoding="utf-8"?>
<!-- Generator: Adobe Illustrator 18.1.1, SVG Export Plug-In . SVG Version: 6.00 Build 0)  -->
<svg version="1.1" id="Layer_1" xmlns="http://www.w3.org/2000/svg" xmlns:xlink="http://www.w3.org/1999/xlink" x="0px" y="0px"
	 viewBox="0 0 512 512" enable-background="new 0 0 512 512" xml:space="preserve">
<g>
	<path d="M357.2,235.6L274.7,153h-0.8c-8.1-6-18.2-10.3-28.4-10.3c-13.7,0-26.1,6.3-34.3,16.3h-0.6L53,414.1v0.8
		c-3,6.2-5,13.3-5,20.8c0,24.4,19.7,44.3,44.3,44.3c9.4,0,18-2.9,27.4-9.1l232.9-168.1c10.9-8.3,17.4-21.6,17.4-36
		C370,254.8,365.3,243.6,357.2,235.6z"/>
	<polygon points="464,145.1 434.8,96.1 398.2,116.4 429.7,60.5 380.6,32 313.3,159.8 354.6,201.2 	"/>
</g>
</svg>
