<?xml version="1.0" encoding="utf-8"?>
<!-- Generator: Adobe Illustrator 18.1.1, SVG Export Plug-In . SVG Version: 6.00 Build 0)  -->
<svg version="1.1" id="Layer_1" xmlns="http://www.w3.org/2000/svg" xmlns:xlink="http://www.w3.org/1999/xlink" x="0px" y="0px"
	 viewBox="0 0 512 512" enable-background="new 0 0 512 512" xml:space="preserve">
<path d="M369.5,32H142.4C81.5,32,32,82.6,32,144.6v222.8c0,62,49.5,112.6,110.4,112.6h227.2c60.9,0,110.5-50.6,110.5-112.6V144.6
	C480,82.6,430.5,32,369.5,32z M175,251v0.7c0,10.9-9.1,20.4-19.9,20.4h-23.3c-10.8,0-19.9-9.5-19.9-20.4V251V149.5v-1.4
	c1-10.8,9.2-20.2,19.9-20.2h23.3c10.9,0,19.9,9.8,19.9,20.8V251z M297,398.4c0,11.4-8.9,17.6-20.1,17.6h-41.8
	c-11.2,0-20.1-8.1-20.1-19.6v-29.3c0-23.3,18.1-42.3,41-42.3c22.9,0,41,19,41,42.3V398.4z M400,251v0.7c0,10.9-9.1,20.4-19.9,20.4
	h-24.3c-10.8,0-19.9-9.5-19.9-20.4V251V149.5v-1.4c1-10.8,9.2-20.2,19.9-20.2h24.3c10.8,0,19.9,9.8,19.9,20.8V251z"/>
</svg>
