<?xml version="1.0" encoding="utf-8"?>
<!-- Generator: Adobe Illustrator 22.0.1, SVG Export Plug-In . SVG Version: 6.00 Build 0)  -->
<svg version="1.1" id="Layer_1" xmlns="http://www.w3.org/2000/svg" xmlns:xlink="http://www.w3.org/1999/xlink" x="0px" y="0px"
	 viewBox="0 0 512 512" style="enable-background:new 0 0 512 512;" xml:space="preserve">
<g>
	<path d="M459.5,165.9c-4.7-10.5-12.7-18.1-23.1-22c-4.8-1.7-9.7-2.6-14.8-2.6c-21.7,0-43.7,16.7-54.9,41.6
		c-13.8,30.9-5.8,61,18.6,70.3c4.9,1.8,10.1,2.8,15.6,2.8c22.1,0,44.6-15.3,55.9-38.1C465.3,200.4,466.3,181.1,459.5,165.9z"/>
	<path d="M145.3,182.8c-11.1-24.9-33.2-41.6-54.9-41.6c-5.1,0-10.1,0.9-14.8,2.6c-10.4,3.9-18.3,11.5-23.1,22
		c-6.9,15.2-5.9,34.6,2.7,51.9c11.3,22.8,33.8,38.1,55.9,38.1c5.4,0,10.7-0.9,15.6-2.8C151.1,243.9,159.1,213.7,145.3,182.8z"/>
	<path d="M193.5,179.4c2,0.1,4,0,6-0.2c11.7-0.9,22.3-5.9,30.6-14.3c13.4-13.6,17.1-34.9,14.3-56.8c-4.3-33.7-25.8-59-54.8-60.1
		c0,0-4.1,0-6.2,0.2c-12.8,1.1-24.4,6.5-33.5,15.9c-13.3,13.6-19.7,33.7-17.1,53.8C137.1,151.3,163.7,178.3,193.5,179.4z"/>
	<path d="M256,224c-69.3,0-138.7,97.1-138.7,176.3c0,23.6,11.8,42.6,23.5,50.4c14.4,9.6,24.5,13.4,45.5,13.4
		c13.4,0,21.6-2.5,28.1-6.1c12.3-6.7,25.9-10.4,39.9-10.4h3.5c14,0,27.6,3.8,39.9,10.4c6.5,3.5,14.7,6.1,28.1,6.1
		c21.1,0,31.2-3.8,45.5-13.4c11.6-7.8,23.5-26.8,23.5-50.4C394.7,321,325.3,224,256,224z"/>
	<path d="M312.6,179.1c2,0.2,4,0.2,6,0.2c29.8-1.1,56.5-28,60.8-61.5c2.6-20.2-3.8-40.4-17.1-53.8c-9.2-9.3-20.3-14.6-33.1-15.6
		c-2.1-0.2-6.7-0.2-6.7-0.2c-28.9,1.1-50.4,26.1-54.8,59.9c-2.8,21.9,0.9,43.3,14.3,56.8C290.4,173.2,301,178.1,312.6,179.1z"/>
</g>
</svg>
