<?xml version="1.0" encoding="utf-8"?>
<!-- Generator: Adobe Illustrator 18.1.1, SVG Export Plug-In . SVG Version: 6.00 Build 0)  -->
<svg version="1.1" id="Layer_1" xmlns="http://www.w3.org/2000/svg" xmlns:xlink="http://www.w3.org/1999/xlink" x="0px" y="0px"
	 viewBox="0 0 512 512" enable-background="new 0 0 512 512" xml:space="preserve">
<g>
	<path d="M135.7,151c-2.5,3-4.9,6-7.2,9.2c32.2,36.3,76.1,76.5,124.2,113.7c37.8,29.2,76.3,55.2,111.4,75.1
		c5.9,3.3,11.7,6.5,17.3,9.4c2.5-3,4.9-6,7.2-9.2c11.7-16.1,18.1-33.2,23.3-53.6c0.8-3.2,1.5-6.4,2.1-9.5
		c15.8-83-35.6-164.9-118.5-185.9c-37-9.4-74.1-5.1-106.3,9.7C167.8,119.8,151,132.8,135.7,151z"/>
	<path d="M418.2,326.8c-4.1,11-7.4,17.5-7.4,17.5c18.2,21.1,24.6,33.9,31.9,46.4c2.4,4.1,7.4,13.1,0.9,12.4
		c-1.7-0.3-3.5-0.7-5.5-1.3c-21.3-5.4-51.2-18.7-84.3-37.4c-35.8-20.3-74.9-46.7-113.3-76.3c-51.1-39.5-97.5-82.3-130.6-120.5
		c-15.3-17.6-27.6-34.2-35.7-47.9c-2.4-4.1-3.9-6.3-5.6-10.4c-2.5-6.2,5-5.1,7-4.6c14.9,3.8,35,9.9,58.2,23.8c0,0,4.3-4.8,13.9-11.4
		c-22.8-15.4-44.6-27.7-65.2-35.5c-23.1-8.8-41.1-6.8-47.5,3.7c-12.2,19.9,14,72.3,65.3,132c-21.5,86,30.6,173.3,116.5,195
		c41.1,10.4,82.4,3.9,116.8-15c38.1,17.6,72.1,28.6,96.9,34.9c23.9,6.1,40.4,5.5,46.8-4.9C488.4,409.1,465.2,375.5,418.2,326.8z"/>
</g>
</svg>
