<?xml version="1.0" encoding="utf-8"?>
<!-- Generator: Adobe Illustrator 18.1.1, SVG Export Plug-In . SVG Version: 6.00 Build 0)  -->
<svg version="1.1" id="Layer_1" xmlns="http://www.w3.org/2000/svg" xmlns:xlink="http://www.w3.org/1999/xlink" x="0px" y="0px"
	 viewBox="0 0 512 512" enable-background="new 0 0 512 512" xml:space="preserve">
<path d="M428,269c-21.5,0-40.6,13.1-48.4,33h-41.2L307,221.3c-2.7-8.2-10.3-13.7-19-13.7c-0.2,0-0.3,0-0.4,0
	c-8.8,0.2-16.4,6-18.8,14.5l-33.6,135.4L179.7,65.7C178,55.6,169.6,48,160,48c-9.5,0-16.9,6.2-19.4,16.2L90.3,302H32v40h74
	c9.2,0,17.2-6.2,19.4-15.2l30.7-160.6l54.1,282.1c1.5,8.8,8.9,15.1,18.6,15.7c0.4,0,0.8,0,1.2,0c9.3,0,16.9-5.3,19.2-13.5
	l40.2-162.9l15.5,40.7c2.7,8.2,10.3,13.7,19,13.7h56.4c8.3,19,27.1,31,47.6,31c13.9,0,26.9-5.6,36.8-15.8
	c9.8-10.1,15.2-23.3,15.2-37.2C480,291.4,457.2,269,428,269z"/>
</svg>
