<?xml version="1.0" encoding="utf-8"?>
<!-- Generator: Adobe Illustrator 18.1.1, SVG Export Plug-In . SVG Version: 6.00 Build 0)  -->
<svg version="1.1" id="Layer_1" xmlns="http://www.w3.org/2000/svg" xmlns:xlink="http://www.w3.org/1999/xlink" x="0px" y="0px"
	 viewBox="0 0 512 512" enable-background="new 0 0 512 512" xml:space="preserve">
<path d="M416,64H257.6L76.5,251.6c-8,8-12.3,18.5-12.5,29c-0.3,11.3,3.9,22.6,12.5,31.2l123.7,123.6c8,8,20.8,12.5,28.8,12.5
	s22.8-3.9,31.4-12.5L448,256V96L416,64z M385.3,166.7c-21.7,6.1-41.3-10-41.3-30.7c0-17.7,14.3-32,32-32c20.7,0,36.8,19.6,30.7,41.3
	C403.8,155.6,395.6,163.8,385.3,166.7z"/>
</svg>
