<?xml version="1.0" encoding="utf-8"?>
<!-- Generator: Adobe Illustrator 18.1.1, SVG Export Plug-In . SVG Version: 6.00 Build 0)  -->
<svg version="1.1" id="Layer_1" xmlns="http://www.w3.org/2000/svg" xmlns:xlink="http://www.w3.org/1999/xlink" x="0px" y="0px"
	 viewBox="0 0 512 512" enable-background="new 0 0 512 512" xml:space="preserve">
<g>
	<path d="M459.5,190.5c-4.7-12.7-12.7-21.9-23.1-26.6c-4.8-2.1-9.7-3.2-14.8-3.2c-21.7,0-43.7,20.2-54.9,50.3
		c-13.8,37.3-5.8,73.8,18.6,85c4.9,2.2,10.1,3.4,15.6,3.4c22.1,0,44.6-18.5,55.9-46.1C465.3,232.3,466.3,208.9,459.5,190.5z"/>
	<path d="M145.3,211c-11.1-30.1-33.2-50.3-54.9-50.3c-5.1,0-10.1,1.1-14.8,3.2c-10.4,4.7-18.3,13.9-23.1,26.6
		c-6.9,18.4-5.9,41.8,2.7,62.7c11.3,27.6,33.8,46.1,55.9,46.1c5.4,0,10.7-1.1,15.6-3.4C151.1,284.8,159.1,248.3,145.3,211z"/>
	<path d="M193.5,206.8c2,0.1,4,0,6-0.2c11.7-1.1,22.3-7.1,30.6-17.3c13.4-16.5,17.1-42.2,14.3-68.7c-4.3-40.8-25.8-71.3-54.8-72.6
		c0,0-4.1,0-6.2,0.2c-12.8,1.3-24.4,7.9-33.5,19.2c-13.3,16.4-19.7,40.7-17.1,65.1C137.1,172.9,163.7,205.5,193.5,206.8z"/>
	<path d="M256,238.7c-69.3,0-138.7,82.4-138.7,161.6c0,23.6,11.8,42.6,23.5,50.4c14.4,9.6,24.5,13.4,45.5,13.4
		c25,0,31.8-8.8,43.5-16.5c8.5-5.6,15.8-10.4,26.2-10.4c10.4,0,17.7,4.8,26.2,10.4c11.7,7.7,18.5,16.5,43.5,16.5
		c21.1,0,31.2-3.8,45.5-13.4c11.6-7.8,23.5-26.8,23.5-50.4C394.7,321.1,325.3,238.7,256,238.7z"/>
	<path d="M312.6,206.5c2,0.2,4,0.3,6,0.2c29.8-1.3,56.5-33.9,60.8-74.3c2.6-24.4-3.8-48.8-17.1-65.1c-9.2-11.3-20.3-17.6-33.1-18.8
		c-2.1-0.2-6.7-0.3-6.7-0.3c-28.9,1.3-50.4,31.5-54.8,72.4c-2.8,26.5,0.9,52.3,14.3,68.7C290.4,199.3,301,205.3,312.6,206.5z"/>
</g>
</svg>
