<?xml version="1.0" encoding="utf-8"?>
<!-- Generator: Adobe Illustrator 18.1.1, SVG Export Plug-In . SVG Version: 6.00 Build 0)  -->
<svg version="1.1" id="Layer_1" xmlns="http://www.w3.org/2000/svg" xmlns:xlink="http://www.w3.org/1999/xlink" x="0px" y="0px"
	 viewBox="0 0 512 512" enable-background="new 0 0 512 512" xml:space="preserve">
<g>
	<g>
		<rect x="252.5" y="100.5" transform="matrix(0.7071 -0.7071 0.7071 0.7071 -1.5754 224.2894)" width="34.9" height="27.2"/>
		<path d="M176,125.7c-45.3,0-82.3,37-82.3,82.3c0,17.5,5.5,33.7,14.9,47c15.3-13,33.9-22.6,54.7-27.6l13.2-16.6
			c13.6-17.1,30.7-30.2,50.8-38.9c6.1-2.6,12.4-4.8,19-6.6C231.8,141.6,205.7,125.7,176,125.7z"/>
		<rect x="162" y="64" width="28" height="41"/>
		<rect x="32" y="194" width="41" height="28"/>
		<polygon points="81.6,276.8 80.8,276 56.1,300.7 75.3,319.9 100,295.2 		"/>
		<rect x="64.6" y="100.5" transform="matrix(0.7071 0.7071 -0.7071 0.7071 104.6738 -24.6121)" width="34.9" height="27.2"/>
	</g>
	<path d="M405.6,288.6C394.7,233.4,346.2,192,288,192c-34,0-65.1,11.9-86.5,38.8c29.4,2.2,56.7,13,77.8,33.9
		c15.6,15.6,26.6,34.6,32.1,55.3h-28.7c-13.1-37.3-48-64-90.6-64c-5.1,0-12.3,0.6-17.7,1.7C128.6,267.1,96,305,96,352
		c0,53,43,96,96,96h208c44.2,0,80-35.8,80-80C480,325.8,447.2,291.5,405.6,288.6z"/>
</g>
</svg>
