<?xml version="1.0" encoding="utf-8"?>
<!-- Generator: Adobe Illustrator 18.1.1, SVG Export Plug-In . SVG Version: 6.00 Build 0)  -->
<svg version="1.1" id="Layer_1" xmlns="http://www.w3.org/2000/svg" xmlns:xlink="http://www.w3.org/1999/xlink" x="0px" y="0px"
	 viewBox="0 0 512 512" enable-background="new 0 0 512 512" xml:space="preserve">
<g>
	<path d="M96,124.2c0-6.9,5.2-12.2,12.2-12.2H176V64h-66.8C75.7,64,48,90.7,48,124.2V192h48V124.2z"/>
	<path d="M403.6,64H336v48h67.2c6.9,0,12.8,5.2,12.8,12.2V192h48v-67.8C464,90.7,437,64,403.6,64z"/>
	<path d="M416,386.8c0,6.9-5.2,12.2-12.2,12.2H336v49h67.8c33.5,0,60.2-27.7,60.2-61.2V320h-48V386.8z"/>
	<path d="M108.2,399c-6.9,0-12.2-5.2-12.2-12.2V320H48v66.8c0,33.5,27.7,61.2,61.2,61.2H176v-49H108.2z"/>
</g>
</svg>
