<?xml version="1.0" encoding="utf-8"?>
<!-- Generator: Adobe Illustrator 18.1.1, SVG Export Plug-In . SVG Version: 6.00 Build 0)  -->
<svg version="1.1" id="Layer_1" xmlns="http://www.w3.org/2000/svg" xmlns:xlink="http://www.w3.org/1999/xlink" x="0px" y="0px"
	 viewBox="0 0 512 512" enable-background="new 0 0 512 512" xml:space="preserve">
<g>
	<path d="M260.6,214.8c23.8-40.9,48-71.6,91.4-96.4c8.3-4.8,21.2-8,22.8-8.9C290.7,83.7,256,32,256,32s-34.7,51.7-120.5,76.5
		c5.8,3.4,16.5,6.5,30.7,13.7C200.7,139.6,228.7,173.5,260.6,214.8z"/>
	<path d="M246.3,253.4C186.7,161.2,131.4,126.8,48,126.8c54.2,78.6,52,174.6,52,215.4c0,76.1,69.8,137.8,156,137.8
		c57.6,0,107.9-27.6,135-68.7C355.5,383.7,305.9,345.6,246.3,253.4z"/>
	<path d="M464,126.8c0,0-55.2-2.3-85.2,15.4c-43,25.5-74.4,61.3-95.4,103.2c38.8,52,73,87.9,95.4,109.4
		c10.7,10.2,19.8,18.2,27.5,24.5c3.7-11.8,5.8-24.3,5.8-37.2C412,301.3,394.7,228,464,126.8z"/>
</g>
</svg>
