<?xml version="1.0" encoding="utf-8"?>
<!-- Generator: Adobe Illustrator 18.1.1, SVG Export Plug-In . SVG Version: 6.00 Build 0)  -->
<svg version="1.1" id="Layer_1" xmlns="http://www.w3.org/2000/svg" xmlns:xlink="http://www.w3.org/1999/xlink" x="0px" y="0px"
	 viewBox="0 0 512 512" enable-background="new 0 0 512 512" xml:space="preserve">
<g id="Icon_39_">
	<g>
		<path d="M369.8,160c-53.4,0-96.2,42.8-96.2,96c0,23.6,7.9,44.5,21.9,61.1h-78.8c14-16.6,21.9-37.5,21.9-61.1
			c0-53.2-42.9-96-96.2-96S46,202.8,46,256s42.9,96,96.2,96h227.5c53.4,0,96.2-42.8,96.2-96S423.1,160,369.8,160z M142.2,317.1
			C108.1,317.1,81,290,81,256s27.1-61.1,61.2-61.1s61.2,27.1,61.2,61.1S176.4,317.1,142.2,317.1z M369.8,317.1
			c-34.1,0-61.2-27.1-61.2-61.1s27.1-61.1,61.2-61.1S431,222,431,256S403.9,317.1,369.8,317.1z"/>
	</g>
</g>
</svg>
