<?xml version="1.0" encoding="utf-8"?>
<!-- Generator: Adobe Illustrator 18.1.1, SVG Export Plug-In . SVG Version: 6.00 Build 0)  -->
<svg version="1.1" id="Layer_1" xmlns="http://www.w3.org/2000/svg" xmlns:xlink="http://www.w3.org/1999/xlink" x="0px" y="0px"
	 viewBox="0 0 512 512" enable-background="new 0 0 512 512" xml:space="preserve">
<g>
	<path d="M256,48C141.6,48,48,141.6,48,256s93.6,208,208,208s208-93.6,208-208S370.4,48,256,48z M368,242h-98l44.8-44.8
		C300.1,181.8,279.1,172,256,172c-46.2,0-84,37.8-84,84c0,46.2,37.8,84,84,84c34.9,0,65.3-21.2,77.6-52h29.8
		c-13.9,46.3-56.3,80-107.4,80c-62.3,0-112-50.4-112-112s50.4-112,112-112c30.8,0,58.8,12.6,79.1,32.9L368,144V242z"/>
</g>
</svg>
