<?xml version="1.0" encoding="utf-8"?>
<!-- Generator: Adobe Illustrator 18.1.1, SVG Export Plug-In . SVG Version: 6.00 Build 0)  -->
<svg version="1.1" id="Layer_1" xmlns="http://www.w3.org/2000/svg" xmlns:xlink="http://www.w3.org/1999/xlink" x="0px" y="0px"
	 viewBox="0 0 512 512" enable-background="new 0 0 512 512" xml:space="preserve">
<polygon points="461.4,298.5 453.1,267.6 365.1,291.2 304.7,256.3 365.1,221.4 453.1,245 461.4,214.1 404.3,198.8 462,165.5 
	438,124 381.4,156.7 396.7,99.6 365.8,91.3 342.2,179.3 280,215.2 280,144.1 344.5,79.7 321.8,57.1 280,98.9 280,32 232,32 
	232,97.6 190.3,55.9 167.7,78.5 232,142.9 232,214.3 171.3,179.3 147.7,91.3 116.8,99.6 132.1,156.7 74.4,123.3 50.4,164.9 
	107.1,197.6 50,212.9 58.3,243.8 146.2,220.2 208.8,256.3 146.2,292.5 58.3,268.9 50,299.8 107.1,315.1 50.4,347.8 74.4,389.3 
	132.1,356 116.8,413 147.7,421.3 171.3,333.4 232,298.3 232,369.2 167.7,433.6 190.3,456.2 232,414.4 232,480 280,480 280,413.2 
	321.9,454.9 344.4,432.3 280,368 280,297.4 342.2,333.4 365.8,421.3 396.7,413 381.4,356 438,388.7 462,347.1 404.3,313.8 "/>
</svg>
