<?xml version="1.0" encoding="utf-8"?>
<!-- Generator: Adobe Illustrator 18.1.1, SVG Export Plug-In . SVG Version: 6.00 Build 0)  -->
<svg version="1.1" id="Layer_1" xmlns="http://www.w3.org/2000/svg" xmlns:xlink="http://www.w3.org/1999/xlink" x="0px" y="0px"
	 viewBox="0 0 512 512" enable-background="new 0 0 512 512" xml:space="preserve">
<g>
	<path d="M168,216h94.9c14.5,14.8,34.7,24,57.1,24c44.2,0,80-35.8,80-80c0-44.2-35.8-80-80-80c-22.4,0-42.6,9.2-57.1,24H168
		c-30.8,0-56,25.2-56,56S137.2,216,168,216z M151.1,143.1c4.6-4.6,10.6-7.1,16.9-7.1h75.7c-2.4,7.6-3.7,15.6-3.7,24s1.3,16.4,3.7,24
		H168c-6.3,0-12.4-2.5-16.9-7.1c-4.6-4.6-7.1-10.6-7.1-16.9S146.5,147.6,151.1,143.1z"/>
	<path d="M344,296h-94.9c-14.5-14.8-34.7-24-57.1-24c-44.2,0-80,35.8-80,80c0,44.2,35.8,80,80,80c22.4,0,42.6-9.2,57.1-24H344
		c30.8,0,56-25.2,56-56S374.8,296,344,296z M360.9,368.9c-4.6,4.6-10.6,7.1-16.9,7.1h-75.7c2.4-7.6,3.7-15.6,3.7-24
		s-1.3-16.4-3.7-24H344c6.3,0,12.4,2.5,16.9,7.1c4.6,4.6,7.1,10.6,7.1,16.9S365.5,364.4,360.9,368.9z"/>
</g>
</svg>
