<?xml version="1.0" encoding="utf-8"?>
<!-- Generator: Adobe Illustrator 22.0.1, SVG Export Plug-In . SVG Version: 6.00 Build 0)  -->
<svg version="1.1" id="Layer_1" xmlns="http://www.w3.org/2000/svg" xmlns:xlink="http://www.w3.org/1999/xlink" x="0px" y="0px"
	 viewBox="0 0 512 512" style="enable-background:new 0 0 512 512;" xml:space="preserve">
<g>
	<path d="M256,48c-88,0-176,10.9-176,87.6v208c0,42.3,34.5,76.6,77,76.6l-33,32.8V464h49.1l44-43.8H300l44,43.8h44v-10.9l-33-32.8
		c42.5,0,77-34.4,77-76.6v-208C432,58.9,353.2,48,256,48z M157,376.4c-18.3,0-33-14.7-33-32.8s14.7-32.8,33-32.8s33,14.7,33,32.8
		S175.3,376.4,157,376.4z M234,223.2H124v-87.6h110V223.2z M278,223.2v-87.6h110v87.6H278z M355,376.4c-18.3,0-33-14.7-33-32.8
		s14.7-32.8,33-32.8s33,14.7,33,32.8S373.3,376.4,355,376.4z"/>
</g>
</svg>
