<?xml version="1.0" encoding="utf-8"?>
<!-- Generator: Adobe Illustrator 18.1.1, SVG Export Plug-In . SVG Version: 6.00 Build 0)  -->
<svg version="1.1" id="Layer_1" xmlns="http://www.w3.org/2000/svg" xmlns:xlink="http://www.w3.org/1999/xlink" x="0px" y="0px"
	 viewBox="0 0 512 512" enable-background="new 0 0 512 512" xml:space="preserve">
<path d="M352,32v35h63.1l-81.4,80.5c-7.5-7.2-13.2-11-13.2-11C302.2,123.6,280,116,256,116c-30.2,0-57.6,12-77.8,31.4l-15.2-15
	l31.4-31.4l-28.5-28.5l-31.5,31.5L96.9,67H160V32H32v128h35V91.3l40.3,39.9l-31.2,31.2l28.5,28.5l31.4-31.4l19.4,19.2
	c-7.3,14.9-11.5,31.7-11.5,49.5c0,54.8,39.5,100.4,91.1,110.2v45.3h-63V424h63v56h42v-56h63v-40.2h-63v-45.3
	c50.8-9.9,91.2-55.5,91.2-110.3c0-17.7-4.2-34.8-11.5-49.6L445,91.3V160h35V32H352z M256,290c-35.3,0-64-28.7-64-64
	c0-35.3,28.7-64,64-64c35.3,0,64,28.7,64,64C320,261.3,291.3,290,256,290z"/>
</svg>
