<?xml version="1.0" encoding="utf-8"?>
<!-- Generator: Adobe Illustrator 22.0.1, SVG Export Plug-In . SVG Version: 6.00 Build 0)  -->
<svg version="1.1" id="Layer_1" xmlns="http://www.w3.org/2000/svg" xmlns:xlink="http://www.w3.org/1999/xlink" x="0px" y="0px"
	 viewBox="0 0 512 512" style="enable-background:new 0 0 512 512;" xml:space="preserve">
<path d="M405.3,32H106.7C83.2,32,64,51.2,64,74.7v362.7c0,23.5,19.2,42.7,42.7,42.7h298.7c23.5,0,42.7-19.2,42.7-42.7V74.7
	C448,51.2,428.8,32,405.3,32z M401.3,437.3H110.7c-2.2,0-4-1.8-4-4V78.7c0-2.2,1.8-4,4-4h290.7c2.2,0,4,1.8,4,4v354.7
	C405.3,435.5,403.5,437.3,401.3,437.3z"/>
<path d="M145,194v204c0,1.1,0.9,2,2,2h218c1.1,0,2-0.9,2-2V194c0-1.1-0.9-2-2-2H147C145.9,192,145,192.9,145,194z"/>
<path d="M145,114.7v34c0,1.1,0.9,2,2,2h171c1.1,0,2-0.9,2-2v-34c0-1.1-0.9-2-2-2H147C145.9,112.7,145,113.6,145,114.7z"/>
</svg>
