<?xml version="1.0" encoding="utf-8"?>
<!-- Generator: Adobe Illustrator 22.0.1, SVG Export Plug-In . SVG Version: 6.00 Build 0)  -->
<svg version="1.1" id="Layer_1" xmlns="http://www.w3.org/2000/svg" xmlns:xlink="http://www.w3.org/1999/xlink" x="0px" y="0px"
	 viewBox="0 0 512 512" style="enable-background:new 0 0 512 512;" xml:space="preserve">
<g>
	<path d="M202.7,341.3V170.7c0-23.5,19-42.7,42.7-42.7h197v-21.3c0-23.5-18.9-42.7-42.3-42.7H92c-23.7,0-44,18.5-44,42v300
		c0,23.5,20.3,42,44,42h308c23.5,0,42.3-19.2,42.3-42.7V384h-197C221.7,384,202.7,364.8,202.7,341.3z"/>
	<path d="M245,186v140c0,8.8,7.2,16,16,16h187c8.8,0,16-7.2,16-16V186c0-8.8-7.2-16-16-16H261C252.2,170,245,177.2,245,186z
		 M322.1,287.9c-19.3,1.2-35.2-14.7-34-34c1-15.9,13.9-28.8,29.9-29.9c19.3-1.2,35.2,14.7,34,34C350.9,274,338,286.9,322.1,287.9z"
		/>
</g>
</svg>
