<?xml version="1.0" encoding="UTF-8"?>
<svg id="Layer_1" data-name="Layer 1" xmlns="http://www.w3.org/2000/svg" viewBox="0 0 141.73 141.73">
  <defs>
    <style>
      .cls-1 {
        fill: #555759;
      }
    </style>
  </defs>
  <path class="cls-1" d="M74.44,71.57c-2.1,.72-3.2,2.93-2.49,5.04,.71,2.12,3.01,3.26,5.1,2.54,2.06-.71,3.19-3,2.5-5.07-.7-2.11-3-3.24-5.11-2.51m1.73,5.01c-.66,.23-1.4-.12-1.65-.79-.25-.7,.12-1.47,.83-1.69,.68-.21,1.4,.16,1.62,.83,.22,.65-.16,1.42-.81,1.65"/>
  <g>
    <path class="cls-1" d="M111.08,65.52c-5.79-.01-11.58-.02-17.37-.04-1.91,0-3.82,0-5.73,0-.6,0-1.15,.15-1.44,.75-.22,.45-.18,.88,.1,1.3,.37,.56,.92,.59,1.51,.58,7.59,0,15.18,.01,22.77,.03,1.4,0,1.8,.4,1.79,1.77,0,3.39-.02,6.79-.03,10.18,0,1.5-.36,1.85-1.88,1.84-3.45,0-6.9-.02-10.35-.02-10.49-.01-20.98-.03-31.48-.02-.66,0-.79-.21-.77-.81,.04-1.77,.03-3.54,.02-5.31,0-1.02-.46-1.54-1.32-1.56-.81-.02-1.29,.54-1.29,1.56-.02,1.86-.03,3.71-.01,5.56,0,.38-.03,.52-.5,.53-2.05,.05-2.05,.08-2.05-1.92,0-3.71,.02-7.42,0-11.13,0-.53,.07-.79,.71-.78,1.78,.03,1.78,0,1.84,1.79,0,.08,.02,.17,.02,.25,.06,.72,.6,1.25,1.27,1.25,.71,0,1.25-.47,1.33-1.2,.04-.4,.05-.8,0-1.2-.1-.73,.21-.9,.9-.89,4.36,.04,8.73,.04,13.09,.05,.96,0,1.53-.52,1.54-1.34,0-.75-.57-1.28-1.51-1.28-6.39-.02-12.77-.04-19.16-.04-1.21,0-2.37,.76-2.47,1.86-.1,1.14-.73,1.01-1.45,1-.26,0-.52-.04-.77-.01-.38,.05-.48-.08-.53-.45-.23-1.58-1.19-2.4-2.82-2.41-5.53-.01-11.06-.01-16.6,0-1.68,0-2.7,.97-2.77,2.62-.02,.6-.22,.66-.75,.65-2.08-.03-4.16,0-6.24,.01-2.18,0-3.15,.97-3.16,3.14,0,.26,.03,.51,.02,.77-.08,2.01,.12,4.02-.11,6.03l.5,1.47c.86,.85,1.9,1.11,3.1,1.07,2-.07,3.99,0,5.99-.03,.46,0,.61,.07,.63,.6,.06,1.71,1.07,2.68,2.79,2.69,5.56,.03,11.13,.04,16.69,.03,1.53,0,2.42-.81,2.72-2.34,.03-.17-.08-.47,.22-.48,.71-.03,1.43-.01,2.14,0,.24,0,.2,.23,.23,.39,.33,1.74,1.2,2.46,3.04,2.46,15.89,.02,31.79,.04,47.69,.06,2.5,0,4.13-1.62,4.14-4.15,.02-3.54,.02-7.08,.01-10.62,0-2.72-1.56-4.28-4.25-4.28m-67.61,3.63c.08-.37-.23-.84,.19-1.11,.53,0,.98,.02,1.44,.02,1.48,0,2.95,0,4.43-.02,.49,0,.67,.18,.56,.64-.08,.34,.31,.9-.49,.89-1.9-.02-3.81,0-5.71,0-.28,0-.51-.04-.43-.42m-7.81,8.69c0,.46-.02,.72-.63,.7-2.08-.04-4.16-.01-6.25,.01-.44,0-.65-.09-.64-.59,.03-2.02,.04-4.05,.04-6.07,0-.3-.08-.54,.4-.54,2.36,.02,4.73,0,7.08-.01,0,2.22,0,4.36,0,6.5m4.04,3.98q-1.43,0-1.43-1.39c0-3.9,0-7.8,.03-11.7,0-.21-.22-.6,.14-.68,.76,0,1.41-.03,2.07,0,.52,.02,.32,.46,.32,.73,0,3.98,0,7.97,0,11.95,0,1.1,0,1.1-1.12,1.09m10.39-.67c.06,.42,.03,.73-.58,.72-1.85-.05-3.69-.03-5.54-.04-.23,0-.58,.14-.51-.32,.06-.39-.18-.83,.13-1.16,.21,0,.35-.02,.5-.02,1.82,0,3.64,.07,5.45,0,.81-.03,.51,.48,.55,.82m-.58-3.43c-1.85-.04-3.7-.01-5.55-.01-.28,0-.53,.05-.52-.43,.04-1.53,0-3.07,.01-4.61,0-.17-.05-.42,.29-.49,.06,0,.18,0,.29,0,1.82,0,3.64,.03,5.46,0,.52,0,.62,.15,.6,.64-.04,1.42-.04,2.84,0,4.26,.01,.46-.04,.64-.58,.63m5.76,3.37c0,.67-.19,.78-.81,.76-1.74-.04-1.75-.01-1.75-1.76,0-3.74,.02-7.47,0-11.2,0-.69,.19-.92,.87-.82,.42,.06,.85-.01,1.28,0,.17,0,.43-.04,.42,.08,0,.58,0,.95,0,1.32,0,3.88-.03,7.75,0,11.63m5.15-2.56c0,.19,.09,.42-.39,.47-.52,0-1.2,0-1.89-.02-.28,0-.26-.24-.26-.45,0-2.4,.01-4.8,.02-7.19,0-.06-.03-.14,0-.17,.64-.58,1.39-.13,2.08-.24,.42-.07,.48,.17,.48,.49-.01,2.37-.02,4.74-.03,7.1"/>
    <path class="cls-1" d="M115.83,48.09v11.54c0,.74-.6,1.35-1.35,1.35s-1.35-.6-1.35-1.35v-11.54c0-.31-.24-.56-.56-.56h-6.79v11.15c0,1.26-1.03,2.29-2.29,2.29h-3.94c-1.12,0-2.03-.91-2.03-2.03v-11.41H29.29c-.3,0-.55,.25-.55,.55v9.63c0,.31,.25,.56,.56,.56H93.49c.74,0,1.35,.6,1.35,1.35s-.6,1.35-1.35,1.35H29.29c-1.79,0-3.25-1.46-3.25-3.26v-9.62c0-1.8,1.46-3.26,3.25-3.26H98.2c1.11,0,2.02,.9,2.02,2.02v11.44s.11-.01,.17-.01h2.7v-11.42c0-1.11,.9-2.02,2.02-2.02h7.47c1.8,0,3.26,1.46,3.26,3.26"/>
    <path class="cls-1" d="M82.28,34.78h14.69c1.52,0,2.68,.44,3.53,1.34,1.86,1.97,1.67,5.03,1.67,5.08-.05,.75,.52,1.4,1.28,1.45,.75,.04,1.41-.52,1.46-1.28,.01-.19,.28-4.27-2.4-7.12-1.38-1.47-3.24-2.22-5.53-2.22h-14.75c-.18,0-4.45,.16-7.03-3.36-2.73-3.73-2.5-9.58-2.5-9.62,.04-.76-.53-1.4-1.29-1.45-.03,0-.06,0-.08,0-.72,0-1.32,.56-1.36,1.29-.01,.24-.3,6.86,3.02,11.4,3.47,4.74,9.13,4.5,9.3,4.48"/>
    <path class="cls-1" d="M85.54,29.8h14.59c7.61,.26,7.45,10.99,7.44,11.45-.02,.76,.57,1.39,1.33,1.41,.73,.02,1.39-.57,1.41-1.33,.13-4.62-1.81-13.98-10.13-14.27h-14.69s-.07,0-.1,0c-.05,0-4.85,.3-6.46-2.8-.81-1.56-.88-4.3-.84-5.23,.03-.75-.55-1.39-1.3-1.43-.02,0-.04,0-.07,0-.73,0-1.33,.57-1.37,1.3,0,.17-.18,4.08,1.14,6.62,2.35,4.53,8.33,4.31,9.03,4.27"/>
    <path class="cls-1" d="M39.42,99.7h14.69c1.52,0,2.68,.44,3.53,1.34,1.86,1.97,1.67,5.03,1.67,5.08-.05,.75,.52,1.4,1.28,1.45,.75,.04,1.41-.52,1.46-1.28,.01-.19,.28-4.27-2.4-7.12-1.38-1.47-3.24-2.22-5.53-2.22h-14.75c-.18,0-4.45,.16-7.03-3.36-2.73-3.73-2.5-9.58-2.5-9.62,.04-.76-.53-1.4-1.29-1.45-.03,0-.06,0-.08,0-.72,0-1.32,.56-1.36,1.29-.01,.24-.3,6.86,3.02,11.4,3.47,4.74,9.13,4.5,9.3,4.48"/>
    <path class="cls-1" d="M42.68,94.72h14.59c7.61,.26,7.45,10.99,7.44,11.45-.02,.76,.57,1.39,1.33,1.41,.73,.02,1.39-.57,1.41-1.33,.13-4.62-1.81-13.98-10.13-14.27h-14.69s-.07,0-.1,0c-.05,0-4.85,.3-6.46-2.8-.81-1.56-.88-4.3-.84-5.23,.03-.75-.55-1.39-1.3-1.43-.02,0-.04,0-.07,0-.73,0-1.33,.57-1.37,1.3,0,.17-.18,4.08,1.14,6.62,2.35,4.53,8.33,4.31,9.03,4.27"/>
  </g>
  <path class="cls-1" d="M70.87,9.3c-31.26,0-56.7,25.44-56.7,56.7s25.44,56.69,56.7,56.69,56.69-25.43,56.69-56.69S102.13,9.3,70.87,9.3Zm0,108.85c-28.76,0-52.16-23.39-52.16-52.15,0-12.39,4.35-23.78,11.59-32.74l22.85,22.86,9.15,9.15,4.35,4.35h0l9.11,9.12,11.68,11.68,16.15,16.14c-8.96,7.25-20.35,11.59-32.73,11.59Zm36.13-14.59l-4.25-4.25-16.2-16.21-13.48-13.48-4.35-4.35-8.43-8.43-26.98-26.98c9.49-9.86,22.81-16.02,37.56-16.02,28.76,0,52.15,23.4,52.15,52.16,0,14.74-6.15,28.06-16.02,37.56Z"/>
</svg>