<?xml version="1.0" encoding="UTF-8"?>
<svg id="Layer_1" data-name="Layer 1" xmlns="http://www.w3.org/2000/svg" viewBox="0 0 141.73 141.73">
  <defs>
    <style>
      .cls-1 {
        fill: #54575a;
      }
    </style>
  </defs>
  <path class="cls-1" d="M125.16,120.14H16.57v-45.66H125.16v45.66Zm-104.59-4H121.16v-37.66H20.57v37.66Z"/>
  <path class="cls-1" d="M127.57,78.47H14.16v-11.29H127.57v11.29Zm-109.42-4H123.57v-3.29H18.16v3.29Z"/>
  <g>
    <path class="cls-1" d="M43.81,120.14h-15.62v-45.66h15.62v45.66Zm-11.62-4h7.62v-37.66h-7.62v37.66Z"/>
    <path class="cls-1" d="M55.43,120.14h-15.62v-45.66h15.62v45.66Zm-11.62-4h7.62v-37.66h-7.62v37.66Z"/>
    <path class="cls-1" d="M67.05,120.14h-15.62v-45.66h15.62v45.66Zm-11.62-4h7.62v-37.66h-7.62v37.66Z"/>
    <path class="cls-1" d="M78.68,120.14h-15.62v-45.66h15.62v45.66Zm-11.62-4h7.62v-37.66h-7.62v37.66Z"/>
    <path class="cls-1" d="M90.3,120.14h-15.62v-45.66h15.62v45.66Zm-11.62-4h7.62v-37.66h-7.62v37.66Z"/>
    <path class="cls-1" d="M101.92,120.14h-15.62v-45.66h15.62v45.66Zm-11.62-4h7.62v-37.66h-7.62v37.66Z"/>
    <path class="cls-1" d="M113.54,120.14h-15.62v-45.66h15.62v45.66Zm-11.62-4h7.62v-37.66h-7.62v37.66Z"/>
  </g>
  <path class="cls-1" d="M95.73,48.89c-.04,.46-.03,.92-.13,1.36-.22,1-1.09,1.6-2.09,1.53-1.01-.08-1.72-.71-1.82-1.73-.06-.68-.06-1.37-.02-2.06,.06-1.19,.84-1.93,1.98-1.95,1.13-.01,1.92,.71,2.03,1.9,.03,.31,0,.63,0,.95,.02,0,.03,0,.04,0"/>
  <path class="cls-1" d="M104.32,48.95c0-.34-.02-.69,0-1.03,.07-1.13,.82-1.86,1.94-1.88,1.14-.02,1.97,.72,2.04,1.87,.03,.63,.03,1.26,0,1.89-.05,1.18-.91,2-2.05,1.98-1.14-.02-1.88-.78-1.93-1.97-.01-.29,0-.57,0-.86h0Z"/>
  <path class="cls-1" d="M98,48.9c0-.34-.02-.69,0-1.03,.09-1.1,.89-1.83,2-1.83,1.11,0,1.91,.73,1.97,1.85,.03,.66,.03,1.32,0,1.98-.05,1.13-.9,1.93-2.01,1.92-1.13,0-1.92-.77-1.97-1.94-.01-.31,0-.63,0-.94h0Z"/>
  <path class="cls-1" d="M95.69,55.57c0,1.62-.83,2.48-2.26,2.35-.88-.08-1.53-.59-1.68-1.46-.17-.91-.25-1.84,.38-2.63,.52-.65,1.54-.87,2.36-.52,1,.42,1.23,1.28,1.19,2.27"/>
  <path class="cls-1" d="M95.69,42.17c0,1.67-.95,2.56-2.44,2.31-.11-.02-.23-.04-.34-.08-1.1-.39-1.62-1.98-1.11-3.42,.36-1.01,1.53-1.51,2.64-1.12,.87,.31,1.26,1.04,1.26,2.31"/>
  <path class="cls-1" d="M108.31,55.52c0,1.57-.64,2.37-1.94,2.4-1.21,.03-2-.7-2.05-1.93-.01-.26,0-.52,0-.78,.03-1.3,.81-2.1,2.01-2.08,1.17,.02,1.93,.8,1.98,2.04,0,.11,0,.23,0,.34"/>
  <path class="cls-1" d="M101.98,55.47c0,1.78-.86,2.63-2.33,2.44-.03,0-.06,0-.08-.01-.78-.15-1.35-.6-1.48-1.37-.18-1.01-.34-2.09,.56-2.89,.66-.59,1.46-.64,2.26-.29,.96,.43,1.14,1.29,1.08,2.12"/>
  <path class="cls-1" d="M101.98,42.08c0,1.79-.94,2.67-2.44,2.4-.06-.01-.11-.01-.17-.03-1.33-.42-1.66-1.64-1.26-3.39,.26-1.13,1.6-1.64,2.73-1.15,1.01,.44,1.2,1.31,1.14,2.17"/>
  <path class="cls-1" d="M125.12,36.43c-.01-1.09-.11-2.2-.33-3.27-1.63-8.01-10.01-13.12-17.81-10.75-5.49,1.67-8.05,5.84-8.88,11.26-.02,.13-.05,.25-.08,.35h3.97c.25-.91,.47-1.9,.83-2.81,1.04-2.58,2.8-4.43,5.57-5.12,6.58-1.67,12.79,3.33,12.79,10.35,.02,10.27,0,20.54,0,30.81h3.95v-.02c0-10.27,.01-20.53-.01-30.8Z"/>
  <rect class="cls-1" x="89.73" y="33.69" width="20.12" height="4"/>
  <path class="cls-1" d="M108.31,42.08c0,1.76-.93,2.65-2.43,2.4-.03,0-.06,0-.08-.01-.73-.17-1.3-.62-1.4-1.35-.14-1.03-.37-2.16,.62-2.95,.66-.53,1.44-.57,2.19-.23,.96,.43,1.15,1.28,1.09,2.15"/>
  <path class="cls-1" d="M77.02,66.59c-1.32-3.88-4.05-6.11-8.09-6.71-.74-.11-1.29-.37-1.83-.89-4.63-4.48-11.48-3.8-15.15,1.48-.09,.13-.2,.25-.32,.4-.26-.1-.48-.18-.7-.27-5.76-2.22-11.22,.27-13.36,6.06-.08,.23-.37,.47-.64,.59h5.82c.24-1.48,2.5-2.8,4.45-2.72,2.03,.08,3.4,1.34,4.82,2.72h25.61c-.3-.07-.47-.26-.61-.66Zm-23.48,.62c1.23-.55,1.53-1.46,1.8-2.44,.9-3.2,4.11-4.87,7.04-3.55,.88,.39,1.67,1.17,2.24,1.96,.72,1,1.52,1.47,2.74,1.38,2.18-.16,4.01,.85,4.8,2.65h-18.62Z"/>
  <path class="cls-1" d="M42.91,55.38c-3.75,0-6.8-3.05-6.8-6.8s3.05-6.8,6.8-6.8,6.8,3.05,6.8,6.8-3.05,6.8-6.8,6.8Zm0-9.6c-1.54,0-2.8,1.26-2.8,2.8s1.26,2.8,2.8,2.8,2.8-1.26,2.8-2.8-1.26-2.8-2.8-2.8Z"/>
  <path class="cls-1" d="M27.93,41.98c-3.75,0-6.8-3.05-6.8-6.8s3.05-6.8,6.8-6.8,6.8,3.05,6.8,6.8-3.05,6.8-6.8,6.8Zm0-9.6c-1.54,0-2.8,1.26-2.8,2.8s1.26,2.8,2.8,2.8,2.8-1.26,2.8-2.8-1.26-2.8-2.8-2.8Z"/>
  <path class="cls-1" d="M49.64,35.2c-3.75,0-6.8-3.05-6.8-6.8s3.05-6.8,6.8-6.8,6.8,3.05,6.8,6.8-3.05,6.8-6.8,6.8Zm0-9.6c-1.54,0-2.8,1.26-2.8,2.8s1.26,2.8,2.8,2.8,2.8-1.26,2.8-2.8-1.26-2.8-2.8-2.8Z"/>
</svg>