<?xml version="1.0" encoding="UTF-8"?>
<svg id="Layer_1" data-name="Layer 1" xmlns="http://www.w3.org/2000/svg" viewBox="0 0 141.73 141.73">
  <defs>
    <style>
      .cls-1 {
        fill: #555759;
      }
    </style>
  </defs>
  <g>
    <g>
      <path class="cls-1" d="M77.79,95.78c.01-.68,.01-1.38,.01-2.07h-6.94v3.96h7.19c-.18-.52-.27-1.14-.26-1.89Zm9.18-13.68v.04c0,1.31,.03,2.62,.04,3.92h36.22v6.4c0,.7-.56,1.25-1.25,1.25h-34.88c0,.69,.01,1.38,.02,2.06,.01,.76-.06,1.37-.22,1.9h40.29v-15.57h-40.22Z"/>
      <path class="cls-1" d="M83.61,62.85c.94,1.33,1.89,2.65,2.84,3.96h25.12c1.08,0,1.95,.87,1.95,1.95v7.16h-27c-.79,.47-1.69,.99-2.5,1.46l-.22,.39c.58,.17,1.1,.42,1.53,.74,.5,.36,.87,.82,1.15,1.38h31v-17.04h-33.88Z"/>
      <path class="cls-1" d="M127.2,82.1h-40.22c0-.85-.18-1.59-.49-2.21-.28-.55-.65-1.02-1.15-1.38h32.15l9.71,3.59Z"/>
      <path class="cls-1" d="M117.49,62.85h-33.88c-.44-.59-.86-1.19-1.29-1.79h27.14l8.03,1.79Z"/>
    </g>
    <g id="_1hxxCM.tif" data-name="1hxxCM.tif">
      <path class="cls-1" d="M78.04,49.93c.15,3.92-3,7.2-7.05,7.36-.05,0-.09,0-.13,.01-.04-.01-.08-.01-.13-.01-4.05-.16-7.2-3.44-7.05-7.36,.15-3.95,3.29-6.99,7.18-7.01,3.89,.02,7.03,3.06,7.18,7.01Z"/>
    </g>
  </g>
  <g>
    <g>
      <path class="cls-1" d="M63.93,93.71c0,.69,0,1.39,.01,2.07,.01,.75-.09,1.37-.27,1.89h7.19v-3.96h-6.93Zm-9.33,2.06c.01-.68,.02-1.37,.02-2.06H19.74c-.69,0-1.25-.55-1.25-1.25v-6.4H54.71c.01-1.3,.03-2.61,.04-3.92v-.04H14.53v15.57H54.82c-.16-.53-.23-1.14-.22-1.9Z"/>
      <path class="cls-1" d="M73.15,86.06h-4.58c.68-.14,1.36-.26,2.03-.39,.08-.02,.17-.03,.26-.03s.18,.01,.26,.03c.67,.13,1.36,.25,2.03,.39Z"/>
      <path class="cls-1" d="M24.24,62.85v17.04s31,0,31,0c.28-.55,.65-1.02,1.15-1.38,.43-.33,.94-.57,1.53-.74l-.22-.39c-.8-.47-1.7-.99-2.5-1.46H28.21v-7.16c0-1.08,.87-1.95,1.95-1.95h25.12c.95-1.32,1.9-2.64,2.84-3.96H24.24Z"/>
      <path class="cls-1" d="M14.53,82.1H54.75c0-.85,.18-1.59,.49-2.21,.28-.55,.65-1.02,1.15-1.38H24.24s-9.71,3.59-9.71,3.59Z"/>
      <path class="cls-1" d="M24.24,62.85H58.12c.44-.59,.86-1.19,1.29-1.79h-27.14s-8.03,1.79-8.03,1.79Z"/>
    </g>
    <g id="_1hxxCM.tif-2" data-name="1hxxCM.tif">
      <path class="cls-1" d="M85.63,71.51c.71-1.24,.63-2.41-.21-3.57-1.75-2.42-3.49-4.86-5.23-7.3-.8-1.13-1.87-1.67-3.25-1.67-2.03,.01-4.06,.01-6.08,.01s-4.05,0-6.08-.01c-1.38,0-2.45,.54-3.25,1.67-1.74,2.44-3.48,4.88-5.23,7.3-.84,1.16-.91,2.33-.21,3.57,1.3,2.27,2.56,4.56,3.84,6.84,.1,.16,.17,.33,.28,.54-.5,.07-.91,.13-1.32,.19-1.77,.28-2.64,1.28-2.65,3.07-.05,4.55-.1,9.09-.15,13.64-.02,1.79,.32,2.33,1.89,3.02h2.52c1.45-.47,1.97-1.51,1.95-3-.05-2.87-.02-5.74-.01-8.62,0-.94,.47-1.5,1.37-1.68,2.17-.45,4.34-.88,6.51-1.3,.17-.04,.36-.05,.54-.05s.37,.01,.55,.05c2.16,.42,4.33,.85,6.5,1.3,.91,.18,1.37,.74,1.37,1.68,0,2.88,.04,5.75-.01,8.62-.02,1.49,.5,2.53,1.95,3h2.52c1.57-.69,1.91-1.23,1.89-3.02-.05-4.55-.1-9.09-.15-13.64,0-1.79-.88-2.79-2.65-3.07-.41-.06-.82-.12-1.32-.19,.11-.21,.18-.38,.28-.54,1.28-2.28,2.54-4.57,3.84-6.84Zm-22.37,2.97c-.82-1.17-1.59-2.35-2.24-3.59-.17-.33-.1-.95,.1-1.28,.63-1.04,1.36-2.01,2.14-3.14v8.01Zm17.44-3.59c-.65,1.24-1.42,2.42-2.24,3.59v-8.01c.78,1.13,1.51,2.1,2.14,3.14,.2,.33,.27,.95,.1,1.28Z"/>
    </g>
  </g>
</svg>