<svg version="1.2" xmlns="http://www.w3.org/2000/svg" viewBox="0 0 512 512" width="512" height="512">
	<g id="icon-pdf">
		<g id="pdf-outline">
			<path fill-rule="evenodd" style="fill: none;stroke: #000000;stroke-linecap: round;stroke-linejoin: round;stroke-width: 10" d="m302.3 316.8q5.2 2.6 8.3 7.1 3.1 4.4 4.4 10.1 1.4 5.6 1.4 11.5 0 8.1-2.3 14.1-2.2 6-6.2 9.8-3.9 3.9-9.6 5.8-5.7 1.9-12.5 1.9h-10.4v41.9h-19.4v-105h33.9q7.5 0 12.4 2.8zm-9 40.9q3.7-3.8 3.7-11.9 0-8-3.1-12.1-3.1-4.1-10.4-4.1h-8.1v31.9h8.6q5.8 0 9.3-3.8zm81.7-40q6.2 3.5 9.5 10.3 3.5 6.6 4.7 16 1.2 9.4 1.2 21 0 13.9-1.6 24.1-1.4 10.2-5.2 16.8-3.8 6.6-10.1 9.9-6.4 3.2-16.1 3.2h-30.5v-105h31.8q10.1 0 16.3 3.7zm-11.9 83.8q3.1-1.9 4.9-6.3 1.8-4.4 2.4-11.6 0.6-7.2 0.6-18 0-9-0.5-15.7-0.5-6.8-2.3-11.2-1.6-4.6-5-6.8-3.2-2.3-8.7-2.3h-8.2v73.8h8.6q5.1 0 8.2-1.9zm93.9-70.1h-34.4v24.7h32.4v17.3h-32.4v45.6h-19.4v-105h53.8z"/>
			<path style="fill: none;stroke: #000000;stroke-miterlimit:100;stroke-width: 15" d="m385.4 275.3h-124.4c-5.7 0-11.2 1.1-16.4 3.4-5.2 2.2-9.9 5.5-13.8 9.7-4 4.1-7.1 9-9.3 14.5-2.1 5.4-3.2 11.2-3.2 17.1v130.3q0 0.7-0.3 1.4-0.3 0.7-0.8 1.2-0.5 0.5-1.1 0.8-0.7 0.3-1.4 0.3h-81.8c-7.5 0-14.9-1.5-21.8-4.5-6.9-3-13.1-7.4-18.4-12.9-5.3-5.6-9.5-12.1-12.4-19.4-2.8-7.2-4.3-14.9-4.3-22.8v-297.8c0-7.9 1.5-15.6 4.3-22.8 2.9-7.3 7.1-13.8 12.4-19.4 5.3-5.5 11.5-9.9 18.4-12.9 6.9-3 14.3-4.5 21.8-4.5h199.2c7.5 0 14.9 1.5 21.8 4.5 6.9 3 13.1 7.4 18.4 12.9 5.3 5.6 9.5 12.1 12.4 19.4 2.8 7.2 4.3 14.9 4.3 22.8v175q0 0.7-0.3 1.4-0.2 0.7-0.7 1.2-0.5 0.5-1.2 0.8-0.6 0.3-1.4 0.3z"/>
			<path style="fill: #000000" d="m150 112.7v-11.7h164v11.7z"/>
			<path style="fill: #000000" d="m150 145.7v-11.7h164v11.7z"/>
		</g>
	</g>
</svg>