<?xml version="1.0" encoding="UTF-8"?>
<svg id="Layer_1" data-name="Layer 1" xmlns="http://www.w3.org/2000/svg" viewBox="0 0 141.73 141.73">
  <defs>
    <style>
      .cls-1 {
        fill: #555759;
      }

      .cls-2 {
        fill: none;
        stroke: #565859;
        stroke-miterlimit: 10;
        stroke-width: 4px;
      }
    </style>
  </defs>
  <rect class="cls-2" x="16.28" y="48.55" width="18.54" height="6.57" rx="1.54" ry="1.54"/>
  <path class="cls-2" d="M125.44,55.12v38.06H16.28V55.12h14.81l2.32,5.65,1.48,3.62,1.99,4.84,1.41,3.45,2.14,5.21c.4,.96,1.33,1.59,2.38,1.59h56.1c1.05,0,1.98-.63,2.38-1.59l1.85-4.51,1.54-3.76,2.28-5.56,1.76-4.29,.55-1.33,1.36-3.32h14.81Z"/>
  <rect class="cls-2" x="106.91" y="48.55" width="18.54" height="6.57" rx="1.54" ry="1.54" transform="translate(232.35 103.67) rotate(-180)"/>
  <path class="cls-1" d="M104.68,69.62l-1.54,3.76c-.38-.01-.74-.02-1.09-.05-.09-.01-.16-.02-.25-.03-.35-.03-.7-.07-1.03-.12-.16-.02-.32-.04-.47-.06-.34-.05-.67-.11-.99-.17v-.03c-2.27-.53-3.88-1.41-5.35-2.23-2.15-1.19-4.01-2.23-7.95-2.23s-5.8,1.04-7.95,2.23c-2.27,1.27-4.84,2.7-9.74,2.7s-7.48-1.43-9.74-2.7c-2.15-1.19-4.01-2.23-7.95-2.23s-5.8,1.04-7.95,2.23c-1.26,.7-2.61,1.46-4.39,1.99l-1.41-3.45c1.56-.41,2.74-1.06,4.01-1.77,2.26-1.26,4.84-2.69,9.74-2.69s7.47,1.43,9.74,2.69c2.15,1.2,4.01,2.23,7.95,2.23s5.8-1.03,7.95-2.23c2.26-1.26,4.84-2.69,9.74-2.69s7.47,1.43,9.74,2.69c1.55,.87,2.96,1.64,5.1,2.01,.21,.03,.42,.06,.64,.09,.22,.02,.45,.05,.69,.07,.06,.01,.12,.01,.17,.02,.4,.03,.83,.04,1.28,.04,.34-.01,.69-.03,1.05-.07Z"/>
  <path class="cls-1" d="M108.72,59.77l-1.76,4.29c-1.2,.27-2.28,.39-3.26,.41h-.09c-.55,.01-1.06-.02-1.56-.06-.09,0-.16-.01-.25-.02-.35-.03-.7-.07-1.03-.12-.16-.02-.32-.04-.47-.07-.34-.05-.67-.11-.99-.16v-.03c-2.27-.53-3.88-1.41-5.35-2.23-2.15-1.2-4.01-2.23-7.95-2.23s-5.8,1.03-7.95,2.23c-2.27,1.26-4.84,2.69-9.74,2.69s-7.48-1.43-9.74-2.69c-2.15-1.2-4.01-2.23-7.95-2.23s-5.8,1.03-7.95,2.23c-1.95,1.08-4.12,2.29-7.79,2.61l-1.48-3.62c3.62-.07,5.42-1.07,7.48-2.22,2.26-1.26,4.84-2.7,9.74-2.7s7.47,1.44,9.74,2.7c2.15,1.2,4.01,2.23,7.95,2.23s5.8-1.03,7.95-2.23c2.26-1.26,4.84-2.7,9.74-2.7s7.47,1.44,9.74,2.7c1.55,.86,2.96,1.63,5.1,2,.21,.04,.42,.06,.64,.09,.22,.03,.45,.06,.69,.08,.06,0,.12,.01,.17,.01,.4,.03,.83,.05,1.28,.05,1.28-.03,2.71-.27,4.54-.91,.18-.06,.37-.09,.55-.1Z"/>
</svg>