<svg xmlns="http://www.w3.org/2000/svg" class="ionicon" viewBox="0 0 512 512"><title>Qr Code</title><rect x="336" y="336" width="80" height="80" rx="8" ry="8" fill="currentColor"/><rect x="272" y="272" width="64" height="64" rx="8" ry="8" fill="currentColor"/><rect x="416" y="416" width="64" height="64" rx="8" ry="8" fill="currentColor"/><rect x="432" y="272" width="48" height="48" rx="8" ry="8" fill="currentColor"/><rect x="272" y="432" width="48" height="48" rx="8" ry="8" fill="currentColor"/><rect x="336" y="96" width="80" height="80" rx="8" ry="8" fill="currentColor"/><rect x="288" y="48" width="176" height="176" rx="16" ry="16" fill="none" stroke="currentColor" stroke-linecap="round" stroke-linejoin="round" stroke-width="32"/><rect x="96" y="96" width="80" height="80" rx="8" ry="8" fill="currentColor"/><rect x="48" y="48" width="176" height="176" rx="16" ry="16" fill="none" stroke="currentColor" stroke-linecap="round" stroke-linejoin="round" stroke-width="32"/><rect x="96" y="336" width="80" height="80" rx="8" ry="8" fill="currentColor"/><rect x="48" y="288" width="176" height="176" rx="16" ry="16" fill="none" stroke="currentColor" stroke-linecap="round" stroke-linejoin="round" stroke-width="32"/></svg>