<?xml version="1.0" encoding="UTF-8"?>
<svg id="Layer_1" data-name="Layer 1" xmlns="http://www.w3.org/2000/svg" viewBox="0 0 141.73 141.73">
  <defs>
    <style>
      .cls-1 {
        fill: #53575a;
      }

      .cls-2, .cls-3 {
        fill: #555759;
      }

      .cls-3 {
        stroke: #555759;
        stroke-miterlimit: 10;
        stroke-width: 1.3px;
      }
    </style>
  </defs>
  <path class="cls-2" d="M106.3,23.05H48.93c-1.19,0-2.15,.96-2.15,2.15h0c0,1.19,.96,2.15,2.15,2.15h57.37c1,0,1.81,.81,1.81,1.81V107.32c0,1-.81,1.81-1.81,1.81H35.43c-1,0-1.81-.81-1.81-1.81V29.16c0-1,.81-1.81,1.81-1.81h4c1.19,0,2.15-.96,2.15-2.15h0c0-1.19-.96-2.15-2.15-2.15h-4c-3.37,0-6.11,2.74-6.11,6.11V107.32c0,3.37,2.74,6.11,6.11,6.11H106.3c3.37,0,6.11-2.74,6.11-6.11V29.16c0-3.37-2.74-6.11-6.11-6.11Z"/>
  <path class="cls-2" d="M112.45,122.43H29.28c-4.53,0-8.21-3.68-8.21-8.21V22.24c0-4.53,3.68-8.21,8.21-8.21H112.45c4.53,0,8.21,3.68,8.21,8.21V114.23c0,4.53-3.68,8.21-8.21,8.21ZM29.28,18.33c-2.15,0-3.91,1.75-3.91,3.91V114.23c0,2.15,1.75,3.91,3.91,3.91H112.45c2.15,0,3.91-1.75,3.91-3.91V22.24c0-2.15-1.75-3.91-3.91-3.91H29.28Z"/>
  <g>
    <path class="cls-2" d="M43.91,127.7h-5.8c-1.73,0-3.13-1.4-3.13-3.13v-4.28h4.3v3.11h3.46v-3.11h4.3v4.28c0,1.73-1.4,3.13-3.13,3.13Z"/>
    <path class="cls-2" d="M103.62,127.7h-5.8c-1.73,0-3.14-1.4-3.14-3.13v-4.28h4.3v3.11h3.47v-3.11h4.3v4.28c0,1.73-1.4,3.13-3.13,3.13Z"/>
  </g>
  <rect class="cls-2" x="32.46" y="59.08" width="76.8" height="4.3"/>
  <g>
    <path class="cls-2" d="M52.26,63.46h-6.69c-2.57,0-4.65-2.09-4.65-4.65v-18.09c0-2.57,2.09-4.65,4.65-4.65h6.69c2.57,0,4.65,2.09,4.65,4.65v18.09c0,2.57-2.09,4.65-4.65,4.65Zm-6.69-23.1c-.19,0-.35,.16-.35,.35v18.09c0,.19,.16,.35,.35,.35h6.69c.19,0,.35-.16,.35-.35v-18.09c0-.19-.16-.35-.35-.35h-6.69Z"/>
    <path class="cls-2" d="M74.21,63.46h-6.69c-2.57,0-4.65-2.09-4.65-4.65v-18.09c0-2.57,2.09-4.65,4.65-4.65h6.69c2.57,0,4.65,2.09,4.65,4.65v18.09c0,2.57-2.09,4.65-4.65,4.65Zm-6.69-23.1c-.19,0-.35,.16-.35,.35v18.09c0,.19,.16,.35,.35,.35h6.69c.19,0,.35-.16,.35-.35v-18.09c0-.19-.16-.35-.35-.35h-6.69Z"/>
    <path class="cls-2" d="M96.16,63.46h-6.69c-2.57,0-4.65-2.09-4.65-4.65v-18.09c0-2.57,2.09-4.65,4.65-4.65h6.69c2.57,0,4.65,2.09,4.65,4.65v18.09c0,2.57-2.09,4.65-4.65,4.65Zm-6.69-23.1c-.19,0-.35,.16-.35,.35v18.09c0,.19,.16,.35,.35,.35h6.69c.19,0,.35-.16,.35-.35v-18.09c0-.19-.16-.35-.35-.35h-6.69Z"/>
  </g>
  <g>
    <g>
      <g>
        <path class="cls-2" d="M98.31,83.87c-.13-.46-.7-.86-1.19-.67-.32,.12-.64,.19-.97,.22h0c.05,.25,.11,.48,.17,.73l.31,1.16c.35-.04,.68-.12,1.01-.25,.48-.18,.82-.64,.67-1.19Zm-.83-10.39c-.58-.58-1.39-.93-2.24-.94h-3.18c-.85,0-1.66,.34-2.26,.93,.52,.67,1.34,1.12,2.26,1.12h3.18c.91,0,1.72-.44,2.24-1.11Zm-8.48,10.82c.14,.47,.69,.85,1.19,.67,.2-.07,.4-.12,.59-.15l.18-.68c.12-.44,.22-.86,.28-1.3-.53,0-1.05,.09-1.56,.27-.48,.18-.81,.66-.67,1.19Z"/>
        <path class="cls-2" d="M96.14,86.01l-.5-1.9c-.04-.19-.09-.37-.13-.55v-.13s-.01-.59-.01-.59l.59-.06c.28-.03,.55-.09,.8-.18,.36-.14,.79-.12,1.17,.08,.42,.21,.75,.6,.87,1.03h0c.23,.83-.23,1.66-1.08,1.97-.35,.14-.75,.24-1.16,.28l-.56,.06Zm.8-2.08l.16,.62c.1-.03,.2-.06,.3-.1,.07-.03,.36-.15,.29-.41-.02-.06-.09-.16-.2-.21-.05-.03-.1-.03-.13-.03-.14,.05-.28,.1-.42,.13Zm-7.01,1.74c-.24,0-.47-.06-.7-.17-.41-.21-.73-.59-.85-1.01v-.02c-.22-.81,.24-1.66,1.07-1.96,.57-.2,1.14-.3,1.77-.31h.76s-.1,.74-.1,.74c-.06,.42-.15,.85-.29,1.38l-.28,1.09-.42,.06c-.16,.02-.32,.06-.48,.12-.15,.05-.31,.08-.47,.08Zm-.3-1.54c.03,.08,.1,.17,.19,.21,.03,.02,.1,.04,.15,.02,.09-.03,.19-.06,.29-.09l.08-.29c.04-.14,.07-.27,.1-.4-.19,.04-.37,.09-.55,.15-.13,.05-.31,.19-.26,.4Zm5.62-8.89h-3.17c-1.08,0-2.09-.5-2.77-1.37l-.35-.45,.41-.41c.71-.71,1.7-1.12,2.72-1.12h3.17c1.01,.01,1.99,.42,2.7,1.13l.4,.4-.34,.45c-.66,.87-1.67,1.36-2.75,1.36Zm-4.44-1.71c.37,.27,.81,.41,1.27,.41h3.17c.46,0,.89-.14,1.25-.4-.38-.22-.82-.34-1.26-.35h-3.17c-.45,0-.89,.12-1.27,.34Z"/>
      </g>
      <g>
        <path class="cls-2" d="M103.58,108.67c-.11,.14-.23,.27-.35,.38-.6,.56-1.38,.87-2.21,.87h-14.77c-.35,0-.67-.05-.99-.15-.45-.15-.87-.39-1.22-.72-.12-.11-.24-.24-.35-.38-.18-.23-.31-.46-.43-.7,0-.04-.02-.07-.04-.12-.07-.17-.12-.35-.15-.53-.06-.27-.07-.54-.06-.82l.48-2.08,.39-1.46,1.37-5.18,3.71-14.15c.43-1.58,.51-3.21,.28-4.84l-.37-2.56c-.14-.92,.14-1.86,.74-2.57,.06-.06,.11-.12,.18-.18,.52,.67,1.34,1.12,2.26,1.12-.35,0-.65,.15-.89,.41-.22,.26-.32,.59-.27,.94l.38,2.55c.21,1.45,.2,2.92-.05,4.36-.53,0-1.05,.09-1.56,.27-.48,.18-.81,.66-.67,1.19,.14,.47,.69,.85,1.19,.67,.2-.07,.4-.12,.59-.15l-4.76,18.12-.39,1.46-.47,1.81-.02,.1-.03,.08c-.08,.32-.02,.66,.16,.93,.02,.03,.03,.06,.05,.08,.07,.09,.15,.16,.23,.23,.02,0,.05,.03,.06,.04,.2,.13,.43,.2,.65,.2h14.77c.37,0,.7-.17,.93-.46,.22-.29,.3-.66,.21-1.01l-2.56-9.74-.41-1.56-.63-2.41-.41-1.55-.53-2-.53-2.05-.46-1.77h0c.35-.05,.68-.13,1.01-.26,.48-.18,.82-.64,.67-1.19-.13-.46-.7-.86-1.19-.67-.32,.12-.64,.19-.97,.22-.35-1.63-.4-3.27-.15-4.93l.37-2.55c.05-.35-.05-.68-.27-.94-.22-.25-.52-.4-.86-.41,.91,0,1.72-.44,2.24-1.11,.07,.06,.12,.11,.17,.17,.61,.71,.88,1.65,.75,2.57l-.38,2.55c-.23,1.63-.15,3.26,.28,4.86l.95,3.61,.49,1.89,.51,1.99,.42,1.56,.63,2.41,.19,.7,.23,.86,1.01,3.83,1.41,5.38c.26,.99,.05,2-.56,2.8Z"/>
        <path class="cls-2" d="M101.03,110.57h-14.77c-.41,0-.8-.06-1.18-.18-.58-.19-1.07-.48-1.48-.88-.13-.12-.27-.27-.4-.44-.24-.3-.39-.6-.5-.82l-.04-.12c-.1-.25-.16-.47-.2-.71-.06-.25-.08-.56-.07-.94l.02-.12,.87-3.56,5.07-19.33c.4-1.49,.49-3.03,.26-4.58l-.37-2.56c-.16-1.1,.16-2.22,.89-3.08l.09-.09c.05-.05,.1-.11,.16-.16l.52-.44,.42,.54c.43,.55,1.07,.87,1.74,.87v1.3c-.16,0-.29,.06-.41,.2-.08,.1-.12,.25-.1,.41l.38,2.55c.22,1.54,.2,3.08-.05,4.57l-.09,.53h-.54c-.49,.02-.94,.09-1.36,.24-.13,.05-.31,.2-.26,.41,.02,.07,.1,.16,.19,.2,.03,.02,.1,.04,.15,.02,.24-.08,.48-.14,.72-.18l.98-.15-5.94,22.59c-.01,.07,.01,.23,.09,.34l.03,.05s.05,.05,.07,.07l.07,.05c.09,.05,.18,.08,.28,.08h14.77c.16,0,.31-.07,.41-.21,.1-.13,.13-.3,.09-.45l-5.56-21.25v-.58l.58-.08c.3-.03,.58-.1,.84-.21,.07-.03,.36-.15,.29-.41-.02-.06-.09-.16-.2-.21-.05-.03-.1-.03-.13-.03-.36,.14-.75,.22-1.14,.26l-.58,.05-.12-.57c-.36-1.7-.41-3.44-.16-5.16l.37-2.55c.02-.16-.02-.31-.12-.43-.09-.11-.23-.17-.38-.18l.02-1.3c.68,0,1.3-.31,1.72-.85l.42-.55,.52,.45c.1,.08,.17,.16,.24,.24,.73,.84,1.06,1.97,.9,3.08l-.38,2.56c-.22,1.57-.13,3.12,.26,4.59l5.85,22.24c.31,1.17,.06,2.4-.68,3.36h0c-.13,.17-.28,.33-.42,.46-.72,.67-1.66,1.04-2.65,1.04Zm-17.14-2.83c.11,.22,.21,.38,.33,.53,.09,.11,.18,.21,.27,.3,.28,.27,.6,.46,.98,.58,.25,.08,.51,.12,.79,.12h14.77c.66,0,1.28-.25,1.76-.7,.1-.09,.19-.19,.28-.3,.5-.65,.66-1.44,.45-2.24l-5.39-20.49c-.08,.05-.17,.09-.27,.12-.14,.05-.28,.1-.43,.14l5.37,20.43c.14,.54,.02,1.12-.32,1.57-.35,.46-.88,.72-1.45,.72h-14.77c-.35,0-.7-.11-1.01-.3l-.13-.09c-.11-.1-.22-.19-.31-.32l-.09-.14c-.27-.4-.36-.93-.23-1.43l.05-.15h0s5.36-20.43,5.36-20.43c-.22,0-.45-.06-.66-.17-.02-.01-.04-.02-.06-.03l-5.02,19.11-.47,2c0,.24,0,.43,.05,.6,.03,.18,.06,.31,.12,.43,.02,.05,.04,.09,.05,.13Zm12.91-32.86c.19,.35,.27,.75,.21,1.16l-.37,2.55c-.2,1.36-.2,2.73,.02,4.08,.08-.02,.15-.05,.22-.07,.16-.06,.33-.11,.5-.09-.19-1.24-.2-2.52-.02-3.81l.38-2.56c.08-.58-.04-1.17-.33-1.67-.2,.16-.41,.3-.63,.41Zm-6.95-.43c-.29,.49-.41,1.09-.32,1.68l.37,2.57c.18,1.24,.18,2.47,0,3.68,.25-.06,.51-.11,.77-.14,.16-1.19,.15-2.42-.03-3.65l-.38-2.55c-.06-.41,.02-.82,.22-1.17-.22-.11-.43-.25-.63-.41Z"/>
      </g>
      <path class="cls-3" d="M95.24,67.99h-3.18c-1.56,0-2.84,1.28-2.84,2.84v.92c0,.65,.23,1.25,.58,1.72,.52,.67,1.34,1.12,2.26,1.12h3.18c.91,0,1.72-.44,2.24-1.11,.38-.47,.6-1.08,.6-1.73v-.92c0-1.56-1.28-2.84-2.84-2.84Zm-3.18,4.55c-.44,0-.79-.36-.79-.79v-.92c0-.44,.36-.79,.79-.79h3.18c.44,0,.79,.36,.79,.79v.92c0,.44-.36,.79-.79,.79h-3.18Z"/>
      <g>
        <path class="cls-2" d="M97.63,85.06c-.33,.13-.66,.21-1.01,.25-.98,.15-1.99,0-2.97-.2-.96-.2-1.92-.44-2.88-.28-.2,.03-.4,.08-.59,.15-.49,.18-1.05-.2-1.19-.67-.14-.52,.19-1.01,.67-1.19,.51-.18,1.03-.26,1.56-.27,.8-.02,1.61,.12,2.4,.28,.84,.17,1.68,.37,2.51,.29,.33-.03,.65-.1,.97-.22,.48-.19,1.06,.21,1.19,.67,.15,.54-.19,1.01-.67,1.19Z"/>
        <path class="cls-2" d="M95.81,86.01c-.79,0-1.57-.13-2.28-.27l-.27-.06c-.84-.18-1.62-.34-2.38-.22-.17,.03-.33,.06-.48,.12-.37,.14-.79,.1-1.17-.09-.41-.21-.73-.59-.85-1.01-.22-.83,.24-1.67,1.07-1.98,.57-.2,1.14-.3,1.77-.31,.88-.03,1.78,.14,2.54,.29l.25,.05c.73,.15,1.42,.29,2.07,.23,.29-.03,.56-.09,.8-.18,.36-.14,.79-.12,1.17,.08,.42,.21,.75,.6,.87,1.03,.23,.83-.22,1.65-1.07,1.97-.36,.14-.76,.24-1.17,.29-.29,.04-.59,.06-.89,.06Zm-4.37-1.89c.72,0,1.41,.15,2.09,.29l.26,.05c.89,.17,1.84,.33,2.74,.19,.33-.04,.6-.1,.87-.21h.02c.06-.03,.34-.15,.27-.41-.02-.06-.09-.16-.2-.21-.05-.03-.1-.03-.13-.03-.36,.14-.75,.22-1.14,.26-.84,.08-1.66-.09-2.45-.25l-.25-.05c-.69-.14-1.49-.28-2.26-.27-.5,0-.94,.08-1.37,.23-.13,.05-.31,.2-.26,.41,.02,.07,.1,.16,.19,.2,.03,.02,.1,.04,.15,.02,.24-.08,.48-.14,.72-.18,.25-.04,.51-.06,.76-.06Z"/>
      </g>
    </g>
    <g>
      <g>
        <path class="cls-2" d="M75.53,83.87c-.13-.46-.7-.86-1.19-.67-.32,.12-.64,.19-.97,.22h0c.05,.25,.11,.48,.17,.73l.31,1.16c.35-.04,.68-.12,1.01-.25,.48-.18,.82-.64,.67-1.19Zm-.83-10.39c-.58-.58-1.39-.93-2.24-.94h-3.18c-.85,0-1.66,.34-2.26,.93,.52,.67,1.34,1.12,2.26,1.12h3.18c.91,0,1.72-.44,2.24-1.11Zm-8.48,10.82c.14,.47,.69,.85,1.19,.67,.2-.07,.4-.12,.59-.15l.18-.68c.12-.44,.22-.86,.28-1.3-.53,0-1.05,.09-1.56,.27-.48,.18-.81,.66-.67,1.19Z"/>
        <path class="cls-2" d="M73.36,86.01l-.48-1.81c-.05-.22-.1-.43-.15-.64v-.13s-.01-.59-.01-.59l.59-.06c.28-.03,.55-.09,.8-.18,.36-.14,.78-.12,1.17,.08,.42,.21,.75,.6,.87,1.03h0c.23,.83-.23,1.66-1.08,1.97-.35,.14-.75,.24-1.16,.28l-.56,.06Zm.8-2.08l.16,.62c.1-.03,.2-.06,.3-.1,.07-.03,.36-.15,.29-.41-.02-.07-.09-.16-.2-.21-.05-.03-.1-.03-.12-.03-.14,.05-.28,.1-.42,.13Zm-7.01,1.74c-.24,0-.47-.06-.7-.17-.41-.21-.73-.59-.85-1.01h0c-.22-.83,.25-1.67,1.08-1.98,.57-.2,1.15-.3,1.78-.31h.76s-.1,.74-.1,.74c-.06,.42-.15,.85-.29,1.38l-.28,1.09-.42,.06c-.16,.02-.32,.06-.48,.12-.15,.05-.31,.08-.47,.08Zm-.3-1.54c.03,.08,.1,.17,.19,.21,.03,.02,.1,.04,.15,.02,.09-.03,.19-.06,.29-.09l.08-.29c.04-.14,.07-.27,.1-.4-.19,.04-.37,.09-.55,.15-.12,.05-.31,.19-.26,.4Zm5.62-8.89h-3.17c-1.08,0-2.09-.5-2.77-1.37l-.35-.45,.41-.41c.72-.72,1.69-1.12,2.72-1.12h3.17c1.01,.01,1.99,.42,2.7,1.13l.4,.4-.35,.45c-.66,.87-1.67,1.36-2.75,1.36Zm-4.45-1.71c.37,.27,.81,.41,1.27,.41h3.17c.46,0,.89-.14,1.25-.4-.38-.22-.82-.34-1.26-.35h-3.17c-.46,0-.89,.12-1.27,.34Z"/>
      </g>
      <g>
        <path class="cls-2" d="M80.8,108.67c-.11,.14-.23,.27-.35,.38-.6,.56-1.38,.87-2.21,.87h-14.77c-.35,0-.67-.05-.99-.15-.45-.15-.87-.39-1.22-.72-.12-.11-.24-.24-.35-.38-.18-.23-.31-.46-.43-.7,0-.04-.02-.07-.04-.12-.07-.17-.12-.35-.15-.53-.06-.27-.07-.54-.06-.82l.48-2.08,.39-1.46,1.37-5.18,3.71-14.15c.43-1.58,.51-3.21,.28-4.84l-.37-2.56c-.14-.92,.14-1.86,.74-2.57,.06-.06,.11-.12,.18-.18,.52,.67,1.34,1.12,2.26,1.12-.35,0-.65,.15-.89,.41-.22,.26-.32,.59-.27,.94l.38,2.55c.21,1.45,.2,2.92-.05,4.36-.53,0-1.05,.09-1.56,.27-.48,.18-.81,.66-.67,1.19,.14,.47,.69,.85,1.19,.67,.2-.07,.4-.12,.59-.15l-4.76,18.12-.39,1.46-.47,1.81-.02,.1-.03,.08c-.08,.32-.02,.66,.16,.93,.02,.03,.03,.06,.05,.08,.07,.09,.15,.16,.23,.23,.02,0,.05,.03,.06,.04,.2,.13,.43,.2,.65,.2h14.77c.37,0,.7-.17,.93-.46,.22-.29,.3-.66,.21-1.01l-2.56-9.74-.41-1.56-.63-2.41-.41-1.55-.53-2-.53-2.05-.46-1.77h0c.35-.05,.68-.13,1.01-.26,.48-.18,.82-.64,.67-1.19-.13-.46-.7-.86-1.19-.67-.32,.12-.64,.19-.97,.22-.35-1.63-.4-3.27-.15-4.93l.37-2.55c.05-.35-.05-.68-.27-.94-.22-.25-.52-.4-.86-.41,.91,0,1.72-.44,2.24-1.11,.07,.06,.12,.11,.17,.17,.61,.71,.88,1.65,.75,2.57l-.38,2.55c-.23,1.63-.15,3.26,.28,4.86l.95,3.61,.49,1.89,.51,1.99,.42,1.56,.63,2.41,.19,.7,.23,.86,1.01,3.83,1.41,5.38c.26,.99,.05,2-.56,2.8Z"/>
        <path class="cls-2" d="M78.25,110.57h-14.77c-.41,0-.8-.06-1.18-.18-.58-.19-1.07-.48-1.48-.88-.13-.12-.27-.27-.4-.44-.19-.24-.34-.5-.5-.82l-.04-.12c-.1-.24-.16-.47-.2-.71-.06-.25-.08-.57-.07-.95l.02-.12,.87-3.56,5.07-19.33c.4-1.49,.49-3.03,.26-4.58l-.37-2.56c-.17-1.09,.16-2.22,.89-3.08l.09-.09c.05-.05,.1-.11,.16-.16l.52-.44,.42,.54c.43,.55,1.07,.87,1.74,.87v1.3c-.16,0-.29,.06-.41,.2-.08,.1-.12,.25-.1,.41l.38,2.55c.22,1.54,.2,3.08-.05,4.57l-.09,.53h-.54c-.49,.02-.94,.09-1.36,.24-.13,.05-.31,.2-.26,.41,.02,.07,.1,.16,.19,.2,.03,.02,.1,.04,.15,.02,.24-.08,.48-.14,.72-.18l.98-.15-5.91,22.51c-.04,.15-.02,.31,.06,.42l.03,.05s.04,.04,.06,.06l.07,.05c.09,.05,.18,.08,.28,.08h14.77c.16,0,.31-.07,.42-.21,.1-.13,.13-.3,.09-.45l-5.56-21.25v-.58l.58-.08c.3-.03,.58-.1,.84-.21,.07-.03,.36-.15,.29-.41-.02-.06-.09-.16-.2-.21-.05-.03-.1-.03-.12-.03-.37,.14-.75,.22-1.14,.26l-.58,.05-.12-.57c-.36-1.7-.41-3.43-.16-5.16l.37-2.55c.02-.16-.02-.31-.12-.43-.09-.11-.23-.17-.38-.18l.02-1.3c.68,0,1.3-.31,1.72-.85l.42-.55,.52,.45c.1,.09,.17,.16,.24,.25,.72,.84,1.05,1.97,.9,3.08l-.38,2.56c-.22,1.57-.13,3.12,.26,4.59l5.85,22.24c.31,1.17,.06,2.4-.68,3.36h0c-.13,.17-.28,.33-.42,.46-.71,.67-1.66,1.04-2.64,1.04Zm-17.13-2.83c.11,.22,.21,.38,.33,.53,.08,.11,.18,.21,.27,.3,.28,.27,.6,.46,.98,.58,.25,.08,.51,.12,.79,.12h14.77c.66,0,1.28-.25,1.76-.7,.1-.09,.19-.19,.28-.3,.5-.65,.66-1.44,.45-2.24l-5.39-20.49c-.08,.05-.17,.09-.27,.12-.14,.05-.28,.1-.43,.14l5.37,20.43c.14,.53,.02,1.12-.32,1.57-.35,.46-.88,.72-1.45,.72h-14.77c-.35,0-.7-.11-1.01-.3l-.13-.09c-.1-.08-.19-.17-.28-.28l-.12-.18c-.27-.4-.36-.93-.23-1.43l.91-3.46,4.49-17.11c-.22,0-.45-.06-.66-.17-.02-.01-.04-.02-.06-.03l-5.02,19.11-.47,2c0,.24,0,.43,.05,.6,.03,.18,.07,.3,.12,.43,.02,.05,.04,.09,.05,.13Zm12.91-32.86c.19,.35,.27,.75,.21,1.15l-.37,2.55c-.2,1.36-.2,2.73,.02,4.08,.08-.02,.15-.05,.22-.07,.16-.06,.29-.09,.5-.09-.19-1.24-.2-2.52-.02-3.81l.38-2.56c.08-.58-.04-1.17-.33-1.67-.19,.16-.41,.3-.63,.41Zm-6.94-.43c-.29,.49-.41,1.09-.32,1.68l.37,2.57c.18,1.24,.18,2.47,0,3.68,.25-.06,.51-.11,.77-.14,.16-1.2,.15-2.42-.03-3.65l-.38-2.55c-.06-.41,.02-.82,.22-1.17-.22-.11-.43-.25-.63-.41Z"/>
      </g>
      <path class="cls-3" d="M72.46,67.99h-3.18c-1.56,0-2.84,1.28-2.84,2.84v.92c0,.65,.23,1.25,.58,1.72,.52,.67,1.34,1.12,2.26,1.12h3.18c.91,0,1.72-.44,2.24-1.11,.38-.47,.6-1.08,.6-1.73v-.92c0-1.56-1.28-2.84-2.84-2.84Zm-3.18,4.55c-.44,0-.79-.36-.79-.79v-.92c0-.44,.36-.79,.79-.79h3.18c.44,0,.79,.36,.79,.79v.92c0,.44-.36,.79-.79,.79h-3.18Z"/>
      <g>
        <path class="cls-2" d="M74.86,85.06c-.33,.13-.66,.21-1.01,.25-.98,.15-1.99,0-2.97-.2-.96-.2-1.92-.44-2.88-.28-.2,.03-.4,.08-.59,.15-.49,.18-1.05-.2-1.19-.67-.14-.52,.19-1.01,.67-1.19,.51-.18,1.03-.26,1.56-.27,.8-.02,1.61,.12,2.4,.28,.84,.17,1.68,.37,2.51,.29,.33-.03,.65-.1,.97-.22,.48-.19,1.06,.21,1.19,.67,.15,.54-.19,1.01-.67,1.19Z"/>
        <path class="cls-2" d="M73.04,86.01c-.79,0-1.58-.13-2.28-.27l-.27-.06c-.84-.17-1.62-.34-2.38-.22-.17,.03-.33,.06-.48,.12-.37,.14-.79,.1-1.17-.09-.41-.21-.73-.59-.85-1.01-.22-.83,.24-1.67,1.07-1.98,.57-.2,1.15-.3,1.78-.31,.88-.03,1.78,.14,2.54,.29l.25,.05c.73,.15,1.42,.29,2.07,.23,.28-.03,.55-.09,.8-.18,.36-.14,.78-.12,1.17,.08,.42,.21,.75,.6,.87,1.03,.23,.83-.22,1.65-1.07,1.97-.36,.14-.76,.24-1.17,.29-.29,.04-.59,.06-.89,.06Zm-4.37-1.89c.72,0,1.42,.15,2.09,.29l.26,.05c.89,.17,1.84,.33,2.74,.19,.33-.04,.6-.1,.87-.21h.02c.06-.03,.34-.15,.27-.41-.02-.06-.09-.16-.2-.21-.05-.03-.1-.03-.12-.03-.37,.14-.75,.22-1.14,.26-.84,.08-1.66-.09-2.45-.25l-.25-.05c-.69-.14-1.49-.28-2.26-.27-.5,0-.94,.08-1.37,.23-.13,.05-.31,.2-.26,.41,.02,.07,.1,.16,.19,.2,.03,.02,.1,.04,.15,.02,.24-.08,.48-.14,.72-.18,.25-.04,.51-.06,.76-.06Z"/>
      </g>
    </g>
    <g>
      <g>
        <path class="cls-2" d="M52.75,83.87c-.13-.46-.7-.86-1.19-.67-.32,.12-.64,.19-.97,.22h0c.05,.25,.11,.48,.17,.73l.31,1.16c.35-.04,.68-.12,1.01-.25,.48-.18,.82-.64,.67-1.19Zm-.83-10.39c-.58-.58-1.39-.93-2.24-.94h-3.18c-.85,0-1.66,.34-2.26,.93,.52,.67,1.34,1.12,2.26,1.12h3.18c.91,0,1.72-.44,2.24-1.11Zm-8.48,10.82c.14,.47,.69,.85,1.19,.67,.2-.07,.4-.12,.59-.15l.18-.68c.12-.44,.22-.86,.28-1.3-.53,0-1.05,.09-1.56,.27-.48,.18-.81,.66-.67,1.19Z"/>
        <path class="cls-2" d="M50.59,86.01l-.49-1.85c-.05-.21-.1-.41-.14-.61v-.13s-.01-.59-.01-.59l.59-.06c.28-.03,.55-.09,.8-.18,.37-.14,.79-.11,1.17,.08,.42,.21,.75,.6,.87,1.03h0c.23,.83-.23,1.66-1.08,1.97-.35,.14-.75,.24-1.16,.28l-.56,.06Zm.8-2.08l.16,.62c.1-.03,.2-.06,.3-.1,.07-.03,.36-.15,.29-.41-.02-.07-.09-.16-.2-.21-.05-.03-.1-.03-.13-.03-.14,.05-.28,.1-.42,.13Zm-7.01,1.74c-.24,0-.47-.06-.7-.17-.41-.21-.73-.59-.85-1.01v-.02c-.22-.81,.24-1.66,1.07-1.96,.57-.2,1.15-.3,1.78-.31h.76s-.1,.74-.1,.74c-.06,.41-.15,.84-.29,1.38l-.28,1.09-.42,.06c-.16,.02-.32,.06-.48,.12-.15,.05-.31,.08-.48,.08Zm-.3-1.54c.03,.08,.1,.17,.19,.21,.03,.02,.1,.04,.15,.02,.09-.03,.19-.06,.29-.09l.08-.29c.04-.14,.07-.27,.1-.4-.19,.04-.37,.09-.55,.15-.12,.05-.31,.19-.26,.4Zm5.62-8.89h-3.18c-1.08,0-2.09-.5-2.77-1.37l-.35-.45,.41-.41c.72-.72,1.69-1.12,2.71-1.12h3.18c1.01,.01,1.99,.42,2.69,1.13l.4,.4-.35,.45c-.66,.87-1.67,1.36-2.75,1.36Zm-4.45-1.71c.37,.27,.81,.41,1.27,.41h3.18c.46,0,.89-.14,1.25-.4-.38-.22-.82-.34-1.26-.35h-3.17c-.45,0-.89,.12-1.27,.34Z"/>
      </g>
      <g>
        <path class="cls-2" d="M58.03,108.67c-.11,.14-.23,.27-.35,.38-.6,.56-1.38,.87-2.21,.87h-14.77c-.35,0-.67-.05-.99-.15-.45-.15-.87-.39-1.22-.72-.12-.11-.24-.24-.35-.38-.18-.23-.31-.46-.43-.7,0-.04-.02-.07-.04-.12-.07-.17-.12-.35-.15-.53-.06-.27-.07-.54-.06-.82l.48-2.08,.39-1.46,1.37-5.18,3.71-14.15c.43-1.58,.51-3.21,.28-4.84l-.37-2.56c-.14-.92,.14-1.86,.74-2.57,.06-.06,.11-.12,.18-.18,.52,.67,1.34,1.12,2.26,1.12-.35,0-.65,.15-.89,.41-.22,.26-.32,.59-.27,.94l.38,2.55c.21,1.45,.2,2.92-.05,4.36-.53,0-1.05,.09-1.56,.27-.48,.18-.81,.66-.67,1.19,.14,.47,.69,.85,1.19,.67,.2-.07,.4-.12,.59-.15l-4.76,18.12-.39,1.46-.47,1.81-.02,.1-.03,.08c-.08,.32-.02,.66,.16,.93,.02,.03,.03,.06,.05,.08,.07,.09,.15,.16,.23,.23,.02,0,.05,.03,.06,.04,.2,.13,.43,.2,.65,.2h14.77c.37,0,.7-.17,.93-.46,.22-.29,.3-.66,.21-1.01l-2.56-9.74-.41-1.56-.63-2.41-.41-1.55-.53-2-.53-2.05-.46-1.77h0c.35-.05,.68-.13,1.01-.26,.48-.18,.82-.64,.67-1.19-.13-.46-.7-.86-1.19-.67-.32,.12-.64,.19-.97,.22-.35-1.63-.4-3.27-.15-4.93l.37-2.55c.05-.35-.05-.68-.27-.94-.22-.25-.52-.4-.86-.41,.91,0,1.72-.44,2.24-1.11,.07,.06,.12,.11,.17,.17,.61,.71,.88,1.65,.75,2.57l-.38,2.55c-.23,1.63-.15,3.26,.28,4.86l.95,3.61,.49,1.89,.51,1.99,.42,1.56,.63,2.41,.19,.7,.23,.86,1.01,3.83,1.41,5.38c.26,.99,.05,2-.56,2.8Z"/>
        <path class="cls-2" d="M55.47,110.57h-14.77c-.41,0-.8-.06-1.18-.18-.58-.19-1.07-.48-1.48-.88-.13-.12-.27-.27-.4-.44-.19-.24-.34-.5-.5-.82l-.04-.12c-.1-.24-.16-.47-.2-.71-.06-.26-.08-.57-.07-.95l.02-.12,.87-3.56,5.07-19.33c.4-1.49,.49-3.03,.26-4.58l-.37-2.56c-.17-1.09,.16-2.22,.89-3.08l.08-.08c.05-.06,.11-.11,.17-.17l.52-.44,.42,.54c.43,.55,1.06,.87,1.74,.87v1.3c-.15,0-.29,.07-.41,.2-.08,.1-.12,.25-.1,.41l.38,2.55c.22,1.54,.2,3.08-.05,4.57l-.09,.53h-.54c-.49,.02-.94,.09-1.36,.24-.13,.05-.31,.2-.26,.41,.02,.07,.1,.16,.19,.2,.03,.02,.1,.04,.15,.02,.24-.08,.47-.14,.72-.18l.98-.15-5.91,22.51c-.04,.15-.02,.31,.06,.42l.04,.06s.04,.05,.06,.06l.07,.05c.09,.05,.18,.08,.28,.08h14.77c.16,0,.31-.07,.41-.21,.1-.13,.13-.3,.09-.45l-5.56-21.25v-.58l.58-.08c.3-.04,.58-.1,.84-.21,.07-.03,.36-.15,.29-.41-.02-.06-.09-.16-.2-.21-.05-.03-.1-.03-.13-.03-.36,.14-.75,.22-1.14,.26l-.58,.05-.12-.57c-.36-1.7-.41-3.43-.16-5.16l.37-2.55c.02-.16-.02-.31-.12-.43-.09-.11-.23-.17-.38-.18l.02-1.3c.68,0,1.3-.31,1.72-.85l.42-.55,.52,.45c.1,.09,.17,.16,.24,.25,.72,.84,1.05,1.97,.9,3.08l-.38,2.56c-.22,1.57-.13,3.12,.26,4.59l5.85,22.24c.3,1.18,.06,2.4-.68,3.36h0c-.13,.17-.28,.33-.42,.46-.71,.67-1.66,1.04-2.64,1.04Zm-17.14-2.83c.11,.22,.21,.38,.33,.53,.08,.11,.18,.21,.27,.3,.28,.27,.6,.46,.98,.58,.25,.08,.51,.12,.79,.12h14.77c.66,0,1.28-.25,1.76-.7,.1-.09,.19-.19,.28-.3,.5-.65,.65-1.44,.45-2.24l-5.39-20.49c-.08,.05-.17,.09-.27,.12-.14,.05-.28,.1-.43,.14l5.37,20.43c.14,.54,.02,1.12-.32,1.57-.35,.46-.88,.72-1.45,.72h-14.77c-.35,0-.7-.11-1.01-.3l-.13-.09c-.11-.1-.22-.19-.31-.32l-.09-.14c-.27-.4-.36-.93-.23-1.42l.91-3.46,4.49-17.11c-.22,0-.45-.06-.66-.17-.02,0-.04-.02-.06-.03l-5.02,19.11-.47,2c0,.24,0,.43,.05,.6,.03,.18,.07,.3,.12,.43,.02,.05,.04,.09,.05,.13Zm12.91-32.86c.19,.35,.27,.75,.21,1.15l-.37,2.55c-.2,1.36-.2,2.73,.02,4.08,.08-.02,.15-.05,.22-.07,.16-.06,.33-.11,.5-.09-.19-1.24-.2-2.52-.02-3.81l.38-2.56c.08-.58-.04-1.17-.33-1.67-.19,.16-.41,.3-.63,.41Zm-6.93-.42c-.3,.52-.42,1.1-.33,1.67l.37,2.57c.18,1.24,.18,2.47,0,3.68,.25-.06,.51-.11,.77-.14,.16-1.2,.15-2.42-.03-3.65l-.38-2.55c-.06-.41,.02-.82,.22-1.17-.22-.11-.43-.25-.62-.4Z"/>
      </g>
      <path class="cls-3" d="M49.69,67.99h-3.18c-1.56,0-2.84,1.28-2.84,2.84v.92c0,.65,.23,1.25,.58,1.72,.52,.67,1.34,1.12,2.26,1.12h3.18c.91,0,1.72-.44,2.24-1.11,.38-.47,.6-1.08,.6-1.73v-.92c0-1.56-1.28-2.84-2.84-2.84Zm-3.18,4.55c-.44,0-.79-.36-.79-.79v-.92c0-.44,.36-.79,.79-.79h3.18c.44,0,.79,.36,.79,.79v.92c0,.44-.36,.79-.79,.79h-3.18Z"/>
      <g>
        <path class="cls-2" d="M52.08,85.06c-.33,.13-.66,.21-1.01,.25-.98,.15-1.99,0-2.97-.2-.96-.2-1.92-.44-2.88-.28-.2,.03-.4,.08-.59,.15-.49,.18-1.05-.2-1.19-.67-.14-.52,.19-1.01,.67-1.19,.51-.18,1.03-.26,1.56-.27,.8-.02,1.61,.12,2.4,.28,.84,.17,1.68,.37,2.51,.29,.33-.03,.65-.1,.97-.22,.48-.19,1.06,.21,1.19,.67,.15,.54-.19,1.01-.67,1.19Z"/>
        <path class="cls-2" d="M50.26,86.01c-.79,0-1.58-.13-2.28-.27l-.27-.06c-.84-.17-1.63-.34-2.38-.22-.17,.03-.33,.06-.48,.12-.38,.13-.79,.1-1.17-.09-.41-.21-.73-.59-.85-1.01-.22-.83,.24-1.67,1.07-1.98,.57-.2,1.15-.3,1.78-.31,.88-.03,1.78,.14,2.54,.29l.25,.05c.73,.15,1.42,.29,2.07,.23,.29-.03,.55-.09,.8-.18,.37-.14,.79-.11,1.17,.08,.42,.21,.75,.6,.87,1.03,.23,.83-.22,1.65-1.07,1.97-.36,.14-.76,.24-1.17,.29-.29,.04-.59,.06-.89,.06Zm-4.37-1.89c.72,0,1.42,.15,2.09,.29l.26,.05c.89,.17,1.84,.33,2.74,.19,.33-.04,.6-.1,.87-.21h.02c.06-.03,.34-.15,.27-.41-.02-.06-.09-.16-.2-.21-.05-.03-.1-.03-.13-.03-.36,.14-.75,.22-1.14,.26-.85,.08-1.66-.09-2.45-.25l-.25-.05c-.69-.14-1.49-.28-2.26-.27-.5,0-.94,.08-1.37,.23-.13,.05-.31,.2-.26,.41,.02,.07,.1,.16,.19,.2,.03,.02,.1,.04,.15,.02,.24-.08,.47-.14,.72-.18,.25-.04,.51-.06,.76-.06Z"/>
      </g>
    </g>
    <path class="cls-1" d="M91.9,88.69h0c-.21-.37-.07-.85,.3-1.05l.36-.2c.67-.37,1.45-.41,2.15-.1,.7,.3,1.21,.9,1.39,1.63l.86,3.38c.09,.34-.07,.7-.38,.87h0c-.44,.25-1,0-1.13-.49l-.86-3.38c-.07-.27-.25-.49-.51-.59-.26-.11-.54-.1-.78,.04l-.36,.2c-.37,.21-.85,.07-1.05-.3Z"/>
    <circle class="cls-1" cx="96.98" cy="94.83" r=".71"/>
    <path class="cls-1" d="M46.48,89.62h0c-.21-.37-.07-.85,.3-1.05l.36-.2c.67-.37,1.45-.41,2.15-.1,.7,.3,1.21,.9,1.39,1.63l.86,3.38c.09,.34-.07,.7-.38,.87h0c-.44,.25-1,0-1.13-.49l-.86-3.38c-.07-.27-.25-.49-.51-.59-.26-.11-.54-.1-.78,.04l-.36,.2c-.37,.21-.85,.07-1.05-.3Z"/>
    <circle class="cls-1" cx="51.56" cy="95.75" r=".71"/>
    <path class="cls-1" d="M69.34,89.94h0c-.21-.37-.07-.85,.3-1.05l.36-.2c.67-.37,1.45-.41,2.15-.1,.7,.3,1.21,.9,1.39,1.63l.86,3.38c.09,.34-.07,.7-.38,.87h0c-.44,.25-1,0-1.13-.49l-.86-3.38c-.07-.27-.25-.49-.51-.59-.26-.11-.54-.1-.78,.04l-.36,.2c-.37,.21-.85,.07-1.05-.3Z"/>
    <circle class="cls-1" cx="74.42" cy="96.07" r=".71"/>
  </g>
  <path class="cls-1" d="M96.83,32.67h0c-.24-.9,.3-1.82,1.2-2.05l.85-.22c1.59-.42,3.26-.08,4.56,.93,1.31,1,2.06,2.53,2.06,4.17v7.57c0,.76-.52,1.43-1.26,1.62h0c-1.06,.28-2.11-.52-2.1-1.62v-7.56c0-.59-.27-1.16-.74-1.52-.48-.37-1.08-.49-1.67-.34l-.85,.22c-.9,.24-1.81-.3-2.05-1.2Z"/>
  <circle class="cls-1" cx="104.22" cy="48.27" r="1.55"/>
</svg>