<svg xmlns="http://www.w3.org/2000/svg" width="512" height="512"><path d="M326.1 231.9l-47.5 75.5a31 31 0 01-7 7 30.11 30.11 0 01-35-49l75.5-47.5a10.23 10.23 0 0111.7 0 10.06 10.06 0 012.3 14z"/><path d="M256 64C132.3 64 32 164.2 32 287.9a223.18 223.18 0 0056.3 148.5c1.1 1.2 2.1 2.4 3.2 3.5a25.19 25.19 0 0037.1-.1 173.13 173.13 0 01254.8 0 25.19 25.19 0 0037.1.1l3.2-3.5A223.18 223.18 0 00480 287.9C480 164.2 379.7 64 256 64z" fill="none" stroke="#000" stroke-linecap="round" stroke-linejoin="round" stroke-width="32"/><path fill="none" stroke="#000" stroke-linecap="round" stroke-miterlimit="10" stroke-width="32" d="M256 128v32m160 128h-32m-256 0H96m69.49-90.51l-22.63-22.63m203.65 22.63l22.63-22.63"/></svg>