<?xml version="1.0" encoding="UTF-8"?>
<svg id="Layer_1" data-name="Layer 1" xmlns="http://www.w3.org/2000/svg" viewBox="0 0 512 512">
  <path d="m256,0C114.62,0,0,114.62,0,256s114.62,256,256,256,256-114.62,256-256S397.38,0,256,0m117.41,369.22c-4.62,7.5-14.43,9.86-21.95,5.28-60.13-36.7-135.78-45.02-224.9-24.64-8.6,1.96-17.16-3.42-19.12-12.02s3.42-17.16,12.02-19.12c97.54-22.27,181.18-12.7,248.64,28.54,7.51,4.61,9.89,14.42,5.31,21.95m31.33-69.7c-5.77,9.39-18.06,12.33-27.46,6.56-68.8-42.27-173.7-54.53-255.1-29.82-10.75,2.55-21.53-4.09-24.08-14.83-2.34-9.83,3.03-19.86,12.5-23.37,92.96-28.19,208.54-14.53,287.55,34.02,9.4,5.76,12.35,18.05,6.59,27.46m2.69-72.58c-82.5-49.02-218.62-53.54-297.41-29.63-12.65,3.84-26.02-3.31-29.86-15.97s3.31-26.02,15.97-29.86c90.4-27.42,240.74-22.14,335.74,34.24,11.38,6.75,15.14,21.45,8.38,32.83s-21.45,15.14-32.83,8.38h0"/>
</svg>