<svg xmlns="http://www.w3.org/2000/svg" viewBox="0 0 512 512"><path fill="none" stroke="#000" stroke-linecap="round" stroke-linejoin="round" stroke-width="32" d="M39.93,327.56l-4.71-8.13A24,24,0,0,1,44,286.64l86.87-50.07a16,16,0,0,1,21.89,5.86l12.71,22a16,16,0,0,1-5.86,21.85L72.76,336.35A24.06,24.06,0,0,1,39.93,327.56Z"/><path fill="none" stroke="#000" stroke-linecap="round" stroke-linejoin="round" stroke-width="32" d="M170.68,273.72,147.12,233a24,24,0,0,1,8.8-32.78l124.46-71.75a16,16,0,0,1,21.89,5.86l31.57,54.59A16,16,0,0,1,328,210.76L203.51,282.5A24,24,0,0,1,170.68,273.72Z"/><path fill="none" stroke="#000" stroke-linecap="round" stroke-linejoin="round" stroke-width="32" d="M341.85,202.21l-46.51-80.43A24,24,0,0,1,304.14,89l93.29-53.78A24.07,24.07,0,0,1,430.27,44l46.51,80.43a24,24,0,0,1-8.8,32.79L374.69,211A24.06,24.06,0,0,1,341.85,202.21Z"/><line fill="none" stroke="#000" stroke-linecap="round" stroke-linejoin="round" stroke-width="32" x1="127.59" y1="480" x2="223.73" y2="272.01"/><line fill="none" stroke="#000" stroke-linecap="round" stroke-linejoin="round" stroke-width="32" x1="271.8" y1="256.02" x2="368.55" y2="448"/></svg>