<?xml version="1.0" encoding="UTF-8"?>
<svg id="Layer_1" data-name="Layer 1" xmlns="http://www.w3.org/2000/svg" viewBox="0 0 141.73 141.73">
  <defs>
    <style>
      .cls-1 {
        fill: #53575a;
      }
    </style>
  </defs>
  <path class="cls-1" d="M110.9,29.6h0c-1.46,0-2.65-1.19-2.65-2.65v-9.96h5.3v9.96c0,1.46-1.19,2.65-2.65,2.65"/>
  <path class="cls-1" d="M118.07,29.6h0c-1.46,0-2.65-1.19-2.65-2.65v-9.96h5.3v9.96c0,1.46-1.19,2.65-2.65,2.65"/>
  <path class="cls-1" d="M104.11,34.41v5.3H22.06c-1.4,0-2.54,1.14-2.54,2.54v50.18h-5.3V42.25c0-4.32,3.52-7.84,7.84-7.84H104.11Z"/>
  <path class="cls-1" d="M110.9,92.43v5.3H36.82c-1.46,0-2.65-1.19-2.65-2.65s1.19-2.65,2.65-2.65H110.9Z"/>
  <path class="cls-1" d="M110.9,92.43v5.3H36.82c-1.46,0-2.65-1.19-2.65-2.65s1.19-2.65,2.65-2.65H110.9Z"/>
  <path class="cls-1" d="M26.69,95.08h0c0,1.46-1.19,2.65-2.65,2.65H14.22v-5.3h9.82c1.46,0,2.65,1.19,2.65,2.65"/>
  <path class="cls-1" d="M110.9,104.19v5.3H22.06c-4.32,0-7.84-3.52-7.84-7.84v-3.92h5.3v3.92c0,1.4,1.14,2.54,2.54,2.54H110.9Z"/>
  <path class="cls-1" d="M83.45,118.27h-25.16v-14.08h25.16v14.08Zm-19.86-5.3h14.56v-3.47h-14.56v3.47Z"/>
  <path class="cls-1" d="M98.23,127.04H43.51v-4.66c0-5.19,4.22-9.42,9.41-9.42h35.89c5.19,0,9.41,4.22,9.41,9.42v4.66Zm-49.37-5.3h44.02c-.31-1.97-2.01-3.47-4.06-3.47H52.92c-2.05,0-3.76,1.51-4.06,3.47"/>
  <path class="cls-1" d="M123.68,59.15h-18.39c-2.11,0-3.83-1.72-3.83-3.83V18.18c0-2.11,1.72-3.83,3.83-3.83h18.39c2.11,0,3.83,1.72,3.83,3.83V55.32c0,2.11-1.72,3.83-3.83,3.83m-16.92-5.3h15.46V19.65h-15.46V53.86Z"/>
  <path class="cls-1" d="M117.88,127.38h-6.8c-1.56,0-2.83-1.27-2.83-2.83V53.86h12.47V124.55c0,1.56-1.27,2.83-2.83,2.83m-4.34-5.3h1.87V59.15h-1.87v62.93Z"/>
  <rect class="cls-1" x="104.1" y="38.5" width="20.76" height="5.3"/>
</svg>