<svg xmlns="http://www.w3.org/2000/svg" viewBox="0 0 512 512"><path fill="none" stroke="#000" stroke-linecap="round" stroke-width="32" stroke-linejoin="round" d="M374.79,308.78,457.5,367A16,16,0,0,0,480,352.38V159.62A16,16,0,0,0,457.5,145l-82.71,58.22A16,16,0,0,0,368,216.3v79.4A16,16,0,0,0,374.79,308.78Z"/><path fill="none" stroke="#000" stroke-linecap="round" stroke-width="32" stroke-miterlimit="10" d="M50.19,140.57A51.94,51.94,0,0,0,32,180V332a52.15,52.15,0,0,0,52,52H268a51.6,51.6,0,0,0,22-4.9"/><path fill="none" stroke="#000" stroke-linecap="round" stroke-width="32" stroke-miterlimit="10" d="M208,128h60.48A51.68,51.68,0,0,1,320,179.52V248"/><line fill="none" stroke="#000" stroke-linecap="round" stroke-width="32" stroke-miterlimit="10" x1="416" y1="416" x2="80" y2="80"/></svg>