<?xml version="1.0" encoding="UTF-8"?>
<svg id="Layer_1" data-name="Layer 1" xmlns="http://www.w3.org/2000/svg" xmlns:xlink="http://www.w3.org/1999/xlink" viewBox="0 0 141.73 141.73">
  <defs>
    <style>
      .cls-1 {
        fill: none;
      }

      .cls-2 {
        clip-path: url(#clippath);
      }

      .cls-3 {
        fill: #555759;
      }

      .cls-4 {
        clip-path: url(#clippath-1);
      }
    </style>
    <clipPath id="clippath">
      <rect class="cls-1" x="0" y="0" width="141.73" height="141.73"/>
    </clipPath>
    <clipPath id="clippath-1">
      <rect class="cls-1" x="0" y="0" width="141.73" height="141.73"/>
    </clipPath>
  </defs>
  <g class="cls-2">
    <g class="cls-4">
      <path class="cls-3" d="M97.05,87.15c-.97,0-1.95-.33-2.76-.99-7.49-6.17-16.19-9.44-25.16-9.44s-17.07,3.05-24.38,8.82c-1.89,1.49-4.62,1.17-6.11-.72-1.49-1.89-1.17-4.62,.72-6.11,8.86-6.99,19.16-10.69,29.77-10.69s21.62,3.95,30.69,11.43c1.85,1.53,2.12,4.27,.59,6.12-.86,1.04-2.1,1.58-3.36,1.58"/>
      <path class="cls-3" d="M110.17,71.02c-.97,0-1.94-.32-2.75-.99-11.4-9.34-24.64-14.28-38.29-14.28-12.79,0-25.32,4.38-36.23,12.66-1.91,1.45-4.64,1.08-6.09-.84-1.45-1.91-1.08-4.64,.84-6.1,12.44-9.44,26.78-14.42,41.49-14.42,15.68,0,30.83,5.62,43.8,16.25,1.86,1.52,2.13,4.26,.61,6.12-.86,1.05-2.11,1.59-3.37,1.59"/>
      <path class="cls-3" d="M123.21,55.04c-.99,0-1.98-.33-2.79-1.02-15.2-12.76-32.94-19.51-51.28-19.51-16.96,0-33.54,5.83-47.96,16.85-1.91,1.46-4.64,1.09-6.1-.81-1.46-1.91-1.1-4.64,.81-6.1,15.95-12.19,34.36-18.64,53.25-18.64,20.42,0,40.09,7.45,56.88,21.54,1.84,1.55,2.08,4.29,.54,6.13-.86,1.02-2.09,1.55-3.33,1.55"/>
      <path class="cls-3" d="M69.39,117.15c-7.98,0-14.47-6.49-14.47-14.47s6.49-14.47,14.47-14.47,14.47,6.49,14.47,14.47-6.49,14.47-14.47,14.47m0-20.24c-3.18,0-5.77,2.59-5.77,5.77s2.59,5.77,5.77,5.77,5.77-2.59,5.77-5.77-2.59-5.77-5.77-5.77"/>
    </g>
  </g>
</svg>