<?xml version="1.0" encoding="utf-8"?>
<!-- Generator: Adobe Illustrator 16.2.1, SVG Export Plug-In . SVG Version: 6.00 Build 0)  -->
<!DOCTYPE svg PUBLIC "-//W3C//DTD SVG 1.1//EN" "http://www.w3.org/Graphics/SVG/1.1/DTD/svg11.dtd">
<svg version="1.1" xmlns="http://www.w3.org/2000/svg" xmlns:xlink="http://www.w3.org/1999/xlink" x="0px" y="0px" width="512px"
	 height="512px" viewBox="0 0 512 512" style="enable-background:new 0 0 512 512;" xml:space="preserve">
<style type="text/css">
<![CDATA[
	.st0{fill:#4E8EF7;}
	.st1{display:inline;}
	.st2{display:none;}
]]>
</style>
<g id="Layer_1" class="st2">
	<g class="st1">
		<path class="st0" d="M434.6,121.3c4.5-5.4,7.2-12.4,7.2-20c0-17.3-14-31.3-31.3-31.3c-7.6,0-14.5,2.7-20,7.2
			C353,48.8,306.3,32,255.8,32c-123.5,0-224,100.5-224,224c0,123.5,100.5,224,224,224s224-100.5,224-224
			C479.8,205.4,463,158.8,434.6,121.3z M255.8,471c-118.6,0-215-96.5-215-215c0-118.6,96.5-215,215-215c48.2,0,92.8,16,128.7,42.8
			c-3.4,5-5.3,11-5.3,17.5c0,17.3,14,31.3,31.3,31.3c6.5,0,12.5-2,17.5-5.3c26.9,35.9,42.8,80.5,42.8,128.7
			C470.8,374.5,374.3,471,255.8,471z"/>
		<ellipse class="st0" cx="255.8" cy="256" rx="96.2" ry="96.1"/>
	</g>
</g>
<g id="Layer_2">
	<g>
		<path class="st0" d="M370.9,57.5c2.9-3.5,4.6-8,4.6-12.9c0-11.2-9-20.2-20.2-20.2c-4.9,0-9.4,1.7-12.9,4.6
			C318.2,10.8,288.2,0,255.6,0C176,0,111.2,64.8,111.2,144.4c0,79.6,64.8,144.4,144.4,144.4c79.6,0,144.4-64.8,144.4-144.4
			C400,111.8,389.1,81.7,370.9,57.5z M255.6,282.9c-76.4,0-138.6-62.2-138.6-138.6C117,67.9,179.2,5.8,255.6,5.8
			c31.1,0,59.8,10.3,82.9,27.6c-2.2,3.2-3.4,7.1-3.4,11.3c0,11.2,9,20.2,20.2,20.2c4.2,0,8.1-1.3,11.3-3.4
			c17.3,23.1,27.6,51.9,27.6,82.9C394.2,220.8,332,282.9,255.6,282.9z"/>
		<rect x="30" y="396" class="st0" width="6" height="113"/>
		<path class="st0" d="M119.2,393.8c-33.8,0-59.3,25.5-59.3,59.1c0,33.8,25.5,59.1,59.3,59.1c33.8,0,59.3-25.3,59.3-59.1
			C178.5,419.3,153,393.8,119.2,393.8z M119.2,506.5c-30.4,0-53.3-23-53.3-53.6c0-30.6,22.9-53.5,53.3-53.5
			c30.4,0,53.3,23,53.3,53.5C172.5,483.5,149.6,506.5,119.2,506.5z"/>
		<path class="st0" d="M291.3,405.1c-12.8-10.4-28.2-11.4-36.1-11.4c-17.8,0-37.8,7.3-44.8,24.3h1.7v-22h-6v113h6v-64.6
			c0-28.3,16.4-45,44.6-45c17,0,26.5,5.5,32.2,10.6c8.5,7.6,14.1,20.2,14.1,39.7V509h5v-59.3C308,429.5,302.3,414.4,291.3,405.1z"/>
		<rect x="340" y="396" class="st0" width="6" height="113"/>
		<path class="st0" d="M430.7,505.6c-28.7,0-53.3-21.2-53.3-53.1c0-15.3,6.4-30,15.5-38.2c11.7-10.4,22.1-15.5,38-15.5
			c22.1,0,41.6,11.3,49.3,33.3h6.6c-8.9-25-33.1-38.7-56.1-38.7c-34.2,0-59.3,26.2-59.3,59.6c0,35.1,26.6,58.1,59.3,58.1
			c26.8,0,48-15,55.9-39H480C474.5,490,456.2,505.6,430.7,505.6z"/>
		<circle class="st0" cx="31.6" cy="361.7" r="6.4"/>
		<circle class="st0" cx="343.1" cy="361.7" r="6.4"/>
		<circle class="st0" cx="255.6" cy="144.4" r="58.8"/>
	</g>
</g>
</svg>
